<?xml version="1.0" encoding="UTF-8" standalone="no"?><svg xmlns="http://www.w3.org/2000/svg" xmlns:xlink="http://www.w3.org/1999/xlink" contentScriptType="application/ecmascript" contentStyleType="text/css" height="646.5px" preserveAspectRatio="none" style="width:1185px;height:646px;" version="1.1" viewBox="0 0 1185 646" width="1185px" zoomAndPan="magnify"><defs/><g><rect fill="#C8C8FA" height="613.7344" style="stroke: #A80036; stroke-width: 1.5;" width="945" x="82.5" y="6"/><text fill="#FFFFFF" font-family="sans-serif" font-size="22.5" font-weight="bold" lengthAdjust="spacingAndGlyphs" textLength="58.5" x="522.75" y="29.3569">Logic</text><rect fill="#F97181" height="613.7344" style="stroke: #A80036; stroke-width: 1.5;" width="138" x="1030.5" y="6"/><text fill="#FFFFFF" font-family="sans-serif" font-size="22.5" font-weight="bold" lengthAdjust="spacingAndGlyphs" textLength="66" x="1063.5" y="29.3569">Model</text><rect fill="#FFFFFF" height="463.9922" style="stroke: #A80036; stroke-width: 1.5;" width="15" x="177" y="137.7422"/><rect fill="#FFFFFF" height="154.9688" style="stroke: #A80036; stroke-width: 1.5;" width="15" x="432" y="183.2695"/><rect fill="#FFFFFF" height="73.4414" style="stroke: #A80036; stroke-width: 1.5;" width="15" x="675" y="219.2695"/><rect fill="#FFFFFF" height="196.9688" style="stroke: #A80036; stroke-width: 1.5;" width="15" x="675" y="383.7656"/><rect fill="#FFFFFF" height="48.9141" style="stroke: #A80036; stroke-width: 1.5;" width="15" x="907.5" y="486.293"/><rect fill="#FFFFFF" height="21" style="stroke: #A80036; stroke-width: 1.5;" width="15" x="1092" y="429.293"/><line style="stroke: #A80036; stroke-width: 1.5; stroke-dasharray: 5.0,5.0;" x1="184.5" x2="184.5" y1="89.2148" y2="628.7344"/><line style="stroke: #A80036; stroke-width: 1.5; stroke-dasharray: 5.0,5.0;" x1="439.5" x2="439.5" y1="89.2148" y2="628.7344"/><line style="stroke: #A80036; stroke-width: 1.5; stroke-dasharray: 5.0,5.0;" x1="682.5" x2="682.5" y1="242.2266" y2="628.7344"/><line style="stroke: #A80036; stroke-width: 1.5; stroke-dasharray: 5.0,5.0;" x1="915" x2="915" y1="509.25" y2="628.7344"/><line style="stroke: #A80036; stroke-width: 1.5; stroke-dasharray: 5.0,5.0;" x1="1099.5" x2="1099.5" y1="89.2148" y2="628.7344"/><rect fill="#3333C4" height="47.4141" style="stroke: #A80036; stroke-width: 2.25;" width="162" x="103.5" y="40.3008"/><text fill="#FFFFFF" font-family="sans-serif" font-size="21" lengthAdjust="spacingAndGlyphs" textLength="141" x="114" y="72.6006">:LogicManager</text><rect fill="#3333C4" height="47.4141" style="stroke: #A80036; stroke-width: 2.25;" width="204" x="337.5" y="40.3008"/><text fill="#FFFFFF" font-family="sans-serif" font-size="21" lengthAdjust="spacingAndGlyphs" textLength="183" x="348" y="72.6006">:RecipeBookParser</text><rect fill="#9D0012" height="47.4141" style="stroke: #A80036; stroke-width: 2.25;" width="96" x="1051.5" y="40.3008"/><text fill="#FFFFFF" font-family="sans-serif" font-size="21" lengthAdjust="spacingAndGlyphs" textLength="63" x="1068" y="72.6006">:Model</text><rect fill="#FFFFFF" height="463.9922" style="stroke: #A80036; stroke-width: 1.5;" width="15" x="177" y="137.7422"/><rect fill="#FFFFFF" height="154.9688" style="stroke: #A80036; stroke-width: 1.5;" width="15" x="432" y="183.2695"/><rect fill="#FFFFFF" height="73.4414" style="stroke: #A80036; stroke-width: 1.5;" width="15" x="675" y="219.2695"/><rect fill="#FFFFFF" height="196.9688" style="stroke: #A80036; stroke-width: 1.5;" width="15" x="675" y="383.7656"/><rect fill="#FFFFFF" height="48.9141" style="stroke: #A80036; stroke-width: 1.5;" width="15" x="907.5" y="486.293"/><rect fill="#FFFFFF" height="21" style="stroke: #A80036; stroke-width: 1.5;" width="15" x="1092" y="429.293"/><polygon fill="#A80036" points="159,131.7422,174,137.7422,159,143.7422,165,137.7422" style="stroke: #A80036; stroke-width: 1.5;"/><line style="stroke: #A80036; stroke-width: 1.5;" x1="4.5" x2="168" y1="137.7422" y2="137.7422"/><text fill="#000000" font-family="sans-serif" font-size="19.5" lengthAdjust="spacingAndGlyphs" textLength="144" x="18.75" y="130.4575">execute("count")</text><polygon fill="#A80036" points="414,177.2695,429,183.2695,414,189.2695,420,183.2695" style="stroke: #A80036; stroke-width: 1.5;"/><line style="stroke: #A80036; stroke-width: 1.5;" x1="192" x2="423" y1="183.2695" y2="183.2695"/><text fill="#000000" font-family="sans-serif" font-size="19.5" lengthAdjust="spacingAndGlyphs" textLength="211.5" x="206.25" y="175.9849">parseCommand("count")</text><polygon fill="#A80036" points="568.5,198.2695,583.5,204.2695,568.5,210.2695,574.5,204.2695" style="stroke: #A80036; stroke-width: 1.5;"/><line style="stroke: #A80036; stroke-width: 1.5;" x1="447" x2="577.5" y1="204.2695" y2="204.2695"/><rect fill="#3333C4" height="47.4141" style="stroke: #A80036; stroke-width: 2.25;" width="192" x="586.5" y="195.2695"/><text fill="#FFFFFF" font-family="sans-serif" font-size="21" lengthAdjust="spacingAndGlyphs" textLength="171" x="597" y="227.5693">d:CountCommand</text><polygon fill="#A80036" points="463.5,286.7109,448.5,292.7109,463.5,298.7109,457.5,292.7109" style="stroke: #A80036; stroke-width: 1.5;"/><line style="stroke: #A80036; stroke-width: 1.5; stroke-dasharray: 2.0,2.0;" x1="454.5" x2="681" y1="292.7109" y2="292.7109"/><text fill="#000000" font-family="sans-serif" font-size="19.5" lengthAdjust="spacingAndGlyphs" textLength="10.5" x="559.5" y="285.4263">d</text><polygon fill="#A80036" points="208.5,332.2383,193.5,338.2383,208.5,344.2383,202.5,338.2383" style="stroke: #A80036; stroke-width: 1.5;"/><line style="stroke: #A80036; stroke-width: 1.5; stroke-dasharray: 2.0,2.0;" x1="199.5" x2="438" y1="338.2383" y2="338.2383"/><text fill="#000000" font-family="sans-serif" font-size="19.5" lengthAdjust="spacingAndGlyphs" textLength="10.5" x="310.5" y="330.9536">d</text><polygon fill="#A80036" points="657,377.7656,672,383.7656,657,389.7656,663,383.7656" style="stroke: #A80036; stroke-width: 1.5;"/><line style="stroke: #A80036; stroke-width: 1.5;" x1="192" x2="666" y1="383.7656" y2="383.7656"/><text fill="#000000" font-family="sans-serif" font-size="19.5" lengthAdjust="spacingAndGlyphs" textLength="81" x="393" y="376.481">execute()</text><polygon fill="#A80036" points="1074,423.293,1089,429.293,1074,435.293,1080,429.293" style="stroke: #A80036; stroke-width: 1.5;"/><line style="stroke: #A80036; stroke-width: 1.5;" x1="690" x2="1083" y1="429.293" y2="429.293"/><text fill="#000000" font-family="sans-serif" font-size="19.5" lengthAdjust="spacingAndGlyphs" textLength="60" x="861" y="422.0083">count()</text><polygon fill="#A80036" points="706.5,444.293,691.5,450.293,706.5,456.293,700.5,450.293" style="stroke: #A80036; stroke-width: 1.5;"/><line style="stroke: #A80036; stroke-width: 1.5; stroke-dasharray: 2.0,2.0;" x1="697.5" x2="1098" y1="450.293" y2="450.293"/><polygon fill="#A80036" points="805.5,465.293,820.5,471.293,805.5,477.293,811.5,471.293" style="stroke: #A80036; stroke-width: 1.5;"/><line style="stroke: #A80036; stroke-width: 1.5;" x1="690" x2="814.5" y1="471.293" y2="471.293"/><rect fill="#3333C4" height="47.4141" style="stroke: #A80036; stroke-width: 2.25;" width="183" x="823.5" y="462.293"/><text fill="#FFFFFF" font-family="sans-serif" font-size="21" lengthAdjust="spacingAndGlyphs" textLength="162" x="834" y="494.5928">:CommandResult</text><polygon fill="#A80036" points="706.5,529.207,691.5,535.207,706.5,541.207,700.5,535.207" style="stroke: #A80036; stroke-width: 1.5;"/><line style="stroke: #A80036; stroke-width: 1.5; stroke-dasharray: 2.0,2.0;" x1="697.5" x2="913.5" y1="535.207" y2="535.207"/><polygon fill="#A80036" points="208.5,574.7344,193.5,580.7344,208.5,586.7344,202.5,580.7344" style="stroke: #A80036; stroke-width: 1.5;"/><line style="stroke: #A80036; stroke-width: 1.5; stroke-dasharray: 2.0,2.0;" x1="199.5" x2="681" y1="580.7344" y2="580.7344"/><text fill="#000000" font-family="sans-serif" font-size="19.5" lengthAdjust="spacingAndGlyphs" textLength="48" x="413.25" y="573.4497">result</text><polygon fill="#A80036" points="21,595.7344,6,601.7344,21,607.7344,15,601.7344" style="stroke: #A80036; stroke-width: 1.5;"/><line style="stroke: #A80036; stroke-width: 1.5; stroke-dasharray: 2.0,2.0;" x1="12" x2="183" y1="601.7344" y2="601.7344"/><!--MD5=[d7cacf5e2411fd19de1f0f3cd833fe54]
@startuml CountSequenceDiagram








skinparam BackgroundColor #FFFFFFF

skinparam Shadowing false

skinparam Class {
    FontColor #FFFFFF
    BorderThickness 1
    BorderColor #FFFFFF
    StereotypeFontColor #FFFFFF
    FontName Arial
}

skinparam Actor {
    BorderColor #000000
    Color #000000
    FontName Arial
}

skinparam Sequence {
    MessageAlign center
    BoxFontSize 15
    BoxPadding 0
    BoxFontColor #FFFFFF
    FontName Arial
}

skinparam Participant {
    FontColor #FFFFFFF
    Padding 20
}

skinparam MinClassWidth 50
skinparam ParticipantPadding 10
skinparam Shadowing false
skinparam DefaultTextAlignment center
skinparam packageStyle Rectangle

hide footbox
hide members
hide circle

box Logic #C8C8FA
participant ":LogicManager" as LogicManager #3333C4
participant ":RecipeBookParser" as RecipeBookParser #3333C4
participant "d:CountCommand" as CountCommand #3333C4
participant ":CommandResult" as CommandResult #3333C4
end box

box Model #F97181
participant ":Model" as Model #9D0012
end box

[-> LogicManager : execute("count")
activate LogicManager

LogicManager -> RecipeBookParser : parseCommand("count")
activate RecipeBookParser

create CountCommand
RecipeBookParser -> CountCommand
activate CountCommand

CountCommand - -> RecipeBookParser : d
deactivate CountCommand

RecipeBookParser - -> LogicManager : d
deactivate RecipeBookParser

LogicManager -> CountCommand : execute()
activate CountCommand

CountCommand -> Model : count()
activate Model

Model - -> CountCommand
deactivate Model

create CommandResult
CountCommand -> CommandResult
activate CommandResult

CommandResult - -> CountCommand
deactivate CommandResult

CountCommand - -> LogicManager : result
deactivate CountCommand

[<- -LogicManager
deactivate LogicManager
@enduml

PlantUML version 1.2020.03beta6(Unknown compile time)
(GPL source distribution)
Java Runtime: OpenJDK Runtime Environment
JVM: OpenJDK 64-Bit Server VM
Java Version: 11.0.5+10-b520.30
Operating System: Windows 10
Default Encoding: Cp1252
Language: en
Country: SG
--></g></svg>
