<?xml version="1.0" encoding="UTF-8" standalone="no"?><svg xmlns="http://www.w3.org/2000/svg" xmlns:xlink="http://www.w3.org/1999/xlink" contentScriptType="application/ecmascript" contentStyleType="text/css" height="573px" preserveAspectRatio="none" style="width:552px;height:573px;" version="1.1" viewBox="0 0 552 573" width="552px" zoomAndPan="magnify"><defs/><g><ellipse cx="280.125" cy="30" fill="#000000" rx="15" ry="15" style="stroke: none; stroke-width: 1.5;"/><rect fill="#FEFECE" height="52.6406" rx="18.75" ry="18.75" style="stroke: #A80036; stroke-width: 2.25;" width="268.5" x="145.875" y="75"/><text fill="#000000" font-family="sans-serif" font-size="18" lengthAdjust="spacingAndGlyphs" textLength="238.5" x="160.875" y="108.6855">User inputs Count command</text><polygon fill="#FEFECE" points="280.125,157.6406,280.125,157.6406,298.125,175.6406,280.125,193.6406,280.125,193.6406,262.125,175.6406,280.125,157.6406" style="stroke: #A80036; stroke-width: 2.25;"/><text fill="#000000" font-family="sans-serif" font-size="16.5" lengthAdjust="spacingAndGlyphs" textLength="187.5" x="74.625" y="172.0151">[Correct command format]</text><text fill="#000000" font-family="sans-serif" font-size="16.5" lengthAdjust="spacingAndGlyphs" textLength="100.5" x="298.125" y="172.0151">[Syntax error]</text><rect fill="#FEFECE" height="52.6406" rx="18.75" ry="18.75" style="stroke: #A80036; stroke-width: 2.25;" width="199.5" x="42.75" y="208.6406"/><text fill="#000000" font-family="sans-serif" font-size="18" lengthAdjust="spacingAndGlyphs" textLength="169.5" x="57.75" y="242.3262">Count all the recipes</text><rect fill="#FEFECE" height="52.6406" rx="18.75" ry="18.75" style="stroke: #A80036; stroke-width: 2.25;" width="255" x="15" y="313.7813"/><text fill="#000000" font-family="sans-serif" font-size="18" lengthAdjust="spacingAndGlyphs" textLength="225" x="30" y="347.4668">Returns success message</text><rect fill="#FEFECE" height="75.2813" rx="18.75" ry="18.75" style="stroke: #A80036; stroke-width: 2.25;" width="235.5" x="300" y="208.6406"/><text fill="#000000" font-family="sans-serif" font-size="18" lengthAdjust="spacingAndGlyphs" textLength="205.5" x="315" y="242.3262">Returns failure message</text><text fill="#000000" font-family="sans-serif" font-size="18" lengthAdjust="spacingAndGlyphs" textLength="157.5" x="339" y="264.9668">(Invalid Command)</text><polygon fill="#FEFECE" points="280.125,375.4219,298.125,393.4219,280.125,411.4219,262.125,393.4219,280.125,375.4219" style="stroke: #A80036; stroke-width: 2.25;"/><rect fill="#FEFECE" height="52.6406" rx="18.75" ry="18.75" style="stroke: #A80036; stroke-width: 2.25;" width="343.5" x="108.375" y="441.4219"/><text fill="#000000" font-family="sans-serif" font-size="18" lengthAdjust="spacingAndGlyphs" textLength="313.5" x="123.375" y="475.1074">LogicManager prints message to user</text><ellipse cx="280.125" cy="540.5625" fill="#FFFFFF" rx="16.5" ry="16.5" style="stroke: #000000; stroke-width: 1.5;"/><ellipse cx="280.125" cy="540.5625" fill="#000000" rx="9" ry="9" style="stroke: #7F7F7F; stroke-width: 1.5;"/><line style="stroke: #A80036; stroke-width: 2.25;" x1="280.125" x2="280.125" y1="45" y2="75"/><polygon fill="#A80036" points="274.125,60,280.125,75,286.125,60,280.125,66" style="stroke: #A80036; stroke-width: 1.5;"/><line style="stroke: #A80036; stroke-width: 2.25;" x1="142.5" x2="142.5" y1="261.2813" y2="313.7813"/><polygon fill="#A80036" points="136.5,298.7813,142.5,313.7813,148.5,298.7813,142.5,304.7813" style="stroke: #A80036; stroke-width: 1.5;"/><line style="stroke: #A80036; stroke-width: 2.25;" x1="262.125" x2="142.5" y1="175.6406" y2="175.6406"/><line style="stroke: #A80036; stroke-width: 2.25;" x1="142.5" x2="142.5" y1="175.6406" y2="208.6406"/><polygon fill="#A80036" points="136.5,193.6406,142.5,208.6406,148.5,193.6406,142.5,199.6406" style="stroke: #A80036; stroke-width: 1.5;"/><line style="stroke: #A80036; stroke-width: 2.25;" x1="298.125" x2="417.75" y1="175.6406" y2="175.6406"/><line style="stroke: #A80036; stroke-width: 2.25;" x1="417.75" x2="417.75" y1="175.6406" y2="208.6406"/><polygon fill="#A80036" points="411.75,193.6406,417.75,208.6406,423.75,193.6406,417.75,199.6406" style="stroke: #A80036; stroke-width: 1.5;"/><line style="stroke: #A80036; stroke-width: 2.25;" x1="142.5" x2="142.5" y1="366.4219" y2="393.4219"/><line style="stroke: #A80036; stroke-width: 2.25;" x1="142.5" x2="262.125" y1="393.4219" y2="393.4219"/><polygon fill="#A80036" points="247.125,387.4219,262.125,393.4219,247.125,399.4219,253.125,393.4219" style="stroke: #A80036; stroke-width: 1.5;"/><line style="stroke: #A80036; stroke-width: 2.25;" x1="417.75" x2="417.75" y1="283.9219" y2="393.4219"/><line style="stroke: #A80036; stroke-width: 2.25;" x1="417.75" x2="298.125" y1="393.4219" y2="393.4219"/><polygon fill="#A80036" points="313.125,387.4219,298.125,393.4219,313.125,399.4219,307.125,393.4219" style="stroke: #A80036; stroke-width: 1.5;"/><line style="stroke: #A80036; stroke-width: 2.25;" x1="280.125" x2="280.125" y1="127.6406" y2="157.6406"/><polygon fill="#A80036" points="274.125,142.6406,280.125,157.6406,286.125,142.6406,280.125,148.6406" style="stroke: #A80036; stroke-width: 1.5;"/><line style="stroke: #A80036; stroke-width: 2.25;" x1="280.125" x2="280.125" y1="411.4219" y2="441.4219"/><polygon fill="#A80036" points="274.125,426.4219,280.125,441.4219,286.125,426.4219,280.125,432.4219" style="stroke: #A80036; stroke-width: 1.5;"/><line style="stroke: #A80036; stroke-width: 2.25;" x1="280.125" x2="280.125" y1="494.0625" y2="524.0625"/><polygon fill="#A80036" points="274.125,509.0625,280.125,524.0625,286.125,509.0625,280.125,515.0625" style="stroke: #A80036; stroke-width: 1.5;"/><!--MD5=[cb3d8bc8ebd5dd8ecef59908d2949c53]
@startuml








skinparam BackgroundColor #FFFFFFF

skinparam Shadowing false

skinparam Class {
    FontColor #FFFFFF
    BorderThickness 1
    BorderColor #FFFFFF
    StereotypeFontColor #FFFFFF
    FontName Arial
}

skinparam Actor {
    BorderColor #000000
    Color #000000
    FontName Arial
}

skinparam Sequence {
    MessageAlign center
    BoxFontSize 15
    BoxPadding 0
    BoxFontColor #FFFFFF
    FontName Arial
}

skinparam Participant {
    FontColor #FFFFFFF
    Padding 20
}

skinparam MinClassWidth 50
skinparam ParticipantPadding 10
skinparam Shadowing false
skinparam DefaultTextAlignment center
skinparam packageStyle Rectangle

hide footbox
hide members
hide circle

start
:User inputs Count command;

If () then ([Correct command format])
    :Count all the recipes;
    :Returns success message;
else ([Syntax error])
    :Returns failure message
    (Invalid Command);
endif
:LogicManager prints message to user;

stop
@enduml

PlantUML version 1.2020.03beta6(Unknown compile time)
(GPL source distribution)
Java Runtime: OpenJDK Runtime Environment
JVM: OpenJDK 64-Bit Server VM
Java Version: 11.0.5+10-b520.30
Operating System: Windows 10
Default Encoding: Cp1252
Language: en
Country: SG
--></g></svg>
