<?xml version="1.0" encoding="UTF-8" standalone="no"?><svg xmlns="http://www.w3.org/2000/svg" xmlns:xlink="http://www.w3.org/1999/xlink" contentScriptType="application/ecmascript" contentStyleType="text/css" height="210px" preserveAspectRatio="none" style="width:322px;height:210px;" version="1.1" viewBox="0 0 322 210" width="322px" zoomAndPan="magnify"><defs/><g><!--MD5=[a46ee5ce0ceb0380cf446a08a056dce4]
class A--><rect fill="#1616B0" height="23.9688" id="A" style="stroke: #FFFFFF; stroke-width: 1.0;" width="50" x="91" y="92"/><rect fill="#1616B0" height="23.9688" style="stroke: #FFFFFF; stroke-width: 1.0;" width="50" x="91" y="92"/><text fill="#FFFFFF" font-family="Arial" font-size="12" lengthAdjust="spacingAndGlyphs" textLength="8" x="112" y="108.1387">A</text><!--MD5=[69c451c751c414e37549b782190fef46]
class B--><rect fill="#1616B0" height="23.9688" id="B" style="stroke: #FFFFFF; stroke-width: 1.0;" width="50" x="176" y="92"/><rect fill="#1616B0" height="23.9688" style="stroke: #FFFFFF; stroke-width: 1.0;" width="50" x="176" y="92"/><text fill="#FFFFFF" font-family="Arial" font-size="12" lengthAdjust="spacingAndGlyphs" textLength="8" x="197" y="108.1387">B</text><!--MD5=[378b18254a1b2429f435e93f5e5cc50c]
class C--><rect fill="#1616B0" height="23.9688" id="C" style="stroke: #FFFFFF; stroke-width: 1.0;" width="50" x="261" y="92"/><rect fill="#1616B0" height="23.9688" style="stroke: #FFFFFF; stroke-width: 1.0;" width="50" x="261" y="92"/><text fill="#FFFFFF" font-family="Arial" font-size="12" lengthAdjust="spacingAndGlyphs" textLength="8" x="282" y="108.1387">C</text><!--MD5=[69b356fec5e4f53d7535011b6fc9d60b]
class D--><rect fill="#1616B0" height="23.9688" id="D" style="stroke: #FFFFFF; stroke-width: 1.0;" width="50" x="48" y="176"/><rect fill="#1616B0" height="23.9688" style="stroke: #FFFFFF; stroke-width: 1.0;" width="50" x="48" y="176"/><text fill="#FFFFFF" font-family="Arial" font-size="12" lengthAdjust="spacingAndGlyphs" textLength="9" x="68.5" y="192.1387">D</text><!--MD5=[eb7362c74a3b2d1e105f05f83a44a725]
class 1--><rect fill="#7B000E" height="23.9688" id="1" style="stroke: #FFFFFF; stroke-width: 1.0;" width="50" x="91" y="8"/><rect fill="#7B000E" height="23.9688" style="stroke: #FFFFFF; stroke-width: 1.0;" width="50" x="91" y="8"/><text fill="#FFFFFF" font-family="Arial" font-size="12" lengthAdjust="spacingAndGlyphs" textLength="8" x="112" y="24.1387">1</text><!--MD5=[49ee3c525b3ef67192d456685a6b8001]
class 2--><rect fill="#7B000E" height="23.9688" id="2" style="stroke: #FFFFFF; stroke-width: 1.0;" width="50" x="176" y="8"/><rect fill="#7B000E" height="23.9688" style="stroke: #FFFFFF; stroke-width: 1.0;" width="50" x="176" y="8"/><text fill="#FFFFFF" font-family="Arial" font-size="12" lengthAdjust="spacingAndGlyphs" textLength="8" x="197" y="24.1387">2</text><!--MD5=[553e75b4d7d4ea28935e682d06bd7e3d]
class 3--><rect fill="#7B000E" height="23.9688" id="3" style="stroke: #FFFFFF; stroke-width: 1.0;" width="50" x="261" y="8"/><rect fill="#7B000E" height="23.9688" style="stroke: #FFFFFF; stroke-width: 1.0;" width="50" x="261" y="8"/><text fill="#FFFFFF" font-family="Arial" font-size="12" lengthAdjust="spacingAndGlyphs" textLength="8" x="282" y="24.1387">3</text><!--MD5=[af7907727909a164f50127c974702c4f]
class 4--><rect fill="#7B000E" height="23.9688" id="4" style="stroke: #FFFFFF; stroke-width: 1.0;" width="50" x="6" y="92"/><rect fill="#7B000E" height="23.9688" style="stroke: #FFFFFF; stroke-width: 1.0;" width="50" x="6" y="92"/><text fill="#FFFFFF" font-family="Arial" font-size="12" lengthAdjust="spacingAndGlyphs" textLength="8" x="27" y="108.1387">4</text><!--MD5=[826d5a1bf3d673c814a6d61660166b85]
class Z--><rect fill="#166800" height="23.9688" id="Z" style="stroke: #FFFFFF; stroke-width: 1.0;" width="50" x="133" y="176"/><rect fill="#166800" height="23.9688" style="stroke: #FFFFFF; stroke-width: 1.0;" width="50" x="133" y="176"/><text fill="#FFFFFF" font-family="Arial" font-size="12" lengthAdjust="spacingAndGlyphs" textLength="9" x="153.5" y="192.1387">Z</text><!--MD5=[551293a44a2f98867518c53a15ca2bfb]
link A to Z--><path d="M121.664,116.0589 C128.929,130.2419 141.577,154.9356 149.869,171.1244 " fill="none" id="A-&gt;Z" style="stroke: #A80036; stroke-width: 1.0;"/><polygon fill="#A80036" points="152.291,175.8544,151.748,166.0205,150.0115,171.4042,144.6278,169.6677,152.291,175.8544" style="stroke: #A80036; stroke-width: 1.0;"/><!--MD5=[03505a4557c7bf5b09b3b1b8bde55127]
link B to Z--><path d="M195.201,116.0589 C187.763,130.2419 174.814,154.9356 166.325,171.1244 " fill="none" id="B-&gt;Z" style="stroke: #A80036; stroke-width: 1.0;"/><polygon fill="#A80036" points="163.845,175.8544,171.567,169.7412,166.1669,171.4262,164.4819,166.0262,163.845,175.8544" style="stroke: #A80036; stroke-width: 1.0;"/><!--MD5=[53b9c41aff84276f2e5ae67c84e1b149]
link C to Z--><path d="M268.737,116.0589 C245.739,130.7921 205.036,156.8673 179.902,172.969 " fill="none" id="C-&gt;Z" style="stroke: #A80036; stroke-width: 1.0;"/><polygon fill="#A80036" points="175.398,175.8544,185.134,174.3677,179.6082,173.1573,180.8186,167.6314,175.398,175.8544" style="stroke: #A80036; stroke-width: 1.0;"/><!--MD5=[05b401394361e35cb02021c9bdc00603]
link D to Z--><path d="M98.2344,188 C108.042,188 117.85,188 127.658,188 " fill="none" id="D-&gt;Z" style="stroke: #A80036; stroke-width: 1.0;"/><polygon fill="#A80036" points="132.786,188,123.786,184,127.786,188,123.786,192,132.786,188" style="stroke: #A80036; stroke-width: 1.0;"/><!--MD5=[ca948e0aa574070e8dc196fb8c4aed2f]
reverse link 1 to A--><path d="M116,37.197 C116,53.356 116,77.751 116,91.854 " fill="none" id="1&lt;-A" style="stroke: #A80036; stroke-width: 1.0;"/><polygon fill="#A80036" points="116,32.059,112,41.059,116,37.059,120,41.059,116,32.059" style="stroke: #A80036; stroke-width: 1.0;"/><!--MD5=[7ac4887a9ec12995caf3622ab447a6de]
reverse link 2 to B--><path d="M201,37.197 C201,53.356 201,77.751 201,91.854 " fill="none" id="2&lt;-B" style="stroke: #A80036; stroke-width: 1.0;"/><polygon fill="#A80036" points="201,32.059,197,41.059,201,37.059,205,41.059,201,32.059" style="stroke: #A80036; stroke-width: 1.0;"/><!--MD5=[23f964c7da4569aafb8c7ff9cbe662a8]
reverse link 3 to C--><path d="M286,37.197 C286,53.356 286,77.751 286,91.854 " fill="none" id="3&lt;-C" style="stroke: #A80036; stroke-width: 1.0;"/><polygon fill="#A80036" points="286,32.059,282,41.059,286,37.059,290,41.059,286,32.059" style="stroke: #A80036; stroke-width: 1.0;"/><!--MD5=[c81ff67d3ad0be56845b8006af2d498b]
reverse link 4 to D--><path d="M39.0809,120.7769 C47.3549,136.9311 60.005,161.6287 67.2913,175.8544 " fill="none" id="4&lt;-D" style="stroke: #A80036; stroke-width: 1.0;"/><polygon fill="#A80036" points="36.6643,116.0589,37.2072,125.8928,38.9437,120.5091,44.3275,122.2457,36.6643,116.0589" style="stroke: #A80036; stroke-width: 1.0;"/><!--MD5=[1b08fdaac7908d5eada24a1f30609f32]
@startuml








skinparam BackgroundColor #FFFFFFF

skinparam Shadowing false

skinparam Class {
    FontColor #FFFFFF
    BorderThickness 1
    BorderColor #FFFFFF
    StereotypeFontColor #FFFFFF
    FontName Arial
}

skinparam Actor {
    BorderColor #000000
    Color #000000
    FontName Arial
}

skinparam Sequence {
    MessageAlign center
    BoxFontSize 15
    BoxPadding 0
    BoxFontColor #FFFFFF
    FontName Arial
}

skinparam Participant {
    FontColor #FFFFFFF
    Padding 20
}

skinparam MinClassWidth 50
skinparam ParticipantPadding 10
skinparam Shadowing false
skinparam DefaultTextAlignment center
skinparam packageStyle Rectangle

hide footbox
hide members
hide circle


Class A #1616B0
Class B #1616B0
Class C #1616B0
Class D #1616B0

Class 1 #7B000E
Class 2 #7B000E
Class 3 #7B000E
Class 4 #7B000E

Class Z #166800

A - -> Z
B -down-> Z
C -d-> Z
D -down> Z

A -up-> 1
B -up-> 2
C -up-> 3
D -up-> 4
@enduml

PlantUML version 1.2020.03beta11(Unknown compile time)
(GPL source distribution)
Java Runtime: Java(TM) SE Runtime Environment
JVM: Java HotSpot(TM) 64-Bit Server VM
Java Version: 1.7.0_25-b15
Operating System: Linux
Default Encoding: UTF-8
Language: en
Country: US
--></g></svg>
