<?xml version="1.0" encoding="UTF-8" standalone="no"?><svg xmlns="http://www.w3.org/2000/svg" xmlns:xlink="http://www.w3.org/1999/xlink" contentScriptType="application/ecmascript" contentStyleType="text/css" height="308px" preserveAspectRatio="none" style="width:904px;height:308px;" version="1.1" viewBox="0 0 904 308" width="904px" zoomAndPan="magnify"><defs/><g><rect fill="#FFFFFF" height="222.125" style="stroke: #A80036; stroke-width: 1.0;" width="10" x="73" y="65.4297"/><rect fill="#FFFFFF" height="183.9922" style="stroke: #A80036; stroke-width: 1.0;" width="10" x="307" y="94.5625"/><rect fill="#FFFFFF" height="84.4297" style="stroke: #A80036; stroke-width: 1.0;" width="10" x="490.5" y="164.9922"/><rect fill="#FFFFFF" height="16.1641" style="stroke: #A80036; stroke-width: 1.0;" width="10" x="796" y="204.125"/><line style="stroke: #A80036; stroke-width: 1.0; stroke-dasharray: 5.0,5.0;" x1="77.5" x2="77.5" y1="34.2969" y2="296.5547"/><line style="stroke: #A80036; stroke-width: 1.0; stroke-dasharray: 5.0,5.0;" x1="311.5" x2="311.5" y1="34.2969" y2="296.5547"/><line style="stroke: #A80036; stroke-width: 1.0; stroke-dasharray: 5.0,5.0;" x1="495.5" x2="495.5" y1="133.2109" y2="296.5547"/><line style="stroke: #A80036; stroke-width: 1.0; stroke-dasharray: 5.0,5.0;" x1="800.5" x2="800.5" y1="203.6406" y2="296.5547"/><rect fill="#3333C4" height="30.2969" style="stroke: #A80036; stroke-width: 1.5;" width="115" x="20.5" y="3"/><text fill="#FFFFFF" font-family="sans-serif" font-size="14" lengthAdjust="spacingAndGlyphs" textLength="101" x="27.5" y="22.9951">:LogicManager</text><rect fill="#3333C4" height="30.2969" style="stroke: #A80036; stroke-width: 1.5;" width="147" x="238.5" y="3"/><text fill="#FFFFFF" font-family="sans-serif" font-size="14" lengthAdjust="spacingAndGlyphs" textLength="133" x="245.5" y="22.9951">:RecipeBookParser</text><rect fill="#FFFFFF" height="222.125" style="stroke: #A80036; stroke-width: 1.0;" width="10" x="73" y="65.4297"/><rect fill="#FFFFFF" height="183.9922" style="stroke: #A80036; stroke-width: 1.0;" width="10" x="307" y="94.5625"/><rect fill="#FFFFFF" height="84.4297" style="stroke: #A80036; stroke-width: 1.0;" width="10" x="490.5" y="164.9922"/><rect fill="#FFFFFF" height="16.1641" style="stroke: #A80036; stroke-width: 1.0;" width="10" x="796" y="204.125"/><polygon fill="#A80036" points="61,61.4297,71,65.4297,61,69.4297,65,65.4297" style="stroke: #A80036; stroke-width: 1.0;"/><line style="stroke: #A80036; stroke-width: 1.0;" x1="3" x2="67" y1="65.4297" y2="65.4297"/><text fill="#000000" font-family="sans-serif" font-size="13" lengthAdjust="spacingAndGlyphs" textLength="51" x="12.5" y="60.3638">execute</text><polygon fill="#A80036" points="295,90.5625,305,94.5625,295,98.5625,299,94.5625" style="stroke: #A80036; stroke-width: 1.0;"/><line style="stroke: #A80036; stroke-width: 1.0;" x1="83" x2="301" y1="94.5625" y2="94.5625"/><text fill="#000000" font-family="sans-serif" font-size="13" lengthAdjust="spacingAndGlyphs" textLength="205" x="92.5" y="89.4966">parseCommand(commandText)</text><polygon fill="#A80036" points="403.5,104.5625,413.5,108.5625,403.5,112.5625,407.5,108.5625" style="stroke: #A80036; stroke-width: 1.0;"/><line style="stroke: #A80036; stroke-width: 1.0;" x1="317" x2="409.5" y1="108.5625" y2="108.5625"/><rect fill="#3333C4" height="30.2969" style="stroke: #A80036; stroke-width: 1.5;" width="160" x="415.5" y="102.5625"/><text fill="#FFFFFF" font-family="sans-serif" font-size="14" lengthAdjust="spacingAndGlyphs" textLength="146" x="422.5" y="122.5576">:EditCommandParser</text><polygon fill="#A80036" points="478.5,160.9922,488.5,164.9922,478.5,168.9922,482.5,164.9922" style="stroke: #A80036; stroke-width: 1.0;"/><line style="stroke: #A80036; stroke-width: 1.0;" x1="317" x2="484.5" y1="164.9922" y2="164.9922"/><text fill="#000000" font-family="sans-serif" font-size="13" lengthAdjust="spacingAndGlyphs" textLength="116" x="345.75" y="159.9263">parse(arguments)</text><polygon fill="#A80036" points="696.5,190.125,706.5,194.125,696.5,198.125,700.5,194.125" style="stroke: #A80036; stroke-width: 1.0;"/><line style="stroke: #A80036; stroke-width: 1.0;" x1="500.5" x2="702.5" y1="194.125" y2="194.125"/><text fill="#000000" font-family="sans-serif" font-size="13" lengthAdjust="spacingAndGlyphs" textLength="174" x="517.5" y="189.0591">index, editRecipeDescriptor</text><rect fill="#3333C4" height="30.2969" style="stroke: #A80036; stroke-width: 1.5;" width="185" x="708.5" y="172.9922"/><text fill="#FFFFFF" font-family="sans-serif" font-size="14" lengthAdjust="spacingAndGlyphs" textLength="171" x="715.5" y="192.9873">command:EditCommand</text><polygon fill="#A80036" points="511.5,216.2891,501.5,220.2891,511.5,224.2891,507.5,220.2891" style="stroke: #A80036; stroke-width: 1.0;"/><line style="stroke: #A80036; stroke-width: 1.0; stroke-dasharray: 2.0,2.0;" x1="505.5" x2="800" y1="220.2891" y2="220.2891"/><polygon fill="#A80036" points="328,245.4219,318,249.4219,328,253.4219,324,249.4219" style="stroke: #A80036; stroke-width: 1.0;"/><line style="stroke: #A80036; stroke-width: 1.0; stroke-dasharray: 2.0,2.0;" x1="322" x2="494.5" y1="249.4219" y2="249.4219"/><text fill="#000000" font-family="sans-serif" font-size="13" lengthAdjust="spacingAndGlyphs" textLength="65" x="373.75" y="244.356">command</text><polygon fill="#A80036" points="94,274.5547,84,278.5547,94,282.5547,90,278.5547" style="stroke: #A80036; stroke-width: 1.0;"/><line style="stroke: #A80036; stroke-width: 1.0; stroke-dasharray: 2.0,2.0;" x1="88" x2="311" y1="278.5547" y2="278.5547"/><text fill="#000000" font-family="sans-serif" font-size="13" lengthAdjust="spacingAndGlyphs" textLength="65" x="165" y="273.4888">command</text><!--MD5=[29c8a26d04ad0aa476b7de302a173084]
@startuml








skinparam BackgroundColor #FFFFFFF

skinparam Shadowing false

skinparam Class {
    FontColor #FFFFFF
    BorderThickness 1
    BorderColor #FFFFFF
    StereotypeFontColor #FFFFFF
    FontName Arial
}

skinparam Actor {
    BorderColor #000000
    Color #000000
    FontName Arial
}

skinparam Sequence {
    MessageAlign center
    BoxFontSize 15
    BoxPadding 0
    BoxFontColor #FFFFFF
    FontName Arial
}

skinparam Participant {
    FontColor #FFFFFFF
    Padding 20
}

skinparam MinClassWidth 50
skinparam ParticipantPadding 10
skinparam Shadowing false
skinparam DefaultTextAlignment center
skinparam packageStyle Rectangle

hide footbox
hide members
hide circle


Participant ":LogicManager" as logic #3333C4
Participant ":RecipeBookParser" as abp #3333C4
Participant ":EditCommandParser" as ecp #3333C4
Participant "command:EditCommand" as ec #3333C4

[-> logic : execute
activate logic
logic -> abp ++: parseCommand(commandText)
create ecp
abp -> ecp
abp -> ecp ++: parse(arguments)
create ec
ecp -> ec ++: index, editRecipeDescriptor
ec - -> ecp - -
ecp - -> abp - -: command
abp - -> logic - -: command
@enduml

PlantUML version 1.2020.03beta11(Unknown compile time)
(GPL source distribution)
Java Runtime: Java(TM) SE Runtime Environment
JVM: Java HotSpot(TM) 64-Bit Server VM
Java Version: 1.7.0_25-b15
Operating System: Linux
Default Encoding: UTF-8
Language: en
Country: US
--></g></svg>
