<?xml version="1.0" encoding="UTF-8" standalone="no"?><svg xmlns="http://www.w3.org/2000/svg" xmlns:xlink="http://www.w3.org/1999/xlink" contentScriptType="application/ecmascript" contentStyleType="text/css" height="530px" preserveAspectRatio="none" style="width:604px;height:530px;" version="1.1" viewBox="0 0 604 530" width="604px" zoomAndPan="magnify"><defs/><g><rect fill="#1D8900" height="386.2969" style="stroke: #A80036; stroke-width: 1.0;" width="10" x="115.5" y="114.4502"/><rect fill="#3333C4" height="341.9453" style="stroke: #A80036; stroke-width: 1.0;" width="10" x="269.5" y="144.8018"/><rect fill="#9D0012" height="14" style="stroke: #A80036; stroke-width: 1.0;" width="10" x="380.5" y="175.1533"/><rect fill="#A38300" height="87.3516" style="stroke: #A80036; stroke-width: 1.0;" width="10" x="495.5" y="244.8564"/><rect fill="#FFE374" height="28" style="stroke: #A80036; stroke-width: 1.0;" width="10" x="500.5" y="283.208"/><rect fill="#A38300" height="94.3516" style="stroke: #A80036; stroke-width: 1.0;" width="10" x="495.5" y="378.3955"/><rect fill="#FFE374" height="28" style="stroke: #A80036; stroke-width: 1.0;" width="10" x="500.5" y="416.7471"/><rect fill="#FFFFFF" height="255.5938" style="stroke: #000000; stroke-width: 2.0;" width="370" x="222.5" y="204.1533"/><rect fill="#FFFFFF" height="119.5391" style="stroke: none; stroke-width: 1.0;" width="370" x="222.5" y="340.208"/><line style="stroke: #A80036; stroke-width: 1.0; stroke-dasharray: 5.0,5.0;" x1="25" x2="25" y1="82.0986" y2="518.7471"/><line style="stroke: #A80036; stroke-width: 1.0; stroke-dasharray: 5.0,5.0;" x1="120.5" x2="120.5" y1="82.0986" y2="518.7471"/><line style="stroke: #A80036; stroke-width: 1.0; stroke-dasharray: 5.0,5.0;" x1="274.5" x2="274.5" y1="82.0986" y2="518.7471"/><line style="stroke: #A80036; stroke-width: 1.0; stroke-dasharray: 5.0,5.0;" x1="385.5" x2="385.5" y1="82.0986" y2="518.7471"/><line style="stroke: #A80036; stroke-width: 1.0; stroke-dasharray: 5.0,5.0;" x1="500.5" x2="500.5" y1="82.0986" y2="518.7471"/><text fill="#000000" font-family="Arial" font-size="14" lengthAdjust="spacingAndGlyphs" textLength="29" x="8" y="79.1318">User</text><ellipse cx="25.5" cy="13" fill="#000000" rx="8" ry="8" style="stroke: #000000; stroke-width: 2.0;"/><path d="M25.5,21 L25.5,48 M12.5,29 L38.5,29 M25.5,48 L12.5,63 M25.5,48 L38.5,63 " fill="none" style="stroke: #000000; stroke-width: 2.0;"/><rect fill="#1D8900" height="31.6094" style="stroke: #A80036; stroke-width: 1.5;" width="64" x="88.5" y="49.4893"/><text fill="#FFFFFF" font-family="sans-serif" font-size="14" lengthAdjust="spacingAndGlyphs" textLength="16" x="112.5" y="71.0225">:UI</text><rect fill="#3333C4" height="31.6094" style="stroke: #A80036; stroke-width: 1.5;" width="64" x="242.5" y="49.4893"/><text fill="#FFFFFF" font-family="sans-serif" font-size="14" lengthAdjust="spacingAndGlyphs" textLength="38" x="255.5" y="71.0225">:Logic</text><rect fill="#9D0012" height="31.6094" style="stroke: #A80036; stroke-width: 1.5;" width="64" x="353.5" y="49.4893"/><text fill="#FFFFFF" font-family="sans-serif" font-size="14" lengthAdjust="spacingAndGlyphs" textLength="42" x="364.5" y="71.0225">:Model</text><rect fill="#A38300" height="31.6094" style="stroke: #A80036; stroke-width: 1.5;" width="68" x="466.5" y="49.4893"/><text fill="#FFFFFF" font-family="sans-serif" font-size="14" lengthAdjust="spacingAndGlyphs" textLength="54" x="473.5" y="71.0225">:Storage</text><rect fill="#1D8900" height="386.2969" style="stroke: #A80036; stroke-width: 1.0;" width="10" x="115.5" y="114.4502"/><rect fill="#3333C4" height="341.9453" style="stroke: #A80036; stroke-width: 1.0;" width="10" x="269.5" y="144.8018"/><rect fill="#9D0012" height="14" style="stroke: #A80036; stroke-width: 1.0;" width="10" x="380.5" y="175.1533"/><rect fill="#A38300" height="87.3516" style="stroke: #A80036; stroke-width: 1.0;" width="10" x="495.5" y="244.8564"/><rect fill="#FFE374" height="28" style="stroke: #A80036; stroke-width: 1.0;" width="10" x="500.5" y="283.208"/><rect fill="#A38300" height="94.3516" style="stroke: #A80036; stroke-width: 1.0;" width="10" x="495.5" y="378.3955"/><rect fill="#FFE374" height="28" style="stroke: #A80036; stroke-width: 1.0;" width="10" x="500.5" y="416.7471"/><polygon fill="#000000" points="103.5,110.4502,113.5,114.4502,103.5,118.4502,107.5,114.4502" style="stroke: #000000; stroke-width: 1.0;"/><line style="stroke: #000000; stroke-width: 1.0;" x1="25.5" x2="109.5" y1="114.4502" y2="114.4502"/><text fill="#000000" font-family="sans-serif" font-size="13" lengthAdjust="spacingAndGlyphs" textLength="71" x="35" y="109.5938">"delete -o 1"</text><polygon fill="#1D8900" points="257.5,140.8018,267.5,144.8018,257.5,148.8018,261.5,144.8018" style="stroke: #1D8900; stroke-width: 1.0;"/><line style="stroke: #1D8900; stroke-width: 1.0;" x1="125.5" x2="263.5" y1="144.8018" y2="144.8018"/><text fill="#000000" font-family="sans-serif" font-size="13" lengthAdjust="spacingAndGlyphs" textLength="125" x="135" y="139.9453">execute("delete -o 1")</text><polygon fill="#3333C4" points="368.5,171.1533,378.5,175.1533,368.5,179.1533,372.5,175.1533" style="stroke: #3333C4; stroke-width: 1.0;"/><line style="stroke: #3333C4; stroke-width: 1.0;" x1="279.5" x2="374.5" y1="175.1533" y2="175.1533"/><text fill="#000000" font-family="sans-serif" font-size="13" lengthAdjust="spacingAndGlyphs" textLength="82" x="289" y="170.2969">deleteOrder(p)</text><polygon fill="#9D0012" points="290.5,185.1533,280.5,189.1533,290.5,193.1533,286.5,189.1533" style="stroke: #9D0012; stroke-width: 1.0;"/><line style="stroke: #9D0012; stroke-width: 1.0; stroke-dasharray: 2.0,2.0;" x1="284.5" x2="384.5" y1="189.1533" y2="189.1533"/><path d="M222.5,204.1533 L283.5,204.1533 L283.5,212.1533 L273.5,222.1533 L222.5,222.1533 L222.5,204.1533 " fill="#EEEEEE" style="stroke: #000000; stroke-width: 1.0;"/><rect fill="none" height="255.5938" style="stroke: #000000; stroke-width: 2.0;" width="370" x="222.5" y="204.1533"/><text fill="#000000" font-family="sans-serif" font-size="13" font-weight="bold" lengthAdjust="spacingAndGlyphs" textLength="16" x="237.5" y="218.6484">alt</text><text fill="#000000" font-family="sans-serif" font-size="11" font-weight="bold" lengthAdjust="spacingAndGlyphs" textLength="121" x="298.5" y="217.5723">[when deleting order]</text><polygon fill="#3333C4" points="483.5,240.8564,493.5,244.8564,483.5,248.8564,487.5,244.8564" style="stroke: #3333C4; stroke-width: 1.0;"/><line style="stroke: #3333C4; stroke-width: 1.0;" x1="279.5" x2="489.5" y1="244.8564" y2="244.8564"/><text fill="#000000" font-family="sans-serif" font-size="13" lengthAdjust="spacingAndGlyphs" textLength="155" x="310" y="240">saveOrderBook(orderBook)</text><line style="stroke: #A38300; stroke-width: 1.0;" x1="510.5" x2="552.5" y1="275.208" y2="275.208"/><line style="stroke: #A38300; stroke-width: 1.0;" x1="552.5" x2="552.5" y1="275.208" y2="288.208"/><line style="stroke: #A38300; stroke-width: 1.0;" x1="511.5" x2="552.5" y1="288.208" y2="288.208"/><polygon fill="#A38300" points="521.5,284.208,511.5,288.208,521.5,292.208,517.5,288.208" style="stroke: #A38300; stroke-width: 1.0;"/><text fill="#000000" font-family="sans-serif" font-size="13" lengthAdjust="spacingAndGlyphs" textLength="63" x="517.5" y="270.3516">Save to file</text><polygon fill="#A38300" points="290.5,328.208,280.5,332.208,290.5,336.208,286.5,332.208" style="stroke: #A38300; stroke-width: 1.0;"/><line style="stroke: #A38300; stroke-width: 1.0; stroke-dasharray: 2.0,2.0;" x1="284.5" x2="499.5" y1="332.208" y2="332.208"/><line style="stroke: #000000; stroke-width: 1.0; stroke-dasharray: 2.0,2.0;" x1="222.5" x2="592.5" y1="341.208" y2="341.208"/><text fill="#000000" font-family="sans-serif" font-size="11" font-weight="bold" lengthAdjust="spacingAndGlyphs" textLength="159" x="227.5" y="352.627">[when deleting return order]</text><polygon fill="#3333C4" points="483.5,374.3955,493.5,378.3955,483.5,382.3955,487.5,378.3955" style="stroke: #3333C4; stroke-width: 1.0;"/><line style="stroke: #3333C4; stroke-width: 1.0;" x1="279.5" x2="489.5" y1="378.3955" y2="378.3955"/><text fill="#000000" font-family="sans-serif" font-size="13" lengthAdjust="spacingAndGlyphs" textLength="197" x="289" y="373.5391">saveReturnBook(returnOrderBook)</text><line style="stroke: #A38300; stroke-width: 1.0;" x1="510.5" x2="552.5" y1="408.7471" y2="408.7471"/><line style="stroke: #A38300; stroke-width: 1.0;" x1="552.5" x2="552.5" y1="408.7471" y2="421.7471"/><line style="stroke: #A38300; stroke-width: 1.0;" x1="511.5" x2="552.5" y1="421.7471" y2="421.7471"/><polygon fill="#A38300" points="521.5,417.7471,511.5,421.7471,521.5,425.7471,517.5,421.7471" style="stroke: #A38300; stroke-width: 1.0;"/><text fill="#000000" font-family="sans-serif" font-size="13" lengthAdjust="spacingAndGlyphs" textLength="63" x="517.5" y="403.8906">Save to file</text><polygon fill="#A38300" points="290.5,468.7471,280.5,472.7471,290.5,476.7471,286.5,472.7471" style="stroke: #A38300; stroke-width: 1.0;"/><line style="stroke: #A38300; stroke-width: 1.0; stroke-dasharray: 2.0,2.0;" x1="284.5" x2="499.5" y1="472.7471" y2="472.7471"/><polygon fill="#3333C4" points="136.5,482.7471,126.5,486.7471,136.5,490.7471,132.5,486.7471" style="stroke: #3333C4; stroke-width: 1.0;"/><line style="stroke: #3333C4; stroke-width: 1.0; stroke-dasharray: 2.0,2.0;" x1="130.5" x2="273.5" y1="486.7471" y2="486.7471"/><polygon fill="#1D8900" points="36.5,496.7471,26.5,500.7471,36.5,504.7471,32.5,500.7471" style="stroke: #1D8900; stroke-width: 1.0;"/><line style="stroke: #1D8900; stroke-width: 1.0; stroke-dasharray: 2.0,2.0;" x1="30.5" x2="119.5" y1="500.7471" y2="500.7471"/><!--MD5=[18f350185fcdfef4661d00eb038047c5]
@startuml








skinparam BackgroundColor #FFFFFFF

skinparam Shadowing false

skinparam Class {
    FontColor #FFFFFF
    BorderThickness 1
    BorderColor #FFFFFF
    StereotypeFontColor #FFFFFF
    FontName Arial
}

skinparam Actor {
    BorderColor #000000
    Color #000000
    FontName Arial
}

skinparam Sequence {
    MessageAlign center
    BoxFontSize 15
    BoxPadding 0
    BoxFontColor #FFFFFF
    FontName Arial
}

skinparam Participant {
    FontColor #FFFFFFF
    Padding 20
}

skinparam MinClassWidth 50
skinparam ParticipantPadding 10
skinparam Shadowing false
skinparam DefaultTextAlignment center
skinparam packageStyle Rectangle

hide footbox
hide members
hide circle

Actor User as user #000000
Participant ":UI" as ui #1D8900
Participant ":Logic" as logic #3333C4
Participant ":Model" as model #9D0012
Participant ":Storage" as storage #A38300

user -[#000000]> ui : "delete -o 1"
activate ui #1D8900

ui -[#1D8900]> logic : execute("delete -o 1")
activate logic #3333C4

logic -[#3333C4]> model : deleteOrder(p)
activate model #9D0012

model -[#9D0012]-> logic
deactivate model

alt when deleting order
logic -[#3333C4]> storage : saveOrderBook(orderBook)
activate storage #A38300

storage -[#A38300]> storage : Save to file
activate storage #FFE374
deactivate storage

storage - -[#A38300]> logic
deactivate storage

else when deleting return order
logic -[#3333C4]> storage : saveReturnBook(returnOrderBook)
activate storage #A38300

storage -[#A38300]> storage : Save to file
activate storage #FFE374
deactivate storage
end

storage - -[#A38300]> logic
deactivate storage

logic - -[#3333C4]> ui
deactivate logic

ui- -[#1D8900]> user
deactivate ui
@enduml

PlantUML version 1.2020.03beta6(Unknown compile time)
(GPL source distribution)
Java Runtime: OpenJDK Runtime Environment
JVM: OpenJDK 64-Bit Server VM
Java Version: 11.0.6+8-b520.43
Operating System: Windows 10
Default Encoding: Cp1252
Language: en
Country: SG
--></g></svg>
