<?xml version="1.0" encoding="UTF-8" standalone="no"?><svg xmlns="http://www.w3.org/2000/svg" xmlns:xlink="http://www.w3.org/1999/xlink" contentScriptType="application/ecmascript" contentStyleType="text/css" height="662.5px" preserveAspectRatio="none" style="width:717px;height:662px;" version="1.1" viewBox="0 0 717 662" width="717.5px" zoomAndPan="magnify"><defs/><g><rect fill="#1D8900" height="482.8711" style="stroke: #A80036; stroke-width: 1.25;" width="12.5" x="125.625" y="143.0627"/><rect fill="#3333C4" height="427.4316" style="stroke: #A80036; stroke-width: 1.25;" width="12.5" x="299.375" y="181.0022"/><rect fill="#9D0012" height="17.5" style="stroke: #A80036; stroke-width: 1.25;" width="12.5" x="438.125" y="218.9417"/><rect fill="#A38300" height="109.1895" style="stroke: #A80036; stroke-width: 1.25;" width="12.5" x="581.875" y="306.0706"/><rect fill="#FFE374" height="35" style="stroke: #A80036; stroke-width: 1.25;" width="12.5" x="588.125" y="354.01"/><rect fill="#A38300" height="117.9395" style="stroke: #A80036; stroke-width: 1.25;" width="12.5" x="581.875" y="472.9944"/><rect fill="#FFE374" height="35" style="stroke: #A80036; stroke-width: 1.25;" width="12.5" x="588.125" y="520.9338"/><rect fill="#FFFFFF" height="319.4922" style="stroke: #000000; stroke-width: 2.5;" width="462.5" x="240.625" y="255.1917"/><rect fill="#FFFFFF" height="149.4238" style="stroke: none; stroke-width: 1.25;" width="462.5" x="240.625" y="425.26"/><line style="stroke: #A80036; stroke-width: 1.25; stroke-dasharray: 5.0,5.0;" x1="31.25" x2="31.25" y1="102.6233" y2="648.4338"/><line style="stroke: #A80036; stroke-width: 1.25; stroke-dasharray: 5.0,5.0;" x1="131.875" x2="131.875" y1="102.6233" y2="648.4338"/><line style="stroke: #A80036; stroke-width: 1.25; stroke-dasharray: 5.0,5.0;" x1="305.625" x2="305.625" y1="102.6233" y2="648.4338"/><line style="stroke: #A80036; stroke-width: 1.25; stroke-dasharray: 5.0,5.0;" x1="444.375" x2="444.375" y1="102.6233" y2="648.4338"/><line style="stroke: #A80036; stroke-width: 1.25; stroke-dasharray: 5.0,5.0;" x1="588.125" x2="588.125" y1="102.6233" y2="648.4338"/><text fill="#000000" font-family="Arial" font-size="17.5" lengthAdjust="spacingAndGlyphs" textLength="36.25" x="10" y="98.9148">User</text><ellipse cx="31.875" cy="16.25" fill="#000000" rx="10" ry="10" style="stroke: #000000; stroke-width: 2.5;"/><path d="M31.875,26.25 L31.875,60 M15.625,36.25 L48.125,36.25 M31.875,60 L15.625,78.75 M31.875,60 L48.125,78.75 " fill="none" style="stroke: #000000; stroke-width: 2.5;"/><rect fill="#1D8900" height="39.5117" style="stroke: #A80036; stroke-width: 1.875;" width="80" x="91.875" y="61.8616"/><text fill="#FFFFFF" font-family="sans-serif" font-size="17.5" lengthAdjust="spacingAndGlyphs" textLength="20" x="121.875" y="88.7781">:UI</text><rect fill="#3333C4" height="39.5117" style="stroke: #A80036; stroke-width: 1.875;" width="80" x="265.625" y="61.8616"/><text fill="#FFFFFF" font-family="sans-serif" font-size="17.5" lengthAdjust="spacingAndGlyphs" textLength="47.5" x="281.875" y="88.7781">:Logic</text><rect fill="#9D0012" height="39.5117" style="stroke: #A80036; stroke-width: 1.875;" width="80" x="404.375" y="61.8616"/><text fill="#FFFFFF" font-family="sans-serif" font-size="17.5" lengthAdjust="spacingAndGlyphs" textLength="52.5" x="418.125" y="88.7781">:Model</text><rect fill="#A38300" height="39.5117" style="stroke: #A80036; stroke-width: 1.875;" width="85" x="545.625" y="61.8616"/><text fill="#FFFFFF" font-family="sans-serif" font-size="17.5" lengthAdjust="spacingAndGlyphs" textLength="67.5" x="554.375" y="88.7781">:Storage</text><rect fill="#1D8900" height="482.8711" style="stroke: #A80036; stroke-width: 1.25;" width="12.5" x="125.625" y="143.0627"/><rect fill="#3333C4" height="427.4316" style="stroke: #A80036; stroke-width: 1.25;" width="12.5" x="299.375" y="181.0022"/><rect fill="#9D0012" height="17.5" style="stroke: #A80036; stroke-width: 1.25;" width="12.5" x="438.125" y="218.9417"/><rect fill="#A38300" height="109.1895" style="stroke: #A80036; stroke-width: 1.25;" width="12.5" x="581.875" y="306.0706"/><rect fill="#FFE374" height="35" style="stroke: #A80036; stroke-width: 1.25;" width="12.5" x="588.125" y="354.01"/><rect fill="#A38300" height="117.9395" style="stroke: #A80036; stroke-width: 1.25;" width="12.5" x="581.875" y="472.9944"/><rect fill="#FFE374" height="35" style="stroke: #A80036; stroke-width: 1.25;" width="12.5" x="588.125" y="520.9338"/><polygon fill="#000000" points="110.625,138.0627,123.125,143.0627,110.625,148.0627,115.625,143.0627" style="stroke: #000000; stroke-width: 1.25;"/><line style="stroke: #000000; stroke-width: 1.25;" x1="31.875" x2="118.125" y1="143.0627" y2="143.0627"/><text fill="#000000" font-family="sans-serif" font-size="16.25" lengthAdjust="spacingAndGlyphs" textLength="70" x="43.75" y="136.9922">"delete 1"</text><polygon fill="#1D8900" points="284.375,176.0022,296.875,181.0022,284.375,186.0022,289.375,181.0022" style="stroke: #1D8900; stroke-width: 1.25;"/><line style="stroke: #1D8900; stroke-width: 1.25;" x1="138.125" x2="291.875" y1="181.0022" y2="181.0022"/><text fill="#000000" font-family="sans-serif" font-size="16.25" lengthAdjust="spacingAndGlyphs" textLength="137.5" x="150" y="174.9316">execute("delete 1")</text><polygon fill="#3333C4" points="423.125,213.9417,435.625,218.9417,423.125,223.9417,428.125,218.9417" style="stroke: #3333C4; stroke-width: 1.25;"/><line style="stroke: #3333C4; stroke-width: 1.25;" x1="311.875" x2="430.625" y1="218.9417" y2="218.9417"/><text fill="#000000" font-family="sans-serif" font-size="16.25" lengthAdjust="spacingAndGlyphs" textLength="102.5" x="323.75" y="212.8711">deleteOrder(p)</text><polygon fill="#9D0012" points="325.625,231.4417,313.125,236.4417,325.625,241.4417,320.625,236.4417" style="stroke: #9D0012; stroke-width: 1.25;"/><line style="stroke: #9D0012; stroke-width: 1.25; stroke-dasharray: 2.0,2.0;" x1="318.125" x2="443.125" y1="236.4417" y2="236.4417"/><path d="M240.625,255.1917 L316.875,255.1917 L316.875,265.1917 L304.375,277.6917 L240.625,277.6917 L240.625,255.1917 " fill="#EEEEEE" style="stroke: #000000; stroke-width: 1.25;"/><rect fill="none" height="319.4922" style="stroke: #000000; stroke-width: 2.5;" width="462.5" x="240.625" y="255.1917"/><text fill="#000000" font-family="sans-serif" font-size="16.25" font-weight="bold" lengthAdjust="spacingAndGlyphs" textLength="20" x="259.375" y="273.3105">alt</text><text fill="#000000" font-family="sans-serif" font-size="13.75" font-weight="bold" lengthAdjust="spacingAndGlyphs" textLength="151.25" x="335.625" y="271.9653">[when deleting order]</text><polygon fill="#3333C4" points="566.875,301.0706,579.375,306.0706,566.875,311.0706,571.875,306.0706" style="stroke: #3333C4; stroke-width: 1.25;"/><line style="stroke: #3333C4; stroke-width: 1.25;" x1="311.875" x2="574.375" y1="306.0706" y2="306.0706"/><text fill="#000000" font-family="sans-serif" font-size="16.25" lengthAdjust="spacingAndGlyphs" textLength="193.75" x="350" y="300">saveOrderBook(orderBook)</text><line style="stroke: #A38300; stroke-width: 1.25;" x1="600.625" x2="653.125" y1="344.01" y2="344.01"/><line style="stroke: #A38300; stroke-width: 1.25;" x1="653.125" x2="653.125" y1="344.01" y2="360.26"/><line style="stroke: #A38300; stroke-width: 1.25;" x1="601.875" x2="653.125" y1="360.26" y2="360.26"/><polygon fill="#A38300" points="614.375,355.26,601.875,360.26,614.375,365.26,609.375,360.26" style="stroke: #A38300; stroke-width: 1.25;"/><text fill="#000000" font-family="sans-serif" font-size="16.25" lengthAdjust="spacingAndGlyphs" textLength="78.75" x="609.375" y="337.9395">Save to file</text><polygon fill="#A38300" points="325.625,410.26,313.125,415.26,325.625,420.26,320.625,415.26" style="stroke: #A38300; stroke-width: 1.25;"/><line style="stroke: #A38300; stroke-width: 1.25; stroke-dasharray: 2.0,2.0;" x1="318.125" x2="586.875" y1="415.26" y2="415.26"/><line style="stroke: #000000; stroke-width: 1.25; stroke-dasharray: 2.0,2.0;" x1="240.625" x2="703.125" y1="426.51" y2="426.51"/><text fill="#000000" font-family="sans-serif" font-size="13.75" font-weight="bold" lengthAdjust="spacingAndGlyphs" textLength="198.75" x="246.875" y="440.7837">[when deleting return order]</text><polygon fill="#3333C4" points="566.875,467.9944,579.375,472.9944,566.875,477.9944,571.875,472.9944" style="stroke: #3333C4; stroke-width: 1.25;"/><line style="stroke: #3333C4; stroke-width: 1.25;" x1="311.875" x2="574.375" y1="472.9944" y2="472.9944"/><text fill="#000000" font-family="sans-serif" font-size="16.25" lengthAdjust="spacingAndGlyphs" textLength="246.25" x="323.75" y="466.9238">saveReturnBook(returnOrderBook)</text><line style="stroke: #A38300; stroke-width: 1.25;" x1="600.625" x2="653.125" y1="510.9338" y2="510.9338"/><line style="stroke: #A38300; stroke-width: 1.25;" x1="653.125" x2="653.125" y1="510.9338" y2="527.1838"/><line style="stroke: #A38300; stroke-width: 1.25;" x1="601.875" x2="653.125" y1="527.1838" y2="527.1838"/><polygon fill="#A38300" points="614.375,522.1838,601.875,527.1838,614.375,532.1838,609.375,527.1838" style="stroke: #A38300; stroke-width: 1.25;"/><text fill="#000000" font-family="sans-serif" font-size="16.25" lengthAdjust="spacingAndGlyphs" textLength="78.75" x="609.375" y="504.8633">Save to file</text><polygon fill="#A38300" points="325.625,585.9338,313.125,590.9338,325.625,595.9338,320.625,590.9338" style="stroke: #A38300; stroke-width: 1.25;"/><line style="stroke: #A38300; stroke-width: 1.25; stroke-dasharray: 2.0,2.0;" x1="318.125" x2="586.875" y1="590.9338" y2="590.9338"/><polygon fill="#3333C4" points="151.875,603.4338,139.375,608.4338,151.875,613.4338,146.875,608.4338" style="stroke: #3333C4; stroke-width: 1.25;"/><line style="stroke: #3333C4; stroke-width: 1.25; stroke-dasharray: 2.0,2.0;" x1="144.375" x2="304.375" y1="608.4338" y2="608.4338"/><polygon fill="#1D8900" points="45.625,620.9338,33.125,625.9338,45.625,630.9338,40.625,625.9338" style="stroke: #1D8900; stroke-width: 1.25;"/><line style="stroke: #1D8900; stroke-width: 1.25; stroke-dasharray: 2.0,2.0;" x1="38.125" x2="130.625" y1="625.9338" y2="625.9338"/><!--MD5=[2749ea8785b9e0f0312dfc73f2b70808]
@startuml








skinparam BackgroundColor #FFFFFFF

skinparam Shadowing false

skinparam Class {
    FontColor #FFFFFF
    BorderThickness 1
    BorderColor #FFFFFF
    StereotypeFontColor #FFFFFF
    FontName Arial
}

skinparam Actor {
    BorderColor #000000
    Color #000000
    FontName Arial
}

skinparam Sequence {
    MessageAlign center
    BoxFontSize 15
    BoxPadding 0
    BoxFontColor #FFFFFF
    FontName Arial
}

skinparam Participant {
    FontColor #FFFFFFF
    Padding 20
}

skinparam MinClassWidth 50
skinparam ParticipantPadding 10
skinparam Shadowing false
skinparam DefaultTextAlignment center
skinparam packageStyle Rectangle

hide footbox
hide members
hide circle

Actor User as user #000000
Participant ":UI" as ui #1D8900
Participant ":Logic" as logic #3333C4
Participant ":Model" as model #9D0012
Participant ":Storage" as storage #A38300

user -[#000000]> ui : "delete 1"
activate ui #1D8900

ui -[#1D8900]> logic : execute("delete 1")
activate logic #3333C4

logic -[#3333C4]> model : deleteOrder(p)
activate model #9D0012

model -[#9D0012]-> logic
deactivate model

alt when deleting order
logic -[#3333C4]> storage : saveOrderBook(orderBook)
activate storage #A38300

storage -[#A38300]> storage : Save to file
activate storage #FFE374
deactivate storage

storage - -[#A38300]> logic
deactivate storage

else when deleting return order
logic -[#3333C4]> storage : saveReturnBook(returnOrderBook)
activate storage #A38300

storage -[#A38300]> storage : Save to file
activate storage #FFE374
deactivate storage
end

storage - -[#A38300]> logic
deactivate storage

logic - -[#3333C4]> ui
deactivate logic

ui- -[#1D8900]> user
deactivate ui
@enduml

PlantUML version 1.2020.03beta6(Unknown compile time)
(GPL source distribution)
Java Runtime: OpenJDK Runtime Environment
JVM: OpenJDK 64-Bit Server VM
Java Version: 11.0.5+10-b520.30
Operating System: Windows 10
Default Encoding: UTF-8
Language: en
Country: US
--></g></svg>
