<?xml version="1.0" encoding="UTF-8" standalone="no"?><svg xmlns="http://www.w3.org/2000/svg" xmlns:xlink="http://www.w3.org/1999/xlink" contentScriptType="application/ecmascript" contentStyleType="text/css" height="530px" preserveAspectRatio="none" style="width:574px;height:530px;" version="1.1" viewBox="0 0 574 530" width="574px" zoomAndPan="magnify"><defs/><g><rect fill="#1D8900" height="386.2969" style="stroke: #A80036; stroke-width: 1.0;" width="10" x="100.5" y="114.4502"/><rect fill="#3333C4" height="341.9453" style="stroke: #A80036; stroke-width: 1.0;" width="10" x="239.5" y="144.8018"/><rect fill="#9D0012" height="14" style="stroke: #A80036; stroke-width: 1.0;" width="10" x="350.5" y="175.1533"/><rect fill="#A38300" height="87.3516" style="stroke: #A80036; stroke-width: 1.0;" width="10" x="465.5" y="244.8564"/><rect fill="#FFE374" height="28" style="stroke: #A80036; stroke-width: 1.0;" width="10" x="470.5" y="283.208"/><rect fill="#A38300" height="94.3516" style="stroke: #A80036; stroke-width: 1.0;" width="10" x="465.5" y="378.3955"/><rect fill="#FFE374" height="28" style="stroke: #A80036; stroke-width: 1.0;" width="10" x="470.5" y="416.7471"/><rect fill="#FFFFFF" height="255.5938" style="stroke: #000000; stroke-width: 2.0;" width="370" x="192.5" y="204.1533"/><rect fill="#FFFFFF" height="119.5391" style="stroke: none; stroke-width: 1.0;" width="370" x="192.5" y="340.208"/><line style="stroke: #A80036; stroke-width: 1.0; stroke-dasharray: 5.0,5.0;" x1="25" x2="25" y1="82.0986" y2="518.7471"/><line style="stroke: #A80036; stroke-width: 1.0; stroke-dasharray: 5.0,5.0;" x1="105.5" x2="105.5" y1="82.0986" y2="518.7471"/><line style="stroke: #A80036; stroke-width: 1.0; stroke-dasharray: 5.0,5.0;" x1="244.5" x2="244.5" y1="82.0986" y2="518.7471"/><line style="stroke: #A80036; stroke-width: 1.0; stroke-dasharray: 5.0,5.0;" x1="355.5" x2="355.5" y1="82.0986" y2="518.7471"/><line style="stroke: #A80036; stroke-width: 1.0; stroke-dasharray: 5.0,5.0;" x1="470.5" x2="470.5" y1="82.0986" y2="518.7471"/><text fill="#000000" font-family="Arial" font-size="14" lengthAdjust="spacingAndGlyphs" textLength="29" x="8" y="79.1318">User</text><ellipse cx="25.5" cy="13" fill="#000000" rx="8" ry="8" style="stroke: #000000; stroke-width: 2.0;"/><path d="M25.5,21 L25.5,48 M12.5,29 L38.5,29 M25.5,48 L12.5,63 M25.5,48 L38.5,63 " fill="none" style="stroke: #000000; stroke-width: 2.0;"/><rect fill="#1D8900" height="31.6094" style="stroke: #A80036; stroke-width: 1.5;" width="64" x="73.5" y="49.4893"/><text fill="#FFFFFF" font-family="sans-serif" font-size="14" lengthAdjust="spacingAndGlyphs" textLength="16" x="97.5" y="71.0225">:UI</text><rect fill="#3333C4" height="31.6094" style="stroke: #A80036; stroke-width: 1.5;" width="64" x="212.5" y="49.4893"/><text fill="#FFFFFF" font-family="sans-serif" font-size="14" lengthAdjust="spacingAndGlyphs" textLength="38" x="225.5" y="71.0225">:Logic</text><rect fill="#9D0012" height="31.6094" style="stroke: #A80036; stroke-width: 1.5;" width="64" x="323.5" y="49.4893"/><text fill="#FFFFFF" font-family="sans-serif" font-size="14" lengthAdjust="spacingAndGlyphs" textLength="42" x="334.5" y="71.0225">:Model</text><rect fill="#A38300" height="31.6094" style="stroke: #A80036; stroke-width: 1.5;" width="68" x="436.5" y="49.4893"/><text fill="#FFFFFF" font-family="sans-serif" font-size="14" lengthAdjust="spacingAndGlyphs" textLength="54" x="443.5" y="71.0225">:Storage</text><rect fill="#1D8900" height="386.2969" style="stroke: #A80036; stroke-width: 1.0;" width="10" x="100.5" y="114.4502"/><rect fill="#3333C4" height="341.9453" style="stroke: #A80036; stroke-width: 1.0;" width="10" x="239.5" y="144.8018"/><rect fill="#9D0012" height="14" style="stroke: #A80036; stroke-width: 1.0;" width="10" x="350.5" y="175.1533"/><rect fill="#A38300" height="87.3516" style="stroke: #A80036; stroke-width: 1.0;" width="10" x="465.5" y="244.8564"/><rect fill="#FFE374" height="28" style="stroke: #A80036; stroke-width: 1.0;" width="10" x="470.5" y="283.208"/><rect fill="#A38300" height="94.3516" style="stroke: #A80036; stroke-width: 1.0;" width="10" x="465.5" y="378.3955"/><rect fill="#FFE374" height="28" style="stroke: #A80036; stroke-width: 1.0;" width="10" x="470.5" y="416.7471"/><polygon fill="#000000" points="88.5,110.4502,98.5,114.4502,88.5,118.4502,92.5,114.4502" style="stroke: #000000; stroke-width: 1.0;"/><line style="stroke: #000000; stroke-width: 1.0;" x1="25.5" x2="94.5" y1="114.4502" y2="114.4502"/><text fill="#000000" font-family="sans-serif" font-size="13" lengthAdjust="spacingAndGlyphs" textLength="56" x="35" y="109.5938">"delete 1"</text><polygon fill="#1D8900" points="227.5,140.8018,237.5,144.8018,227.5,148.8018,231.5,144.8018" style="stroke: #1D8900; stroke-width: 1.0;"/><line style="stroke: #1D8900; stroke-width: 1.0;" x1="110.5" x2="233.5" y1="144.8018" y2="144.8018"/><text fill="#000000" font-family="sans-serif" font-size="13" lengthAdjust="spacingAndGlyphs" textLength="110" x="120" y="139.9453">execute("delete 1")</text><polygon fill="#3333C4" points="338.5,171.1533,348.5,175.1533,338.5,179.1533,342.5,175.1533" style="stroke: #3333C4; stroke-width: 1.0;"/><line style="stroke: #3333C4; stroke-width: 1.0;" x1="249.5" x2="344.5" y1="175.1533" y2="175.1533"/><text fill="#000000" font-family="sans-serif" font-size="13" lengthAdjust="spacingAndGlyphs" textLength="82" x="259" y="170.2969">deleteOrder(p)</text><polygon fill="#9D0012" points="260.5,185.1533,250.5,189.1533,260.5,193.1533,256.5,189.1533" style="stroke: #9D0012; stroke-width: 1.0;"/><line style="stroke: #9D0012; stroke-width: 1.0; stroke-dasharray: 2.0,2.0;" x1="254.5" x2="354.5" y1="189.1533" y2="189.1533"/><path d="M192.5,204.1533 L253.5,204.1533 L253.5,212.1533 L243.5,222.1533 L192.5,222.1533 L192.5,204.1533 " fill="#EEEEEE" style="stroke: #000000; stroke-width: 1.0;"/><rect fill="none" height="255.5938" style="stroke: #000000; stroke-width: 2.0;" width="370" x="192.5" y="204.1533"/><text fill="#000000" font-family="sans-serif" font-size="13" font-weight="bold" lengthAdjust="spacingAndGlyphs" textLength="16" x="207.5" y="218.6484">alt</text><text fill="#000000" font-family="sans-serif" font-size="11" font-weight="bold" lengthAdjust="spacingAndGlyphs" textLength="121" x="268.5" y="217.5723">[when deleting order]</text><polygon fill="#3333C4" points="453.5,240.8564,463.5,244.8564,453.5,248.8564,457.5,244.8564" style="stroke: #3333C4; stroke-width: 1.0;"/><line style="stroke: #3333C4; stroke-width: 1.0;" x1="249.5" x2="459.5" y1="244.8564" y2="244.8564"/><text fill="#000000" font-family="sans-serif" font-size="13" lengthAdjust="spacingAndGlyphs" textLength="155" x="280" y="240">saveOrderBook(orderBook)</text><line style="stroke: #A38300; stroke-width: 1.0;" x1="480.5" x2="522.5" y1="275.208" y2="275.208"/><line style="stroke: #A38300; stroke-width: 1.0;" x1="522.5" x2="522.5" y1="275.208" y2="288.208"/><line style="stroke: #A38300; stroke-width: 1.0;" x1="481.5" x2="522.5" y1="288.208" y2="288.208"/><polygon fill="#A38300" points="491.5,284.208,481.5,288.208,491.5,292.208,487.5,288.208" style="stroke: #A38300; stroke-width: 1.0;"/><text fill="#000000" font-family="sans-serif" font-size="13" lengthAdjust="spacingAndGlyphs" textLength="63" x="487.5" y="270.3516">Save to file</text><polygon fill="#A38300" points="260.5,328.208,250.5,332.208,260.5,336.208,256.5,332.208" style="stroke: #A38300; stroke-width: 1.0;"/><line style="stroke: #A38300; stroke-width: 1.0; stroke-dasharray: 2.0,2.0;" x1="254.5" x2="469.5" y1="332.208" y2="332.208"/><line style="stroke: #000000; stroke-width: 1.0; stroke-dasharray: 2.0,2.0;" x1="192.5" x2="562.5" y1="341.208" y2="341.208"/><text fill="#000000" font-family="sans-serif" font-size="11" font-weight="bold" lengthAdjust="spacingAndGlyphs" textLength="159" x="197.5" y="352.627">[when deleting return order]</text><polygon fill="#3333C4" points="453.5,374.3955,463.5,378.3955,453.5,382.3955,457.5,378.3955" style="stroke: #3333C4; stroke-width: 1.0;"/><line style="stroke: #3333C4; stroke-width: 1.0;" x1="249.5" x2="459.5" y1="378.3955" y2="378.3955"/><text fill="#000000" font-family="sans-serif" font-size="13" lengthAdjust="spacingAndGlyphs" textLength="197" x="259" y="373.5391">saveReturnBook(returnOrderBook)</text><line style="stroke: #A38300; stroke-width: 1.0;" x1="480.5" x2="522.5" y1="408.7471" y2="408.7471"/><line style="stroke: #A38300; stroke-width: 1.0;" x1="522.5" x2="522.5" y1="408.7471" y2="421.7471"/><line style="stroke: #A38300; stroke-width: 1.0;" x1="481.5" x2="522.5" y1="421.7471" y2="421.7471"/><polygon fill="#A38300" points="491.5,417.7471,481.5,421.7471,491.5,425.7471,487.5,421.7471" style="stroke: #A38300; stroke-width: 1.0;"/><text fill="#000000" font-family="sans-serif" font-size="13" lengthAdjust="spacingAndGlyphs" textLength="63" x="487.5" y="403.8906">Save to file</text><polygon fill="#A38300" points="260.5,468.7471,250.5,472.7471,260.5,476.7471,256.5,472.7471" style="stroke: #A38300; stroke-width: 1.0;"/><line style="stroke: #A38300; stroke-width: 1.0; stroke-dasharray: 2.0,2.0;" x1="254.5" x2="469.5" y1="472.7471" y2="472.7471"/><polygon fill="#3333C4" points="121.5,482.7471,111.5,486.7471,121.5,490.7471,117.5,486.7471" style="stroke: #3333C4; stroke-width: 1.0;"/><line style="stroke: #3333C4; stroke-width: 1.0; stroke-dasharray: 2.0,2.0;" x1="115.5" x2="243.5" y1="486.7471" y2="486.7471"/><polygon fill="#1D8900" points="36.5,496.7471,26.5,500.7471,36.5,504.7471,32.5,500.7471" style="stroke: #1D8900; stroke-width: 1.0;"/><line style="stroke: #1D8900; stroke-width: 1.0; stroke-dasharray: 2.0,2.0;" x1="30.5" x2="104.5" y1="500.7471" y2="500.7471"/><!--MD5=[36b9afb0ddc89fe3937dfbf7425b07e8]
@startuml








skinparam BackgroundColor #FFFFFFF

skinparam Shadowing false

skinparam Class {
    FontColor #FFFFFF
    BorderThickness 1
    BorderColor #FFFFFF
    StereotypeFontColor #FFFFFF
    FontName Arial
}

skinparam Actor {
    BorderColor #000000
    Color #000000
    FontName Arial
}

skinparam Sequence {
    MessageAlign center
    BoxFontSize 15
    BoxPadding 0
    BoxFontColor #FFFFFF
    FontName Arial
}

skinparam Participant {
    FontColor #FFFFFFF
    Padding 20
}

skinparam MinClassWidth 50
skinparam ParticipantPadding 10
skinparam Shadowing false
skinparam DefaultTextAlignment center
skinparam packageStyle Rectangle

hide footbox
hide members
hide circle

Actor User as user #000000
Participant ":UI" as ui #1D8900
Participant ":Logic" as logic #3333C4
Participant ":Model" as model #9D0012
Participant ":Storage" as storage #A38300

user -[#000000]> ui : "delete 1"
activate ui #1D8900

ui -[#1D8900]> logic : execute("delete 1")
activate logic #3333C4

logic -[#3333C4]> model : deleteOrder(p)
activate model #9D0012

model -[#9D0012]-> logic
deactivate model

alt when deleting order
logic -[#3333C4]> storage : saveOrderBook(orderBook)
activate storage #A38300

storage -[#A38300]> storage : Save to file
activate storage #FFE374
deactivate storage

storage - -[#A38300]> logic
deactivate storage

else when deleting return order
logic -[#3333C4]> storage : saveReturnBook(returnOrderBook)
activate storage #A38300

storage -[#A38300]> storage : Save to file
activate storage #FFE374
deactivate storage
end

storage - -[#A38300]> logic
deactivate storage

logic - -[#3333C4]> ui
deactivate logic

ui- -[#1D8900]> user
deactivate ui
@enduml

PlantUML version 1.2019.11(Sun Sep 22 18:02:15 SGT 2019)
(GPL source distribution)
Java Runtime: OpenJDK Runtime Environment
JVM: OpenJDK 64-Bit Server VM
Java Version: 11.0.5+10-b520.30
Operating System: Windows 10
Default Encoding: UTF-8
Language: en
Country: US
--></g></svg>
