<?xml version="1.0" encoding="UTF-8" standalone="no"?><svg xmlns="http://www.w3.org/2000/svg" xmlns:xlink="http://www.w3.org/1999/xlink" contentScriptType="application/ecmascript" contentStyleType="text/css" height="358px" preserveAspectRatio="none" style="width:589px;height:358px;" version="1.1" viewBox="0 0 589 358" width="589px" zoomAndPan="magnify"><defs/><g><rect fill="#1D8900" height="215.5313" style="stroke: #A80036; stroke-width: 1.0;" width="10" x="108" y="113.4297"/><rect fill="#3333C4" height="172.3984" style="stroke: #A80036; stroke-width: 1.0;" width="10" x="260" y="142.5625"/><rect fill="#9D0012" height="14" style="stroke: #A80036; stroke-width: 1.0;" width="10" x="386" y="171.6953"/><rect fill="#A38300" height="86.1328" style="stroke: #A80036; stroke-width: 1.0;" width="10" x="484.5" y="214.8281"/><rect fill="#FFE374" height="28" style="stroke: #A80036; stroke-width: 1.0;" width="10" x="489.5" y="251.9609"/><line style="stroke: #A80036; stroke-width: 1.0; stroke-dasharray: 5.0,5.0;" x1="27" x2="27" y1="82.2969" y2="346.9609"/><line style="stroke: #A80036; stroke-width: 1.0; stroke-dasharray: 5.0,5.0;" x1="113" x2="113" y1="82.2969" y2="346.9609"/><line style="stroke: #A80036; stroke-width: 1.0; stroke-dasharray: 5.0,5.0;" x1="265" x2="265" y1="82.2969" y2="346.9609"/><line style="stroke: #A80036; stroke-width: 1.0; stroke-dasharray: 5.0,5.0;" x1="391" x2="391" y1="82.2969" y2="346.9609"/><line style="stroke: #A80036; stroke-width: 1.0; stroke-dasharray: 5.0,5.0;" x1="489" x2="489" y1="82.2969" y2="346.9609"/><text fill="#000000" font-family="Arial" font-size="14" lengthAdjust="spacingAndGlyphs" textLength="32" x="8" y="78.9951">User</text><ellipse cx="27" cy="13" fill="#000000" rx="8" ry="8" style="stroke: #000000; stroke-width: 2.0;"/><path d="M27,21 L27,48 M14,29 L40,29 M27,48 L14,63 M27,48 L40,63 " fill="none" style="stroke: #000000; stroke-width: 2.0;"/><rect fill="#1D8900" height="30.2969" style="stroke: #A80036; stroke-width: 1.5;" width="64" x="81" y="51"/><text fill="#FFFFFF" font-family="sans-serif" font-size="14" lengthAdjust="spacingAndGlyphs" textLength="18" x="104" y="70.9951">:UI</text><rect fill="#3333C4" height="30.2969" style="stroke: #A80036; stroke-width: 1.5;" width="64" x="233" y="51"/><text fill="#FFFFFF" font-family="sans-serif" font-size="14" lengthAdjust="spacingAndGlyphs" textLength="41" x="244.5" y="70.9951">:Logic</text><rect fill="#9D0012" height="30.2969" style="stroke: #A80036; stroke-width: 1.5;" width="64" x="359" y="51"/><text fill="#FFFFFF" font-family="sans-serif" font-size="14" lengthAdjust="spacingAndGlyphs" textLength="47" x="367.5" y="70.9951">:Model</text><rect fill="#A38300" height="30.2969" style="stroke: #A80036; stroke-width: 1.5;" width="73" x="453" y="51"/><text fill="#FFFFFF" font-family="sans-serif" font-size="14" lengthAdjust="spacingAndGlyphs" textLength="59" x="460" y="70.9951">:Storage</text><rect fill="#1D8900" height="215.5313" style="stroke: #A80036; stroke-width: 1.0;" width="10" x="108" y="113.4297"/><rect fill="#3333C4" height="172.3984" style="stroke: #A80036; stroke-width: 1.0;" width="10" x="260" y="142.5625"/><rect fill="#9D0012" height="14" style="stroke: #A80036; stroke-width: 1.0;" width="10" x="386" y="171.6953"/><rect fill="#A38300" height="86.1328" style="stroke: #A80036; stroke-width: 1.0;" width="10" x="484.5" y="214.8281"/><rect fill="#FFE374" height="28" style="stroke: #A80036; stroke-width: 1.0;" width="10" x="489.5" y="251.9609"/><polygon fill="#000000" points="96,109.4297,106,113.4297,96,117.4297,100,113.4297" style="stroke: #000000; stroke-width: 1.0;"/><line style="stroke: #000000; stroke-width: 1.0;" x1="27" x2="102" y1="113.4297" y2="113.4297"/><text fill="#000000" font-family="sans-serif" font-size="13" lengthAdjust="spacingAndGlyphs" textLength="62" x="36.5" y="108.3638">"delete 1"</text><polygon fill="#1D8900" points="248,138.5625,258,142.5625,248,146.5625,252,142.5625" style="stroke: #1D8900; stroke-width: 1.0;"/><line style="stroke: #1D8900; stroke-width: 1.0;" x1="118" x2="254" y1="142.5625" y2="142.5625"/><text fill="#000000" font-family="sans-serif" font-size="13" lengthAdjust="spacingAndGlyphs" textLength="123" x="127.5" y="137.4966">execute("delete 1")</text><polygon fill="#3333C4" points="374,167.6953,384,171.6953,374,175.6953,378,171.6953" style="stroke: #3333C4; stroke-width: 1.0;"/><line style="stroke: #3333C4; stroke-width: 1.0;" x1="270" x2="380" y1="171.6953" y2="171.6953"/><text fill="#000000" font-family="sans-serif" font-size="13" lengthAdjust="spacingAndGlyphs" textLength="97" x="279.5" y="166.6294">deleteRecipe(r)</text><polygon fill="#9D0012" points="281,181.6953,271,185.6953,281,189.6953,277,185.6953" style="stroke: #9D0012; stroke-width: 1.0;"/><line style="stroke: #9D0012; stroke-width: 1.0; stroke-dasharray: 2.0,2.0;" x1="275" x2="390" y1="185.6953" y2="185.6953"/><polygon fill="#3333C4" points="472.5,210.8281,482.5,214.8281,472.5,218.8281,476.5,214.8281" style="stroke: #3333C4; stroke-width: 1.0;"/><line style="stroke: #3333C4; stroke-width: 1.0;" x1="270" x2="478.5" y1="214.8281" y2="214.8281"/><text fill="#000000" font-family="sans-serif" font-size="13" lengthAdjust="spacingAndGlyphs" textLength="185" x="284.75" y="209.7622">saveRecipeBook(recipeBook)</text><line style="stroke: #A38300; stroke-width: 1.0;" x1="499.5" x2="541.5" y1="243.9609" y2="243.9609"/><line style="stroke: #A38300; stroke-width: 1.0;" x1="541.5" x2="541.5" y1="243.9609" y2="256.9609"/><line style="stroke: #A38300; stroke-width: 1.0;" x1="500.5" x2="541.5" y1="256.9609" y2="256.9609"/><polygon fill="#A38300" points="510.5,252.9609,500.5,256.9609,510.5,260.9609,506.5,256.9609" style="stroke: #A38300; stroke-width: 1.0;"/><text fill="#000000" font-family="sans-serif" font-size="13" lengthAdjust="spacingAndGlyphs" textLength="71" x="506.5" y="238.895">Save to file</text><polygon fill="#A38300" points="281,296.9609,271,300.9609,281,304.9609,277,300.9609" style="stroke: #A38300; stroke-width: 1.0;"/><line style="stroke: #A38300; stroke-width: 1.0; stroke-dasharray: 2.0,2.0;" x1="275" x2="488.5" y1="300.9609" y2="300.9609"/><polygon fill="#3333C4" points="129,310.9609,119,314.9609,129,318.9609,125,314.9609" style="stroke: #3333C4; stroke-width: 1.0;"/><line style="stroke: #3333C4; stroke-width: 1.0; stroke-dasharray: 2.0,2.0;" x1="123" x2="264" y1="314.9609" y2="314.9609"/><polygon fill="#1D8900" points="38,324.9609,28,328.9609,38,332.9609,34,328.9609" style="stroke: #1D8900; stroke-width: 1.0;"/><line style="stroke: #1D8900; stroke-width: 1.0; stroke-dasharray: 2.0,2.0;" x1="32" x2="112" y1="328.9609" y2="328.9609"/><!--MD5=[e6b55f9bcc2792a60f4437a2e9fabd4c]
@startuml








skinparam BackgroundColor #FFFFFFF

skinparam Shadowing false

skinparam Class {
    FontColor #FFFFFF
    BorderThickness 1
    BorderColor #FFFFFF
    StereotypeFontColor #FFFFFF
    FontName Arial
}

skinparam Actor {
    BorderColor #000000
    Color #000000
    FontName Arial
}

skinparam Sequence {
    MessageAlign center
    BoxFontSize 15
    BoxPadding 0
    BoxFontColor #FFFFFF
    FontName Arial
}

skinparam Participant {
    FontColor #FFFFFFF
    Padding 20
}

skinparam MinClassWidth 50
skinparam ParticipantPadding 10
skinparam Shadowing false
skinparam DefaultTextAlignment center
skinparam packageStyle Rectangle

hide footbox
hide members
hide circle


Actor User as user #000000
Participant ":UI" as ui #1D8900
Participant ":Logic" as logic #3333C4
Participant ":Model" as model #9D0012
Participant ":Storage" as storage #A38300

user -[#000000]> ui : "delete 1"
activate ui #1D8900

ui -[#1D8900]> logic : execute("delete 1")
activate logic #3333C4

logic -[#3333C4]> model : deleteRecipe(r)
activate model #9D0012

model -[#9D0012]-> logic
deactivate model

logic -[#3333C4]> storage : saveRecipeBook(recipeBook)
activate storage #A38300

storage -[#A38300]> storage : Save to file
activate storage #FFE374
deactivate storage

storage - -[#A38300]> logic
deactivate storage

logic - -[#3333C4]> ui
deactivate logic

ui- -[#1D8900]> user
deactivate ui
@enduml

PlantUML version 1.2020.03beta11(Unknown compile time)
(GPL source distribution)
Java Runtime: Java(TM) SE Runtime Environment
JVM: Java HotSpot(TM) 64-Bit Server VM
Java Version: 1.7.0_25-b15
Operating System: Linux
Default Encoding: UTF-8
Language: en
Country: US
--></g></svg>
