<?xml version="1.0" encoding="UTF-8" standalone="no"?><svg xmlns="http://www.w3.org/2000/svg" xmlns:xlink="http://www.w3.org/1999/xlink" contentScriptType="application/ecmascript" contentStyleType="text/css" height="742px" preserveAspectRatio="none" style="width:845px;height:742px;" version="1.1" viewBox="0 0 845 742" width="845.6px" zoomAndPan="magnify"><defs/><g><rect fill="#1D8900" height="540.8156" style="stroke: #A80036; stroke-width: 1.4;" width="14" x="161.7" y="160.2303"/><rect fill="#3333C4" height="478.7234" style="stroke: #A80036; stroke-width: 1.4;" width="14" x="377.3" y="202.7225"/><rect fill="#9D0012" height="19.6" style="stroke: #A80036; stroke-width: 1.4;" width="14" x="532.7" y="245.2146"/><rect fill="#A38300" height="122.2922" style="stroke: #A80036; stroke-width: 1.4;" width="14" x="693.7" y="342.799"/><rect fill="#FFE374" height="39.2" style="stroke: #A80036; stroke-width: 1.4;" width="14" x="700.7" y="396.4912"/><rect fill="#A38300" height="122.2922" style="stroke: #A80036; stroke-width: 1.4;" width="14" x="693.7" y="529.7537"/><rect fill="#FFE374" height="39.2" style="stroke: #A80036; stroke-width: 1.4;" width="14" x="700.7" y="583.4459"/><rect fill="#FFFFFF" height="377.4313" style="stroke: #000000; stroke-width: 2.8;" width="518" x="311.5" y="285.8146"/><rect fill="#FFFFFF" height="186.9547" style="stroke: none; stroke-width: 1.4;" width="518" x="311.5" y="476.2912"/><line style="stroke: #A80036; stroke-width: 1.4; stroke-dasharray: 5.0,5.0;" x1="35" x2="35" y1="114.9381" y2="726.2459"/><line style="stroke: #A80036; stroke-width: 1.4; stroke-dasharray: 5.0,5.0;" x1="168.7" x2="168.7" y1="114.9381" y2="726.2459"/><line style="stroke: #A80036; stroke-width: 1.4; stroke-dasharray: 5.0,5.0;" x1="384.3" x2="384.3" y1="114.9381" y2="726.2459"/><line style="stroke: #A80036; stroke-width: 1.4; stroke-dasharray: 5.0,5.0;" x1="539.7" x2="539.7" y1="114.9381" y2="726.2459"/><line style="stroke: #A80036; stroke-width: 1.4; stroke-dasharray: 5.0,5.0;" x1="700.7" x2="700.7" y1="114.9381" y2="726.2459"/><text fill="#000000" font-family="Arial" font-size="19.6" lengthAdjust="spacingAndGlyphs" textLength="40.6" x="11.2" y="110.7846">User</text><ellipse cx="35.7" cy="18.2" fill="#000000" rx="11.2" ry="11.2" style="stroke: #000000; stroke-width: 2.8;"/><path d="M35.7,29.4 L35.7,67.2 M17.5,40.6 L53.9,40.6 M35.7,67.2 L17.5,88.2 M35.7,67.2 L53.9,88.2 " fill="none" style="stroke: #000000; stroke-width: 2.8;"/><rect fill="#1D8900" height="44.2531" style="stroke: #A80036; stroke-width: 2.0999999999999996;" width="89.6" x="123.9" y="69.285"/><text fill="#FFFFFF" font-family="sans-serif" font-size="19.6" lengthAdjust="spacingAndGlyphs" textLength="22.4" x="157.5" y="99.4314">:UI</text><rect fill="#3333C4" height="44.2531" style="stroke: #A80036; stroke-width: 2.0999999999999996;" width="89.6" x="339.5" y="69.285"/><text fill="#FFFFFF" font-family="sans-serif" font-size="19.6" lengthAdjust="spacingAndGlyphs" textLength="53.2" x="357.7" y="99.4314">:Logic</text><rect fill="#9D0012" height="44.2531" style="stroke: #A80036; stroke-width: 2.0999999999999996;" width="89.6" x="494.9" y="69.285"/><text fill="#FFFFFF" font-family="sans-serif" font-size="19.6" lengthAdjust="spacingAndGlyphs" textLength="58.8" x="510.3" y="99.4314">:Model</text><rect fill="#A38300" height="44.2531" style="stroke: #A80036; stroke-width: 2.0999999999999996;" width="95.2" x="653.1" y="69.285"/><text fill="#FFFFFF" font-family="sans-serif" font-size="19.6" lengthAdjust="spacingAndGlyphs" textLength="75.6" x="662.9" y="99.4314">:Storage</text><rect fill="#1D8900" height="540.8156" style="stroke: #A80036; stroke-width: 1.4;" width="14" x="161.7" y="160.2303"/><rect fill="#3333C4" height="478.7234" style="stroke: #A80036; stroke-width: 1.4;" width="14" x="377.3" y="202.7225"/><rect fill="#9D0012" height="19.6" style="stroke: #A80036; stroke-width: 1.4;" width="14" x="532.7" y="245.2146"/><rect fill="#A38300" height="122.2922" style="stroke: #A80036; stroke-width: 1.4;" width="14" x="693.7" y="342.799"/><rect fill="#FFE374" height="39.2" style="stroke: #A80036; stroke-width: 1.4;" width="14" x="700.7" y="396.4912"/><rect fill="#A38300" height="122.2922" style="stroke: #A80036; stroke-width: 1.4;" width="14" x="693.7" y="529.7537"/><rect fill="#FFE374" height="39.2" style="stroke: #A80036; stroke-width: 1.4;" width="14" x="700.7" y="583.4459"/><polygon fill="#000000" points="144.9,154.6303,158.9,160.2303,144.9,165.8303,150.5,160.2303" style="stroke: #000000; stroke-width: 1.4;"/><line style="stroke: #000000; stroke-width: 1.4;" x1="35.7" x2="153.3" y1="160.2303" y2="160.2303"/><text fill="#000000" font-family="sans-serif" font-size="18.2" lengthAdjust="spacingAndGlyphs" textLength="99.4" x="49" y="153.4312">"delete -o 1"</text><polygon fill="#1D8900" points="360.5,197.1225,374.5,202.7225,360.5,208.3225,366.1,202.7225" style="stroke: #1D8900; stroke-width: 1.4;"/><line style="stroke: #1D8900; stroke-width: 1.4;" x1="175.7" x2="368.9" y1="202.7225" y2="202.7225"/><text fill="#000000" font-family="sans-serif" font-size="18.2" lengthAdjust="spacingAndGlyphs" textLength="175" x="189" y="195.9234">execute("delete -o 1")</text><polygon fill="#3333C4" points="515.9,239.6146,529.9,245.2146,515.9,250.8146,521.5,245.2146" style="stroke: #3333C4; stroke-width: 1.4;"/><line style="stroke: #3333C4; stroke-width: 1.4;" x1="391.3" x2="524.3" y1="245.2146" y2="245.2146"/><text fill="#000000" font-family="sans-serif" font-size="18.2" lengthAdjust="spacingAndGlyphs" textLength="114.8" x="404.6" y="238.4156">deleteOrder(p)</text><polygon fill="#9D0012" points="406.7,259.2146,392.7,264.8146,406.7,270.4146,401.1,264.8146" style="stroke: #9D0012; stroke-width: 1.4;"/><line style="stroke: #9D0012; stroke-width: 1.4; stroke-dasharray: 2.0,2.0;" x1="398.3" x2="538.3" y1="264.8146" y2="264.8146"/><path d="M311.5,285.8146 L396.9,285.8146 L396.9,297.0146 L382.9,311.0146 L311.5,311.0146 L311.5,285.8146 " fill="#EEEEEE" style="stroke: #000000; stroke-width: 1.4;"/><rect fill="none" height="377.4313" style="stroke: #000000; stroke-width: 2.8;" width="518" x="311.5" y="285.8146"/><text fill="#000000" font-family="sans-serif" font-size="18.2" font-weight="bold" lengthAdjust="spacingAndGlyphs" textLength="22.4" x="332.5" y="306.1078">alt</text><text fill="#000000" font-family="sans-serif" font-size="15.4" font-weight="bold" lengthAdjust="spacingAndGlyphs" textLength="169.4" x="417.9" y="304.6012">[when deleting order]</text><polygon fill="#3333C4" points="676.9,337.199,690.9,342.799,676.9,348.399,682.5,342.799" style="stroke: #3333C4; stroke-width: 1.4;"/><line style="stroke: #3333C4; stroke-width: 1.4;" x1="391.3" x2="685.3" y1="342.799" y2="342.799"/><text fill="#000000" font-family="sans-serif" font-size="18.2" lengthAdjust="spacingAndGlyphs" textLength="217" x="434" y="336">saveOrderBook(orderBook)</text><line style="stroke: #A38300; stroke-width: 1.4;" x1="714.7" x2="773.5" y1="385.2912" y2="385.2912"/><line style="stroke: #A38300; stroke-width: 1.4;" x1="773.5" x2="773.5" y1="385.2912" y2="403.4912"/><line style="stroke: #A38300; stroke-width: 1.4;" x1="716.1" x2="773.5" y1="403.4912" y2="403.4912"/><polygon fill="#A38300" points="730.1,397.8912,716.1,403.4912,730.1,409.0912,724.5,403.4912" style="stroke: #A38300; stroke-width: 1.4;"/><text fill="#000000" font-family="sans-serif" font-size="18.2" lengthAdjust="spacingAndGlyphs" textLength="88.2" x="724.5" y="378.4922">Save to file</text><polygon fill="#A38300" points="406.7,459.4912,392.7,465.0912,406.7,470.6912,401.1,465.0912" style="stroke: #A38300; stroke-width: 1.4;"/><line style="stroke: #A38300; stroke-width: 1.4; stroke-dasharray: 2.0,2.0;" x1="398.3" x2="699.3" y1="465.0912" y2="465.0912"/><line style="stroke: #000000; stroke-width: 1.4; stroke-dasharray: 2.0,2.0;" x1="311.5" x2="829.5" y1="477.6912" y2="477.6912"/><text fill="#000000" font-family="sans-serif" font-size="15.4" font-weight="bold" lengthAdjust="spacingAndGlyphs" textLength="222.6" x="318.5" y="493.6777">[when deleting return order]</text><polygon fill="#3333C4" points="676.9,524.1537,690.9,529.7537,676.9,535.3537,682.5,529.7537" style="stroke: #3333C4; stroke-width: 1.4;"/><line style="stroke: #3333C4; stroke-width: 1.4;" x1="391.3" x2="685.3" y1="529.7537" y2="529.7537"/><text fill="#000000" font-family="sans-serif" font-size="18.2" lengthAdjust="spacingAndGlyphs" textLength="275.8" x="404.6" y="522.9547">saveReturnBook(returnOrderBook)</text><line style="stroke: #A38300; stroke-width: 1.4;" x1="714.7" x2="773.5" y1="572.2459" y2="572.2459"/><line style="stroke: #A38300; stroke-width: 1.4;" x1="773.5" x2="773.5" y1="572.2459" y2="590.4459"/><line style="stroke: #A38300; stroke-width: 1.4;" x1="716.1" x2="773.5" y1="590.4459" y2="590.4459"/><polygon fill="#A38300" points="730.1,584.8459,716.1,590.4459,730.1,596.0459,724.5,590.4459" style="stroke: #A38300; stroke-width: 1.4;"/><text fill="#000000" font-family="sans-serif" font-size="18.2" lengthAdjust="spacingAndGlyphs" textLength="88.2" x="724.5" y="565.4469">Save to file</text><polygon fill="#A38300" points="406.7,646.4459,392.7,652.0459,406.7,657.6459,401.1,652.0459" style="stroke: #A38300; stroke-width: 1.4;"/><line style="stroke: #A38300; stroke-width: 1.4; stroke-dasharray: 2.0,2.0;" x1="398.3" x2="699.3" y1="652.0459" y2="652.0459"/><polygon fill="#3333C4" points="191.1,675.8459,177.1,681.4459,191.1,687.0459,185.5,681.4459" style="stroke: #3333C4; stroke-width: 1.4;"/><line style="stroke: #3333C4; stroke-width: 1.4; stroke-dasharray: 2.0,2.0;" x1="182.7" x2="382.9" y1="681.4459" y2="681.4459"/><polygon fill="#1D8900" points="51.1,695.4459,37.1,701.0459,51.1,706.6459,45.5,701.0459" style="stroke: #1D8900; stroke-width: 1.4;"/><line style="stroke: #1D8900; stroke-width: 1.4; stroke-dasharray: 2.0,2.0;" x1="42.7" x2="167.3" y1="701.0459" y2="701.0459"/><!--MD5=[e3aea178268bfad61ac8f045e1880121]
@startuml








skinparam BackgroundColor #FFFFFFF

skinparam Shadowing false

skinparam Class {
    FontColor #FFFFFF
    BorderThickness 1
    BorderColor #FFFFFF
    StereotypeFontColor #FFFFFF
    FontName Arial
}

skinparam Actor {
    BorderColor #000000
    Color #000000
    FontName Arial
}

skinparam Sequence {
    MessageAlign center
    BoxFontSize 15
    BoxPadding 0
    BoxFontColor #FFFFFF
    FontName Arial
}

skinparam Participant {
    FontColor #FFFFFFF
    Padding 20
}

skinparam MinClassWidth 50
skinparam ParticipantPadding 10
skinparam Shadowing false
skinparam DefaultTextAlignment center
skinparam packageStyle Rectangle

hide footbox
hide members
hide circle

Actor User as user #000000
Participant ":UI" as ui #1D8900
Participant ":Logic" as logic #3333C4
Participant ":Model" as model #9D0012
Participant ":Storage" as storage #A38300

user -[#000000]> ui : "delete -o 1"
activate ui #1D8900

ui -[#1D8900]> logic : execute("delete -o 1")
activate logic #3333C4

logic -[#3333C4]> model : deleteOrder(p)
activate model #9D0012

model -[#9D0012]-> logic
deactivate model

alt when deleting order
logic -[#3333C4]> storage : saveOrderBook(orderBook)
activate storage #A38300

storage -[#A38300]> storage : Save to file
activate storage #FFE374
deactivate storage

storage - -[#A38300]> logic
deactivate storage

else when deleting return order
logic -[#3333C4]> storage : saveReturnBook(returnOrderBook)
activate storage #A38300

storage -[#A38300]> storage : Save to file
activate storage #FFE374
deactivate storage
storage - -[#A38300]> logic
deactivate storage
end

logic - -[#3333C4]> ui
deactivate logic

ui- -[#1D8900]> user
deactivate ui
@enduml

PlantUML version 1.2020.03beta6(Unknown compile time)
(GPL source distribution)
Java Runtime: OpenJDK Runtime Environment
JVM: OpenJDK 64-Bit Server VM
Java Version: 11.0.6+8-b520.43
Operating System: Windows 10
Default Encoding: Cp1252
Language: en
Country: SG
--></g></svg>
