<?xml version="1.0" encoding="UTF-8" standalone="no"?><svg xmlns="http://www.w3.org/2000/svg" xmlns:xlink="http://www.w3.org/1999/xlink" contentScriptType="application/ecmascript" contentStyleType="text/css" height="873px" preserveAspectRatio="none" style="width:1291px;height:873px;" version="1.1" viewBox="0 0 1291 873" width="1291px" zoomAndPan="magnify"><defs><filter height="300%" id="feqaspge8tket" width="300%" x="-1" y="-1"><feGaussianBlur result="blurOut" stdDeviation="2.0"/><feColorMatrix in="blurOut" result="blurOut2" type="matrix" values="0 0 0 0 0 0 0 0 0 0 0 0 0 0 0 0 0 0 .4 0"/><feOffset dx="4.0" dy="4.0" in="blurOut2" result="blurOut3"/><feBlend in="SourceGraphic" in2="blurOut3" mode="normal"/></filter></defs><g><!--MD5=[05f5fba1ff83d42873626e04b4b84faa]
class RecipeBook--><rect fill="#FEFECE" filter="url(#feqaspge8tket)" height="103.9922" id="RecipeBook" style="stroke: #A80036; stroke-width: 1.5;" width="166" x="951" y="8"/><text fill="#000000" font-family="sans-serif" font-size="12" lengthAdjust="spacingAndGlyphs" textLength="73" x="997.5" y="24.1387">RecipeBook</text><line style="stroke: #A80036; stroke-width: 1.5;" x1="952" x2="1116" y1="31.9688" y2="31.9688"/><text fill="#000000" font-family="sans-serif" font-size="11" lengthAdjust="spacingAndGlyphs" textLength="154" x="957" y="46.1792">-recipes : UniqueRecipeList</text><line style="stroke: #A80036; stroke-width: 1.5;" x1="952" x2="1116" y1="52.7734" y2="52.7734"/><text fill="#000000" font-family="sans-serif" font-size="11" lengthAdjust="spacingAndGlyphs" textLength="75" x="957" y="66.9839">+addRecipe()</text><text fill="#000000" font-family="sans-serif" font-size="11" lengthAdjust="spacingAndGlyphs" textLength="89" x="957" y="79.7886">+deleteRecipe()</text><text fill="#000000" font-family="sans-serif" font-size="11" lengthAdjust="spacingAndGlyphs" textLength="34" x="957" y="92.5933">+list()</text><text fill="#000000" font-family="sans-serif" font-size="11" lengthAdjust="spacingAndGlyphs" textLength="68" x="957" y="105.3979">+duplicate()</text><!--MD5=[20418cb98520644da1e87dc0310aa74a]
class Recipe--><rect fill="#FEFECE" filter="url(#feqaspge8tket)" height="103.9922" id="Recipe" style="stroke: #A80036; stroke-width: 1.5;" width="175" x="946.5" y="189"/><text fill="#000000" font-family="sans-serif" font-size="12" lengthAdjust="spacingAndGlyphs" textLength="42" x="1013" y="205.1387">Recipe</text><line style="stroke: #A80036; stroke-width: 1.5;" x1="947.5" x2="1120.5" y1="212.9688" y2="212.9688"/><text fill="#000000" font-family="sans-serif" font-size="11" lengthAdjust="spacingAndGlyphs" textLength="82" x="952.5" y="227.1792">-name : String</text><text fill="#000000" font-family="sans-serif" font-size="11" lengthAdjust="spacingAndGlyphs" textLength="157" x="952.5" y="239.9839">-ingredients : IngredientList</text><text fill="#000000" font-family="sans-serif" font-size="11" lengthAdjust="spacingAndGlyphs" textLength="163" x="952.5" y="252.7886">-instructions : InstructionList</text><text fill="#000000" font-family="sans-serif" font-size="11" lengthAdjust="spacingAndGlyphs" textLength="82" x="952.5" y="265.5933">-tags : TagList</text><line style="stroke: #A80036; stroke-width: 1.5;" x1="947.5" x2="1120.5" y1="272.1875" y2="272.1875"/><text fill="#000000" font-family="sans-serif" font-size="11" lengthAdjust="spacingAndGlyphs" textLength="55" x="952.5" y="286.3979">+modify()</text><!--MD5=[3cdd5f167b4e8ffc8048a8d8c666fa85]
class IngredientList--><rect fill="#FEFECE" filter="url(#feqaspge8tket)" height="103.9922" id="IngredientList" style="stroke: #A80036; stroke-width: 1.5;" width="178" x="665" y="189"/><text fill="#000000" font-family="sans-serif" font-size="12" lengthAdjust="spacingAndGlyphs" textLength="85" x="711.5" y="205.1387">IngredientList</text><line style="stroke: #A80036; stroke-width: 1.5;" x1="666" x2="842" y1="212.9688" y2="212.9688"/><text fill="#000000" font-family="sans-serif" font-size="11" lengthAdjust="spacingAndGlyphs" textLength="166" x="671" y="227.1792">-data : ArrayList&lt;Ingredient&gt;</text><line style="stroke: #A80036; stroke-width: 1.5;" x1="666" x2="842" y1="233.7734" y2="233.7734"/><text fill="#000000" font-family="sans-serif" font-size="11" lengthAdjust="spacingAndGlyphs" textLength="38" x="671" y="247.9839">+add()</text><text fill="#000000" font-family="sans-serif" font-size="11" lengthAdjust="spacingAndGlyphs" textLength="35" x="671" y="260.7886">+set()</text><text fill="#000000" font-family="sans-serif" font-size="11" lengthAdjust="spacingAndGlyphs" textLength="60" x="671" y="273.5933">+remove()</text><text fill="#000000" font-family="sans-serif" font-size="11" lengthAdjust="spacingAndGlyphs" textLength="34" x="671" y="286.3979">+list()</text><!--MD5=[91ffdd76f1c8795364bfc7c752e5da6a]
class Ingredient--><rect fill="#FEFECE" filter="url(#feqaspge8tket)" height="65.5781" id="Ingredient" style="stroke: #A80036; stroke-width: 1.5;" width="120" x="441" y="208"/><text fill="#000000" font-family="sans-serif" font-size="12" lengthAdjust="spacingAndGlyphs" textLength="64" x="469" y="224.1387">Ingredient</text><line style="stroke: #A80036; stroke-width: 1.5;" x1="442" x2="560" y1="231.9688" y2="231.9688"/><text fill="#000000" font-family="sans-serif" font-size="11" lengthAdjust="spacingAndGlyphs" textLength="82" x="447" y="246.1792">-name : String</text><text fill="#000000" font-family="sans-serif" font-size="11" lengthAdjust="spacingAndGlyphs" textLength="108" x="447" y="258.9839">-quantity : Quantity</text><line style="stroke: #A80036; stroke-width: 1.5;" x1="442" x2="560" y1="265.5781" y2="265.5781"/><!--MD5=[58ba93d07bbd4b51a8cbfd0557c3be5f]
class IngredientStore--><rect fill="#FEFECE" filter="url(#feqaspge8tket)" height="78.3828" id="IngredientStore" style="stroke: #A80036; stroke-width: 1.5;" width="194" x="156" y="202"/><text fill="#000000" font-family="sans-serif" font-size="12" lengthAdjust="spacingAndGlyphs" textLength="98" x="204" y="218.1387">IngredientStore</text><line style="stroke: #A80036; stroke-width: 1.5;" x1="157" x2="349" y1="225.9688" y2="225.9688"/><text fill="#000000" font-family="sans-serif" font-size="11" lengthAdjust="spacingAndGlyphs" textLength="102" x="162" y="240.1792">-capacity : Integer</text><text fill="#000000" font-family="sans-serif" font-size="11" lengthAdjust="spacingAndGlyphs" textLength="182" x="162" y="252.9839">-store : IngredientAvailabilityList</text><line style="stroke: #A80036; stroke-width: 1.5;" x1="157" x2="349" y1="259.5781" y2="259.5781"/><text fill="#000000" font-family="sans-serif" font-size="11" lengthAdjust="spacingAndGlyphs" textLength="95" x="162" y="273.7886">+addIngredient()</text><!--MD5=[5018bda935d62c582aab214ef98d44df]
class Freezer--><rect fill="#FEFECE" filter="url(#feqaspge8tket)" height="52.7734" id="Freezer" style="stroke: #A80036; stroke-width: 1.5;" width="138" x="6" y="395.5"/><text fill="#000000" font-family="sans-serif" font-size="12" lengthAdjust="spacingAndGlyphs" textLength="46" x="52" y="411.6387">Freezer</text><line style="stroke: #A80036; stroke-width: 1.5;" x1="7" x2="143" y1="419.4688" y2="419.4688"/><text fill="#000000" font-family="sans-serif" font-size="11" lengthAdjust="spacingAndGlyphs" textLength="126" x="12" y="433.6792">-temperature : Double</text><line style="stroke: #A80036; stroke-width: 1.5;" x1="7" x2="143" y1="440.2734" y2="440.2734"/><!--MD5=[a79a02bdcf6d45ef3694b3351886ebd3]
class Refrigerator--><rect fill="#FEFECE" filter="url(#feqaspge8tket)" height="52.7734" id="Refrigerator" style="stroke: #A80036; stroke-width: 1.5;" width="138" x="183" y="395.5"/><text fill="#000000" font-family="sans-serif" font-size="12" lengthAdjust="spacingAndGlyphs" textLength="75" x="214.5" y="411.6387">Refrigerator</text><line style="stroke: #A80036; stroke-width: 1.5;" x1="184" x2="320" y1="419.4688" y2="419.4688"/><text fill="#000000" font-family="sans-serif" font-size="11" lengthAdjust="spacingAndGlyphs" textLength="126" x="189" y="433.6792">-temperature : Double</text><line style="stroke: #A80036; stroke-width: 1.5;" x1="184" x2="320" y1="440.2734" y2="440.2734"/><!--MD5=[23077190a2a103c0bb0cbac96c986f4a]
class Larder--><rect fill="#FEFECE" filter="url(#feqaspge8tket)" height="39.9688" id="Larder" style="stroke: #A80036; stroke-width: 1.5;" width="46" x="356" y="402"/><text fill="#000000" font-family="sans-serif" font-size="12" lengthAdjust="spacingAndGlyphs" textLength="40" x="359" y="418.1387">Larder</text><line style="stroke: #A80036; stroke-width: 1.5;" x1="357" x2="401" y1="425.9688" y2="425.9688"/><line style="stroke: #A80036; stroke-width: 1.5;" x1="357" x2="401" y1="433.9688" y2="433.9688"/><!--MD5=[0ff7f33fb4cfaccd6bcebc094e3b238f]
class InstructionList--><rect fill="#FEFECE" filter="url(#feqaspge8tket)" height="103.9922" id="InstructionList" style="stroke: #A80036; stroke-width: 1.5;" width="183" x="1097.5" y="370"/><text fill="#000000" font-family="sans-serif" font-size="12" lengthAdjust="spacingAndGlyphs" textLength="88" x="1145" y="386.1387">InstructionList</text><line style="stroke: #A80036; stroke-width: 1.5;" x1="1098.5" x2="1279.5" y1="393.9688" y2="393.9688"/><text fill="#000000" font-family="sans-serif" font-size="11" lengthAdjust="spacingAndGlyphs" textLength="171" x="1103.5" y="408.1792">-data : HashMap&lt;Instruction&gt;</text><line style="stroke: #A80036; stroke-width: 1.5;" x1="1098.5" x2="1279.5" y1="414.7734" y2="414.7734"/><text fill="#000000" font-family="sans-serif" font-size="11" lengthAdjust="spacingAndGlyphs" textLength="38" x="1103.5" y="428.9839">+add()</text><text fill="#000000" font-family="sans-serif" font-size="11" lengthAdjust="spacingAndGlyphs" textLength="38" x="1103.5" y="441.7886">+edit()</text><text fill="#000000" font-family="sans-serif" font-size="11" lengthAdjust="spacingAndGlyphs" textLength="34" x="1103.5" y="454.5933">+list()</text><text fill="#000000" font-family="sans-serif" font-size="11" lengthAdjust="spacingAndGlyphs" textLength="60" x="1103.5" y="467.3979">+remove()</text><!--MD5=[818ce9cd1eb68477d70117a0a20ac581]
class Instruction--><rect fill="#FEFECE" filter="url(#feqaspge8tket)" height="52.7734" id="Instruction" style="stroke: #A80036; stroke-width: 1.5;" width="93" x="1142.5" y="563.5"/><text fill="#000000" font-family="sans-serif" font-size="12" lengthAdjust="spacingAndGlyphs" textLength="67" x="1155.5" y="579.6387">Instruction</text><line style="stroke: #A80036; stroke-width: 1.5;" x1="1143.5" x2="1234.5" y1="587.4688" y2="587.4688"/><text fill="#000000" font-family="sans-serif" font-size="11" lengthAdjust="spacingAndGlyphs" textLength="81" x="1148.5" y="601.6792">-detail : String</text><line style="stroke: #A80036; stroke-width: 1.5;" x1="1143.5" x2="1234.5" y1="608.2734" y2="608.2734"/><!--MD5=[ab647bc68037a9d95d5009f84ecbb774]
class TagList--><rect fill="#FEFECE" filter="url(#feqaspge8tket)" height="78.3828" id="TagList" style="stroke: #A80036; stroke-width: 1.5;" width="142" x="920" y="383"/><text fill="#000000" font-family="sans-serif" font-size="12" lengthAdjust="spacingAndGlyphs" textLength="44" x="969" y="399.1387">TagList</text><line style="stroke: #A80036; stroke-width: 1.5;" x1="921" x2="1061" y1="406.9688" y2="406.9688"/><text fill="#000000" font-family="sans-serif" font-size="11" lengthAdjust="spacingAndGlyphs" textLength="130" x="926" y="421.1792">-data : ArrayList&lt;Tag&gt;</text><line style="stroke: #A80036; stroke-width: 1.5;" x1="921" x2="1061" y1="427.7734" y2="427.7734"/><text fill="#000000" font-family="sans-serif" font-size="11" lengthAdjust="spacingAndGlyphs" textLength="38" x="926" y="441.9839">+add()</text><text fill="#000000" font-family="sans-serif" font-size="11" lengthAdjust="spacingAndGlyphs" textLength="60" x="926" y="454.7886">+remove()</text><!--MD5=[39d6d2ea03de602dbf4d534e70c872a9]
class Tag--><rect fill="#FEFECE" filter="url(#feqaspge8tket)" height="52.7734" id="Tag" style="stroke: #A80036; stroke-width: 1.5;" width="94" x="944" y="563.5"/><text fill="#000000" font-family="sans-serif" font-size="12" lengthAdjust="spacingAndGlyphs" textLength="23" x="979.5" y="579.6387">Tag</text><line style="stroke: #A80036; stroke-width: 1.5;" x1="945" x2="1037" y1="587.4688" y2="587.4688"/><text fill="#000000" font-family="sans-serif" font-size="11" lengthAdjust="spacingAndGlyphs" textLength="82" x="950" y="601.6792">-name : String</text><line style="stroke: #A80036; stroke-width: 1.5;" x1="945" x2="1037" y1="608.2734" y2="608.2734"/><!--MD5=[c10c36ce2c02dedc3d02a76c5154070d]
class Quantity--><rect fill="#FEFECE" filter="url(#feqaspge8tket)" height="65.5781" id="Quantity" style="stroke: #A80036; stroke-width: 1.5;" width="98" x="502" y="389"/><text fill="#000000" font-family="sans-serif" font-size="12" lengthAdjust="spacingAndGlyphs" textLength="52" x="525" y="405.1387">Quantity</text><line style="stroke: #A80036; stroke-width: 1.5;" x1="503" x2="599" y1="412.9688" y2="412.9688"/><text fill="#000000" font-family="sans-serif" font-size="11" lengthAdjust="spacingAndGlyphs" textLength="86" x="508" y="427.1792">-amount : Float</text><text fill="#000000" font-family="sans-serif" font-size="11" lengthAdjust="spacingAndGlyphs" textLength="59" x="508" y="439.9839">-unit : Unit</text><line style="stroke: #A80036; stroke-width: 1.5;" x1="503" x2="599" y1="446.5781" y2="446.5781"/><!--MD5=[63a373d2559db13dd8cc7d36e037ebb1]
class Unit--><rect fill="#FEFECE" filter="url(#feqaspge8tket)" height="78.3828" id="Unit" style="stroke: #A80036; stroke-width: 1.5;" width="133" x="484.5" y="551"/><text fill="#000000" font-family="sans-serif" font-size="12" lengthAdjust="spacingAndGlyphs" textLength="25" x="538.5" y="567.1387">Unit</text><line style="stroke: #A80036; stroke-width: 1.5;" x1="485.5" x2="616.5" y1="574.9688" y2="574.9688"/><text fill="#000000" font-family="sans-serif" font-size="11" lengthAdjust="spacingAndGlyphs" textLength="82" x="490.5" y="589.1792">-name : String</text><text fill="#000000" font-family="sans-serif" font-size="11" lengthAdjust="spacingAndGlyphs" textLength="121" x="490.5" y="601.9839">-symbol : UnitSymbol</text><line style="stroke: #A80036; stroke-width: 1.5;" x1="485.5" x2="616.5" y1="608.5781" y2="608.5781"/><text fill="#000000" font-family="sans-serif" font-size="11" lengthAdjust="spacingAndGlyphs" text-decoration="underline" textLength="73" x="490.5" y="622.7886">+convertTo()</text><!--MD5=[c098fe4c59786beffd6930dc5c6e26a3]
class UnitSymbol--><rect fill="#FEFECE" filter="url(#feqaspge8tket)" height="156.375" id="UnitSymbol" style="stroke: #A80036; stroke-width: 1.5;" width="96" x="503" y="706"/><text fill="#000000" font-family="sans-serif" font-size="12" font-style="italic" lengthAdjust="spacingAndGlyphs" textLength="94" x="504" y="722.1387">«enumeration»</text><text fill="#000000" font-family="sans-serif" font-size="12" lengthAdjust="spacingAndGlyphs" textLength="69" x="516.5" y="736.1074">UnitSymbol</text><line style="stroke: #A80036; stroke-width: 1.5;" x1="504" x2="598" y1="743.9375" y2="743.9375"/><text fill="#000000" font-family="sans-serif" font-size="11" lengthAdjust="spacingAndGlyphs" textLength="18" x="509" y="758.1479">tsp</text><text fill="#000000" font-family="sans-serif" font-size="11" lengthAdjust="spacingAndGlyphs" textLength="18" x="509" y="770.9526">tbp</text><text fill="#000000" font-family="sans-serif" font-size="11" lengthAdjust="spacingAndGlyphs" textLength="20" x="509" y="783.7573">cup</text><text fill="#000000" font-family="sans-serif" font-size="11" lengthAdjust="spacingAndGlyphs" textLength="14" x="509" y="796.562">ml</text><text fill="#000000" font-family="sans-serif" font-size="11" lengthAdjust="spacingAndGlyphs" textLength="7" x="509" y="809.3667">g</text><text fill="#000000" font-family="sans-serif" font-size="11" lengthAdjust="spacingAndGlyphs" textLength="13" x="509" y="822.1714">kg</text><text fill="#000000" font-family="sans-serif" font-size="11" lengthAdjust="spacingAndGlyphs" textLength="10" x="509" y="834.9761">lb</text><text fill="#000000" font-family="sans-serif" font-size="11" lengthAdjust="spacingAndGlyphs" textLength="23" x="509" y="847.7808">fl oz</text><line style="stroke: #A80036; stroke-width: 1.5;" x1="504" x2="598" y1="854.375" y2="854.375"/><!--MD5=[a8c6ae25aec32aedf27e3b387b015c98]
class IngredientAvailabilityList--><rect fill="#FEFECE" filter="url(#feqaspge8tket)" height="65.5781" id="IngredientAvailabilityList" style="stroke: #A80036; stroke-width: 1.5;" width="219" x="644.5" y="389"/><text fill="#000000" font-family="sans-serif" font-size="12" lengthAdjust="spacingAndGlyphs" textLength="149" x="679.5" y="405.1387">IngredientAvailabilityList</text><line style="stroke: #A80036; stroke-width: 1.5;" x1="645.5" x2="862.5" y1="412.9688" y2="412.9688"/><text fill="#000000" font-family="sans-serif" font-size="11" lengthAdjust="spacingAndGlyphs" textLength="207" x="650.5" y="427.1792">-availableIngredients : IngredientList</text><line style="stroke: #A80036; stroke-width: 1.5;" x1="645.5" x2="862.5" y1="433.7734" y2="433.7734"/><text fill="#000000" font-family="sans-serif" font-size="11" lengthAdjust="spacingAndGlyphs" textLength="125" x="650.5" y="447.9839">boolean : isAvailable()</text><!--MD5=[7653121b11000e65685f6b3c7a53aaf5]
link RecipeBook to Recipe--><path d="M1034,124.294 C1034,124.294 1034,159.058 1034,175.348 " fill="none" id="RecipeBook-Recipe" style="stroke: #A80036; stroke-width: 1.0;"/><polygon fill="#A80036" points="1034,188.698,1038,179.698,1034,183.698,1030,179.698,1034,188.698" style="stroke: #A80036; stroke-width: 1.0;"/><line style="stroke: #A80036; stroke-width: 1.0;" x1="1034" x2="1034" y1="183.698" y2="175.698"/><polygon fill="#A80036" points="1034,112.294,1030,118.294,1034,124.294,1038,118.294,1034,112.294" style="stroke: #A80036; stroke-width: 1.0;"/><text fill="#000000" font-family="sans-serif" font-size="13" lengthAdjust="spacingAndGlyphs" textLength="54" x="1035" y="155.0669">contains</text><polygon fill="#000000" points="1057.5,164.1328,1060.5,170.1328,1063.5,164.1328,1057.5,164.1328" style="stroke: #000000; stroke-width: 1.0;"/><text fill="#000000" font-family="sans-serif" font-size="13" lengthAdjust="spacingAndGlyphs" textLength="23" x="1009.5266" y="132.031">1..*</text><text fill="#000000" font-family="sans-serif" font-size="13" lengthAdjust="spacingAndGlyphs" textLength="36" x="995.6938" y="178.1118">many</text><!--MD5=[86a5548426bf192aa191a04ea2124fca]
link IngredientStore to Freezer--><path d="M143.573,291.084 C130.374,300.301 118.039,310.912 108,323 C95.6338,337.89 87.8305,357.619 82.9402,375.471 " fill="none" id="IngredientStore-Freezer" style="stroke: #A80036; stroke-width: 1.0;"/><polygon fill="#A80036" points="78.4386,395.163,84.3437,387.2808,79.5529,390.2887,76.5449,385.4979,78.4386,395.163" style="stroke: #A80036; stroke-width: 1.0;"/><line style="stroke: #A80036; stroke-width: 1.0;" x1="79.5529" x2="82.8957" y1="390.2887" y2="375.666"/><polygon fill="none" points="140.028,285.042,160.646,280.15,147.579,296.831,140.028,285.042" style="stroke: #A80036; stroke-width: 1.0;"/><polygon fill="#000000" points="165.5,334,168.5,328,171.5,334,165.5,334" style="stroke: #000000; stroke-width: 1.0;"/><text fill="#000000" font-family="sans-serif" font-size="13" lengthAdjust="spacingAndGlyphs" textLength="122" x="109" y="349.0669">is a very cold &amp; dry</text><!--MD5=[f944fdf81f55c698351a0f15f215f170]
link IngredientStore to Refrigerator--><path d="M252.674,300.406 C252.538,324.725 252.382,352.542 252.255,375.327 " fill="none" id="IngredientStore-Refrigerator" style="stroke: #A80036; stroke-width: 1.0;"/><polygon fill="#A80036" points="252.143,395.352,256.1937,386.3747,252.1712,390.3521,248.1938,386.3296,252.143,395.352" style="stroke: #A80036; stroke-width: 1.0;"/><line style="stroke: #A80036; stroke-width: 1.0;" x1="252.1712" x2="252.255" y1="390.3521" y2="375.3525"/><polygon fill="none" points="245.674,300.361,252.785,280.4,259.674,300.439,245.674,300.361" style="stroke: #A80036; stroke-width: 1.0;"/><polygon fill="#000000" points="275.5,334,278.5,328,281.5,334,275.5,334" style="stroke: #000000; stroke-width: 1.0;"/><text fill="#000000" font-family="sans-serif" font-size="13" lengthAdjust="spacingAndGlyphs" textLength="52" x="254" y="349.0669">is a cold</text><!--MD5=[d0aaf2f1f6ef4205a77a83ab955dd8d9]
link IngredientStore to Larder--><path d="M305.885,295.15 C313.714,304.116 321.368,313.579 328,323 C341.287,341.873 353.351,364.658 362.407,383.507 " fill="none" id="IngredientStore-Larder" style="stroke: #A80036; stroke-width: 1.0;"/><polygon fill="#A80036" points="370.824,401.718,370.6787,391.8702,368.7261,397.1794,363.4169,395.2268,370.824,401.718" style="stroke: #A80036; stroke-width: 1.0;"/><line style="stroke: #A80036; stroke-width: 1.0;" x1="368.7261" x2="362.433" y1="397.1794" y2="383.563"/><polygon fill="none" points="300.522,299.656,292.245,280.15,310.879,290.237,300.522,299.656" style="stroke: #A80036; stroke-width: 1.0;"/><polygon fill="#000000" points="398,334,401,328,404,334,398,334" style="stroke: #000000; stroke-width: 1.0;"/><text fill="#000000" font-family="sans-serif" font-size="13" lengthAdjust="spacingAndGlyphs" textLength="127" x="339" y="349.0669">is a cool, dark &amp; dry</text><!--MD5=[e8df0f837c6516c3a02d1d26208ea973]
link IngredientStore to Ingredient--><path d="M362.304,241 C362.304,241 407.545,241 427.623,241 " fill="none" id="IngredientStore-Ingredient" style="stroke: #A80036; stroke-width: 1.0;"/><polygon fill="#A80036" points="440.814,241,431.814,237,435.814,241,431.814,245,440.814,241" style="stroke: #A80036; stroke-width: 1.0;"/><line style="stroke: #A80036; stroke-width: 1.0;" x1="435.814" x2="427.814" y1="241" y2="241"/><polygon fill="#FFFFFF" points="350.304,241,356.304,245,362.304,241,356.304,237,350.304,241" style="stroke: #A80036; stroke-width: 1.0;"/><polygon fill="#000000" points="376,228.0664,370,231.0664,376,234.0664,376,228.0664" style="stroke: #000000; stroke-width: 1.0;"/><text fill="#000000" font-family="sans-serif" font-size="13" lengthAdjust="spacingAndGlyphs" textLength="40" x="382" y="234.0669">stores</text><text fill="#000000" font-family="sans-serif" font-size="13" lengthAdjust="spacingAndGlyphs" textLength="23" x="357.9543" y="253.5854">0..*</text><text fill="#000000" font-family="sans-serif" font-size="13" lengthAdjust="spacingAndGlyphs" textLength="36" x="397.1176" y="253.8325">many</text><!--MD5=[b1bc1de1bea0424224ff98a677d5e975]
link TagList to Tag--><path d="M991,473.084 C991,473.084 991,527.595 991,550.263 " fill="none" id="TagList-Tag" style="stroke: #A80036; stroke-width: 1.0;"/><polygon fill="#A80036" points="991,563.477,995,554.477,991,558.477,987,554.477,991,563.477" style="stroke: #A80036; stroke-width: 1.0;"/><line style="stroke: #A80036; stroke-width: 1.0;" x1="991" x2="991" y1="558.477" y2="550.477"/><polygon fill="#FFFFFF" points="991,461.084,987,467.084,991,473.084,995,467.084,991,461.084" style="stroke: #A80036; stroke-width: 1.0;"/><text fill="#000000" font-family="sans-serif" font-size="13" lengthAdjust="spacingAndGlyphs" textLength="54" x="992" y="517.0669">contains</text><polygon fill="#000000" points="1014.5,526.1328,1017.5,532.1328,1020.5,526.1328,1014.5,526.1328" style="stroke: #000000; stroke-width: 1.0;"/><text fill="#000000" font-family="sans-serif" font-size="13" lengthAdjust="spacingAndGlyphs" textLength="23" x="965.9516" y="481.4264">0..*</text><text fill="#000000" font-family="sans-serif" font-size="13" lengthAdjust="spacingAndGlyphs" textLength="36" x="950.6125" y="552.2946">many</text><!--MD5=[2648f4cc287baaabb238ad4dbbbc4389]
link IngredientList to Recipe--><path d="M856.708,241 C881.675,241 934.441,241 934.441,241 " fill="none" id="IngredientList-Recipe" style="stroke: #A80036; stroke-width: 1.0;"/><polygon fill="#A80036" points="946.441,241,940.441,237,934.441,241,940.441,245,946.441,241" style="stroke: #A80036; stroke-width: 1.0;"/><polygon fill="#A80036" points="843.364,241,852.364,245,848.364,241,852.364,237,843.364,241" style="stroke: #A80036; stroke-width: 1.0;"/><line style="stroke: #A80036; stroke-width: 1.0;" x1="848.364" x2="856.364" y1="241" y2="241"/><polygon fill="#000000" points="868.25,228.0664,862.25,231.0664,868.25,234.0664,868.25,228.0664" style="stroke: #000000; stroke-width: 1.0;"/><text fill="#000000" font-family="sans-serif" font-size="13" lengthAdjust="spacingAndGlyphs" textLength="54" x="874.25" y="234.0669">contains</text><text fill="#000000" font-family="sans-serif" font-size="13" lengthAdjust="spacingAndGlyphs" textLength="8" x="930.5726" y="237.4284">1</text><!--MD5=[17d950f7a9a09a742b3342499805a664]
link Recipe to InstructionList--><path d="M1086.2749,302.366 C1086.2749,302.366 1120.2,341.552 1135.98,359.776 " fill="none" id="Recipe-InstructionList" style="stroke: #A80036; stroke-width: 1.0;"/><polygon fill="#A80036" points="1144.58,369.698,1141.7128,360.2757,1141.3071,365.918,1135.6648,365.5123,1144.58,369.698" style="stroke: #A80036; stroke-width: 1.0;"/><line style="stroke: #A80036; stroke-width: 1.0;" x1="1141.3071" x2="1136.07" y1="365.918" y2="359.8705"/><polygon fill="#A80036" points="1078.42,293.294,1079.3235,300.4483,1086.2749,302.366,1085.3714,295.2117,1078.42,293.294" style="stroke: #A80036; stroke-width: 1.0;"/><text fill="#000000" font-family="sans-serif" font-size="13" lengthAdjust="spacingAndGlyphs" textLength="54" x="1117" y="336.0669">contains</text><polygon fill="#000000" points="1139.5,345.1328,1142.5,351.1328,1145.5,345.1328,1139.5,345.1328" style="stroke: #000000; stroke-width: 1.0;"/><text fill="#000000" font-family="sans-serif" font-size="13" lengthAdjust="spacingAndGlyphs" textLength="8" x="1075.5988" y="313.031">1</text><!--MD5=[cce22c3cf21f7e4e95b3db2d6536b84d]
link Recipe to TagList--><path d="M1018.8783,304.9623 C1018.8783,304.9623 1008.05,350.007 1003.275,369.9 " fill="none" id="Recipe-TagList" style="stroke: #A80036; stroke-width: 1.0;"/><polygon fill="#A80036" points="1000.179,382.789,1006.1701,374.972,1001.3466,377.9272,998.3913,373.1037,1000.179,382.789" style="stroke: #A80036; stroke-width: 1.0;"/><line style="stroke: #A80036; stroke-width: 1.0;" x1="1001.3466" x2="1003.216" y1="377.9272" y2="370.1485"/><polygon fill="#A80036" points="1021.68,293.294,1016.3897,298.1943,1018.8783,304.9623,1024.1686,300.0621,1021.68,293.294" style="stroke: #A80036; stroke-width: 1.0;"/><text fill="#000000" font-family="sans-serif" font-size="13" lengthAdjust="spacingAndGlyphs" textLength="54" x="1014" y="336.0669">contains</text><polygon fill="#000000" points="1036.5,345.1328,1039.5,351.1328,1042.5,345.1328,1036.5,345.1328" style="stroke: #000000; stroke-width: 1.0;"/><text fill="#000000" font-family="sans-serif" font-size="13" lengthAdjust="spacingAndGlyphs" textLength="8" x="1011.589" y="313.031">1</text><!--MD5=[12af75c600ac33727c982bff2934f5a0]
link Ingredient to IngredientList--><path d="M574.372,241 C598.588,241 652.955,241 652.955,241 " fill="none" id="Ingredient-IngredientList" style="stroke: #A80036; stroke-width: 1.0;"/><polygon fill="#FFFFFF" points="664.955,241,658.955,237,652.955,241,658.955,245,664.955,241" style="stroke: #A80036; stroke-width: 1.0;"/><polygon fill="#A80036" points="561.278,241,570.278,245,566.278,241,570.278,237,561.278,241" style="stroke: #A80036; stroke-width: 1.0;"/><line style="stroke: #A80036; stroke-width: 1.0;" x1="566.278" x2="574.278" y1="241" y2="241"/><polygon fill="#000000" points="586.5,228.0664,580.5,231.0664,586.5,234.0664,586.5,228.0664" style="stroke: #000000; stroke-width: 1.0;"/><text fill="#000000" font-family="sans-serif" font-size="13" lengthAdjust="spacingAndGlyphs" textLength="54" x="592.5" y="234.0669">contains</text><text fill="#000000" font-family="sans-serif" font-size="13" lengthAdjust="spacingAndGlyphs" textLength="36" x="568.9835" y="253.8325">many</text><text fill="#000000" font-family="sans-serif" font-size="13" lengthAdjust="spacingAndGlyphs" textLength="23" x="633.9428" y="253.6702">1..*</text><!--MD5=[e00d98c2eb25bb350222e629e9ede289]
link InstructionList to Instruction--><path d="M1189,486.16 C1189,486.16 1189,531.467 1189,550.18 " fill="none" id="InstructionList-Instruction" style="stroke: #A80036; stroke-width: 1.0;"/><polygon fill="#A80036" points="1189,563.269,1193,554.269,1189,558.269,1185,554.269,1189,563.269" style="stroke: #A80036; stroke-width: 1.0;"/><line style="stroke: #A80036; stroke-width: 1.0;" x1="1189" x2="1189" y1="558.269" y2="550.269"/><polygon fill="#FFFFFF" points="1189,474.16,1185,480.16,1189,486.16,1193,480.16,1189,474.16" style="stroke: #A80036; stroke-width: 1.0;"/><text fill="#000000" font-family="sans-serif" font-size="13" lengthAdjust="spacingAndGlyphs" textLength="54" x="1190" y="517.0669">contains</text><polygon fill="#000000" points="1212.5,526.1328,1215.5,532.1328,1218.5,526.1328,1212.5,526.1328" style="stroke: #000000; stroke-width: 1.0;"/><text fill="#000000" font-family="sans-serif" font-size="13" lengthAdjust="spacingAndGlyphs" textLength="23" x="1164.5266" y="493.8798">1..*</text><text fill="#000000" font-family="sans-serif" font-size="13" lengthAdjust="spacingAndGlyphs" textLength="36" x="1148.8375" y="552.4615">many</text><!--MD5=[40a6973de6f035b5f4831446e3478edb]
link Ingredient to Quantity--><path d="M513.167,285.5597 C513.167,285.5597 530.882,348.978 538.5,376.251 " fill="none" id="Ingredient-Quantity" style="stroke: #A80036; stroke-width: 1.0;"/><polygon fill="#A80036" points="542.054,388.974,543.4843,379.2295,540.7084,384.1585,535.7794,381.3826,542.054,388.974" style="stroke: #A80036; stroke-width: 1.0;"/><line style="stroke: #A80036; stroke-width: 1.0;" x1="540.7084" x2="538.557" y1="384.1585" y2="376.4535"/><polygon fill="#A80036" points="509.939,274.002,507.7004,280.8568,513.167,285.5597,515.4056,278.7049,509.939,274.002" style="stroke: #A80036; stroke-width: 1.0;"/><text fill="#000000" font-family="sans-serif" font-size="13" lengthAdjust="spacingAndGlyphs" textLength="77" x="529" y="336.0669">has amount</text><polygon fill="#000000" points="563,345.1328,566,351.1328,569,345.1328,563,345.1328" style="stroke: #000000; stroke-width: 1.0;"/><!--MD5=[2a4f3e9cb01a84c61c643b80819f7fde]
link Quantity to Unit--><path d="M551,455.006 C551,480.816 551,517.367 551,545.776 " fill="none" id="Quantity-&gt;Unit" style="stroke: #A80036; stroke-width: 1.0;"/><polygon fill="#A80036" points="551,550.981,555,541.981,551,545.981,547,541.981,551,550.981" style="stroke: #A80036; stroke-width: 1.0;"/><text fill="#000000" font-family="sans-serif" font-size="13" lengthAdjust="spacingAndGlyphs" textLength="94" x="552" y="517.0669">is measured in</text><polygon fill="#000000" points="594.5,526.1328,597.5,532.1328,600.5,526.1328,594.5,526.1328" style="stroke: #000000; stroke-width: 1.0;"/><!--MD5=[23eb9d524c8c83028b9bc299a212fdad]
link Unit to UnitSymbol--><path d="M551,629.393 C551,651.28 551,679.506 551,705.779 " fill="none" id="Unit-UnitSymbol" style="stroke: #A80036; stroke-width: 1.0;"/><text fill="#000000" font-family="sans-serif" font-size="13" lengthAdjust="spacingAndGlyphs" textLength="73" x="552" y="672.0669">has symbol</text><polygon fill="#000000" points="584,681.1328,587,687.1328,590,681.1328,584,681.1328" style="stroke: #000000; stroke-width: 1.0;"/><text fill="#000000" font-family="sans-serif" font-size="13" lengthAdjust="spacingAndGlyphs" textLength="7" x="543.3984" y="649.4981">*</text><text fill="#000000" font-family="sans-serif" font-size="13" lengthAdjust="spacingAndGlyphs" textLength="8" x="542.6313" y="694.9323">1</text><!--MD5=[189418c80a7414c12f75f748b30c300b]
reverse link IngredientList to IngredientAvailabilityList--><path d="M754,313.588 C754,339.682 754,367.894 754,388.855 " fill="none" id="IngredientList&lt;-IngredientAvailabilityList" style="stroke: #A80036; stroke-width: 1.0;"/><polygon fill="none" points="747,313.294,754,293.294,761,313.294,747,313.294" style="stroke: #A80036; stroke-width: 1.0;"/><!--MD5=[fbae6717b410378b8937f16984a72c36]
@startuml
show members

hide circle
skinparam classAttributeIconSize 0

class RecipeBook {
    -recipes : UniqueRecipeList
    +addRecipe()
    +deleteRecipe()
    +list()
    +duplicate()
}

RecipeBook "1..*" *- -> "many" Recipe : contains >

class Recipe {
    -name : String
    -ingredients : IngredientList
    -instructions : InstructionList
    -tags : TagList
    +modify()
}

class IngredientList {
    -data : ArrayList<Ingredient>
    +add()
    +set()
    +remove()
    +list()
}

class Ingredient {
    -name : String
    -quantity : Quantity
}

IngredientStore <|- -> Freezer : is a very cold & dry <
IngredientStore <|- -> Refrigerator : is a cold <
IngredientStore <|- -> Larder : is a cool, dark & dry <
IngredientStore "0..*" o-r-> "many" Ingredient : stores <

class InstructionList {
    -data : HashMap<Instruction>
    +add()
    +edit()
    +list()
    +remove()
}

class Instruction {
    -detail : String
}

class TagList {
    -data : ArrayList<Tag>
    +add()
    +remove()
}

class Tag {
    -name : String
}

TagList "0..*" o- -> "many" Tag : contains >


class Quantity {
    -amount : Float
    -unit : Unit
}

class Unit {
    -name : String
    -symbol : UnitSymbol
    {static} +convertTo()
}

enum UnitSymbol <<enumeration>> {
    tsp
    tbp
    cup
    ml
    g
    kg
    lb
    fl oz
}

Recipe "1" *-l-> IngredientList : contains >
Recipe "1" *- -> InstructionList : contains >
Recipe "1" *- -> TagList : contains >


IngredientList "1..*" o-l-> "many" Ingredient : contains >
InstructionList "1..*" o- -> "many" Instruction : contains >

Ingredient  *- -> Quantity : has amount >
Quantity - -> Unit : is measured in >
Unit "*" - - "1" UnitSymbol : has symbol >

class Larder {

}

class Refrigerator {
    -temperature : Double
}

class Freezer {
    -temperature : Double
}

class IngredientStore {
    -capacity : Integer
    -store : IngredientAvailabilityList
    +addIngredient()
}

class IngredientAvailabilityList {
    -availableIngredients : IngredientList
    boolean : isAvailable()
}

IngredientList <|- - IngredientAvailabilityList
@enduml

PlantUML version 1.2020.03beta11(Unknown compile time)
(GPL source distribution)
Java Runtime: Java(TM) SE Runtime Environment
JVM: Java HotSpot(TM) 64-Bit Server VM
Java Version: 1.7.0_25-b15
Operating System: Linux
Default Encoding: UTF-8
Language: en
Country: US
--></g></svg>
