<?xml version="1.0" encoding="UTF-8" standalone="no"?><svg xmlns="http://www.w3.org/2000/svg" xmlns:xlink="http://www.w3.org/1999/xlink" contentScriptType="application/ecmascript" contentStyleType="text/css" height="214px" preserveAspectRatio="none" style="width:557px;height:214px;" version="1.1" viewBox="0 0 557 214" width="557px" zoomAndPan="magnify"><defs/><g><!--MD5=[05f5fba1ff83d42873626e04b4b84faa]
class RecipeBook--><rect fill="#9D0012" height="23.7988" id="RecipeBook" style="stroke: #FFFFFF; stroke-width: 1.0;" width="73" x="38.5" y="12"/><text fill="#FFFFFF" font-family="Arial" font-size="12" lengthAdjust="spacingAndGlyphs" textLength="67" x="41.5" y="28.2559">RecipeBook</text><!--MD5=[0db0c73c8eed4bdf2e92c941cd0ea335]
class UniqueRecipeList--><rect fill="#9D0012" height="23.7988" id="UniqueRecipeList" style="stroke: #FFFFFF; stroke-width: 1.0;" width="105" x="134.5" y="96"/><text fill="#FFFFFF" font-family="Arial" font-size="12" lengthAdjust="spacingAndGlyphs" textLength="99" x="137.5" y="112.2559">UniqueRecipeList</text><!--MD5=[a97be948b589b73a8e5432e9944b103b]
class UniqueTagList--><rect fill="#9D0012" height="23.7988" id="UniqueTagList" style="stroke: #FFFFFF; stroke-width: 1.0;" width="87" x="146.5" y="12"/><text fill="#FFFFFF" font-family="Arial" font-size="12" lengthAdjust="spacingAndGlyphs" textLength="81" x="149.5" y="28.2559">UniqueTagList</text><!--MD5=[39d6d2ea03de602dbf4d534e70c872a9]
class Tag--><rect fill="#9D0012" height="23.7988" id="Tag" style="stroke: #FFFFFF; stroke-width: 1.0;" width="50" x="271" y="12"/><text fill="#FFFFFF" font-family="Arial" font-size="12" lengthAdjust="spacingAndGlyphs" textLength="21" x="285.5" y="28.2559">Tag</text><!--MD5=[20418cb98520644da1e87dc0310aa74a]
class Recipe--><rect fill="#9D0012" height="23.7988" id="Recipe" style="stroke: #FFFFFF; stroke-width: 1.0;" width="50" x="275" y="96"/><text fill="#FFFFFF" font-family="Arial" font-size="12" lengthAdjust="spacingAndGlyphs" textLength="39" x="280.5" y="112.2559">Recipe</text><!--MD5=[53f6a92bd21ca2f2960392a061f3a1c6]
class Name--><rect fill="#9D0012" height="23.7988" id="Name" style="stroke: #FFFFFF; stroke-width: 1.0;" width="50" x="6" y="180"/><text fill="#FFFFFF" font-family="Arial" font-size="12" lengthAdjust="spacingAndGlyphs" textLength="34" x="14" y="196.2559">Name</text><!--MD5=[3cdd5f167b4e8ffc8048a8d8c666fa85]
class IngredientList--><rect fill="#9D0012" height="23.7988" id="IngredientList" style="stroke: #FFFFFF; stroke-width: 1.0;" width="81" x="91.5" y="180"/><text fill="#FFFFFF" font-family="Arial" font-size="12" lengthAdjust="spacingAndGlyphs" textLength="75" x="94.5" y="196.2559">IngredientList</text><!--MD5=[0ff7f33fb4cfaccd6bcebc094e3b238f]
class InstructionList--><rect fill="#9D0012" height="23.7988" id="InstructionList" style="stroke: #FFFFFF; stroke-width: 1.0;" width="83" x="207.5" y="180"/><text fill="#FFFFFF" font-family="Arial" font-size="12" lengthAdjust="spacingAndGlyphs" textLength="77" x="210.5" y="196.2559">InstructionList</text><!--MD5=[37b1713fbddd25bf4cca619143e755c7]
class Calorie--><rect fill="#9D0012" height="23.7988" id="Calorie" style="stroke: #FFFFFF; stroke-width: 1.0;" width="50" x="326" y="180"/><text fill="#FFFFFF" font-family="Arial" font-size="12" lengthAdjust="spacingAndGlyphs" textLength="40" x="331" y="196.2559">Calorie</text><!--MD5=[d7a175801c7751fb719f2545215a2693]
class Serving--><rect fill="#9D0012" height="23.7988" id="Serving" style="stroke: #FFFFFF; stroke-width: 1.0;" width="50" x="411" y="180"/><text fill="#FFFFFF" font-family="Arial" font-size="12" lengthAdjust="spacingAndGlyphs" textLength="41" x="415.5" y="196.2559">Serving</text><!--MD5=[0a8a9a553ad28d76d3a1fd3918a25a86]
class Rating--><rect fill="#9D0012" height="23.7988" id="Rating" style="stroke: #FFFFFF; stroke-width: 1.0;" width="50" x="496" y="180"/><text fill="#FFFFFF" font-family="Arial" font-size="12" lengthAdjust="spacingAndGlyphs" textLength="36" x="503" y="196.2559">Rating</text><!--MD5=[399a5d3003824dd2aaed60fba5076426]
link RecipeBook to UniqueRecipeList--><path d="M99.7874,43.1475 C99.7874,43.1475 142.936,74.739 161.095,88.034 " fill="none" id="RecipeBook-UniqueRecipeList" style="stroke: #9D0012; stroke-width: 1.1;"/><polygon fill="#9D0012" points="171.777,95.854,166.8779,87.3101,167.7426,92.9004,162.1522,93.7651,171.777,95.854" style="stroke: #9D0012; stroke-width: 1.1;"/><line style="stroke: #9D0012; stroke-width: 1.1;" x1="167.7426" x2="161.2875" y1="92.9004" y2="88.175"/><polygon fill="#9D0012" points="90.1048,36.059,92.5833,42.8308,99.7874,43.1475,97.3089,36.3757,90.1048,36.059" style="stroke: #9D0012; stroke-width: 1.1;"/><text fill="#000000" font-family="sans-serif" font-size="13" lengthAdjust="spacingAndGlyphs" textLength="7" x="157.0538" y="85.1529">1</text><!--MD5=[1d910bc4ee68a759dd4aa6fdef400a03]
link RecipeBook to UniqueTagList--><path d="M123.836,24 C123.836,24 130.367,24 133.029,24 " fill="none" id="RecipeBook-UniqueTagList" style="stroke: #9D0012; stroke-width: 1.1;"/><polygon fill="#9D0012" points="146.338,24,137.338,20,141.338,24,137.338,28,146.338,24" style="stroke: #9D0012; stroke-width: 1.1;"/><line style="stroke: #9D0012; stroke-width: 1.1;" x1="141.338" x2="133.338" y1="24" y2="24"/><polygon fill="#9D0012" points="111.836,24,117.836,28,123.836,24,117.836,20,111.836,24" style="stroke: #9D0012; stroke-width: 1.1;"/><text fill="#000000" font-family="sans-serif" font-size="13" lengthAdjust="spacingAndGlyphs" textLength="7" x="131.5268" y="20.2159">1</text><!--MD5=[f37b41ed81729fedb54e85371a5e6072]
link UniqueTagList to UniqueRecipeList--><!--MD5=[f37b41ed81729fedb54e85371a5e6072]
link UniqueTagList to UniqueRecipeList--><!--MD5=[3e504b887fd68e861d06f5e9394b74ec]
link UniqueTagList to Tag--><path d="M245.891,24 C245.891,24 254.034,24 257.479,24 " fill="none" id="UniqueTagList-Tag" style="stroke: #9D0012; stroke-width: 1.1;"/><polygon fill="#9D0012" points="270.768,24,261.768,20,265.768,24,261.768,28,270.768,24" style="stroke: #9D0012; stroke-width: 1.1;"/><line style="stroke: #9D0012; stroke-width: 1.1;" x1="265.768" x2="257.768" y1="24" y2="24"/><polygon fill="#9D0012" points="233.891,24,239.891,28,245.891,24,239.891,20,233.891,24" style="stroke: #9D0012; stroke-width: 1.1;"/><text fill="#000000" font-family="sans-serif" font-size="13" lengthAdjust="spacingAndGlyphs" textLength="5" x="257.9684" y="19.3228">*</text><!--MD5=[016354eeaf1f2cf03d6b4aa43f02fce5]
link UniqueRecipeList to Recipe--><path d="M251.527,108 C251.527,108 258.611,108 261.647,108 " fill="none" id="UniqueRecipeList-Recipe" style="stroke: #9D0012; stroke-width: 1.1;"/><polygon fill="#9D0012" points="274.961,108,265.961,104,269.961,108,265.961,112,274.961,108" style="stroke: #9D0012; stroke-width: 1.1;"/><line style="stroke: #9D0012; stroke-width: 1.1;" x1="269.961" x2="261.961" y1="108" y2="108"/><polygon fill="#FFFFFF" points="239.527,108,245.527,112,251.527,108,245.527,104,239.527,108" style="stroke: #9D0012; stroke-width: 1.1;"/><!--MD5=[39f223dd3abfa2c65be060da92e0d928]
link Tag to Recipe--><path d="M297.186,49.319 C297.698,59.801 298.8705,83.8683 298.8705,83.8683 " fill="none" id="Tag-Recipe" style="stroke: #9D0012; stroke-width: 1.1;"/><polygon fill="#FFFFFF" points="299.456,95.854,303.1585,89.666,298.8705,83.8683,295.168,90.0563,299.456,95.854" style="stroke: #9D0012; stroke-width: 1.1;"/><polygon fill="#9D0012" points="296.539,36.059,292.9818,45.243,296.7824,41.0531,300.9724,44.8536,296.539,36.059" style="stroke: #9D0012; stroke-width: 1.1;"/><line style="stroke: #9D0012; stroke-width: 1.1;" x1="296.7824" x2="297.173" y1="41.0531" y2="49.0435"/><text fill="#000000" font-family="sans-serif" font-size="13" lengthAdjust="spacingAndGlyphs" textLength="5" x="290.7914" y="57.307">*</text><!--MD5=[b238b3902e04b6fb0dff70774213bdd8]
link Recipe to Name--><path d="M263.2147,120.2141 C263.2147,120.2141 120.004,163.8686 68.7696,179.4866 " fill="none" id="Recipe-Name" style="stroke: #9D0012; stroke-width: 1.1;"/><polygon fill="#9D0012" points="56.0437,183.3659,65.819,184.5677,60.8264,181.9079,63.4862,176.9154,56.0437,183.3659" style="stroke: #9D0012; stroke-width: 1.1;"/><line style="stroke: #9D0012; stroke-width: 1.1;" x1="60.8264" x2="68.4788" y1="181.9079" y2="179.5752"/><polygon fill="#9D0012" points="274.693,116.7144,267.7873,114.6382,263.2147,120.2141,270.1204,122.2904,274.693,116.7144" style="stroke: #9D0012; stroke-width: 1.1;"/><!--MD5=[1ffc9816fa0c2433efc0ee7e42589584]
link Recipe to IngredientList--><path d="M266.5592,125.323 C266.5592,125.323 195.46,160.0253 166.531,174.1455 " fill="none" id="Recipe-IngredientList" style="stroke: #9D0012; stroke-width: 1.1;"/><polygon fill="#9D0012" points="154.566,179.9857,164.4085,179.6332,159.0595,177.7928,160.8999,172.4437,154.566,179.9857" style="stroke: #9D0012; stroke-width: 1.1;"/><line style="stroke: #9D0012; stroke-width: 1.1;" x1="159.0595" x2="166.2485" y1="177.7928" y2="174.2833"/><polygon fill="#9D0012" points="277.343,120.0589,270.1964,119.0964,266.5592,125.323,273.7058,126.2855,277.343,120.0589" style="stroke: #9D0012; stroke-width: 1.1;"/><!--MD5=[17d950f7a9a09a742b3342499805a664]
link Recipe to InstructionList--><path d="M286.7847,130.249 C286.7847,130.249 270.149,156.9961 262.97,168.539 " fill="none" id="Recipe-InstructionList" style="stroke: #9D0012; stroke-width: 1.1;"/><polygon fill="#9D0012" points="255.932,179.8544,264.082,174.3247,258.5728,175.6087,257.2888,170.0995,255.932,179.8544" style="stroke: #9D0012; stroke-width: 1.1;"/><line style="stroke: #9D0012; stroke-width: 1.1;" x1="258.5728" x2="262.7975" y1="175.6087" y2="168.8154"/><polygon fill="#9D0012" points="293.122,120.0589,286.5566,123.0415,286.7847,130.249,293.3501,127.2664,293.122,120.0589" style="stroke: #9D0012; stroke-width: 1.1;"/><!--MD5=[576d84be776654c1bee81d2b6aec8431]
link Recipe to Calorie--><path d="M313.2153,130.249 C313.2153,130.249 329.851,156.9961 337.03,168.539 " fill="none" id="Recipe-Calorie" style="stroke: #9D0012; stroke-width: 1.1;"/><polygon fill="#9D0012" points="344.068,179.8544,342.7112,170.0995,341.4272,175.6087,335.918,174.3247,344.068,179.8544" style="stroke: #9D0012; stroke-width: 1.1;"/><line style="stroke: #9D0012; stroke-width: 1.1;" x1="341.4272" x2="337.2025" y1="175.6087" y2="168.8154"/><polygon fill="#9D0012" points="306.878,120.0589,306.6499,127.2664,313.2153,130.249,313.4434,123.0415,306.878,120.0589" style="stroke: #9D0012; stroke-width: 1.1;"/><!--MD5=[37a874072a213527d24aff4f30d28ef8]
link Recipe to Serving--><path d="M328.6184,126.2553 C328.6184,126.2553 383.486,159.3369 406.187,173.0244 " fill="none" id="Recipe-Serving" style="stroke: #9D0012; stroke-width: 1.1;"/><polygon fill="#9D0012" points="417.515,179.8544,411.8732,171.7816,413.2332,177.2726,407.7422,178.6325,417.515,179.8544" style="stroke: #9D0012; stroke-width: 1.1;"/><line style="stroke: #9D0012; stroke-width: 1.1;" x1="413.2332" x2="406.3815" y1="177.2726" y2="173.1419"/><polygon fill="#9D0012" points="318.342,120.0589,321.4148,126.5826,328.6184,126.2553,325.5457,119.7316,318.342,120.0589" style="stroke: #9D0012; stroke-width: 1.1;"/><!--MD5=[3073158967b6a264075a8499999a8deb]
link Recipe to Rating--><path d="M336.6028,122.5801 C336.6028,122.5801 443.087,162.0912 483.669,177.1487 " fill="none" id="Recipe-Rating" style="stroke: #9D0012; stroke-width: 1.1;"/><polygon fill="#9D0012" points="495.944,181.7033,488.8979,174.822,491.2564,179.9638,486.1146,182.3223,495.944,181.7033" style="stroke: #9D0012; stroke-width: 1.1;"/><line style="stroke: #9D0012; stroke-width: 1.1;" x1="491.2564" x2="483.756" y1="179.9638" y2="177.181"/><polygon fill="#9D0012" points="325.352,118.4064,329.5861,124.2435,336.6028,122.5801,332.3686,116.743,325.352,118.4064" style="stroke: #9D0012; stroke-width: 1.1;"/><!--MD5=[1563eea5d12e4ba15cb3e34acd05fc75]
@startuml BetterModelClassDiagram








skinparam BackgroundColor #FFFFFFF

skinparam Shadowing false

skinparam Class {
    FontColor #FFFFFF
    BorderThickness 1
    BorderColor #FFFFFF
    StereotypeFontColor #FFFFFF
    FontName Arial
}

skinparam Actor {
    BorderColor #000000
    Color #000000
    FontName Arial
}

skinparam Sequence {
    MessageAlign center
    BoxFontSize 15
    BoxPadding 0
    BoxFontColor #FFFFFF
    FontName Arial
}

skinparam Participant {
    FontColor #FFFFFFF
    Padding 20
}

skinparam MinClassWidth 50
skinparam ParticipantPadding 10
skinparam Shadowing false
skinparam DefaultTextAlignment center
skinparam packageStyle Rectangle

hide footbox
hide members
hide circle
skinparam arrowThickness 1.1
skinparam arrowColor #9D0012
skinparam classBackgroundColor #9D0012

RecipeBook *-right-> "1" UniqueRecipeList
RecipeBook *-right-> "1" UniqueTagList
UniqueTagList -[hidden]down- UniqueRecipeList
UniqueTagList -[hidden]down- UniqueRecipeList

UniqueTagList *-right-> "*" Tag
UniqueRecipeList o-right-> Recipe

Recipe o-up-> "*" Tag

Recipe *- -> Name
Recipe *- -> IngredientList
Recipe *- -> InstructionList
Recipe *- -> Calorie
Recipe *- -> Serving
Recipe *- -> Rating
@enduml

PlantUML version 1.2020.03beta6(Unknown compile time)
(GPL source distribution)
Java Runtime: OpenJDK Runtime Environment
JVM: OpenJDK 64-Bit Server VM
Java Version: 11.0.6+8-b770.9
Operating System: Windows 10
Default Encoding: Cp1252
Language: en
Country: SG
--></g></svg>
