<?xml version="1.0" encoding="UTF-8" standalone="no"?><svg xmlns="http://www.w3.org/2000/svg" xmlns:xlink="http://www.w3.org/1999/xlink" contentScriptType="application/ecmascript" contentStyleType="text/css" height="379px" preserveAspectRatio="none" style="width:1452px;height:379px;" version="1.1" viewBox="0 0 1452 379" width="1452px" zoomAndPan="magnify"><defs/><g><!--MD5=[15636c1ca4a123c16a2a1a8e90aca7a9]
cluster Model--><rect fill="#FFFFFF" height="310.5" style="stroke: #000000; stroke-width: 1.5;" width="1419" x="22" y="57.5"/><text fill="#000000" font-family="sans-serif" font-size="14" font-weight="bold" lengthAdjust="spacingAndGlyphs" textLength="44" x="709.5" y="74.0332">Model</text><!--MD5=[be5344d1075fe40561676ea0a363fef6]
cluster ReturnOrder--><rect fill="#FFFFFF" height="175" style="stroke: #000000; stroke-width: 1.5;" width="476" x="571" y="101.5"/><text fill="#000000" font-family="sans-serif" font-size="14" font-weight="bold" lengthAdjust="spacingAndGlyphs" textLength="89" x="764.5" y="118.0332">ReturnOrder</text><!--MD5=[2f31dc06677bc58ef3d8f512d76c1f2e]
class ReadOnlyReturnOrderBook--><rect fill="#9D0012" height="38.8926" id="ReadOnlyReturnOrderBook" style="stroke: #FFFFFF; stroke-width: 1.0;" width="156" x="38" y="130"/><text fill="#FFFFFF" font-family="sans-serif" font-size="12" font-style="italic" lengthAdjust="spacingAndGlyphs" textLength="62" x="85" y="147.457">«Interface»</text><text fill="#FFFFFF" font-family="Arial" font-size="12" lengthAdjust="spacingAndGlyphs" textLength="150" x="41" y="161.3496">ReadOnlyReturnOrderBook</text><!--MD5=[9081c15d9762451a8c321a7e33586db5]
class ReadOnlyOrderBook--><rect fill="#9D0012" height="38.8926" id="ReadOnlyOrderBook" style="stroke: #FFFFFF; stroke-width: 1.0;" width="119" x="229.5" y="130"/><text fill="#FFFFFF" font-family="sans-serif" font-size="12" font-style="italic" lengthAdjust="spacingAndGlyphs" textLength="62" x="258" y="147.457">«Interface»</text><text fill="#FFFFFF" font-family="Arial" font-size="12" lengthAdjust="spacingAndGlyphs" textLength="113" x="232.5" y="161.3496">ReadOnlyOrderBook</text><!--MD5=[7e20e022571e30ec1001cf6eabd7f3e2]
class Model--><rect fill="#9D0012" height="38.8926" id="Model" style="stroke: #FFFFFF; stroke-width: 1.0;" width="64" x="384" y="130"/><text fill="#FFFFFF" font-family="sans-serif" font-size="12" font-style="italic" lengthAdjust="spacingAndGlyphs" textLength="62" x="385" y="147.457">«Interface»</text><text fill="#FFFFFF" font-family="Arial" font-size="12" lengthAdjust="spacingAndGlyphs" textLength="33" x="399.5" y="161.3496">Model</text><!--MD5=[113df03bb65a4006fb91ed3fb77b6ec1]
class ObservableList--><rect fill="#9D0012" height="38.8926" id="ObservableList" style="stroke: #FFFFFF; stroke-width: 1.0;" width="90" x="71" y="229"/><text fill="#FFFFFF" font-family="sans-serif" font-size="12" font-style="italic" lengthAdjust="spacingAndGlyphs" textLength="62" x="85" y="246.457">«Interface»</text><text fill="#FFFFFF" font-family="Arial" font-size="12" font-style="italic" lengthAdjust="spacingAndGlyphs" textLength="84" x="74" y="260.3496">ObservableList</text><!--MD5=[e3a0a37d90b6ff76e20d9faadcec8253]
class OrderBook--><rect fill="#9D0012" height="23.7988" id="OrderBook" style="stroke: #FFFFFF; stroke-width: 1.0;" width="65" x="1063.5" y="137.5"/><text fill="#FFFFFF" font-family="Arial" font-size="12" lengthAdjust="spacingAndGlyphs" textLength="59" x="1066.5" y="153.7559">OrderBook</text><!--MD5=[1aa99e31529f0e0267c883b5ecdd326b]
class ReturnOrderBook--><rect fill="#9D0012" height="23.7988" id="ReturnOrderBook" style="stroke: #FFFFFF; stroke-width: 1.0;" width="102" x="196" y="236.5"/><text fill="#FFFFFF" font-family="Arial" font-size="12" lengthAdjust="spacingAndGlyphs" textLength="96" x="199" y="252.7559">ReturnOrderBook</text><!--MD5=[0d23c233efb60477cf7e578633a93a45]
class ModelManager--><rect fill="#9D0012" height="23.7988" id="ModelManager" style="stroke: #FFFFFF; stroke-width: 1.0;" width="87" x="333.5" y="236.5"/><text fill="#FFFFFF" font-family="Arial" font-size="12" lengthAdjust="spacingAndGlyphs" textLength="81" x="336.5" y="252.7559">ModelManager</text><!--MD5=[8d0026c7984aa4cd1b21c0238fc19d6b]
class UserPrefs--><rect fill="#9D0012" height="23.7988" id="UserPrefs" style="stroke: #FFFFFF; stroke-width: 1.0;" width="62" x="85" y="328"/><text fill="#FFFFFF" font-family="Arial" font-size="12" lengthAdjust="spacingAndGlyphs" textLength="56" x="88" y="344.2559">UserPrefs</text><!--MD5=[a832290d741b8e569f0b0a043ed40841]
class ReadOnlyUserPrefs--><rect fill="#9D0012" height="23.7988" id="ReadOnlyUserPrefs" style="stroke: #FFFFFF; stroke-width: 1.0;" width="116" x="182" y="328"/><text fill="#FFFFFF" font-family="Arial" font-size="12" lengthAdjust="spacingAndGlyphs" textLength="110" x="185" y="344.2559">ReadOnlyUserPrefs</text><!--MD5=[a5127b499828c09889c8715fca3202ad]
class UniqueOrderList--><rect fill="#9D0012" height="23.7988" id="UniqueOrderList" style="stroke: #FFFFFF; stroke-width: 1.0;" width="97" x="1163.5" y="137.5"/><text fill="#FFFFFF" font-family="Arial" font-size="12" lengthAdjust="spacingAndGlyphs" textLength="91" x="1166.5" y="153.7559">UniqueOrderList</text><!--MD5=[cf4d6237fcae255cd2e1656cf84a30e2]
class Order--><rect fill="#9D0012" height="23.7988" id="Order" style="stroke: #FFFFFF; stroke-width: 1.0;" width="50" x="1296" y="137.5"/><text fill="#FFFFFF" font-family="Arial" font-size="12" lengthAdjust="spacingAndGlyphs" textLength="31" x="1305.5" y="153.7559">Order</text><!--MD5=[78bec0fde86ad92ec1dc3fb343b83709]
class Email--><rect fill="#9D0012" height="23.7988" id="Email" style="stroke: #FFFFFF; stroke-width: 1.0;" width="50" x="1338" y="236.5"/><text fill="#FFFFFF" font-family="Arial" font-size="12" lengthAdjust="spacingAndGlyphs" textLength="32" x="1347" y="252.7559">Email</text><!--MD5=[7449e65854233b27c3b0ddd3ff813187]
class Timestamp--><rect fill="#9D0012" height="23.7988" id="Timestamp" style="stroke: #FFFFFF; stroke-width: 1.0;" width="69" x="1066.5" y="236.5"/><text fill="#FFFFFF" font-family="Arial" font-size="12" lengthAdjust="spacingAndGlyphs" textLength="63" x="1069.5" y="252.7559">Timestamp</text><!--MD5=[4c4d4953716a20dcc08fa0e3f0d7ea84]
class CashOnDelivery--><rect fill="#9D0012" height="23.7988" id="CashOnDelivery" style="stroke: #FFFFFF; stroke-width: 1.0;" width="95" x="1170.5" y="236.5"/><text fill="#FFFFFF" font-family="Arial" font-size="12" lengthAdjust="spacingAndGlyphs" textLength="89" x="1173.5" y="252.7559">CashOnDelivery</text><!--MD5=[042fa140da40c49659127f611bcff931]
class Comment--><rect fill="#9D0012" height="23.7988" id="Comment" style="stroke: #FFFFFF; stroke-width: 1.0;" width="61" x="677.5" y="328"/><text fill="#FFFFFF" font-family="Arial" font-size="12" lengthAdjust="spacingAndGlyphs" textLength="55" x="680.5" y="344.2559">Comment</text><!--MD5=[77658b3ea9ab4d6f6055329028fcb9d5]
class TypeOfItem--><rect fill="#9D0012" height="23.7988" id="TypeOfItem" style="stroke: #FFFFFF; stroke-width: 1.0;" width="68" x="1162" y="328"/><text fill="#FFFFFF" font-family="Arial" font-size="12" lengthAdjust="spacingAndGlyphs" textLength="62" x="1165" y="344.2559">TypeOfItem</text><!--MD5=[bdca2f8e508ee728e681d7118568e554]
class ReturnBook--><rect fill="#9D0012" height="23.7988" id="ReturnBook" style="stroke: #FFFFFF; stroke-width: 1.0;" width="71" x="483.5" y="137.5"/><text fill="#FFFFFF" font-family="Arial" font-size="12" lengthAdjust="spacingAndGlyphs" textLength="65" x="486.5" y="153.7559">ReturnBook</text><!--MD5=[28a58247ec52b6b346e404cf2e9cbcf6]
class ReturnOrder--><rect fill="#9D0012" height="23.7988" id="ReturnOrder" style="stroke: #FFFFFF; stroke-width: 1.0;" width="74" x="864" y="137.5"/><text fill="#FFFFFF" font-family="Arial" font-size="12" lengthAdjust="spacingAndGlyphs" textLength="68" x="867" y="153.7559">ReturnOrder</text><!--MD5=[5e94c88dd1b2adca17ee853db39e1224]
class TransactionId--><rect fill="#9D0012" height="23.7988" id="TransactionId" style="stroke: #FFFFFF; stroke-width: 1.0;" width="81" x="777.5" y="236.5"/><text fill="#FFFFFF" font-family="Arial" font-size="12" lengthAdjust="spacingAndGlyphs" textLength="75" x="780.5" y="252.7559">TransactionId</text><!--MD5=[0f39e4cb6f03951afbf6d14bd2505654]
class Address--><rect fill="#9D0012" height="23.7988" id="Address" style="stroke: #FFFFFF; stroke-width: 1.0;" width="52" x="894" y="236.5"/><text fill="#FFFFFF" font-family="Arial" font-size="12" lengthAdjust="spacingAndGlyphs" textLength="46" x="897" y="252.7559">Address</text><!--MD5=[53f6a92bd21ca2f2960392a061f3a1c6]
class Name--><rect fill="#9D0012" height="23.7988" id="Name" style="stroke: #FFFFFF; stroke-width: 1.0;" width="50" x="981" y="236.5"/><text fill="#FFFFFF" font-family="Arial" font-size="12" lengthAdjust="spacingAndGlyphs" textLength="34" x="989" y="252.7559">Name</text><!--MD5=[03be55fb4aae919908819e432b9694ea]
class Phone--><rect fill="#9D0012" height="23.7988" id="Phone" style="stroke: #FFFFFF; stroke-width: 1.0;" width="50" x="587" y="236.5"/><text fill="#FFFFFF" font-family="Arial" font-size="12" lengthAdjust="spacingAndGlyphs" textLength="36" x="594" y="252.7559">Phone</text><!--MD5=[267c57a1fbbc895f720b3da7838b3af0]
class UniqueReturnOrderList--><rect fill="#9D0012" height="23.7988" id="UniqueReturnOrderList" style="stroke: #FFFFFF; stroke-width: 1.0;" width="134" x="695" y="137.5"/><text fill="#FFFFFF" font-family="Arial" font-size="12" lengthAdjust="spacingAndGlyphs" textLength="128" x="698" y="153.7559">UniqueReturnOrderList</text><!--MD5=[c5149b4909ffd2688ff51a939867f774]
class Warehouse--><rect fill="#9D0012" height="23.7988" id="Warehouse" style="stroke: #FFFFFF; stroke-width: 1.0;" width="70" x="672" y="236.5"/><text fill="#FFFFFF" font-family="Arial" font-size="12" lengthAdjust="spacingAndGlyphs" textLength="64" x="675" y="252.7559">Warehouse</text><!--MD5=[e186123a0e171d8e4c05cbc7f31a370c]
class TimeStamp--><rect fill="#9D0012" height="23.7988" id="TimeStamp" style="stroke: #FFFFFF; stroke-width: 1.0;" width="70" x="590" y="137.5"/><text fill="#FFFFFF" font-family="Arial" font-size="12" lengthAdjust="spacingAndGlyphs" textLength="64" x="593" y="153.7559">TimeStamp</text><!--MD5=[ba69f6e02128d3f1efc02a80d9bc8a11]
link OrderBook to UniqueOrderList--><path d="M1140.63,149.4868 C1140.63,149.4868 1147.36,149.5 1150.2,149.5 " fill="none" id="OrderBook-UniqueOrderList" style="stroke: #123456; stroke-width: 1.1;"/><polygon fill="#123456" points="1163.47,149.5,1154.47,145.5,1158.47,149.5,1154.47,153.5,1163.47,149.5" style="stroke: #123456; stroke-width: 1.1;"/><line style="stroke: #123456; stroke-width: 1.1;" x1="1158.47" x2="1150.47" y1="149.5" y2="149.5"/><polygon fill="#123456" points="1128.63,149.5,1134.6344,153.4934,1140.63,149.4868,1134.6256,145.4934,1128.63,149.5" style="stroke: #123456; stroke-width: 1.1;"/><text fill="#000000" font-family="sans-serif" font-size="13" lengthAdjust="spacingAndGlyphs" textLength="7" x="1148.5029" y="145.8124">1</text><!--MD5=[07a9a40e155cf7ba8fa563215030c51a]
link UniqueOrderList to Order--><path d="M1272.54,149.5 C1272.54,149.5 1279.62,149.5 1282.65,149.5 " fill="none" id="UniqueOrderList-Order" style="stroke: #123456; stroke-width: 1.1;"/><polygon fill="#123456" points="1295.97,149.5,1286.97,145.5,1290.97,149.5,1286.97,153.5,1295.97,149.5" style="stroke: #123456; stroke-width: 1.1;"/><line style="stroke: #123456; stroke-width: 1.1;" x1="1290.97" x2="1282.97" y1="149.5" y2="149.5"/><polygon fill="#FFFFFF" points="1260.54,149.5,1266.54,153.5,1272.54,149.5,1266.54,145.5,1260.54,149.5" style="stroke: #123456; stroke-width: 1.1;"/><!--MD5=[282d0158203dded5bc3c1d1a2c2e3450]
link Order to TransactionId--><path d="M1287.0278,166.0142 C1287.0278,166.0142 1280.63,168.253 1278,169 C1104.25,218.441 1051.95,188.087 876,229 C871.488,230.049 866.821,231.281 862.184,232.603 " fill="none" id="Order-TransactionId" style="stroke: #123456; stroke-width: 1.1;"/><polygon fill="#123456" points="849.351,236.488,859.1238,237.7095,854.1366,235.0397,856.8065,230.0525,849.351,236.488" style="stroke: #123456; stroke-width: 1.1;"/><line style="stroke: #123456; stroke-width: 1.1;" x1="854.1366" x2="861.793" y1="235.0397" y2="232.721"/><polygon fill="#123456" points="1298.19,161.609,1291.1405,160.0909,1287.0278,166.0142,1294.0773,167.5323,1298.19,161.609" style="stroke: #123456; stroke-width: 1.1;"/><!--MD5=[4e833d437c29ccd55176d2b86f10c525]
link Order to Name--><path d="M1286.0298,166.0653 C1286.0298,166.0653 1280.27,168.237 1278,169 C1172.55,204.435 1137.25,185.172 1035,229 C1034.28,229.309 1033.56,229.635 1032.83,229.975 " fill="none" id="Order-Name" style="stroke: #123456; stroke-width: 1.1;"/><polygon fill="#123456" points="1021.44,236.345,1031.2477,235.4452,1025.8044,233.9054,1027.3442,228.4621,1021.44,236.345" style="stroke: #123456; stroke-width: 1.1;"/><line style="stroke: #123456; stroke-width: 1.1;" x1="1025.8044" x2="1032.79" y1="233.9054" y2="230.0015"/><polygon fill="#123456" points="1297.16,161.58,1290.0998,160.1126,1286.0298,166.0653,1293.09,167.5327,1297.16,161.58" style="stroke: #123456; stroke-width: 1.1;"/><!--MD5=[2370952989a40ace62fd13617fae20de]
link Order to Phone--><path d="M1287.5226,166.0155 C1287.5226,166.0155 1280.81,168.278 1278,169 C1008.12,238.22 923.576,158.618 654,229 C651.35,229.692 648.654,230.532 645.973,231.467 " fill="none" id="Order-Phone" style="stroke: #123456; stroke-width: 1.1;"/><polygon fill="#123456" points="633.758,236.344,643.5996,236.7208,638.4014,234.4896,640.6326,229.2914,633.758,236.344" style="stroke: #123456; stroke-width: 1.1;"/><line style="stroke: #123456; stroke-width: 1.1;" x1="638.4014" x2="645.8315" y1="234.4896" y2="231.5235"/><polygon fill="#123456" points="1298.7,161.649,1291.6558,160.1064,1287.5226,166.0155,1294.5668,167.558,1298.7,161.649" style="stroke: #123456; stroke-width: 1.1;"/><!--MD5=[a87306a0d6fd062b6a3f0ac4ed1f2fe1]
link Order to Warehouse--><path d="M1287.5173,165.9659 C1287.5173,165.9659 1280.81,168.251 1278,169 C1054.08,228.762 985.89,177.163 760,229 C755.868,229.948 751.61,231.108 747.388,232.381 " fill="none" id="Order-Warehouse" style="stroke: #123456; stroke-width: 1.1;"/><polygon fill="#123456" points="734.992,236.437,744.7897,237.4395,739.744,234.8819,742.3016,229.8363,734.992,236.437" style="stroke: #123456; stroke-width: 1.1;"/><line style="stroke: #123456; stroke-width: 1.1;" x1="739.744" x2="747.348" y1="234.8819" y2="232.394"/><polygon fill="#123456" points="1298.68,161.562,1291.6307,160.0431,1287.5173,165.9659,1294.5666,167.4848,1298.68,161.562" style="stroke: #123456; stroke-width: 1.1;"/><!--MD5=[31f35bdd0346216a532b0e337c5e40a9]
link Order to Email--><path d="M1330.5887,172.6388 C1330.5887,172.6388 1346.31,208.954 1352.92,224.213 " fill="none" id="Order-Email" style="stroke: #123456; stroke-width: 1.1;"/><polygon fill="#123456" points="1358.11,236.204,1358.2041,226.3556,1356.123,231.6158,1350.8629,229.5347,1358.11,236.204" style="stroke: #123456; stroke-width: 1.1;"/><line style="stroke: #123456; stroke-width: 1.1;" x1="1356.123" x2="1352.945" y1="231.6158" y2="224.274"/><polygon fill="#123456" points="1325.82,161.627,1324.5338,168.7225,1330.5887,172.6388,1331.8749,165.5433,1325.82,161.627" style="stroke: #123456; stroke-width: 1.1;"/><!--MD5=[dd2bca8e69277b6dcf04d6bf8fed5dca]
link Order to Address--><path d="M1286.5383,166.0557 C1286.5383,166.0557 1280.45,168.25 1278,169 C1141.73,210.743 1099.27,187.257 963,229 C960.552,229.75 958.056,230.595 955.56,231.501 " fill="none" id="Order-Address" style="stroke: #123456; stroke-width: 1.1;"/><polygon fill="#123456" points="943.31,236.376,953.1512,236.7645,947.9556,234.5271,950.193,229.3315,943.31,236.376" style="stroke: #123456; stroke-width: 1.1;"/><line style="stroke: #123456; stroke-width: 1.1;" x1="947.9556" x2="955.3885" y1="234.5271" y2="231.5695"/><polygon fill="#123456" points="1297.69,161.624,1290.6369,160.1226,1286.5383,166.0557,1293.5914,167.5571,1297.69,161.624" style="stroke: #123456; stroke-width: 1.1;"/><!--MD5=[91f86c7233201523e9cb838e83a8500e]
link Order to Timestamp--><path d="M1284.7794,166.4671 C1284.7794,166.4671 1178.8,213.198 1138.29,231.06 " fill="none" id="Order-Timestamp" style="stroke: #123456; stroke-width: 1.1;"/><polygon fill="#123456" points="1126.28,236.354,1136.1288,236.3841,1130.8552,234.3373,1132.9021,229.0637,1126.28,236.354" style="stroke: #123456; stroke-width: 1.1;"/><line style="stroke: #123456; stroke-width: 1.1;" x1="1130.8552" x2="1138.175" y1="234.3373" y2="231.109"/><polygon fill="#123456" points="1295.76,161.627,1288.6563,160.3869,1284.7794,166.4671,1291.8831,167.7073,1295.76,161.627" style="stroke: #123456; stroke-width: 1.1;"/><!--MD5=[cc2b52f64d7199996496b0f7ee2fcb9b]
link Order to CashOnDelivery--><path d="M1300.4447,169.8547 C1300.4447,169.8547 1257.49,210.309 1239.91,226.862 " fill="none" id="Order-CashOnDelivery" style="stroke: #123456; stroke-width: 1.1;"/><polygon fill="#123456" points="1229.99,236.204,1239.284,232.945,1233.6297,232.7758,1233.7989,227.1215,1229.99,236.204" style="stroke: #123456; stroke-width: 1.1;"/><line style="stroke: #123456; stroke-width: 1.1;" x1="1233.6297" x2="1239.46" y1="232.7758" y2="227.2915"/><polygon fill="#123456" points="1309.18,161.627,1302.0698,162.8291,1300.4447,169.8547,1307.5549,168.6526,1309.18,161.627" style="stroke: #123456; stroke-width: 1.1;"/><!--MD5=[5921fcb98fbc12b03149741fc6719aa6]
link Order to Comment--><path d="M1321.7397,173.6987 C1321.7397,173.6987 1315.25,257.635 1283,284.5 C1242.43,318.2885 879.456,333.3684 752.002,337.654 " fill="none" id="Order-Comment" style="stroke: #123456; stroke-width: 1.1;"/><polygon fill="#123456" points="738.69,338.0909,747.8166,341.793,743.6873,337.9266,747.5537,333.7973,738.69,338.0909" style="stroke: #123456; stroke-width: 1.1;"/><line style="stroke: #123456; stroke-width: 1.1;" x1="743.6873" x2="751.6835" y1="337.9266" y2="337.6644"/><polygon fill="#123456" points="1321.65,161.699,1317.6949,167.7287,1321.7397,173.6987,1325.6947,167.6689,1321.65,161.699" style="stroke: #123456; stroke-width: 1.1;"/><!--MD5=[3d2f70486d65b6ac81b84ebdde74b95e]
link Order to TypeOfItem--><path d="M1350.5253,168.3664 C1350.5253,168.3664 1394.89,203.618 1406,229 C1415.89,251.597 1421.09,264.99 1406,284.5 C1386.25,310.0273 1298.84,325.8002 1243.2,333.439 " fill="none" id="Order-TypeOfItem" style="stroke: #123456; stroke-width: 1.1;"/><polygon fill="#123456" points="1230.14,335.1635,1239.5858,337.9522,1235.0971,334.5096,1238.5396,330.0209,1230.14,335.1635" style="stroke: #123456; stroke-width: 1.1;"/><line style="stroke: #123456; stroke-width: 1.1;" x1="1235.0971" x2="1243.035" y1="334.5096" y2="333.4614"/><polygon fill="#123456" points="1340.55,161.696,1343.3142,168.3563,1350.5253,168.3664,1347.7611,161.7061,1340.55,161.696" style="stroke: #123456; stroke-width: 1.1;"/><!--MD5=[80e580064bc2b3db00643e8ca9818684]
link ReturnBook to UniqueReturnOrderList--><path d="M523.8044,125.5163 C523.8044,125.5163 550.184,41.508 588.5,19.5 C615.863,3.783 631.107,5.73 659.5,19.5 C704.755,41.448 736.036,94.138 751.301,125.284 " fill="none" id="ReturnBook-UniqueReturnOrderList" style="stroke: #123456; stroke-width: 1.1;"/><polygon fill="#123456" points="756.856,137.16,756.6657,127.313,754.7374,132.631,749.4193,130.7028,756.856,137.16" style="stroke: #123456; stroke-width: 1.1;"/><line style="stroke: #123456; stroke-width: 1.1;" x1="754.7374" x2="751.3485" y1="132.631" y2="125.385"/><polygon fill="#123456" points="521.15,137.219,526.3781,132.2524,523.8044,125.5163,518.5763,130.4828,521.15,137.219" style="stroke: #123456; stroke-width: 1.1;"/><text fill="#000000" font-family="sans-serif" font-size="13" lengthAdjust="spacingAndGlyphs" textLength="7" x="746.4524" y="126.7551">1</text><!--MD5=[4e0facf6f6992d661d1e5ec9f9180bf8]
link UniqueReturnOrderList to ReturnOrder--><path d="M841.057,149.5 C841.057,149.5 847.796,149.5 850.632,149.5 " fill="none" id="UniqueReturnOrderList-ReturnOrder" style="stroke: #123456; stroke-width: 1.1;"/><polygon fill="#123456" points="863.904,149.5,854.904,145.5,858.904,149.5,854.904,153.5,863.904,149.5" style="stroke: #123456; stroke-width: 1.1;"/><line style="stroke: #123456; stroke-width: 1.1;" x1="858.904" x2="850.904" y1="149.5" y2="149.5"/><polygon fill="#123456" points="829.057,149.5,835.057,153.5,841.057,149.5,835.057,145.5,829.057,149.5" style="stroke: #123456; stroke-width: 1.1;"/><text fill="#000000" font-family="sans-serif" font-size="13" lengthAdjust="spacingAndGlyphs" textLength="7" x="848.9117" y="145.4745">1</text><!--MD5=[a5f57084766c3b05d72705d5c4e7eb18]
link ReturnOrder to TransactionId--><path d="M883.6773,170.7448 C883.6773,170.7448 850.208,209.859 836.333,226.074 " fill="none" id="ReturnOrder-TransactionId" style="stroke: #123456; stroke-width: 1.1;"/><polygon fill="#123456" points="827.666,236.204,836.5565,231.9662,830.9167,232.4049,830.478,226.7651,827.666,236.204" style="stroke: #123456; stroke-width: 1.1;"/><line style="stroke: #123456; stroke-width: 1.1;" x1="830.9167" x2="836.118" y1="232.4049" y2="226.326"/><polygon fill="#123456" points="891.479,161.627,884.5389,163.5853,883.6773,170.7448,890.6174,168.7864,891.479,161.627" style="stroke: #123456; stroke-width: 1.1;"/><!--MD5=[da4867d01de09cb1c8961a5eba703b8d]
link ReturnOrder to Name--><path d="M921.8599,169.7694 C921.8599,169.7694 966.07,210.613 984.117,227.284 " fill="none" id="ReturnOrder-Name" style="stroke: #123456; stroke-width: 1.1;"/><polygon fill="#123456" points="993.772,236.204,989.875,227.1589,990.0991,232.8113,984.4467,233.0355,993.772,236.204" style="stroke: #123456; stroke-width: 1.1;"/><line style="stroke: #123456; stroke-width: 1.1;" x1="990.0991" x2="984.2235" y1="232.8113" y2="227.3825"/><polygon fill="#123456" points="913.045,161.627,914.7383,168.6365,921.8599,169.7694,920.1666,162.7599,913.045,161.627" style="stroke: #123456; stroke-width: 1.1;"/><!--MD5=[25e675788967d4d2889fe913898963f6]
link ReturnOrder to Phone--><path d="M857.0806,165.3642 C857.0806,165.3642 849.186,167.966 846,169 C760.96,196.586 737.707,197.598 654,229 C652.042,229.735 650.043,230.513 648.034,231.319 " fill="none" id="ReturnOrder-Phone" style="stroke: #123456; stroke-width: 1.1;"/><polygon fill="#123456" points="635.796,236.465,645.6429,236.6632,640.405,234.5267,642.5416,229.2888,635.796,236.465" style="stroke: #123456; stroke-width: 1.1;"/><line style="stroke: #123456; stroke-width: 1.1;" x1="640.405" x2="647.78" y1="234.5267" y2="231.4255"/><polygon fill="#123456" points="868.466,161.573,861.5096,159.6735,857.0806,165.3642,864.037,167.2637,868.466,161.573" style="stroke: #123456; stroke-width: 1.1;"/><!--MD5=[425a1e3974816f3af64f756b11840f67]
link ReturnOrder to Warehouse--><path d="M868.0129,166.9936 C868.0129,166.9936 776.372,212.814 740.936,230.532 " fill="none" id="ReturnOrder-Warehouse" style="stroke: #123456; stroke-width: 1.1;"/><polygon fill="#123456" points="729.293,236.354,739.1317,235.9063,733.765,234.1177,735.5536,228.7511,729.293,236.354" style="stroke: #123456; stroke-width: 1.1;"/><line style="stroke: #123456; stroke-width: 1.1;" x1="733.765" x2="740.92" y1="234.1177" y2="230.5395"/><polygon fill="#123456" points="878.746,161.627,871.5906,160.7326,868.0129,166.9936,875.1683,167.888,878.746,161.627" style="stroke: #123456; stroke-width: 1.1;"/><!--MD5=[3061fa6c657b0797d0e645e799f0e503]
link ReturnOrder to Address--><path d="M905.4862,173.4033 C905.4862,173.4033 912.354,208.463 915.284,223.422 " fill="none" id="ReturnOrder-Address" style="stroke: #123456; stroke-width: 1.1;"/><polygon fill="#123456" points="917.787,236.204,919.9828,226.603,916.8261,231.2972,912.1319,228.1405,917.787,236.204" style="stroke: #123456; stroke-width: 1.1;"/><line style="stroke: #123456; stroke-width: 1.1;" x1="916.8261" x2="915.2885" y1="231.2972" y2="223.4465"/><polygon fill="#123456" points="903.18,161.627,900.4077,168.2839,905.4862,173.4033,908.2585,166.7464,903.18,161.627" style="stroke: #123456; stroke-width: 1.1;"/><!--MD5=[b9750efe1c042b013b3a09f5ad9e6985]
link ReturnOrder to Timestamp--><path d="M934.7402,166.8634 C934.7402,166.8634 1029.36,212.757 1065.99,230.519 " fill="none" id="ReturnOrder-Timestamp" style="stroke: #123456; stroke-width: 1.1;"/><polygon fill="#123456" points="1078.02,236.354,1071.6668,228.8282,1073.5209,234.1726,1068.1766,236.0267,1078.02,236.354" style="stroke: #123456; stroke-width: 1.1;"/><line style="stroke: #123456; stroke-width: 1.1;" x1="1073.5209" x2="1066.325" y1="234.1726" y2="230.681"/><polygon fill="#123456" points="923.943,161.627,927.5961,167.8443,934.7402,166.8634,931.0871,160.6461,923.943,161.627" style="stroke: #123456; stroke-width: 1.1;"/><!--MD5=[411c7225d5bf4082c41147d0600b557a]
link ReturnOrder to Comment--><path d="M870.379,161.582 C862.496,164.219 853.984,166.879 846,169 C712.899,204.361 629.446,122.608 542,229 C526.337,248.056 527.532,264.522 542,284.5 C571.627,325.4101 632.95,336.158 672.197,338.6735 " fill="none" id="ReturnOrder-&gt;Comment" style="stroke: #123456; stroke-width: 1.1;"/><polygon fill="#123456" points="677.345,338.9646,668.5844,334.4644,672.3529,338.6832,668.1341,342.4517,677.345,338.9646" style="stroke: #123456; stroke-width: 1.1;"/><!--MD5=[5194cced9d60441e679aaa07a1a84b99]
link ReturnOrder to TypeOfItem--><path d="M870.063,161.577 C862.262,164.184 853.867,166.832 846,169 C724.56,202.465 648.083,130.953 569,229 C553.514,248.2 552.33,266.319 569,284.5 C608.739,327.8425 1024.99,336.8292 1156.45,338.5917 " fill="none" id="ReturnOrder-&gt;TypeOfItem" style="stroke: #123456; stroke-width: 1.1;"/><polygon fill="#123456" points="1161.75,338.6609,1152.8081,334.5327,1156.7505,338.5895,1152.6938,342.5319,1161.75,338.6609" style="stroke: #123456; stroke-width: 1.1;"/><!--MD5=[b4a6b2f64b9a3aa45904a971cfbea741]
link ReadOnlyReturnOrderBook to ReadOnlyOrderBook--><!--MD5=[998ce8c99b6d265a78fe65e486e0c3e3]
link ReadOnlyOrderBook to Model--><!--MD5=[096f72f71d0bb9826772e2b5e350b2f6]
link ReadOnlyReturnOrderBook to ObservableList--><!--MD5=[32d525b07dcaa64a2c002c6f4340a237]
link ObservableList to ReturnOrderBook--><!--MD5=[ee61c8dfd4b405b02f72c44f3ae93ff8]
link ReturnOrderBook to ModelManager--><!--MD5=[4f4c0bef4adddcdbd361258277aa3835]
link ObservableList to UserPrefs--><!--MD5=[aa63b524dbd1dcce41d655013178b150]
link UserPrefs to ReadOnlyUserPrefs--><!--MD5=[9d9a1d8c26e2fcbf37407fe1ab0369f4]
@startuml








skinparam BackgroundColor #FFFFFFF

skinparam Shadowing false

skinparam Class {
    FontColor #FFFFFF
    BorderThickness 1
    BorderColor #FFFFFF
    StereotypeFontColor #FFFFFF
    FontName Arial
}

skinparam Actor {
    BorderColor #000000
    Color #000000
    FontName Arial
}

skinparam Sequence {
    MessageAlign center
    BoxFontSize 15
    BoxPadding 0
    BoxFontColor #FFFFFF
    FontName Arial
}

skinparam Participant {
    FontColor #FFFFFFF
    Padding 20
}

skinparam MinClassWidth 50
skinparam ParticipantPadding 10
skinparam Shadowing false
skinparam DefaultTextAlignment center
skinparam packageStyle Rectangle

hide footbox
hide members
hide circle
skinparam arrowThickness 1.1
skinparam arrowColor #123456
skinparam classBackgroundColor #9D0012

Package Model <<Rectangle>> {
Interface ReadOnlyReturnOrderBook <<Interface>>
Interface ReadOnlyOrderBook <<Interface>>
Interface Model <<Interface>>
Interface ObservableList <<Interface>>
Class OrderBook
class ReturnOrderBook
Class ReadOnlyOrderBook
class ReadOnlyReturnOrderBook
Class Model
Class ModelManager
Class UserPrefs
Class ReadOnlyUserPrefs


Package ReturnOrder {
Class ReturnOrder
Class TransactionId
Class Address
Class Name
Class Phone
Class UniqueReturnOrderList
Class Warehouse
Class TimeStamp
}

OrderBook *-right-> "1" UniqueOrderList
UniqueOrderList o-right-> Order

Order *- -> TransactionId
Order *- -> Name
Order *- -> Phone
Order *- -> Warehouse
Order *- -> Email
Order *- -> Address
Order *- -> Timestamp
Order *- -> CashOnDelivery
Order *- -> Comment
Order *- -> TypeOfItem

ReturnBook *-right-> "1" UniqueReturnOrderList
UniqueReturnOrderList *-right-> "1" ReturnOrder



ReturnOrder *- -> TransactionId
ReturnOrder *- -> Name
ReturnOrder *- -> Phone
ReturnOrder *- -> Warehouse
ReturnOrder *- -> Address
ReturnOrder *- -> Timestamp
ReturnOrder - - -> Comment
ReturnOrder - - -> TypeOfItem
@enduml

PlantUML version 1.2019.11(Sun Sep 22 18:02:15 SGT 2019)
(GPL source distribution)
Java Runtime: OpenJDK Runtime Environment
JVM: OpenJDK 64-Bit Server VM
Java Version: 11.0.5+10-b520.30
Operating System: Windows 10
Default Encoding: UTF-8
Language: en
Country: US
--></g></svg>
