<?xml version="1.0" encoding="UTF-8" standalone="no"?><svg xmlns="http://www.w3.org/2000/svg" xmlns:xlink="http://www.w3.org/1999/xlink" contentScriptType="application/ecmascript" contentStyleType="text/css" height="777px" preserveAspectRatio="none" style="width:933px;height:777px;" version="1.1" viewBox="0 0 933 777" width="933px" zoomAndPan="magnify"><defs/><g><rect fill="#C8C8FA" height="755.5078" style="stroke: #A80036; stroke-width: 1.0;" width="752.5" x="69" y="4"/><text fill="#FFFFFF" font-family="sans-serif" font-size="15" font-weight="bold" lengthAdjust="spacingAndGlyphs" textLength="39" x="423.75" y="19.5713">Logic</text><rect fill="#F97181" height="755.5078" style="stroke: #A80036; stroke-width: 1.0;" width="92" x="823.5" y="4"/><text fill="#FFFFFF" font-family="sans-serif" font-size="15" font-weight="bold" lengthAdjust="spacingAndGlyphs" textLength="44" x="845.5" y="19.5713">Model</text><rect fill="#FFFFFF" height="663.6797" style="stroke: #A80036; stroke-width: 1.0;" width="10" x="132" y="91.8281"/><rect fill="#FFFFFF" height="540.2734" style="stroke: #A80036; stroke-width: 1.0;" width="10" x="309" y="122.1797"/><rect fill="#FFFFFF" height="32.6094" style="stroke: #A80036; stroke-width: 1.0;" width="10" x="482.5" y="146.1797"/><rect fill="#FFFFFF" height="408.9609" style="stroke: #A80036; stroke-width: 1.0;" width="10" x="482.5" y="209.1406"/><rect fill="#FFFFFF" height="41.3516" style="stroke: #A80036; stroke-width: 1.0;" width="10" x="487.5" y="272.8438"/><rect fill="#FFFFFF" height="41.3516" style="stroke: #A80036; stroke-width: 1.0;" width="10" x="487.5" y="466.4375"/><rect fill="#FFFFFF" height="32.6094" style="stroke: #A80036; stroke-width: 1.0;" width="10" x="697" y="555.1406"/><rect fill="#3333C4" height="31.6094" style="stroke: #A80036; stroke-width: 1.5;" width="158" x="408.5" y="130.1797"/><text fill="#FFFFFF" font-family="sans-serif" font-size="14" lengthAdjust="spacingAndGlyphs" textLength="144" x="415.5" y="151.7129">:ClearCommandParser</text><rect fill="#FFFFFF" height="524.3672" style="stroke: #000000; stroke-width: 2.0;" width="915.5" x="6" y="224.1406"/><rect fill="#FFFFFF" height="328.2578" style="stroke: none; stroke-width: 1.0;" width="915.5" x="6" y="420.25"/><rect fill="#3333C4" height="31.6094" style="stroke: #A80036; stroke-width: 1.5;" width="211" x="596.5" y="522.7891"/><text fill="#FFFFFF" font-family="sans-serif" font-size="14" lengthAdjust="spacingAndGlyphs" textLength="197" x="603.5" y="544.3223">clearCommand:ClearCommand</text><line style="stroke: #A80036; stroke-width: 1.0; stroke-dasharray: 5.0,5.0;" x1="137" x2="137" y1="59.4766" y2="765.5078"/><line style="stroke: #A80036; stroke-width: 1.0; stroke-dasharray: 5.0,5.0;" x1="313.5" x2="313.5" y1="59.4766" y2="765.5078"/><line style="stroke: #A80036; stroke-width: 1.0; stroke-dasharray: 5.0,5.0;" x1="487.5" x2="487.5" y1="161.4844" y2="765.5078"/><line style="stroke: #A80036; stroke-width: 1.0; stroke-dasharray: 5.0,5.0;" x1="701.5" x2="701.5" y1="554.0938" y2="765.5078"/><line style="stroke: #A80036; stroke-width: 1.0; stroke-dasharray: 5.0,5.0;" x1="869.5" x2="869.5" y1="59.4766" y2="765.5078"/><rect fill="#3333C4" height="31.6094" style="stroke: #A80036; stroke-width: 1.5;" width="108" x="83" y="26.8672"/><text fill="#FFFFFF" font-family="sans-serif" font-size="14" lengthAdjust="spacingAndGlyphs" textLength="94" x="90" y="48.4004">:LogicManager</text><rect fill="#3333C4" height="31.6094" style="stroke: #A80036; stroke-width: 1.5;" width="129" x="249.5" y="26.8672"/><text fill="#FFFFFF" font-family="sans-serif" font-size="14" lengthAdjust="spacingAndGlyphs" textLength="115" x="256.5" y="48.4004">:OrderBookParser</text><rect fill="#9D0012" height="31.6094" style="stroke: #A80036; stroke-width: 1.5;" width="64" x="837.5" y="26.8672"/><text fill="#FFFFFF" font-family="sans-serif" font-size="14" lengthAdjust="spacingAndGlyphs" textLength="42" x="848.5" y="48.4004">:Model</text><rect fill="#FFFFFF" height="663.6797" style="stroke: #A80036; stroke-width: 1.0;" width="10" x="132" y="91.8281"/><rect fill="#FFFFFF" height="540.2734" style="stroke: #A80036; stroke-width: 1.0;" width="10" x="309" y="122.1797"/><rect fill="#FFFFFF" height="32.6094" style="stroke: #A80036; stroke-width: 1.0;" width="10" x="482.5" y="146.1797"/><rect fill="#FFFFFF" height="408.9609" style="stroke: #A80036; stroke-width: 1.0;" width="10" x="482.5" y="209.1406"/><rect fill="#FFFFFF" height="41.3516" style="stroke: #A80036; stroke-width: 1.0;" width="10" x="487.5" y="272.8438"/><rect fill="#FFFFFF" height="41.3516" style="stroke: #A80036; stroke-width: 1.0;" width="10" x="487.5" y="466.4375"/><rect fill="#FFFFFF" height="32.6094" style="stroke: #A80036; stroke-width: 1.0;" width="10" x="697" y="555.1406"/><polygon fill="#A80036" points="120,87.8281,130,91.8281,120,95.8281,124,91.8281" style="stroke: #A80036; stroke-width: 1.0;"/><line style="stroke: #A80036; stroke-width: 1.0;" x1="3" x2="126" y1="91.8281" y2="91.8281"/><text fill="#000000" font-family="sans-serif" font-size="13" lengthAdjust="spacingAndGlyphs" textLength="103" x="16" y="86.9717">execute("clear -f")</text><polygon fill="#A80036" points="297,118.1797,307,122.1797,297,126.1797,301,122.1797" style="stroke: #A80036; stroke-width: 1.0;"/><line style="stroke: #A80036; stroke-width: 1.0;" x1="142" x2="303" y1="122.1797" y2="122.1797"/><text fill="#000000" font-family="sans-serif" font-size="13" lengthAdjust="spacingAndGlyphs" textLength="148" x="151.5" y="117.3232">parseCommand("clear -f")</text><polygon fill="#A80036" points="396.5,132.1797,406.5,136.1797,396.5,140.1797,400.5,136.1797" style="stroke: #A80036; stroke-width: 1.0;"/><line style="stroke: #A80036; stroke-width: 1.0;" x1="319" x2="402.5" y1="136.1797" y2="136.1797"/><rect fill="#3333C4" height="31.6094" style="stroke: #A80036; stroke-width: 1.5;" width="158" x="408.5" y="130.1797"/><text fill="#FFFFFF" font-family="sans-serif" font-size="14" lengthAdjust="spacingAndGlyphs" textLength="144" x="415.5" y="151.7129">:ClearCommandParser</text><polygon fill="#A80036" points="330,174.7891,320,178.7891,330,182.7891,326,178.7891" style="stroke: #A80036; stroke-width: 1.0;"/><line style="stroke: #A80036; stroke-width: 1.0; stroke-dasharray: 2.0,2.0;" x1="324" x2="486.5" y1="178.7891" y2="178.7891"/><polygon fill="#A80036" points="470.5,205.1406,480.5,209.1406,470.5,213.1406,474.5,209.1406" style="stroke: #A80036; stroke-width: 1.0;"/><line style="stroke: #A80036; stroke-width: 1.0;" x1="319" x2="476.5" y1="209.1406" y2="209.1406"/><text fill="#000000" font-family="sans-serif" font-size="13" lengthAdjust="spacingAndGlyphs" textLength="57" x="372.25" y="204.2842">parse("-f")</text><path d="M6,224.1406 L67,224.1406 L67,232.1406 L57,242.1406 L6,242.1406 L6,224.1406 " fill="#EEEEEE" style="stroke: #000000; stroke-width: 1.0;"/><rect fill="none" height="524.3672" style="stroke: #000000; stroke-width: 2.0;" width="915.5" x="6" y="224.1406"/><text fill="#000000" font-family="sans-serif" font-size="13" font-weight="bold" lengthAdjust="spacingAndGlyphs" textLength="16" x="21" y="238.6357">alt</text><text fill="#000000" font-family="sans-serif" font-size="11" font-weight="bold" lengthAdjust="spacingAndGlyphs" textLength="325" x="82" y="237.5596">[if invalid flag or both '-r' and '-o' flags  found in arguments]</text><line style="stroke: #A80036; stroke-width: 1.0;" x1="492.5" x2="539.5" y1="259.8438" y2="259.8438"/><line style="stroke: #A80036; stroke-width: 1.0;" x1="539.5" x2="539.5" y1="259.8438" y2="272.8438"/><line style="stroke: #A80036; stroke-width: 1.0;" x1="498.5" x2="539.5" y1="272.8438" y2="272.8438"/><polygon fill="#A80036" points="508.5,268.8438,498.5,272.8438,508.5,276.8438,504.5,272.8438" style="stroke: #A80036; stroke-width: 1.0;"/><text fill="#000000" font-family="sans-serif" font-size="13" lengthAdjust="spacingAndGlyphs" textLength="106" x="504.5" y="254.9873">retrieveFlags(args)</text><line style="stroke: #A80036; stroke-width: 1.0; stroke-dasharray: 2.0,2.0;" x1="497.5" x2="539.5" y1="313.1953" y2="313.1953"/><line style="stroke: #A80036; stroke-width: 1.0; stroke-dasharray: 2.0,2.0;" x1="539.5" x2="539.5" y1="313.1953" y2="326.1953"/><line style="stroke: #A80036; stroke-width: 1.0; stroke-dasharray: 2.0,2.0;" x1="492.5" x2="539.5" y1="326.1953" y2="326.1953"/><polygon fill="#A80036" points="502.5,322.1953,492.5,326.1953,502.5,330.1953,498.5,326.1953" style="stroke: #A80036; stroke-width: 1.0;"/><text fill="#000000" font-family="sans-serif" font-size="13" lengthAdjust="spacingAndGlyphs" textLength="92" x="504.5" y="308.3389">ParseException</text><polygon fill="#A80036" points="330,347.5469,320,351.5469,330,355.5469,326,351.5469" style="stroke: #A80036; stroke-width: 1.0;"/><line style="stroke: #A80036; stroke-width: 1.0; stroke-dasharray: 2.0,2.0;" x1="324" x2="481.5" y1="351.5469" y2="351.5469"/><text fill="#000000" font-family="sans-serif" font-size="13" lengthAdjust="spacingAndGlyphs" textLength="92" x="354.75" y="346.6904">ParseException</text><polygon fill="#A80036" points="153,377.8984,143,381.8984,153,385.8984,149,381.8984" style="stroke: #A80036; stroke-width: 1.0;"/><line style="stroke: #A80036; stroke-width: 1.0; stroke-dasharray: 2.0,2.0;" x1="147" x2="308" y1="381.8984" y2="381.8984"/><text fill="#000000" font-family="sans-serif" font-size="13" lengthAdjust="spacingAndGlyphs" textLength="92" x="179.5" y="377.042">ParseException</text><polygon fill="#A80036" points="14,408.25,4,412.25,14,416.25,10,412.25" style="stroke: #A80036; stroke-width: 1.0;"/><line style="stroke: #A80036; stroke-width: 1.0; stroke-dasharray: 2.0,2.0;" x1="8" x2="131" y1="412.25" y2="412.25"/><text fill="#000000" font-family="sans-serif" font-size="13" lengthAdjust="spacingAndGlyphs" textLength="92" x="21.5" y="407.3936">ParseException</text><line style="stroke: #000000; stroke-width: 1.0; stroke-dasharray: 2.0,2.0;" x1="6" x2="921.5" y1="421.25" y2="421.25"/><text fill="#000000" font-family="sans-serif" font-size="11" font-weight="bold" lengthAdjust="spacingAndGlyphs" textLength="84" x="11" y="432.6689">[flags are valid]</text><line style="stroke: #A80036; stroke-width: 1.0;" x1="492.5" x2="539.5" y1="453.4375" y2="453.4375"/><line style="stroke: #A80036; stroke-width: 1.0;" x1="539.5" x2="539.5" y1="453.4375" y2="466.4375"/><line style="stroke: #A80036; stroke-width: 1.0;" x1="498.5" x2="539.5" y1="466.4375" y2="466.4375"/><polygon fill="#A80036" points="508.5,462.4375,498.5,466.4375,508.5,470.4375,504.5,466.4375" style="stroke: #A80036; stroke-width: 1.0;"/><text fill="#000000" font-family="sans-serif" font-size="13" lengthAdjust="spacingAndGlyphs" textLength="106" x="504.5" y="448.5811">retrieveFlags(args)</text><line style="stroke: #A80036; stroke-width: 1.0; stroke-dasharray: 2.0,2.0;" x1="497.5" x2="539.5" y1="506.7891" y2="506.7891"/><line style="stroke: #A80036; stroke-width: 1.0; stroke-dasharray: 2.0,2.0;" x1="539.5" x2="539.5" y1="506.7891" y2="519.7891"/><line style="stroke: #A80036; stroke-width: 1.0; stroke-dasharray: 2.0,2.0;" x1="492.5" x2="539.5" y1="519.7891" y2="519.7891"/><polygon fill="#A80036" points="502.5,515.7891,492.5,519.7891,502.5,523.7891,498.5,519.7891" style="stroke: #A80036; stroke-width: 1.0;"/><text fill="#000000" font-family="sans-serif" font-size="13" lengthAdjust="spacingAndGlyphs" textLength="27" x="504.5" y="501.9326">flags</text><polygon fill="#A80036" points="584.5,541.1406,594.5,545.1406,584.5,549.1406,588.5,545.1406" style="stroke: #A80036; stroke-width: 1.0;"/><line style="stroke: #A80036; stroke-width: 1.0;" x1="492.5" x2="590.5" y1="545.1406" y2="545.1406"/><text fill="#000000" font-family="sans-serif" font-size="13" lengthAdjust="spacingAndGlyphs" textLength="27" x="531" y="540.2842">flags</text><rect fill="#3333C4" height="31.6094" style="stroke: #A80036; stroke-width: 1.5;" width="211" x="596.5" y="522.7891"/><text fill="#FFFFFF" font-family="sans-serif" font-size="14" lengthAdjust="spacingAndGlyphs" textLength="197" x="603.5" y="544.3223">clearCommand:ClearCommand</text><polygon fill="#A80036" points="503.5,583.75,493.5,587.75,503.5,591.75,499.5,587.75" style="stroke: #A80036; stroke-width: 1.0;"/><line style="stroke: #A80036; stroke-width: 1.0; stroke-dasharray: 2.0,2.0;" x1="497.5" x2="701" y1="587.75" y2="587.75"/><text fill="#000000" font-family="sans-serif" font-size="13" lengthAdjust="spacingAndGlyphs" textLength="87" x="553.75" y="582.8936">clearCommand</text><polygon fill="#A80036" points="330,614.1016,320,618.1016,330,622.1016,326,618.1016" style="stroke: #A80036; stroke-width: 1.0;"/><line style="stroke: #A80036; stroke-width: 1.0; stroke-dasharray: 2.0,2.0;" x1="324" x2="486.5" y1="618.1016" y2="618.1016"/><text fill="#000000" font-family="sans-serif" font-size="13" lengthAdjust="spacingAndGlyphs" textLength="87" x="359.75" y="613.2451">clearCommand</text><line style="stroke: #A80036; stroke-width: 2.0;" x1="478.5" x2="496.5" y1="623.1016" y2="641.1016"/><line style="stroke: #A80036; stroke-width: 2.0;" x1="478.5" x2="496.5" y1="641.1016" y2="623.1016"/><polygon fill="#A80036" points="153,658.4531,143,662.4531,153,666.4531,149,662.4531" style="stroke: #A80036; stroke-width: 1.0;"/><line style="stroke: #A80036; stroke-width: 1.0; stroke-dasharray: 2.0,2.0;" x1="147" x2="313" y1="662.4531" y2="662.4531"/><text fill="#000000" font-family="sans-serif" font-size="13" lengthAdjust="spacingAndGlyphs" textLength="87" x="184.5" y="657.5967">clearCommand</text><rect fill="#FFFFFF" height="42.7031" style="stroke: #000000; stroke-width: 2.0;" width="844.5" x="70" y="670.4531"/><polygon fill="#EEEEEE" points="70,670.4531,132,670.4531,132,678.4531,122,688.4531,70,688.4531,70,670.4531" style="stroke: #000000; stroke-width: 2.0;"/><text fill="#000000" font-family="sans-serif" font-size="13" font-weight="bold" lengthAdjust="spacingAndGlyphs" textLength="17" x="83" y="685.9482">ref</text><text fill="#000000" font-family="sans-serif" font-size="13" lengthAdjust="spacingAndGlyphs" textLength="139" x="422.75" y="705.9482">execute clear command</text><polygon fill="#A80036" points="14,736.5078,4,740.5078,14,744.5078,10,740.5078" style="stroke: #A80036; stroke-width: 1.0;"/><line style="stroke: #A80036; stroke-width: 1.0; stroke-dasharray: 2.0,2.0;" x1="8" x2="131" y1="740.5078" y2="740.5078"/><text fill="#000000" font-family="sans-serif" font-size="13" lengthAdjust="spacingAndGlyphs" textLength="32" x="51.5" y="735.6514">result</text><!--MD5=[26567f129b1ae2cfa58672938956e4dd]
@startuml








skinparam BackgroundColor #FFFFFFF

skinparam Shadowing false

skinparam Class {
    FontColor #FFFFFF
    BorderThickness 1
    BorderColor #FFFFFF
    StereotypeFontColor #FFFFFF
    FontName Arial
}

skinparam Actor {
    BorderColor #000000
    Color #000000
    FontName Arial
}

skinparam Sequence {
    MessageAlign center
    BoxFontSize 15
    BoxPadding 0
    BoxFontColor #FFFFFF
    FontName Arial
}

skinparam Participant {
    FontColor #FFFFFFF
    Padding 20
}

skinparam MinClassWidth 50
skinparam ParticipantPadding 10
skinparam Shadowing false
skinparam DefaultTextAlignment center
skinparam packageStyle Rectangle

hide footbox
hide members
hide circle
box Logic #C8C8FA
participant ":LogicManager" as LogicManager #3333C4
participant ":OrderBookParser" as OrderBookParser #3333C4
participant ":ClearCommandParser" as ClearCommandParser #3333C4
participant "clearCommand:ClearCommand" as ClearCommand #3333C4
end box

box Model #F97181
participant ":Model" as Model #9D0012
end box

[-> LogicManager : execute("clear -f")
activate LogicManager

LogicManager -> OrderBookParser : parseCommand("clear -f")
activate OrderBookParser

create ClearCommandParser
OrderBookParser -> ClearCommandParser ++

ClearCommandParser - -> OrderBookParser - -

OrderBookParser -> ClearCommandParser ++ : parse("-f")

alt if invalid flag or both '-r' and '-o' flags  found in arguments
    ClearCommandParser -> ClearCommandParser ++ : retrieveFlags(args)
    ClearCommandParser - -> ClearCommandParser - - : ParseException
    ClearCommandParser - -> OrderBookParser : ParseException
    OrderBookParser - -> LogicManager : ParseException
    [<- - LogicManager : ParseException
else flags are valid
    ClearCommandParser -> ClearCommandParser ++ : retrieveFlags(args)

    ClearCommandParser - -> ClearCommandParser - - : flags
    
    create ClearCommand
    ClearCommandParser -> ClearCommand ++ : flags
    
    ClearCommand - -> ClearCommandParser - - : clearCommand
    
    ClearCommandParser - -> OrderBookParser - - : clearCommand
    ClearCommandParser -[hidden]-> OrderBookParser
    destroy ClearCommandParser
    
    OrderBookParser - -> LogicManager - - : clearCommand
    
    ref over LogicManager,  Model : execute clear command

[<- -LogicManager : result
end
deactivate LogicManager
@enduml

PlantUML version 1.2019.11(Sun Sep 22 18:02:15 SGT 2019)
(GPL source distribution)
Java Runtime: OpenJDK Runtime Environment
JVM: OpenJDK 64-Bit Server VM
Java Version: 11.0.5+10-b520.30
Operating System: Windows 10
Default Encoding: UTF-8
Language: en
Country: US
--></g></svg>
