<?xml version="1.0" encoding="UTF-8" standalone="no"?><svg xmlns="http://www.w3.org/2000/svg" xmlns:xlink="http://www.w3.org/1999/xlink" contentScriptType="application/ecmascript" contentStyleType="text/css" height="737px" preserveAspectRatio="none" style="width:1365px;height:737px;" version="1.1" viewBox="0 0 1365 737" width="1365px" zoomAndPan="magnify"><defs><filter height="300%" id="fz8n8g6plze67" width="300%" x="-1" y="-1"><feGaussianBlur result="blurOut" stdDeviation="2.0"/><feColorMatrix in="blurOut" result="blurOut2" type="matrix" values="0 0 0 0 0 0 0 0 0 0 0 0 0 0 0 0 0 0 .4 0"/><feOffset dx="4.0" dy="4.0" in="blurOut2" result="blurOut3"/><feBlend in="SourceGraphic" in2="blurOut3" mode="normal"/></filter></defs><g><ellipse cx="428.3438" cy="20" fill="#000000" filter="url(#fz8n8g6plze67)" rx="10" ry="10" style="stroke: none; stroke-width: 1.0;"/><rect fill="#FEFECE" filter="url(#fz8n8g6plze67)" height="35.0938" rx="12.5" ry="12.5" style="stroke: #A80036; stroke-width: 1.5;" width="167" x="344.8438" y="50"/><text fill="#000000" font-family="sans-serif" font-size="12" lengthAdjust="spacingAndGlyphs" textLength="147" x="354.8438" y="72.457">User enter clear command</text><polygon fill="#FEFECE" filter="url(#fz8n8g6plze67)" points="428.3438,105.0938,428.3438,105.0938,440.3438,117.0938,428.3438,129.0938,428.3438,129.0938,416.3438,117.0938,428.3438,105.0938" style="stroke: #A80036; stroke-width: 1.5;"/><text fill="#000000" font-family="sans-serif" font-size="11" lengthAdjust="spacingAndGlyphs" textLength="278" x="138.3438" y="114.6768">[invalid flag or both `-r` and `-o` flags found in arguments]</text><text fill="#000000" font-family="sans-serif" font-size="11" lengthAdjust="spacingAndGlyphs" textLength="26" x="440.3438" y="114.6768">[else]</text><rect fill="#FEFECE" filter="url(#fz8n8g6plze67)" height="35.0938" rx="12.5" ry="12.5" style="stroke: #A80036; stroke-width: 1.5;" width="187" x="10" y="139.0938"/><text fill="#000000" font-family="sans-serif" font-size="12" lengthAdjust="spacingAndGlyphs" textLength="167" x="20" y="161.5508">Display error message to user</text><rect fill="#FEFECE" filter="url(#fz8n8g6plze67)" height="35.0938" rx="12.5" ry="12.5" style="stroke: #A80036; stroke-width: 1.5;" width="149" x="678.6875" y="139.0938"/><text fill="#000000" font-family="sans-serif" font-size="12" lengthAdjust="spacingAndGlyphs" textLength="129" x="688.6875" y="161.5508">Executes the command</text><polygon fill="#FEFECE" filter="url(#fz8n8g6plze67)" points="753.1875,194.1875,753.1875,194.1875,765.1875,206.1875,753.1875,218.1875,753.1875,218.1875,741.1875,206.1875,753.1875,194.1875" style="stroke: #A80036; stroke-width: 1.5;"/><text fill="#000000" font-family="sans-serif" font-size="11" lengthAdjust="spacingAndGlyphs" textLength="114" x="627.1875" y="203.7705">([flags contains '-f' flag]</text><text fill="#000000" font-family="sans-serif" font-size="11" lengthAdjust="spacingAndGlyphs" textLength="26" x="765.1875" y="203.7705">[else]</text><polygon fill="#FEFECE" filter="url(#fz8n8g6plze67)" points="404.625,228.1875,404.625,228.1875,416.625,240.1875,404.625,252.1875,404.625,252.1875,392.625,240.1875,404.625,228.1875" style="stroke: #A80036; stroke-width: 1.5;"/><text fill="#000000" font-family="sans-serif" font-size="11" lengthAdjust="spacingAndGlyphs" textLength="135" x="257.625" y="237.7705">[flags also contains '-o' flag]</text><text fill="#000000" font-family="sans-serif" font-size="11" lengthAdjust="spacingAndGlyphs" textLength="26" x="416.625" y="237.7705">[else]</text><rect fill="#FEFECE" filter="url(#fz8n8g6plze67)" height="35.0938" rx="12.5" ry="12.5" style="stroke: #A80036; stroke-width: 1.5;" width="105" x="237" y="262.1875"/><text fill="#000000" font-family="sans-serif" font-size="12" lengthAdjust="spacingAndGlyphs" textLength="85" x="247" y="284.6445">Clear all orders</text><polygon fill="#FEFECE" filter="url(#fz8n8g6plze67)" points="519.75,262.1875,519.75,262.1875,531.75,274.1875,519.75,286.1875,519.75,286.1875,507.75,274.1875,519.75,262.1875" style="stroke: #A80036; stroke-width: 1.5;"/><text fill="#000000" font-family="sans-serif" font-size="11" lengthAdjust="spacingAndGlyphs" textLength="127" x="380.75" y="271.7705">[flags also contain '-r' flag]</text><text fill="#000000" font-family="sans-serif" font-size="11" lengthAdjust="spacingAndGlyphs" textLength="129" x="531.75" y="271.7705">[flags only contains 'f' flag]</text><rect fill="#FEFECE" filter="url(#fz8n8g6plze67)" height="35.0938" rx="12.5" ry="12.5" style="stroke: #A80036; stroke-width: 1.5;" width="143" x="372" y="296.1875"/><text fill="#000000" font-family="sans-serif" font-size="12" lengthAdjust="spacingAndGlyphs" textLength="120" x="382" y="318.6445">Clear all return orders</text><rect fill="#FEFECE" filter="url(#fz8n8g6plze67)" height="50.1875" rx="12.5" ry="12.5" style="stroke: #A80036; stroke-width: 1.5;" width="122" x="535" y="296.1875"/><text fill="#000000" font-family="sans-serif" font-size="12" lengthAdjust="spacingAndGlyphs" textLength="102" x="545" y="318.6445">Clear all order and</text><text fill="#000000" font-family="sans-serif" font-size="12" lengthAdjust="spacingAndGlyphs" textLength="71" x="548" y="333.7383">return orders</text><polygon fill="#FEFECE" filter="url(#fz8n8g6plze67)" points="519.75,352.375,531.75,364.375,519.75,376.375,507.75,364.375,519.75,352.375" style="stroke: #A80036; stroke-width: 1.5;"/><polygon fill="#FEFECE" filter="url(#fz8n8g6plze67)" points="404.625,382.375,416.625,394.375,404.625,406.375,392.625,394.375,404.625,382.375" style="stroke: #A80036; stroke-width: 1.5;"/><rect fill="#FEFECE" filter="url(#fz8n8g6plze67)" height="35.0938" rx="12.5" ry="12.5" style="stroke: #A80036; stroke-width: 1.5;" width="230" x="289.625" y="426.375"/><text fill="#000000" font-family="sans-serif" font-size="12" lengthAdjust="spacingAndGlyphs" textLength="210" x="299.625" y="448.832">Display success message to the User</text><polygon fill="#FEFECE" filter="url(#fz8n8g6plze67)" points="1101.75,228.1875,1101.75,228.1875,1113.75,240.1875,1101.75,252.1875,1101.75,252.1875,1089.75,240.1875,1101.75,228.1875" style="stroke: #A80036; stroke-width: 1.5;"/><text fill="#000000" font-family="sans-serif" font-size="11" lengthAdjust="spacingAndGlyphs" textLength="139" x="950.75" y="237.7705">[flags do not contains 'f' flag]</text><text fill="#000000" font-family="sans-serif" font-size="11" lengthAdjust="spacingAndGlyphs" textLength="90" x="1113.75" y="237.7705">[flags equal to null]</text><polygon fill="#FEFECE" filter="url(#fz8n8g6plze67)" points="935,262.1875,935,262.1875,947,274.1875,935,286.1875,935,286.1875,923,274.1875,935,262.1875" style="stroke: #A80036; stroke-width: 1.5;"/><text fill="#000000" font-family="sans-serif" font-size="11" lengthAdjust="spacingAndGlyphs" textLength="112" x="811" y="271.7705">[flags contains '-o' flag]</text><text fill="#000000" font-family="sans-serif" font-size="11" lengthAdjust="spacingAndGlyphs" textLength="106" x="947" y="271.7705">[flags contains 'r' flag]</text><rect fill="#FEFECE" filter="url(#fz8n8g6plze67)" height="50.1875" rx="12.5" ry="12.5" style="stroke: #A80036; stroke-width: 1.5;" width="208" x="717" y="296.1875"/><text fill="#000000" font-family="sans-serif" font-size="12" lengthAdjust="spacingAndGlyphs" textLength="188" x="727" y="318.6445">Display the confirmation message</text><text fill="#000000" font-family="sans-serif" font-size="12" lengthAdjust="spacingAndGlyphs" textLength="136" x="730" y="333.7383">to clear all orders to user</text><rect fill="#FEFECE" filter="url(#fz8n8g6plze67)" height="50.1875" rx="12.5" ry="12.5" style="stroke: #A80036; stroke-width: 1.5;" width="208" x="945" y="296.1875"/><text fill="#000000" font-family="sans-serif" font-size="12" lengthAdjust="spacingAndGlyphs" textLength="188" x="955" y="318.6445">Display the confirmation message</text><text fill="#000000" font-family="sans-serif" font-size="12" lengthAdjust="spacingAndGlyphs" textLength="171" x="958" y="333.7383">to clear all return orders to user</text><polygon fill="#FEFECE" filter="url(#fz8n8g6plze67)" points="935,352.375,947,364.375,935,376.375,923,364.375,935,352.375" style="stroke: #A80036; stroke-width: 1.5;"/><rect fill="#FEFECE" filter="url(#fz8n8g6plze67)" height="65.2813" rx="12.5" ry="12.5" style="stroke: #A80036; stroke-width: 1.5;" width="171" x="1183" y="262.1875"/><text fill="#000000" font-family="sans-serif" font-size="12" lengthAdjust="spacingAndGlyphs" textLength="132" x="1193" y="284.6445">Display the confirmation</text><text fill="#000000" font-family="sans-serif" font-size="12" lengthAdjust="spacingAndGlyphs" textLength="151" x="1193" y="299.7383">message to clear all orders</text><text fill="#000000" font-family="sans-serif" font-size="12" lengthAdjust="spacingAndGlyphs" textLength="136" x="1193" y="314.832">and return orders to user</text><polygon fill="#FEFECE" filter="url(#fz8n8g6plze67)" points="1101.75,382.375,1113.75,394.375,1101.75,406.375,1089.75,394.375,1101.75,382.375" style="stroke: #A80036; stroke-width: 1.5;"/><rect fill="#FEFECE" filter="url(#fz8n8g6plze67)" height="35.0938" rx="12.5" ry="12.5" style="stroke: #A80036; stroke-width: 1.5;" width="302" x="950.75" y="475.293"/><text fill="#000000" font-family="sans-serif" font-size="12" lengthAdjust="spacingAndGlyphs" textLength="282" x="960.75" y="497.75">Clear the respective orders based on the command</text><rect fill="#FEFECE" filter="url(#fz8n8g6plze67)" height="35.0938" rx="12.5" ry="12.5" style="stroke: #A80036; stroke-width: 1.5;" width="238" x="982.75" y="545.3867"/><text fill="#000000" font-family="sans-serif" font-size="12" lengthAdjust="spacingAndGlyphs" textLength="218" x="992.75" y="567.8438">Display clear success message to user</text><polygon fill="#FEFECE" filter="url(#fz8n8g6plze67)" points="1101.75,426.375,1101.75,426.375,1113.75,438.375,1101.75,450.375,1101.75,450.375,1089.75,438.375,1101.75,426.375" style="stroke: #A80036; stroke-width: 1.5;"/><text fill="#000000" font-family="sans-serif" font-size="11" lengthAdjust="spacingAndGlyphs" textLength="114" x="1105.75" y="461.7939">[User press yes button]</text><text fill="#000000" font-family="sans-serif" font-size="11" lengthAdjust="spacingAndGlyphs" textLength="108" x="1113.75" y="435.958">[User press no button]</text><polygon fill="#FEFECE" filter="url(#fz8n8g6plze67)" points="1101.75,600.4805,1113.75,612.4805,1101.75,624.4805,1089.75,612.4805,1101.75,600.4805" style="stroke: #A80036; stroke-width: 1.5;"/><polygon fill="#FEFECE" filter="url(#fz8n8g6plze67)" points="753.1875,630.4805,765.1875,642.4805,753.1875,654.4805,741.1875,642.4805,753.1875,630.4805" style="stroke: #A80036; stroke-width: 1.5;"/><polygon fill="#FEFECE" filter="url(#fz8n8g6plze67)" points="428.3438,660.4805,440.3438,672.4805,428.3438,684.4805,416.3438,672.4805,428.3438,660.4805" style="stroke: #A80036; stroke-width: 1.5;"/><ellipse cx="428.3438" cy="715.4805" fill="#FFFFFF" filter="url(#fz8n8g6plze67)" rx="11" ry="11" style="stroke: #000000; stroke-width: 1.0;"/><ellipse cx="428.3438" cy="715.4805" fill="#000000" rx="6" ry="6" style="stroke: #7F7F7F; stroke-width: 1.0;"/><line style="stroke: #A80036; stroke-width: 1.5;" x1="428.3438" x2="428.3438" y1="30" y2="50"/><polygon fill="#A80036" points="424.3438,40,428.3438,50,432.3438,40,428.3438,44" style="stroke: #A80036; stroke-width: 1.0;"/><line style="stroke: #A80036; stroke-width: 1.5;" x1="507.75" x2="443.5" y1="274.1875" y2="274.1875"/><line style="stroke: #A80036; stroke-width: 1.5;" x1="443.5" x2="443.5" y1="274.1875" y2="296.1875"/><polygon fill="#A80036" points="439.5,286.1875,443.5,296.1875,447.5,286.1875,443.5,290.1875" style="stroke: #A80036; stroke-width: 1.0;"/><line style="stroke: #A80036; stroke-width: 1.5;" x1="531.75" x2="596" y1="274.1875" y2="274.1875"/><line style="stroke: #A80036; stroke-width: 1.5;" x1="596" x2="596" y1="274.1875" y2="296.1875"/><polygon fill="#A80036" points="592,286.1875,596,296.1875,600,286.1875,596,290.1875" style="stroke: #A80036; stroke-width: 1.0;"/><line style="stroke: #A80036; stroke-width: 1.5;" x1="443.5" x2="443.5" y1="331.2813" y2="364.375"/><line style="stroke: #A80036; stroke-width: 1.5;" x1="443.5" x2="507.75" y1="364.375" y2="364.375"/><polygon fill="#A80036" points="497.75,360.375,507.75,364.375,497.75,368.375,501.75,364.375" style="stroke: #A80036; stroke-width: 1.0;"/><line style="stroke: #A80036; stroke-width: 1.5;" x1="596" x2="596" y1="346.375" y2="364.375"/><line style="stroke: #A80036; stroke-width: 1.5;" x1="596" x2="531.75" y1="364.375" y2="364.375"/><polygon fill="#A80036" points="541.75,360.375,531.75,364.375,541.75,368.375,537.75,364.375" style="stroke: #A80036; stroke-width: 1.0;"/><line style="stroke: #A80036; stroke-width: 1.5;" x1="392.625" x2="289.5" y1="240.1875" y2="240.1875"/><line style="stroke: #A80036; stroke-width: 1.5;" x1="289.5" x2="289.5" y1="240.1875" y2="262.1875"/><polygon fill="#A80036" points="285.5,252.1875,289.5,262.1875,293.5,252.1875,289.5,256.1875" style="stroke: #A80036; stroke-width: 1.0;"/><line style="stroke: #A80036; stroke-width: 1.5;" x1="416.625" x2="519.75" y1="240.1875" y2="240.1875"/><line style="stroke: #A80036; stroke-width: 1.5;" x1="519.75" x2="519.75" y1="240.1875" y2="262.1875"/><polygon fill="#A80036" points="515.75,252.1875,519.75,262.1875,523.75,252.1875,519.75,256.1875" style="stroke: #A80036; stroke-width: 1.0;"/><line style="stroke: #A80036; stroke-width: 1.5;" x1="289.5" x2="289.5" y1="297.2813" y2="394.375"/><line style="stroke: #A80036; stroke-width: 1.5;" x1="289.5" x2="392.625" y1="394.375" y2="394.375"/><polygon fill="#A80036" points="382.625,390.375,392.625,394.375,382.625,398.375,386.625,394.375" style="stroke: #A80036; stroke-width: 1.0;"/><line style="stroke: #A80036; stroke-width: 1.5;" x1="519.75" x2="519.75" y1="376.375" y2="394.375"/><line style="stroke: #A80036; stroke-width: 1.5;" x1="519.75" x2="416.625" y1="394.375" y2="394.375"/><polygon fill="#A80036" points="426.625,390.375,416.625,394.375,426.625,398.375,422.625,394.375" style="stroke: #A80036; stroke-width: 1.0;"/><line style="stroke: #A80036; stroke-width: 1.5;" x1="404.625" x2="404.625" y1="406.375" y2="426.375"/><polygon fill="#A80036" points="400.625,416.375,404.625,426.375,408.625,416.375,404.625,420.375" style="stroke: #A80036; stroke-width: 1.0;"/><line style="stroke: #A80036; stroke-width: 1.5;" x1="923" x2="821" y1="274.1875" y2="274.1875"/><line style="stroke: #A80036; stroke-width: 1.5;" x1="821" x2="821" y1="274.1875" y2="296.1875"/><polygon fill="#A80036" points="817,286.1875,821,296.1875,825,286.1875,821,290.1875" style="stroke: #A80036; stroke-width: 1.0;"/><line style="stroke: #A80036; stroke-width: 1.5;" x1="947" x2="1049" y1="274.1875" y2="274.1875"/><line style="stroke: #A80036; stroke-width: 1.5;" x1="1049" x2="1049" y1="274.1875" y2="296.1875"/><polygon fill="#A80036" points="1045,286.1875,1049,296.1875,1053,286.1875,1049,290.1875" style="stroke: #A80036; stroke-width: 1.0;"/><line style="stroke: #A80036; stroke-width: 1.5;" x1="821" x2="821" y1="346.375" y2="364.375"/><line style="stroke: #A80036; stroke-width: 1.5;" x1="821" x2="923" y1="364.375" y2="364.375"/><polygon fill="#A80036" points="913,360.375,923,364.375,913,368.375,917,364.375" style="stroke: #A80036; stroke-width: 1.0;"/><line style="stroke: #A80036; stroke-width: 1.5;" x1="1049" x2="1049" y1="346.375" y2="364.375"/><line style="stroke: #A80036; stroke-width: 1.5;" x1="1049" x2="947" y1="364.375" y2="364.375"/><polygon fill="#A80036" points="957,360.375,947,364.375,957,368.375,953,364.375" style="stroke: #A80036; stroke-width: 1.0;"/><line style="stroke: #A80036; stroke-width: 1.5;" x1="1089.75" x2="935" y1="240.1875" y2="240.1875"/><line style="stroke: #A80036; stroke-width: 1.5;" x1="935" x2="935" y1="240.1875" y2="262.1875"/><polygon fill="#A80036" points="931,252.1875,935,262.1875,939,252.1875,935,256.1875" style="stroke: #A80036; stroke-width: 1.0;"/><line style="stroke: #A80036; stroke-width: 1.5;" x1="1113.75" x2="1268.5" y1="240.1875" y2="240.1875"/><line style="stroke: #A80036; stroke-width: 1.5;" x1="1268.5" x2="1268.5" y1="240.1875" y2="262.1875"/><polygon fill="#A80036" points="1264.5,252.1875,1268.5,262.1875,1272.5,252.1875,1268.5,256.1875" style="stroke: #A80036; stroke-width: 1.0;"/><line style="stroke: #A80036; stroke-width: 1.5;" x1="935" x2="935" y1="376.375" y2="394.375"/><line style="stroke: #A80036; stroke-width: 1.5;" x1="935" x2="1089.75" y1="394.375" y2="394.375"/><polygon fill="#A80036" points="1079.75,390.375,1089.75,394.375,1079.75,398.375,1083.75,394.375" style="stroke: #A80036; stroke-width: 1.0;"/><line style="stroke: #A80036; stroke-width: 1.5;" x1="1268.5" x2="1268.5" y1="327.4688" y2="394.375"/><line style="stroke: #A80036; stroke-width: 1.5;" x1="1268.5" x2="1113.75" y1="394.375" y2="394.375"/><polygon fill="#A80036" points="1123.75,390.375,1113.75,394.375,1123.75,398.375,1119.75,394.375" style="stroke: #A80036; stroke-width: 1.0;"/><line style="stroke: #A80036; stroke-width: 1.5;" x1="1101.75" x2="1101.75" y1="510.3867" y2="545.3867"/><polygon fill="#A80036" points="1097.75,535.3867,1101.75,545.3867,1105.75,535.3867,1101.75,539.3867" style="stroke: #A80036; stroke-width: 1.0;"/><line style="stroke: #A80036; stroke-width: 1.5;" x1="1101.75" x2="1101.75" y1="450.375" y2="475.293"/><polygon fill="#A80036" points="1097.75,465.293,1101.75,475.293,1105.75,465.293,1101.75,469.293" style="stroke: #A80036; stroke-width: 1.0;"/><line style="stroke: #A80036; stroke-width: 1.5;" x1="1113.75" x2="1262.75" y1="438.375" y2="438.375"/><polygon fill="#A80036" points="1258.75,517.8867,1262.75,527.8867,1266.75,517.8867,1262.75,521.8867" style="stroke: #A80036; stroke-width: 1.5;"/><line style="stroke: #A80036; stroke-width: 1.5;" x1="1262.75" x2="1262.75" y1="438.375" y2="612.4805"/><line style="stroke: #A80036; stroke-width: 1.5;" x1="1262.75" x2="1113.75" y1="612.4805" y2="612.4805"/><polygon fill="#A80036" points="1123.75,608.4805,1113.75,612.4805,1123.75,616.4805,1119.75,612.4805" style="stroke: #A80036; stroke-width: 1.0;"/><line style="stroke: #A80036; stroke-width: 1.5;" x1="1101.75" x2="1101.75" y1="580.4805" y2="600.4805"/><polygon fill="#A80036" points="1097.75,590.4805,1101.75,600.4805,1105.75,590.4805,1101.75,594.4805" style="stroke: #A80036; stroke-width: 1.0;"/><line style="stroke: #A80036; stroke-width: 1.5;" x1="1101.75" x2="1101.75" y1="406.375" y2="426.375"/><polygon fill="#A80036" points="1097.75,416.375,1101.75,426.375,1105.75,416.375,1101.75,420.375" style="stroke: #A80036; stroke-width: 1.0;"/><line style="stroke: #A80036; stroke-width: 1.5;" x1="741.1875" x2="404.625" y1="206.1875" y2="206.1875"/><line style="stroke: #A80036; stroke-width: 1.5;" x1="404.625" x2="404.625" y1="206.1875" y2="228.1875"/><polygon fill="#A80036" points="400.625,218.1875,404.625,228.1875,408.625,218.1875,404.625,222.1875" style="stroke: #A80036; stroke-width: 1.0;"/><line style="stroke: #A80036; stroke-width: 1.5;" x1="765.1875" x2="1101.75" y1="206.1875" y2="206.1875"/><line style="stroke: #A80036; stroke-width: 1.5;" x1="1101.75" x2="1101.75" y1="206.1875" y2="228.1875"/><polygon fill="#A80036" points="1097.75,218.1875,1101.75,228.1875,1105.75,218.1875,1101.75,222.1875" style="stroke: #A80036; stroke-width: 1.0;"/><line style="stroke: #A80036; stroke-width: 1.5;" x1="404.625" x2="404.625" y1="461.4688" y2="642.4805"/><line style="stroke: #A80036; stroke-width: 1.5;" x1="404.625" x2="741.1875" y1="642.4805" y2="642.4805"/><polygon fill="#A80036" points="731.1875,638.4805,741.1875,642.4805,731.1875,646.4805,735.1875,642.4805" style="stroke: #A80036; stroke-width: 1.0;"/><line style="stroke: #A80036; stroke-width: 1.5;" x1="1101.75" x2="1101.75" y1="624.4805" y2="642.4805"/><line style="stroke: #A80036; stroke-width: 1.5;" x1="1101.75" x2="765.1875" y1="642.4805" y2="642.4805"/><polygon fill="#A80036" points="775.1875,638.4805,765.1875,642.4805,775.1875,646.4805,771.1875,642.4805" style="stroke: #A80036; stroke-width: 1.0;"/><line style="stroke: #A80036; stroke-width: 1.5;" x1="753.1875" x2="753.1875" y1="174.1875" y2="194.1875"/><polygon fill="#A80036" points="749.1875,184.1875,753.1875,194.1875,757.1875,184.1875,753.1875,188.1875" style="stroke: #A80036; stroke-width: 1.0;"/><line style="stroke: #A80036; stroke-width: 1.5;" x1="416.3438" x2="103.5" y1="117.0938" y2="117.0938"/><line style="stroke: #A80036; stroke-width: 1.5;" x1="103.5" x2="103.5" y1="117.0938" y2="139.0938"/><polygon fill="#A80036" points="99.5,129.0938,103.5,139.0938,107.5,129.0938,103.5,133.0938" style="stroke: #A80036; stroke-width: 1.0;"/><line style="stroke: #A80036; stroke-width: 1.5;" x1="440.3438" x2="753.1875" y1="117.0938" y2="117.0938"/><line style="stroke: #A80036; stroke-width: 1.5;" x1="753.1875" x2="753.1875" y1="117.0938" y2="139.0938"/><polygon fill="#A80036" points="749.1875,129.0938,753.1875,139.0938,757.1875,129.0938,753.1875,133.0938" style="stroke: #A80036; stroke-width: 1.0;"/><line style="stroke: #A80036; stroke-width: 1.5;" x1="103.5" x2="103.5" y1="174.1875" y2="672.4805"/><line style="stroke: #A80036; stroke-width: 1.5;" x1="103.5" x2="416.3438" y1="672.4805" y2="672.4805"/><polygon fill="#A80036" points="406.3438,668.4805,416.3438,672.4805,406.3438,676.4805,410.3438,672.4805" style="stroke: #A80036; stroke-width: 1.0;"/><line style="stroke: #A80036; stroke-width: 1.5;" x1="753.1875" x2="753.1875" y1="654.4805" y2="672.4805"/><line style="stroke: #A80036; stroke-width: 1.5;" x1="753.1875" x2="440.3438" y1="672.4805" y2="672.4805"/><polygon fill="#A80036" points="450.3438,668.4805,440.3438,672.4805,450.3438,676.4805,446.3438,672.4805" style="stroke: #A80036; stroke-width: 1.0;"/><line style="stroke: #A80036; stroke-width: 1.5;" x1="428.3438" x2="428.3438" y1="85.0938" y2="105.0938"/><polygon fill="#A80036" points="424.3438,95.0938,428.3438,105.0938,432.3438,95.0938,428.3438,99.0938" style="stroke: #A80036; stroke-width: 1.0;"/><line style="stroke: #A80036; stroke-width: 1.5;" x1="428.3438" x2="428.3438" y1="684.4805" y2="704.4805"/><polygon fill="#A80036" points="424.3438,694.4805,428.3438,704.4805,432.3438,694.4805,428.3438,698.4805" style="stroke: #A80036; stroke-width: 1.0;"/><!--MD5=[25914ffc1871b92443725d4d6f68ea8b]
@startuml

start
:User enter clear command;
if () then ([invalid flag or both `-r` and `-o` flags found in arguments])
:Display error message to user;
else ([else])
:Executes the command;

if () then (([flags contains '-f' flag])
    if () then ([flags also contains '-o' flag])
    :Clear all orders;
    else ([else])
        if() then ([flags also contain '-r' flag])
        :Clear all return orders ;
        else ([flags only contains 'f' flag])
        :Clear all order and
         return orders;
        endif
    endif
    :Display success message to the User;

else ([else])
    if() then([flags do not contains 'f' flag])
        if () then ([flags contains '-o' flag])
            :Display the confirmation message
             to clear all orders to user;
        else ([flags contains 'r' flag])
            :Display the confirmation message
             to clear all return orders to user;
        endif
    else ([flags equal to null])
    :Display the confirmation
    message to clear all orders
    and return orders to user;
    endif
    if () then ([User press yes button])
        :Clear the respective orders based on the command;
        :Display clear success message to user;
    else ([User press no button])
    endif
endif
endif
stop
@enduml

PlantUML version 1.2019.11(Sun Sep 22 18:02:15 SGT 2019)
(GPL source distribution)
Java Runtime: OpenJDK Runtime Environment
JVM: OpenJDK 64-Bit Server VM
Java Version: 11.0.5+10-b520.30
Operating System: Windows 10
Default Encoding: UTF-8
Language: en
Country: US
--></g></svg>
