<?xml version="1.0" encoding="UTF-8" standalone="no"?><svg xmlns="http://www.w3.org/2000/svg" xmlns:xlink="http://www.w3.org/1999/xlink" contentScriptType="application/ecmascript" contentStyleType="text/css" height="777px" preserveAspectRatio="none" style="width:919px;height:777px;" version="1.1" viewBox="0 0 919 777" width="919px" zoomAndPan="magnify"><defs/><g><rect fill="#C8C8FA" height="755.5078" style="stroke: #A80036; stroke-width: 1.0;" width="738" x="69" y="4"/><text fill="#FFFFFF" font-family="sans-serif" font-size="15" font-weight="bold" lengthAdjust="spacingAndGlyphs" textLength="39" x="416.5" y="19.5713">Logic</text><rect fill="#F97181" height="755.5078" style="stroke: #A80036; stroke-width: 1.0;" width="92" x="809" y="4"/><text fill="#FFFFFF" font-family="sans-serif" font-size="15" font-weight="bold" lengthAdjust="spacingAndGlyphs" textLength="44" x="831" y="19.5713">Model</text><rect fill="#FFFFFF" height="663.6797" style="stroke: #A80036; stroke-width: 1.0;" width="10" x="132" y="91.8281"/><rect fill="#FFFFFF" height="540.2734" style="stroke: #A80036; stroke-width: 1.0;" width="10" x="309" y="122.1797"/><rect fill="#FFFFFF" height="32.6094" style="stroke: #A80036; stroke-width: 1.0;" width="10" x="468" y="146.1797"/><rect fill="#FFFFFF" height="408.9609" style="stroke: #A80036; stroke-width: 1.0;" width="10" x="468" y="209.1406"/><rect fill="#FFFFFF" height="41.3516" style="stroke: #A80036; stroke-width: 1.0;" width="10" x="473" y="272.8438"/><rect fill="#FFFFFF" height="41.3516" style="stroke: #A80036; stroke-width: 1.0;" width="10" x="473" y="466.4375"/><rect fill="#FFFFFF" height="32.6094" style="stroke: #A80036; stroke-width: 1.0;" width="10" x="682.5" y="555.1406"/><rect fill="#3333C4" height="31.6094" style="stroke: #A80036; stroke-width: 1.5;" width="158" x="394" y="130.1797"/><text fill="#FFFFFF" font-family="sans-serif" font-size="14" lengthAdjust="spacingAndGlyphs" textLength="144" x="401" y="151.7129">:ClearCommandParser</text><rect fill="#FFFFFF" height="524.3672" style="stroke: #000000; stroke-width: 2.0;" width="901" x="6" y="224.1406"/><rect fill="#FFFFFF" height="328.2578" style="stroke: none; stroke-width: 1.0;" width="901" x="6" y="420.25"/><rect fill="#3333C4" height="31.6094" style="stroke: #A80036; stroke-width: 1.5;" width="211" x="582" y="522.7891"/><text fill="#FFFFFF" font-family="sans-serif" font-size="14" lengthAdjust="spacingAndGlyphs" textLength="197" x="589" y="544.3223">clearCommand:ClearCommand</text><line style="stroke: #A80036; stroke-width: 1.0; stroke-dasharray: 5.0,5.0;" x1="137" x2="137" y1="59.4766" y2="765.5078"/><line style="stroke: #A80036; stroke-width: 1.0; stroke-dasharray: 5.0,5.0;" x1="314" x2="314" y1="59.4766" y2="765.5078"/><line style="stroke: #A80036; stroke-width: 1.0; stroke-dasharray: 5.0,5.0;" x1="473" x2="473" y1="161.4844" y2="765.5078"/><line style="stroke: #A80036; stroke-width: 1.0; stroke-dasharray: 5.0,5.0;" x1="687" x2="687" y1="554.0938" y2="765.5078"/><line style="stroke: #A80036; stroke-width: 1.0; stroke-dasharray: 5.0,5.0;" x1="855" x2="855" y1="59.4766" y2="765.5078"/><rect fill="#3333C4" height="31.6094" style="stroke: #A80036; stroke-width: 1.5;" width="108" x="83" y="26.8672"/><text fill="#FFFFFF" font-family="sans-serif" font-size="14" lengthAdjust="spacingAndGlyphs" textLength="94" x="90" y="48.4004">:LogicManager</text><rect fill="#3333C4" height="31.6094" style="stroke: #A80036; stroke-width: 1.5;" width="100" x="264" y="26.8672"/><text fill="#FFFFFF" font-family="sans-serif" font-size="14" lengthAdjust="spacingAndGlyphs" textLength="86" x="271" y="48.4004">:DelinoParser</text><rect fill="#9D0012" height="31.6094" style="stroke: #A80036; stroke-width: 1.5;" width="64" x="823" y="26.8672"/><text fill="#FFFFFF" font-family="sans-serif" font-size="14" lengthAdjust="spacingAndGlyphs" textLength="42" x="834" y="48.4004">:Model</text><rect fill="#FFFFFF" height="663.6797" style="stroke: #A80036; stroke-width: 1.0;" width="10" x="132" y="91.8281"/><rect fill="#FFFFFF" height="540.2734" style="stroke: #A80036; stroke-width: 1.0;" width="10" x="309" y="122.1797"/><rect fill="#FFFFFF" height="32.6094" style="stroke: #A80036; stroke-width: 1.0;" width="10" x="468" y="146.1797"/><rect fill="#FFFFFF" height="408.9609" style="stroke: #A80036; stroke-width: 1.0;" width="10" x="468" y="209.1406"/><rect fill="#FFFFFF" height="41.3516" style="stroke: #A80036; stroke-width: 1.0;" width="10" x="473" y="272.8438"/><rect fill="#FFFFFF" height="41.3516" style="stroke: #A80036; stroke-width: 1.0;" width="10" x="473" y="466.4375"/><rect fill="#FFFFFF" height="32.6094" style="stroke: #A80036; stroke-width: 1.0;" width="10" x="682.5" y="555.1406"/><polygon fill="#A80036" points="120,87.8281,130,91.8281,120,95.8281,124,91.8281" style="stroke: #A80036; stroke-width: 1.0;"/><line style="stroke: #A80036; stroke-width: 1.0;" x1="3" x2="126" y1="91.8281" y2="91.8281"/><text fill="#000000" font-family="sans-serif" font-size="13" lengthAdjust="spacingAndGlyphs" textLength="103" x="16" y="86.9717">execute("clear -f")</text><polygon fill="#A80036" points="297,118.1797,307,122.1797,297,126.1797,301,122.1797" style="stroke: #A80036; stroke-width: 1.0;"/><line style="stroke: #A80036; stroke-width: 1.0;" x1="142" x2="303" y1="122.1797" y2="122.1797"/><text fill="#000000" font-family="sans-serif" font-size="13" lengthAdjust="spacingAndGlyphs" textLength="148" x="151.5" y="117.3232">parseCommand("clear -f")</text><polygon fill="#A80036" points="382,132.1797,392,136.1797,382,140.1797,386,136.1797" style="stroke: #A80036; stroke-width: 1.0;"/><line style="stroke: #A80036; stroke-width: 1.0;" x1="319" x2="388" y1="136.1797" y2="136.1797"/><rect fill="#3333C4" height="31.6094" style="stroke: #A80036; stroke-width: 1.5;" width="158" x="394" y="130.1797"/><text fill="#FFFFFF" font-family="sans-serif" font-size="14" lengthAdjust="spacingAndGlyphs" textLength="144" x="401" y="151.7129">:ClearCommandParser</text><polygon fill="#A80036" points="330,174.7891,320,178.7891,330,182.7891,326,178.7891" style="stroke: #A80036; stroke-width: 1.0;"/><line style="stroke: #A80036; stroke-width: 1.0; stroke-dasharray: 2.0,2.0;" x1="324" x2="472" y1="178.7891" y2="178.7891"/><polygon fill="#A80036" points="456,205.1406,466,209.1406,456,213.1406,460,209.1406" style="stroke: #A80036; stroke-width: 1.0;"/><line style="stroke: #A80036; stroke-width: 1.0;" x1="319" x2="462" y1="209.1406" y2="209.1406"/><text fill="#000000" font-family="sans-serif" font-size="13" lengthAdjust="spacingAndGlyphs" textLength="57" x="365" y="204.2842">parse("-f")</text><path d="M6,224.1406 L67,224.1406 L67,232.1406 L57,242.1406 L6,242.1406 L6,224.1406 " fill="#EEEEEE" style="stroke: #000000; stroke-width: 1.0;"/><rect fill="none" height="524.3672" style="stroke: #000000; stroke-width: 2.0;" width="901" x="6" y="224.1406"/><text fill="#000000" font-family="sans-serif" font-size="13" font-weight="bold" lengthAdjust="spacingAndGlyphs" textLength="16" x="21" y="238.6357">alt</text><text fill="#000000" font-family="sans-serif" font-size="11" font-weight="bold" lengthAdjust="spacingAndGlyphs" textLength="325" x="82" y="237.5596">[if invalid flag or both '-r' and '-o' flags  found in arguments]</text><line style="stroke: #A80036; stroke-width: 1.0;" x1="478" x2="525" y1="259.8438" y2="259.8438"/><line style="stroke: #A80036; stroke-width: 1.0;" x1="525" x2="525" y1="259.8438" y2="272.8438"/><line style="stroke: #A80036; stroke-width: 1.0;" x1="484" x2="525" y1="272.8438" y2="272.8438"/><polygon fill="#A80036" points="494,268.8438,484,272.8438,494,276.8438,490,272.8438" style="stroke: #A80036; stroke-width: 1.0;"/><text fill="#000000" font-family="sans-serif" font-size="13" lengthAdjust="spacingAndGlyphs" textLength="106" x="490" y="254.9873">retrieveFlags(args)</text><line style="stroke: #A80036; stroke-width: 1.0; stroke-dasharray: 2.0,2.0;" x1="483" x2="525" y1="313.1953" y2="313.1953"/><line style="stroke: #A80036; stroke-width: 1.0; stroke-dasharray: 2.0,2.0;" x1="525" x2="525" y1="313.1953" y2="326.1953"/><line style="stroke: #A80036; stroke-width: 1.0; stroke-dasharray: 2.0,2.0;" x1="478" x2="525" y1="326.1953" y2="326.1953"/><polygon fill="#A80036" points="488,322.1953,478,326.1953,488,330.1953,484,326.1953" style="stroke: #A80036; stroke-width: 1.0;"/><text fill="#000000" font-family="sans-serif" font-size="13" lengthAdjust="spacingAndGlyphs" textLength="92" x="490" y="308.3389">ParseException</text><polygon fill="#A80036" points="330,347.5469,320,351.5469,330,355.5469,326,351.5469" style="stroke: #A80036; stroke-width: 1.0;"/><line style="stroke: #A80036; stroke-width: 1.0; stroke-dasharray: 2.0,2.0;" x1="324" x2="467" y1="351.5469" y2="351.5469"/><text fill="#000000" font-family="sans-serif" font-size="13" lengthAdjust="spacingAndGlyphs" textLength="92" x="347.5" y="346.6904">ParseException</text><polygon fill="#A80036" points="153,377.8984,143,381.8984,153,385.8984,149,381.8984" style="stroke: #A80036; stroke-width: 1.0;"/><line style="stroke: #A80036; stroke-width: 1.0; stroke-dasharray: 2.0,2.0;" x1="147" x2="308" y1="381.8984" y2="381.8984"/><text fill="#000000" font-family="sans-serif" font-size="13" lengthAdjust="spacingAndGlyphs" textLength="92" x="179.5" y="377.042">ParseException</text><polygon fill="#A80036" points="14,408.25,4,412.25,14,416.25,10,412.25" style="stroke: #A80036; stroke-width: 1.0;"/><line style="stroke: #A80036; stroke-width: 1.0; stroke-dasharray: 2.0,2.0;" x1="8" x2="131" y1="412.25" y2="412.25"/><text fill="#000000" font-family="sans-serif" font-size="13" lengthAdjust="spacingAndGlyphs" textLength="92" x="21.5" y="407.3936">ParseException</text><line style="stroke: #000000; stroke-width: 1.0; stroke-dasharray: 2.0,2.0;" x1="6" x2="907" y1="421.25" y2="421.25"/><text fill="#000000" font-family="sans-serif" font-size="11" font-weight="bold" lengthAdjust="spacingAndGlyphs" textLength="84" x="11" y="432.6689">[flags are valid]</text><line style="stroke: #A80036; stroke-width: 1.0;" x1="478" x2="525" y1="453.4375" y2="453.4375"/><line style="stroke: #A80036; stroke-width: 1.0;" x1="525" x2="525" y1="453.4375" y2="466.4375"/><line style="stroke: #A80036; stroke-width: 1.0;" x1="484" x2="525" y1="466.4375" y2="466.4375"/><polygon fill="#A80036" points="494,462.4375,484,466.4375,494,470.4375,490,466.4375" style="stroke: #A80036; stroke-width: 1.0;"/><text fill="#000000" font-family="sans-serif" font-size="13" lengthAdjust="spacingAndGlyphs" textLength="106" x="490" y="448.5811">retrieveFlags(args)</text><line style="stroke: #A80036; stroke-width: 1.0; stroke-dasharray: 2.0,2.0;" x1="483" x2="525" y1="506.7891" y2="506.7891"/><line style="stroke: #A80036; stroke-width: 1.0; stroke-dasharray: 2.0,2.0;" x1="525" x2="525" y1="506.7891" y2="519.7891"/><line style="stroke: #A80036; stroke-width: 1.0; stroke-dasharray: 2.0,2.0;" x1="478" x2="525" y1="519.7891" y2="519.7891"/><polygon fill="#A80036" points="488,515.7891,478,519.7891,488,523.7891,484,519.7891" style="stroke: #A80036; stroke-width: 1.0;"/><text fill="#000000" font-family="sans-serif" font-size="13" lengthAdjust="spacingAndGlyphs" textLength="27" x="490" y="501.9326">flags</text><polygon fill="#A80036" points="570,541.1406,580,545.1406,570,549.1406,574,545.1406" style="stroke: #A80036; stroke-width: 1.0;"/><line style="stroke: #A80036; stroke-width: 1.0;" x1="478" x2="576" y1="545.1406" y2="545.1406"/><text fill="#000000" font-family="sans-serif" font-size="13" lengthAdjust="spacingAndGlyphs" textLength="27" x="516.5" y="540.2842">flags</text><rect fill="#3333C4" height="31.6094" style="stroke: #A80036; stroke-width: 1.5;" width="211" x="582" y="522.7891"/><text fill="#FFFFFF" font-family="sans-serif" font-size="14" lengthAdjust="spacingAndGlyphs" textLength="197" x="589" y="544.3223">clearCommand:ClearCommand</text><polygon fill="#A80036" points="489,583.75,479,587.75,489,591.75,485,587.75" style="stroke: #A80036; stroke-width: 1.0;"/><line style="stroke: #A80036; stroke-width: 1.0; stroke-dasharray: 2.0,2.0;" x1="483" x2="686.5" y1="587.75" y2="587.75"/><text fill="#000000" font-family="sans-serif" font-size="13" lengthAdjust="spacingAndGlyphs" textLength="87" x="539.25" y="582.8936">clearCommand</text><polygon fill="#A80036" points="330,614.1016,320,618.1016,330,622.1016,326,618.1016" style="stroke: #A80036; stroke-width: 1.0;"/><line style="stroke: #A80036; stroke-width: 1.0; stroke-dasharray: 2.0,2.0;" x1="324" x2="472" y1="618.1016" y2="618.1016"/><text fill="#000000" font-family="sans-serif" font-size="13" lengthAdjust="spacingAndGlyphs" textLength="87" x="352.5" y="613.2451">clearCommand</text><line style="stroke: #A80036; stroke-width: 2.0;" x1="464" x2="482" y1="623.1016" y2="641.1016"/><line style="stroke: #A80036; stroke-width: 2.0;" x1="464" x2="482" y1="641.1016" y2="623.1016"/><polygon fill="#A80036" points="153,658.4531,143,662.4531,153,666.4531,149,662.4531" style="stroke: #A80036; stroke-width: 1.0;"/><line style="stroke: #A80036; stroke-width: 1.0; stroke-dasharray: 2.0,2.0;" x1="147" x2="313" y1="662.4531" y2="662.4531"/><text fill="#000000" font-family="sans-serif" font-size="13" lengthAdjust="spacingAndGlyphs" textLength="87" x="184.5" y="657.5967">clearCommand</text><rect fill="#FFFFFF" height="42.7031" style="stroke: #000000; stroke-width: 2.0;" width="830" x="70" y="670.4531"/><polygon fill="#EEEEEE" points="70,670.4531,132,670.4531,132,678.4531,122,688.4531,70,688.4531,70,670.4531" style="stroke: #000000; stroke-width: 2.0;"/><text fill="#000000" font-family="sans-serif" font-size="13" font-weight="bold" lengthAdjust="spacingAndGlyphs" textLength="17" x="83" y="685.9482">ref</text><text fill="#000000" font-family="sans-serif" font-size="13" lengthAdjust="spacingAndGlyphs" textLength="139" x="415.5" y="705.9482">execute clear command</text><polygon fill="#A80036" points="14,736.5078,4,740.5078,14,744.5078,10,740.5078" style="stroke: #A80036; stroke-width: 1.0;"/><line style="stroke: #A80036; stroke-width: 1.0; stroke-dasharray: 2.0,2.0;" x1="8" x2="131" y1="740.5078" y2="740.5078"/><text fill="#000000" font-family="sans-serif" font-size="13" lengthAdjust="spacingAndGlyphs" textLength="32" x="51.5" y="735.6514">result</text><!--MD5=[3acf4a72bf39f5f6672bc20e61df6bfd]
@startuml








skinparam BackgroundColor #FFFFFFF

skinparam Shadowing false

skinparam Class {
    FontColor #FFFFFF
    BorderThickness 1
    BorderColor #FFFFFF
    StereotypeFontColor #FFFFFF
    FontName Arial
}

skinparam Actor {
    BorderColor #000000
    Color #000000
    FontName Arial
}

skinparam Sequence {
    MessageAlign center
    BoxFontSize 15
    BoxPadding 0
    BoxFontColor #FFFFFF
    FontName Arial
}

skinparam Participant {
    FontColor #FFFFFFF
    Padding 20
}

skinparam MinClassWidth 50
skinparam ParticipantPadding 10
skinparam Shadowing false
skinparam DefaultTextAlignment center
skinparam packageStyle Rectangle

hide footbox
hide members
hide circle
box Logic #C8C8FA
participant ":LogicManager" as LogicManager #3333C4
participant ":DelinoParser" as DelinoParser #3333C4
participant ":ClearCommandParser" as ClearCommandParser #3333C4
participant "clearCommand:ClearCommand" as ClearCommand #3333C4
end box

box Model #F97181
participant ":Model" as Model #9D0012
end box

[-> LogicManager : execute("clear -f")
activate LogicManager

LogicManager -> DelinoParser : parseCommand("clear -f")
activate DelinoParser

create ClearCommandParser
DelinoParser -> ClearCommandParser ++

ClearCommandParser - -> DelinoParser - -

DelinoParser -> ClearCommandParser ++ : parse("-f")

alt if invalid flag or both '-r' and '-o' flags  found in arguments
    ClearCommandParser -> ClearCommandParser ++ : retrieveFlags(args)
    ClearCommandParser - -> ClearCommandParser - - : ParseException
    ClearCommandParser - -> DelinoParser : ParseException
    DelinoParser - -> LogicManager : ParseException
    [<- - LogicManager : ParseException
else flags are valid
    ClearCommandParser -> ClearCommandParser ++ : retrieveFlags(args)

    ClearCommandParser - -> ClearCommandParser - - : flags

    create ClearCommand
    ClearCommandParser -> ClearCommand ++ : flags

    ClearCommand - -> ClearCommandParser - - : clearCommand

    ClearCommandParser - -> DelinoParser - - : clearCommand
    ClearCommandParser -[hidden]-> DelinoParser
    destroy ClearCommandParser

    DelinoParser - -> LogicManager - - : clearCommand

    ref over LogicManager,  Model : execute clear command

[<- -LogicManager : result
end
deactivate LogicManager
@enduml

PlantUML version 1.2019.11(Sun Sep 22 18:02:15 SGT 2019)
(GPL source distribution)
Java Runtime: OpenJDK Runtime Environment
JVM: OpenJDK 64-Bit Server VM
Java Version: 11.0.5+10-b520.30
Operating System: Windows 10
Default Encoding: UTF-8
Language: en
Country: US
--></g></svg>
