<?xml version="1.0" encoding="UTF-8" standalone="no"?><svg xmlns="http://www.w3.org/2000/svg" xmlns:xlink="http://www.w3.org/1999/xlink" contentScriptType="application/ecmascript" contentStyleType="text/css" height="461px" preserveAspectRatio="none" style="width:1144px;height:461px;" version="1.1" viewBox="0 0 1144 461" width="1144px" zoomAndPan="magnify"><defs/><g><rect fill="#C8C8FA" height="439.5078" style="stroke: #A80036; stroke-width: 1.0;" width="1014" x="19" y="4"/><text fill="#FFFFFF" font-family="sans-serif" font-size="15" font-weight="bold" lengthAdjust="spacingAndGlyphs" textLength="39" x="504.5" y="19.5713">Logic</text><rect fill="#F97181" height="439.5078" style="stroke: #A80036; stroke-width: 1.0;" width="92" x="1035" y="4"/><text fill="#FFFFFF" font-family="sans-serif" font-size="15" font-weight="bold" lengthAdjust="spacingAndGlyphs" textLength="44" x="1057" y="19.5713">Model</text><rect fill="#FFFFFF" height="371.0313" style="stroke: #A80036; stroke-width: 1.0;" width="10" x="82" y="69.4766"/><rect fill="#FFFFFF" height="307.3281" style="stroke: #A80036; stroke-width: 1.0;" width="10" x="271.5" y="117.1797"/><rect fill="#FFFFFF" height="231.625" style="stroke: #A80036; stroke-width: 1.0;" width="10" x="276.5" y="155.5313"/><rect fill="#FFFFFF" height="48.9609" style="stroke: #A80036; stroke-width: 1.0;" width="10" x="483.5" y="184.5313"/><rect fill="#FFFFFF" height="32.6094" style="stroke: #A80036; stroke-width: 1.0;" width="10" x="935.5" y="318.1953"/><rect fill="#FFFFFF" height="14" style="stroke: #A80036; stroke-width: 1.0;" width="10" x="1076" y="263.8438"/><rect fill="#FFFFFF" height="356.0313" style="stroke: #000000; stroke-width: 2.0;" width="1120" x="13" y="76.4766"/><rect fill="#3333C4" height="31.6094" style="stroke: #A80036; stroke-width: 1.5;" width="153" x="412" y="168.5313"/><text fill="#FFFFFF" font-family="sans-serif" font-size="14" lengthAdjust="spacingAndGlyphs" textLength="139" x="419" y="190.0645">orderBook:OrderBook</text><rect fill="#3333C4" height="31.6094" style="stroke: #A80036; stroke-width: 1.5;" width="157" x="862" y="285.8438"/><text fill="#FFFFFF" font-family="sans-serif" font-size="14" lengthAdjust="spacingAndGlyphs" textLength="143" x="869" y="307.377">result:CommandResult</text><line style="stroke: #A80036; stroke-width: 1.0; stroke-dasharray: 5.0,5.0;" x1="87" x2="87" y1="59.4766" y2="449.5078"/><line style="stroke: #A80036; stroke-width: 1.0; stroke-dasharray: 5.0,5.0;" x1="276" x2="276" y1="59.4766" y2="449.5078"/><line style="stroke: #A80036; stroke-width: 1.0; stroke-dasharray: 5.0,5.0;" x1="488" x2="488" y1="199.8359" y2="449.5078"/><line style="stroke: #A80036; stroke-width: 1.0; stroke-dasharray: 5.0,5.0;" x1="713" x2="713" y1="59.4766" y2="449.5078"/><line style="stroke: #A80036; stroke-width: 1.0; stroke-dasharray: 5.0,5.0;" x1="940" x2="940" y1="317.1484" y2="449.5078"/><line style="stroke: #A80036; stroke-width: 1.0; stroke-dasharray: 5.0,5.0;" x1="1081" x2="1081" y1="59.4766" y2="449.5078"/><rect fill="#3333C4" height="31.6094" style="stroke: #A80036; stroke-width: 1.5;" width="108" x="33" y="26.8672"/><text fill="#FFFFFF" font-family="sans-serif" font-size="14" lengthAdjust="spacingAndGlyphs" textLength="94" x="40" y="48.4004">:LogicManager</text><rect fill="#3333C4" height="31.6094" style="stroke: #A80036; stroke-width: 1.5;" width="211" x="171" y="26.8672"/><text fill="#FFFFFF" font-family="sans-serif" font-size="14" lengthAdjust="spacingAndGlyphs" textLength="197" x="178" y="48.4004">clearCommand:ClearCommand</text><rect fill="#3333C4" height="31.6094" style="stroke: #A80036; stroke-width: 1.5;" width="237" x="595" y="26.8672"/><text fill="#FFFFFF" font-family="sans-serif" font-size="14" lengthAdjust="spacingAndGlyphs" textLength="223" x="602" y="48.4004">returnOrderBook:ReturnOrderBook</text><rect fill="#9D0012" height="31.6094" style="stroke: #A80036; stroke-width: 1.5;" width="64" x="1049" y="26.8672"/><text fill="#FFFFFF" font-family="sans-serif" font-size="14" lengthAdjust="spacingAndGlyphs" textLength="42" x="1060" y="48.4004">:Model</text><rect fill="#FFFFFF" height="371.0313" style="stroke: #A80036; stroke-width: 1.0;" width="10" x="82" y="69.4766"/><rect fill="#FFFFFF" height="307.3281" style="stroke: #A80036; stroke-width: 1.0;" width="10" x="271.5" y="117.1797"/><rect fill="#FFFFFF" height="231.625" style="stroke: #A80036; stroke-width: 1.0;" width="10" x="276.5" y="155.5313"/><rect fill="#FFFFFF" height="48.9609" style="stroke: #A80036; stroke-width: 1.0;" width="10" x="483.5" y="184.5313"/><rect fill="#FFFFFF" height="32.6094" style="stroke: #A80036; stroke-width: 1.0;" width="10" x="935.5" y="318.1953"/><rect fill="#FFFFFF" height="14" style="stroke: #A80036; stroke-width: 1.0;" width="10" x="1076" y="263.8438"/><path d="M13,76.4766 L412,76.4766 L412,84.4766 L402,94.4766 L13,94.4766 L13,76.4766 " fill="#EEEEEE" style="stroke: #000000; stroke-width: 1.0;"/><rect fill="none" height="356.0313" style="stroke: #000000; stroke-width: 2.0;" width="1120" x="13" y="76.4766"/><text fill="#000000" font-family="sans-serif" font-size="13" font-weight="bold" lengthAdjust="spacingAndGlyphs" textLength="354" x="28" y="90.9717">sd Execution of the Clear Command Sequence Diagram</text><polygon fill="#A80036" points="259.5,113.1797,269.5,117.1797,259.5,121.1797,263.5,117.1797" style="stroke: #A80036; stroke-width: 1.0;"/><line style="stroke: #A80036; stroke-width: 1.0;" x1="92" x2="265.5" y1="117.1797" y2="117.1797"/><text fill="#000000" font-family="sans-serif" font-size="13" lengthAdjust="spacingAndGlyphs" textLength="89" x="137.25" y="112.3232">execute(model)</text><line style="stroke: #A80036; stroke-width: 1.0;" x1="281.5" x2="328.5" y1="142.5313" y2="142.5313"/><line style="stroke: #A80036; stroke-width: 1.0;" x1="328.5" x2="328.5" y1="142.5313" y2="155.5313"/><line style="stroke: #A80036; stroke-width: 1.0;" x1="287.5" x2="328.5" y1="155.5313" y2="155.5313"/><polygon fill="#A80036" points="297.5,151.5313,287.5,155.5313,297.5,159.5313,293.5,155.5313" style="stroke: #A80036; stroke-width: 1.0;"/><text fill="#000000" font-family="sans-serif" font-size="13" lengthAdjust="spacingAndGlyphs" textLength="117" x="293.5" y="137.6748">updateModel(model)</text><polygon fill="#A80036" points="400,170.5313,410,174.5313,400,178.5313,404,174.5313" style="stroke: #A80036; stroke-width: 1.0;"/><line style="stroke: #A80036; stroke-width: 1.0;" x1="286.5" x2="406" y1="174.5313" y2="174.5313"/><rect fill="#3333C4" height="31.6094" style="stroke: #A80036; stroke-width: 1.5;" width="153" x="412" y="168.5313"/><text fill="#FFFFFF" font-family="sans-serif" font-size="14" lengthAdjust="spacingAndGlyphs" textLength="139" x="419" y="190.0645">orderBook:OrderBook</text><polygon fill="#A80036" points="297.5,229.4922,287.5,233.4922,297.5,237.4922,293.5,233.4922" style="stroke: #A80036; stroke-width: 1.0;"/><line style="stroke: #A80036; stroke-width: 1.0; stroke-dasharray: 2.0,2.0;" x1="291.5" x2="487.5" y1="233.4922" y2="233.4922"/><text fill="#000000" font-family="sans-serif" font-size="13" lengthAdjust="spacingAndGlyphs" textLength="59" x="358" y="228.6357">orderBook</text><polygon fill="#A80036" points="1064,259.8438,1074,263.8438,1064,267.8438,1068,263.8438" style="stroke: #A80036; stroke-width: 1.0;"/><line style="stroke: #A80036; stroke-width: 1.0;" x1="286.5" x2="1070" y1="263.8438" y2="263.8438"/><text fill="#000000" font-family="sans-serif" font-size="13" lengthAdjust="spacingAndGlyphs" textLength="147" x="607.75" y="258.9873">setOrderBook(orderBook)</text><polygon fill="#A80036" points="297.5,273.8438,287.5,277.8438,297.5,281.8438,293.5,277.8438" style="stroke: #A80036; stroke-width: 1.0;"/><line style="stroke: #A80036; stroke-width: 1.0; stroke-dasharray: 2.0,2.0;" x1="291.5" x2="1080" y1="277.8438" y2="277.8438"/><polygon fill="#A80036" points="850,304.1953,860,308.1953,850,312.1953,854,308.1953" style="stroke: #A80036; stroke-width: 1.0;"/><line style="stroke: #A80036; stroke-width: 1.0;" x1="286.5" x2="856" y1="308.1953" y2="308.1953"/><text fill="#000000" font-family="sans-serif" font-size="13" lengthAdjust="spacingAndGlyphs" textLength="234" x="457.25" y="303.3389">MESSAGE_SUCCESS_ORDER_BOOK</text><rect fill="#3333C4" height="31.6094" style="stroke: #A80036; stroke-width: 1.5;" width="157" x="862" y="285.8438"/><text fill="#FFFFFF" font-family="sans-serif" font-size="14" lengthAdjust="spacingAndGlyphs" textLength="143" x="869" y="307.377">result:CommandResult</text><polygon fill="#A80036" points="297.5,346.8047,287.5,350.8047,297.5,354.8047,293.5,350.8047" style="stroke: #A80036; stroke-width: 1.0;"/><line style="stroke: #A80036; stroke-width: 1.0; stroke-dasharray: 2.0,2.0;" x1="291.5" x2="939.5" y1="350.8047" y2="350.8047"/><text fill="#000000" font-family="sans-serif" font-size="13" lengthAdjust="spacingAndGlyphs" textLength="32" x="597.5" y="345.9482">result</text><line style="stroke: #A80036; stroke-width: 1.0; stroke-dasharray: 2.0,2.0;" x1="286.5" x2="328.5" y1="386.1563" y2="386.1563"/><line style="stroke: #A80036; stroke-width: 1.0; stroke-dasharray: 2.0,2.0;" x1="328.5" x2="328.5" y1="386.1563" y2="399.1563"/><line style="stroke: #A80036; stroke-width: 1.0; stroke-dasharray: 2.0,2.0;" x1="281.5" x2="328.5" y1="399.1563" y2="399.1563"/><polygon fill="#A80036" points="291.5,395.1563,281.5,399.1563,291.5,403.1563,287.5,399.1563" style="stroke: #A80036; stroke-width: 1.0;"/><text fill="#000000" font-family="sans-serif" font-size="13" lengthAdjust="spacingAndGlyphs" textLength="32" x="293.5" y="381.2998">result</text><polygon fill="#A80036" points="103,420.5078,93,424.5078,103,428.5078,99,424.5078" style="stroke: #A80036; stroke-width: 1.0;"/><line style="stroke: #A80036; stroke-width: 1.0; stroke-dasharray: 2.0,2.0;" x1="97" x2="275.5" y1="424.5078" y2="424.5078"/><text fill="#000000" font-family="sans-serif" font-size="13" lengthAdjust="spacingAndGlyphs" textLength="32" x="168.25" y="419.6514">result</text><!--MD5=[e5492fedb1e09d80f950a6faea14e725]
@startuml








skinparam BackgroundColor #FFFFFFF

skinparam Shadowing false

skinparam Class {
    FontColor #FFFFFF
    BorderThickness 1
    BorderColor #FFFFFF
    StereotypeFontColor #FFFFFF
    FontName Arial
}

skinparam Actor {
    BorderColor #000000
    Color #000000
    FontName Arial
}

skinparam Sequence {
    MessageAlign center
    BoxFontSize 15
    BoxPadding 0
    BoxFontColor #FFFFFF
    FontName Arial
}

skinparam Participant {
    FontColor #FFFFFFF
    Padding 20
}

skinparam MinClassWidth 50
skinparam ParticipantPadding 10
skinparam Shadowing false
skinparam DefaultTextAlignment center
skinparam packageStyle Rectangle

hide footbox
hide members
hide circle
box Logic #C8C8FA
participant ":LogicManager" as LogicManager #3333C4
participant "clearCommand:ClearCommand" as ClearCommand #3333C4
participant "orderBook:OrderBook" as OrderBook #3333C4
participant "returnOrderBook:ReturnOrderBook" as ReturnOrderBook #3333C4
participant "result:CommandResult" as CommandResult #3333C4
end box

box Model #F97181
participant ":Model" as Model #9D0012
end box
activate LogicManager

group sd Execution of the Clear Command Sequence Diagram

LogicManager -> ClearCommand ++ : execute(model)

ClearCommand -> ClearCommand ++ : updateModel(model)

create OrderBook
ClearCommand -> OrderBook ++

OrderBook - -> ClearCommand - - : orderBook

ClearCommand -> Model ++ : setOrderBook(orderBook)
Model - -> ClearCommand - -

create CommandResult
ClearCommand -> CommandResult ++ : MESSAGE_SUCCESS_ORDER_BOOK

CommandResult - -> ClearCommand - - : result

ClearCommand - -> ClearCommand - - : result

ClearCommand - -> LogicManager - - : result

end
@enduml

PlantUML version 1.2019.11(Sun Sep 22 18:02:15 SGT 2019)
(GPL source distribution)
Java Runtime: OpenJDK Runtime Environment
JVM: OpenJDK 64-Bit Server VM
Java Version: 11.0.5+10-b520.30
Operating System: Windows 10
Default Encoding: UTF-8
Language: en
Country: US
--></g></svg>
