<?xml version="1.0" encoding="UTF-8" standalone="no"?><svg xmlns="http://www.w3.org/2000/svg" xmlns:xlink="http://www.w3.org/1999/xlink" contentScriptType="application/ecmascript" contentStyleType="text/css" height="1217px" preserveAspectRatio="none" style="width:1146px;height:1217px;" version="1.1" viewBox="0 0 1146 1217" width="1146px" zoomAndPan="magnify"><defs/><g><rect fill="#C8C8FA" height="1195.0781" style="stroke: #A80036; stroke-width: 1.0;" width="1014" x="11" y="4"/><text fill="#FFFFFF" font-family="sans-serif" font-size="15" font-weight="bold" lengthAdjust="spacingAndGlyphs" textLength="39" x="496.5" y="19.5713">Logic</text><rect fill="#F97181" height="1195.0781" style="stroke: #A80036; stroke-width: 1.0;" width="92" x="1027" y="4"/><text fill="#FFFFFF" font-family="sans-serif" font-size="15" font-weight="bold" lengthAdjust="spacingAndGlyphs" textLength="44" x="1049" y="19.5713">Model</text><rect fill="#FFFFFF" height="1110.6016" style="stroke: #A80036; stroke-width: 1.0;" width="10" x="74" y="69.4766"/><rect fill="#FFFFFF" height="1048.8984" style="stroke: #A80036; stroke-width: 1.0;" width="10" x="263.5" y="117.1797"/><rect fill="#FFFFFF" height="48.9609" style="stroke: #A80036; stroke-width: 1.0;" width="10" x="475.5" y="166.5313"/><rect fill="#FFFFFF" height="48.9609" style="stroke: #A80036; stroke-width: 1.0;" width="10" x="475.5" y="578.75"/><rect fill="#FFFFFF" height="48.9609" style="stroke: #A80036; stroke-width: 1.0;" width="10" x="700.5" y="372.6406"/><rect fill="#FFFFFF" height="48.9609" style="stroke: #A80036; stroke-width: 1.0;" width="10" x="700.5" y="651.7109"/><rect fill="#FFFFFF" height="32.6094" style="stroke: #A80036; stroke-width: 1.0;" width="10" x="927.5" y="300.1953"/><rect fill="#FFFFFF" height="32.6094" style="stroke: #A80036; stroke-width: 1.0;" width="10" x="927.5" y="506.3047"/><rect fill="#FFFFFF" height="32.6094" style="stroke: #A80036; stroke-width: 1.0;" width="10" x="927.5" y="829.7266"/><rect fill="#FFFFFF" height="32.6094" style="stroke: #A80036; stroke-width: 1.0;" width="10" x="927.5" y="918.5234"/><rect fill="#FFFFFF" height="32.6094" style="stroke: #A80036; stroke-width: 1.0;" width="10" x="927.5" y="1007.3203"/><rect fill="#FFFFFF" height="32.6094" style="stroke: #A80036; stroke-width: 1.0;" width="10" x="927.5" y="1096.1172"/><rect fill="#FFFFFF" height="14" style="stroke: #A80036; stroke-width: 1.0;" width="10" x="1068" y="245.8438"/><rect fill="#FFFFFF" height="14" style="stroke: #A80036; stroke-width: 1.0;" width="10" x="1068" y="451.9531"/><rect fill="#FFFFFF" height="14" style="stroke: #A80036; stroke-width: 1.0;" width="10" x="1068" y="731.0234"/><rect fill="#FFFFFF" height="14" style="stroke: #A80036; stroke-width: 1.0;" width="10" x="1068" y="775.375"/><rect fill="#FFFFFF" height="1111.6016" style="stroke: #000000; stroke-width: 2.0;" width="1129" x="6" y="76.4766"/><rect fill="#FFFFFF" height="1004.5469" style="stroke: #000000; stroke-width: 2.0;" width="982" x="143" y="132.1797"/><rect fill="#3333C4" height="31.6094" style="stroke: #A80036; stroke-width: 1.5;" width="153" x="404" y="150.5313"/><text fill="#FFFFFF" font-family="sans-serif" font-size="14" lengthAdjust="spacingAndGlyphs" textLength="139" x="411" y="172.0645">orderBook:OrderBook</text><rect fill="#3333C4" height="31.6094" style="stroke: #A80036; stroke-width: 1.5;" width="157" x="854" y="267.8438"/><text fill="#FFFFFF" font-family="sans-serif" font-size="14" lengthAdjust="spacingAndGlyphs" textLength="143" x="861" y="289.377">result:CommandResult</text><rect fill="#FFFFFF" height="206.1094" style="stroke: none; stroke-width: 1.0;" width="982" x="143" y="340.8047"/><rect fill="#3333C4" height="31.6094" style="stroke: #A80036; stroke-width: 1.5;" width="237" x="587" y="356.6406"/><text fill="#FFFFFF" font-family="sans-serif" font-size="14" lengthAdjust="spacingAndGlyphs" textLength="223" x="594" y="378.1738">returnOrderBook:ReturnOrderBook</text><rect fill="#3333C4" height="31.6094" style="stroke: #A80036; stroke-width: 1.5;" width="157" x="854" y="473.9531"/><text fill="#FFFFFF" font-family="sans-serif" font-size="14" lengthAdjust="spacingAndGlyphs" textLength="143" x="861" y="495.4863">result:CommandResult</text><rect fill="#FFFFFF" height="323.4219" style="stroke: none; stroke-width: 1.0;" width="982" x="143" y="546.9141"/><rect fill="#3333C4" height="31.6094" style="stroke: #A80036; stroke-width: 1.5;" width="153" x="404" y="562.75"/><text fill="#FFFFFF" font-family="sans-serif" font-size="14" lengthAdjust="spacingAndGlyphs" textLength="139" x="411" y="584.2832">orderBook:OrderBook</text><rect fill="#3333C4" height="31.6094" style="stroke: #A80036; stroke-width: 1.5;" width="237" x="587" y="635.7109"/><text fill="#FFFFFF" font-family="sans-serif" font-size="14" lengthAdjust="spacingAndGlyphs" textLength="223" x="594" y="657.2441">returnOrderBook:ReturnOrderBook</text><rect fill="#3333C4" height="31.6094" style="stroke: #A80036; stroke-width: 1.5;" width="157" x="854" y="797.375"/><text fill="#FFFFFF" font-family="sans-serif" font-size="14" lengthAdjust="spacingAndGlyphs" textLength="143" x="861" y="818.9082">result:CommandResult</text><rect fill="#FFFFFF" height="88.7969" style="stroke: none; stroke-width: 1.0;" width="982" x="143" y="870.3359"/><rect fill="#3333C4" height="31.6094" style="stroke: #A80036; stroke-width: 1.5;" width="157" x="854" y="886.1719"/><text fill="#FFFFFF" font-family="sans-serif" font-size="14" lengthAdjust="spacingAndGlyphs" textLength="143" x="861" y="907.7051">result:CommandResult</text><rect fill="#FFFFFF" height="88.7969" style="stroke: none; stroke-width: 1.0;" width="982" x="143" y="959.1328"/><rect fill="#3333C4" height="31.6094" style="stroke: #A80036; stroke-width: 1.5;" width="157" x="854" y="974.9688"/><text fill="#FFFFFF" font-family="sans-serif" font-size="14" lengthAdjust="spacingAndGlyphs" textLength="143" x="861" y="996.502">result:CommandResult</text><rect fill="#FFFFFF" height="88.7969" style="stroke: none; stroke-width: 1.0;" width="982" x="143" y="1047.9297"/><rect fill="#3333C4" height="31.6094" style="stroke: #A80036; stroke-width: 1.5;" width="157" x="854" y="1063.7656"/><text fill="#FFFFFF" font-family="sans-serif" font-size="14" lengthAdjust="spacingAndGlyphs" textLength="143" x="861" y="1085.2988">result:CommandResult</text><line style="stroke: #A80036; stroke-width: 1.0; stroke-dasharray: 5.0,5.0;" x1="79" x2="79" y1="59.4766" y2="1205.0781"/><line style="stroke: #A80036; stroke-width: 1.0; stroke-dasharray: 5.0,5.0;" x1="268" x2="268" y1="59.4766" y2="1205.0781"/><line style="stroke: #A80036; stroke-width: 1.0; stroke-dasharray: 5.0,5.0;" x1="480" x2="480" y1="594.0547" y2="1205.0781"/><line style="stroke: #A80036; stroke-width: 1.0; stroke-dasharray: 5.0,5.0;" x1="705" x2="705" y1="667.0156" y2="1205.0781"/><line style="stroke: #A80036; stroke-width: 1.0; stroke-dasharray: 5.0,5.0;" x1="932" x2="932" y1="1095.0703" y2="1205.0781"/><line style="stroke: #A80036; stroke-width: 1.0; stroke-dasharray: 5.0,5.0;" x1="1073" x2="1073" y1="59.4766" y2="1205.0781"/><rect fill="#3333C4" height="31.6094" style="stroke: #A80036; stroke-width: 1.5;" width="108" x="25" y="26.8672"/><text fill="#FFFFFF" font-family="sans-serif" font-size="14" lengthAdjust="spacingAndGlyphs" textLength="94" x="32" y="48.4004">:LogicManager</text><rect fill="#3333C4" height="31.6094" style="stroke: #A80036; stroke-width: 1.5;" width="211" x="163" y="26.8672"/><text fill="#FFFFFF" font-family="sans-serif" font-size="14" lengthAdjust="spacingAndGlyphs" textLength="197" x="170" y="48.4004">clearCommand:ClearCommand</text><rect fill="#9D0012" height="31.6094" style="stroke: #A80036; stroke-width: 1.5;" width="64" x="1041" y="26.8672"/><text fill="#FFFFFF" font-family="sans-serif" font-size="14" lengthAdjust="spacingAndGlyphs" textLength="42" x="1052" y="48.4004">:Model</text><rect fill="#FFFFFF" height="1110.6016" style="stroke: #A80036; stroke-width: 1.0;" width="10" x="74" y="69.4766"/><rect fill="#FFFFFF" height="1048.8984" style="stroke: #A80036; stroke-width: 1.0;" width="10" x="263.5" y="117.1797"/><rect fill="#FFFFFF" height="48.9609" style="stroke: #A80036; stroke-width: 1.0;" width="10" x="475.5" y="166.5313"/><rect fill="#FFFFFF" height="48.9609" style="stroke: #A80036; stroke-width: 1.0;" width="10" x="475.5" y="578.75"/><rect fill="#FFFFFF" height="48.9609" style="stroke: #A80036; stroke-width: 1.0;" width="10" x="700.5" y="372.6406"/><rect fill="#FFFFFF" height="48.9609" style="stroke: #A80036; stroke-width: 1.0;" width="10" x="700.5" y="651.7109"/><rect fill="#FFFFFF" height="32.6094" style="stroke: #A80036; stroke-width: 1.0;" width="10" x="927.5" y="300.1953"/><rect fill="#FFFFFF" height="32.6094" style="stroke: #A80036; stroke-width: 1.0;" width="10" x="927.5" y="506.3047"/><rect fill="#FFFFFF" height="32.6094" style="stroke: #A80036; stroke-width: 1.0;" width="10" x="927.5" y="829.7266"/><rect fill="#FFFFFF" height="32.6094" style="stroke: #A80036; stroke-width: 1.0;" width="10" x="927.5" y="918.5234"/><rect fill="#FFFFFF" height="32.6094" style="stroke: #A80036; stroke-width: 1.0;" width="10" x="927.5" y="1007.3203"/><rect fill="#FFFFFF" height="32.6094" style="stroke: #A80036; stroke-width: 1.0;" width="10" x="927.5" y="1096.1172"/><rect fill="#FFFFFF" height="14" style="stroke: #A80036; stroke-width: 1.0;" width="10" x="1068" y="245.8438"/><rect fill="#FFFFFF" height="14" style="stroke: #A80036; stroke-width: 1.0;" width="10" x="1068" y="451.9531"/><rect fill="#FFFFFF" height="14" style="stroke: #A80036; stroke-width: 1.0;" width="10" x="1068" y="731.0234"/><rect fill="#FFFFFF" height="14" style="stroke: #A80036; stroke-width: 1.0;" width="10" x="1068" y="775.375"/><path d="M6,76.4766 L405,76.4766 L405,84.4766 L395,94.4766 L6,94.4766 L6,76.4766 " fill="#EEEEEE" style="stroke: #000000; stroke-width: 1.0;"/><rect fill="none" height="1111.6016" style="stroke: #000000; stroke-width: 2.0;" width="1129" x="6" y="76.4766"/><text fill="#000000" font-family="sans-serif" font-size="13" font-weight="bold" lengthAdjust="spacingAndGlyphs" textLength="354" x="21" y="90.9717">sd Execution of the Clear Command Sequence Diagram</text><polygon fill="#A80036" points="251.5,113.1797,261.5,117.1797,251.5,121.1797,255.5,117.1797" style="stroke: #A80036; stroke-width: 1.0;"/><line style="stroke: #A80036; stroke-width: 1.0;" x1="84" x2="257.5" y1="117.1797" y2="117.1797"/><text fill="#000000" font-family="sans-serif" font-size="13" lengthAdjust="spacingAndGlyphs" textLength="89" x="129.25" y="112.3232">execute(model)</text><path d="M143,132.1797 L208,132.1797 L208,140.1797 L198,150.1797 L143,150.1797 L143,132.1797 " fill="#EEEEEE" style="stroke: #000000; stroke-width: 1.0;"/><rect fill="none" height="1004.5469" style="stroke: #000000; stroke-width: 2.0;" width="982" x="143" y="132.1797"/><text fill="#000000" font-family="sans-serif" font-size="13" font-weight="bold" lengthAdjust="spacingAndGlyphs" textLength="20" x="158" y="146.6748">opt</text><text fill="#000000" font-family="sans-serif" font-size="11" font-weight="bold" lengthAdjust="spacingAndGlyphs" textLength="193" x="223" y="145.5986">[`-o` flag and `-f` flag found in flags]</text><polygon fill="#A80036" points="392,152.5313,402,156.5313,392,160.5313,396,156.5313" style="stroke: #A80036; stroke-width: 1.0;"/><line style="stroke: #A80036; stroke-width: 1.0;" x1="273.5" x2="398" y1="156.5313" y2="156.5313"/><rect fill="#3333C4" height="31.6094" style="stroke: #A80036; stroke-width: 1.5;" width="153" x="404" y="150.5313"/><text fill="#FFFFFF" font-family="sans-serif" font-size="14" lengthAdjust="spacingAndGlyphs" textLength="139" x="411" y="172.0645">orderBook:OrderBook</text><polygon fill="#A80036" points="284.5,211.4922,274.5,215.4922,284.5,219.4922,280.5,215.4922" style="stroke: #A80036; stroke-width: 1.0;"/><line style="stroke: #A80036; stroke-width: 1.0; stroke-dasharray: 2.0,2.0;" x1="278.5" x2="479.5" y1="215.4922" y2="215.4922"/><text fill="#000000" font-family="sans-serif" font-size="13" lengthAdjust="spacingAndGlyphs" textLength="59" x="347.5" y="210.6357">orderBook</text><polygon fill="#A80036" points="1056,241.8438,1066,245.8438,1056,249.8438,1060,245.8438" style="stroke: #A80036; stroke-width: 1.0;"/><line style="stroke: #A80036; stroke-width: 1.0;" x1="273.5" x2="1062" y1="245.8438" y2="245.8438"/><text fill="#000000" font-family="sans-serif" font-size="13" lengthAdjust="spacingAndGlyphs" textLength="147" x="597.25" y="240.9873">setOrderBook(orderBook)</text><polygon fill="#A80036" points="284.5,255.8438,274.5,259.8438,284.5,263.8438,280.5,259.8438" style="stroke: #A80036; stroke-width: 1.0;"/><line style="stroke: #A80036; stroke-width: 1.0; stroke-dasharray: 2.0,2.0;" x1="278.5" x2="1072" y1="259.8438" y2="259.8438"/><polygon fill="#A80036" points="842,286.1953,852,290.1953,842,294.1953,846,290.1953" style="stroke: #A80036; stroke-width: 1.0;"/><line style="stroke: #A80036; stroke-width: 1.0;" x1="273.5" x2="848" y1="290.1953" y2="290.1953"/><text fill="#000000" font-family="sans-serif" font-size="13" lengthAdjust="spacingAndGlyphs" textLength="234" x="446.75" y="285.3389">MESSAGE_SUCCESS_ORDER_BOOK</text><rect fill="#3333C4" height="31.6094" style="stroke: #A80036; stroke-width: 1.5;" width="157" x="854" y="267.8438"/><text fill="#FFFFFF" font-family="sans-serif" font-size="14" lengthAdjust="spacingAndGlyphs" textLength="143" x="861" y="289.377">result:CommandResult</text><polygon fill="#A80036" points="284.5,328.8047,274.5,332.8047,284.5,336.8047,280.5,332.8047" style="stroke: #A80036; stroke-width: 1.0;"/><line style="stroke: #A80036; stroke-width: 1.0; stroke-dasharray: 2.0,2.0;" x1="278.5" x2="931.5" y1="332.8047" y2="332.8047"/><text fill="#000000" font-family="sans-serif" font-size="13" lengthAdjust="spacingAndGlyphs" textLength="32" x="587" y="327.9482">result</text><line style="stroke: #000000; stroke-width: 1.0; stroke-dasharray: 2.0,2.0;" x1="143" x2="1125" y1="341.8047" y2="341.8047"/><text fill="#000000" font-family="sans-serif" font-size="11" font-weight="bold" lengthAdjust="spacingAndGlyphs" textLength="191" x="148" y="353.2236">[`-r` flag and `-f` flag found in flags]</text><polygon fill="#A80036" points="575,358.6406,585,362.6406,575,366.6406,579,362.6406" style="stroke: #A80036; stroke-width: 1.0;"/><line style="stroke: #A80036; stroke-width: 1.0;" x1="273.5" x2="581" y1="362.6406" y2="362.6406"/><rect fill="#3333C4" height="31.6094" style="stroke: #A80036; stroke-width: 1.5;" width="237" x="587" y="356.6406"/><text fill="#FFFFFF" font-family="sans-serif" font-size="14" lengthAdjust="spacingAndGlyphs" textLength="223" x="594" y="378.1738">returnOrderBook:ReturnOrderBook</text><polygon fill="#A80036" points="284.5,417.6016,274.5,421.6016,284.5,425.6016,280.5,421.6016" style="stroke: #A80036; stroke-width: 1.0;"/><line style="stroke: #A80036; stroke-width: 1.0; stroke-dasharray: 2.0,2.0;" x1="278.5" x2="704.5" y1="421.6016" y2="421.6016"/><text fill="#000000" font-family="sans-serif" font-size="13" lengthAdjust="spacingAndGlyphs" textLength="95" x="442" y="416.7451">returnOrderBook</text><polygon fill="#A80036" points="1056,447.9531,1066,451.9531,1056,455.9531,1060,451.9531" style="stroke: #A80036; stroke-width: 1.0;"/><line style="stroke: #A80036; stroke-width: 1.0;" x1="273.5" x2="1062" y1="451.9531" y2="451.9531"/><text fill="#000000" font-family="sans-serif" font-size="13" lengthAdjust="spacingAndGlyphs" textLength="221" x="560.25" y="447.0967">setReturnOrderBook(returnOrderBook)</text><polygon fill="#A80036" points="284.5,461.9531,274.5,465.9531,284.5,469.9531,280.5,465.9531" style="stroke: #A80036; stroke-width: 1.0;"/><line style="stroke: #A80036; stroke-width: 1.0; stroke-dasharray: 2.0,2.0;" x1="278.5" x2="1072" y1="465.9531" y2="465.9531"/><polygon fill="#A80036" points="842,492.3047,852,496.3047,842,500.3047,846,496.3047" style="stroke: #A80036; stroke-width: 1.0;"/><line style="stroke: #A80036; stroke-width: 1.0;" x1="273.5" x2="848" y1="496.3047" y2="496.3047"/><text fill="#000000" font-family="sans-serif" font-size="13" lengthAdjust="spacingAndGlyphs" textLength="240" x="443.75" y="491.4482">MESSAGE_SUCCESS_RETURN_BOOK</text><rect fill="#3333C4" height="31.6094" style="stroke: #A80036; stroke-width: 1.5;" width="157" x="854" y="473.9531"/><text fill="#FFFFFF" font-family="sans-serif" font-size="14" lengthAdjust="spacingAndGlyphs" textLength="143" x="861" y="495.4863">result:CommandResult</text><polygon fill="#A80036" points="284.5,534.9141,274.5,538.9141,284.5,542.9141,280.5,538.9141" style="stroke: #A80036; stroke-width: 1.0;"/><line style="stroke: #A80036; stroke-width: 1.0; stroke-dasharray: 2.0,2.0;" x1="278.5" x2="931.5" y1="538.9141" y2="538.9141"/><text fill="#000000" font-family="sans-serif" font-size="13" lengthAdjust="spacingAndGlyphs" textLength="32" x="587" y="534.0576">result</text><line style="stroke: #000000; stroke-width: 1.0; stroke-dasharray: 2.0,2.0;" x1="143" x2="1125" y1="547.9141" y2="547.9141"/><text fill="#000000" font-family="sans-serif" font-size="11" font-weight="bold" lengthAdjust="spacingAndGlyphs" textLength="152" x="148" y="559.333">[Only `-f` flag found in flags]</text><polygon fill="#A80036" points="392,564.75,402,568.75,392,572.75,396,568.75" style="stroke: #A80036; stroke-width: 1.0;"/><line style="stroke: #A80036; stroke-width: 1.0;" x1="273.5" x2="398" y1="568.75" y2="568.75"/><rect fill="#3333C4" height="31.6094" style="stroke: #A80036; stroke-width: 1.5;" width="153" x="404" y="562.75"/><text fill="#FFFFFF" font-family="sans-serif" font-size="14" lengthAdjust="spacingAndGlyphs" textLength="139" x="411" y="584.2832">orderBook:OrderBook</text><polygon fill="#A80036" points="284.5,623.7109,274.5,627.7109,284.5,631.7109,280.5,627.7109" style="stroke: #A80036; stroke-width: 1.0;"/><line style="stroke: #A80036; stroke-width: 1.0; stroke-dasharray: 2.0,2.0;" x1="278.5" x2="479.5" y1="627.7109" y2="627.7109"/><text fill="#000000" font-family="sans-serif" font-size="13" lengthAdjust="spacingAndGlyphs" textLength="62" x="346" y="622.8545">OrderBook</text><polygon fill="#A80036" points="575,637.7109,585,641.7109,575,645.7109,579,641.7109" style="stroke: #A80036; stroke-width: 1.0;"/><line style="stroke: #A80036; stroke-width: 1.0;" x1="273.5" x2="581" y1="641.7109" y2="641.7109"/><rect fill="#3333C4" height="31.6094" style="stroke: #A80036; stroke-width: 1.5;" width="237" x="587" y="635.7109"/><text fill="#FFFFFF" font-family="sans-serif" font-size="14" lengthAdjust="spacingAndGlyphs" textLength="223" x="594" y="657.2441">returnOrderBook:ReturnOrderBook</text><polygon fill="#A80036" points="284.5,696.6719,274.5,700.6719,284.5,704.6719,280.5,700.6719" style="stroke: #A80036; stroke-width: 1.0;"/><line style="stroke: #A80036; stroke-width: 1.0; stroke-dasharray: 2.0,2.0;" x1="278.5" x2="704.5" y1="700.6719" y2="700.6719"/><text fill="#000000" font-family="sans-serif" font-size="13" lengthAdjust="spacingAndGlyphs" textLength="95" x="442" y="695.8154">returnOrderBook</text><polygon fill="#A80036" points="1056,727.0234,1066,731.0234,1056,735.0234,1060,731.0234" style="stroke: #A80036; stroke-width: 1.0;"/><line style="stroke: #A80036; stroke-width: 1.0;" x1="273.5" x2="1062" y1="731.0234" y2="731.0234"/><text fill="#000000" font-family="sans-serif" font-size="13" lengthAdjust="spacingAndGlyphs" textLength="147" x="597.25" y="726.167">setOrderBook(orderBook)</text><polygon fill="#A80036" points="284.5,741.0234,274.5,745.0234,284.5,749.0234,280.5,745.0234" style="stroke: #A80036; stroke-width: 1.0;"/><line style="stroke: #A80036; stroke-width: 1.0; stroke-dasharray: 2.0,2.0;" x1="278.5" x2="1072" y1="745.0234" y2="745.0234"/><polygon fill="#A80036" points="1056,771.375,1066,775.375,1056,779.375,1060,775.375" style="stroke: #A80036; stroke-width: 1.0;"/><line style="stroke: #A80036; stroke-width: 1.0;" x1="273.5" x2="1062" y1="775.375" y2="775.375"/><text fill="#000000" font-family="sans-serif" font-size="13" lengthAdjust="spacingAndGlyphs" textLength="221" x="560.25" y="770.5186">setReturnOrderBook(returnOrderBook)</text><polygon fill="#A80036" points="284.5,785.375,274.5,789.375,284.5,793.375,280.5,789.375" style="stroke: #A80036; stroke-width: 1.0;"/><line style="stroke: #A80036; stroke-width: 1.0; stroke-dasharray: 2.0,2.0;" x1="278.5" x2="1072" y1="789.375" y2="789.375"/><polygon fill="#A80036" points="842,815.7266,852,819.7266,842,823.7266,846,819.7266" style="stroke: #A80036; stroke-width: 1.0;"/><line style="stroke: #A80036; stroke-width: 1.0;" x1="273.5" x2="848" y1="819.7266" y2="819.7266"/><text fill="#000000" font-family="sans-serif" font-size="13" lengthAdjust="spacingAndGlyphs" textLength="223" x="452.25" y="814.8701">MESSAGE_SUCCESS_BOTH_BOOK</text><rect fill="#3333C4" height="31.6094" style="stroke: #A80036; stroke-width: 1.5;" width="157" x="854" y="797.375"/><text fill="#FFFFFF" font-family="sans-serif" font-size="14" lengthAdjust="spacingAndGlyphs" textLength="143" x="861" y="818.9082">result:CommandResult</text><polygon fill="#A80036" points="284.5,858.3359,274.5,862.3359,284.5,866.3359,280.5,862.3359" style="stroke: #A80036; stroke-width: 1.0;"/><line style="stroke: #A80036; stroke-width: 1.0; stroke-dasharray: 2.0,2.0;" x1="278.5" x2="931.5" y1="862.3359" y2="862.3359"/><text fill="#000000" font-family="sans-serif" font-size="13" lengthAdjust="spacingAndGlyphs" textLength="32" x="587" y="857.4795">result</text><line style="stroke: #000000; stroke-width: 1.0; stroke-dasharray: 2.0,2.0;" x1="143" x2="1125" y1="871.3359" y2="871.3359"/><text fill="#000000" font-family="sans-serif" font-size="11" font-weight="bold" lengthAdjust="spacingAndGlyphs" textLength="155" x="148" y="882.7549">[Only `-o` flag found in flags]</text><polygon fill="#A80036" points="842,904.5234,852,908.5234,842,912.5234,846,908.5234" style="stroke: #A80036; stroke-width: 1.0;"/><line style="stroke: #A80036; stroke-width: 1.0;" x1="273.5" x2="848" y1="908.5234" y2="908.5234"/><text fill="#000000" font-family="sans-serif" font-size="13" lengthAdjust="spacingAndGlyphs" textLength="229" x="449.25" y="903.667">MESSAGE_ENQUIRY_ORDER_BOOK</text><rect fill="#3333C4" height="31.6094" style="stroke: #A80036; stroke-width: 1.5;" width="157" x="854" y="886.1719"/><text fill="#FFFFFF" font-family="sans-serif" font-size="14" lengthAdjust="spacingAndGlyphs" textLength="143" x="861" y="907.7051">result:CommandResult</text><polygon fill="#A80036" points="284.5,947.1328,274.5,951.1328,284.5,955.1328,280.5,951.1328" style="stroke: #A80036; stroke-width: 1.0;"/><line style="stroke: #A80036; stroke-width: 1.0; stroke-dasharray: 2.0,2.0;" x1="278.5" x2="931.5" y1="951.1328" y2="951.1328"/><text fill="#000000" font-family="sans-serif" font-size="13" lengthAdjust="spacingAndGlyphs" textLength="32" x="587" y="946.2764">result</text><line style="stroke: #000000; stroke-width: 1.0; stroke-dasharray: 2.0,2.0;" x1="143" x2="1125" y1="960.1328" y2="960.1328"/><text fill="#000000" font-family="sans-serif" font-size="11" font-weight="bold" lengthAdjust="spacingAndGlyphs" textLength="153" x="148" y="971.5518">[Only `-r` flag found in flags]</text><polygon fill="#A80036" points="842,993.3203,852,997.3203,842,1001.3203,846,997.3203" style="stroke: #A80036; stroke-width: 1.0;"/><line style="stroke: #A80036; stroke-width: 1.0;" x1="273.5" x2="848" y1="997.3203" y2="997.3203"/><text fill="#000000" font-family="sans-serif" font-size="13" lengthAdjust="spacingAndGlyphs" textLength="235" x="446.25" y="992.4639">MESSAGE_ENQUIRY_RETURN_BOOK</text><rect fill="#3333C4" height="31.6094" style="stroke: #A80036; stroke-width: 1.5;" width="157" x="854" y="974.9688"/><text fill="#FFFFFF" font-family="sans-serif" font-size="14" lengthAdjust="spacingAndGlyphs" textLength="143" x="861" y="996.502">result:CommandResult</text><polygon fill="#A80036" points="284.5,1035.9297,274.5,1039.9297,284.5,1043.9297,280.5,1039.9297" style="stroke: #A80036; stroke-width: 1.0;"/><line style="stroke: #A80036; stroke-width: 1.0; stroke-dasharray: 2.0,2.0;" x1="278.5" x2="931.5" y1="1039.9297" y2="1039.9297"/><text fill="#000000" font-family="sans-serif" font-size="13" lengthAdjust="spacingAndGlyphs" textLength="32" x="587" y="1035.0732">result</text><line style="stroke: #000000; stroke-width: 1.0; stroke-dasharray: 2.0,2.0;" x1="143" x2="1125" y1="1048.9297" y2="1048.9297"/><text fill="#000000" font-family="sans-serif" font-size="11" font-weight="bold" lengthAdjust="spacingAndGlyphs" textLength="123" x="148" y="1060.3486">[No flag found in flags]</text><polygon fill="#A80036" points="842,1082.1172,852,1086.1172,842,1090.1172,846,1086.1172" style="stroke: #A80036; stroke-width: 1.0;"/><line style="stroke: #A80036; stroke-width: 1.0;" x1="273.5" x2="848" y1="1086.1172" y2="1086.1172"/><text fill="#000000" font-family="sans-serif" font-size="13" lengthAdjust="spacingAndGlyphs" textLength="218" x="454.75" y="1081.2607">MESSAGE_ENQUIRY_BOTH_BOOK</text><rect fill="#3333C4" height="31.6094" style="stroke: #A80036; stroke-width: 1.5;" width="157" x="854" y="1063.7656"/><text fill="#FFFFFF" font-family="sans-serif" font-size="14" lengthAdjust="spacingAndGlyphs" textLength="143" x="861" y="1085.2988">result:CommandResult</text><polygon fill="#A80036" points="284.5,1124.7266,274.5,1128.7266,284.5,1132.7266,280.5,1128.7266" style="stroke: #A80036; stroke-width: 1.0;"/><line style="stroke: #A80036; stroke-width: 1.0; stroke-dasharray: 2.0,2.0;" x1="278.5" x2="931.5" y1="1128.7266" y2="1128.7266"/><text fill="#000000" font-family="sans-serif" font-size="13" lengthAdjust="spacingAndGlyphs" textLength="32" x="587" y="1123.8701">result</text><polygon fill="#A80036" points="95,1162.0781,85,1166.0781,95,1170.0781,91,1166.0781" style="stroke: #A80036; stroke-width: 1.0;"/><line style="stroke: #A80036; stroke-width: 1.0; stroke-dasharray: 2.0,2.0;" x1="89" x2="267.5" y1="1166.0781" y2="1166.0781"/><text fill="#000000" font-family="sans-serif" font-size="13" lengthAdjust="spacingAndGlyphs" textLength="32" x="160.25" y="1161.2217">result</text><polygon fill="#A80036" points="14,1176.0781,4,1180.0781,14,1184.0781,10,1180.0781" style="stroke: #A80036; stroke-width: 1.0;"/><line style="stroke: #A80036; stroke-width: 1.0; stroke-dasharray: 2.0,2.0;" x1="8" x2="78" y1="1180.0781" y2="1180.0781"/><!--MD5=[a92181ee3492fe161339fa6f8f51320b]
@startuml








skinparam BackgroundColor #FFFFFFF

skinparam Shadowing false

skinparam Class {
    FontColor #FFFFFF
    BorderThickness 1
    BorderColor #FFFFFF
    StereotypeFontColor #FFFFFF
    FontName Arial
}

skinparam Actor {
    BorderColor #000000
    Color #000000
    FontName Arial
}

skinparam Sequence {
    MessageAlign center
    BoxFontSize 15
    BoxPadding 0
    BoxFontColor #FFFFFF
    FontName Arial
}

skinparam Participant {
    FontColor #FFFFFFF
    Padding 20
}

skinparam MinClassWidth 50
skinparam ParticipantPadding 10
skinparam Shadowing false
skinparam DefaultTextAlignment center
skinparam packageStyle Rectangle

hide footbox
hide members
hide circle
box Logic #C8C8FA
participant ":LogicManager" as LogicManager #3333C4
participant "clearCommand:ClearCommand" as ClearCommand #3333C4
participant "orderBook:OrderBook" as OrderBook #3333C4
participant "returnOrderBook:ReturnOrderBook" as ReturnOrderBook #3333C4
participant "result:CommandResult" as CommandResult #3333C4
end box

box Model #F97181
participant ":Model" as Model #9D0012
end box
activate LogicManager

group sd Execution of the Clear Command Sequence Diagram

LogicManager -> ClearCommand ++ : execute(model)

opt `-o` flag and `-f` flag found in flags
    create OrderBook
    ClearCommand -> OrderBook ++

    OrderBook - -> ClearCommand - - : orderBook

    ClearCommand -> Model ++ : setOrderBook(orderBook)
    Model - -> ClearCommand - -

    create CommandResult
    ClearCommand -> CommandResult ++ : MESSAGE_SUCCESS_ORDER_BOOK

    CommandResult - -> ClearCommand - - : result
else `-r` flag and `-f` flag found in flags
    create ReturnOrderBook
    ClearCommand -> ReturnOrderBook ++

    ReturnOrderBook - -> ClearCommand - - : returnOrderBook

    ClearCommand -> Model ++ : setReturnOrderBook(returnOrderBook)
    Model - -> ClearCommand - -

    create CommandResult
    ClearCommand -> CommandResult ++ : MESSAGE_SUCCESS_RETURN_BOOK

    CommandResult - -> ClearCommand - - : result
else Only `-f` flag found in flags
    create OrderBook
    ClearCommand -> OrderBook ++
    OrderBook - -> ClearCommand - - : OrderBook

    create ReturnOrderBook
    ClearCommand -> ReturnOrderBook ++
    ReturnOrderBook - -> ClearCommand - - : returnOrderBook

    ClearCommand -> Model ++ : setOrderBook(orderBook)
    Model - -> ClearCommand - -

    ClearCommand -> Model ++ : setReturnOrderBook(returnOrderBook)
    Model - -> ClearCommand - -

    create CommandResult
    ClearCommand -> CommandResult ++ : MESSAGE_SUCCESS_BOTH_BOOK

    CommandResult - -> ClearCommand - - : result
else Only `-o` flag found in flags
     create CommandResult
     ClearCommand -> CommandResult ++ : MESSAGE_ENQUIRY_ORDER_BOOK

    CommandResult - -> ClearCommand - - : result
else Only `-r` flag found in flags
    create CommandResult
    ClearCommand -> CommandResult ++ : MESSAGE_ENQUIRY_RETURN_BOOK

    CommandResult - -> ClearCommand - - : result
else No flag found in flags
    create CommandResult
    ClearCommand -> CommandResult ++ : MESSAGE_ENQUIRY_BOTH_BOOK

    CommandResult - -> ClearCommand - - : result
end

ClearCommand - -> LogicManager : result
deactivate ClearCommand

[<- -LogicManager
deactivate LogicManager

end
@enduml

PlantUML version 1.2019.11(Sun Sep 22 18:02:15 SGT 2019)
(GPL source distribution)
Java Runtime: OpenJDK Runtime Environment
JVM: OpenJDK 64-Bit Server VM
Java Version: 11.0.5+10-b520.30
Operating System: Windows 10
Default Encoding: UTF-8
Language: en
Country: US
--></g></svg>
