<?xml version="1.0" encoding="UTF-8" standalone="no"?><svg xmlns="http://www.w3.org/2000/svg" xmlns:xlink="http://www.w3.org/1999/xlink" contentScriptType="application/ecmascript" contentStyleType="text/css" height="551px" preserveAspectRatio="none" style="width:919px;height:551px;" version="1.1" viewBox="0 0 919 551" width="919px" zoomAndPan="magnify"><defs/><g><rect fill="#C8C8FA" height="529.5625" style="stroke: #A80036; stroke-width: 1.0;" width="752.5" x="62" y="4"/><text fill="#FFFFFF" font-family="sans-serif" font-size="15" font-weight="bold" lengthAdjust="spacingAndGlyphs" textLength="39" x="416.75" y="19.5713">Logic</text><rect fill="#F97181" height="529.5625" style="stroke: #A80036; stroke-width: 1.0;" width="92" x="816.5" y="4"/><text fill="#FFFFFF" font-family="sans-serif" font-size="15" font-weight="bold" lengthAdjust="spacingAndGlyphs" textLength="44" x="838.5" y="19.5713">Model</text><rect fill="#FFFFFF" height="429.7344" style="stroke: #A80036; stroke-width: 1.0;" width="10" x="125" y="91.8281"/><rect fill="#FFFFFF" height="321.3281" style="stroke: #A80036; stroke-width: 1.0;" width="10" x="302" y="122.1797"/><rect fill="#FFFFFF" height="32.6094" style="stroke: #A80036; stroke-width: 1.0;" width="10" x="475.5" y="146.1797"/><rect fill="#FFFFFF" height="190.0156" style="stroke: #A80036; stroke-width: 1.0;" width="10" x="475.5" y="209.1406"/><rect fill="#FFFFFF" height="41.3516" style="stroke: #A80036; stroke-width: 1.0;" width="10" x="480.5" y="247.4922"/><rect fill="#FFFFFF" height="32.6094" style="stroke: #A80036; stroke-width: 1.0;" width="10" x="690" y="336.1953"/><rect fill="#3333C4" height="31.6094" style="stroke: #A80036; stroke-width: 1.5;" width="158" x="401.5" y="130.1797"/><text fill="#FFFFFF" font-family="sans-serif" font-size="14" lengthAdjust="spacingAndGlyphs" textLength="144" x="408.5" y="151.7129">:ClearCommandParser</text><rect fill="#3333C4" height="31.6094" style="stroke: #A80036; stroke-width: 1.5;" width="211" x="589.5" y="303.8438"/><text fill="#FFFFFF" font-family="sans-serif" font-size="14" lengthAdjust="spacingAndGlyphs" textLength="197" x="596.5" y="325.377">clearCommand:ClearCommand</text><line style="stroke: #A80036; stroke-width: 1.0; stroke-dasharray: 5.0,5.0;" x1="130" x2="130" y1="59.4766" y2="539.5625"/><line style="stroke: #A80036; stroke-width: 1.0; stroke-dasharray: 5.0,5.0;" x1="306.5" x2="306.5" y1="59.4766" y2="539.5625"/><line style="stroke: #A80036; stroke-width: 1.0; stroke-dasharray: 5.0,5.0;" x1="480.5" x2="480.5" y1="161.4844" y2="539.5625"/><line style="stroke: #A80036; stroke-width: 1.0; stroke-dasharray: 5.0,5.0;" x1="694.5" x2="694.5" y1="335.1484" y2="539.5625"/><line style="stroke: #A80036; stroke-width: 1.0; stroke-dasharray: 5.0,5.0;" x1="862.5" x2="862.5" y1="59.4766" y2="539.5625"/><rect fill="#3333C4" height="31.6094" style="stroke: #A80036; stroke-width: 1.5;" width="108" x="76" y="26.8672"/><text fill="#FFFFFF" font-family="sans-serif" font-size="14" lengthAdjust="spacingAndGlyphs" textLength="94" x="83" y="48.4004">:LogicManager</text><rect fill="#3333C4" height="31.6094" style="stroke: #A80036; stroke-width: 1.5;" width="129" x="242.5" y="26.8672"/><text fill="#FFFFFF" font-family="sans-serif" font-size="14" lengthAdjust="spacingAndGlyphs" textLength="115" x="249.5" y="48.4004">:OrderBookParser</text><rect fill="#9D0012" height="31.6094" style="stroke: #A80036; stroke-width: 1.5;" width="64" x="830.5" y="26.8672"/><text fill="#FFFFFF" font-family="sans-serif" font-size="14" lengthAdjust="spacingAndGlyphs" textLength="42" x="841.5" y="48.4004">:Model</text><rect fill="#FFFFFF" height="429.7344" style="stroke: #A80036; stroke-width: 1.0;" width="10" x="125" y="91.8281"/><rect fill="#FFFFFF" height="321.3281" style="stroke: #A80036; stroke-width: 1.0;" width="10" x="302" y="122.1797"/><rect fill="#FFFFFF" height="32.6094" style="stroke: #A80036; stroke-width: 1.0;" width="10" x="475.5" y="146.1797"/><rect fill="#FFFFFF" height="190.0156" style="stroke: #A80036; stroke-width: 1.0;" width="10" x="475.5" y="209.1406"/><rect fill="#FFFFFF" height="41.3516" style="stroke: #A80036; stroke-width: 1.0;" width="10" x="480.5" y="247.4922"/><rect fill="#FFFFFF" height="32.6094" style="stroke: #A80036; stroke-width: 1.0;" width="10" x="690" y="336.1953"/><polygon fill="#A80036" points="113,87.8281,123,91.8281,113,95.8281,117,91.8281" style="stroke: #A80036; stroke-width: 1.0;"/><line style="stroke: #A80036; stroke-width: 1.0;" x1="3" x2="119" y1="91.8281" y2="91.8281"/><text fill="#000000" font-family="sans-serif" font-size="13" lengthAdjust="spacingAndGlyphs" textLength="103" x="12.5" y="86.9717">execute("clear -f")</text><polygon fill="#A80036" points="290,118.1797,300,122.1797,290,126.1797,294,122.1797" style="stroke: #A80036; stroke-width: 1.0;"/><line style="stroke: #A80036; stroke-width: 1.0;" x1="135" x2="296" y1="122.1797" y2="122.1797"/><text fill="#000000" font-family="sans-serif" font-size="13" lengthAdjust="spacingAndGlyphs" textLength="148" x="144.5" y="117.3232">parseCommand("clear -f")</text><polygon fill="#A80036" points="389.5,132.1797,399.5,136.1797,389.5,140.1797,393.5,136.1797" style="stroke: #A80036; stroke-width: 1.0;"/><line style="stroke: #A80036; stroke-width: 1.0;" x1="312" x2="395.5" y1="136.1797" y2="136.1797"/><rect fill="#3333C4" height="31.6094" style="stroke: #A80036; stroke-width: 1.5;" width="158" x="401.5" y="130.1797"/><text fill="#FFFFFF" font-family="sans-serif" font-size="14" lengthAdjust="spacingAndGlyphs" textLength="144" x="408.5" y="151.7129">:ClearCommandParser</text><polygon fill="#A80036" points="323,174.7891,313,178.7891,323,182.7891,319,178.7891" style="stroke: #A80036; stroke-width: 1.0;"/><line style="stroke: #A80036; stroke-width: 1.0; stroke-dasharray: 2.0,2.0;" x1="317" x2="479.5" y1="178.7891" y2="178.7891"/><polygon fill="#A80036" points="463.5,205.1406,473.5,209.1406,463.5,213.1406,467.5,209.1406" style="stroke: #A80036; stroke-width: 1.0;"/><line style="stroke: #A80036; stroke-width: 1.0;" x1="312" x2="469.5" y1="209.1406" y2="209.1406"/><text fill="#000000" font-family="sans-serif" font-size="13" lengthAdjust="spacingAndGlyphs" textLength="57" x="365.25" y="204.2842">parse("-f")</text><line style="stroke: #A80036; stroke-width: 1.0;" x1="485.5" x2="532.5" y1="234.4922" y2="234.4922"/><line style="stroke: #A80036; stroke-width: 1.0;" x1="532.5" x2="532.5" y1="234.4922" y2="247.4922"/><line style="stroke: #A80036; stroke-width: 1.0;" x1="491.5" x2="532.5" y1="247.4922" y2="247.4922"/><polygon fill="#A80036" points="501.5,243.4922,491.5,247.4922,501.5,251.4922,497.5,247.4922" style="stroke: #A80036; stroke-width: 1.0;"/><text fill="#000000" font-family="sans-serif" font-size="13" lengthAdjust="spacingAndGlyphs" textLength="106" x="497.5" y="229.6357">retrieveFlags(args)</text><line style="stroke: #A80036; stroke-width: 1.0; stroke-dasharray: 2.0,2.0;" x1="490.5" x2="532.5" y1="287.8438" y2="287.8438"/><line style="stroke: #A80036; stroke-width: 1.0; stroke-dasharray: 2.0,2.0;" x1="532.5" x2="532.5" y1="287.8438" y2="300.8438"/><line style="stroke: #A80036; stroke-width: 1.0; stroke-dasharray: 2.0,2.0;" x1="485.5" x2="532.5" y1="300.8438" y2="300.8438"/><polygon fill="#A80036" points="495.5,296.8438,485.5,300.8438,495.5,304.8438,491.5,300.8438" style="stroke: #A80036; stroke-width: 1.0;"/><text fill="#000000" font-family="sans-serif" font-size="13" lengthAdjust="spacingAndGlyphs" textLength="27" x="497.5" y="282.9873">flags</text><polygon fill="#A80036" points="577.5,322.1953,587.5,326.1953,577.5,330.1953,581.5,326.1953" style="stroke: #A80036; stroke-width: 1.0;"/><line style="stroke: #A80036; stroke-width: 1.0;" x1="485.5" x2="583.5" y1="326.1953" y2="326.1953"/><text fill="#000000" font-family="sans-serif" font-size="13" lengthAdjust="spacingAndGlyphs" textLength="27" x="524" y="321.3389">flags</text><rect fill="#3333C4" height="31.6094" style="stroke: #A80036; stroke-width: 1.5;" width="211" x="589.5" y="303.8438"/><text fill="#FFFFFF" font-family="sans-serif" font-size="14" lengthAdjust="spacingAndGlyphs" textLength="197" x="596.5" y="325.377">clearCommand:ClearCommand</text><polygon fill="#A80036" points="496.5,364.8047,486.5,368.8047,496.5,372.8047,492.5,368.8047" style="stroke: #A80036; stroke-width: 1.0;"/><line style="stroke: #A80036; stroke-width: 1.0; stroke-dasharray: 2.0,2.0;" x1="490.5" x2="694" y1="368.8047" y2="368.8047"/><text fill="#000000" font-family="sans-serif" font-size="13" lengthAdjust="spacingAndGlyphs" textLength="87" x="546.75" y="363.9482">clearCommand</text><polygon fill="#A80036" points="323,395.1563,313,399.1563,323,403.1563,319,399.1563" style="stroke: #A80036; stroke-width: 1.0;"/><line style="stroke: #A80036; stroke-width: 1.0; stroke-dasharray: 2.0,2.0;" x1="317" x2="479.5" y1="399.1563" y2="399.1563"/><text fill="#000000" font-family="sans-serif" font-size="13" lengthAdjust="spacingAndGlyphs" textLength="87" x="352.75" y="394.2998">clearCommand</text><line style="stroke: #A80036; stroke-width: 2.0;" x1="471.5" x2="489.5" y1="404.1563" y2="422.1563"/><line style="stroke: #A80036; stroke-width: 2.0;" x1="471.5" x2="489.5" y1="422.1563" y2="404.1563"/><polygon fill="#A80036" points="146,439.5078,136,443.5078,146,447.5078,142,443.5078" style="stroke: #A80036; stroke-width: 1.0;"/><line style="stroke: #A80036; stroke-width: 1.0; stroke-dasharray: 2.0,2.0;" x1="140" x2="306" y1="443.5078" y2="443.5078"/><text fill="#000000" font-family="sans-serif" font-size="13" lengthAdjust="spacingAndGlyphs" textLength="87" x="177.5" y="438.6514">clearCommand</text><rect fill="#FFFFFF" height="42.7031" style="stroke: #000000; stroke-width: 2.0;" width="844.5" x="63" y="451.5078"/><polygon fill="#EEEEEE" points="63,451.5078,125,451.5078,125,459.5078,115,469.5078,63,469.5078,63,451.5078" style="stroke: #000000; stroke-width: 2.0;"/><text fill="#000000" font-family="sans-serif" font-size="13" font-weight="bold" lengthAdjust="spacingAndGlyphs" textLength="17" x="76" y="467.0029">ref</text><text fill="#000000" font-family="sans-serif" font-size="13" lengthAdjust="spacingAndGlyphs" textLength="139" x="415.75" y="487.0029">execute clear command</text><polygon fill="#A80036" points="14,517.5625,4,521.5625,14,525.5625,10,521.5625" style="stroke: #A80036; stroke-width: 1.0;"/><line style="stroke: #A80036; stroke-width: 1.0; stroke-dasharray: 2.0,2.0;" x1="8" x2="129" y1="521.5625" y2="521.5625"/><text fill="#000000" font-family="sans-serif" font-size="13" lengthAdjust="spacingAndGlyphs" textLength="32" x="50.5" y="516.7061">result</text><!--MD5=[97671f8461b787fad4d7277b108b3194]
@startuml








skinparam BackgroundColor #FFFFFFF

skinparam Shadowing false

skinparam Class {
    FontColor #FFFFFF
    BorderThickness 1
    BorderColor #FFFFFF
    StereotypeFontColor #FFFFFF
    FontName Arial
}

skinparam Actor {
    BorderColor #000000
    Color #000000
    FontName Arial
}

skinparam Sequence {
    MessageAlign center
    BoxFontSize 15
    BoxPadding 0
    BoxFontColor #FFFFFF
    FontName Arial
}

skinparam Participant {
    FontColor #FFFFFFF
    Padding 20
}

skinparam MinClassWidth 50
skinparam ParticipantPadding 10
skinparam Shadowing false
skinparam DefaultTextAlignment center
skinparam packageStyle Rectangle

hide footbox
hide members
hide circle
box Logic #C8C8FA
participant ":LogicManager" as LogicManager #3333C4
participant ":OrderBookParser" as OrderBookParser #3333C4
participant ":ClearCommandParser" as ClearCommandParser #3333C4
participant "clearCommand:ClearCommand" as ClearCommand #3333C4
end box

box Model #F97181
participant ":Model" as Model #9D0012
end box

[-> LogicManager : execute("clear -f")
activate LogicManager

LogicManager -> OrderBookParser : parseCommand("clear -f")
activate OrderBookParser

create ClearCommandParser
OrderBookParser -> ClearCommandParser ++

ClearCommandParser - -> OrderBookParser - -

OrderBookParser -> ClearCommandParser ++ : parse("-f")

ClearCommandParser -> ClearCommandParser ++ : retrieveFlags(args)
ClearCommandParser - -> ClearCommandParser - - : flags

create ClearCommand
ClearCommandParser -> ClearCommand ++ : flags

ClearCommand - -> ClearCommandParser - - : clearCommand

ClearCommandParser - -> OrderBookParser - - : clearCommand
ClearCommandParser -[hidden]-> OrderBookParser
destroy ClearCommandParser

OrderBookParser - -> LogicManager - - : clearCommand

ref over LogicManager,  Model : execute clear command


[<- -LogicManager : result
deactivate LogicManager
@enduml

PlantUML version 1.2019.11(Sun Sep 22 18:02:15 SGT 2019)
(GPL source distribution)
Java Runtime: OpenJDK Runtime Environment
JVM: OpenJDK 64-Bit Server VM
Java Version: 11.0.5+10-b520.30
Operating System: Windows 10
Default Encoding: UTF-8
Language: en
Country: US
--></g></svg>
