<?xml version="1.0" encoding="UTF-8" standalone="no"?><svg xmlns="http://www.w3.org/2000/svg" xmlns:xlink="http://www.w3.org/1999/xlink" contentScriptType="application/ecmascript" contentStyleType="text/css" height="737px" preserveAspectRatio="none" style="width:1500px;height:737px;" version="1.1" viewBox="0 0 1500 737" width="1500px" zoomAndPan="magnify"><defs><filter height="300%" id="f1khfkkquxvk04" width="300%" x="-1" y="-1"><feGaussianBlur result="blurOut" stdDeviation="2.0"/><feColorMatrix in="blurOut" result="blurOut2" type="matrix" values="0 0 0 0 0 0 0 0 0 0 0 0 0 0 0 0 0 0 .4 0"/><feOffset dx="4.0" dy="4.0" in="blurOut2" result="blurOut3"/><feBlend in="SourceGraphic" in2="blurOut3" mode="normal"/></filter></defs><g><ellipse cx="464.125" cy="20" fill="#000000" filter="url(#f1khfkkquxvk04)" rx="10" ry="10" style="stroke: none; stroke-width: 1.0;"/><rect fill="#FEFECE" filter="url(#f1khfkkquxvk04)" height="35.0938" rx="12.5" ry="12.5" style="stroke: #A80036; stroke-width: 1.5;" width="167" x="380.625" y="50"/><text fill="#000000" font-family="sans-serif" font-size="12" lengthAdjust="spacingAndGlyphs" textLength="147" x="390.625" y="72.457">User enter clear command</text><polygon fill="#FEFECE" filter="url(#f1khfkkquxvk04)" points="464.125,105.0938,464.125,105.0938,476.125,117.0938,464.125,129.0938,464.125,129.0938,452.125,117.0938,464.125,105.0938" style="stroke: #A80036; stroke-width: 1.5;"/><text fill="#000000" font-family="sans-serif" font-size="11" lengthAdjust="spacingAndGlyphs" textLength="278" x="174.125" y="114.6768">[invalid flag or both `-r` and `-o` flags found in arguments]</text><text fill="#000000" font-family="sans-serif" font-size="11" lengthAdjust="spacingAndGlyphs" textLength="26" x="476.125" y="114.6768">[else]</text><rect fill="#FEFECE" filter="url(#f1khfkkquxvk04)" height="35.0938" rx="12.5" ry="12.5" style="stroke: #A80036; stroke-width: 1.5;" width="187" x="10" y="139.0938"/><text fill="#000000" font-family="sans-serif" font-size="12" lengthAdjust="spacingAndGlyphs" textLength="167" x="20" y="161.5508">Display error message to user</text><rect fill="#FEFECE" filter="url(#f1khfkkquxvk04)" height="35.0938" rx="12.5" ry="12.5" style="stroke: #A80036; stroke-width: 1.5;" width="149" x="750.25" y="139.0938"/><text fill="#000000" font-family="sans-serif" font-size="12" lengthAdjust="spacingAndGlyphs" textLength="129" x="760.25" y="161.5508">Executes the command</text><polygon fill="#FEFECE" filter="url(#f1khfkkquxvk04)" points="824.75,194.1875,824.75,194.1875,836.75,206.1875,824.75,218.1875,824.75,218.1875,812.75,206.1875,824.75,194.1875" style="stroke: #A80036; stroke-width: 1.5;"/><text fill="#000000" font-family="sans-serif" font-size="11" lengthAdjust="spacingAndGlyphs" textLength="114" x="698.75" y="203.7705">([flags contains '-f' flag]</text><text fill="#000000" font-family="sans-serif" font-size="11" lengthAdjust="spacingAndGlyphs" textLength="26" x="836.75" y="203.7705">[else]</text><polygon fill="#FEFECE" filter="url(#f1khfkkquxvk04)" points="440.5,228.1875,440.5,228.1875,452.5,240.1875,440.5,252.1875,440.5,252.1875,428.5,240.1875,440.5,228.1875" style="stroke: #A80036; stroke-width: 1.5;"/><text fill="#000000" font-family="sans-serif" font-size="11" lengthAdjust="spacingAndGlyphs" textLength="135" x="293.5" y="237.7705">[flags also contains '-o' flag]</text><text fill="#000000" font-family="sans-serif" font-size="11" lengthAdjust="spacingAndGlyphs" textLength="26" x="452.5" y="237.7705">[else]</text><rect fill="#FEFECE" filter="url(#f1khfkkquxvk04)" height="35.0938" rx="12.5" ry="12.5" style="stroke: #A80036; stroke-width: 1.5;" width="132" x="237" y="262.1875"/><text fill="#000000" font-family="sans-serif" font-size="12" lengthAdjust="spacingAndGlyphs" textLength="112" x="247" y="284.6445">Clear the order book</text><polygon fill="#FEFECE" filter="url(#f1khfkkquxvk04)" points="578,262.1875,578,262.1875,590,274.1875,578,286.1875,578,286.1875,566,274.1875,578,262.1875" style="stroke: #A80036; stroke-width: 1.5;"/><text fill="#000000" font-family="sans-serif" font-size="11" lengthAdjust="spacingAndGlyphs" textLength="127" x="439" y="271.7705">[flags also contain '-r' flag]</text><text fill="#000000" font-family="sans-serif" font-size="11" lengthAdjust="spacingAndGlyphs" textLength="129" x="590" y="271.7705">[flags only contains 'f' flag]</text><rect fill="#FEFECE" filter="url(#f1khfkkquxvk04)" height="35.0938" rx="12.5" ry="12.5" style="stroke: #A80036; stroke-width: 1.5;" width="170" x="399" y="296.1875"/><text fill="#000000" font-family="sans-serif" font-size="12" lengthAdjust="spacingAndGlyphs" textLength="147" x="409" y="318.6445">Clear the return order book</text><rect fill="#FEFECE" filter="url(#f1khfkkquxvk04)" height="50.1875" rx="12.5" ry="12.5" style="stroke: #A80036; stroke-width: 1.5;" width="166" x="589" y="296.1875"/><text fill="#000000" font-family="sans-serif" font-size="12" lengthAdjust="spacingAndGlyphs" textLength="146" x="599" y="318.6445">Clear both order book  and</text><text fill="#000000" font-family="sans-serif" font-size="12" lengthAdjust="spacingAndGlyphs" textLength="94" x="602" y="333.7383">return order book</text><polygon fill="#FEFECE" filter="url(#f1khfkkquxvk04)" points="578,352.375,590,364.375,578,376.375,566,364.375,578,352.375" style="stroke: #A80036; stroke-width: 1.5;"/><polygon fill="#FEFECE" filter="url(#f1khfkkquxvk04)" points="440.5,382.375,452.5,394.375,440.5,406.375,428.5,394.375,440.5,382.375" style="stroke: #A80036; stroke-width: 1.5;"/><rect fill="#FEFECE" filter="url(#f1khfkkquxvk04)" height="35.0938" rx="12.5" ry="12.5" style="stroke: #A80036; stroke-width: 1.5;" width="230" x="325.5" y="426.375"/><text fill="#000000" font-family="sans-serif" font-size="12" lengthAdjust="spacingAndGlyphs" textLength="210" x="335.5" y="448.832">Display success message to the User</text><polygon fill="#FEFECE" filter="url(#f1khfkkquxvk04)" points="1209,228.1875,1209,228.1875,1221,240.1875,1209,252.1875,1209,252.1875,1197,240.1875,1209,228.1875" style="stroke: #A80036; stroke-width: 1.5;"/><text fill="#000000" font-family="sans-serif" font-size="11" lengthAdjust="spacingAndGlyphs" textLength="139" x="1058" y="237.7705">[flags do not contains 'f' flag]</text><text fill="#000000" font-family="sans-serif" font-size="11" lengthAdjust="spacingAndGlyphs" textLength="90" x="1221" y="237.7705">[flags equal to null]</text><polygon fill="#FEFECE" filter="url(#f1khfkkquxvk04)" points="1033,262.1875,1033,262.1875,1045,274.1875,1033,286.1875,1033,286.1875,1021,274.1875,1033,262.1875" style="stroke: #A80036; stroke-width: 1.5;"/><text fill="#000000" font-family="sans-serif" font-size="11" lengthAdjust="spacingAndGlyphs" textLength="112" x="909" y="271.7705">[flags contains '-o' flag]</text><text fill="#000000" font-family="sans-serif" font-size="11" lengthAdjust="spacingAndGlyphs" textLength="106" x="1045" y="271.7705">[flags contains 'r' flag]</text><rect fill="#FEFECE" filter="url(#f1khfkkquxvk04)" height="50.1875" rx="12.5" ry="12.5" style="stroke: #A80036; stroke-width: 1.5;" width="208" x="815" y="296.1875"/><text fill="#000000" font-family="sans-serif" font-size="12" lengthAdjust="spacingAndGlyphs" textLength="188" x="825" y="318.6445">Display the confirmation message</text><text fill="#000000" font-family="sans-serif" font-size="12" lengthAdjust="spacingAndGlyphs" textLength="143" x="828" y="333.7383">to clear order book to user</text><rect fill="#FEFECE" filter="url(#f1khfkkquxvk04)" height="50.1875" rx="12.5" ry="12.5" style="stroke: #A80036; stroke-width: 1.5;" width="208" x="1043" y="296.1875"/><text fill="#000000" font-family="sans-serif" font-size="12" lengthAdjust="spacingAndGlyphs" textLength="188" x="1053" y="318.6445">Display the confirmation message</text><text fill="#000000" font-family="sans-serif" font-size="12" lengthAdjust="spacingAndGlyphs" textLength="178" x="1056" y="333.7383">to clear return order book to user</text><polygon fill="#FEFECE" filter="url(#f1khfkkquxvk04)" points="1033,352.375,1045,364.375,1033,376.375,1021,364.375,1033,352.375" style="stroke: #A80036; stroke-width: 1.5;"/><rect fill="#FEFECE" filter="url(#f1khfkkquxvk04)" height="65.2813" rx="12.5" ry="12.5" style="stroke: #A80036; stroke-width: 1.5;" width="208" x="1281" y="262.1875"/><text fill="#000000" font-family="sans-serif" font-size="12" lengthAdjust="spacingAndGlyphs" textLength="188" x="1291" y="284.6445">Display the confirmation message</text><text fill="#000000" font-family="sans-serif" font-size="12" lengthAdjust="spacingAndGlyphs" textLength="129" x="1294" y="299.7383">to clear both order book</text><text fill="#000000" font-family="sans-serif" font-size="12" lengthAdjust="spacingAndGlyphs" textLength="159" x="1294" y="314.832">and return order book to user</text><polygon fill="#FEFECE" filter="url(#f1khfkkquxvk04)" points="1209,382.375,1221,394.375,1209,406.375,1197,394.375,1209,382.375" style="stroke: #A80036; stroke-width: 1.5;"/><rect fill="#FEFECE" filter="url(#f1khfkkquxvk04)" height="35.0938" rx="12.5" ry="12.5" style="stroke: #A80036; stroke-width: 1.5;" width="325" x="1046.5" y="475.293"/><text fill="#000000" font-family="sans-serif" font-size="12" lengthAdjust="spacingAndGlyphs" textLength="305" x="1056.5" y="497.75">Clear the respective order book based on the command</text><rect fill="#FEFECE" filter="url(#f1khfkkquxvk04)" height="35.0938" rx="12.5" ry="12.5" style="stroke: #A80036; stroke-width: 1.5;" width="238" x="1090" y="545.3867"/><text fill="#000000" font-family="sans-serif" font-size="12" lengthAdjust="spacingAndGlyphs" textLength="218" x="1100" y="567.8438">Display clear success message to user</text><polygon fill="#FEFECE" filter="url(#f1khfkkquxvk04)" points="1209,426.375,1209,426.375,1221,438.375,1209,450.375,1209,450.375,1197,438.375,1209,426.375" style="stroke: #A80036; stroke-width: 1.5;"/><text fill="#000000" font-family="sans-serif" font-size="11" lengthAdjust="spacingAndGlyphs" textLength="114" x="1213" y="461.7939">[User press yes button]</text><text fill="#000000" font-family="sans-serif" font-size="11" lengthAdjust="spacingAndGlyphs" textLength="108" x="1221" y="435.958">[User press no button]</text><polygon fill="#FEFECE" filter="url(#f1khfkkquxvk04)" points="1209,600.4805,1221,612.4805,1209,624.4805,1197,612.4805,1209,600.4805" style="stroke: #A80036; stroke-width: 1.5;"/><polygon fill="#FEFECE" filter="url(#f1khfkkquxvk04)" points="824.75,630.4805,836.75,642.4805,824.75,654.4805,812.75,642.4805,824.75,630.4805" style="stroke: #A80036; stroke-width: 1.5;"/><polygon fill="#FEFECE" filter="url(#f1khfkkquxvk04)" points="464.125,660.4805,476.125,672.4805,464.125,684.4805,452.125,672.4805,464.125,660.4805" style="stroke: #A80036; stroke-width: 1.5;"/><ellipse cx="464.125" cy="715.4805" fill="#FFFFFF" filter="url(#f1khfkkquxvk04)" rx="11" ry="11" style="stroke: #000000; stroke-width: 1.0;"/><ellipse cx="464.125" cy="715.4805" fill="#000000" rx="6" ry="6" style="stroke: #7F7F7F; stroke-width: 1.0;"/><line style="stroke: #A80036; stroke-width: 1.5;" x1="464.125" x2="464.125" y1="30" y2="50"/><polygon fill="#A80036" points="460.125,40,464.125,50,468.125,40,464.125,44" style="stroke: #A80036; stroke-width: 1.0;"/><line style="stroke: #A80036; stroke-width: 1.5;" x1="566" x2="484" y1="274.1875" y2="274.1875"/><line style="stroke: #A80036; stroke-width: 1.5;" x1="484" x2="484" y1="274.1875" y2="296.1875"/><polygon fill="#A80036" points="480,286.1875,484,296.1875,488,286.1875,484,290.1875" style="stroke: #A80036; stroke-width: 1.0;"/><line style="stroke: #A80036; stroke-width: 1.5;" x1="590" x2="672" y1="274.1875" y2="274.1875"/><line style="stroke: #A80036; stroke-width: 1.5;" x1="672" x2="672" y1="274.1875" y2="296.1875"/><polygon fill="#A80036" points="668,286.1875,672,296.1875,676,286.1875,672,290.1875" style="stroke: #A80036; stroke-width: 1.0;"/><line style="stroke: #A80036; stroke-width: 1.5;" x1="484" x2="484" y1="331.2813" y2="364.375"/><line style="stroke: #A80036; stroke-width: 1.5;" x1="484" x2="566" y1="364.375" y2="364.375"/><polygon fill="#A80036" points="556,360.375,566,364.375,556,368.375,560,364.375" style="stroke: #A80036; stroke-width: 1.0;"/><line style="stroke: #A80036; stroke-width: 1.5;" x1="672" x2="672" y1="346.375" y2="364.375"/><line style="stroke: #A80036; stroke-width: 1.5;" x1="672" x2="590" y1="364.375" y2="364.375"/><polygon fill="#A80036" points="600,360.375,590,364.375,600,368.375,596,364.375" style="stroke: #A80036; stroke-width: 1.0;"/><line style="stroke: #A80036; stroke-width: 1.5;" x1="428.5" x2="303" y1="240.1875" y2="240.1875"/><line style="stroke: #A80036; stroke-width: 1.5;" x1="303" x2="303" y1="240.1875" y2="262.1875"/><polygon fill="#A80036" points="299,252.1875,303,262.1875,307,252.1875,303,256.1875" style="stroke: #A80036; stroke-width: 1.0;"/><line style="stroke: #A80036; stroke-width: 1.5;" x1="452.5" x2="578" y1="240.1875" y2="240.1875"/><line style="stroke: #A80036; stroke-width: 1.5;" x1="578" x2="578" y1="240.1875" y2="262.1875"/><polygon fill="#A80036" points="574,252.1875,578,262.1875,582,252.1875,578,256.1875" style="stroke: #A80036; stroke-width: 1.0;"/><line style="stroke: #A80036; stroke-width: 1.5;" x1="303" x2="303" y1="297.2813" y2="394.375"/><line style="stroke: #A80036; stroke-width: 1.5;" x1="303" x2="428.5" y1="394.375" y2="394.375"/><polygon fill="#A80036" points="418.5,390.375,428.5,394.375,418.5,398.375,422.5,394.375" style="stroke: #A80036; stroke-width: 1.0;"/><line style="stroke: #A80036; stroke-width: 1.5;" x1="578" x2="578" y1="376.375" y2="394.375"/><line style="stroke: #A80036; stroke-width: 1.5;" x1="578" x2="452.5" y1="394.375" y2="394.375"/><polygon fill="#A80036" points="462.5,390.375,452.5,394.375,462.5,398.375,458.5,394.375" style="stroke: #A80036; stroke-width: 1.0;"/><line style="stroke: #A80036; stroke-width: 1.5;" x1="440.5" x2="440.5" y1="406.375" y2="426.375"/><polygon fill="#A80036" points="436.5,416.375,440.5,426.375,444.5,416.375,440.5,420.375" style="stroke: #A80036; stroke-width: 1.0;"/><line style="stroke: #A80036; stroke-width: 1.5;" x1="1021" x2="919" y1="274.1875" y2="274.1875"/><line style="stroke: #A80036; stroke-width: 1.5;" x1="919" x2="919" y1="274.1875" y2="296.1875"/><polygon fill="#A80036" points="915,286.1875,919,296.1875,923,286.1875,919,290.1875" style="stroke: #A80036; stroke-width: 1.0;"/><line style="stroke: #A80036; stroke-width: 1.5;" x1="1045" x2="1147" y1="274.1875" y2="274.1875"/><line style="stroke: #A80036; stroke-width: 1.5;" x1="1147" x2="1147" y1="274.1875" y2="296.1875"/><polygon fill="#A80036" points="1143,286.1875,1147,296.1875,1151,286.1875,1147,290.1875" style="stroke: #A80036; stroke-width: 1.0;"/><line style="stroke: #A80036; stroke-width: 1.5;" x1="919" x2="919" y1="346.375" y2="364.375"/><line style="stroke: #A80036; stroke-width: 1.5;" x1="919" x2="1021" y1="364.375" y2="364.375"/><polygon fill="#A80036" points="1011,360.375,1021,364.375,1011,368.375,1015,364.375" style="stroke: #A80036; stroke-width: 1.0;"/><line style="stroke: #A80036; stroke-width: 1.5;" x1="1147" x2="1147" y1="346.375" y2="364.375"/><line style="stroke: #A80036; stroke-width: 1.5;" x1="1147" x2="1045" y1="364.375" y2="364.375"/><polygon fill="#A80036" points="1055,360.375,1045,364.375,1055,368.375,1051,364.375" style="stroke: #A80036; stroke-width: 1.0;"/><line style="stroke: #A80036; stroke-width: 1.5;" x1="1197" x2="1033" y1="240.1875" y2="240.1875"/><line style="stroke: #A80036; stroke-width: 1.5;" x1="1033" x2="1033" y1="240.1875" y2="262.1875"/><polygon fill="#A80036" points="1029,252.1875,1033,262.1875,1037,252.1875,1033,256.1875" style="stroke: #A80036; stroke-width: 1.0;"/><line style="stroke: #A80036; stroke-width: 1.5;" x1="1221" x2="1385" y1="240.1875" y2="240.1875"/><line style="stroke: #A80036; stroke-width: 1.5;" x1="1385" x2="1385" y1="240.1875" y2="262.1875"/><polygon fill="#A80036" points="1381,252.1875,1385,262.1875,1389,252.1875,1385,256.1875" style="stroke: #A80036; stroke-width: 1.0;"/><line style="stroke: #A80036; stroke-width: 1.5;" x1="1033" x2="1033" y1="376.375" y2="394.375"/><line style="stroke: #A80036; stroke-width: 1.5;" x1="1033" x2="1197" y1="394.375" y2="394.375"/><polygon fill="#A80036" points="1187,390.375,1197,394.375,1187,398.375,1191,394.375" style="stroke: #A80036; stroke-width: 1.0;"/><line style="stroke: #A80036; stroke-width: 1.5;" x1="1385" x2="1385" y1="327.4688" y2="394.375"/><line style="stroke: #A80036; stroke-width: 1.5;" x1="1385" x2="1221" y1="394.375" y2="394.375"/><polygon fill="#A80036" points="1231,390.375,1221,394.375,1231,398.375,1227,394.375" style="stroke: #A80036; stroke-width: 1.0;"/><line style="stroke: #A80036; stroke-width: 1.5;" x1="1209" x2="1209" y1="510.3867" y2="545.3867"/><polygon fill="#A80036" points="1205,535.3867,1209,545.3867,1213,535.3867,1209,539.3867" style="stroke: #A80036; stroke-width: 1.0;"/><line style="stroke: #A80036; stroke-width: 1.5;" x1="1209" x2="1209" y1="450.375" y2="475.293"/><polygon fill="#A80036" points="1205,465.293,1209,475.293,1213,465.293,1209,469.293" style="stroke: #A80036; stroke-width: 1.0;"/><line style="stroke: #A80036; stroke-width: 1.5;" x1="1221" x2="1381.5" y1="438.375" y2="438.375"/><polygon fill="#A80036" points="1377.5,517.8867,1381.5,527.8867,1385.5,517.8867,1381.5,521.8867" style="stroke: #A80036; stroke-width: 1.5;"/><line style="stroke: #A80036; stroke-width: 1.5;" x1="1381.5" x2="1381.5" y1="438.375" y2="612.4805"/><line style="stroke: #A80036; stroke-width: 1.5;" x1="1381.5" x2="1221" y1="612.4805" y2="612.4805"/><polygon fill="#A80036" points="1231,608.4805,1221,612.4805,1231,616.4805,1227,612.4805" style="stroke: #A80036; stroke-width: 1.0;"/><line style="stroke: #A80036; stroke-width: 1.5;" x1="1209" x2="1209" y1="580.4805" y2="600.4805"/><polygon fill="#A80036" points="1205,590.4805,1209,600.4805,1213,590.4805,1209,594.4805" style="stroke: #A80036; stroke-width: 1.0;"/><line style="stroke: #A80036; stroke-width: 1.5;" x1="1209" x2="1209" y1="406.375" y2="426.375"/><polygon fill="#A80036" points="1205,416.375,1209,426.375,1213,416.375,1209,420.375" style="stroke: #A80036; stroke-width: 1.0;"/><line style="stroke: #A80036; stroke-width: 1.5;" x1="812.75" x2="440.5" y1="206.1875" y2="206.1875"/><line style="stroke: #A80036; stroke-width: 1.5;" x1="440.5" x2="440.5" y1="206.1875" y2="228.1875"/><polygon fill="#A80036" points="436.5,218.1875,440.5,228.1875,444.5,218.1875,440.5,222.1875" style="stroke: #A80036; stroke-width: 1.0;"/><line style="stroke: #A80036; stroke-width: 1.5;" x1="836.75" x2="1209" y1="206.1875" y2="206.1875"/><line style="stroke: #A80036; stroke-width: 1.5;" x1="1209" x2="1209" y1="206.1875" y2="228.1875"/><polygon fill="#A80036" points="1205,218.1875,1209,228.1875,1213,218.1875,1209,222.1875" style="stroke: #A80036; stroke-width: 1.0;"/><line style="stroke: #A80036; stroke-width: 1.5;" x1="440.5" x2="440.5" y1="461.4688" y2="642.4805"/><line style="stroke: #A80036; stroke-width: 1.5;" x1="440.5" x2="812.75" y1="642.4805" y2="642.4805"/><polygon fill="#A80036" points="802.75,638.4805,812.75,642.4805,802.75,646.4805,806.75,642.4805" style="stroke: #A80036; stroke-width: 1.0;"/><line style="stroke: #A80036; stroke-width: 1.5;" x1="1209" x2="1209" y1="624.4805" y2="642.4805"/><line style="stroke: #A80036; stroke-width: 1.5;" x1="1209" x2="836.75" y1="642.4805" y2="642.4805"/><polygon fill="#A80036" points="846.75,638.4805,836.75,642.4805,846.75,646.4805,842.75,642.4805" style="stroke: #A80036; stroke-width: 1.0;"/><line style="stroke: #A80036; stroke-width: 1.5;" x1="824.75" x2="824.75" y1="174.1875" y2="194.1875"/><polygon fill="#A80036" points="820.75,184.1875,824.75,194.1875,828.75,184.1875,824.75,188.1875" style="stroke: #A80036; stroke-width: 1.0;"/><line style="stroke: #A80036; stroke-width: 1.5;" x1="452.125" x2="103.5" y1="117.0938" y2="117.0938"/><line style="stroke: #A80036; stroke-width: 1.5;" x1="103.5" x2="103.5" y1="117.0938" y2="139.0938"/><polygon fill="#A80036" points="99.5,129.0938,103.5,139.0938,107.5,129.0938,103.5,133.0938" style="stroke: #A80036; stroke-width: 1.0;"/><line style="stroke: #A80036; stroke-width: 1.5;" x1="476.125" x2="824.75" y1="117.0938" y2="117.0938"/><line style="stroke: #A80036; stroke-width: 1.5;" x1="824.75" x2="824.75" y1="117.0938" y2="139.0938"/><polygon fill="#A80036" points="820.75,129.0938,824.75,139.0938,828.75,129.0938,824.75,133.0938" style="stroke: #A80036; stroke-width: 1.0;"/><line style="stroke: #A80036; stroke-width: 1.5;" x1="103.5" x2="103.5" y1="174.1875" y2="672.4805"/><line style="stroke: #A80036; stroke-width: 1.5;" x1="103.5" x2="452.125" y1="672.4805" y2="672.4805"/><polygon fill="#A80036" points="442.125,668.4805,452.125,672.4805,442.125,676.4805,446.125,672.4805" style="stroke: #A80036; stroke-width: 1.0;"/><line style="stroke: #A80036; stroke-width: 1.5;" x1="824.75" x2="824.75" y1="654.4805" y2="672.4805"/><line style="stroke: #A80036; stroke-width: 1.5;" x1="824.75" x2="476.125" y1="672.4805" y2="672.4805"/><polygon fill="#A80036" points="486.125,668.4805,476.125,672.4805,486.125,676.4805,482.125,672.4805" style="stroke: #A80036; stroke-width: 1.0;"/><line style="stroke: #A80036; stroke-width: 1.5;" x1="464.125" x2="464.125" y1="85.0938" y2="105.0938"/><polygon fill="#A80036" points="460.125,95.0938,464.125,105.0938,468.125,95.0938,464.125,99.0938" style="stroke: #A80036; stroke-width: 1.0;"/><line style="stroke: #A80036; stroke-width: 1.5;" x1="464.125" x2="464.125" y1="684.4805" y2="704.4805"/><polygon fill="#A80036" points="460.125,694.4805,464.125,704.4805,468.125,694.4805,464.125,698.4805" style="stroke: #A80036; stroke-width: 1.0;"/><!--MD5=[e7ada6eee947c38e8d5bf7fb3313af35]
@startuml

start
:User enter clear command;
if () then ([invalid flag or both `-r` and `-o` flags found in arguments])
:Display error message to user;
else ([else])
:Executes the command;

if () then (([flags contains '-f' flag])
    if () then ([flags also contains '-o' flag])
    :Clear the order book;
    else ([else])
        if() then ([flags also contain '-r' flag])
        :Clear the return order book ;
        else ([flags only contains 'f' flag])
        :Clear both order book  and
         return order book;
        endif
    endif
    :Display success message to the User;

else ([else])
    if() then([flags do not contains 'f' flag])
        if () then ([flags contains '-o' flag])
            :Display the confirmation message
             to clear order book to user;
        else ([flags contains 'r' flag])
            :Display the confirmation message
             to clear return order book to user;
        endif
    else ([flags equal to null])
    :Display the confirmation message
     to clear both order book
     and return order book to user;
    endif
    if () then ([User press yes button])
        :Clear the respective order book based on the command;
        :Display clear success message to user;
    else ([User press no button])
    endif
endif
endif
stop
@enduml

PlantUML version 1.2019.11(Sun Sep 22 18:02:15 SGT 2019)
(GPL source distribution)
Java Runtime: OpenJDK Runtime Environment
JVM: OpenJDK 64-Bit Server VM
Java Version: 11.0.5+10-b520.30
Operating System: Windows 10
Default Encoding: UTF-8
Language: en
Country: US
--></g></svg>
