<?xml version="1.0" encoding="UTF-8" standalone="no"?><svg xmlns="http://www.w3.org/2000/svg" xmlns:xlink="http://www.w3.org/1999/xlink" contentScriptType="application/ecmascript" contentStyleType="text/css" height="1368px" preserveAspectRatio="none" style="width:1164px;height:1368px;" version="1.1" viewBox="0 0 1164 1368" width="1164px" zoomAndPan="magnify"><defs/><g><rect fill="#C8C8FA" height="1346.4844" style="stroke: #A80036; stroke-width: 1.0;" width="1014" x="19" y="4"/><text fill="#FFFFFF" font-family="sans-serif" font-size="15" font-weight="bold" lengthAdjust="spacingAndGlyphs" textLength="39" x="504.5" y="19.5713">Logic</text><rect fill="#F97181" height="1346.4844" style="stroke: #A80036; stroke-width: 1.0;" width="92" x="1035" y="4"/><text fill="#FFFFFF" font-family="sans-serif" font-size="15" font-weight="bold" lengthAdjust="spacingAndGlyphs" textLength="44" x="1057" y="19.5713">Model</text><rect fill="#FFFFFF" height="1262.0078" style="stroke: #A80036; stroke-width: 1.0;" width="10" x="82" y="69.4766"/><rect fill="#FFFFFF" height="1200.3047" style="stroke: #A80036; stroke-width: 1.0;" width="10" x="271.5" y="117.1797"/><rect fill="#FFFFFF" height="793.5078" style="stroke: #A80036; stroke-width: 1.0;" width="10" x="276.5" y="180.8828"/><rect fill="#FFFFFF" height="48.9609" style="stroke: #A80036; stroke-width: 1.0;" width="10" x="483.5" y="235.2344"/><rect fill="#FFFFFF" height="48.9609" style="stroke: #A80036; stroke-width: 1.0;" width="10" x="483.5" y="647.4531"/><rect fill="#FFFFFF" height="48.9609" style="stroke: #A80036; stroke-width: 1.0;" width="10" x="708.5" y="441.3438"/><rect fill="#FFFFFF" height="48.9609" style="stroke: #A80036; stroke-width: 1.0;" width="10" x="708.5" y="720.4141"/><rect fill="#FFFFFF" height="32.6094" style="stroke: #A80036; stroke-width: 1.0;" width="10" x="935.5" y="368.8984"/><rect fill="#FFFFFF" height="32.6094" style="stroke: #A80036; stroke-width: 1.0;" width="10" x="935.5" y="575.0078"/><rect fill="#FFFFFF" height="32.6094" style="stroke: #A80036; stroke-width: 1.0;" width="10" x="935.5" y="898.4297"/><rect fill="#FFFFFF" height="32.6094" style="stroke: #A80036; stroke-width: 1.0;" width="10" x="935.5" y="1062.9297"/><rect fill="#FFFFFF" height="32.6094" style="stroke: #A80036; stroke-width: 1.0;" width="10" x="935.5" y="1151.7266"/><rect fill="#FFFFFF" height="32.6094" style="stroke: #A80036; stroke-width: 1.0;" width="10" x="935.5" y="1240.5234"/><rect fill="#FFFFFF" height="14" style="stroke: #A80036; stroke-width: 1.0;" width="10" x="1076" y="314.5469"/><rect fill="#FFFFFF" height="14" style="stroke: #A80036; stroke-width: 1.0;" width="10" x="1076" y="520.6563"/><rect fill="#FFFFFF" height="14" style="stroke: #A80036; stroke-width: 1.0;" width="10" x="1076" y="799.7266"/><rect fill="#FFFFFF" height="14" style="stroke: #A80036; stroke-width: 1.0;" width="10" x="1076" y="844.0781"/><rect fill="#FFFFFF" height="1263.0078" style="stroke: #000000; stroke-width: 2.0;" width="1140" x="13" y="76.4766"/><rect fill="#FFFFFF" height="1155.9531" style="stroke: #000000; stroke-width: 2.0;" width="1002" x="141" y="132.1797"/><rect fill="#FFFFFF" height="738.1563" style="stroke: #000000; stroke-width: 2.0;" width="982" x="151" y="200.8828"/><rect fill="#3333C4" height="31.6094" style="stroke: #A80036; stroke-width: 1.5;" width="153" x="412" y="219.2344"/><text fill="#FFFFFF" font-family="sans-serif" font-size="14" lengthAdjust="spacingAndGlyphs" textLength="139" x="419" y="240.7676">orderBook:OrderBook</text><rect fill="#3333C4" height="31.6094" style="stroke: #A80036; stroke-width: 1.5;" width="157" x="862" y="336.5469"/><text fill="#FFFFFF" font-family="sans-serif" font-size="14" lengthAdjust="spacingAndGlyphs" textLength="143" x="869" y="358.0801">result:CommandResult</text><rect fill="#FFFFFF" height="206.1094" style="stroke: none; stroke-width: 1.0;" width="982" x="151" y="409.5078"/><rect fill="#3333C4" height="31.6094" style="stroke: #A80036; stroke-width: 1.5;" width="237" x="595" y="425.3438"/><text fill="#FFFFFF" font-family="sans-serif" font-size="14" lengthAdjust="spacingAndGlyphs" textLength="223" x="602" y="446.877">returnOrderBook:ReturnOrderBook</text><rect fill="#3333C4" height="31.6094" style="stroke: #A80036; stroke-width: 1.5;" width="157" x="862" y="542.6563"/><text fill="#FFFFFF" font-family="sans-serif" font-size="14" lengthAdjust="spacingAndGlyphs" textLength="143" x="869" y="564.1895">result:CommandResult</text><rect fill="#FFFFFF" height="323.4219" style="stroke: none; stroke-width: 1.0;" width="982" x="151" y="615.6172"/><rect fill="#3333C4" height="31.6094" style="stroke: #A80036; stroke-width: 1.5;" width="153" x="412" y="631.4531"/><text fill="#FFFFFF" font-family="sans-serif" font-size="14" lengthAdjust="spacingAndGlyphs" textLength="139" x="419" y="652.9863">orderBook:OrderBook</text><rect fill="#3333C4" height="31.6094" style="stroke: #A80036; stroke-width: 1.5;" width="237" x="595" y="704.4141"/><text fill="#FFFFFF" font-family="sans-serif" font-size="14" lengthAdjust="spacingAndGlyphs" textLength="223" x="602" y="725.9473">returnOrderBook:ReturnOrderBook</text><rect fill="#3333C4" height="31.6094" style="stroke: #A80036; stroke-width: 1.5;" width="157" x="862" y="866.0781"/><text fill="#FFFFFF" font-family="sans-serif" font-size="14" lengthAdjust="spacingAndGlyphs" textLength="143" x="869" y="887.6113">result:CommandResult</text><rect fill="#FFFFFF" height="298.7422" style="stroke: none; stroke-width: 1.0;" width="1002" x="141" y="989.3906"/><rect fill="#FFFFFF" height="268.9063" style="stroke: #000000; stroke-width: 2.0;" width="888" x="151" y="1012.2266"/><rect fill="#3333C4" height="31.6094" style="stroke: #A80036; stroke-width: 1.5;" width="157" x="862" y="1030.5781"/><text fill="#FFFFFF" font-family="sans-serif" font-size="14" lengthAdjust="spacingAndGlyphs" textLength="143" x="869" y="1052.1113">result:CommandResult</text><rect fill="#FFFFFF" height="88.7969" style="stroke: none; stroke-width: 1.0;" width="888" x="151" y="1103.5391"/><rect fill="#3333C4" height="31.6094" style="stroke: #A80036; stroke-width: 1.5;" width="157" x="862" y="1119.375"/><text fill="#FFFFFF" font-family="sans-serif" font-size="14" lengthAdjust="spacingAndGlyphs" textLength="143" x="869" y="1140.9082">result:CommandResult</text><rect fill="#FFFFFF" height="88.7969" style="stroke: none; stroke-width: 1.0;" width="888" x="151" y="1192.3359"/><rect fill="#3333C4" height="31.6094" style="stroke: #A80036; stroke-width: 1.5;" width="157" x="862" y="1208.1719"/><text fill="#FFFFFF" font-family="sans-serif" font-size="14" lengthAdjust="spacingAndGlyphs" textLength="143" x="869" y="1229.7051">result:CommandResult</text><line style="stroke: #A80036; stroke-width: 1.0; stroke-dasharray: 5.0,5.0;" x1="87" x2="87" y1="59.4766" y2="1356.4844"/><line style="stroke: #A80036; stroke-width: 1.0; stroke-dasharray: 5.0,5.0;" x1="276" x2="276" y1="59.4766" y2="1356.4844"/><line style="stroke: #A80036; stroke-width: 1.0; stroke-dasharray: 5.0,5.0;" x1="488" x2="488" y1="662.7578" y2="1356.4844"/><line style="stroke: #A80036; stroke-width: 1.0; stroke-dasharray: 5.0,5.0;" x1="713" x2="713" y1="735.7188" y2="1356.4844"/><line style="stroke: #A80036; stroke-width: 1.0; stroke-dasharray: 5.0,5.0;" x1="940" x2="940" y1="1239.4766" y2="1356.4844"/><line style="stroke: #A80036; stroke-width: 1.0; stroke-dasharray: 5.0,5.0;" x1="1081" x2="1081" y1="59.4766" y2="1356.4844"/><rect fill="#3333C4" height="31.6094" style="stroke: #A80036; stroke-width: 1.5;" width="108" x="33" y="26.8672"/><text fill="#FFFFFF" font-family="sans-serif" font-size="14" lengthAdjust="spacingAndGlyphs" textLength="94" x="40" y="48.4004">:LogicManager</text><rect fill="#3333C4" height="31.6094" style="stroke: #A80036; stroke-width: 1.5;" width="211" x="171" y="26.8672"/><text fill="#FFFFFF" font-family="sans-serif" font-size="14" lengthAdjust="spacingAndGlyphs" textLength="197" x="178" y="48.4004">clearCommand:ClearCommand</text><rect fill="#9D0012" height="31.6094" style="stroke: #A80036; stroke-width: 1.5;" width="64" x="1049" y="26.8672"/><text fill="#FFFFFF" font-family="sans-serif" font-size="14" lengthAdjust="spacingAndGlyphs" textLength="42" x="1060" y="48.4004">:Model</text><rect fill="#FFFFFF" height="1262.0078" style="stroke: #A80036; stroke-width: 1.0;" width="10" x="82" y="69.4766"/><rect fill="#FFFFFF" height="1200.3047" style="stroke: #A80036; stroke-width: 1.0;" width="10" x="271.5" y="117.1797"/><rect fill="#FFFFFF" height="793.5078" style="stroke: #A80036; stroke-width: 1.0;" width="10" x="276.5" y="180.8828"/><rect fill="#FFFFFF" height="48.9609" style="stroke: #A80036; stroke-width: 1.0;" width="10" x="483.5" y="235.2344"/><rect fill="#FFFFFF" height="48.9609" style="stroke: #A80036; stroke-width: 1.0;" width="10" x="483.5" y="647.4531"/><rect fill="#FFFFFF" height="48.9609" style="stroke: #A80036; stroke-width: 1.0;" width="10" x="708.5" y="441.3438"/><rect fill="#FFFFFF" height="48.9609" style="stroke: #A80036; stroke-width: 1.0;" width="10" x="708.5" y="720.4141"/><rect fill="#FFFFFF" height="32.6094" style="stroke: #A80036; stroke-width: 1.0;" width="10" x="935.5" y="368.8984"/><rect fill="#FFFFFF" height="32.6094" style="stroke: #A80036; stroke-width: 1.0;" width="10" x="935.5" y="575.0078"/><rect fill="#FFFFFF" height="32.6094" style="stroke: #A80036; stroke-width: 1.0;" width="10" x="935.5" y="898.4297"/><rect fill="#FFFFFF" height="32.6094" style="stroke: #A80036; stroke-width: 1.0;" width="10" x="935.5" y="1062.9297"/><rect fill="#FFFFFF" height="32.6094" style="stroke: #A80036; stroke-width: 1.0;" width="10" x="935.5" y="1151.7266"/><rect fill="#FFFFFF" height="32.6094" style="stroke: #A80036; stroke-width: 1.0;" width="10" x="935.5" y="1240.5234"/><rect fill="#FFFFFF" height="14" style="stroke: #A80036; stroke-width: 1.0;" width="10" x="1076" y="314.5469"/><rect fill="#FFFFFF" height="14" style="stroke: #A80036; stroke-width: 1.0;" width="10" x="1076" y="520.6563"/><rect fill="#FFFFFF" height="14" style="stroke: #A80036; stroke-width: 1.0;" width="10" x="1076" y="799.7266"/><rect fill="#FFFFFF" height="14" style="stroke: #A80036; stroke-width: 1.0;" width="10" x="1076" y="844.0781"/><path d="M13,76.4766 L412,76.4766 L412,84.4766 L402,94.4766 L13,94.4766 L13,76.4766 " fill="#EEEEEE" style="stroke: #000000; stroke-width: 1.0;"/><rect fill="none" height="1263.0078" style="stroke: #000000; stroke-width: 2.0;" width="1140" x="13" y="76.4766"/><text fill="#000000" font-family="sans-serif" font-size="13" font-weight="bold" lengthAdjust="spacingAndGlyphs" textLength="354" x="28" y="90.9717">sd Execution of the Clear Command Sequence Diagram</text><polygon fill="#A80036" points="259.5,113.1797,269.5,117.1797,259.5,121.1797,263.5,117.1797" style="stroke: #A80036; stroke-width: 1.0;"/><line style="stroke: #A80036; stroke-width: 1.0;" x1="92" x2="265.5" y1="117.1797" y2="117.1797"/><text fill="#000000" font-family="sans-serif" font-size="13" lengthAdjust="spacingAndGlyphs" textLength="89" x="137.25" y="112.3232">execute(model)</text><path d="M141,132.1797 L202,132.1797 L202,140.1797 L192,150.1797 L141,150.1797 L141,132.1797 " fill="#EEEEEE" style="stroke: #000000; stroke-width: 1.0;"/><rect fill="none" height="1155.9531" style="stroke: #000000; stroke-width: 2.0;" width="1002" x="141" y="132.1797"/><text fill="#000000" font-family="sans-serif" font-size="13" font-weight="bold" lengthAdjust="spacingAndGlyphs" textLength="16" x="156" y="146.6748">alt</text><text fill="#000000" font-family="sans-serif" font-size="11" font-weight="bold" lengthAdjust="spacingAndGlyphs" textLength="123" x="217" y="145.5986">['-f' flag found in flags]</text><line style="stroke: #A80036; stroke-width: 1.0;" x1="281.5" x2="328.5" y1="167.8828" y2="167.8828"/><line style="stroke: #A80036; stroke-width: 1.0;" x1="328.5" x2="328.5" y1="167.8828" y2="180.8828"/><line style="stroke: #A80036; stroke-width: 1.0;" x1="287.5" x2="328.5" y1="180.8828" y2="180.8828"/><polygon fill="#A80036" points="297.5,176.8828,287.5,180.8828,297.5,184.8828,293.5,180.8828" style="stroke: #A80036; stroke-width: 1.0;"/><text fill="#000000" font-family="sans-serif" font-size="13" lengthAdjust="spacingAndGlyphs" textLength="117" x="293.5" y="163.0264">updateModel(model)</text><path d="M151,200.8828 L212,200.8828 L212,208.8828 L202,218.8828 L151,218.8828 L151,200.8828 " fill="#EEEEEE" style="stroke: #000000; stroke-width: 1.0;"/><rect fill="none" height="738.1563" style="stroke: #000000; stroke-width: 2.0;" width="982" x="151" y="200.8828"/><text fill="#000000" font-family="sans-serif" font-size="13" font-weight="bold" lengthAdjust="spacingAndGlyphs" textLength="16" x="166" y="215.3779">alt</text><text fill="#000000" font-family="sans-serif" font-size="11" font-weight="bold" lengthAdjust="spacingAndGlyphs" textLength="152" x="227" y="214.3018">['-o' flag also found in flags]</text><polygon fill="#A80036" points="400,221.2344,410,225.2344,400,229.2344,404,225.2344" style="stroke: #A80036; stroke-width: 1.0;"/><line style="stroke: #A80036; stroke-width: 1.0;" x1="286.5" x2="406" y1="225.2344" y2="225.2344"/><rect fill="#3333C4" height="31.6094" style="stroke: #A80036; stroke-width: 1.5;" width="153" x="412" y="219.2344"/><text fill="#FFFFFF" font-family="sans-serif" font-size="14" lengthAdjust="spacingAndGlyphs" textLength="139" x="419" y="240.7676">orderBook:OrderBook</text><polygon fill="#A80036" points="297.5,280.1953,287.5,284.1953,297.5,288.1953,293.5,284.1953" style="stroke: #A80036; stroke-width: 1.0;"/><line style="stroke: #A80036; stroke-width: 1.0; stroke-dasharray: 2.0,2.0;" x1="291.5" x2="487.5" y1="284.1953" y2="284.1953"/><text fill="#000000" font-family="sans-serif" font-size="13" lengthAdjust="spacingAndGlyphs" textLength="59" x="358" y="279.3389">orderBook</text><polygon fill="#A80036" points="1064,310.5469,1074,314.5469,1064,318.5469,1068,314.5469" style="stroke: #A80036; stroke-width: 1.0;"/><line style="stroke: #A80036; stroke-width: 1.0;" x1="286.5" x2="1070" y1="314.5469" y2="314.5469"/><text fill="#000000" font-family="sans-serif" font-size="13" lengthAdjust="spacingAndGlyphs" textLength="147" x="607.75" y="309.6904">setOrderBook(orderBook)</text><polygon fill="#A80036" points="297.5,324.5469,287.5,328.5469,297.5,332.5469,293.5,328.5469" style="stroke: #A80036; stroke-width: 1.0;"/><line style="stroke: #A80036; stroke-width: 1.0; stroke-dasharray: 2.0,2.0;" x1="291.5" x2="1080" y1="328.5469" y2="328.5469"/><polygon fill="#A80036" points="850,354.8984,860,358.8984,850,362.8984,854,358.8984" style="stroke: #A80036; stroke-width: 1.0;"/><line style="stroke: #A80036; stroke-width: 1.0;" x1="286.5" x2="856" y1="358.8984" y2="358.8984"/><text fill="#000000" font-family="sans-serif" font-size="13" lengthAdjust="spacingAndGlyphs" textLength="234" x="457.25" y="354.042">MESSAGE_SUCCESS_ORDER_BOOK</text><rect fill="#3333C4" height="31.6094" style="stroke: #A80036; stroke-width: 1.5;" width="157" x="862" y="336.5469"/><text fill="#FFFFFF" font-family="sans-serif" font-size="14" lengthAdjust="spacingAndGlyphs" textLength="143" x="869" y="358.0801">result:CommandResult</text><polygon fill="#A80036" points="297.5,397.5078,287.5,401.5078,297.5,405.5078,293.5,401.5078" style="stroke: #A80036; stroke-width: 1.0;"/><line style="stroke: #A80036; stroke-width: 1.0; stroke-dasharray: 2.0,2.0;" x1="291.5" x2="939.5" y1="401.5078" y2="401.5078"/><text fill="#000000" font-family="sans-serif" font-size="13" lengthAdjust="spacingAndGlyphs" textLength="32" x="597.5" y="396.6514">result</text><line style="stroke: #000000; stroke-width: 1.0; stroke-dasharray: 2.0,2.0;" x1="151" x2="1133" y1="410.5078" y2="410.5078"/><text fill="#000000" font-family="sans-serif" font-size="11" font-weight="bold" lengthAdjust="spacingAndGlyphs" textLength="150" x="156" y="421.9268">['-r' flag also found in flags]</text><polygon fill="#A80036" points="583,427.3438,593,431.3438,583,435.3438,587,431.3438" style="stroke: #A80036; stroke-width: 1.0;"/><line style="stroke: #A80036; stroke-width: 1.0;" x1="286.5" x2="589" y1="431.3438" y2="431.3438"/><rect fill="#3333C4" height="31.6094" style="stroke: #A80036; stroke-width: 1.5;" width="237" x="595" y="425.3438"/><text fill="#FFFFFF" font-family="sans-serif" font-size="14" lengthAdjust="spacingAndGlyphs" textLength="223" x="602" y="446.877">returnOrderBook:ReturnOrderBook</text><polygon fill="#A80036" points="297.5,486.3047,287.5,490.3047,297.5,494.3047,293.5,490.3047" style="stroke: #A80036; stroke-width: 1.0;"/><line style="stroke: #A80036; stroke-width: 1.0; stroke-dasharray: 2.0,2.0;" x1="291.5" x2="712.5" y1="490.3047" y2="490.3047"/><text fill="#000000" font-family="sans-serif" font-size="13" lengthAdjust="spacingAndGlyphs" textLength="95" x="452.5" y="485.4482">returnOrderBook</text><polygon fill="#A80036" points="1064,516.6563,1074,520.6563,1064,524.6563,1068,520.6563" style="stroke: #A80036; stroke-width: 1.0;"/><line style="stroke: #A80036; stroke-width: 1.0;" x1="286.5" x2="1070" y1="520.6563" y2="520.6563"/><text fill="#000000" font-family="sans-serif" font-size="13" lengthAdjust="spacingAndGlyphs" textLength="221" x="570.75" y="515.7998">setReturnOrderBook(returnOrderBook)</text><polygon fill="#A80036" points="297.5,530.6563,287.5,534.6563,297.5,538.6563,293.5,534.6563" style="stroke: #A80036; stroke-width: 1.0;"/><line style="stroke: #A80036; stroke-width: 1.0; stroke-dasharray: 2.0,2.0;" x1="291.5" x2="1080" y1="534.6563" y2="534.6563"/><polygon fill="#A80036" points="850,561.0078,860,565.0078,850,569.0078,854,565.0078" style="stroke: #A80036; stroke-width: 1.0;"/><line style="stroke: #A80036; stroke-width: 1.0;" x1="286.5" x2="856" y1="565.0078" y2="565.0078"/><text fill="#000000" font-family="sans-serif" font-size="13" lengthAdjust="spacingAndGlyphs" textLength="240" x="454.25" y="560.1514">MESSAGE_SUCCESS_RETURN_BOOK</text><rect fill="#3333C4" height="31.6094" style="stroke: #A80036; stroke-width: 1.5;" width="157" x="862" y="542.6563"/><text fill="#FFFFFF" font-family="sans-serif" font-size="14" lengthAdjust="spacingAndGlyphs" textLength="143" x="869" y="564.1895">result:CommandResult</text><polygon fill="#A80036" points="297.5,603.6172,287.5,607.6172,297.5,611.6172,293.5,607.6172" style="stroke: #A80036; stroke-width: 1.0;"/><line style="stroke: #A80036; stroke-width: 1.0; stroke-dasharray: 2.0,2.0;" x1="291.5" x2="939.5" y1="607.6172" y2="607.6172"/><text fill="#000000" font-family="sans-serif" font-size="13" lengthAdjust="spacingAndGlyphs" textLength="32" x="597.5" y="602.7607">result</text><line style="stroke: #000000; stroke-width: 1.0; stroke-dasharray: 2.0,2.0;" x1="151" x2="1133" y1="616.6172" y2="616.6172"/><text fill="#000000" font-family="sans-serif" font-size="11" font-weight="bold" lengthAdjust="spacingAndGlyphs" textLength="150" x="156" y="628.0361">[Only '-f' flag found in flags]</text><polygon fill="#A80036" points="400,633.4531,410,637.4531,400,641.4531,404,637.4531" style="stroke: #A80036; stroke-width: 1.0;"/><line style="stroke: #A80036; stroke-width: 1.0;" x1="286.5" x2="406" y1="637.4531" y2="637.4531"/><rect fill="#3333C4" height="31.6094" style="stroke: #A80036; stroke-width: 1.5;" width="153" x="412" y="631.4531"/><text fill="#FFFFFF" font-family="sans-serif" font-size="14" lengthAdjust="spacingAndGlyphs" textLength="139" x="419" y="652.9863">orderBook:OrderBook</text><polygon fill="#A80036" points="297.5,692.4141,287.5,696.4141,297.5,700.4141,293.5,696.4141" style="stroke: #A80036; stroke-width: 1.0;"/><line style="stroke: #A80036; stroke-width: 1.0; stroke-dasharray: 2.0,2.0;" x1="291.5" x2="487.5" y1="696.4141" y2="696.4141"/><text fill="#000000" font-family="sans-serif" font-size="13" lengthAdjust="spacingAndGlyphs" textLength="62" x="356.5" y="691.5576">OrderBook</text><polygon fill="#A80036" points="583,706.4141,593,710.4141,583,714.4141,587,710.4141" style="stroke: #A80036; stroke-width: 1.0;"/><line style="stroke: #A80036; stroke-width: 1.0;" x1="286.5" x2="589" y1="710.4141" y2="710.4141"/><rect fill="#3333C4" height="31.6094" style="stroke: #A80036; stroke-width: 1.5;" width="237" x="595" y="704.4141"/><text fill="#FFFFFF" font-family="sans-serif" font-size="14" lengthAdjust="spacingAndGlyphs" textLength="223" x="602" y="725.9473">returnOrderBook:ReturnOrderBook</text><polygon fill="#A80036" points="297.5,765.375,287.5,769.375,297.5,773.375,293.5,769.375" style="stroke: #A80036; stroke-width: 1.0;"/><line style="stroke: #A80036; stroke-width: 1.0; stroke-dasharray: 2.0,2.0;" x1="291.5" x2="712.5" y1="769.375" y2="769.375"/><text fill="#000000" font-family="sans-serif" font-size="13" lengthAdjust="spacingAndGlyphs" textLength="95" x="452.5" y="764.5186">returnOrderBook</text><polygon fill="#A80036" points="1064,795.7266,1074,799.7266,1064,803.7266,1068,799.7266" style="stroke: #A80036; stroke-width: 1.0;"/><line style="stroke: #A80036; stroke-width: 1.0;" x1="286.5" x2="1070" y1="799.7266" y2="799.7266"/><text fill="#000000" font-family="sans-serif" font-size="13" lengthAdjust="spacingAndGlyphs" textLength="147" x="607.75" y="794.8701">setOrderBook(orderBook)</text><polygon fill="#A80036" points="297.5,809.7266,287.5,813.7266,297.5,817.7266,293.5,813.7266" style="stroke: #A80036; stroke-width: 1.0;"/><line style="stroke: #A80036; stroke-width: 1.0; stroke-dasharray: 2.0,2.0;" x1="291.5" x2="1080" y1="813.7266" y2="813.7266"/><polygon fill="#A80036" points="1064,840.0781,1074,844.0781,1064,848.0781,1068,844.0781" style="stroke: #A80036; stroke-width: 1.0;"/><line style="stroke: #A80036; stroke-width: 1.0;" x1="286.5" x2="1070" y1="844.0781" y2="844.0781"/><text fill="#000000" font-family="sans-serif" font-size="13" lengthAdjust="spacingAndGlyphs" textLength="221" x="570.75" y="839.2217">setReturnOrderBook(returnOrderBook)</text><polygon fill="#A80036" points="297.5,854.0781,287.5,858.0781,297.5,862.0781,293.5,858.0781" style="stroke: #A80036; stroke-width: 1.0;"/><line style="stroke: #A80036; stroke-width: 1.0; stroke-dasharray: 2.0,2.0;" x1="291.5" x2="1080" y1="858.0781" y2="858.0781"/><polygon fill="#A80036" points="850,884.4297,860,888.4297,850,892.4297,854,888.4297" style="stroke: #A80036; stroke-width: 1.0;"/><line style="stroke: #A80036; stroke-width: 1.0;" x1="286.5" x2="856" y1="888.4297" y2="888.4297"/><text fill="#000000" font-family="sans-serif" font-size="13" lengthAdjust="spacingAndGlyphs" textLength="223" x="462.75" y="883.5732">MESSAGE_SUCCESS_BOTH_BOOK</text><rect fill="#3333C4" height="31.6094" style="stroke: #A80036; stroke-width: 1.5;" width="157" x="862" y="866.0781"/><text fill="#FFFFFF" font-family="sans-serif" font-size="14" lengthAdjust="spacingAndGlyphs" textLength="143" x="869" y="887.6113">result:CommandResult</text><polygon fill="#A80036" points="297.5,927.0391,287.5,931.0391,297.5,935.0391,293.5,931.0391" style="stroke: #A80036; stroke-width: 1.0;"/><line style="stroke: #A80036; stroke-width: 1.0; stroke-dasharray: 2.0,2.0;" x1="291.5" x2="939.5" y1="931.0391" y2="931.0391"/><text fill="#000000" font-family="sans-serif" font-size="13" lengthAdjust="spacingAndGlyphs" textLength="32" x="597.5" y="926.1826">result</text><line style="stroke: #A80036; stroke-width: 1.0; stroke-dasharray: 2.0,2.0;" x1="286.5" x2="328.5" y1="973.3906" y2="973.3906"/><line style="stroke: #A80036; stroke-width: 1.0; stroke-dasharray: 2.0,2.0;" x1="328.5" x2="328.5" y1="973.3906" y2="986.3906"/><line style="stroke: #A80036; stroke-width: 1.0; stroke-dasharray: 2.0,2.0;" x1="281.5" x2="328.5" y1="986.3906" y2="986.3906"/><polygon fill="#A80036" points="291.5,982.3906,281.5,986.3906,291.5,990.3906,287.5,986.3906" style="stroke: #A80036; stroke-width: 1.0;"/><text fill="#000000" font-family="sans-serif" font-size="13" lengthAdjust="spacingAndGlyphs" textLength="32" x="293.5" y="968.5342">result</text><line style="stroke: #000000; stroke-width: 1.0; stroke-dasharray: 2.0,2.0;" x1="141" x2="1143" y1="990.3906" y2="990.3906"/><text fill="#000000" font-family="sans-serif" font-size="11" font-weight="bold" lengthAdjust="spacingAndGlyphs" textLength="157" x="146" y="1001.8096">['-f' flag is not found in flags]</text><path d="M151,1012.2266 L212,1012.2266 L212,1020.2266 L202,1030.2266 L151,1030.2266 L151,1012.2266 " fill="#EEEEEE" style="stroke: #000000; stroke-width: 1.0;"/><rect fill="none" height="268.9063" style="stroke: #000000; stroke-width: 2.0;" width="888" x="151" y="1012.2266"/><text fill="#000000" font-family="sans-serif" font-size="13" font-weight="bold" lengthAdjust="spacingAndGlyphs" textLength="16" x="166" y="1026.7217">alt</text><text fill="#000000" font-family="sans-serif" font-size="11" font-weight="bold" lengthAdjust="spacingAndGlyphs" textLength="153" x="227" y="1025.6455">[Only '-o' flag found in flags]</text><polygon fill="#A80036" points="850,1048.9297,860,1052.9297,850,1056.9297,854,1052.9297" style="stroke: #A80036; stroke-width: 1.0;"/><line style="stroke: #A80036; stroke-width: 1.0;" x1="281.5" x2="856" y1="1052.9297" y2="1052.9297"/><text fill="#000000" font-family="sans-serif" font-size="13" lengthAdjust="spacingAndGlyphs" textLength="229" x="457.25" y="1048.0732">MESSAGE_ENQUIRY_ORDER_BOOK</text><rect fill="#3333C4" height="31.6094" style="stroke: #A80036; stroke-width: 1.5;" width="157" x="862" y="1030.5781"/><text fill="#FFFFFF" font-family="sans-serif" font-size="14" lengthAdjust="spacingAndGlyphs" textLength="143" x="869" y="1052.1113">result:CommandResult</text><polygon fill="#A80036" points="292.5,1091.5391,282.5,1095.5391,292.5,1099.5391,288.5,1095.5391" style="stroke: #A80036; stroke-width: 1.0;"/><line style="stroke: #A80036; stroke-width: 1.0; stroke-dasharray: 2.0,2.0;" x1="286.5" x2="939.5" y1="1095.5391" y2="1095.5391"/><text fill="#000000" font-family="sans-serif" font-size="13" lengthAdjust="spacingAndGlyphs" textLength="32" x="595" y="1090.6826">result</text><line style="stroke: #000000; stroke-width: 1.0; stroke-dasharray: 2.0,2.0;" x1="151" x2="1039" y1="1104.5391" y2="1104.5391"/><text fill="#000000" font-family="sans-serif" font-size="11" font-weight="bold" lengthAdjust="spacingAndGlyphs" textLength="153" x="156" y="1115.958">[Only `-r` flag found in flags]</text><polygon fill="#A80036" points="850,1137.7266,860,1141.7266,850,1145.7266,854,1141.7266" style="stroke: #A80036; stroke-width: 1.0;"/><line style="stroke: #A80036; stroke-width: 1.0;" x1="281.5" x2="856" y1="1141.7266" y2="1141.7266"/><text fill="#000000" font-family="sans-serif" font-size="13" lengthAdjust="spacingAndGlyphs" textLength="235" x="454.25" y="1136.8701">MESSAGE_ENQUIRY_RETURN_BOOK</text><rect fill="#3333C4" height="31.6094" style="stroke: #A80036; stroke-width: 1.5;" width="157" x="862" y="1119.375"/><text fill="#FFFFFF" font-family="sans-serif" font-size="14" lengthAdjust="spacingAndGlyphs" textLength="143" x="869" y="1140.9082">result:CommandResult</text><polygon fill="#A80036" points="292.5,1180.3359,282.5,1184.3359,292.5,1188.3359,288.5,1184.3359" style="stroke: #A80036; stroke-width: 1.0;"/><line style="stroke: #A80036; stroke-width: 1.0; stroke-dasharray: 2.0,2.0;" x1="286.5" x2="939.5" y1="1184.3359" y2="1184.3359"/><text fill="#000000" font-family="sans-serif" font-size="13" lengthAdjust="spacingAndGlyphs" textLength="32" x="595" y="1179.4795">result</text><line style="stroke: #000000; stroke-width: 1.0; stroke-dasharray: 2.0,2.0;" x1="151" x2="1039" y1="1193.3359" y2="1193.3359"/><text fill="#000000" font-family="sans-serif" font-size="11" font-weight="bold" lengthAdjust="spacingAndGlyphs" textLength="123" x="156" y="1204.7549">[No flag found in flags]</text><polygon fill="#A80036" points="850,1226.5234,860,1230.5234,850,1234.5234,854,1230.5234" style="stroke: #A80036; stroke-width: 1.0;"/><line style="stroke: #A80036; stroke-width: 1.0;" x1="281.5" x2="856" y1="1230.5234" y2="1230.5234"/><text fill="#000000" font-family="sans-serif" font-size="13" lengthAdjust="spacingAndGlyphs" textLength="218" x="462.75" y="1225.667">MESSAGE_ENQUIRY_BOTH_BOOK</text><rect fill="#3333C4" height="31.6094" style="stroke: #A80036; stroke-width: 1.5;" width="157" x="862" y="1208.1719"/><text fill="#FFFFFF" font-family="sans-serif" font-size="14" lengthAdjust="spacingAndGlyphs" textLength="143" x="869" y="1229.7051">result:CommandResult</text><polygon fill="#A80036" points="292.5,1269.1328,282.5,1273.1328,292.5,1277.1328,288.5,1273.1328" style="stroke: #A80036; stroke-width: 1.0;"/><line style="stroke: #A80036; stroke-width: 1.0; stroke-dasharray: 2.0,2.0;" x1="286.5" x2="939.5" y1="1273.1328" y2="1273.1328"/><text fill="#000000" font-family="sans-serif" font-size="13" lengthAdjust="spacingAndGlyphs" textLength="32" x="595" y="1268.2764">result</text><polygon fill="#A80036" points="103,1313.4844,93,1317.4844,103,1321.4844,99,1317.4844" style="stroke: #A80036; stroke-width: 1.0;"/><line style="stroke: #A80036; stroke-width: 1.0; stroke-dasharray: 2.0,2.0;" x1="97" x2="275.5" y1="1317.4844" y2="1317.4844"/><text fill="#000000" font-family="sans-serif" font-size="13" lengthAdjust="spacingAndGlyphs" textLength="32" x="168.25" y="1312.6279">result</text><polygon fill="#A80036" points="14,1327.4844,4,1331.4844,14,1335.4844,10,1331.4844" style="stroke: #A80036; stroke-width: 1.0;"/><line style="stroke: #A80036; stroke-width: 1.0; stroke-dasharray: 2.0,2.0;" x1="8" x2="86" y1="1331.4844" y2="1331.4844"/><!--MD5=[e57c0b8824ab998f5c6ccc123ede8f33]
@startuml








skinparam BackgroundColor #FFFFFFF

skinparam Shadowing false

skinparam Class {
    FontColor #FFFFFF
    BorderThickness 1
    BorderColor #FFFFFF
    StereotypeFontColor #FFFFFF
    FontName Arial
}

skinparam Actor {
    BorderColor #000000
    Color #000000
    FontName Arial
}

skinparam Sequence {
    MessageAlign center
    BoxFontSize 15
    BoxPadding 0
    BoxFontColor #FFFFFF
    FontName Arial
}

skinparam Participant {
    FontColor #FFFFFFF
    Padding 20
}

skinparam MinClassWidth 50
skinparam ParticipantPadding 10
skinparam Shadowing false
skinparam DefaultTextAlignment center
skinparam packageStyle Rectangle

hide footbox
hide members
hide circle
box Logic #C8C8FA
participant ":LogicManager" as LogicManager #3333C4
participant "clearCommand:ClearCommand" as ClearCommand #3333C4
participant "orderBook:OrderBook" as OrderBook #3333C4
participant "returnOrderBook:ReturnOrderBook" as ReturnOrderBook #3333C4
participant "result:CommandResult" as CommandResult #3333C4
end box

box Model #F97181
participant ":Model" as Model #9D0012
end box
activate LogicManager

group sd Execution of the Clear Command Sequence Diagram

LogicManager -> ClearCommand ++ : execute(model)

alt '-f' flag found in flags
    ClearCommand -> ClearCommand ++ : updateModel(model)
    alt '-o' flag also found in flags
        create OrderBook
        ClearCommand -> OrderBook ++

        OrderBook - -> ClearCommand - - : orderBook

        ClearCommand -> Model ++ : setOrderBook(orderBook)
        Model - -> ClearCommand - -

        create CommandResult
        ClearCommand -> CommandResult ++ : MESSAGE_SUCCESS_ORDER_BOOK

        CommandResult - -> ClearCommand - - : result

    else '-r' flag also found in flags
        create ReturnOrderBook
        ClearCommand -> ReturnOrderBook ++

        ReturnOrderBook - -> ClearCommand - - : returnOrderBook

        ClearCommand -> Model ++ : setReturnOrderBook(returnOrderBook)
        Model - -> ClearCommand - -

        create CommandResult
        ClearCommand -> CommandResult ++ : MESSAGE_SUCCESS_RETURN_BOOK

        CommandResult - -> ClearCommand - - : result
    else Only '-f' flag found in flags
        create OrderBook
        ClearCommand -> OrderBook ++
        OrderBook - -> ClearCommand - - : OrderBook

        create ReturnOrderBook
        ClearCommand -> ReturnOrderBook ++
        ReturnOrderBook - -> ClearCommand - - : returnOrderBook

        ClearCommand -> Model ++ : setOrderBook(orderBook)
        Model - -> ClearCommand - -

        ClearCommand -> Model ++ : setReturnOrderBook(returnOrderBook)
        Model - -> ClearCommand - -

        create CommandResult
        ClearCommand -> CommandResult ++ : MESSAGE_SUCCESS_BOTH_BOOK

        CommandResult - -> ClearCommand - - : result
    end
    ClearCommand - -> ClearCommand - - : result
else '-f' flag is not found in flags
    alt Only '-o' flag found in flags
        create CommandResult
        ClearCommand -> CommandResult ++ : MESSAGE_ENQUIRY_ORDER_BOOK

        CommandResult - -> ClearCommand - - : result
    else Only `-r` flag found in flags
        create CommandResult
        ClearCommand -> CommandResult ++ : MESSAGE_ENQUIRY_RETURN_BOOK

        CommandResult - -> ClearCommand - - : result
    else No flag found in flags
        create CommandResult
        ClearCommand -> CommandResult ++ : MESSAGE_ENQUIRY_BOTH_BOOK

        CommandResult - -> ClearCommand - - : result
    end
end

ClearCommand - -> LogicManager : result
deactivate ClearCommand

[<- -LogicManager
deactivate LogicManager

end
@enduml

PlantUML version 1.2019.11(Sun Sep 22 18:02:15 SGT 2019)
(GPL source distribution)
Java Runtime: OpenJDK Runtime Environment
JVM: OpenJDK 64-Bit Server VM
Java Version: 11.0.5+10-b520.30
Operating System: Windows 10
Default Encoding: UTF-8
Language: en
Country: US
--></g></svg>
