<?xml version="1.0" encoding="UTF-8" standalone="no"?><svg xmlns="http://www.w3.org/2000/svg" xmlns:xlink="http://www.w3.org/1999/xlink" contentScriptType="application/ecmascript" contentStyleType="text/css" height="792px" preserveAspectRatio="none" style="width:1336px;height:792px;" version="1.1" viewBox="0 0 1336 792" width="1336px" zoomAndPan="magnify"><defs><filter height="300%" id="fwxutg2ush5q2" width="300%" x="-1" y="-1"><feGaussianBlur result="blurOut" stdDeviation="2.0"/><feColorMatrix in="blurOut" result="blurOut2" type="matrix" values="0 0 0 0 0 0 0 0 0 0 0 0 0 0 0 0 0 0 .4 0"/><feOffset dx="4.0" dy="4.0" in="blurOut2" result="blurOut3"/><feBlend in="SourceGraphic" in2="blurOut3" mode="normal"/></filter></defs><g><ellipse cx="638.125" cy="20" fill="#000000" filter="url(#fwxutg2ush5q2)" rx="10" ry="10" style="stroke: none; stroke-width: 1.0;"/><rect fill="#FEFECE" filter="url(#fwxutg2ush5q2)" height="35.0938" rx="12.5" ry="12.5" style="stroke: #A80036; stroke-width: 1.5;" width="167" x="554.625" y="50"/><text fill="#000000" font-family="sans-serif" font-size="12" lengthAdjust="spacingAndGlyphs" textLength="147" x="564.625" y="72.457">User enter clear command</text><polygon fill="#FEFECE" filter="url(#fwxutg2ush5q2)" points="638.125,105.0938,638.125,105.0938,650.125,117.0938,638.125,129.0938,638.125,129.0938,626.125,117.0938,638.125,105.0938" style="stroke: #A80036; stroke-width: 1.5;"/><text fill="#000000" font-family="sans-serif" font-size="11" lengthAdjust="spacingAndGlyphs" textLength="110" x="516.125" y="114.6768">[Arguments are empty]</text><text fill="#000000" font-family="sans-serif" font-size="11" lengthAdjust="spacingAndGlyphs" textLength="26" x="650.125" y="114.6768">[else]</text><rect fill="#FEFECE" filter="url(#fwxutg2ush5q2)" height="35.0938" rx="12.5" ry="12.5" style="stroke: #A80036; stroke-width: 1.5;" width="260" x="372.375" y="139.0938"/><text fill="#000000" font-family="sans-serif" font-size="12" lengthAdjust="spacingAndGlyphs" textLength="240" x="382.375" y="161.5508">Create a new Clear Command with no flags</text><rect fill="#FEFECE" filter="url(#fwxutg2ush5q2)" height="35.0938" rx="12.5" ry="12.5" style="stroke: #A80036; stroke-width: 1.5;" width="243" x="652.375" y="139.0938"/><text fill="#000000" font-family="sans-serif" font-size="12" lengthAdjust="spacingAndGlyphs" textLength="223" x="662.375" y="161.5508">Create a new Clear Command with flags</text><polygon fill="#FEFECE" filter="url(#fwxutg2ush5q2)" points="638.125,180.1875,650.125,192.1875,638.125,204.1875,626.125,192.1875,638.125,180.1875" style="stroke: #A80036; stroke-width: 1.5;"/><rect fill="#FEFECE" filter="url(#fwxutg2ush5q2)" height="35.0938" rx="12.5" ry="12.5" style="stroke: #A80036; stroke-width: 1.5;" width="149" x="563.625" y="224.1875"/><text fill="#000000" font-family="sans-serif" font-size="12" lengthAdjust="spacingAndGlyphs" textLength="129" x="573.625" y="246.6445">Executes the command</text><polygon fill="#FEFECE" filter="url(#fwxutg2ush5q2)" points="638.125,279.2813,638.125,279.2813,650.125,291.2813,638.125,303.2813,638.125,303.2813,626.125,291.2813,638.125,279.2813" style="stroke: #A80036; stroke-width: 1.5;"/><text fill="#000000" font-family="sans-serif" font-size="11" lengthAdjust="spacingAndGlyphs" textLength="114" x="512.125" y="288.8643">([flags contains '-f' flag]</text><text fill="#000000" font-family="sans-serif" font-size="11" lengthAdjust="spacingAndGlyphs" textLength="26" x="650.125" y="288.8643">[else]</text><polygon fill="#FEFECE" filter="url(#fwxutg2ush5q2)" points="235.75,313.2813,235.75,313.2813,247.75,325.2813,235.75,337.2813,235.75,337.2813,223.75,325.2813,235.75,313.2813" style="stroke: #A80036; stroke-width: 1.5;"/><text fill="#000000" font-family="sans-serif" font-size="11" lengthAdjust="spacingAndGlyphs" textLength="135" x="88.75" y="322.8643">[flags also contains '-o' flag]</text><text fill="#000000" font-family="sans-serif" font-size="11" lengthAdjust="spacingAndGlyphs" textLength="26" x="247.75" y="322.8643">[else]</text><rect fill="#FEFECE" filter="url(#fwxutg2ush5q2)" height="35.0938" rx="12.5" ry="12.5" style="stroke: #A80036; stroke-width: 1.5;" width="151" x="10" y="347.2813"/><text fill="#000000" font-family="sans-serif" font-size="12" lengthAdjust="spacingAndGlyphs" textLength="131" x="20" y="369.7383">Clear the order book list</text><polygon fill="#FEFECE" filter="url(#fwxutg2ush5q2)" points="386,347.2813,386,347.2813,398,359.2813,386,371.2813,386,371.2813,374,359.2813,386,347.2813" style="stroke: #A80036; stroke-width: 1.5;"/><text fill="#000000" font-family="sans-serif" font-size="11" lengthAdjust="spacingAndGlyphs" textLength="127" x="247" y="356.8643">[flags also contain '-r' flag]</text><text fill="#000000" font-family="sans-serif" font-size="11" lengthAdjust="spacingAndGlyphs" textLength="129" x="398" y="356.8643">[flags only contains 'f' flag]</text><rect fill="#FEFECE" filter="url(#fwxutg2ush5q2)" height="35.0938" rx="12.5" ry="12.5" style="stroke: #A80036; stroke-width: 1.5;" width="186" x="191" y="381.2813"/><text fill="#000000" font-family="sans-serif" font-size="12" lengthAdjust="spacingAndGlyphs" textLength="166" x="201" y="403.7383">Clear the return order book list</text><rect fill="#FEFECE" filter="url(#fwxutg2ush5q2)" height="50.1875" rx="12.5" ry="12.5" style="stroke: #A80036; stroke-width: 1.5;" width="182" x="397" y="381.2813"/><text fill="#000000" font-family="sans-serif" font-size="12" lengthAdjust="spacingAndGlyphs" textLength="162" x="407" y="403.7383">Clear both order book list and</text><text fill="#000000" font-family="sans-serif" font-size="12" lengthAdjust="spacingAndGlyphs" textLength="113" x="410" y="418.832">return order book list</text><polygon fill="#FEFECE" filter="url(#fwxutg2ush5q2)" points="386,437.4688,398,449.4688,386,461.4688,374,449.4688,386,437.4688" style="stroke: #A80036; stroke-width: 1.5;"/><polygon fill="#FEFECE" filter="url(#fwxutg2ush5q2)" points="235.75,467.4688,247.75,479.4688,235.75,491.4688,223.75,479.4688,235.75,467.4688" style="stroke: #A80036; stroke-width: 1.5;"/><rect fill="#FEFECE" filter="url(#fwxutg2ush5q2)" height="35.0938" rx="12.5" ry="12.5" style="stroke: #A80036; stroke-width: 1.5;" width="230" x="120.75" y="511.4688"/><text fill="#000000" font-family="sans-serif" font-size="12" lengthAdjust="spacingAndGlyphs" textLength="210" x="130.75" y="533.9258">Display success message to the User</text><polygon fill="#FEFECE" filter="url(#fwxutg2ush5q2)" points="1040.5,313.2813,1040.5,313.2813,1052.5,325.2813,1040.5,337.2813,1040.5,337.2813,1028.5,325.2813,1040.5,313.2813" style="stroke: #A80036; stroke-width: 1.5;"/><text fill="#000000" font-family="sans-serif" font-size="11" lengthAdjust="spacingAndGlyphs" textLength="139" x="889.5" y="322.8643">[flags do not contains 'f' flag]</text><text fill="#000000" font-family="sans-serif" font-size="11" lengthAdjust="spacingAndGlyphs" textLength="90" x="1052.5" y="322.8643">[flags equal to null]</text><polygon fill="#FEFECE" filter="url(#fwxutg2ush5q2)" points="860,347.2813,860,347.2813,872,359.2813,860,371.2813,860,371.2813,848,359.2813,860,347.2813" style="stroke: #A80036; stroke-width: 1.5;"/><text fill="#000000" font-family="sans-serif" font-size="11" lengthAdjust="spacingAndGlyphs" textLength="112" x="736" y="356.8643">[flags contains '-o' flag]</text><text fill="#000000" font-family="sans-serif" font-size="11" lengthAdjust="spacingAndGlyphs" textLength="106" x="872" y="356.8643">[flags contains 'r' flag]</text><rect fill="#FEFECE" filter="url(#fwxutg2ush5q2)" height="50.1875" rx="12.5" ry="12.5" style="stroke: #A80036; stroke-width: 1.5;" width="208" x="639" y="381.2813"/><text fill="#000000" font-family="sans-serif" font-size="12" lengthAdjust="spacingAndGlyphs" textLength="188" x="649" y="403.7383">Display the confirmation message</text><text fill="#000000" font-family="sans-serif" font-size="12" lengthAdjust="spacingAndGlyphs" textLength="162" x="652" y="418.832">to clear order book list to user</text><rect fill="#FEFECE" filter="url(#fwxutg2ush5q2)" height="50.1875" rx="12.5" ry="12.5" style="stroke: #A80036; stroke-width: 1.5;" width="220" x="867" y="381.2813"/><text fill="#000000" font-family="sans-serif" font-size="12" lengthAdjust="spacingAndGlyphs" textLength="188" x="877" y="403.7383">Display the confirmation message</text><text fill="#000000" font-family="sans-serif" font-size="12" lengthAdjust="spacingAndGlyphs" textLength="197" x="880" y="418.832">to clear return order book list to user</text><polygon fill="#FEFECE" filter="url(#fwxutg2ush5q2)" points="860,437.4688,872,449.4688,860,461.4688,848,449.4688,860,437.4688" style="stroke: #A80036; stroke-width: 1.5;"/><rect fill="#FEFECE" filter="url(#fwxutg2ush5q2)" height="65.2813" rx="12.5" ry="12.5" style="stroke: #A80036; stroke-width: 1.5;" width="208" x="1117" y="347.2813"/><text fill="#000000" font-family="sans-serif" font-size="12" lengthAdjust="spacingAndGlyphs" textLength="188" x="1127" y="369.7383">Display the confirmation message</text><text fill="#000000" font-family="sans-serif" font-size="12" lengthAdjust="spacingAndGlyphs" textLength="148" x="1130" y="384.832">to clear both order book list</text><text fill="#000000" font-family="sans-serif" font-size="12" lengthAdjust="spacingAndGlyphs" textLength="178" x="1130" y="399.9258">and return order book list to user</text><polygon fill="#FEFECE" filter="url(#fwxutg2ush5q2)" points="1040.5,467.4688,1052.5,479.4688,1040.5,491.4688,1028.5,479.4688,1040.5,467.4688" style="stroke: #A80036; stroke-width: 1.5;"/><rect fill="#FEFECE" filter="url(#fwxutg2ush5q2)" height="35.0938" rx="12.5" ry="12.5" style="stroke: #A80036; stroke-width: 1.5;" width="344" x="868.5" y="560.3867"/><text fill="#000000" font-family="sans-serif" font-size="12" lengthAdjust="spacingAndGlyphs" textLength="324" x="878.5" y="582.8438">Clear the respective order book list based on the command</text><rect fill="#FEFECE" filter="url(#fwxutg2ush5q2)" height="35.0938" rx="12.5" ry="12.5" style="stroke: #A80036; stroke-width: 1.5;" width="238" x="921.5" y="630.4805"/><text fill="#000000" font-family="sans-serif" font-size="12" lengthAdjust="spacingAndGlyphs" textLength="218" x="931.5" y="652.9375">Display clear success message to user</text><polygon fill="#FEFECE" filter="url(#fwxutg2ush5q2)" points="1040.5,511.4688,1040.5,511.4688,1052.5,523.4688,1040.5,535.4688,1040.5,535.4688,1028.5,523.4688,1040.5,511.4688" style="stroke: #A80036; stroke-width: 1.5;"/><text fill="#000000" font-family="sans-serif" font-size="11" lengthAdjust="spacingAndGlyphs" textLength="114" x="1044.5" y="546.8877">[User press yes button]</text><text fill="#000000" font-family="sans-serif" font-size="11" lengthAdjust="spacingAndGlyphs" textLength="108" x="1052.5" y="521.0518">[User press no button]</text><polygon fill="#FEFECE" filter="url(#fwxutg2ush5q2)" points="1040.5,685.5742,1052.5,697.5742,1040.5,709.5742,1028.5,697.5742,1040.5,685.5742" style="stroke: #A80036; stroke-width: 1.5;"/><polygon fill="#FEFECE" filter="url(#fwxutg2ush5q2)" points="638.125,715.5742,650.125,727.5742,638.125,739.5742,626.125,727.5742,638.125,715.5742" style="stroke: #A80036; stroke-width: 1.5;"/><ellipse cx="638.125" cy="770.5742" fill="#FFFFFF" filter="url(#fwxutg2ush5q2)" rx="11" ry="11" style="stroke: #000000; stroke-width: 1.0;"/><ellipse cx="638.125" cy="770.5742" fill="#000000" rx="6" ry="6" style="stroke: #7F7F7F; stroke-width: 1.0;"/><line style="stroke: #A80036; stroke-width: 1.5;" x1="638.125" x2="638.125" y1="30" y2="50"/><polygon fill="#A80036" points="634.125,40,638.125,50,642.125,40,638.125,44" style="stroke: #A80036; stroke-width: 1.0;"/><line style="stroke: #A80036; stroke-width: 1.5;" x1="626.125" x2="502.375" y1="117.0938" y2="117.0938"/><line style="stroke: #A80036; stroke-width: 1.5;" x1="502.375" x2="502.375" y1="117.0938" y2="139.0938"/><polygon fill="#A80036" points="498.375,129.0938,502.375,139.0938,506.375,129.0938,502.375,133.0938" style="stroke: #A80036; stroke-width: 1.0;"/><line style="stroke: #A80036; stroke-width: 1.5;" x1="650.125" x2="773.875" y1="117.0938" y2="117.0938"/><line style="stroke: #A80036; stroke-width: 1.5;" x1="773.875" x2="773.875" y1="117.0938" y2="139.0938"/><polygon fill="#A80036" points="769.875,129.0938,773.875,139.0938,777.875,129.0938,773.875,133.0938" style="stroke: #A80036; stroke-width: 1.0;"/><line style="stroke: #A80036; stroke-width: 1.5;" x1="502.375" x2="502.375" y1="174.1875" y2="192.1875"/><line style="stroke: #A80036; stroke-width: 1.5;" x1="502.375" x2="626.125" y1="192.1875" y2="192.1875"/><polygon fill="#A80036" points="616.125,188.1875,626.125,192.1875,616.125,196.1875,620.125,192.1875" style="stroke: #A80036; stroke-width: 1.0;"/><line style="stroke: #A80036; stroke-width: 1.5;" x1="773.875" x2="773.875" y1="174.1875" y2="192.1875"/><line style="stroke: #A80036; stroke-width: 1.5;" x1="773.875" x2="650.125" y1="192.1875" y2="192.1875"/><polygon fill="#A80036" points="660.125,188.1875,650.125,192.1875,660.125,196.1875,656.125,192.1875" style="stroke: #A80036; stroke-width: 1.0;"/><line style="stroke: #A80036; stroke-width: 1.5;" x1="638.125" x2="638.125" y1="85.0938" y2="105.0938"/><polygon fill="#A80036" points="634.125,95.0938,638.125,105.0938,642.125,95.0938,638.125,99.0938" style="stroke: #A80036; stroke-width: 1.0;"/><line style="stroke: #A80036; stroke-width: 1.5;" x1="638.125" x2="638.125" y1="204.1875" y2="224.1875"/><polygon fill="#A80036" points="634.125,214.1875,638.125,224.1875,642.125,214.1875,638.125,218.1875" style="stroke: #A80036; stroke-width: 1.0;"/><line style="stroke: #A80036; stroke-width: 1.5;" x1="374" x2="284" y1="359.2813" y2="359.2813"/><line style="stroke: #A80036; stroke-width: 1.5;" x1="284" x2="284" y1="359.2813" y2="381.2813"/><polygon fill="#A80036" points="280,371.2813,284,381.2813,288,371.2813,284,375.2813" style="stroke: #A80036; stroke-width: 1.0;"/><line style="stroke: #A80036; stroke-width: 1.5;" x1="398" x2="488" y1="359.2813" y2="359.2813"/><line style="stroke: #A80036; stroke-width: 1.5;" x1="488" x2="488" y1="359.2813" y2="381.2813"/><polygon fill="#A80036" points="484,371.2813,488,381.2813,492,371.2813,488,375.2813" style="stroke: #A80036; stroke-width: 1.0;"/><line style="stroke: #A80036; stroke-width: 1.5;" x1="284" x2="284" y1="416.375" y2="449.4688"/><line style="stroke: #A80036; stroke-width: 1.5;" x1="284" x2="374" y1="449.4688" y2="449.4688"/><polygon fill="#A80036" points="364,445.4688,374,449.4688,364,453.4688,368,449.4688" style="stroke: #A80036; stroke-width: 1.0;"/><line style="stroke: #A80036; stroke-width: 1.5;" x1="488" x2="488" y1="431.4688" y2="449.4688"/><line style="stroke: #A80036; stroke-width: 1.5;" x1="488" x2="398" y1="449.4688" y2="449.4688"/><polygon fill="#A80036" points="408,445.4688,398,449.4688,408,453.4688,404,449.4688" style="stroke: #A80036; stroke-width: 1.0;"/><line style="stroke: #A80036; stroke-width: 1.5;" x1="223.75" x2="85.5" y1="325.2813" y2="325.2813"/><line style="stroke: #A80036; stroke-width: 1.5;" x1="85.5" x2="85.5" y1="325.2813" y2="347.2813"/><polygon fill="#A80036" points="81.5,337.2813,85.5,347.2813,89.5,337.2813,85.5,341.2813" style="stroke: #A80036; stroke-width: 1.0;"/><line style="stroke: #A80036; stroke-width: 1.5;" x1="247.75" x2="386" y1="325.2813" y2="325.2813"/><line style="stroke: #A80036; stroke-width: 1.5;" x1="386" x2="386" y1="325.2813" y2="347.2813"/><polygon fill="#A80036" points="382,337.2813,386,347.2813,390,337.2813,386,341.2813" style="stroke: #A80036; stroke-width: 1.0;"/><line style="stroke: #A80036; stroke-width: 1.5;" x1="85.5" x2="85.5" y1="382.375" y2="479.4688"/><line style="stroke: #A80036; stroke-width: 1.5;" x1="85.5" x2="223.75" y1="479.4688" y2="479.4688"/><polygon fill="#A80036" points="213.75,475.4688,223.75,479.4688,213.75,483.4688,217.75,479.4688" style="stroke: #A80036; stroke-width: 1.0;"/><line style="stroke: #A80036; stroke-width: 1.5;" x1="386" x2="386" y1="461.4688" y2="479.4688"/><line style="stroke: #A80036; stroke-width: 1.5;" x1="386" x2="247.75" y1="479.4688" y2="479.4688"/><polygon fill="#A80036" points="257.75,475.4688,247.75,479.4688,257.75,483.4688,253.75,479.4688" style="stroke: #A80036; stroke-width: 1.0;"/><line style="stroke: #A80036; stroke-width: 1.5;" x1="235.75" x2="235.75" y1="491.4688" y2="511.4688"/><polygon fill="#A80036" points="231.75,501.4688,235.75,511.4688,239.75,501.4688,235.75,505.4688" style="stroke: #A80036; stroke-width: 1.0;"/><line style="stroke: #A80036; stroke-width: 1.5;" x1="848" x2="743" y1="359.2813" y2="359.2813"/><line style="stroke: #A80036; stroke-width: 1.5;" x1="743" x2="743" y1="359.2813" y2="381.2813"/><polygon fill="#A80036" points="739,371.2813,743,381.2813,747,371.2813,743,375.2813" style="stroke: #A80036; stroke-width: 1.0;"/><line style="stroke: #A80036; stroke-width: 1.5;" x1="872" x2="977" y1="359.2813" y2="359.2813"/><line style="stroke: #A80036; stroke-width: 1.5;" x1="977" x2="977" y1="359.2813" y2="381.2813"/><polygon fill="#A80036" points="973,371.2813,977,381.2813,981,371.2813,977,375.2813" style="stroke: #A80036; stroke-width: 1.0;"/><line style="stroke: #A80036; stroke-width: 1.5;" x1="743" x2="743" y1="431.4688" y2="449.4688"/><line style="stroke: #A80036; stroke-width: 1.5;" x1="743" x2="848" y1="449.4688" y2="449.4688"/><polygon fill="#A80036" points="838,445.4688,848,449.4688,838,453.4688,842,449.4688" style="stroke: #A80036; stroke-width: 1.0;"/><line style="stroke: #A80036; stroke-width: 1.5;" x1="977" x2="977" y1="431.4688" y2="449.4688"/><line style="stroke: #A80036; stroke-width: 1.5;" x1="977" x2="872" y1="449.4688" y2="449.4688"/><polygon fill="#A80036" points="882,445.4688,872,449.4688,882,453.4688,878,449.4688" style="stroke: #A80036; stroke-width: 1.0;"/><line style="stroke: #A80036; stroke-width: 1.5;" x1="1028.5" x2="860" y1="325.2813" y2="325.2813"/><line style="stroke: #A80036; stroke-width: 1.5;" x1="860" x2="860" y1="325.2813" y2="347.2813"/><polygon fill="#A80036" points="856,337.2813,860,347.2813,864,337.2813,860,341.2813" style="stroke: #A80036; stroke-width: 1.0;"/><line style="stroke: #A80036; stroke-width: 1.5;" x1="1052.5" x2="1221" y1="325.2813" y2="325.2813"/><line style="stroke: #A80036; stroke-width: 1.5;" x1="1221" x2="1221" y1="325.2813" y2="347.2813"/><polygon fill="#A80036" points="1217,337.2813,1221,347.2813,1225,337.2813,1221,341.2813" style="stroke: #A80036; stroke-width: 1.0;"/><line style="stroke: #A80036; stroke-width: 1.5;" x1="860" x2="860" y1="461.4688" y2="479.4688"/><line style="stroke: #A80036; stroke-width: 1.5;" x1="860" x2="1028.5" y1="479.4688" y2="479.4688"/><polygon fill="#A80036" points="1018.5,475.4688,1028.5,479.4688,1018.5,483.4688,1022.5,479.4688" style="stroke: #A80036; stroke-width: 1.0;"/><line style="stroke: #A80036; stroke-width: 1.5;" x1="1221" x2="1221" y1="412.5625" y2="479.4688"/><line style="stroke: #A80036; stroke-width: 1.5;" x1="1221" x2="1052.5" y1="479.4688" y2="479.4688"/><polygon fill="#A80036" points="1062.5,475.4688,1052.5,479.4688,1062.5,483.4688,1058.5,479.4688" style="stroke: #A80036; stroke-width: 1.0;"/><line style="stroke: #A80036; stroke-width: 1.5;" x1="1040.5" x2="1040.5" y1="595.4805" y2="630.4805"/><polygon fill="#A80036" points="1036.5,620.4805,1040.5,630.4805,1044.5,620.4805,1040.5,624.4805" style="stroke: #A80036; stroke-width: 1.0;"/><line style="stroke: #A80036; stroke-width: 1.5;" x1="1040.5" x2="1040.5" y1="535.4688" y2="560.3867"/><polygon fill="#A80036" points="1036.5,550.3867,1040.5,560.3867,1044.5,550.3867,1040.5,554.3867" style="stroke: #A80036; stroke-width: 1.0;"/><line style="stroke: #A80036; stroke-width: 1.5;" x1="1052.5" x2="1222.5" y1="523.4688" y2="523.4688"/><polygon fill="#A80036" points="1218.5,602.9805,1222.5,612.9805,1226.5,602.9805,1222.5,606.9805" style="stroke: #A80036; stroke-width: 1.5;"/><line style="stroke: #A80036; stroke-width: 1.5;" x1="1222.5" x2="1222.5" y1="523.4688" y2="697.5742"/><line style="stroke: #A80036; stroke-width: 1.5;" x1="1222.5" x2="1052.5" y1="697.5742" y2="697.5742"/><polygon fill="#A80036" points="1062.5,693.5742,1052.5,697.5742,1062.5,701.5742,1058.5,697.5742" style="stroke: #A80036; stroke-width: 1.0;"/><line style="stroke: #A80036; stroke-width: 1.5;" x1="1040.5" x2="1040.5" y1="665.5742" y2="685.5742"/><polygon fill="#A80036" points="1036.5,675.5742,1040.5,685.5742,1044.5,675.5742,1040.5,679.5742" style="stroke: #A80036; stroke-width: 1.0;"/><line style="stroke: #A80036; stroke-width: 1.5;" x1="1040.5" x2="1040.5" y1="491.4688" y2="511.4688"/><polygon fill="#A80036" points="1036.5,501.4688,1040.5,511.4688,1044.5,501.4688,1040.5,505.4688" style="stroke: #A80036; stroke-width: 1.0;"/><line style="stroke: #A80036; stroke-width: 1.5;" x1="626.125" x2="235.75" y1="291.2813" y2="291.2813"/><line style="stroke: #A80036; stroke-width: 1.5;" x1="235.75" x2="235.75" y1="291.2813" y2="313.2813"/><polygon fill="#A80036" points="231.75,303.2813,235.75,313.2813,239.75,303.2813,235.75,307.2813" style="stroke: #A80036; stroke-width: 1.0;"/><line style="stroke: #A80036; stroke-width: 1.5;" x1="650.125" x2="1040.5" y1="291.2813" y2="291.2813"/><line style="stroke: #A80036; stroke-width: 1.5;" x1="1040.5" x2="1040.5" y1="291.2813" y2="313.2813"/><polygon fill="#A80036" points="1036.5,303.2813,1040.5,313.2813,1044.5,303.2813,1040.5,307.2813" style="stroke: #A80036; stroke-width: 1.0;"/><line style="stroke: #A80036; stroke-width: 1.5;" x1="235.75" x2="235.75" y1="546.5625" y2="727.5742"/><line style="stroke: #A80036; stroke-width: 1.5;" x1="235.75" x2="626.125" y1="727.5742" y2="727.5742"/><polygon fill="#A80036" points="616.125,723.5742,626.125,727.5742,616.125,731.5742,620.125,727.5742" style="stroke: #A80036; stroke-width: 1.0;"/><line style="stroke: #A80036; stroke-width: 1.5;" x1="1040.5" x2="1040.5" y1="709.5742" y2="727.5742"/><line style="stroke: #A80036; stroke-width: 1.5;" x1="1040.5" x2="650.125" y1="727.5742" y2="727.5742"/><polygon fill="#A80036" points="660.125,723.5742,650.125,727.5742,660.125,731.5742,656.125,727.5742" style="stroke: #A80036; stroke-width: 1.0;"/><line style="stroke: #A80036; stroke-width: 1.5;" x1="638.125" x2="638.125" y1="259.2813" y2="279.2813"/><polygon fill="#A80036" points="634.125,269.2813,638.125,279.2813,642.125,269.2813,638.125,273.2813" style="stroke: #A80036; stroke-width: 1.0;"/><line style="stroke: #A80036; stroke-width: 1.5;" x1="638.125" x2="638.125" y1="739.5742" y2="759.5742"/><polygon fill="#A80036" points="634.125,749.5742,638.125,759.5742,642.125,749.5742,638.125,753.5742" style="stroke: #A80036; stroke-width: 1.0;"/><!--MD5=[0ae1b4aaebe2d4ba944fdcf31881c3ac]
@startuml

start
:User enter clear command;
if () then ([Arguments are empty])
    :Create a new Clear Command with no flags;
else ([else])
    :Create a new Clear Command with flags;
endif
:Executes the command;

if () then (([flags contains '-f' flag])
    if () then ([flags also contains '-o' flag])
    :Clear the order book list;
    else ([else])
        if() then ([flags also contain '-r' flag])
        :Clear the return order book list;
        else ([flags only contains 'f' flag])
        :Clear both order book list and
         return order book list;
        endif
    endif
    :Display success message to the User;

else ([else])
    if() then([flags do not contains 'f' flag])
        if () then ([flags contains '-o' flag])
            :Display the confirmation message
             to clear order book list to user;
        else ([flags contains 'r' flag])
            :Display the confirmation message
             to clear return order book list to user;
        endif
    else ([flags equal to null])
    :Display the confirmation message
     to clear both order book list
     and return order book list to user;
    endif
    if () then ([User press yes button])
        :Clear the respective order book list based on the command;
        :Display clear success message to user;
    else ([User press no button])
    endif
endif
stop
@enduml

PlantUML version 1.2019.11(Sun Sep 22 18:02:15 SGT 2019)
(GPL source distribution)
Java Runtime: OpenJDK Runtime Environment
JVM: OpenJDK 64-Bit Server VM
Java Version: 11.0.5+10-b520.30
Operating System: Windows 10
Default Encoding: UTF-8
Language: en
Country: US
--></g></svg>
