<?xml version="1.0" encoding="UTF-8" standalone="no"?><svg xmlns="http://www.w3.org/2000/svg" xmlns:xlink="http://www.w3.org/1999/xlink" contentScriptType="application/ecmascript" contentStyleType="text/css" height="862px" preserveAspectRatio="none" style="width:1323px;height:862px;" version="1.1" viewBox="0 0 1323 862" width="1323px" zoomAndPan="magnify"><defs><filter height="300%" id="feal8v8c6043w" width="300%" x="-1" y="-1"><feGaussianBlur result="blurOut" stdDeviation="2.0"/><feColorMatrix in="blurOut" result="blurOut2" type="matrix" values="0 0 0 0 0 0 0 0 0 0 0 0 0 0 0 0 0 0 .4 0"/><feOffset dx="4.0" dy="4.0" in="blurOut2" result="blurOut3"/><feBlend in="SourceGraphic" in2="blurOut3" mode="normal"/></filter></defs><g><ellipse cx="659.375" cy="20" fill="#000000" filter="url(#feal8v8c6043w)" rx="10" ry="10" style="stroke: none; stroke-width: 1.0;"/><rect fill="#FEFECE" filter="url(#feal8v8c6043w)" height="35.0938" rx="12.5" ry="12.5" style="stroke: #A80036; stroke-width: 1.5;" width="167" x="575.875" y="50"/><text fill="#000000" font-family="sans-serif" font-size="12" lengthAdjust="spacingAndGlyphs" textLength="147" x="585.875" y="72.457">User enter clear command</text><polygon fill="#FEFECE" filter="url(#feal8v8c6043w)" points="659.375,105.0938,659.375,105.0938,671.375,117.0938,659.375,129.0938,659.375,129.0938,647.375,117.0938,659.375,105.0938" style="stroke: #A80036; stroke-width: 1.5;"/><text fill="#000000" font-family="sans-serif" font-size="11" lengthAdjust="spacingAndGlyphs" textLength="110" x="537.375" y="114.6768">[Arguments are empty]</text><text fill="#000000" font-family="sans-serif" font-size="11" lengthAdjust="spacingAndGlyphs" textLength="26" x="671.375" y="114.6768">[else]</text><rect fill="#FEFECE" filter="url(#feal8v8c6043w)" height="35.0938" rx="12.5" ry="12.5" style="stroke: #A80036; stroke-width: 1.5;" width="111" x="519.625" y="139.0938"/><text fill="#000000" font-family="sans-serif" font-size="12" lengthAdjust="spacingAndGlyphs" textLength="91" x="529.625" y="161.5508">set Flags as null</text><rect fill="#FEFECE" filter="url(#feal8v8c6043w)" height="35.0938" rx="12.5" ry="12.5" style="stroke: #A80036; stroke-width: 1.5;" width="186" x="650.625" y="139.0938"/><text fill="#000000" font-family="sans-serif" font-size="12" lengthAdjust="spacingAndGlyphs" textLength="166" x="660.625" y="161.5508">Retrieve flags from arguments</text><polygon fill="#FEFECE" filter="url(#feal8v8c6043w)" points="659.375,180.1875,671.375,192.1875,659.375,204.1875,647.375,192.1875,659.375,180.1875" style="stroke: #A80036; stroke-width: 1.5;"/><rect fill="#FEFECE" filter="url(#feal8v8c6043w)" height="35.0938" rx="12.5" ry="12.5" style="stroke: #A80036; stroke-width: 1.5;" width="273" x="522.875" y="224.1875"/><text fill="#000000" font-family="sans-serif" font-size="12" lengthAdjust="spacingAndGlyphs" textLength="253" x="532.875" y="246.6445">Create a new Clear Command based on flags</text><rect fill="#FEFECE" filter="url(#feal8v8c6043w)" height="35.0938" rx="12.5" ry="12.5" style="stroke: #A80036; stroke-width: 1.5;" width="232" x="543.375" y="279.2813"/><text fill="#000000" font-family="sans-serif" font-size="12" lengthAdjust="spacingAndGlyphs" textLength="212" x="553.375" y="301.7383">Logic Manager executes the command</text><polygon fill="#FEFECE" filter="url(#feal8v8c6043w)" points="659.375,334.375,659.375,334.375,671.375,346.375,659.375,358.375,659.375,358.375,647.375,346.375,659.375,334.375" style="stroke: #A80036; stroke-width: 1.5;"/><text fill="#000000" font-family="sans-serif" font-size="11" lengthAdjust="spacingAndGlyphs" textLength="114" x="533.375" y="343.958">([flags contains '-f' flag]</text><text fill="#000000" font-family="sans-serif" font-size="11" lengthAdjust="spacingAndGlyphs" textLength="26" x="671.375" y="343.958">[else]</text><polygon fill="#FEFECE" filter="url(#feal8v8c6043w)" points="267.5,368.375,267.5,368.375,279.5,380.375,267.5,392.375,267.5,392.375,255.5,380.375,267.5,368.375" style="stroke: #A80036; stroke-width: 1.5;"/><text fill="#000000" font-family="sans-serif" font-size="11" lengthAdjust="spacingAndGlyphs" textLength="135" x="120.5" y="377.958">[flags also contains '-o' flag]</text><text fill="#000000" font-family="sans-serif" font-size="11" lengthAdjust="spacingAndGlyphs" textLength="26" x="279.5" y="377.958">[else]</text><rect fill="#FEFECE" filter="url(#feal8v8c6043w)" height="35.0938" rx="12.5" ry="12.5" style="stroke: #A80036; stroke-width: 1.5;" width="181" x="10" y="402.375"/><text fill="#000000" font-family="sans-serif" font-size="12" lengthAdjust="spacingAndGlyphs" textLength="161" x="20" y="424.832">Clear the order book in Model</text><polygon fill="#FEFECE" filter="url(#feal8v8c6043w)" points="434.5,402.375,434.5,402.375,446.5,414.375,434.5,426.375,434.5,426.375,422.5,414.375,434.5,402.375" style="stroke: #A80036; stroke-width: 1.5;"/><text fill="#000000" font-family="sans-serif" font-size="11" lengthAdjust="spacingAndGlyphs" textLength="127" x="295.5" y="411.958">[flags also contain '-r' flag]</text><text fill="#000000" font-family="sans-serif" font-size="11" lengthAdjust="spacingAndGlyphs" textLength="129" x="446.5" y="411.958">[flags only contains 'f' flag]</text><rect fill="#FEFECE" filter="url(#feal8v8c6043w)" height="35.0938" rx="12.5" ry="12.5" style="stroke: #A80036; stroke-width: 1.5;" width="216" x="221" y="436.375"/><text fill="#000000" font-family="sans-serif" font-size="12" lengthAdjust="spacingAndGlyphs" textLength="196" x="231" y="458.832">Clear the return order book in Model</text><rect fill="#FEFECE" filter="url(#feal8v8c6043w)" height="50.1875" rx="12.5" ry="12.5" style="stroke: #A80036; stroke-width: 1.5;" width="166" x="457" y="436.375"/><text fill="#000000" font-family="sans-serif" font-size="12" lengthAdjust="spacingAndGlyphs" textLength="143" x="467" y="458.832">Clear both order book and</text><text fill="#000000" font-family="sans-serif" font-size="12" lengthAdjust="spacingAndGlyphs" textLength="143" x="470" y="473.9258">return order book in Model</text><polygon fill="#FEFECE" filter="url(#feal8v8c6043w)" points="434.5,492.5625,446.5,504.5625,434.5,516.5625,422.5,504.5625,434.5,492.5625" style="stroke: #A80036; stroke-width: 1.5;"/><polygon fill="#FEFECE" filter="url(#feal8v8c6043w)" points="267.5,522.5625,279.5,534.5625,267.5,546.5625,255.5,534.5625,267.5,522.5625" style="stroke: #A80036; stroke-width: 1.5;"/><rect fill="#FEFECE" filter="url(#feal8v8c6043w)" height="35.0938" rx="12.5" ry="12.5" style="stroke: #A80036; stroke-width: 1.5;" width="376" x="79.5" y="581.5625"/><text fill="#000000" font-family="sans-serif" font-size="12" lengthAdjust="spacingAndGlyphs" textLength="356" x="89.5" y="604.0195">Return back CommandResult with the success message to user</text><polygon fill="#FEFECE" filter="url(#feal8v8c6043w)" points="1051.25,368.375,1051.25,368.375,1063.25,380.375,1051.25,392.375,1051.25,392.375,1039.25,380.375,1051.25,368.375" style="stroke: #A80036; stroke-width: 1.5;"/><text fill="#000000" font-family="sans-serif" font-size="11" lengthAdjust="spacingAndGlyphs" textLength="139" x="900.25" y="377.958">[flags do not contains 'f' flag]</text><text fill="#000000" font-family="sans-serif" font-size="11" lengthAdjust="spacingAndGlyphs" textLength="90" x="1063.25" y="377.958">[flags equal to null]</text><polygon fill="#FEFECE" filter="url(#feal8v8c6043w)" points="885,402.375,885,402.375,897,414.375,885,426.375,885,426.375,873,414.375,885,402.375" style="stroke: #A80036; stroke-width: 1.5;"/><text fill="#000000" font-family="sans-serif" font-size="11" lengthAdjust="spacingAndGlyphs" textLength="112" x="761" y="411.958">[flags contains '-o' flag]</text><text fill="#000000" font-family="sans-serif" font-size="11" lengthAdjust="spacingAndGlyphs" textLength="106" x="897" y="411.958">[flags contains 'r' flag]</text><rect fill="#FEFECE" filter="url(#feal8v8c6043w)" height="65.2813" rx="12.5" ry="12.5" style="stroke: #A80036; stroke-width: 1.5;" width="189" x="683" y="436.375"/><text fill="#000000" font-family="sans-serif" font-size="12" lengthAdjust="spacingAndGlyphs" textLength="164" x="693" y="458.832">Return back CommandResult</text><text fill="#000000" font-family="sans-serif" font-size="12" lengthAdjust="spacingAndGlyphs" textLength="169" x="693" y="473.9258">with the confirmation message</text><text fill="#000000" font-family="sans-serif" font-size="12" lengthAdjust="spacingAndGlyphs" textLength="143" x="696" y="489.0195">to clear order book to user</text><rect fill="#FEFECE" filter="url(#feal8v8c6043w)" height="65.2813" rx="12.5" ry="12.5" style="stroke: #A80036; stroke-width: 1.5;" width="201" x="892" y="436.375"/><text fill="#000000" font-family="sans-serif" font-size="12" lengthAdjust="spacingAndGlyphs" textLength="164" x="902" y="458.832">Return back CommandResult</text><text fill="#000000" font-family="sans-serif" font-size="12" lengthAdjust="spacingAndGlyphs" textLength="169" x="902" y="473.9258">with the confirmation message</text><text fill="#000000" font-family="sans-serif" font-size="12" lengthAdjust="spacingAndGlyphs" textLength="178" x="905" y="489.0195">to clear return order book to user</text><polygon fill="#FEFECE" filter="url(#feal8v8c6043w)" points="885,507.6563,897,519.6563,885,531.6563,873,519.6563,885,507.6563" style="stroke: #A80036; stroke-width: 1.5;"/><rect fill="#FEFECE" filter="url(#feal8v8c6043w)" height="80.375" rx="12.5" ry="12.5" style="stroke: #A80036; stroke-width: 1.5;" width="189" x="1123" y="402.375"/><text fill="#000000" font-family="sans-serif" font-size="12" lengthAdjust="spacingAndGlyphs" textLength="164" x="1133" y="424.832">Return back CommandResult</text><text fill="#000000" font-family="sans-serif" font-size="12" lengthAdjust="spacingAndGlyphs" textLength="169" x="1133" y="439.9258">with the confirmation message</text><text fill="#000000" font-family="sans-serif" font-size="12" lengthAdjust="spacingAndGlyphs" textLength="129" x="1136" y="455.0195">to clear both order book</text><text fill="#000000" font-family="sans-serif" font-size="12" lengthAdjust="spacingAndGlyphs" textLength="159" x="1136" y="470.1133">and return order book to user</text><polygon fill="#FEFECE" filter="url(#feal8v8c6043w)" points="1051.25,537.6563,1063.25,549.6563,1051.25,561.6563,1039.25,549.6563,1051.25,537.6563" style="stroke: #A80036; stroke-width: 1.5;"/><rect fill="#FEFECE" filter="url(#feal8v8c6043w)" height="35.0938" rx="12.5" ry="12.5" style="stroke: #A80036; stroke-width: 1.5;" width="280" x="911.25" y="596.6563"/><text fill="#000000" font-family="sans-serif" font-size="12" lengthAdjust="spacingAndGlyphs" textLength="260" x="921.25" y="619.1133">Pop up appears with the confirmation message</text><rect fill="#FEFECE" filter="url(#feal8v8c6043w)" height="35.0938" rx="12.5" ry="12.5" style="stroke: #A80036; stroke-width: 1.5;" width="325" x="888.75" y="700.668"/><text fill="#000000" font-family="sans-serif" font-size="12" lengthAdjust="spacingAndGlyphs" textLength="305" x="898.75" y="723.125">Clear the respective order book based on the command</text><polygon fill="#FEFECE" filter="url(#feal8v8c6043w)" points="1051.25,651.75,1051.25,651.75,1063.25,663.75,1051.25,675.75,1051.25,675.75,1039.25,663.75,1051.25,651.75" style="stroke: #A80036; stroke-width: 1.5;"/><text fill="#000000" font-family="sans-serif" font-size="11" lengthAdjust="spacingAndGlyphs" textLength="114" x="1055.25" y="687.1689">[User press yes button]</text><text fill="#000000" font-family="sans-serif" font-size="11" lengthAdjust="spacingAndGlyphs" textLength="108" x="1063.25" y="661.333">[User press no button]</text><polygon fill="#FEFECE" filter="url(#feal8v8c6043w)" points="1051.25,755.7617,1063.25,767.7617,1051.25,779.7617,1039.25,767.7617,1051.25,755.7617" style="stroke: #A80036; stroke-width: 1.5;"/><polygon fill="#FEFECE" filter="url(#feal8v8c6043w)" points="659.375,785.7617,671.375,797.7617,659.375,809.7617,647.375,797.7617,659.375,785.7617" style="stroke: #A80036; stroke-width: 1.5;"/><ellipse cx="659.375" cy="840.7617" fill="#FFFFFF" filter="url(#feal8v8c6043w)" rx="11" ry="11" style="stroke: #000000; stroke-width: 1.0;"/><ellipse cx="659.375" cy="840.7617" fill="#000000" rx="6" ry="6" style="stroke: #7F7F7F; stroke-width: 1.0;"/><line style="stroke: #A80036; stroke-width: 1.5;" x1="659.375" x2="659.375" y1="30" y2="50"/><polygon fill="#A80036" points="655.375,40,659.375,50,663.375,40,659.375,44" style="stroke: #A80036; stroke-width: 1.0;"/><line style="stroke: #A80036; stroke-width: 1.5;" x1="647.375" x2="575.125" y1="117.0938" y2="117.0938"/><line style="stroke: #A80036; stroke-width: 1.5;" x1="575.125" x2="575.125" y1="117.0938" y2="139.0938"/><polygon fill="#A80036" points="571.125,129.0938,575.125,139.0938,579.125,129.0938,575.125,133.0938" style="stroke: #A80036; stroke-width: 1.0;"/><line style="stroke: #A80036; stroke-width: 1.5;" x1="671.375" x2="743.625" y1="117.0938" y2="117.0938"/><line style="stroke: #A80036; stroke-width: 1.5;" x1="743.625" x2="743.625" y1="117.0938" y2="139.0938"/><polygon fill="#A80036" points="739.625,129.0938,743.625,139.0938,747.625,129.0938,743.625,133.0938" style="stroke: #A80036; stroke-width: 1.0;"/><line style="stroke: #A80036; stroke-width: 1.5;" x1="575.125" x2="575.125" y1="174.1875" y2="192.1875"/><line style="stroke: #A80036; stroke-width: 1.5;" x1="575.125" x2="647.375" y1="192.1875" y2="192.1875"/><polygon fill="#A80036" points="637.375,188.1875,647.375,192.1875,637.375,196.1875,641.375,192.1875" style="stroke: #A80036; stroke-width: 1.0;"/><line style="stroke: #A80036; stroke-width: 1.5;" x1="743.625" x2="743.625" y1="174.1875" y2="192.1875"/><line style="stroke: #A80036; stroke-width: 1.5;" x1="743.625" x2="671.375" y1="192.1875" y2="192.1875"/><polygon fill="#A80036" points="681.375,188.1875,671.375,192.1875,681.375,196.1875,677.375,192.1875" style="stroke: #A80036; stroke-width: 1.0;"/><line style="stroke: #A80036; stroke-width: 1.5;" x1="659.375" x2="659.375" y1="85.0938" y2="105.0938"/><polygon fill="#A80036" points="655.375,95.0938,659.375,105.0938,663.375,95.0938,659.375,99.0938" style="stroke: #A80036; stroke-width: 1.0;"/><line style="stroke: #A80036; stroke-width: 1.5;" x1="659.375" x2="659.375" y1="204.1875" y2="224.1875"/><polygon fill="#A80036" points="655.375,214.1875,659.375,224.1875,663.375,214.1875,659.375,218.1875" style="stroke: #A80036; stroke-width: 1.0;"/><line style="stroke: #A80036; stroke-width: 1.5;" x1="659.375" x2="659.375" y1="259.2813" y2="279.2813"/><polygon fill="#A80036" points="655.375,269.2813,659.375,279.2813,663.375,269.2813,659.375,273.2813" style="stroke: #A80036; stroke-width: 1.0;"/><line style="stroke: #A80036; stroke-width: 1.5;" x1="422.5" x2="329" y1="414.375" y2="414.375"/><line style="stroke: #A80036; stroke-width: 1.5;" x1="329" x2="329" y1="414.375" y2="436.375"/><polygon fill="#A80036" points="325,426.375,329,436.375,333,426.375,329,430.375" style="stroke: #A80036; stroke-width: 1.0;"/><line style="stroke: #A80036; stroke-width: 1.5;" x1="446.5" x2="540" y1="414.375" y2="414.375"/><line style="stroke: #A80036; stroke-width: 1.5;" x1="540" x2="540" y1="414.375" y2="436.375"/><polygon fill="#A80036" points="536,426.375,540,436.375,544,426.375,540,430.375" style="stroke: #A80036; stroke-width: 1.0;"/><line style="stroke: #A80036; stroke-width: 1.5;" x1="329" x2="329" y1="471.4688" y2="504.5625"/><line style="stroke: #A80036; stroke-width: 1.5;" x1="329" x2="422.5" y1="504.5625" y2="504.5625"/><polygon fill="#A80036" points="412.5,500.5625,422.5,504.5625,412.5,508.5625,416.5,504.5625" style="stroke: #A80036; stroke-width: 1.0;"/><line style="stroke: #A80036; stroke-width: 1.5;" x1="540" x2="540" y1="486.5625" y2="504.5625"/><line style="stroke: #A80036; stroke-width: 1.5;" x1="540" x2="446.5" y1="504.5625" y2="504.5625"/><polygon fill="#A80036" points="456.5,500.5625,446.5,504.5625,456.5,508.5625,452.5,504.5625" style="stroke: #A80036; stroke-width: 1.0;"/><line style="stroke: #A80036; stroke-width: 1.5;" x1="255.5" x2="100.5" y1="380.375" y2="380.375"/><line style="stroke: #A80036; stroke-width: 1.5;" x1="100.5" x2="100.5" y1="380.375" y2="402.375"/><polygon fill="#A80036" points="96.5,392.375,100.5,402.375,104.5,392.375,100.5,396.375" style="stroke: #A80036; stroke-width: 1.0;"/><line style="stroke: #A80036; stroke-width: 1.5;" x1="279.5" x2="434.5" y1="380.375" y2="380.375"/><line style="stroke: #A80036; stroke-width: 1.5;" x1="434.5" x2="434.5" y1="380.375" y2="402.375"/><polygon fill="#A80036" points="430.5,392.375,434.5,402.375,438.5,392.375,434.5,396.375" style="stroke: #A80036; stroke-width: 1.0;"/><line style="stroke: #A80036; stroke-width: 1.5;" x1="100.5" x2="100.5" y1="437.4688" y2="534.5625"/><line style="stroke: #A80036; stroke-width: 1.5;" x1="100.5" x2="255.5" y1="534.5625" y2="534.5625"/><polygon fill="#A80036" points="245.5,530.5625,255.5,534.5625,245.5,538.5625,249.5,534.5625" style="stroke: #A80036; stroke-width: 1.0;"/><line style="stroke: #A80036; stroke-width: 1.5;" x1="434.5" x2="434.5" y1="516.5625" y2="534.5625"/><line style="stroke: #A80036; stroke-width: 1.5;" x1="434.5" x2="279.5" y1="534.5625" y2="534.5625"/><polygon fill="#A80036" points="289.5,530.5625,279.5,534.5625,289.5,538.5625,285.5,534.5625" style="stroke: #A80036; stroke-width: 1.0;"/><line style="stroke: #A80036; stroke-width: 1.5;" x1="267.5" x2="267.5" y1="546.5625" y2="581.5625"/><polygon fill="#A80036" points="263.5,571.5625,267.5,581.5625,271.5,571.5625,267.5,575.5625" style="stroke: #A80036; stroke-width: 1.0;"/><line style="stroke: #A80036; stroke-width: 1.5;" x1="873" x2="777.5" y1="414.375" y2="414.375"/><line style="stroke: #A80036; stroke-width: 1.5;" x1="777.5" x2="777.5" y1="414.375" y2="436.375"/><polygon fill="#A80036" points="773.5,426.375,777.5,436.375,781.5,426.375,777.5,430.375" style="stroke: #A80036; stroke-width: 1.0;"/><line style="stroke: #A80036; stroke-width: 1.5;" x1="897" x2="992.5" y1="414.375" y2="414.375"/><line style="stroke: #A80036; stroke-width: 1.5;" x1="992.5" x2="992.5" y1="414.375" y2="436.375"/><polygon fill="#A80036" points="988.5,426.375,992.5,436.375,996.5,426.375,992.5,430.375" style="stroke: #A80036; stroke-width: 1.0;"/><line style="stroke: #A80036; stroke-width: 1.5;" x1="777.5" x2="777.5" y1="501.6563" y2="519.6563"/><line style="stroke: #A80036; stroke-width: 1.5;" x1="777.5" x2="873" y1="519.6563" y2="519.6563"/><polygon fill="#A80036" points="863,515.6563,873,519.6563,863,523.6563,867,519.6563" style="stroke: #A80036; stroke-width: 1.0;"/><line style="stroke: #A80036; stroke-width: 1.5;" x1="992.5" x2="992.5" y1="501.6563" y2="519.6563"/><line style="stroke: #A80036; stroke-width: 1.5;" x1="992.5" x2="897" y1="519.6563" y2="519.6563"/><polygon fill="#A80036" points="907,515.6563,897,519.6563,907,523.6563,903,519.6563" style="stroke: #A80036; stroke-width: 1.0;"/><line style="stroke: #A80036; stroke-width: 1.5;" x1="1039.25" x2="885" y1="380.375" y2="380.375"/><line style="stroke: #A80036; stroke-width: 1.5;" x1="885" x2="885" y1="380.375" y2="402.375"/><polygon fill="#A80036" points="881,392.375,885,402.375,889,392.375,885,396.375" style="stroke: #A80036; stroke-width: 1.0;"/><line style="stroke: #A80036; stroke-width: 1.5;" x1="1063.25" x2="1217.5" y1="380.375" y2="380.375"/><line style="stroke: #A80036; stroke-width: 1.5;" x1="1217.5" x2="1217.5" y1="380.375" y2="402.375"/><polygon fill="#A80036" points="1213.5,392.375,1217.5,402.375,1221.5,392.375,1217.5,396.375" style="stroke: #A80036; stroke-width: 1.0;"/><line style="stroke: #A80036; stroke-width: 1.5;" x1="885" x2="885" y1="531.6563" y2="549.6563"/><line style="stroke: #A80036; stroke-width: 1.5;" x1="885" x2="1039.25" y1="549.6563" y2="549.6563"/><polygon fill="#A80036" points="1029.25,545.6563,1039.25,549.6563,1029.25,553.6563,1033.25,549.6563" style="stroke: #A80036; stroke-width: 1.0;"/><line style="stroke: #A80036; stroke-width: 1.5;" x1="1217.5" x2="1217.5" y1="482.75" y2="549.6563"/><line style="stroke: #A80036; stroke-width: 1.5;" x1="1217.5" x2="1063.25" y1="549.6563" y2="549.6563"/><polygon fill="#A80036" points="1073.25,545.6563,1063.25,549.6563,1073.25,553.6563,1069.25,549.6563" style="stroke: #A80036; stroke-width: 1.0;"/><line style="stroke: #A80036; stroke-width: 1.5;" x1="1051.25" x2="1051.25" y1="561.6563" y2="596.6563"/><polygon fill="#A80036" points="1047.25,586.6563,1051.25,596.6563,1055.25,586.6563,1051.25,590.6563" style="stroke: #A80036; stroke-width: 1.0;"/><line style="stroke: #A80036; stroke-width: 1.5;" x1="1051.25" x2="1051.25" y1="675.75" y2="700.668"/><polygon fill="#A80036" points="1047.25,690.668,1051.25,700.668,1055.25,690.668,1051.25,694.668" style="stroke: #A80036; stroke-width: 1.0;"/><line style="stroke: #A80036; stroke-width: 1.5;" x1="1063.25" x2="1223.75" y1="663.75" y2="663.75"/><polygon fill="#A80036" points="1219.75,708.2148,1223.75,718.2148,1227.75,708.2148,1223.75,712.2148" style="stroke: #A80036; stroke-width: 1.5;"/><line style="stroke: #A80036; stroke-width: 1.5;" x1="1223.75" x2="1223.75" y1="663.75" y2="767.7617"/><line style="stroke: #A80036; stroke-width: 1.5;" x1="1223.75" x2="1063.25" y1="767.7617" y2="767.7617"/><polygon fill="#A80036" points="1073.25,763.7617,1063.25,767.7617,1073.25,771.7617,1069.25,767.7617" style="stroke: #A80036; stroke-width: 1.0;"/><line style="stroke: #A80036; stroke-width: 1.5;" x1="1051.25" x2="1051.25" y1="735.7617" y2="755.7617"/><polygon fill="#A80036" points="1047.25,745.7617,1051.25,755.7617,1055.25,745.7617,1051.25,749.7617" style="stroke: #A80036; stroke-width: 1.0;"/><line style="stroke: #A80036; stroke-width: 1.5;" x1="1051.25" x2="1051.25" y1="631.75" y2="651.75"/><polygon fill="#A80036" points="1047.25,641.75,1051.25,651.75,1055.25,641.75,1051.25,645.75" style="stroke: #A80036; stroke-width: 1.0;"/><line style="stroke: #A80036; stroke-width: 1.5;" x1="647.375" x2="267.5" y1="346.375" y2="346.375"/><line style="stroke: #A80036; stroke-width: 1.5;" x1="267.5" x2="267.5" y1="346.375" y2="368.375"/><polygon fill="#A80036" points="263.5,358.375,267.5,368.375,271.5,358.375,267.5,362.375" style="stroke: #A80036; stroke-width: 1.0;"/><line style="stroke: #A80036; stroke-width: 1.5;" x1="671.375" x2="1051.25" y1="346.375" y2="346.375"/><line style="stroke: #A80036; stroke-width: 1.5;" x1="1051.25" x2="1051.25" y1="346.375" y2="368.375"/><polygon fill="#A80036" points="1047.25,358.375,1051.25,368.375,1055.25,358.375,1051.25,362.375" style="stroke: #A80036; stroke-width: 1.0;"/><line style="stroke: #A80036; stroke-width: 1.5;" x1="267.5" x2="267.5" y1="616.6563" y2="797.7617"/><line style="stroke: #A80036; stroke-width: 1.5;" x1="267.5" x2="647.375" y1="797.7617" y2="797.7617"/><polygon fill="#A80036" points="637.375,793.7617,647.375,797.7617,637.375,801.7617,641.375,797.7617" style="stroke: #A80036; stroke-width: 1.0;"/><line style="stroke: #A80036; stroke-width: 1.5;" x1="1051.25" x2="1051.25" y1="779.7617" y2="797.7617"/><line style="stroke: #A80036; stroke-width: 1.5;" x1="1051.25" x2="671.375" y1="797.7617" y2="797.7617"/><polygon fill="#A80036" points="681.375,793.7617,671.375,797.7617,681.375,801.7617,677.375,797.7617" style="stroke: #A80036; stroke-width: 1.0;"/><line style="stroke: #A80036; stroke-width: 1.5;" x1="659.375" x2="659.375" y1="314.375" y2="334.375"/><polygon fill="#A80036" points="655.375,324.375,659.375,334.375,663.375,324.375,659.375,328.375" style="stroke: #A80036; stroke-width: 1.0;"/><line style="stroke: #A80036; stroke-width: 1.5;" x1="659.375" x2="659.375" y1="809.7617" y2="829.7617"/><polygon fill="#A80036" points="655.375,819.7617,659.375,829.7617,663.375,819.7617,659.375,823.7617" style="stroke: #A80036; stroke-width: 1.0;"/><!--MD5=[fef16d0ac86f53e5677f11d5429e07c7]
@startuml

start
:User enter clear command;
if () then ([Arguments are empty])
    :set Flags as null;
else ([else])
    :Retrieve flags from arguments;
endif
:Create a new Clear Command based on flags;
:Logic Manager executes the command;

if () then (([flags contains '-f' flag])
    if () then ([flags also contains '-o' flag])
    :Clear the order book in Model;
    else ([else])
        if() then ([flags also contain '-r' flag])
        :Clear the return order book in Model;
        else ([flags only contains 'f' flag])
        :Clear both order book and
         return order book in Model;
        endif
    endif
    :Return back CommandResult with the success message to user;

else ([else])
    if() then([flags do not contains 'f' flag])
        if () then ([flags contains '-o' flag])
            :Return back CommandResult
            with the confirmation message
             to clear order book to user;
        else ([flags contains 'r' flag])
            :Return back CommandResult
            with the confirmation message
             to clear return order book to user;
        endif
    else ([flags equal to null])
    :Return back CommandResult
    with the confirmation message
     to clear both order book
     and return order book to user;
    endif
    :Pop up appears with the confirmation message;
    if () then ([User press yes button])
        :Clear the respective order book based on the command;
    else ([User press no button])
    endif
endif
stop
@enduml

PlantUML version 1.2019.11(Sun Sep 22 18:02:15 SGT 2019)
(GPL source distribution)
Java Runtime: OpenJDK Runtime Environment
JVM: OpenJDK 64-Bit Server VM
Java Version: 11.0.5+10-b520.30
Operating System: Windows 10
Default Encoding: UTF-8
Language: en
Country: US
--></g></svg>
