<?xml version="1.0" encoding="UTF-8" standalone="no"?><svg xmlns="http://www.w3.org/2000/svg" xmlns:xlink="http://www.w3.org/1999/xlink" contentScriptType="application/ecmascript" contentStyleType="text/css" height="757px" preserveAspectRatio="none" style="width:949px;height:757px;" version="1.1" viewBox="0 0 949 757" width="949px" zoomAndPan="magnify"><defs/><g><rect fill="#C8C8FA" height="735.3203" style="stroke: #A80036; stroke-width: 1.0;" width="767.5" x="77" y="4"/><text fill="#FFFFFF" font-family="sans-serif" font-size="15" font-weight="bold" lengthAdjust="spacingAndGlyphs" textLength="39" x="439.25" y="19.5713">Logic</text><rect fill="#F97181" height="735.3203" style="stroke: #A80036; stroke-width: 1.0;" width="92" x="846.5" y="4"/><text fill="#FFFFFF" font-family="sans-serif" font-size="15" font-weight="bold" lengthAdjust="spacingAndGlyphs" textLength="44" x="868.5" y="19.5713">Model</text><rect fill="#FFFFFF" height="635.4922" style="stroke: #A80036; stroke-width: 1.0;" width="10" x="140" y="91.8281"/><rect fill="#FFFFFF" height="527.0859" style="stroke: #A80036; stroke-width: 1.0;" width="10" x="332" y="122.1797"/><rect fill="#FFFFFF" height="32.6094" style="stroke: #A80036; stroke-width: 1.0;" width="10" x="505.5" y="146.1797"/><rect fill="#FFFFFF" height="395.7734" style="stroke: #A80036; stroke-width: 1.0;" width="10" x="505.5" y="209.1406"/><rect fill="#FFFFFF" height="240.1094" style="stroke: #A80036; stroke-width: 1.0;" width="10" x="510.5" y="247.4922"/><rect fill="#FFFFFF" height="41.3516" style="stroke: #A80036; stroke-width: 1.0;" width="10" x="515.5" y="316.1953"/><rect fill="#FFFFFF" height="41.3516" style="stroke: #A80036; stroke-width: 1.0;" width="10" x="515.5" y="402.8984"/><rect fill="#FFFFFF" height="32.6094" style="stroke: #A80036; stroke-width: 1.0;" width="10" x="720" y="541.9531"/><rect fill="#3333C4" height="31.6094" style="stroke: #A80036; stroke-width: 1.5;" width="158" x="431.5" y="130.1797"/><text fill="#FFFFFF" font-family="sans-serif" font-size="14" lengthAdjust="spacingAndGlyphs" textLength="144" x="438.5" y="151.7129">:ClearCommandParser</text><rect fill="#FFFFFF" height="235.1094" style="stroke: #000000; stroke-width: 2.0;" width="307" x="411.5" y="267.4922"/><rect fill="#3333C4" height="31.6094" style="stroke: #A80036; stroke-width: 1.5;" width="211" x="619.5" y="509.6016"/><text fill="#FFFFFF" font-family="sans-serif" font-size="14" lengthAdjust="spacingAndGlyphs" textLength="197" x="626.5" y="531.1348">clearCommand:ClearCommand</text><line style="stroke: #A80036; stroke-width: 1.0; stroke-dasharray: 5.0,5.0;" x1="145" x2="145" y1="59.4766" y2="745.3203"/><line style="stroke: #A80036; stroke-width: 1.0; stroke-dasharray: 5.0,5.0;" x1="336.5" x2="336.5" y1="59.4766" y2="745.3203"/><line style="stroke: #A80036; stroke-width: 1.0; stroke-dasharray: 5.0,5.0;" x1="510.5" x2="510.5" y1="161.4844" y2="745.3203"/><line style="stroke: #A80036; stroke-width: 1.0; stroke-dasharray: 5.0,5.0;" x1="724.5" x2="724.5" y1="540.9063" y2="745.3203"/><line style="stroke: #A80036; stroke-width: 1.0; stroke-dasharray: 5.0,5.0;" x1="892.5" x2="892.5" y1="59.4766" y2="745.3203"/><rect fill="#3333C4" height="31.6094" style="stroke: #A80036; stroke-width: 1.5;" width="108" x="91" y="26.8672"/><text fill="#FFFFFF" font-family="sans-serif" font-size="14" lengthAdjust="spacingAndGlyphs" textLength="94" x="98" y="48.4004">:LogicManager</text><rect fill="#3333C4" height="31.6094" style="stroke: #A80036; stroke-width: 1.5;" width="129" x="272.5" y="26.8672"/><text fill="#FFFFFF" font-family="sans-serif" font-size="14" lengthAdjust="spacingAndGlyphs" textLength="115" x="279.5" y="48.4004">:OrderBookParser</text><rect fill="#9D0012" height="31.6094" style="stroke: #A80036; stroke-width: 1.5;" width="64" x="860.5" y="26.8672"/><text fill="#FFFFFF" font-family="sans-serif" font-size="14" lengthAdjust="spacingAndGlyphs" textLength="42" x="871.5" y="48.4004">:Model</text><rect fill="#FFFFFF" height="635.4922" style="stroke: #A80036; stroke-width: 1.0;" width="10" x="140" y="91.8281"/><rect fill="#FFFFFF" height="527.0859" style="stroke: #A80036; stroke-width: 1.0;" width="10" x="332" y="122.1797"/><rect fill="#FFFFFF" height="32.6094" style="stroke: #A80036; stroke-width: 1.0;" width="10" x="505.5" y="146.1797"/><rect fill="#FFFFFF" height="395.7734" style="stroke: #A80036; stroke-width: 1.0;" width="10" x="505.5" y="209.1406"/><rect fill="#FFFFFF" height="240.1094" style="stroke: #A80036; stroke-width: 1.0;" width="10" x="510.5" y="247.4922"/><rect fill="#FFFFFF" height="41.3516" style="stroke: #A80036; stroke-width: 1.0;" width="10" x="515.5" y="316.1953"/><rect fill="#FFFFFF" height="41.3516" style="stroke: #A80036; stroke-width: 1.0;" width="10" x="515.5" y="402.8984"/><rect fill="#FFFFFF" height="32.6094" style="stroke: #A80036; stroke-width: 1.0;" width="10" x="720" y="541.9531"/><polygon fill="#A80036" points="128,87.8281,138,91.8281,128,95.8281,132,91.8281" style="stroke: #A80036; stroke-width: 1.0;"/><line style="stroke: #A80036; stroke-width: 1.0;" x1="3" x2="134" y1="91.8281" y2="91.8281"/><text fill="#000000" font-family="sans-serif" font-size="13" lengthAdjust="spacingAndGlyphs" textLength="118" x="12.5" y="86.9717">execute("clear -o -f")</text><polygon fill="#A80036" points="320,118.1797,330,122.1797,320,126.1797,324,122.1797" style="stroke: #A80036; stroke-width: 1.0;"/><line style="stroke: #A80036; stroke-width: 1.0;" x1="150" x2="326" y1="122.1797" y2="122.1797"/><text fill="#000000" font-family="sans-serif" font-size="13" lengthAdjust="spacingAndGlyphs" textLength="163" x="159.5" y="117.3232">parseCommand("clear -o -f")</text><polygon fill="#A80036" points="419.5,132.1797,429.5,136.1797,419.5,140.1797,423.5,136.1797" style="stroke: #A80036; stroke-width: 1.0;"/><line style="stroke: #A80036; stroke-width: 1.0;" x1="342" x2="425.5" y1="136.1797" y2="136.1797"/><rect fill="#3333C4" height="31.6094" style="stroke: #A80036; stroke-width: 1.5;" width="158" x="431.5" y="130.1797"/><text fill="#FFFFFF" font-family="sans-serif" font-size="14" lengthAdjust="spacingAndGlyphs" textLength="144" x="438.5" y="151.7129">:ClearCommandParser</text><polygon fill="#A80036" points="353,174.7891,343,178.7891,353,182.7891,349,178.7891" style="stroke: #A80036; stroke-width: 1.0;"/><line style="stroke: #A80036; stroke-width: 1.0; stroke-dasharray: 2.0,2.0;" x1="347" x2="509.5" y1="178.7891" y2="178.7891"/><polygon fill="#A80036" points="493.5,205.1406,503.5,209.1406,493.5,213.1406,497.5,209.1406" style="stroke: #A80036; stroke-width: 1.0;"/><line style="stroke: #A80036; stroke-width: 1.0;" x1="342" x2="499.5" y1="209.1406" y2="209.1406"/><text fill="#000000" font-family="sans-serif" font-size="13" lengthAdjust="spacingAndGlyphs" textLength="72" x="387.75" y="204.2842">parse("-o -f")</text><line style="stroke: #A80036; stroke-width: 1.0;" x1="515.5" x2="562.5" y1="234.4922" y2="234.4922"/><line style="stroke: #A80036; stroke-width: 1.0;" x1="562.5" x2="562.5" y1="234.4922" y2="247.4922"/><line style="stroke: #A80036; stroke-width: 1.0;" x1="521.5" x2="562.5" y1="247.4922" y2="247.4922"/><polygon fill="#A80036" points="531.5,243.4922,521.5,247.4922,531.5,251.4922,527.5,247.4922" style="stroke: #A80036; stroke-width: 1.0;"/><text fill="#000000" font-family="sans-serif" font-size="13" lengthAdjust="spacingAndGlyphs" textLength="106" x="527.5" y="229.6357">retrieveFlags(args)</text><path d="M411.5,267.4922 L484.5,267.4922 L484.5,275.4922 L474.5,285.4922 L411.5,285.4922 L411.5,267.4922 " fill="#EEEEEE" style="stroke: #000000; stroke-width: 1.0;"/><rect fill="none" height="235.1094" style="stroke: #000000; stroke-width: 2.0;" width="307" x="411.5" y="267.4922"/><text fill="#000000" font-family="sans-serif" font-size="13" font-weight="bold" lengthAdjust="spacingAndGlyphs" textLength="28" x="426.5" y="281.9873">loop</text><text fill="#000000" font-family="sans-serif" font-size="11" font-weight="bold" lengthAdjust="spacingAndGlyphs" textLength="113" x="499.5" y="280.9111">[until no flag in args]</text><line style="stroke: #A80036; stroke-width: 1.0;" x1="520.5" x2="567.5" y1="303.1953" y2="303.1953"/><line style="stroke: #A80036; stroke-width: 1.0;" x1="567.5" x2="567.5" y1="303.1953" y2="316.1953"/><line style="stroke: #A80036; stroke-width: 1.0;" x1="526.5" x2="567.5" y1="316.1953" y2="316.1953"/><polygon fill="#A80036" points="536.5,312.1953,526.5,316.1953,536.5,320.1953,532.5,316.1953" style="stroke: #A80036; stroke-width: 1.0;"/><text fill="#000000" font-family="sans-serif" font-size="13" lengthAdjust="spacingAndGlyphs" textLength="92" x="532.5" y="298.3389">isValidFlag(flag)</text><line style="stroke: #A80036; stroke-width: 1.0; stroke-dasharray: 2.0,2.0;" x1="525.5" x2="567.5" y1="356.5469" y2="356.5469"/><line style="stroke: #A80036; stroke-width: 1.0; stroke-dasharray: 2.0,2.0;" x1="567.5" x2="567.5" y1="356.5469" y2="369.5469"/><line style="stroke: #A80036; stroke-width: 1.0; stroke-dasharray: 2.0,2.0;" x1="520.5" x2="567.5" y1="369.5469" y2="369.5469"/><polygon fill="#A80036" points="530.5,365.5469,520.5,369.5469,530.5,373.5469,526.5,369.5469" style="stroke: #A80036; stroke-width: 1.0;"/><text fill="#000000" font-family="sans-serif" font-size="13" lengthAdjust="spacingAndGlyphs" textLength="22" x="532.5" y="351.6904">true</text><line style="stroke: #A80036; stroke-width: 1.0;" x1="520.5" x2="567.5" y1="389.8984" y2="389.8984"/><line style="stroke: #A80036; stroke-width: 1.0;" x1="567.5" x2="567.5" y1="389.8984" y2="402.8984"/><line style="stroke: #A80036; stroke-width: 1.0;" x1="526.5" x2="567.5" y1="402.8984" y2="402.8984"/><polygon fill="#A80036" points="536.5,398.8984,526.5,402.8984,536.5,406.8984,532.5,402.8984" style="stroke: #A80036; stroke-width: 1.0;"/><text fill="#000000" font-family="sans-serif" font-size="13" lengthAdjust="spacingAndGlyphs" textLength="174" x="532.5" y="385.042">isInvalidFlagFormat(flag, flags)</text><line style="stroke: #A80036; stroke-width: 1.0; stroke-dasharray: 2.0,2.0;" x1="525.5" x2="567.5" y1="443.25" y2="443.25"/><line style="stroke: #A80036; stroke-width: 1.0; stroke-dasharray: 2.0,2.0;" x1="567.5" x2="567.5" y1="443.25" y2="456.25"/><line style="stroke: #A80036; stroke-width: 1.0; stroke-dasharray: 2.0,2.0;" x1="520.5" x2="567.5" y1="456.25" y2="456.25"/><polygon fill="#A80036" points="530.5,452.25,520.5,456.25,530.5,460.25,526.5,456.25" style="stroke: #A80036; stroke-width: 1.0;"/><text fill="#000000" font-family="sans-serif" font-size="13" lengthAdjust="spacingAndGlyphs" textLength="27" x="532.5" y="438.3936">false</text><line style="stroke: #A80036; stroke-width: 1.0; stroke-dasharray: 2.0,2.0;" x1="520.5" x2="562.5" y1="486.6016" y2="486.6016"/><line style="stroke: #A80036; stroke-width: 1.0; stroke-dasharray: 2.0,2.0;" x1="562.5" x2="562.5" y1="486.6016" y2="499.6016"/><line style="stroke: #A80036; stroke-width: 1.0; stroke-dasharray: 2.0,2.0;" x1="515.5" x2="562.5" y1="499.6016" y2="499.6016"/><polygon fill="#A80036" points="525.5,495.6016,515.5,499.6016,525.5,503.6016,521.5,499.6016" style="stroke: #A80036; stroke-width: 1.0;"/><text fill="#000000" font-family="sans-serif" font-size="13" lengthAdjust="spacingAndGlyphs" textLength="27" x="527.5" y="481.7451">flags</text><polygon fill="#A80036" points="607.5,527.9531,617.5,531.9531,607.5,535.9531,611.5,531.9531" style="stroke: #A80036; stroke-width: 1.0;"/><line style="stroke: #A80036; stroke-width: 1.0;" x1="515.5" x2="613.5" y1="531.9531" y2="531.9531"/><text fill="#000000" font-family="sans-serif" font-size="13" lengthAdjust="spacingAndGlyphs" textLength="27" x="554" y="527.0967">flags</text><rect fill="#3333C4" height="31.6094" style="stroke: #A80036; stroke-width: 1.5;" width="211" x="619.5" y="509.6016"/><text fill="#FFFFFF" font-family="sans-serif" font-size="14" lengthAdjust="spacingAndGlyphs" textLength="197" x="626.5" y="531.1348">clearCommand:ClearCommand</text><polygon fill="#A80036" points="526.5,570.5625,516.5,574.5625,526.5,578.5625,522.5,574.5625" style="stroke: #A80036; stroke-width: 1.0;"/><line style="stroke: #A80036; stroke-width: 1.0; stroke-dasharray: 2.0,2.0;" x1="520.5" x2="724" y1="574.5625" y2="574.5625"/><text fill="#000000" font-family="sans-serif" font-size="13" lengthAdjust="spacingAndGlyphs" textLength="87" x="576.75" y="569.7061">clearCommand</text><polygon fill="#A80036" points="353,600.9141,343,604.9141,353,608.9141,349,604.9141" style="stroke: #A80036; stroke-width: 1.0;"/><line style="stroke: #A80036; stroke-width: 1.0; stroke-dasharray: 2.0,2.0;" x1="347" x2="509.5" y1="604.9141" y2="604.9141"/><text fill="#000000" font-family="sans-serif" font-size="13" lengthAdjust="spacingAndGlyphs" textLength="87" x="382.75" y="600.0576">clearCommand</text><line style="stroke: #A80036; stroke-width: 2.0;" x1="501.5" x2="519.5" y1="609.9141" y2="627.9141"/><line style="stroke: #A80036; stroke-width: 2.0;" x1="501.5" x2="519.5" y1="627.9141" y2="609.9141"/><polygon fill="#A80036" points="161,645.2656,151,649.2656,161,653.2656,157,649.2656" style="stroke: #A80036; stroke-width: 1.0;"/><line style="stroke: #A80036; stroke-width: 1.0; stroke-dasharray: 2.0,2.0;" x1="155" x2="336" y1="649.2656" y2="649.2656"/><text fill="#000000" font-family="sans-serif" font-size="13" lengthAdjust="spacingAndGlyphs" textLength="87" x="200" y="644.4092">clearCommand</text><rect fill="#FFFFFF" height="42.7031" style="stroke: #000000; stroke-width: 2.0;" width="859.5" x="78" y="657.2656"/><polygon fill="#EEEEEE" points="78,657.2656,140,657.2656,140,665.2656,130,675.2656,78,675.2656,78,657.2656" style="stroke: #000000; stroke-width: 2.0;"/><text fill="#000000" font-family="sans-serif" font-size="13" font-weight="bold" lengthAdjust="spacingAndGlyphs" textLength="17" x="91" y="672.7607">ref</text><text fill="#000000" font-family="sans-serif" font-size="13" lengthAdjust="spacingAndGlyphs" textLength="305" x="355.25" y="692.7607">Execution of the Clear Command Sequence Diagram</text><polygon fill="#A80036" points="14,723.3203,4,727.3203,14,731.3203,10,727.3203" style="stroke: #A80036; stroke-width: 1.0;"/><line style="stroke: #A80036; stroke-width: 1.0; stroke-dasharray: 2.0,2.0;" x1="8" x2="144" y1="727.3203" y2="727.3203"/><text fill="#000000" font-family="sans-serif" font-size="13" lengthAdjust="spacingAndGlyphs" textLength="32" x="58" y="722.4639">result</text><!--MD5=[488787a37b11b8b46c70eea4b54e122b]
@startuml








skinparam BackgroundColor #FFFFFFF

skinparam Shadowing false

skinparam Class {
    FontColor #FFFFFF
    BorderThickness 1
    BorderColor #FFFFFF
    StereotypeFontColor #FFFFFF
    FontName Arial
}

skinparam Actor {
    BorderColor #000000
    Color #000000
    FontName Arial
}

skinparam Sequence {
    MessageAlign center
    BoxFontSize 15
    BoxPadding 0
    BoxFontColor #FFFFFF
    FontName Arial
}

skinparam Participant {
    FontColor #FFFFFFF
    Padding 20
}

skinparam MinClassWidth 50
skinparam ParticipantPadding 10
skinparam Shadowing false
skinparam DefaultTextAlignment center
skinparam packageStyle Rectangle

hide footbox
hide members
hide circle
box Logic #C8C8FA
participant ":LogicManager" as LogicManager #3333C4
participant ":OrderBookParser" as OrderBookParser #3333C4
participant ":ClearCommandParser" as ClearCommandParser #3333C4
participant "clearCommand:ClearCommand" as ClearCommand #3333C4
end box

box Model #F97181
participant ":Model" as Model #9D0012
end box

[-> LogicManager : execute("clear -o -f")
activate LogicManager

LogicManager -> OrderBookParser : parseCommand("clear -o -f")
activate OrderBookParser

create ClearCommandParser
OrderBookParser -> ClearCommandParser ++

ClearCommandParser - -> OrderBookParser - -

OrderBookParser -> ClearCommandParser ++ : parse("-o -f")

ClearCommandParser -> ClearCommandParser ++ : retrieveFlags(args)
loop until no flag in args

    ClearCommandParser -> ClearCommandParser ++ : isValidFlag(flag)
    ClearCommandParser - -> ClearCommandParser - - : true

    ClearCommandParser -> ClearCommandParser ++ : isInvalidFlagFormat(flag, flags)
    ClearCommandParser - -> ClearCommandParser - - : false

    ClearCommandParser - -> ClearCommandParser - - : flags
end

create ClearCommand
ClearCommandParser -> ClearCommand ++ : flags

ClearCommand - -> ClearCommandParser - - : clearCommand

ClearCommandParser - -> OrderBookParser - - : clearCommand
ClearCommandParser -[hidden]-> OrderBookParser
destroy ClearCommandParser

OrderBookParser - -> LogicManager - - : clearCommand

ref over LogicManager,  Model : Execution of the Clear Command Sequence Diagram


[<- -LogicManager : result
deactivate LogicManager
@enduml

PlantUML version 1.2019.11(Sun Sep 22 18:02:15 SGT 2019)
(GPL source distribution)
Java Runtime: OpenJDK Runtime Environment
JVM: OpenJDK 64-Bit Server VM
Java Version: 11.0.5+10-b520.30
Operating System: Windows 10
Default Encoding: UTF-8
Language: en
Country: US
--></g></svg>
