<?xml version="1.0" encoding="UTF-8" standalone="no"?><svg xmlns="http://www.w3.org/2000/svg" xmlns:xlink="http://www.w3.org/1999/xlink" contentScriptType="application/ecmascript" contentStyleType="text/css" height="361px" preserveAspectRatio="none" style="width:299px;height:361px;" version="1.1" viewBox="0 0 299 361" width="299px" zoomAndPan="magnify"><defs><filter height="300%" id="fbfxsi6mq3u4u" width="300%" x="-1" y="-1"><feGaussianBlur result="blurOut" stdDeviation="2.0"/><feColorMatrix in="blurOut" result="blurOut2" type="matrix" values="0 0 0 0 0 0 0 0 0 0 0 0 0 0 0 0 0 0 .4 0"/><feOffset dx="4.0" dy="4.0" in="blurOut2" result="blurOut3"/><feBlend in="SourceGraphic" in2="blurOut3" mode="normal"/></filter></defs><g><ellipse cx="97.5" cy="20" fill="#000000" filter="url(#fbfxsi6mq3u4u)" rx="10" ry="10" style="stroke: none; stroke-width: 1.0;"/><rect fill="#FEFECE" filter="url(#fbfxsi6mq3u4u)" height="33.9688" rx="12.5" ry="12.5" style="stroke: #A80036; stroke-width: 1.5;" width="175" x="10" y="50"/><text fill="#000000" font-family="sans-serif" font-size="12" lengthAdjust="spacingAndGlyphs" textLength="155" x="20" y="71.1387">User executes command</text><rect fill="#FEFECE" filter="url(#fbfxsi6mq3u4u)" height="33.9688" rx="12.5" ry="12.5" style="stroke: #A80036; stroke-width: 1.5;" width="163" x="16" y="152.3711"/><text fill="#000000" font-family="sans-serif" font-size="12" lengthAdjust="spacingAndGlyphs" textLength="143" x="26" y="173.5098">Purge redunant states</text><rect fill="#FEFECE" filter="url(#fbfxsi6mq3u4u)" height="47.9375" rx="12.5" ry="12.5" style="stroke: #A80036; stroke-width: 1.5;" width="145" x="25" y="216.8555"/><text fill="#000000" font-family="sans-serif" font-size="12" lengthAdjust="spacingAndGlyphs" textLength="124" x="35" y="237.9941">Save RecipeBook to</text><text fill="#000000" font-family="sans-serif" font-size="12" lengthAdjust="spacingAndGlyphs" textLength="125" x="35" y="251.9629">recipeBookStateList</text><polygon fill="#FEFECE" filter="url(#fbfxsi6mq3u4u)" points="97.5,103.9688,97.5,103.9688,109.5,115.9688,97.5,127.9688,97.5,127.9688,85.5,115.9688,97.5,103.9688" style="stroke: #A80036; stroke-width: 1.5;"/><text fill="#000000" font-family="sans-serif" font-size="11" lengthAdjust="spacingAndGlyphs" textLength="186" x="101.5" y="138.1792">[command commits RecipeBook]</text><text fill="#000000" font-family="sans-serif" font-size="11" lengthAdjust="spacingAndGlyphs" textLength="32" x="109.5" y="113.3745">[else]</text><polygon fill="#FEFECE" filter="url(#fbfxsi6mq3u4u)" points="97.5,284.793,109.5,296.793,97.5,308.793,85.5,296.793,97.5,284.793" style="stroke: #A80036; stroke-width: 1.5;"/><ellipse cx="97.5" cy="339.793" fill="#FFFFFF" filter="url(#fbfxsi6mq3u4u)" rx="11" ry="11" style="stroke: #000000; stroke-width: 1.0;"/><ellipse cx="97.5" cy="339.793" fill="#000000" rx="6" ry="6" style="stroke: #7F7F7F; stroke-width: 1.0;"/><line style="stroke: #A80036; stroke-width: 1.5;" x1="97.5" x2="97.5" y1="30" y2="50"/><polygon fill="#A80036" points="93.5,40,97.5,50,101.5,40,97.5,44" style="stroke: #A80036; stroke-width: 1.0;"/><line style="stroke: #A80036; stroke-width: 1.5;" x1="97.5" x2="97.5" y1="186.3398" y2="216.8555"/><polygon fill="#A80036" points="93.5,206.8555,97.5,216.8555,101.5,206.8555,97.5,210.8555" style="stroke: #A80036; stroke-width: 1.0;"/><line style="stroke: #A80036; stroke-width: 1.5;" x1="97.5" x2="97.5" y1="127.9688" y2="152.3711"/><polygon fill="#A80036" points="93.5,142.3711,97.5,152.3711,101.5,142.3711,97.5,146.3711" style="stroke: #A80036; stroke-width: 1.0;"/><line style="stroke: #A80036; stroke-width: 1.5;" x1="109.5" x2="189" y1="115.9688" y2="115.9688"/><polygon fill="#A80036" points="185,196.3398,189,206.3398,193,196.3398,189,200.3398" style="stroke: #A80036; stroke-width: 1.5;"/><line style="stroke: #A80036; stroke-width: 1.5;" x1="189" x2="189" y1="115.9688" y2="296.793"/><line style="stroke: #A80036; stroke-width: 1.5;" x1="189" x2="109.5" y1="296.793" y2="296.793"/><polygon fill="#A80036" points="119.5,292.793,109.5,296.793,119.5,300.793,115.5,296.793" style="stroke: #A80036; stroke-width: 1.0;"/><line style="stroke: #A80036; stroke-width: 1.5;" x1="97.5" x2="97.5" y1="264.793" y2="284.793"/><polygon fill="#A80036" points="93.5,274.793,97.5,284.793,101.5,274.793,97.5,278.793" style="stroke: #A80036; stroke-width: 1.0;"/><line style="stroke: #A80036; stroke-width: 1.5;" x1="97.5" x2="97.5" y1="83.9688" y2="103.9688"/><polygon fill="#A80036" points="93.5,93.9688,97.5,103.9688,101.5,93.9688,97.5,97.9688" style="stroke: #A80036; stroke-width: 1.0;"/><line style="stroke: #A80036; stroke-width: 1.5;" x1="97.5" x2="97.5" y1="308.793" y2="328.793"/><polygon fill="#A80036" points="93.5,318.793,97.5,328.793,101.5,318.793,97.5,322.793" style="stroke: #A80036; stroke-width: 1.0;"/><!--MD5=[5921a0fb8712d30129b8e68eeff74708]
@startuml
start
:User executes command;


if () then ([command commits RecipeBook])
    :Purge redunant states;
    :Save RecipeBook to
    recipeBookStateList;
else ([else])
endif
stop
@enduml

PlantUML version 1.2020.03beta11(Unknown compile time)
(GPL source distribution)
Java Runtime: Java(TM) SE Runtime Environment
JVM: Java HotSpot(TM) 64-Bit Server VM
Java Version: 1.7.0_25-b15
Operating System: Linux
Default Encoding: UTF-8
Language: en
Country: US
--></g></svg>
