<?xml version="1.0" encoding="UTF-8" standalone="no"?><svg xmlns="http://www.w3.org/2000/svg" xmlns:xlink="http://www.w3.org/1999/xlink" contentScriptType="application/ecmascript" contentStyleType="text/css" height="758px" preserveAspectRatio="none" style="width:1074px;height:758px;" version="1.1" viewBox="0 0 1074 758" width="1074px" zoomAndPan="magnify"><defs/><g><rect fill="#C8C8FA" height="736.5781" style="stroke: #A80036; stroke-width: 1.0;" width="885" x="84" y="4"/><text fill="#FFFFFF" font-family="sans-serif" font-size="15" font-weight="bold" lengthAdjust="spacingAndGlyphs" textLength="39" x="505" y="19.5713">Logic</text><rect fill="#F97181" height="736.5781" style="stroke: #A80036; stroke-width: 1.0;" width="92" x="971" y="4"/><text fill="#FFFFFF" font-family="sans-serif" font-size="15" font-weight="bold" lengthAdjust="spacingAndGlyphs" textLength="44" x="993" y="19.5713">Model</text><rect fill="#FFFFFF" height="636.75" style="stroke: #A80036; stroke-width: 1.0;" width="10" x="147" y="91.8281"/><rect fill="#FFFFFF" height="234.625" style="stroke: #A80036; stroke-width: 1.0;" width="10" x="346" y="122.1797"/><rect fill="#FFFFFF" height="32.6094" style="stroke: #A80036; stroke-width: 1.0;" width="10" x="508.5" y="146.1797"/><rect fill="#FFFFFF" height="103.3125" style="stroke: #A80036; stroke-width: 1.0;" width="10" x="508.5" y="209.1406"/><rect fill="#FFFFFF" height="48.9609" style="stroke: #A80036; stroke-width: 1.0;" width="10" x="686.5" y="233.1406"/><rect fill="#FFFFFF" height="311.0703" style="stroke: #A80036; stroke-width: 1.0;" width="10" x="686.5" y="387.1563"/><rect fill="#FFFFFF" height="235.3672" style="stroke: #A80036; stroke-width: 1.0;" width="10" x="691.5" y="425.5078"/><rect fill="#FFFFFF" height="48.9609" style="stroke: #A80036; stroke-width: 1.0;" width="10" x="871.5" y="575.5625"/><rect fill="#FFFFFF" height="30.3516" style="stroke: #A80036; stroke-width: 1.0;" width="10" x="1012" y="460.8594"/><rect fill="#FFFFFF" height="30" style="stroke: #A80036; stroke-width: 1.0;" width="10" x="1012" y="521.5625"/><line style="stroke: #A80036; stroke-width: 1.0; stroke-dasharray: 5.0,5.0;" x1="152" x2="152" y1="59.4766" y2="746.5781"/><line style="stroke: #A80036; stroke-width: 1.0; stroke-dasharray: 5.0,5.0;" x1="351" x2="351" y1="59.4766" y2="746.5781"/><line style="stroke: #A80036; stroke-width: 1.0; stroke-dasharray: 5.0,5.0;" x1="513" x2="513" y1="161.4844" y2="746.5781"/><line style="stroke: #A80036; stroke-width: 1.0; stroke-dasharray: 5.0,5.0;" x1="691" x2="691" y1="248.4453" y2="746.5781"/><line style="stroke: #A80036; stroke-width: 1.0; stroke-dasharray: 5.0,5.0;" x1="876" x2="876" y1="590.8672" y2="746.5781"/><line style="stroke: #A80036; stroke-width: 1.0; stroke-dasharray: 5.0,5.0;" x1="1017" x2="1017" y1="59.4766" y2="746.5781"/><rect fill="#3333C4" height="31.6094" style="stroke: #A80036; stroke-width: 1.5;" width="108" x="98" y="26.8672"/><text fill="#FFFFFF" font-family="sans-serif" font-size="14" lengthAdjust="spacingAndGlyphs" textLength="94" x="105" y="48.4004">:LogicManager</text><rect fill="#3333C4" height="31.6094" style="stroke: #A80036; stroke-width: 1.5;" width="100" x="301" y="26.8672"/><text fill="#FFFFFF" font-family="sans-serif" font-size="14" lengthAdjust="spacingAndGlyphs" textLength="86" x="308" y="48.4004">:DelinoParser</text><rect fill="#9D0012" height="31.6094" style="stroke: #A80036; stroke-width: 1.5;" width="64" x="985" y="26.8672"/><text fill="#FFFFFF" font-family="sans-serif" font-size="14" lengthAdjust="spacingAndGlyphs" textLength="42" x="996" y="48.4004">:Model</text><rect fill="#FFFFFF" height="636.75" style="stroke: #A80036; stroke-width: 1.0;" width="10" x="147" y="91.8281"/><rect fill="#FFFFFF" height="234.625" style="stroke: #A80036; stroke-width: 1.0;" width="10" x="346" y="122.1797"/><rect fill="#FFFFFF" height="32.6094" style="stroke: #A80036; stroke-width: 1.0;" width="10" x="508.5" y="146.1797"/><rect fill="#FFFFFF" height="103.3125" style="stroke: #A80036; stroke-width: 1.0;" width="10" x="508.5" y="209.1406"/><rect fill="#FFFFFF" height="48.9609" style="stroke: #A80036; stroke-width: 1.0;" width="10" x="686.5" y="233.1406"/><rect fill="#FFFFFF" height="311.0703" style="stroke: #A80036; stroke-width: 1.0;" width="10" x="686.5" y="387.1563"/><rect fill="#FFFFFF" height="235.3672" style="stroke: #A80036; stroke-width: 1.0;" width="10" x="691.5" y="425.5078"/><rect fill="#FFFFFF" height="48.9609" style="stroke: #A80036; stroke-width: 1.0;" width="10" x="871.5" y="575.5625"/><rect fill="#FFFFFF" height="30.3516" style="stroke: #A80036; stroke-width: 1.0;" width="10" x="1012" y="460.8594"/><rect fill="#FFFFFF" height="30" style="stroke: #A80036; stroke-width: 1.0;" width="10" x="1012" y="521.5625"/><polygon fill="#A80036" points="135,87.8281,145,91.8281,135,95.8281,139,91.8281" style="stroke: #A80036; stroke-width: 1.0;"/><line style="stroke: #A80036; stroke-width: 1.0;" x1="3" x2="141" y1="91.8281" y2="91.8281"/><text fill="#000000" font-family="sans-serif" font-size="13" lengthAdjust="spacingAndGlyphs" textLength="125" x="12.5" y="86.9717">execute("delete -o 1")</text><polygon fill="#A80036" points="334,118.1797,344,122.1797,334,126.1797,338,122.1797" style="stroke: #A80036; stroke-width: 1.0;"/><line style="stroke: #A80036; stroke-width: 1.0;" x1="157" x2="340" y1="122.1797" y2="122.1797"/><text fill="#000000" font-family="sans-serif" font-size="13" lengthAdjust="spacingAndGlyphs" textLength="170" x="166.5" y="117.3232">parseCommand("delete -o 1")</text><polygon fill="#A80036" points="419,132.1797,429,136.1797,419,140.1797,423,136.1797" style="stroke: #A80036; stroke-width: 1.0;"/><line style="stroke: #A80036; stroke-width: 1.0;" x1="356" x2="425" y1="136.1797" y2="136.1797"/><rect fill="#3333C4" height="31.6094" style="stroke: #A80036; stroke-width: 1.5;" width="165" x="431" y="130.1797"/><text fill="#FFFFFF" font-family="sans-serif" font-size="14" lengthAdjust="spacingAndGlyphs" textLength="151" x="438" y="151.7129">:DeleteCommandParser</text><polygon fill="#A80036" points="367,174.7891,357,178.7891,367,182.7891,363,178.7891" style="stroke: #A80036; stroke-width: 1.0;"/><line style="stroke: #A80036; stroke-width: 1.0; stroke-dasharray: 2.0,2.0;" x1="361" x2="512.5" y1="178.7891" y2="178.7891"/><polygon fill="#A80036" points="496.5,205.1406,506.5,209.1406,496.5,213.1406,500.5,209.1406" style="stroke: #A80036; stroke-width: 1.0;"/><line style="stroke: #A80036; stroke-width: 1.0;" x1="356" x2="502.5" y1="209.1406" y2="209.1406"/><text fill="#000000" font-family="sans-serif" font-size="13" lengthAdjust="spacingAndGlyphs" textLength="76" x="394.25" y="204.2842">parse(" -o 1")</text><polygon fill="#A80036" points="614,219.1406,624,223.1406,614,227.1406,618,223.1406" style="stroke: #A80036; stroke-width: 1.0;"/><line style="stroke: #A80036; stroke-width: 1.0;" x1="518.5" x2="620" y1="223.1406" y2="223.1406"/><rect fill="#3333C4" height="31.6094" style="stroke: #A80036; stroke-width: 1.5;" width="131" x="626" y="217.1406"/><text fill="#FFFFFF" font-family="sans-serif" font-size="14" lengthAdjust="spacingAndGlyphs" textLength="117" x="633" y="238.6738">d:DeleteCommand</text><polygon fill="#A80036" points="529.5,278.1016,519.5,282.1016,529.5,286.1016,525.5,282.1016" style="stroke: #A80036; stroke-width: 1.0;"/><line style="stroke: #A80036; stroke-width: 1.0; stroke-dasharray: 2.0,2.0;" x1="523.5" x2="690.5" y1="282.1016" y2="282.1016"/><text fill="#000000" font-family="sans-serif" font-size="13" lengthAdjust="spacingAndGlyphs" textLength="7" x="601.5" y="277.2451">d</text><polygon fill="#A80036" points="367,308.4531,357,312.4531,367,316.4531,363,312.4531" style="stroke: #A80036; stroke-width: 1.0;"/><line style="stroke: #A80036; stroke-width: 1.0; stroke-dasharray: 2.0,2.0;" x1="361" x2="512.5" y1="312.4531" y2="312.4531"/><text fill="#000000" font-family="sans-serif" font-size="13" lengthAdjust="spacingAndGlyphs" textLength="7" x="431.25" y="307.5967">d</text><line style="stroke: #A80036; stroke-width: 2.0;" x1="504.5" x2="522.5" y1="317.4531" y2="335.4531"/><line style="stroke: #A80036; stroke-width: 2.0;" x1="504.5" x2="522.5" y1="335.4531" y2="317.4531"/><polygon fill="#A80036" points="168,352.8047,158,356.8047,168,360.8047,164,356.8047" style="stroke: #A80036; stroke-width: 1.0;"/><line style="stroke: #A80036; stroke-width: 1.0; stroke-dasharray: 2.0,2.0;" x1="162" x2="350" y1="356.8047" y2="356.8047"/><text fill="#000000" font-family="sans-serif" font-size="13" lengthAdjust="spacingAndGlyphs" textLength="7" x="250.5" y="351.9482">d</text><polygon fill="#A80036" points="674.5,383.1563,684.5,387.1563,674.5,391.1563,678.5,387.1563" style="stroke: #A80036; stroke-width: 1.0;"/><line style="stroke: #A80036; stroke-width: 1.0;" x1="157" x2="680.5" y1="387.1563" y2="387.1563"/><text fill="#000000" font-family="sans-serif" font-size="13" lengthAdjust="spacingAndGlyphs" textLength="89" x="377.25" y="382.2998">execute(model)</text><line style="stroke: #A80036; stroke-width: 1.0;" x1="696.5" x2="743.5" y1="412.5078" y2="412.5078"/><line style="stroke: #A80036; stroke-width: 1.0;" x1="743.5" x2="743.5" y1="412.5078" y2="425.5078"/><line style="stroke: #A80036; stroke-width: 1.0;" x1="702.5" x2="743.5" y1="425.5078" y2="425.5078"/><polygon fill="#A80036" points="712.5,421.5078,702.5,425.5078,712.5,429.5078,708.5,425.5078" style="stroke: #A80036; stroke-width: 1.0;"/><text fill="#000000" font-family="sans-serif" font-size="13" lengthAdjust="spacingAndGlyphs" textLength="161" x="708.5" y="407.6514">deleteFromOrderList(model)</text><polygon fill="#A80036" points="1000,456.8594,1010,460.8594,1000,464.8594,1004,460.8594" style="stroke: #A80036; stroke-width: 1.0;"/><line style="stroke: #A80036; stroke-width: 1.0;" x1="701.5" x2="1006" y1="460.8594" y2="460.8594"/><text fill="#000000" font-family="sans-serif" font-size="13" lengthAdjust="spacingAndGlyphs" textLength="122" x="795.75" y="456.0029">getFilteredOrderList()</text><polygon fill="#A80036" points="712.5,487.2109,702.5,491.2109,712.5,495.2109,708.5,491.2109" style="stroke: #A80036; stroke-width: 1.0;"/><line style="stroke: #A80036; stroke-width: 1.0; stroke-dasharray: 2.0,2.0;" x1="706.5" x2="1016" y1="491.2109" y2="491.2109"/><text fill="#000000" font-family="sans-serif" font-size="13" lengthAdjust="spacingAndGlyphs" textLength="81" x="818.75" y="486.3545">lastShownList</text><polygon fill="#A80036" points="1000,517.5625,1010,521.5625,1000,525.5625,1004,521.5625" style="stroke: #A80036; stroke-width: 1.0;"/><line style="stroke: #A80036; stroke-width: 1.0;" x1="701.5" x2="1006" y1="521.5625" y2="521.5625"/><text fill="#000000" font-family="sans-serif" font-size="13" lengthAdjust="spacingAndGlyphs" textLength="104" x="804.75" y="516.7061">deleteOrder(order)</text><polygon fill="#A80036" points="786,561.5625,796,565.5625,786,569.5625,790,565.5625" style="stroke: #A80036; stroke-width: 1.0;"/><line style="stroke: #A80036; stroke-width: 1.0;" x1="701.5" x2="792" y1="565.5625" y2="565.5625"/><rect fill="#3333C4" height="31.6094" style="stroke: #A80036; stroke-width: 1.5;" width="157" x="798" y="559.5625"/><text fill="#FFFFFF" font-family="sans-serif" font-size="14" lengthAdjust="spacingAndGlyphs" textLength="143" x="805" y="581.0957">result:CommandResult</text><polygon fill="#A80036" points="712.5,620.5234,702.5,624.5234,712.5,628.5234,708.5,624.5234" style="stroke: #A80036; stroke-width: 1.0;"/><line style="stroke: #A80036; stroke-width: 1.0; stroke-dasharray: 2.0,2.0;" x1="706.5" x2="875.5" y1="624.5234" y2="624.5234"/><text fill="#000000" font-family="sans-serif" font-size="13" lengthAdjust="spacingAndGlyphs" textLength="32" x="773" y="619.667">result</text><line style="stroke: #A80036; stroke-width: 1.0; stroke-dasharray: 2.0,2.0;" x1="701.5" x2="743.5" y1="659.875" y2="659.875"/><line style="stroke: #A80036; stroke-width: 1.0; stroke-dasharray: 2.0,2.0;" x1="743.5" x2="743.5" y1="659.875" y2="672.875"/><line style="stroke: #A80036; stroke-width: 1.0; stroke-dasharray: 2.0,2.0;" x1="696.5" x2="743.5" y1="672.875" y2="672.875"/><polygon fill="#A80036" points="706.5,668.875,696.5,672.875,706.5,676.875,702.5,672.875" style="stroke: #A80036; stroke-width: 1.0;"/><text fill="#000000" font-family="sans-serif" font-size="13" lengthAdjust="spacingAndGlyphs" textLength="32" x="708.5" y="655.0186">result</text><polygon fill="#A80036" points="168,694.2266,158,698.2266,168,702.2266,164,698.2266" style="stroke: #A80036; stroke-width: 1.0;"/><line style="stroke: #A80036; stroke-width: 1.0; stroke-dasharray: 2.0,2.0;" x1="162" x2="690.5" y1="698.2266" y2="698.2266"/><text fill="#000000" font-family="sans-serif" font-size="13" lengthAdjust="spacingAndGlyphs" textLength="32" x="408.25" y="693.3701">result</text><polygon fill="#A80036" points="14,724.5781,4,728.5781,14,732.5781,10,728.5781" style="stroke: #A80036; stroke-width: 1.0;"/><line style="stroke: #A80036; stroke-width: 1.0; stroke-dasharray: 2.0,2.0;" x1="8" x2="151" y1="728.5781" y2="728.5781"/><text fill="#000000" font-family="sans-serif" font-size="13" lengthAdjust="spacingAndGlyphs" textLength="32" x="61.5" y="723.7217">result</text><!--MD5=[ee65a74997a99f1093257bcd3ffe107e]
@startuml








skinparam BackgroundColor #FFFFFFF

skinparam Shadowing false

skinparam Class {
    FontColor #FFFFFF
    BorderThickness 1
    BorderColor #FFFFFF
    StereotypeFontColor #FFFFFF
    FontName Arial
}

skinparam Actor {
    BorderColor #000000
    Color #000000
    FontName Arial
}

skinparam Sequence {
    MessageAlign center
    BoxFontSize 15
    BoxPadding 0
    BoxFontColor #FFFFFF
    FontName Arial
}

skinparam Participant {
    FontColor #FFFFFFF
    Padding 20
}

skinparam MinClassWidth 50
skinparam ParticipantPadding 10
skinparam Shadowing false
skinparam DefaultTextAlignment center
skinparam packageStyle Rectangle

hide footbox
hide members
hide circle

box Logic #C8C8FA
participant ":LogicManager" as LogicManager #3333C4
participant ":DelinoParser" as DelinoParser #3333C4
participant ":DeleteCommandParser" as DeleteCommandParser #3333C4
participant "d:DeleteCommand" as DeleteCommand #3333C4
participant "result:CommandResult" as CommandResult #3333C4
end box

box Model #F97181
participant ":Model" as Model #9D0012
end box

[-> LogicManager : execute("delete -o 1")
activate LogicManager

LogicManager -> DelinoParser : parseCommand("delete -o 1")
activate DelinoParser

create DeleteCommandParser
DelinoParser -> DeleteCommandParser
activate DeleteCommandParser

DeleteCommandParser - -> DelinoParser
deactivate DeleteCommandParser

DelinoParser -> DeleteCommandParser : parse(" -o 1")
activate DeleteCommandParser

create DeleteCommand
DeleteCommandParser -> DeleteCommand
activate DeleteCommand

DeleteCommand - -> DeleteCommandParser : d
deactivate DeleteCommand

DeleteCommandParser - -> DelinoParser : d
deactivate DeleteCommandParser
DeleteCommandParser -[hidden]-> DelinoParser
destroy DeleteCommandParser

DelinoParser - -> LogicManager : d
deactivate DelinoParser

LogicManager -> DeleteCommand : execute(model)
activate DeleteCommand

DeleteCommand -> DeleteCommand : deleteFromOrderList(model)
activate DeleteCommand
DeleteCommand -> Model : getFilteredOrderList()
activate Model
Model - -> DeleteCommand : lastShownList
deactivate Model
DeleteCommand -> Model : deleteOrder(order)
activate Model
deactivate Model
create CommandResult
DeleteCommand -> CommandResult
activate CommandResult

CommandResult - -> DeleteCommand : result
deactivate CommandResult
DeleteCommand - -> DeleteCommand : result
deactivate DeleteCommand

DeleteCommand - -> LogicManager : result
deactivate DeleteCommand

[<- -LogicManager : result
deactivate LogicManager
@enduml

PlantUML version 1.2020.03beta6(Unknown compile time)
(GPL source distribution)
Java Runtime: OpenJDK Runtime Environment
JVM: OpenJDK 64-Bit Server VM
Java Version: 11.0.6+8-b520.43
Operating System: Windows 10
Default Encoding: Cp1252
Language: en
Country: SG
--></g></svg>
