<?xml version="1.0" encoding="UTF-8" standalone="no"?><svg xmlns="http://www.w3.org/2000/svg" xmlns:xlink="http://www.w3.org/1999/xlink" contentScriptType="application/ecmascript" contentStyleType="text/css" height="758px" preserveAspectRatio="none" style="width:1088px;height:758px;" version="1.1" viewBox="0 0 1088 758" width="1088px" zoomAndPan="magnify"><defs/><g><rect fill="#C8C8FA" height="736.5781" style="stroke: #A80036; stroke-width: 1.0;" width="899.5" x="84" y="4"/><text fill="#FFFFFF" font-family="sans-serif" font-size="15" font-weight="bold" lengthAdjust="spacingAndGlyphs" textLength="39" x="512.25" y="19.5713">Logic</text><rect fill="#F97181" height="736.5781" style="stroke: #A80036; stroke-width: 1.0;" width="92" x="985.5" y="4"/><text fill="#FFFFFF" font-family="sans-serif" font-size="15" font-weight="bold" lengthAdjust="spacingAndGlyphs" textLength="44" x="1007.5" y="19.5713">Model</text><rect fill="#FFFFFF" height="636.75" style="stroke: #A80036; stroke-width: 1.0;" width="10" x="147" y="91.8281"/><rect fill="#FFFFFF" height="234.625" style="stroke: #A80036; stroke-width: 1.0;" width="10" x="346" y="122.1797"/><rect fill="#FFFFFF" height="32.6094" style="stroke: #A80036; stroke-width: 1.0;" width="10" x="523" y="146.1797"/><rect fill="#FFFFFF" height="103.3125" style="stroke: #A80036; stroke-width: 1.0;" width="10" x="523" y="209.1406"/><rect fill="#FFFFFF" height="48.9609" style="stroke: #A80036; stroke-width: 1.0;" width="10" x="701" y="233.1406"/><rect fill="#FFFFFF" height="311.0703" style="stroke: #A80036; stroke-width: 1.0;" width="10" x="701" y="387.1563"/><rect fill="#FFFFFF" height="235.3672" style="stroke: #A80036; stroke-width: 1.0;" width="10" x="706" y="425.5078"/><rect fill="#FFFFFF" height="48.9609" style="stroke: #A80036; stroke-width: 1.0;" width="10" x="886" y="575.5625"/><rect fill="#FFFFFF" height="30.3516" style="stroke: #A80036; stroke-width: 1.0;" width="10" x="1026.5" y="460.8594"/><rect fill="#FFFFFF" height="30" style="stroke: #A80036; stroke-width: 1.0;" width="10" x="1026.5" y="521.5625"/><line style="stroke: #A80036; stroke-width: 1.0; stroke-dasharray: 5.0,5.0;" x1="152" x2="152" y1="59.4766" y2="746.5781"/><line style="stroke: #A80036; stroke-width: 1.0; stroke-dasharray: 5.0,5.0;" x1="350.5" x2="350.5" y1="59.4766" y2="746.5781"/><line style="stroke: #A80036; stroke-width: 1.0; stroke-dasharray: 5.0,5.0;" x1="527.5" x2="527.5" y1="161.4844" y2="746.5781"/><line style="stroke: #A80036; stroke-width: 1.0; stroke-dasharray: 5.0,5.0;" x1="705.5" x2="705.5" y1="248.4453" y2="746.5781"/><line style="stroke: #A80036; stroke-width: 1.0; stroke-dasharray: 5.0,5.0;" x1="890.5" x2="890.5" y1="590.8672" y2="746.5781"/><line style="stroke: #A80036; stroke-width: 1.0; stroke-dasharray: 5.0,5.0;" x1="1031.5" x2="1031.5" y1="59.4766" y2="746.5781"/><rect fill="#3333C4" height="31.6094" style="stroke: #A80036; stroke-width: 1.5;" width="108" x="98" y="26.8672"/><text fill="#FFFFFF" font-family="sans-serif" font-size="14" lengthAdjust="spacingAndGlyphs" textLength="94" x="105" y="48.4004">:LogicManager</text><rect fill="#3333C4" height="31.6094" style="stroke: #A80036; stroke-width: 1.5;" width="129" x="286.5" y="26.8672"/><text fill="#FFFFFF" font-family="sans-serif" font-size="14" lengthAdjust="spacingAndGlyphs" textLength="115" x="293.5" y="48.4004">:OrderBookParser</text><rect fill="#9D0012" height="31.6094" style="stroke: #A80036; stroke-width: 1.5;" width="64" x="999.5" y="26.8672"/><text fill="#FFFFFF" font-family="sans-serif" font-size="14" lengthAdjust="spacingAndGlyphs" textLength="42" x="1010.5" y="48.4004">:Model</text><rect fill="#FFFFFF" height="636.75" style="stroke: #A80036; stroke-width: 1.0;" width="10" x="147" y="91.8281"/><rect fill="#FFFFFF" height="234.625" style="stroke: #A80036; stroke-width: 1.0;" width="10" x="346" y="122.1797"/><rect fill="#FFFFFF" height="32.6094" style="stroke: #A80036; stroke-width: 1.0;" width="10" x="523" y="146.1797"/><rect fill="#FFFFFF" height="103.3125" style="stroke: #A80036; stroke-width: 1.0;" width="10" x="523" y="209.1406"/><rect fill="#FFFFFF" height="48.9609" style="stroke: #A80036; stroke-width: 1.0;" width="10" x="701" y="233.1406"/><rect fill="#FFFFFF" height="311.0703" style="stroke: #A80036; stroke-width: 1.0;" width="10" x="701" y="387.1563"/><rect fill="#FFFFFF" height="235.3672" style="stroke: #A80036; stroke-width: 1.0;" width="10" x="706" y="425.5078"/><rect fill="#FFFFFF" height="48.9609" style="stroke: #A80036; stroke-width: 1.0;" width="10" x="886" y="575.5625"/><rect fill="#FFFFFF" height="30.3516" style="stroke: #A80036; stroke-width: 1.0;" width="10" x="1026.5" y="460.8594"/><rect fill="#FFFFFF" height="30" style="stroke: #A80036; stroke-width: 1.0;" width="10" x="1026.5" y="521.5625"/><polygon fill="#A80036" points="135,87.8281,145,91.8281,135,95.8281,139,91.8281" style="stroke: #A80036; stroke-width: 1.0;"/><line style="stroke: #A80036; stroke-width: 1.0;" x1="3" x2="141" y1="91.8281" y2="91.8281"/><text fill="#000000" font-family="sans-serif" font-size="13" lengthAdjust="spacingAndGlyphs" textLength="125" x="12.5" y="86.9717">execute("delete -o 1")</text><polygon fill="#A80036" points="334,118.1797,344,122.1797,334,126.1797,338,122.1797" style="stroke: #A80036; stroke-width: 1.0;"/><line style="stroke: #A80036; stroke-width: 1.0;" x1="157" x2="340" y1="122.1797" y2="122.1797"/><text fill="#000000" font-family="sans-serif" font-size="13" lengthAdjust="spacingAndGlyphs" textLength="170" x="166.5" y="117.3232">parseCommand("delete -o 1")</text><polygon fill="#A80036" points="433.5,132.1797,443.5,136.1797,433.5,140.1797,437.5,136.1797" style="stroke: #A80036; stroke-width: 1.0;"/><line style="stroke: #A80036; stroke-width: 1.0;" x1="356" x2="439.5" y1="136.1797" y2="136.1797"/><rect fill="#3333C4" height="31.6094" style="stroke: #A80036; stroke-width: 1.5;" width="165" x="445.5" y="130.1797"/><text fill="#FFFFFF" font-family="sans-serif" font-size="14" lengthAdjust="spacingAndGlyphs" textLength="151" x="452.5" y="151.7129">:DeleteCommandParser</text><polygon fill="#A80036" points="367,174.7891,357,178.7891,367,182.7891,363,178.7891" style="stroke: #A80036; stroke-width: 1.0;"/><line style="stroke: #A80036; stroke-width: 1.0; stroke-dasharray: 2.0,2.0;" x1="361" x2="527" y1="178.7891" y2="178.7891"/><polygon fill="#A80036" points="511,205.1406,521,209.1406,511,213.1406,515,209.1406" style="stroke: #A80036; stroke-width: 1.0;"/><line style="stroke: #A80036; stroke-width: 1.0;" x1="356" x2="517" y1="209.1406" y2="209.1406"/><text fill="#000000" font-family="sans-serif" font-size="13" lengthAdjust="spacingAndGlyphs" textLength="76" x="401.5" y="204.2842">parse(" -o 1")</text><polygon fill="#A80036" points="628.5,219.1406,638.5,223.1406,628.5,227.1406,632.5,223.1406" style="stroke: #A80036; stroke-width: 1.0;"/><line style="stroke: #A80036; stroke-width: 1.0;" x1="533" x2="634.5" y1="223.1406" y2="223.1406"/><rect fill="#3333C4" height="31.6094" style="stroke: #A80036; stroke-width: 1.5;" width="131" x="640.5" y="217.1406"/><text fill="#FFFFFF" font-family="sans-serif" font-size="14" lengthAdjust="spacingAndGlyphs" textLength="117" x="647.5" y="238.6738">d:DeleteCommand</text><polygon fill="#A80036" points="544,278.1016,534,282.1016,544,286.1016,540,282.1016" style="stroke: #A80036; stroke-width: 1.0;"/><line style="stroke: #A80036; stroke-width: 1.0; stroke-dasharray: 2.0,2.0;" x1="538" x2="705" y1="282.1016" y2="282.1016"/><text fill="#000000" font-family="sans-serif" font-size="13" lengthAdjust="spacingAndGlyphs" textLength="7" x="616" y="277.2451">d</text><polygon fill="#A80036" points="367,308.4531,357,312.4531,367,316.4531,363,312.4531" style="stroke: #A80036; stroke-width: 1.0;"/><line style="stroke: #A80036; stroke-width: 1.0; stroke-dasharray: 2.0,2.0;" x1="361" x2="527" y1="312.4531" y2="312.4531"/><text fill="#000000" font-family="sans-serif" font-size="13" lengthAdjust="spacingAndGlyphs" textLength="7" x="438.5" y="307.5967">d</text><line style="stroke: #A80036; stroke-width: 2.0;" x1="519" x2="537" y1="317.4531" y2="335.4531"/><line style="stroke: #A80036; stroke-width: 2.0;" x1="519" x2="537" y1="335.4531" y2="317.4531"/><polygon fill="#A80036" points="168,352.8047,158,356.8047,168,360.8047,164,356.8047" style="stroke: #A80036; stroke-width: 1.0;"/><line style="stroke: #A80036; stroke-width: 1.0; stroke-dasharray: 2.0,2.0;" x1="162" x2="350" y1="356.8047" y2="356.8047"/><text fill="#000000" font-family="sans-serif" font-size="13" lengthAdjust="spacingAndGlyphs" textLength="7" x="250.5" y="351.9482">d</text><polygon fill="#A80036" points="689,383.1563,699,387.1563,689,391.1563,693,387.1563" style="stroke: #A80036; stroke-width: 1.0;"/><line style="stroke: #A80036; stroke-width: 1.0;" x1="157" x2="695" y1="387.1563" y2="387.1563"/><text fill="#000000" font-family="sans-serif" font-size="13" lengthAdjust="spacingAndGlyphs" textLength="89" x="384.5" y="382.2998">execute(model)</text><line style="stroke: #A80036; stroke-width: 1.0;" x1="711" x2="758" y1="412.5078" y2="412.5078"/><line style="stroke: #A80036; stroke-width: 1.0;" x1="758" x2="758" y1="412.5078" y2="425.5078"/><line style="stroke: #A80036; stroke-width: 1.0;" x1="717" x2="758" y1="425.5078" y2="425.5078"/><polygon fill="#A80036" points="727,421.5078,717,425.5078,727,429.5078,723,425.5078" style="stroke: #A80036; stroke-width: 1.0;"/><text fill="#000000" font-family="sans-serif" font-size="13" lengthAdjust="spacingAndGlyphs" textLength="161" x="723" y="407.6514">deleteFromOrderList(model)</text><polygon fill="#A80036" points="1014.5,456.8594,1024.5,460.8594,1014.5,464.8594,1018.5,460.8594" style="stroke: #A80036; stroke-width: 1.0;"/><line style="stroke: #A80036; stroke-width: 1.0;" x1="716" x2="1020.5" y1="460.8594" y2="460.8594"/><text fill="#000000" font-family="sans-serif" font-size="13" lengthAdjust="spacingAndGlyphs" textLength="122" x="810.25" y="456.0029">getFilteredOrderList()</text><polygon fill="#A80036" points="727,487.2109,717,491.2109,727,495.2109,723,491.2109" style="stroke: #A80036; stroke-width: 1.0;"/><line style="stroke: #A80036; stroke-width: 1.0; stroke-dasharray: 2.0,2.0;" x1="721" x2="1030.5" y1="491.2109" y2="491.2109"/><text fill="#000000" font-family="sans-serif" font-size="13" lengthAdjust="spacingAndGlyphs" textLength="81" x="833.25" y="486.3545">lastShownList</text><polygon fill="#A80036" points="1014.5,517.5625,1024.5,521.5625,1014.5,525.5625,1018.5,521.5625" style="stroke: #A80036; stroke-width: 1.0;"/><line style="stroke: #A80036; stroke-width: 1.0;" x1="716" x2="1020.5" y1="521.5625" y2="521.5625"/><text fill="#000000" font-family="sans-serif" font-size="13" lengthAdjust="spacingAndGlyphs" textLength="104" x="819.25" y="516.7061">deleteOrder(order)</text><polygon fill="#A80036" points="800.5,561.5625,810.5,565.5625,800.5,569.5625,804.5,565.5625" style="stroke: #A80036; stroke-width: 1.0;"/><line style="stroke: #A80036; stroke-width: 1.0;" x1="716" x2="806.5" y1="565.5625" y2="565.5625"/><rect fill="#3333C4" height="31.6094" style="stroke: #A80036; stroke-width: 1.5;" width="157" x="812.5" y="559.5625"/><text fill="#FFFFFF" font-family="sans-serif" font-size="14" lengthAdjust="spacingAndGlyphs" textLength="143" x="819.5" y="581.0957">result:CommandResult</text><polygon fill="#A80036" points="727,620.5234,717,624.5234,727,628.5234,723,624.5234" style="stroke: #A80036; stroke-width: 1.0;"/><line style="stroke: #A80036; stroke-width: 1.0; stroke-dasharray: 2.0,2.0;" x1="721" x2="890" y1="624.5234" y2="624.5234"/><text fill="#000000" font-family="sans-serif" font-size="13" lengthAdjust="spacingAndGlyphs" textLength="32" x="787.5" y="619.667">result</text><line style="stroke: #A80036; stroke-width: 1.0; stroke-dasharray: 2.0,2.0;" x1="716" x2="758" y1="659.875" y2="659.875"/><line style="stroke: #A80036; stroke-width: 1.0; stroke-dasharray: 2.0,2.0;" x1="758" x2="758" y1="659.875" y2="672.875"/><line style="stroke: #A80036; stroke-width: 1.0; stroke-dasharray: 2.0,2.0;" x1="711" x2="758" y1="672.875" y2="672.875"/><polygon fill="#A80036" points="721,668.875,711,672.875,721,676.875,717,672.875" style="stroke: #A80036; stroke-width: 1.0;"/><text fill="#000000" font-family="sans-serif" font-size="13" lengthAdjust="spacingAndGlyphs" textLength="32" x="723" y="655.0186">result</text><polygon fill="#A80036" points="168,694.2266,158,698.2266,168,702.2266,164,698.2266" style="stroke: #A80036; stroke-width: 1.0;"/><line style="stroke: #A80036; stroke-width: 1.0; stroke-dasharray: 2.0,2.0;" x1="162" x2="705" y1="698.2266" y2="698.2266"/><text fill="#000000" font-family="sans-serif" font-size="13" lengthAdjust="spacingAndGlyphs" textLength="32" x="415.5" y="693.3701">result</text><polygon fill="#A80036" points="14,724.5781,4,728.5781,14,732.5781,10,728.5781" style="stroke: #A80036; stroke-width: 1.0;"/><line style="stroke: #A80036; stroke-width: 1.0; stroke-dasharray: 2.0,2.0;" x1="8" x2="151" y1="728.5781" y2="728.5781"/><text fill="#000000" font-family="sans-serif" font-size="13" lengthAdjust="spacingAndGlyphs" textLength="32" x="61.5" y="723.7217">result</text><!--MD5=[3d8a4e031e574318132feafae9771e39]
@startuml








skinparam BackgroundColor #FFFFFFF

skinparam Shadowing false

skinparam Class {
    FontColor #FFFFFF
    BorderThickness 1
    BorderColor #FFFFFF
    StereotypeFontColor #FFFFFF
    FontName Arial
}

skinparam Actor {
    BorderColor #000000
    Color #000000
    FontName Arial
}

skinparam Sequence {
    MessageAlign center
    BoxFontSize 15
    BoxPadding 0
    BoxFontColor #FFFFFF
    FontName Arial
}

skinparam Participant {
    FontColor #FFFFFFF
    Padding 20
}

skinparam MinClassWidth 50
skinparam ParticipantPadding 10
skinparam Shadowing false
skinparam DefaultTextAlignment center
skinparam packageStyle Rectangle

hide footbox
hide members
hide circle

box Logic #C8C8FA
participant ":LogicManager" as LogicManager #3333C4
participant ":OrderBookParser" as OrderBookParser #3333C4
participant ":DeleteCommandParser" as DeleteCommandParser #3333C4
participant "d:DeleteCommand" as DeleteCommand #3333C4
participant "result:CommandResult" as CommandResult #3333C4
end box

box Model #F97181
participant ":Model" as Model #9D0012
end box

[-> LogicManager : execute("delete -o 1")
activate LogicManager

LogicManager -> OrderBookParser : parseCommand("delete -o 1")
activate OrderBookParser

create DeleteCommandParser
OrderBookParser -> DeleteCommandParser
activate DeleteCommandParser

DeleteCommandParser - -> OrderBookParser
deactivate DeleteCommandParser

OrderBookParser -> DeleteCommandParser : parse(" -o 1")
activate DeleteCommandParser

create DeleteCommand
DeleteCommandParser -> DeleteCommand
activate DeleteCommand

DeleteCommand - -> DeleteCommandParser : d
deactivate DeleteCommand

DeleteCommandParser - -> OrderBookParser : d
deactivate DeleteCommandParser
DeleteCommandParser -[hidden]-> OrderBookParser
destroy DeleteCommandParser

OrderBookParser - -> LogicManager : d
deactivate OrderBookParser

LogicManager -> DeleteCommand : execute(model)
activate DeleteCommand

DeleteCommand -> DeleteCommand : deleteFromOrderList(model)
activate DeleteCommand
DeleteCommand -> Model : getFilteredOrderList()
activate Model
Model - -> DeleteCommand : lastShownList
deactivate Model
DeleteCommand -> Model : deleteOrder(order)
activate Model
deactivate Model
create CommandResult
DeleteCommand -> CommandResult
activate CommandResult

CommandResult - -> DeleteCommand : result
deactivate CommandResult
DeleteCommand - -> DeleteCommand : result
deactivate DeleteCommand

DeleteCommand - -> LogicManager : result
deactivate DeleteCommand

[<- -LogicManager : result
deactivate LogicManager
@enduml

PlantUML version 1.2020.03beta6(Unknown compile time)
(GPL source distribution)
Java Runtime: OpenJDK Runtime Environment
JVM: OpenJDK 64-Bit Server VM
Java Version: 11.0.6+8-b520.43
Operating System: Windows 10
Default Encoding: Cp1252
Language: en
Country: SG
--></g></svg>
