<?xml version="1.0" encoding="UTF-8" standalone="no"?><svg xmlns="http://www.w3.org/2000/svg" xmlns:xlink="http://www.w3.org/1999/xlink" contentScriptType="application/ecmascript" contentStyleType="text/css" height="702.5px" preserveAspectRatio="none" style="width:1265px;height:702px;" version="1.1" viewBox="0 0 1265 702" width="1265px" zoomAndPan="magnify"><defs/><g><rect fill="#C8C8FA" height="675.5859" style="stroke: #A80036; stroke-width: 1.25;" width="1048.125" x="86.25" y="5"/><text fill="#FFFFFF" font-family="sans-serif" font-size="18.75" font-weight="bold" lengthAdjust="spacingAndGlyphs" textLength="48.75" x="583.4375" y="24.4641">Logic</text><rect fill="#F97181" height="675.5859" style="stroke: #A80036; stroke-width: 1.25;" width="115" x="1136.875" y="5"/><text fill="#FFFFFF" font-family="sans-serif" font-size="18.75" font-weight="bold" lengthAdjust="spacingAndGlyphs" textLength="55" x="1164.375" y="24.4641">Model</text><rect fill="#FFFFFF" height="550.8008" style="stroke: #A80036; stroke-width: 1.25;" width="12.5" x="165" y="114.7852"/><rect fill="#FFFFFF" height="293.2813" style="stroke: #A80036; stroke-width: 1.25;" width="12.5" x="395" y="152.7246"/><rect fill="#FFFFFF" height="40.7617" style="stroke: #A80036; stroke-width: 1.25;" width="12.5" x="616.25" y="182.7246"/><rect fill="#FFFFFF" height="129.1406" style="stroke: #A80036; stroke-width: 1.25;" width="12.5" x="616.25" y="261.4258"/><rect fill="#FFFFFF" height="61.2012" style="stroke: #A80036; stroke-width: 1.25;" width="12.5" x="838.75" y="291.4258"/><rect fill="#FFFFFF" height="164.1406" style="stroke: #A80036; stroke-width: 1.25;" width="12.5" x="838.75" y="483.9453"/><rect fill="#FFFFFF" height="40.7617" style="stroke: #A80036; stroke-width: 1.25;" width="12.5" x="1034.375" y="569.3848"/><rect fill="#FFFFFF" height="17.5" style="stroke: #A80036; stroke-width: 1.25;" width="12.5" x="1188.125" y="521.8848"/><line style="stroke: #A80036; stroke-width: 1.25; stroke-dasharray: 5.0,5.0;" x1="171.25" x2="171.25" y1="74.3457" y2="688.0859"/><line style="stroke: #A80036; stroke-width: 1.25; stroke-dasharray: 5.0,5.0;" x1="400.625" x2="400.625" y1="74.3457" y2="688.0859"/><line style="stroke: #A80036; stroke-width: 1.25; stroke-dasharray: 5.0,5.0;" x1="621.875" x2="621.875" y1="201.8555" y2="688.0859"/><line style="stroke: #A80036; stroke-width: 1.25; stroke-dasharray: 5.0,5.0;" x1="844.375" x2="844.375" y1="310.5566" y2="688.0859"/><line style="stroke: #A80036; stroke-width: 1.25; stroke-dasharray: 5.0,5.0;" x1="1040.625" x2="1040.625" y1="588.5156" y2="688.0859"/><line style="stroke: #A80036; stroke-width: 1.25; stroke-dasharray: 5.0,5.0;" x1="1194.375" x2="1194.375" y1="74.3457" y2="688.0859"/><rect fill="#3333C4" height="39.5117" style="stroke: #A80036; stroke-width: 1.875;" width="135" x="103.75" y="33.584"/><text fill="#FFFFFF" font-family="sans-serif" font-size="17.5" lengthAdjust="spacingAndGlyphs" textLength="117.5" x="112.5" y="60.5005">:LogicManager</text><rect fill="#3333C4" height="39.5117" style="stroke: #A80036; stroke-width: 1.875;" width="161.25" x="320.625" y="33.584"/><text fill="#FFFFFF" font-family="sans-serif" font-size="17.5" lengthAdjust="spacingAndGlyphs" textLength="143.75" x="329.375" y="60.5005">:OrderBookParser</text><rect fill="#9D0012" height="39.5117" style="stroke: #A80036; stroke-width: 1.875;" width="80" x="1154.375" y="33.584"/><text fill="#FFFFFF" font-family="sans-serif" font-size="17.5" lengthAdjust="spacingAndGlyphs" textLength="52.5" x="1168.125" y="60.5005">:Model</text><rect fill="#FFFFFF" height="550.8008" style="stroke: #A80036; stroke-width: 1.25;" width="12.5" x="165" y="114.7852"/><rect fill="#FFFFFF" height="293.2813" style="stroke: #A80036; stroke-width: 1.25;" width="12.5" x="395" y="152.7246"/><rect fill="#FFFFFF" height="40.7617" style="stroke: #A80036; stroke-width: 1.25;" width="12.5" x="616.25" y="182.7246"/><rect fill="#FFFFFF" height="129.1406" style="stroke: #A80036; stroke-width: 1.25;" width="12.5" x="616.25" y="261.4258"/><rect fill="#FFFFFF" height="61.2012" style="stroke: #A80036; stroke-width: 1.25;" width="12.5" x="838.75" y="291.4258"/><rect fill="#FFFFFF" height="164.1406" style="stroke: #A80036; stroke-width: 1.25;" width="12.5" x="838.75" y="483.9453"/><rect fill="#FFFFFF" height="40.7617" style="stroke: #A80036; stroke-width: 1.25;" width="12.5" x="1034.375" y="569.3848"/><rect fill="#FFFFFF" height="17.5" style="stroke: #A80036; stroke-width: 1.25;" width="12.5" x="1188.125" y="521.8848"/><polygon fill="#A80036" points="150,109.7852,162.5,114.7852,150,119.7852,155,114.7852" style="stroke: #A80036; stroke-width: 1.25;"/><line style="stroke: #A80036; stroke-width: 1.25;" x1="3.75" x2="157.5" y1="114.7852" y2="114.7852"/><text fill="#000000" font-family="sans-serif" font-size="16.25" lengthAdjust="spacingAndGlyphs" textLength="137.5" x="15.625" y="108.7146">execute("delete 1")</text><polygon fill="#A80036" points="380,147.7246,392.5,152.7246,380,157.7246,385,152.7246" style="stroke: #A80036; stroke-width: 1.25;"/><line style="stroke: #A80036; stroke-width: 1.25;" x1="177.5" x2="387.5" y1="152.7246" y2="152.7246"/><text fill="#000000" font-family="sans-serif" font-size="16.25" lengthAdjust="spacingAndGlyphs" textLength="193.75" x="189.375" y="146.6541">parseCommand("delete 1")</text><polygon fill="#A80036" points="504.375,165.2246,516.875,170.2246,504.375,175.2246,509.375,170.2246" style="stroke: #A80036; stroke-width: 1.25;"/><line style="stroke: #A80036; stroke-width: 1.25;" x1="407.5" x2="511.875" y1="170.2246" y2="170.2246"/><rect fill="#3333C4" height="39.5117" style="stroke: #A80036; stroke-width: 1.875;" width="206.25" x="519.375" y="162.7246"/><text fill="#FFFFFF" font-family="sans-serif" font-size="17.5" lengthAdjust="spacingAndGlyphs" textLength="188.75" x="528.125" y="189.6411">:DeleteCommandParser</text><polygon fill="#A80036" points="421.25,218.4863,408.75,223.4863,421.25,228.4863,416.25,223.4863" style="stroke: #A80036; stroke-width: 1.25;"/><line style="stroke: #A80036; stroke-width: 1.25; stroke-dasharray: 2.0,2.0;" x1="413.75" x2="621.25" y1="223.4863" y2="223.4863"/><polygon fill="#A80036" points="601.25,256.4258,613.75,261.4258,601.25,266.4258,606.25,261.4258" style="stroke: #A80036; stroke-width: 1.25;"/><line style="stroke: #A80036; stroke-width: 1.25;" x1="407.5" x2="608.75" y1="261.4258" y2="261.4258"/><text fill="#000000" font-family="sans-serif" font-size="16.25" lengthAdjust="spacingAndGlyphs" textLength="71.25" x="476.25" y="255.3552">parse("1")</text><polygon fill="#A80036" points="748.125,273.9258,760.625,278.9258,748.125,283.9258,753.125,278.9258" style="stroke: #A80036; stroke-width: 1.25;"/><line style="stroke: #A80036; stroke-width: 1.25;" x1="628.75" x2="755.625" y1="278.9258" y2="278.9258"/><rect fill="#3333C4" height="39.5117" style="stroke: #A80036; stroke-width: 1.875;" width="163.75" x="763.125" y="271.4258"/><text fill="#FFFFFF" font-family="sans-serif" font-size="17.5" lengthAdjust="spacingAndGlyphs" textLength="146.25" x="771.875" y="298.3423">d:DeleteCommand</text><polygon fill="#A80036" points="642.5,347.627,630,352.627,642.5,357.627,637.5,352.627" style="stroke: #A80036; stroke-width: 1.25;"/><line style="stroke: #A80036; stroke-width: 1.25; stroke-dasharray: 2.0,2.0;" x1="635" x2="843.75" y1="352.627" y2="352.627"/><text fill="#000000" font-family="sans-serif" font-size="16.25" lengthAdjust="spacingAndGlyphs" textLength="8.75" x="732.5" y="346.5564">d</text><polygon fill="#A80036" points="421.25,385.5664,408.75,390.5664,421.25,395.5664,416.25,390.5664" style="stroke: #A80036; stroke-width: 1.25;"/><line style="stroke: #A80036; stroke-width: 1.25; stroke-dasharray: 2.0,2.0;" x1="413.75" x2="621.25" y1="390.5664" y2="390.5664"/><text fill="#000000" font-family="sans-serif" font-size="16.25" lengthAdjust="spacingAndGlyphs" textLength="8.75" x="510.625" y="384.4958">d</text><line style="stroke: #A80036; stroke-width: 2.5;" x1="611.25" x2="633.75" y1="396.8164" y2="419.3164"/><line style="stroke: #A80036; stroke-width: 2.5;" x1="611.25" x2="633.75" y1="419.3164" y2="396.8164"/><polygon fill="#A80036" points="191.25,441.0059,178.75,446.0059,191.25,451.0059,186.25,446.0059" style="stroke: #A80036; stroke-width: 1.25;"/><line style="stroke: #A80036; stroke-width: 1.25; stroke-dasharray: 2.0,2.0;" x1="183.75" x2="400" y1="446.0059" y2="446.0059"/><text fill="#000000" font-family="sans-serif" font-size="16.25" lengthAdjust="spacingAndGlyphs" textLength="8.75" x="285" y="439.9353">d</text><polygon fill="#A80036" points="823.75,478.9453,836.25,483.9453,823.75,488.9453,828.75,483.9453" style="stroke: #A80036; stroke-width: 1.25;"/><line style="stroke: #A80036; stroke-width: 1.25;" x1="177.5" x2="831.25" y1="483.9453" y2="483.9453"/><text fill="#000000" font-family="sans-serif" font-size="16.25" lengthAdjust="spacingAndGlyphs" textLength="67.5" x="474.375" y="477.8748">execute()</text><polygon fill="#A80036" points="1173.125,516.8848,1185.625,521.8848,1173.125,526.8848,1178.125,521.8848" style="stroke: #A80036; stroke-width: 1.25;"/><line style="stroke: #A80036; stroke-width: 1.25;" x1="851.25" x2="1180.625" y1="521.8848" y2="521.8848"/><text fill="#000000" font-family="sans-serif" font-size="16.25" lengthAdjust="spacingAndGlyphs" textLength="113.75" x="962.8125" y="515.8142">deletePerson(1)</text><polygon fill="#A80036" points="865,534.3848,852.5,539.3848,865,544.3848,860,539.3848" style="stroke: #A80036; stroke-width: 1.25;"/><line style="stroke: #A80036; stroke-width: 1.25; stroke-dasharray: 2.0,2.0;" x1="857.5" x2="1193.125" y1="539.3848" y2="539.3848"/><polygon fill="#A80036" points="949.375,551.8848,961.875,556.8848,949.375,561.8848,954.375,556.8848" style="stroke: #A80036; stroke-width: 1.25;"/><line style="stroke: #A80036; stroke-width: 1.25;" x1="851.25" x2="956.875" y1="556.8848" y2="556.8848"/><rect fill="#3333C4" height="39.5117" style="stroke: #A80036; stroke-width: 1.875;" width="152.5" x="964.375" y="549.3848"/><text fill="#FFFFFF" font-family="sans-serif" font-size="17.5" lengthAdjust="spacingAndGlyphs" textLength="135" x="973.125" y="576.3013">:CommandResult</text><polygon fill="#A80036" points="865,605.1465,852.5,610.1465,865,615.1465,860,610.1465" style="stroke: #A80036; stroke-width: 1.25;"/><line style="stroke: #A80036; stroke-width: 1.25; stroke-dasharray: 2.0,2.0;" x1="857.5" x2="1039.375" y1="610.1465" y2="610.1465"/><polygon fill="#A80036" points="191.25,643.0859,178.75,648.0859,191.25,653.0859,186.25,648.0859" style="stroke: #A80036; stroke-width: 1.25;"/><line style="stroke: #A80036; stroke-width: 1.25; stroke-dasharray: 2.0,2.0;" x1="183.75" x2="843.75" y1="648.0859" y2="648.0859"/><text fill="#000000" font-family="sans-serif" font-size="16.25" lengthAdjust="spacingAndGlyphs" textLength="40" x="491.25" y="642.0154">result</text><polygon fill="#A80036" points="17.5,660.5859,5,665.5859,17.5,670.5859,12.5,665.5859" style="stroke: #A80036; stroke-width: 1.25;"/><line style="stroke: #A80036; stroke-width: 1.25; stroke-dasharray: 2.0,2.0;" x1="10" x2="170" y1="665.5859" y2="665.5859"/><!--MD5=[72487ba3a923d817c1064209258afaa8]
@startuml








skinparam BackgroundColor #FFFFFFF

skinparam Shadowing false

skinparam Class {
    FontColor #FFFFFF
    BorderThickness 1
    BorderColor #FFFFFF
    StereotypeFontColor #FFFFFF
    FontName Arial
}

skinparam Actor {
    BorderColor #000000
    Color #000000
    FontName Arial
}

skinparam Sequence {
    MessageAlign center
    BoxFontSize 15
    BoxPadding 0
    BoxFontColor #FFFFFF
    FontName Arial
}

skinparam Participant {
    FontColor #FFFFFFF
    Padding 20
}

skinparam MinClassWidth 50
skinparam ParticipantPadding 10
skinparam Shadowing false
skinparam DefaultTextAlignment center
skinparam packageStyle Rectangle

hide footbox
hide members
hide circle

box Logic #C8C8FA
participant ":LogicManager" as LogicManager #3333C4
participant ":OrderBookParser" as OrderBookParser #3333C4
participant ":DeleteCommandParser" as DeleteCommandParser #3333C4
participant "d:DeleteCommand" as DeleteCommand #3333C4
participant ":CommandResult" as CommandResult #3333C4
end box

box Model #F97181
participant ":Model" as Model #9D0012
end box

[-> LogicManager : execute("delete 1")
activate LogicManager

LogicManager -> OrderBookParser : parseCommand("delete 1")
activate OrderBookParser

create DeleteCommandParser
OrderBookParser -> DeleteCommandParser
activate DeleteCommandParser

DeleteCommandParser - -> OrderBookParser
deactivate DeleteCommandParser

OrderBookParser -> DeleteCommandParser : parse("1")
activate DeleteCommandParser

create DeleteCommand
DeleteCommandParser -> DeleteCommand
activate DeleteCommand

DeleteCommand - -> DeleteCommandParser : d
deactivate DeleteCommand

DeleteCommandParser - -> OrderBookParser : d
deactivate DeleteCommandParser
DeleteCommandParser -[hidden]-> OrderBookParser
destroy DeleteCommandParser

OrderBookParser - -> LogicManager : d
deactivate OrderBookParser

LogicManager -> DeleteCommand : execute()
activate DeleteCommand

DeleteCommand -> Model : deletePerson(1)
activate Model

Model - -> DeleteCommand
deactivate Model

create CommandResult
DeleteCommand -> CommandResult
activate CommandResult

CommandResult - -> DeleteCommand
deactivate CommandResult

DeleteCommand - -> LogicManager : result
deactivate DeleteCommand

[<- -LogicManager
deactivate LogicManager
@enduml

PlantUML version 1.2020.03beta6(Unknown compile time)
(GPL source distribution)
Java Runtime: OpenJDK Runtime Environment
JVM: OpenJDK 64-Bit Server VM
Java Version: 11.0.5+10-b520.30
Operating System: Windows 10
Default Encoding: UTF-8
Language: en
Country: US
--></g></svg>
