<?xml version="1.0" encoding="UTF-8" standalone="no"?><svg xmlns="http://www.w3.org/2000/svg" xmlns:xlink="http://www.w3.org/1999/xlink" contentScriptType="application/ecmascript" contentStyleType="text/css" height="620px" preserveAspectRatio="none" style="width:753px;height:620px;" version="1.1" viewBox="0 0 753 620" width="753px" zoomAndPan="magnify"><defs><filter height="300%" id="ff2w53n71occ" width="300%" x="-1" y="-1"><feGaussianBlur result="blurOut" stdDeviation="2.0"/><feColorMatrix in="blurOut" result="blurOut2" type="matrix" values="0 0 0 0 0 0 0 0 0 0 0 0 0 0 0 0 0 0 .4 0"/><feOffset dx="4.0" dy="4.0" in="blurOut2" result="blurOut3"/><feBlend in="SourceGraphic" in2="blurOut3" mode="normal"/></filter></defs><g><ellipse cx="455.5625" cy="20" fill="#000000" filter="url(#ff2w53n71occ)" rx="10" ry="10" style="stroke: none; stroke-width: 1.0;"/><rect fill="#FEFECE" filter="url(#ff2w53n71occ)" height="35.0938" rx="12.5" ry="12.5" style="stroke: #A80036; stroke-width: 1.5;" width="143" x="384.0625" y="50"/><text fill="#000000" font-family="sans-serif" font-size="12" lengthAdjust="spacingAndGlyphs" textLength="123" x="394.0625" y="72.457">User inputs command</text><rect fill="#FEFECE" filter="url(#ff2w53n71occ)" height="35.0938" rx="12.5" ry="12.5" style="stroke: #A80036; stroke-width: 1.5;" width="112" x="399.5625" y="105.0938"/><text fill="#000000" font-family="sans-serif" font-size="12" lengthAdjust="spacingAndGlyphs" textLength="92" x="409.5625" y="127.5508">Parse command</text><polygon fill="#FEFECE" filter="url(#ff2w53n71occ)" points="455.5625,160.1875,455.5625,160.1875,467.5625,172.1875,455.5625,184.1875,455.5625,184.1875,443.5625,172.1875,455.5625,160.1875" style="stroke: #A80036; stroke-width: 1.5;"/><text fill="#000000" font-family="sans-serif" font-size="11" lengthAdjust="spacingAndGlyphs" textLength="142" x="301.5625" y="169.7705">[command arguments is valid]</text><text fill="#000000" font-family="sans-serif" font-size="11" lengthAdjust="spacingAndGlyphs" textLength="26" x="467.5625" y="169.7705">[else]</text><rect fill="#FEFECE" filter="url(#ff2w53n71occ)" height="35.0938" rx="12.5" ry="12.5" style="stroke: #A80036; stroke-width: 1.5;" width="193" x="126.125" y="194.1875"/><text fill="#000000" font-family="sans-serif" font-size="12" lengthAdjust="spacingAndGlyphs" textLength="173" x="136.125" y="216.6445">Generate new delete command</text><rect fill="#FEFECE" filter="url(#ff2w53n71occ)" height="35.0938" rx="12.5" ry="12.5" style="stroke: #A80036; stroke-width: 1.5;" width="159" x="143.125" y="249.2813"/><text fill="#000000" font-family="sans-serif" font-size="12" lengthAdjust="spacingAndGlyphs" textLength="139" x="153.125" y="271.7383">Execute delete command</text><polygon fill="#FEFECE" filter="url(#ff2w53n71occ)" points="222.625,304.375,222.625,304.375,234.625,316.375,222.625,328.375,222.625,328.375,210.625,316.375,222.625,304.375" style="stroke: #A80036; stroke-width: 1.5;"/><text fill="#000000" font-family="sans-serif" font-size="11" lengthAdjust="spacingAndGlyphs" textLength="82" x="128.625" y="313.958">[Flag is order list]</text><text fill="#000000" font-family="sans-serif" font-size="11" lengthAdjust="spacingAndGlyphs" textLength="26" x="234.625" y="313.958">[else]</text><rect fill="#FEFECE" filter="url(#ff2w53n71occ)" height="35.0938" rx="12.5" ry="12.5" style="stroke: #A80036; stroke-width: 1.5;" width="138" x="10" y="338.375"/><text fill="#000000" font-family="sans-serif" font-size="12" lengthAdjust="spacingAndGlyphs" textLength="118" x="20" y="360.832">Obtain order to delete</text><rect fill="#FEFECE" filter="url(#ff2w53n71occ)" height="35.0938" rx="12.5" ry="12.5" style="stroke: #A80036; stroke-width: 1.5;" width="88" x="35" y="408.4688"/><text fill="#000000" font-family="sans-serif" font-size="12" lengthAdjust="spacingAndGlyphs" textLength="68" x="45" y="430.9258">Delete order</text><polygon fill="#FEFECE" filter="url(#ff2w53n71occ)" points="366.25,338.375,366.25,338.375,378.25,350.375,366.25,362.375,366.25,362.375,354.25,350.375,366.25,338.375" style="stroke: #A80036; stroke-width: 1.5;"/><text fill="#000000" font-family="sans-serif" font-size="11" lengthAdjust="spacingAndGlyphs" textLength="114" x="240.25" y="347.958">[Flag is return order list]</text><text fill="#000000" font-family="sans-serif" font-size="11" lengthAdjust="spacingAndGlyphs" textLength="26" x="378.25" y="347.958">[else]</text><rect fill="#FEFECE" filter="url(#ff2w53n71occ)" height="35.0938" rx="12.5" ry="12.5" style="stroke: #A80036; stroke-width: 1.5;" width="173" x="178" y="372.375"/><text fill="#000000" font-family="sans-serif" font-size="12" lengthAdjust="spacingAndGlyphs" textLength="153" x="188" y="394.832">Obtain return order to delete</text><rect fill="#FEFECE" filter="url(#ff2w53n71occ)" height="35.0938" rx="12.5" ry="12.5" style="stroke: #A80036; stroke-width: 1.5;" width="123" x="203" y="442.4688"/><text fill="#000000" font-family="sans-serif" font-size="12" lengthAdjust="spacingAndGlyphs" textLength="103" x="213" y="464.9258">Delete return order</text><rect fill="#FEFECE" filter="url(#ff2w53n71occ)" height="35.0938" rx="12.5" ry="12.5" style="stroke: #A80036; stroke-width: 1.5;" width="194" x="371" y="372.375"/><text fill="#000000" font-family="sans-serif" font-size="12" lengthAdjust="spacingAndGlyphs" textLength="174" x="381" y="394.832">Command Exception generated</text><polygon fill="#FEFECE" filter="url(#ff2w53n71occ)" points="366.25,483.5625,378.25,495.5625,366.25,507.5625,354.25,495.5625,366.25,483.5625" style="stroke: #A80036; stroke-width: 1.5;"/><polygon fill="#FEFECE" filter="url(#ff2w53n71occ)" points="222.625,513.5625,234.625,525.5625,222.625,537.5625,210.625,525.5625,222.625,513.5625" style="stroke: #A80036; stroke-width: 1.5;"/><rect fill="#FEFECE" filter="url(#ff2w53n71occ)" height="35.0938" rx="12.5" ry="12.5" style="stroke: #A80036; stroke-width: 1.5;" width="167" x="575" y="194.1875"/><text fill="#000000" font-family="sans-serif" font-size="12" lengthAdjust="spacingAndGlyphs" textLength="147" x="585" y="216.6445">Parse exception generated</text><polygon fill="#FEFECE" filter="url(#ff2w53n71occ)" points="455.5625,543.5625,467.5625,555.5625,455.5625,567.5625,443.5625,555.5625,455.5625,543.5625" style="stroke: #A80036; stroke-width: 1.5;"/><ellipse cx="455.5625" cy="598.5625" fill="#FFFFFF" filter="url(#ff2w53n71occ)" rx="11" ry="11" style="stroke: #000000; stroke-width: 1.0;"/><ellipse cx="455.5625" cy="598.5625" fill="#000000" rx="6" ry="6" style="stroke: #7F7F7F; stroke-width: 1.0;"/><line style="stroke: #A80036; stroke-width: 1.5;" x1="455.5625" x2="455.5625" y1="30" y2="50"/><polygon fill="#A80036" points="451.5625,40,455.5625,50,459.5625,40,455.5625,44" style="stroke: #A80036; stroke-width: 1.0;"/><line style="stroke: #A80036; stroke-width: 1.5;" x1="455.5625" x2="455.5625" y1="85.0938" y2="105.0938"/><polygon fill="#A80036" points="451.5625,95.0938,455.5625,105.0938,459.5625,95.0938,455.5625,99.0938" style="stroke: #A80036; stroke-width: 1.0;"/><line style="stroke: #A80036; stroke-width: 1.5;" x1="222.625" x2="222.625" y1="229.2813" y2="249.2813"/><polygon fill="#A80036" points="218.625,239.2813,222.625,249.2813,226.625,239.2813,222.625,243.2813" style="stroke: #A80036; stroke-width: 1.0;"/><line style="stroke: #A80036; stroke-width: 1.5;" x1="79" x2="79" y1="373.4688" y2="408.4688"/><polygon fill="#A80036" points="75,398.4688,79,408.4688,83,398.4688,79,402.4688" style="stroke: #A80036; stroke-width: 1.0;"/><line style="stroke: #A80036; stroke-width: 1.5;" x1="264.5" x2="264.5" y1="407.4688" y2="442.4688"/><polygon fill="#A80036" points="260.5,432.4688,264.5,442.4688,268.5,432.4688,264.5,436.4688" style="stroke: #A80036; stroke-width: 1.0;"/><line style="stroke: #A80036; stroke-width: 1.5;" x1="354.25" x2="264.5" y1="350.375" y2="350.375"/><line style="stroke: #A80036; stroke-width: 1.5;" x1="264.5" x2="264.5" y1="350.375" y2="372.375"/><polygon fill="#A80036" points="260.5,362.375,264.5,372.375,268.5,362.375,264.5,366.375" style="stroke: #A80036; stroke-width: 1.0;"/><line style="stroke: #A80036; stroke-width: 1.5;" x1="378.25" x2="468" y1="350.375" y2="350.375"/><line style="stroke: #A80036; stroke-width: 1.5;" x1="468" x2="468" y1="350.375" y2="372.375"/><polygon fill="#A80036" points="464,362.375,468,372.375,472,362.375,468,366.375" style="stroke: #A80036; stroke-width: 1.0;"/><line style="stroke: #A80036; stroke-width: 1.5;" x1="264.5" x2="264.5" y1="477.5625" y2="495.5625"/><line style="stroke: #A80036; stroke-width: 1.5;" x1="264.5" x2="354.25" y1="495.5625" y2="495.5625"/><polygon fill="#A80036" points="344.25,491.5625,354.25,495.5625,344.25,499.5625,348.25,495.5625" style="stroke: #A80036; stroke-width: 1.0;"/><line style="stroke: #A80036; stroke-width: 1.5;" x1="468" x2="468" y1="407.4688" y2="495.5625"/><line style="stroke: #A80036; stroke-width: 1.5;" x1="468" x2="378.25" y1="495.5625" y2="495.5625"/><polygon fill="#A80036" points="388.25,491.5625,378.25,495.5625,388.25,499.5625,384.25,495.5625" style="stroke: #A80036; stroke-width: 1.0;"/><line style="stroke: #A80036; stroke-width: 1.5;" x1="210.625" x2="79" y1="316.375" y2="316.375"/><line style="stroke: #A80036; stroke-width: 1.5;" x1="79" x2="79" y1="316.375" y2="338.375"/><polygon fill="#A80036" points="75,328.375,79,338.375,83,328.375,79,332.375" style="stroke: #A80036; stroke-width: 1.0;"/><line style="stroke: #A80036; stroke-width: 1.5;" x1="234.625" x2="366.25" y1="316.375" y2="316.375"/><line style="stroke: #A80036; stroke-width: 1.5;" x1="366.25" x2="366.25" y1="316.375" y2="338.375"/><polygon fill="#A80036" points="362.25,328.375,366.25,338.375,370.25,328.375,366.25,332.375" style="stroke: #A80036; stroke-width: 1.0;"/><line style="stroke: #A80036; stroke-width: 1.5;" x1="79" x2="79" y1="443.5625" y2="525.5625"/><line style="stroke: #A80036; stroke-width: 1.5;" x1="79" x2="210.625" y1="525.5625" y2="525.5625"/><polygon fill="#A80036" points="200.625,521.5625,210.625,525.5625,200.625,529.5625,204.625,525.5625" style="stroke: #A80036; stroke-width: 1.0;"/><line style="stroke: #A80036; stroke-width: 1.5;" x1="366.25" x2="366.25" y1="507.5625" y2="525.5625"/><line style="stroke: #A80036; stroke-width: 1.5;" x1="366.25" x2="234.625" y1="525.5625" y2="525.5625"/><polygon fill="#A80036" points="244.625,521.5625,234.625,525.5625,244.625,529.5625,240.625,525.5625" style="stroke: #A80036; stroke-width: 1.0;"/><line style="stroke: #A80036; stroke-width: 1.5;" x1="222.625" x2="222.625" y1="284.375" y2="304.375"/><polygon fill="#A80036" points="218.625,294.375,222.625,304.375,226.625,294.375,222.625,298.375" style="stroke: #A80036; stroke-width: 1.0;"/><line style="stroke: #A80036; stroke-width: 1.5;" x1="443.5625" x2="222.625" y1="172.1875" y2="172.1875"/><line style="stroke: #A80036; stroke-width: 1.5;" x1="222.625" x2="222.625" y1="172.1875" y2="194.1875"/><polygon fill="#A80036" points="218.625,184.1875,222.625,194.1875,226.625,184.1875,222.625,188.1875" style="stroke: #A80036; stroke-width: 1.0;"/><line style="stroke: #A80036; stroke-width: 1.5;" x1="467.5625" x2="658.5" y1="172.1875" y2="172.1875"/><line style="stroke: #A80036; stroke-width: 1.5;" x1="658.5" x2="658.5" y1="172.1875" y2="194.1875"/><polygon fill="#A80036" points="654.5,184.1875,658.5,194.1875,662.5,184.1875,658.5,188.1875" style="stroke: #A80036; stroke-width: 1.0;"/><line style="stroke: #A80036; stroke-width: 1.5;" x1="222.625" x2="222.625" y1="537.5625" y2="555.5625"/><line style="stroke: #A80036; stroke-width: 1.5;" x1="222.625" x2="443.5625" y1="555.5625" y2="555.5625"/><polygon fill="#A80036" points="433.5625,551.5625,443.5625,555.5625,433.5625,559.5625,437.5625,555.5625" style="stroke: #A80036; stroke-width: 1.0;"/><line style="stroke: #A80036; stroke-width: 1.5;" x1="658.5" x2="658.5" y1="229.2813" y2="555.5625"/><line style="stroke: #A80036; stroke-width: 1.5;" x1="658.5" x2="467.5625" y1="555.5625" y2="555.5625"/><polygon fill="#A80036" points="477.5625,551.5625,467.5625,555.5625,477.5625,559.5625,473.5625,555.5625" style="stroke: #A80036; stroke-width: 1.0;"/><line style="stroke: #A80036; stroke-width: 1.5;" x1="455.5625" x2="455.5625" y1="140.1875" y2="160.1875"/><polygon fill="#A80036" points="451.5625,150.1875,455.5625,160.1875,459.5625,150.1875,455.5625,154.1875" style="stroke: #A80036; stroke-width: 1.0;"/><line style="stroke: #A80036; stroke-width: 1.5;" x1="455.5625" x2="455.5625" y1="567.5625" y2="587.5625"/><polygon fill="#A80036" points="451.5625,577.5625,455.5625,587.5625,459.5625,577.5625,455.5625,581.5625" style="stroke: #A80036; stroke-width: 1.0;"/><!--MD5=[86f2f85dae966cfdde0810d40dd55892]
@startuml
start
:User inputs command;
:Parse command;

if () then ([command arguments is valid])
    :Generate new delete command;
    :Execute delete command;
    if () then ([Flag is order list])
    :Obtain order to delete;
    :Delete order;
    else ([else])
        if () then ([Flag is return order list])
        :Obtain return order to delete;
        :Delete return order;
        else ([else])
        :Command Exception generated;
        endif
    endif
else ([else])
    :Parse exception generated;
endif

stop
@enduml

PlantUML version 1.2020.03beta6(Unknown compile time)
(GPL source distribution)
Java Runtime: OpenJDK Runtime Environment
JVM: OpenJDK 64-Bit Server VM
Java Version: 11.0.6+8-b520.43
Operating System: Windows 10
Default Encoding: Cp1252
Language: en
Country: SG
--></g></svg>
