<?xml version="1.0" encoding="UTF-8" standalone="no"?><svg xmlns="http://www.w3.org/2000/svg" xmlns:xlink="http://www.w3.org/1999/xlink" contentScriptType="application/ecmascript" contentStyleType="text/css" height="544px" preserveAspectRatio="none" style="width:1095px;height:544px;" version="1.1" viewBox="0 0 1095 544" width="1095px" zoomAndPan="magnify"><defs/><g><rect fill="#C8C8FA" height="522.8438" style="stroke: #A80036; stroke-width: 1.0;" width="912" x="78.5" y="4"/><text fill="#FFFFFF" font-family="sans-serif" font-size="15" font-weight="bold" lengthAdjust="spacingAndGlyphs" textLength="43" x="510.5" y="17.9233">Logic</text><rect fill="#F97181" height="522.8438" style="stroke: #A80036; stroke-width: 1.0;" width="92" x="992.5" y="4"/><text fill="#FFFFFF" font-family="sans-serif" font-size="15" font-weight="bold" lengthAdjust="spacingAndGlyphs" textLength="48" x="1012" y="17.9233">Model</text><rect fill="#FFFFFF" height="426.9531" style="stroke: #A80036; stroke-width: 1.0;" width="10" x="145" y="87.8906"/><rect fill="#FFFFFF" height="227.125" style="stroke: #A80036; stroke-width: 1.0;" width="10" x="349" y="117.0234"/><rect fill="#FFFFFF" height="31.2969" style="stroke: #A80036; stroke-width: 1.0;" width="10" x="542.5" y="141.0234"/><rect fill="#FFFFFF" height="99.5625" style="stroke: #A80036; stroke-width: 1.0;" width="10" x="542.5" y="201.4531"/><rect fill="#FFFFFF" height="46.4297" style="stroke: #A80036; stroke-width: 1.0;" width="10" x="735" y="225.4531"/><rect fill="#FFFFFF" height="127.5625" style="stroke: #A80036; stroke-width: 1.0;" width="10" x="735" y="373.2813"/><rect fill="#FFFFFF" height="31.2969" style="stroke: #A80036; stroke-width: 1.0;" width="10" x="904.5" y="440.4141"/><rect fill="#FFFFFF" height="14" style="stroke: #A80036; stroke-width: 1.0;" width="10" x="1033.5" y="402.4141"/><line style="stroke: #A80036; stroke-width: 1.0; stroke-dasharray: 5.0,5.0;" x1="149.5" x2="149.5" y1="56.7578" y2="532.8438"/><line style="stroke: #A80036; stroke-width: 1.0; stroke-dasharray: 5.0,5.0;" x1="353.5" x2="353.5" y1="56.7578" y2="532.8438"/><line style="stroke: #A80036; stroke-width: 1.0; stroke-dasharray: 5.0,5.0;" x1="547.5" x2="547.5" y1="155.6719" y2="532.8438"/><line style="stroke: #A80036; stroke-width: 1.0; stroke-dasharray: 5.0,5.0;" x1="739.5" x2="739.5" y1="240.1016" y2="532.8438"/><line style="stroke: #A80036; stroke-width: 1.0; stroke-dasharray: 5.0,5.0;" x1="909.5" x2="909.5" y1="455.0625" y2="532.8438"/><line style="stroke: #A80036; stroke-width: 1.0; stroke-dasharray: 5.0,5.0;" x1="1038.5" x2="1038.5" y1="56.7578" y2="532.8438"/><rect fill="#3333C4" height="30.2969" style="stroke: #A80036; stroke-width: 1.5;" width="115" x="92.5" y="25.4609"/><text fill="#FFFFFF" font-family="sans-serif" font-size="14" lengthAdjust="spacingAndGlyphs" textLength="101" x="99.5" y="45.4561">:LogicManager</text><rect fill="#3333C4" height="30.2969" style="stroke: #A80036; stroke-width: 1.5;" width="147" x="280.5" y="25.4609"/><text fill="#FFFFFF" font-family="sans-serif" font-size="14" lengthAdjust="spacingAndGlyphs" textLength="133" x="287.5" y="45.4561">:RecipeBookParser</text><rect fill="#9D0012" height="30.2969" style="stroke: #A80036; stroke-width: 1.5;" width="64" x="1006.5" y="25.4609"/><text fill="#FFFFFF" font-family="sans-serif" font-size="14" lengthAdjust="spacingAndGlyphs" textLength="47" x="1015" y="45.4561">:Model</text><rect fill="#FFFFFF" height="426.9531" style="stroke: #A80036; stroke-width: 1.0;" width="10" x="145" y="87.8906"/><rect fill="#FFFFFF" height="227.125" style="stroke: #A80036; stroke-width: 1.0;" width="10" x="349" y="117.0234"/><rect fill="#FFFFFF" height="31.2969" style="stroke: #A80036; stroke-width: 1.0;" width="10" x="542.5" y="141.0234"/><rect fill="#FFFFFF" height="99.5625" style="stroke: #A80036; stroke-width: 1.0;" width="10" x="542.5" y="201.4531"/><rect fill="#FFFFFF" height="46.4297" style="stroke: #A80036; stroke-width: 1.0;" width="10" x="735" y="225.4531"/><rect fill="#FFFFFF" height="127.5625" style="stroke: #A80036; stroke-width: 1.0;" width="10" x="735" y="373.2813"/><rect fill="#FFFFFF" height="31.2969" style="stroke: #A80036; stroke-width: 1.0;" width="10" x="904.5" y="440.4141"/><rect fill="#FFFFFF" height="14" style="stroke: #A80036; stroke-width: 1.0;" width="10" x="1033.5" y="402.4141"/><polygon fill="#A80036" points="133,83.8906,143,87.8906,133,91.8906,137,87.8906" style="stroke: #A80036; stroke-width: 1.0;"/><line style="stroke: #A80036; stroke-width: 1.0;" x1="3" x2="139" y1="87.8906" y2="87.8906"/><text fill="#000000" font-family="sans-serif" font-size="13" lengthAdjust="spacingAndGlyphs" textLength="123" x="12.5" y="82.8247">execute("delete 1")</text><polygon fill="#A80036" points="337,113.0234,347,117.0234,337,121.0234,341,117.0234" style="stroke: #A80036; stroke-width: 1.0;"/><line style="stroke: #A80036; stroke-width: 1.0;" x1="155" x2="343" y1="117.0234" y2="117.0234"/><text fill="#000000" font-family="sans-serif" font-size="13" lengthAdjust="spacingAndGlyphs" textLength="175" x="164.5" y="111.9575">parseCommand("delete 1")</text><polygon fill="#A80036" points="445.5,127.0234,455.5,131.0234,445.5,135.0234,449.5,131.0234" style="stroke: #A80036; stroke-width: 1.0;"/><line style="stroke: #A80036; stroke-width: 1.0;" x1="359" x2="451.5" y1="131.0234" y2="131.0234"/><rect fill="#3333C4" height="30.2969" style="stroke: #A80036; stroke-width: 1.5;" width="180" x="457.5" y="125.0234"/><text fill="#FFFFFF" font-family="sans-serif" font-size="14" lengthAdjust="spacingAndGlyphs" textLength="166" x="464.5" y="145.0186">:DeleteCommandParser</text><polygon fill="#A80036" points="370,168.3203,360,172.3203,370,176.3203,366,172.3203" style="stroke: #A80036; stroke-width: 1.0;"/><line style="stroke: #A80036; stroke-width: 1.0; stroke-dasharray: 2.0,2.0;" x1="364" x2="546.5" y1="172.3203" y2="172.3203"/><polygon fill="#A80036" points="530.5,197.4531,540.5,201.4531,530.5,205.4531,534.5,201.4531" style="stroke: #A80036; stroke-width: 1.0;"/><line style="stroke: #A80036; stroke-width: 1.0;" x1="359" x2="536.5" y1="201.4531" y2="201.4531"/><text fill="#000000" font-family="sans-serif" font-size="13" lengthAdjust="spacingAndGlyphs" textLength="64" x="418.75" y="196.3872">parse("1")</text><polygon fill="#A80036" points="655.5,211.4531,665.5,215.4531,655.5,219.4531,659.5,215.4531" style="stroke: #A80036; stroke-width: 1.0;"/><line style="stroke: #A80036; stroke-width: 1.0;" x1="552.5" x2="661.5" y1="215.4531" y2="215.4531"/><rect fill="#3333C4" height="30.2969" style="stroke: #A80036; stroke-width: 1.5;" width="145" x="667.5" y="209.4531"/><text fill="#FFFFFF" font-family="sans-serif" font-size="14" lengthAdjust="spacingAndGlyphs" textLength="131" x="674.5" y="229.4482">d:DeleteCommand</text><polygon fill="#A80036" points="563.5,267.8828,553.5,271.8828,563.5,275.8828,559.5,271.8828" style="stroke: #A80036; stroke-width: 1.0;"/><line style="stroke: #A80036; stroke-width: 1.0; stroke-dasharray: 2.0,2.0;" x1="557.5" x2="739" y1="271.8828" y2="271.8828"/><text fill="#000000" font-family="sans-serif" font-size="13" lengthAdjust="spacingAndGlyphs" textLength="8" x="642.25" y="266.8169">d</text><polygon fill="#A80036" points="370,297.0156,360,301.0156,370,305.0156,366,301.0156" style="stroke: #A80036; stroke-width: 1.0;"/><line style="stroke: #A80036; stroke-width: 1.0; stroke-dasharray: 2.0,2.0;" x1="364" x2="546.5" y1="301.0156" y2="301.0156"/><text fill="#000000" font-family="sans-serif" font-size="13" lengthAdjust="spacingAndGlyphs" textLength="8" x="449.25" y="295.9497">d</text><line style="stroke: #A80036; stroke-width: 2.0;" x1="538.5" x2="556.5" y1="306.0156" y2="324.0156"/><line style="stroke: #A80036; stroke-width: 2.0;" x1="538.5" x2="556.5" y1="324.0156" y2="306.0156"/><polygon fill="#A80036" points="166,340.1484,156,344.1484,166,348.1484,162,344.1484" style="stroke: #A80036; stroke-width: 1.0;"/><line style="stroke: #A80036; stroke-width: 1.0; stroke-dasharray: 2.0,2.0;" x1="160" x2="353" y1="344.1484" y2="344.1484"/><text fill="#000000" font-family="sans-serif" font-size="13" lengthAdjust="spacingAndGlyphs" textLength="8" x="250.5" y="339.0825">d</text><polygon fill="#A80036" points="723,369.2813,733,373.2813,723,377.2813,727,373.2813" style="stroke: #A80036; stroke-width: 1.0;"/><line style="stroke: #A80036; stroke-width: 1.0;" x1="155" x2="729" y1="373.2813" y2="373.2813"/><text fill="#000000" font-family="sans-serif" font-size="13" lengthAdjust="spacingAndGlyphs" textLength="61" x="414.5" y="368.2153">execute()</text><polygon fill="#A80036" points="1021.5,398.4141,1031.5,402.4141,1021.5,406.4141,1025.5,402.4141" style="stroke: #A80036; stroke-width: 1.0;"/><line style="stroke: #A80036; stroke-width: 1.0;" x1="745" x2="1027.5" y1="402.4141" y2="402.4141"/><text fill="#000000" font-family="sans-serif" font-size="13" lengthAdjust="spacingAndGlyphs" textLength="100" x="839.25" y="397.3481">deleteRecipe(1)</text><polygon fill="#A80036" points="756,412.4141,746,416.4141,756,420.4141,752,416.4141" style="stroke: #A80036; stroke-width: 1.0;"/><line style="stroke: #A80036; stroke-width: 1.0; stroke-dasharray: 2.0,2.0;" x1="750" x2="1037.5" y1="416.4141" y2="416.4141"/><polygon fill="#A80036" points="830.5,426.4141,840.5,430.4141,830.5,434.4141,834.5,430.4141" style="stroke: #A80036; stroke-width: 1.0;"/><line style="stroke: #A80036; stroke-width: 1.0;" x1="745" x2="836.5" y1="430.4141" y2="430.4141"/><rect fill="#3333C4" height="30.2969" style="stroke: #A80036; stroke-width: 1.5;" width="134" x="842.5" y="424.4141"/><text fill="#FFFFFF" font-family="sans-serif" font-size="14" lengthAdjust="spacingAndGlyphs" textLength="120" x="849.5" y="444.4092">:CommandResult</text><polygon fill="#A80036" points="756,467.7109,746,471.7109,756,475.7109,752,471.7109" style="stroke: #A80036; stroke-width: 1.0;"/><line style="stroke: #A80036; stroke-width: 1.0; stroke-dasharray: 2.0,2.0;" x1="750" x2="908.5" y1="471.7109" y2="471.7109"/><polygon fill="#A80036" points="166,496.8438,156,500.8438,166,504.8438,162,500.8438" style="stroke: #A80036; stroke-width: 1.0;"/><line style="stroke: #A80036; stroke-width: 1.0; stroke-dasharray: 2.0,2.0;" x1="160" x2="739" y1="500.8438" y2="500.8438"/><text fill="#000000" font-family="sans-serif" font-size="13" lengthAdjust="spacingAndGlyphs" textLength="36" x="429.5" y="495.7778">result</text><polygon fill="#A80036" points="14,510.8438,4,514.8438,14,518.8438,10,514.8438" style="stroke: #A80036; stroke-width: 1.0;"/><line style="stroke: #A80036; stroke-width: 1.0; stroke-dasharray: 2.0,2.0;" x1="8" x2="149" y1="514.8438" y2="514.8438"/><!--MD5=[80073a2714548f13ee8bc1c277b9c633]
@startuml








skinparam BackgroundColor #FFFFFFF

skinparam Shadowing false

skinparam Class {
    FontColor #FFFFFF
    BorderThickness 1
    BorderColor #FFFFFF
    StereotypeFontColor #FFFFFF
    FontName Arial
}

skinparam Actor {
    BorderColor #000000
    Color #000000
    FontName Arial
}

skinparam Sequence {
    MessageAlign center
    BoxFontSize 15
    BoxPadding 0
    BoxFontColor #FFFFFF
    FontName Arial
}

skinparam Participant {
    FontColor #FFFFFFF
    Padding 20
}

skinparam MinClassWidth 50
skinparam ParticipantPadding 10
skinparam Shadowing false
skinparam DefaultTextAlignment center
skinparam packageStyle Rectangle

hide footbox
hide members
hide circle


box Logic #C8C8FA
participant ":LogicManager" as LogicManager #3333C4
participant ":RecipeBookParser" as RecipeBookParser #3333C4
participant ":DeleteCommandParser" as DeleteCommandParser #3333C4
participant "d:DeleteCommand" as DeleteCommand #3333C4
participant ":CommandResult" as CommandResult #3333C4
end box

box Model #F97181
participant ":Model" as Model #9D0012
end box

[-> LogicManager : execute("delete 1")
activate LogicManager

LogicManager -> RecipeBookParser : parseCommand("delete 1")
activate RecipeBookParser

create DeleteCommandParser
RecipeBookParser -> DeleteCommandParser
activate DeleteCommandParser

DeleteCommandParser - -> RecipeBookParser
deactivate DeleteCommandParser

RecipeBookParser -> DeleteCommandParser : parse("1")
activate DeleteCommandParser

create DeleteCommand
DeleteCommandParser -> DeleteCommand
activate DeleteCommand

DeleteCommand - -> DeleteCommandParser : d
deactivate DeleteCommand

DeleteCommandParser - -> RecipeBookParser : d
deactivate DeleteCommandParser
DeleteCommandParser -[hidden]-> RecipeBookParser
destroy DeleteCommandParser

RecipeBookParser - -> LogicManager : d
deactivate RecipeBookParser

LogicManager -> DeleteCommand : execute()
activate DeleteCommand

DeleteCommand -> Model : deleteRecipe(1)
activate Model

Model - -> DeleteCommand
deactivate Model

create CommandResult
DeleteCommand -> CommandResult
activate CommandResult

CommandResult - -> DeleteCommand
deactivate CommandResult

DeleteCommand - -> LogicManager : result
deactivate DeleteCommand

[<- -LogicManager
deactivate LogicManager
@enduml

PlantUML version 1.2020.03beta11(Unknown compile time)
(GPL source distribution)
Java Runtime: Java(TM) SE Runtime Environment
JVM: Java HotSpot(TM) 64-Bit Server VM
Java Version: 1.7.0_25-b15
Operating System: Linux
Default Encoding: UTF-8
Language: en
Country: US
--></g></svg>
