<?xml version="1.0" encoding="UTF-8" standalone="no"?><svg xmlns="http://www.w3.org/2000/svg" xmlns:xlink="http://www.w3.org/1999/xlink" contentScriptType="application/ecmascript" contentStyleType="text/css" height="2508px" preserveAspectRatio="none" style="width:2054px;height:2508px;" version="1.1" viewBox="0 0 2054 2508" width="2054px" zoomAndPan="magnify"><defs/><g><rect fill="#C8C8FA" height="2465.8281" style="stroke: #A80036; stroke-width: 2.0;" width="990" x="58" y="8"/><text fill="#FFFFFF" font-family="sans-serif" font-size="30" font-weight="bold" lengthAdjust="spacingAndGlyphs" textLength="84" x="506" y="37.0039">Logic</text><rect fill="#F97181" height="2465.8281" style="stroke: #A80036; stroke-width: 2.0;" width="946" x="1052" y="8"/><text fill="#FFFFFF" font-family="sans-serif" font-size="30" font-weight="bold" lengthAdjust="spacingAndGlyphs" textLength="96" x="1472" y="37.0039">Model</text><rect fill="#FFFFFF" height="1713.2617" style="stroke: #A80036; stroke-width: 2.0;" width="20" x="190" y="134.3086"/><rect fill="#FFFFFF" height="1622.0195" style="stroke: #A80036; stroke-width: 2.0;" width="20" x="526" y="225.5508"/><rect fill="#FFFFFF" height="80.6211" style="stroke: #A80036; stroke-width: 2.0;" width="20" x="536" y="300.1719"/><rect fill="#FFFFFF" height="316.4844" style="stroke: #A80036; stroke-width: 2.0;" width="20" x="526" y="2119.3438"/><rect fill="#FFFFFF" height="58.6211" style="stroke: #A80036; stroke-width: 2.0;" width="20" x="879" y="1730.3281"/><rect fill="#FFFFFF" height="58.6211" style="stroke: #A80036; stroke-width: 2.0;" width="20" x="879" y="2318.5859"/><rect fill="#FFFFFF" height="716.5664" style="stroke: #A80036; stroke-width: 2.0;" width="20" x="1134" y="528.0352"/><rect fill="#FFFFFF" height="80.6211" style="stroke: #A80036; stroke-width: 2.0;" width="20" x="1144" y="772.2539"/><rect fill="#FFFFFF" height="281.8633" style="stroke: #A80036; stroke-width: 2.0;" width="20" x="1134" y="1420.4648"/><rect fill="#FFFFFF" height="324.4844" style="stroke: #A80036; stroke-width: 2.0;" width="20" x="1134" y="1966.1016"/><rect fill="#FFFFFF" height="32.3555" style="stroke: #A80036; stroke-width: 2.0;" width="20" x="1896" y="616.6563"/><rect fill="#FFFFFF" height="58.6211" style="stroke: #A80036; stroke-width: 2.0;" width="20" x="1896" y="1127.3594"/><rect fill="#FFFFFF" height="58.6211" style="stroke: #A80036; stroke-width: 2.0;" width="20" x="1896" y="1303.2227"/><rect fill="#FFFFFF" height="2303.5195" style="stroke: #000000; stroke-width: 4.0;" width="2004" x="26" y="148.3086"/><rect fill="#FFFFFF" height="1184.5586" style="stroke: #000000; stroke-width: 4.0;" width="1964" x="46" y="679.0117"/><rect fill="#FFFFFF" height="574.2578" style="stroke: none; stroke-width: 2.0;" width="2004" x="26" y="1877.5703"/><line style="stroke: #A80036; stroke-width: 2.0; stroke-dasharray: 5.0,5.0;" x1="200" x2="200" y1="114.3086" y2="2485.8281"/><line style="stroke: #A80036; stroke-width: 2.0; stroke-dasharray: 5.0,5.0;" x1="536" x2="536" y1="114.3086" y2="2485.8281"/><line style="stroke: #A80036; stroke-width: 2.0; stroke-dasharray: 5.0,5.0;" x1="888" x2="888" y1="114.3086" y2="2485.8281"/><line style="stroke: #A80036; stroke-width: 2.0; stroke-dasharray: 5.0,5.0;" x1="1144" x2="1144" y1="114.3086" y2="2485.8281"/><line style="stroke: #A80036; stroke-width: 2.0; stroke-dasharray: 5.0,5.0;" x1="1906" x2="1906" y1="615.5234" y2="2485.8281"/><rect fill="#3333C4" height="60.9766" style="stroke: #A80036; stroke-width: 3.0;" width="228" x="86" y="51.332"/><text fill="#FFFFFF" font-family="sans-serif" font-size="28" lengthAdjust="spacingAndGlyphs" textLength="200" x="100" y="92.4023">:LogicManager</text><rect fill="#3333C4" height="60.9766" style="stroke: #A80036; stroke-width: 3.0;" width="324" x="374" y="51.332"/><text fill="#FFFFFF" font-family="sans-serif" font-size="28" lengthAdjust="spacingAndGlyphs" textLength="296" x="388" y="92.4023">d:DeliveredCommand</text><rect fill="#3333C4" height="60.9766" style="stroke: #A80036; stroke-width: 3.0;" width="262" x="758" y="51.332"/><text fill="#FFFFFF" font-family="sans-serif" font-size="28" lengthAdjust="spacingAndGlyphs" textLength="234" x="772" y="92.4023">:CommandResult</text><rect fill="#9D0012" height="60.9766" style="stroke: #A80036; stroke-width: 3.0;" width="128" x="1080" y="51.332"/><text fill="#FFFFFF" font-family="sans-serif" font-size="28" lengthAdjust="spacingAndGlyphs" textLength="92" x="1098" y="92.4023">:Model</text><rect fill="#FFFFFF" height="1713.2617" style="stroke: #A80036; stroke-width: 2.0;" width="20" x="190" y="134.3086"/><rect fill="#FFFFFF" height="1622.0195" style="stroke: #A80036; stroke-width: 2.0;" width="20" x="526" y="225.5508"/><rect fill="#FFFFFF" height="80.6211" style="stroke: #A80036; stroke-width: 2.0;" width="20" x="536" y="300.1719"/><rect fill="#FFFFFF" height="316.4844" style="stroke: #A80036; stroke-width: 2.0;" width="20" x="526" y="2119.3438"/><rect fill="#FFFFFF" height="58.6211" style="stroke: #A80036; stroke-width: 2.0;" width="20" x="879" y="1730.3281"/><rect fill="#FFFFFF" height="58.6211" style="stroke: #A80036; stroke-width: 2.0;" width="20" x="879" y="2318.5859"/><rect fill="#FFFFFF" height="716.5664" style="stroke: #A80036; stroke-width: 2.0;" width="20" x="1134" y="528.0352"/><rect fill="#FFFFFF" height="80.6211" style="stroke: #A80036; stroke-width: 2.0;" width="20" x="1144" y="772.2539"/><rect fill="#FFFFFF" height="281.8633" style="stroke: #A80036; stroke-width: 2.0;" width="20" x="1134" y="1420.4648"/><rect fill="#FFFFFF" height="324.4844" style="stroke: #A80036; stroke-width: 2.0;" width="20" x="1134" y="1966.1016"/><rect fill="#FFFFFF" height="32.3555" style="stroke: #A80036; stroke-width: 2.0;" width="20" x="1896" y="616.6563"/><rect fill="#FFFFFF" height="58.6211" style="stroke: #A80036; stroke-width: 2.0;" width="20" x="1896" y="1127.3594"/><rect fill="#FFFFFF" height="58.6211" style="stroke: #A80036; stroke-width: 2.0;" width="20" x="1896" y="1303.2227"/><path d="M26,148.3086 L598,148.3086 L598,162.3086 L578,182.3086 L26,182.3086 L26,148.3086 " fill="#EEEEEE" style="stroke: #000000; stroke-width: 2.0;"/><rect fill="none" height="2303.5195" style="stroke: #000000; stroke-width: 4.0;" width="2004" x="26" y="148.3086"/><text fill="#000000" font-family="sans-serif" font-size="26" font-weight="bold" lengthAdjust="spacingAndGlyphs" textLength="482" x="56" y="175.4453">sd Execution of DeliveredCommand</text><polygon fill="#A80036" points="502,217.5508,522,225.5508,502,233.5508,510,225.5508" style="stroke: #A80036; stroke-width: 2.0;"/><line style="stroke: #A80036; stroke-width: 2.0;" x1="210" x2="514" y1="225.5508" y2="225.5508"/><text fill="#000000" font-family="sans-serif" font-size="26" lengthAdjust="spacingAndGlyphs" textLength="192" x="272" y="216.0664">execute(model)</text><line style="stroke: #A80036; stroke-width: 2.0;" x1="546" x2="640" y1="274.1719" y2="274.1719"/><line style="stroke: #A80036; stroke-width: 2.0;" x1="640" x2="640" y1="274.1719" y2="300.1719"/><line style="stroke: #A80036; stroke-width: 2.0;" x1="558" x2="640" y1="300.1719" y2="300.1719"/><polygon fill="#A80036" points="578,292.1719,558,300.1719,578,308.1719,570,300.1719" style="stroke: #A80036; stroke-width: 2.0;"/><text fill="#000000" font-family="sans-serif" font-size="26" lengthAdjust="spacingAndGlyphs" textLength="246" x="570" y="264.6875">isFlagForOrderList()</text><line style="stroke: #A80036; stroke-width: 2.0; stroke-dasharray: 2.0,2.0;" x1="556" x2="640" y1="378.793" y2="378.793"/><line style="stroke: #A80036; stroke-width: 2.0; stroke-dasharray: 2.0,2.0;" x1="640" x2="640" y1="378.793" y2="404.793"/><line style="stroke: #A80036; stroke-width: 2.0; stroke-dasharray: 2.0,2.0;" x1="546" x2="640" y1="404.793" y2="404.793"/><polygon fill="#A80036" points="566,396.793,546,404.793,566,412.793,558,404.793" style="stroke: #A80036; stroke-width: 2.0;"/><text fill="#000000" font-family="sans-serif" font-size="26" lengthAdjust="spacingAndGlyphs" textLength="50" x="570" y="369.3086">true</text><polygon fill="#A80036" points="1120,445.4141,1140,453.4141,1120,461.4141,1128,453.4141" style="stroke: #A80036; stroke-width: 2.0;"/><line style="stroke: #A80036; stroke-width: 2.0;" x1="546" x2="1132" y1="453.4141" y2="453.4141"/><text fill="#000000" font-family="sans-serif" font-size="26" lengthAdjust="spacingAndGlyphs" textLength="394" x="648" y="443.9297">processDeliveryOfOrder(model)</text><line style="stroke: #A80036; stroke-width: 2.0;" x1="1144" x2="1238" y1="502.0352" y2="502.0352"/><line style="stroke: #A80036; stroke-width: 2.0;" x1="1238" x2="1238" y1="502.0352" y2="528.0352"/><line style="stroke: #A80036; stroke-width: 2.0;" x1="1156" x2="1238" y1="528.0352" y2="528.0352"/><polygon fill="#A80036" points="1176,520.0352,1156,528.0352,1176,536.0352,1168,528.0352" style="stroke: #A80036; stroke-width: 2.0;"/><text fill="#000000" font-family="sans-serif" font-size="26" lengthAdjust="spacingAndGlyphs" textLength="266" x="1168" y="492.5508">getFilteredOrderList()</text><polygon fill="#A80036" points="1818,588.6563,1838,596.6563,1818,604.6563,1826,596.6563" style="stroke: #A80036; stroke-width: 2.0;"/><line style="stroke: #A80036; stroke-width: 2.0;" x1="1154" x2="1830" y1="596.6563" y2="596.6563"/><text fill="#000000" font-family="sans-serif" font-size="26" lengthAdjust="spacingAndGlyphs" textLength="72" x="1462" y="587.1719">get(1)</text><rect fill="#3333C4" height="60.9766" style="stroke: #A80036; stroke-width: 3.0;" width="128" x="1842" y="554.0352"/><text fill="#FFFFFF" font-family="sans-serif" font-size="28" lengthAdjust="spacingAndGlyphs" textLength="88" x="1862" y="595.1055">:Order</text><polygon fill="#A80036" points="1176,641.0117,1156,649.0117,1176,657.0117,1168,649.0117" style="stroke: #A80036; stroke-width: 2.0;"/><line style="stroke: #A80036; stroke-width: 2.0; stroke-dasharray: 2.0,2.0;" x1="1164" x2="1904" y1="649.0117" y2="649.0117"/><path d="M46,679.0117 L170,679.0117 L170,693.0117 L150,713.0117 L46,713.0117 L46,679.0117 " fill="#EEEEEE" style="stroke: #000000; stroke-width: 2.0;"/><rect fill="none" height="1184.5586" style="stroke: #000000; stroke-width: 4.0;" width="1964" x="46" y="679.0117"/><text fill="#000000" font-family="sans-serif" font-size="26" font-weight="bold" lengthAdjust="spacingAndGlyphs" textLength="34" x="76" y="706.1484">alt</text><text fill="#000000" font-family="sans-serif" font-size="22" font-weight="bold" lengthAdjust="spacingAndGlyphs" textLength="282" x="200" y="704.2813">[order was not delivered]</text><line style="stroke: #A80036; stroke-width: 2.0;" x1="1154" x2="1248" y1="746.2539" y2="746.2539"/><line style="stroke: #A80036; stroke-width: 2.0;" x1="1248" x2="1248" y1="746.2539" y2="772.2539"/><line style="stroke: #A80036; stroke-width: 2.0;" x1="1166" x2="1248" y1="772.2539" y2="772.2539"/><polygon fill="#A80036" points="1186,764.2539,1166,772.2539,1186,780.2539,1178,772.2539" style="stroke: #A80036; stroke-width: 2.0;"/><text fill="#000000" font-family="sans-serif" font-size="26" lengthAdjust="spacingAndGlyphs" textLength="156" x="1178" y="736.7695">isDelivered()</text><line style="stroke: #A80036; stroke-width: 2.0; stroke-dasharray: 2.0,2.0;" x1="1164" x2="1248" y1="850.875" y2="850.875"/><line style="stroke: #A80036; stroke-width: 2.0; stroke-dasharray: 2.0,2.0;" x1="1248" x2="1248" y1="850.875" y2="876.875"/><line style="stroke: #A80036; stroke-width: 2.0; stroke-dasharray: 2.0,2.0;" x1="1154" x2="1248" y1="876.875" y2="876.875"/><polygon fill="#A80036" points="1174,868.875,1154,876.875,1174,884.875,1166,876.875" style="stroke: #A80036; stroke-width: 2.0;"/><text fill="#000000" font-family="sans-serif" font-size="26" lengthAdjust="spacingAndGlyphs" textLength="60" x="1178" y="841.3906">false</text><polygon fill="#A80036" points="568,917.4961,548,925.4961,568,933.4961,560,925.4961" style="stroke: #A80036; stroke-width: 2.0;"/><line style="stroke: #A80036; stroke-width: 2.0; stroke-dasharray: 2.0,2.0;" x1="556" x2="1132" y1="925.4961" y2="925.4961"/><text fill="#000000" font-family="sans-serif" font-size="26" lengthAdjust="spacingAndGlyphs" textLength="60" x="810" y="916.0117">false</text><polygon fill="#A80036" points="1110,976.1172,1130,984.1172,1110,992.1172,1118,984.1172" style="stroke: #A80036; stroke-width: 2.0;"/><line style="stroke: #A80036; stroke-width: 2.0;" x1="546" x2="1122" y1="984.1172" y2="984.1172"/><text fill="#000000" font-family="sans-serif" font-size="26" lengthAdjust="spacingAndGlyphs" textLength="432" x="624" y="974.6328">deliverAndUpdateOrderList(model)</text><line style="stroke: #A80036; stroke-width: 2.0;" x1="1154" x2="1238" y1="1042.7383" y2="1042.7383"/><line style="stroke: #A80036; stroke-width: 2.0;" x1="1238" x2="1238" y1="1042.7383" y2="1068.7383"/><line style="stroke: #A80036; stroke-width: 2.0;" x1="1156" x2="1238" y1="1068.7383" y2="1068.7383"/><polygon fill="#A80036" points="1176,1060.7383,1156,1068.7383,1176,1076.7383,1168,1068.7383" style="stroke: #A80036; stroke-width: 2.0;"/><text fill="#000000" font-family="sans-serif" font-size="26" lengthAdjust="spacingAndGlyphs" textLength="266" x="1168" y="1033.2539">getFilteredOrderList()</text><polygon fill="#A80036" points="1872,1119.3594,1892,1127.3594,1872,1135.3594,1880,1127.3594" style="stroke: #A80036; stroke-width: 2.0;"/><line style="stroke: #A80036; stroke-width: 2.0;" x1="1154" x2="1884" y1="1127.3594" y2="1127.3594"/><text fill="#000000" font-family="sans-serif" font-size="26" lengthAdjust="spacingAndGlyphs" textLength="72" x="1489" y="1117.875">get(1)</text><polygon fill="#A80036" points="1176,1177.9805,1156,1185.9805,1176,1193.9805,1168,1185.9805" style="stroke: #A80036; stroke-width: 2.0;"/><line style="stroke: #A80036; stroke-width: 2.0; stroke-dasharray: 2.0,2.0;" x1="1164" x2="1904" y1="1185.9805" y2="1185.9805"/><text fill="#000000" font-family="sans-serif" font-size="26" lengthAdjust="spacingAndGlyphs" textLength="244" x="1408" y="1176.4961">orderToBeDelivered</text><polygon fill="#A80036" points="568,1236.6016,548,1244.6016,568,1252.6016,560,1244.6016" style="stroke: #A80036; stroke-width: 2.0;"/><line style="stroke: #A80036; stroke-width: 2.0; stroke-dasharray: 2.0,2.0;" x1="556" x2="1142" y1="1244.6016" y2="1244.6016"/><text fill="#000000" font-family="sans-serif" font-size="26" lengthAdjust="spacingAndGlyphs" textLength="244" x="723" y="1235.1172">orderToBeDelivered</text><polygon fill="#A80036" points="1872,1295.2227,1892,1303.2227,1872,1311.2227,1880,1303.2227" style="stroke: #A80036; stroke-width: 2.0;"/><line style="stroke: #A80036; stroke-width: 2.0;" x1="546" x2="1884" y1="1303.2227" y2="1303.2227"/><text fill="#000000" font-family="sans-serif" font-size="26" lengthAdjust="spacingAndGlyphs" textLength="860" x="791" y="1293.7383">createDeliveredOrder(orderToBeDelivered, deliveredParcelDescriptor)</text><polygon fill="#A80036" points="568,1353.8438,548,1361.8438,568,1369.8438,560,1361.8438" style="stroke: #A80036; stroke-width: 2.0;"/><line style="stroke: #A80036; stroke-width: 2.0; stroke-dasharray: 2.0,2.0;" x1="556" x2="1904" y1="1361.8438" y2="1361.8438"/><text fill="#000000" font-family="sans-serif" font-size="26" lengthAdjust="spacingAndGlyphs" textLength="148" x="1152" y="1352.3594">editedOrder</text><polygon fill="#A80036" points="1110,1412.4648,1130,1420.4648,1110,1428.4648,1118,1420.4648" style="stroke: #A80036; stroke-width: 2.0;"/><line style="stroke: #A80036; stroke-width: 2.0;" x1="546" x2="1122" y1="1420.4648" y2="1420.4648"/><text fill="#000000" font-family="sans-serif" font-size="26" lengthAdjust="spacingAndGlyphs" textLength="148" x="766" y="1410.9805">editedOrder</text><line style="stroke: #A80036; stroke-width: 2.0;" x1="1154" x2="1238" y1="1479.0859" y2="1479.0859"/><line style="stroke: #A80036; stroke-width: 2.0;" x1="1238" x2="1238" y1="1479.0859" y2="1505.0859"/><line style="stroke: #A80036; stroke-width: 2.0;" x1="1156" x2="1238" y1="1505.0859" y2="1505.0859"/><polygon fill="#A80036" points="1176,1497.0859,1156,1505.0859,1176,1513.0859,1168,1505.0859" style="stroke: #A80036; stroke-width: 2.0;"/><text fill="#000000" font-family="sans-serif" font-size="26" lengthAdjust="spacingAndGlyphs" textLength="532" x="1168" y="1469.6016">setOrder(orderToBeDelivered, editedOrder)</text><line style="stroke: #A80036; stroke-width: 2.0;" x1="1154" x2="1238" y1="1563.707" y2="1563.707"/><line style="stroke: #A80036; stroke-width: 2.0;" x1="1238" x2="1238" y1="1563.707" y2="1589.707"/><line style="stroke: #A80036; stroke-width: 2.0;" x1="1156" x2="1238" y1="1589.707" y2="1589.707"/><polygon fill="#A80036" points="1176,1581.707,1156,1589.707,1176,1597.707,1168,1589.707" style="stroke: #A80036; stroke-width: 2.0;"/><text fill="#000000" font-family="sans-serif" font-size="26" lengthAdjust="spacingAndGlyphs" textLength="318" x="1168" y="1554.2227">deliverOrder(editedOrder)</text><line style="stroke: #A80036; stroke-width: 2.0;" x1="1154" x2="1238" y1="1648.3281" y2="1648.3281"/><line style="stroke: #A80036; stroke-width: 2.0;" x1="1238" x2="1238" y1="1648.3281" y2="1674.3281"/><line style="stroke: #A80036; stroke-width: 2.0;" x1="1156" x2="1238" y1="1674.3281" y2="1674.3281"/><polygon fill="#A80036" points="1176,1666.3281,1156,1674.3281,1176,1682.3281,1168,1674.3281" style="stroke: #A80036; stroke-width: 2.0;"/><text fill="#000000" font-family="sans-serif" font-size="26" lengthAdjust="spacingAndGlyphs" textLength="714" x="1168" y="1638.8438">updateFilteredOrderList(PREDICATE_SHOW_ALL_ORDERS)</text><polygon fill="#A80036" points="568,1694.3281,548,1702.3281,568,1710.3281,560,1702.3281" style="stroke: #A80036; stroke-width: 2.0;"/><line style="stroke: #A80036; stroke-width: 2.0; stroke-dasharray: 2.0,2.0;" x1="556" x2="1142" y1="1702.3281" y2="1702.3281"/><polygon fill="#A80036" points="855,1722.3281,875,1730.3281,855,1738.3281,863,1730.3281" style="stroke: #A80036; stroke-width: 2.0;"/><line style="stroke: #A80036; stroke-width: 2.0;" x1="546" x2="867" y1="1730.3281" y2="1730.3281"/><polygon fill="#A80036" points="568,1780.9492,548,1788.9492,568,1796.9492,560,1788.9492" style="stroke: #A80036; stroke-width: 2.0;"/><line style="stroke: #A80036; stroke-width: 2.0; stroke-dasharray: 2.0,2.0;" x1="556" x2="887" y1="1788.9492" y2="1788.9492"/><text fill="#000000" font-family="sans-serif" font-size="26" lengthAdjust="spacingAndGlyphs" textLength="72" x="681.5" y="1779.4648">result</text><polygon fill="#A80036" points="222,1839.5703,202,1847.5703,222,1855.5703,214,1847.5703" style="stroke: #A80036; stroke-width: 2.0;"/><line style="stroke: #A80036; stroke-width: 2.0; stroke-dasharray: 2.0,2.0;" x1="210" x2="534" y1="1847.5703" y2="1847.5703"/><text fill="#000000" font-family="sans-serif" font-size="26" lengthAdjust="spacingAndGlyphs" textLength="72" x="332" y="1838.0859">result</text><line style="stroke: #000000; stroke-width: 2.0; stroke-dasharray: 2.0,2.0;" x1="26" x2="2030" y1="1879.5703" y2="1879.5703"/><text fill="#000000" font-family="sans-serif" font-size="22" font-weight="bold" lengthAdjust="spacingAndGlyphs" textLength="238" x="36" y="1900.8398">[order was delivered]</text><line style="stroke: #A80036; stroke-width: 2.0;" x1="1144" x2="1238" y1="1940.1016" y2="1940.1016"/><line style="stroke: #A80036; stroke-width: 2.0;" x1="1238" x2="1238" y1="1940.1016" y2="1966.1016"/><line style="stroke: #A80036; stroke-width: 2.0;" x1="1156" x2="1238" y1="1966.1016" y2="1966.1016"/><polygon fill="#A80036" points="1176,1958.1016,1156,1966.1016,1176,1974.1016,1168,1966.1016" style="stroke: #A80036; stroke-width: 2.0;"/><text fill="#000000" font-family="sans-serif" font-size="26" lengthAdjust="spacingAndGlyphs" textLength="156" x="1168" y="1930.6172">isDelivered()</text><line style="stroke: #A80036; stroke-width: 2.0; stroke-dasharray: 2.0,2.0;" x1="1154" x2="1238" y1="2034.7227" y2="2034.7227"/><line style="stroke: #A80036; stroke-width: 2.0; stroke-dasharray: 2.0,2.0;" x1="1238" x2="1238" y1="2034.7227" y2="2060.7227"/><line style="stroke: #A80036; stroke-width: 2.0; stroke-dasharray: 2.0,2.0;" x1="1156" x2="1238" y1="2060.7227" y2="2060.7227"/><polygon fill="#A80036" points="1176,2052.7227,1156,2060.7227,1176,2068.7227,1168,2060.7227" style="stroke: #A80036; stroke-width: 2.0;"/><text fill="#000000" font-family="sans-serif" font-size="26" lengthAdjust="spacingAndGlyphs" textLength="50" x="1168" y="2025.2383">true</text><polygon fill="#A80036" points="568,2111.3438,548,2119.3438,568,2127.3438,560,2119.3438" style="stroke: #A80036; stroke-width: 2.0;"/><line style="stroke: #A80036; stroke-width: 2.0; stroke-dasharray: 2.0,2.0;" x1="556" x2="1132" y1="2119.3438" y2="2119.3438"/><text fill="#000000" font-family="sans-serif" font-size="26" lengthAdjust="spacingAndGlyphs" textLength="50" x="815" y="2109.8594">true</text><polygon fill="#A80036" points="1110,2169.9648,1130,2177.9648,1110,2185.9648,1118,2177.9648" style="stroke: #A80036; stroke-width: 2.0;"/><line style="stroke: #A80036; stroke-width: 2.0;" x1="546" x2="1122" y1="2177.9648" y2="2177.9648"/><text fill="#000000" font-family="sans-serif" font-size="26" lengthAdjust="spacingAndGlyphs" textLength="296" x="692" y="2168.4805">updateOrderList(model)</text><line style="stroke: #A80036; stroke-width: 2.0;" x1="1154" x2="1238" y1="2236.5859" y2="2236.5859"/><line style="stroke: #A80036; stroke-width: 2.0;" x1="1238" x2="1238" y1="2236.5859" y2="2262.5859"/><line style="stroke: #A80036; stroke-width: 2.0;" x1="1156" x2="1238" y1="2262.5859" y2="2262.5859"/><polygon fill="#A80036" points="1176,2254.5859,1156,2262.5859,1176,2270.5859,1168,2262.5859" style="stroke: #A80036; stroke-width: 2.0;"/><text fill="#000000" font-family="sans-serif" font-size="26" lengthAdjust="spacingAndGlyphs" textLength="714" x="1168" y="2227.1016">updateFilteredOrderList(PREDICATE_SHOW_ALL_ORDERS)</text><polygon fill="#A80036" points="568,2282.5859,548,2290.5859,568,2298.5859,560,2290.5859" style="stroke: #A80036; stroke-width: 2.0;"/><line style="stroke: #A80036; stroke-width: 2.0; stroke-dasharray: 2.0,2.0;" x1="556" x2="1142" y1="2290.5859" y2="2290.5859"/><polygon fill="#A80036" points="855,2310.5859,875,2318.5859,855,2326.5859,863,2318.5859" style="stroke: #A80036; stroke-width: 2.0;"/><line style="stroke: #A80036; stroke-width: 2.0;" x1="546" x2="867" y1="2318.5859" y2="2318.5859"/><polygon fill="#A80036" points="568,2369.207,548,2377.207,568,2385.207,560,2377.207" style="stroke: #A80036; stroke-width: 2.0;"/><line style="stroke: #A80036; stroke-width: 2.0; stroke-dasharray: 2.0,2.0;" x1="556" x2="887" y1="2377.207" y2="2377.207"/><text fill="#000000" font-family="sans-serif" font-size="26" lengthAdjust="spacingAndGlyphs" textLength="72" x="681.5" y="2367.7227">result</text><polygon fill="#A80036" points="222,2427.8281,202,2435.8281,222,2443.8281,214,2435.8281" style="stroke: #A80036; stroke-width: 2.0;"/><line style="stroke: #A80036; stroke-width: 2.0; stroke-dasharray: 2.0,2.0;" x1="210" x2="534" y1="2435.8281" y2="2435.8281"/><text fill="#000000" font-family="sans-serif" font-size="26" lengthAdjust="spacingAndGlyphs" textLength="72" x="332" y="2426.3438">result</text><!--MD5=[597b26a1a3b098d28ed90e96ab5fdd41]
@startuml








skinparam BackgroundColor #FFFFFFF

skinparam Shadowing false

skinparam Class {
    FontColor #FFFFFF
    BorderThickness 1
    BorderColor #FFFFFF
    StereotypeFontColor #FFFFFF
    FontName Arial
}

skinparam Actor {
    BorderColor #000000
    Color #000000
    FontName Arial
}

skinparam Sequence {
    MessageAlign center
    BoxFontSize 15
    BoxPadding 0
    BoxFontColor #FFFFFF
    FontName Arial
}

skinparam Participant {
    FontColor #FFFFFFF
    Padding 20
}

skinparam MinClassWidth 50
skinparam ParticipantPadding 10
skinparam Shadowing false
skinparam DefaultTextAlignment center
skinparam packageStyle Rectangle

hide footbox
hide members
hide circle

box Logic #C8C8FA
participant ":LogicManager" as LogicManager #3333C4
participant "d:DeliveredCommand" as DeliveredCommand #3333C4
participant ":CommandResult" as CommandResult #3333C4
end box

box Model #F97181
participant ":Model" as Model #9D0012
participant ":Order" as Order #3333C4
end box
activate LogicManager

group sd Execution of DeliveredCommand

LogicManager -> DeliveredCommand : execute(model)
activate DeliveredCommand

DeliveredCommand -> DeliveredCommand: isFlagForOrderList()
activate DeliveredCommand
DeliveredCommand - -> DeliveredCommand: true
deactivate DeliveredCommand

DeliveredCommand -> Model : processDeliveryOfOrder(model)
Model -> Model : getFilteredOrderList()
activate Model
create Order
Model -> Order : get(1)
activate Order
Order - -> Model
deactivate Order

alt order was not delivered
Model -> Model : isDelivered()
activate Model
Model - -> Model : false
deactivate Model
Model - -> DeliveredCommand : false
DeliveredCommand -> Model : deliverAndUpdateOrderList(model)
Model -> Model : getFilteredOrderList()
Model -> Order : get(1)
activate Order
Order - -> Model : orderToBeDelivered
deactivate Order
Model - -> DeliveredCommand : orderToBeDelivered
deactivate Model

DeliveredCommand -> Order : createDeliveredOrder(orderToBeDelivered, deliveredParcelDescriptor)
activate Order
Order - -> DeliveredCommand : editedOrder
deactivate Order
DeliveredCommand -> Model : editedOrder
activate Model
Model -> Model : setOrder(orderToBeDelivered, editedOrder)
Model -> Model : deliverOrder(editedOrder)
Model -> Model : updateFilteredOrderList(PREDICATE_SHOW_ALL_ORDERS)
Model - -> DeliveredCommand
deactivate Model

DeliveredCommand -> CommandResult ++
CommandResult - -> DeliveredCommand - - : result

DeliveredCommand - -> LogicManager - - : result
deactivate LogicManager
end
else order was delivered
Model -> Model : isDelivered()
activate Model
Model - -> Model : true
Model - -> DeliveredCommand : true
activate DeliveredCommand
DeliveredCommand -> Model : updateOrderList(model)
Model -> Model : updateFilteredOrderList(PREDICATE_SHOW_ALL_ORDERS)
Model - -> DeliveredCommand 
deactivate Model

DeliveredCommand -> CommandResult ++
CommandResult - -> DeliveredCommand - - : result

DeliveredCommand - -> LogicManager - - : result
deactivate LogicManager
end

@enduml

PlantUML version 1.2020.03beta6(Unknown compile time)
(GPL source distribution)
Java Runtime: OpenJDK Runtime Environment
JVM: OpenJDK 64-Bit Server VM
Java Version: 11.0.5+10-b520.38
Operating System: Mac OS X
Default Encoding: UTF-8
Language: en
Country: SG
--></g></svg>
