<?xml version="1.0" encoding="UTF-8" standalone="no"?><svg xmlns="http://www.w3.org/2000/svg" xmlns:xlink="http://www.w3.org/1999/xlink" contentScriptType="application/ecmascript" contentStyleType="text/css" height="1072px" preserveAspectRatio="none" style="width:2028px;height:1072px;" version="1.1" viewBox="0 0 2028 1072" width="2028px" zoomAndPan="magnify"><defs><filter height="300%" id="f15m0tg7t5ovvm" width="300%" x="-1" y="-1"><feGaussianBlur result="blurOut" stdDeviation="4.0"/><feColorMatrix in="blurOut" result="blurOut2" type="matrix" values="0 0 0 0 0 0 0 0 0 0 0 0 0 0 0 0 0 0 .4 0"/><feOffset dx="8.0" dy="8.0" in="blurOut2" result="blurOut3"/><feBlend in="SourceGraphic" in2="blurOut3" mode="normal"/></filter></defs><g><ellipse cx="1377" cy="40" fill="#000000" filter="url(#f15m0tg7t5ovvm)" rx="20" ry="20" style="stroke: none; stroke-width: 2.0;"/><rect fill="#FEFECE" filter="url(#f15m0tg7t5ovvm)" height="68.2656" rx="25" ry="25" style="stroke: #A80036; stroke-width: 3.0;" width="624" x="1065" y="100"/><text fill="#000000" font-family="sans-serif" font-size="24" lengthAdjust="spacingAndGlyphs" textLength="584" x="1085" y="143.2031">User enters the delivered command and keywords</text><polygon fill="#FEFECE" filter="url(#f15m0tg7t5ovvm)" points="1377,208.2656,1377,208.2656,1401,232.2656,1377,256.2656,1377,256.2656,1353,232.2656,1377,208.2656" style="stroke: #A80036; stroke-width: 3.0;"/><text fill="#000000" font-family="sans-serif" font-size="22" lengthAdjust="spacingAndGlyphs" textLength="200" x="1153" y="227.625">[valid flag is given]</text><text fill="#000000" font-family="sans-serif" font-size="22" lengthAdjust="spacingAndGlyphs" textLength="220" x="1401" y="227.625">[invalid flag is given]</text><polygon fill="#FEFECE" filter="url(#f15m0tg7t5ovvm)" points="881,276.2656,881,276.2656,905,300.2656,881,324.2656,881,324.2656,857,300.2656,881,276.2656" style="stroke: #A80036; stroke-width: 3.0;"/><text fill="#000000" font-family="sans-serif" font-size="22" lengthAdjust="spacingAndGlyphs" textLength="192" x="665" y="295.625">["-o" flag is given]</text><text fill="#000000" font-family="sans-serif" font-size="22" lengthAdjust="spacingAndGlyphs" textLength="188" x="905" y="295.625">["-r" flag is given]</text><polygon fill="#FEFECE" filter="url(#f15m0tg7t5ovvm)" points="446,344.2656,446,344.2656,470,368.2656,446,392.2656,446,392.2656,422,368.2656,446,344.2656" style="stroke: #A80036; stroke-width: 3.0;"/><text fill="#000000" font-family="sans-serif" font-size="22" lengthAdjust="spacingAndGlyphs" textLength="220" x="202" y="363.625">[valid index is given]</text><text fill="#000000" font-family="sans-serif" font-size="22" lengthAdjust="spacingAndGlyphs" textLength="240" x="470" y="363.625">[invalid index is given]</text><rect fill="#FEFECE" filter="url(#f15m0tg7t5ovvm)" height="124.7969" rx="25" ry="25" style="stroke: #A80036; stroke-width: 3.0;" width="428" x="20" y="412.2656"/><text fill="#000000" font-family="sans-serif" font-size="24" lengthAdjust="spacingAndGlyphs" textLength="388" x="40" y="455.4688">Create a new DeliveredCommand</text><text fill="#000000" font-family="sans-serif" font-size="24" lengthAdjust="spacingAndGlyphs" textLength="240" x="48" y="483.7344">based on user input,</text><text fill="#000000" font-family="sans-serif" font-size="24" lengthAdjust="spacingAndGlyphs" textLength="166" x="48" y="512">flag and index</text><rect fill="#FEFECE" filter="url(#f15m0tg7t5ovvm)" height="153.0625" rx="25" ry="25" style="stroke: #A80036; stroke-width: 3.0;" width="356" x="56" y="605.3281"/><text fill="#000000" font-family="sans-serif" font-size="24" lengthAdjust="spacingAndGlyphs" textLength="316" x="76" y="648.5313">Mark the order of the given</text><text fill="#000000" font-family="sans-serif" font-size="24" lengthAdjust="spacingAndGlyphs" textLength="248" x="84" y="676.7969">index in the order list</text><text fill="#000000" font-family="sans-serif" font-size="24" lengthAdjust="spacingAndGlyphs" textLength="256" x="84" y="705.0625">as delivered and print</text><text fill="#000000" font-family="sans-serif" font-size="24" lengthAdjust="spacingAndGlyphs" textLength="286" x="84" y="733.3281">success message to user</text><rect fill="#FEFECE" filter="url(#f15m0tg7t5ovvm)" height="124.7969" rx="25" ry="25" style="stroke: #A80036; stroke-width: 3.0;" width="340" x="488" y="412.2656"/><text fill="#000000" font-family="sans-serif" font-size="24" lengthAdjust="spacingAndGlyphs" textLength="300" x="508" y="455.4688">Throw an exception to tell</text><text fill="#000000" font-family="sans-serif" font-size="24" lengthAdjust="spacingAndGlyphs" textLength="220" x="508" y="483.7344">user that an invalid</text><text fill="#000000" font-family="sans-serif" font-size="24" lengthAdjust="spacingAndGlyphs" textLength="184" x="508" y="512">index was given</text><polygon fill="#FEFECE" filter="url(#f15m0tg7t5ovvm)" points="446,770.3906,470,794.3906,446,818.3906,422,794.3906,446,770.3906" style="stroke: #A80036; stroke-width: 3.0;"/><polygon fill="#FEFECE" filter="url(#f15m0tg7t5ovvm)" points="1316,344.2656,1316,344.2656,1340,368.2656,1316,392.2656,1316,392.2656,1292,368.2656,1316,344.2656" style="stroke: #A80036; stroke-width: 3.0;"/><text fill="#000000" font-family="sans-serif" font-size="22" lengthAdjust="spacingAndGlyphs" textLength="220" x="1072" y="363.625">[valid index is given]</text><text fill="#000000" font-family="sans-serif" font-size="22" lengthAdjust="spacingAndGlyphs" textLength="240" x="1340" y="363.625">[invalid index is given]</text><rect fill="#FEFECE" filter="url(#f15m0tg7t5ovvm)" height="124.7969" rx="25" ry="25" style="stroke: #A80036; stroke-width: 3.0;" width="428" x="908" y="412.2656"/><text fill="#000000" font-family="sans-serif" font-size="24" lengthAdjust="spacingAndGlyphs" textLength="388" x="928" y="455.4688">Create a new DeliveredCommand</text><text fill="#000000" font-family="sans-serif" font-size="24" lengthAdjust="spacingAndGlyphs" textLength="240" x="936" y="483.7344">based on user input,</text><text fill="#000000" font-family="sans-serif" font-size="24" lengthAdjust="spacingAndGlyphs" textLength="166" x="936" y="512">flag and index</text><rect fill="#FEFECE" filter="url(#f15m0tg7t5ovvm)" height="181.3281" rx="25" ry="25" style="stroke: #A80036; stroke-width: 3.0;" width="366" x="939" y="605.3281"/><text fill="#000000" font-family="sans-serif" font-size="24" lengthAdjust="spacingAndGlyphs" textLength="282" x="959" y="648.5313">Mark the return order of</text><text fill="#000000" font-family="sans-serif" font-size="24" lengthAdjust="spacingAndGlyphs" textLength="248" x="967" y="676.7969">the given index in the</text><text fill="#000000" font-family="sans-serif" font-size="24" lengthAdjust="spacingAndGlyphs" textLength="216" x="967" y="705.0625">return order list as</text><text fill="#000000" font-family="sans-serif" font-size="24" lengthAdjust="spacingAndGlyphs" textLength="318" x="967" y="733.3281">delivered and print success</text><text fill="#000000" font-family="sans-serif" font-size="24" lengthAdjust="spacingAndGlyphs" textLength="190" x="967" y="761.5938">message to user</text><rect fill="#FEFECE" filter="url(#f15m0tg7t5ovvm)" height="153.0625" rx="25" ry="25" style="stroke: #A80036; stroke-width: 3.0;" width="268" x="1376" y="412.2656"/><text fill="#000000" font-family="sans-serif" font-size="24" lengthAdjust="spacingAndGlyphs" textLength="228" x="1396" y="455.4688">Throw an exception</text><text fill="#000000" font-family="sans-serif" font-size="24" lengthAdjust="spacingAndGlyphs" textLength="174" x="1404" y="483.7344">to tell user that</text><text fill="#000000" font-family="sans-serif" font-size="24" lengthAdjust="spacingAndGlyphs" textLength="182" x="1404" y="512">an invalid index</text><text fill="#000000" font-family="sans-serif" font-size="24" lengthAdjust="spacingAndGlyphs" textLength="112" x="1404" y="540.2656">was given</text><polygon fill="#FEFECE" filter="url(#f15m0tg7t5ovvm)" points="1316,798.6563,1340,822.6563,1316,846.6563,1292,822.6563,1316,798.6563" style="stroke: #A80036; stroke-width: 3.0;"/><polygon fill="#FEFECE" filter="url(#f15m0tg7t5ovvm)" points="881,858.6563,905,882.6563,881,906.6563,857,882.6563,881,858.6563" style="stroke: #A80036; stroke-width: 3.0;"/><rect fill="#FEFECE" filter="url(#f15m0tg7t5ovvm)" height="124.7969" rx="25" ry="25" style="stroke: #A80036; stroke-width: 3.0;" width="298" x="1709" y="276.2656"/><text fill="#000000" font-family="sans-serif" font-size="24" lengthAdjust="spacingAndGlyphs" textLength="258" x="1729" y="319.4688">Throw an exception to</text><text fill="#000000" font-family="sans-serif" font-size="24" lengthAdjust="spacingAndGlyphs" textLength="180" x="1737" y="347.7344">tell user that an</text><text fill="#000000" font-family="sans-serif" font-size="24" lengthAdjust="spacingAndGlyphs" textLength="244" x="1737" y="376">invalid flag was given</text><polygon fill="#FEFECE" filter="url(#f15m0tg7t5ovvm)" points="1377,918.6563,1401,942.6563,1377,966.6563,1353,942.6563,1377,918.6563" style="stroke: #A80036; stroke-width: 3.0;"/><ellipse cx="1377" cy="1028.6563" fill="#FFFFFF" filter="url(#f15m0tg7t5ovvm)" rx="22" ry="22" style="stroke: #000000; stroke-width: 2.0;"/><ellipse cx="1377" cy="1028.6563" fill="#000000" rx="12" ry="12" style="stroke: #7F7F7F; stroke-width: 2.0;"/><line style="stroke: #A80036; stroke-width: 3.0;" x1="1377" x2="1377" y1="60" y2="100"/><polygon fill="#A80036" points="1369,80,1377,100,1385,80,1377,88" style="stroke: #A80036; stroke-width: 2.0;"/><line style="stroke: #A80036; stroke-width: 3.0;" x1="234" x2="234" y1="537.0625" y2="605.3281"/><polygon fill="#A80036" points="226,585.3281,234,605.3281,242,585.3281,234,593.3281" style="stroke: #A80036; stroke-width: 2.0;"/><line style="stroke: #A80036; stroke-width: 3.0;" x1="422" x2="234" y1="368.2656" y2="368.2656"/><line style="stroke: #A80036; stroke-width: 3.0;" x1="234" x2="234" y1="368.2656" y2="412.2656"/><polygon fill="#A80036" points="226,392.2656,234,412.2656,242,392.2656,234,400.2656" style="stroke: #A80036; stroke-width: 2.0;"/><line style="stroke: #A80036; stroke-width: 3.0;" x1="470" x2="658" y1="368.2656" y2="368.2656"/><line style="stroke: #A80036; stroke-width: 3.0;" x1="658" x2="658" y1="368.2656" y2="412.2656"/><polygon fill="#A80036" points="650,392.2656,658,412.2656,666,392.2656,658,400.2656" style="stroke: #A80036; stroke-width: 2.0;"/><line style="stroke: #A80036; stroke-width: 3.0;" x1="234" x2="234" y1="758.3906" y2="794.3906"/><line style="stroke: #A80036; stroke-width: 3.0;" x1="234" x2="422" y1="794.3906" y2="794.3906"/><polygon fill="#A80036" points="402,786.3906,422,794.3906,402,802.3906,410,794.3906" style="stroke: #A80036; stroke-width: 2.0;"/><line style="stroke: #A80036; stroke-width: 3.0;" x1="658" x2="658" y1="537.0625" y2="794.3906"/><line style="stroke: #A80036; stroke-width: 3.0;" x1="658" x2="470" y1="794.3906" y2="794.3906"/><polygon fill="#A80036" points="490,786.3906,470,794.3906,490,802.3906,482,794.3906" style="stroke: #A80036; stroke-width: 2.0;"/><line style="stroke: #A80036; stroke-width: 3.0;" x1="1122" x2="1122" y1="537.0625" y2="605.3281"/><polygon fill="#A80036" points="1114,585.3281,1122,605.3281,1130,585.3281,1122,593.3281" style="stroke: #A80036; stroke-width: 2.0;"/><line style="stroke: #A80036; stroke-width: 3.0;" x1="1292" x2="1122" y1="368.2656" y2="368.2656"/><line style="stroke: #A80036; stroke-width: 3.0;" x1="1122" x2="1122" y1="368.2656" y2="412.2656"/><polygon fill="#A80036" points="1114,392.2656,1122,412.2656,1130,392.2656,1122,400.2656" style="stroke: #A80036; stroke-width: 2.0;"/><line style="stroke: #A80036; stroke-width: 3.0;" x1="1340" x2="1510" y1="368.2656" y2="368.2656"/><line style="stroke: #A80036; stroke-width: 3.0;" x1="1510" x2="1510" y1="368.2656" y2="412.2656"/><polygon fill="#A80036" points="1502,392.2656,1510,412.2656,1518,392.2656,1510,400.2656" style="stroke: #A80036; stroke-width: 2.0;"/><line style="stroke: #A80036; stroke-width: 3.0;" x1="1122" x2="1122" y1="786.6563" y2="822.6563"/><line style="stroke: #A80036; stroke-width: 3.0;" x1="1122" x2="1292" y1="822.6563" y2="822.6563"/><polygon fill="#A80036" points="1272,814.6563,1292,822.6563,1272,830.6563,1280,822.6563" style="stroke: #A80036; stroke-width: 2.0;"/><line style="stroke: #A80036; stroke-width: 3.0;" x1="1510" x2="1510" y1="565.3281" y2="822.6563"/><line style="stroke: #A80036; stroke-width: 3.0;" x1="1510" x2="1340" y1="822.6563" y2="822.6563"/><polygon fill="#A80036" points="1360,814.6563,1340,822.6563,1360,830.6563,1352,822.6563" style="stroke: #A80036; stroke-width: 2.0;"/><line style="stroke: #A80036; stroke-width: 3.0;" x1="857" x2="446" y1="300.2656" y2="300.2656"/><line style="stroke: #A80036; stroke-width: 3.0;" x1="446" x2="446" y1="300.2656" y2="344.2656"/><polygon fill="#A80036" points="438,324.2656,446,344.2656,454,324.2656,446,332.2656" style="stroke: #A80036; stroke-width: 2.0;"/><line style="stroke: #A80036; stroke-width: 3.0;" x1="905" x2="1316" y1="300.2656" y2="300.2656"/><line style="stroke: #A80036; stroke-width: 3.0;" x1="1316" x2="1316" y1="300.2656" y2="344.2656"/><polygon fill="#A80036" points="1308,324.2656,1316,344.2656,1324,324.2656,1316,332.2656" style="stroke: #A80036; stroke-width: 2.0;"/><line style="stroke: #A80036; stroke-width: 3.0;" x1="446" x2="446" y1="818.3906" y2="882.6563"/><line style="stroke: #A80036; stroke-width: 3.0;" x1="446" x2="857" y1="882.6563" y2="882.6563"/><polygon fill="#A80036" points="837,874.6563,857,882.6563,837,890.6563,845,882.6563" style="stroke: #A80036; stroke-width: 2.0;"/><line style="stroke: #A80036; stroke-width: 3.0;" x1="1316" x2="1316" y1="846.6563" y2="882.6563"/><line style="stroke: #A80036; stroke-width: 3.0;" x1="1316" x2="905" y1="882.6563" y2="882.6563"/><polygon fill="#A80036" points="925,874.6563,905,882.6563,925,890.6563,917,882.6563" style="stroke: #A80036; stroke-width: 2.0;"/><line style="stroke: #A80036; stroke-width: 3.0;" x1="1353" x2="881" y1="232.2656" y2="232.2656"/><line style="stroke: #A80036; stroke-width: 3.0;" x1="881" x2="881" y1="232.2656" y2="276.2656"/><polygon fill="#A80036" points="873,256.2656,881,276.2656,889,256.2656,881,264.2656" style="stroke: #A80036; stroke-width: 2.0;"/><line style="stroke: #A80036; stroke-width: 3.0;" x1="1401" x2="1858" y1="232.2656" y2="232.2656"/><line style="stroke: #A80036; stroke-width: 3.0;" x1="1858" x2="1858" y1="232.2656" y2="276.2656"/><polygon fill="#A80036" points="1850,256.2656,1858,276.2656,1866,256.2656,1858,264.2656" style="stroke: #A80036; stroke-width: 2.0;"/><line style="stroke: #A80036; stroke-width: 3.0;" x1="881" x2="881" y1="906.6563" y2="942.6563"/><line style="stroke: #A80036; stroke-width: 3.0;" x1="881" x2="1353" y1="942.6563" y2="942.6563"/><polygon fill="#A80036" points="1333,934.6563,1353,942.6563,1333,950.6563,1341,942.6563" style="stroke: #A80036; stroke-width: 2.0;"/><line style="stroke: #A80036; stroke-width: 3.0;" x1="1858" x2="1858" y1="401.0625" y2="942.6563"/><line style="stroke: #A80036; stroke-width: 3.0;" x1="1858" x2="1401" y1="942.6563" y2="942.6563"/><polygon fill="#A80036" points="1421,934.6563,1401,942.6563,1421,950.6563,1413,942.6563" style="stroke: #A80036; stroke-width: 2.0;"/><line style="stroke: #A80036; stroke-width: 3.0;" x1="1377" x2="1377" y1="168.2656" y2="208.2656"/><polygon fill="#A80036" points="1369,188.2656,1377,208.2656,1385,188.2656,1377,196.2656" style="stroke: #A80036; stroke-width: 2.0;"/><line style="stroke: #A80036; stroke-width: 3.0;" x1="1377" x2="1377" y1="966.6563" y2="1006.6563"/><polygon fill="#A80036" points="1369,986.6563,1377,1006.6563,1385,986.6563,1377,994.6563" style="stroke: #A80036; stroke-width: 2.0;"/><!--MD5=[a653f4d76c04b0a1c083b8aeed7ddfb0]
@startuml
start
:User enters the delivered command and keywords;
If () then ([valid flag is given])
    If () then (["-o" flag is given])
        If () then ([valid index is given])
            :Create a new DeliveredCommand
             based on user input,
             flag and index;
            :Mark the order of the given
             index in the order list
             as delivered and print
             success message to user;
        else ([invalid index is given])
            :Throw an exception to tell
            user that an invalid
            index was given;
    endif
    else (["-r" flag is given])
        If () then ([valid index is given])
            :Create a new DeliveredCommand
             based on user input,
             flag and index;
            :Mark the return order of
             the given index in the
             return order list as
             delivered and print success
             message to user;
        else ([invalid index is given])
            :Throw an exception
             to tell user that
             an invalid index
             was given;
    endif
endif
else ([invalid flag is given])
    :Throw an exception to
     tell user that an
     invalid flag was given;
endif
stop

@enduml

PlantUML version 1.2020.03beta6(Unknown compile time)
(GPL source distribution)
Java Runtime: OpenJDK Runtime Environment
JVM: OpenJDK 64-Bit Server VM
Java Version: 11.0.5+10-b520.38
Operating System: Mac OS X
Default Encoding: UTF-8
Language: en
Country: SG
--></g></svg>
