<?xml version="1.0" encoding="UTF-8" standalone="no"?><svg xmlns="http://www.w3.org/2000/svg" xmlns:xlink="http://www.w3.org/1999/xlink" contentScriptType="application/ecmascript" contentStyleType="text/css" height="308.8px" preserveAspectRatio="none" style="width:536px;height:308px;" version="1.1" viewBox="0 0 536 308" width="536.8px" zoomAndPan="magnify"><defs/><g><ellipse cx="340.6" cy="16" fill="#000000" rx="8" ry="8" style="stroke: none; stroke-width: 0.8;"/><rect fill="#FEFECE" height="27.0391" rx="10" ry="10" style="stroke: #A80036; stroke-width: 1.2000000000000002;" width="139.2" x="271" y="40"/><text fill="#000000" font-family="Arial" font-size="9.6" lengthAdjust="spacingAndGlyphs" textLength="123.2" x="279" y="57.0047">User inputs done command</text><polygon fill="#FEFECE" points="340.6,83.0391,340.6,83.0391,350.2,92.6391,340.6,102.2391,340.6,102.2391,331,92.6391,340.6,83.0391" style="stroke: #A80036; stroke-width: 1.2000000000000002;"/><text fill="#000000" font-family="Arial" font-size="8.8" lengthAdjust="spacingAndGlyphs" textLength="98.4" x="232.6" y="90.7742">[Command is valid format]</text><text fill="#000000" font-family="Arial" font-size="8.8" lengthAdjust="spacingAndGlyphs" textLength="119.2" x="350.2" y="90.7742">[command is not a valid format]</text><polygon fill="#FEFECE" points="217.2,110.2391,217.2,110.2391,226.8,119.8391,217.2,129.4391,217.2,129.4391,207.6,119.8391,217.2,110.2391" style="stroke: #A80036; stroke-width: 1.2000000000000002;"/><text fill="#000000" font-family="Arial" font-size="8.8" lengthAdjust="spacingAndGlyphs" textLength="80" x="127.6" y="117.9742">[Recipe index exists]</text><text fill="#000000" font-family="Arial" font-size="8.8" lengthAdjust="spacingAndGlyphs" textLength="111.2" x="226.8" y="117.9742">[Recipe index does not exist]</text><rect fill="#FEFECE" height="38.0781" rx="10" ry="10" style="stroke: #A80036; stroke-width: 1.2000000000000002;" width="226.4" x="8" y="137.4391"/><text fill="#000000" font-family="Arial" font-size="9.6" lengthAdjust="spacingAndGlyphs" textLength="210.4" x="16" y="154.4438">Marks the recipe at specified index as attempted</text><text fill="#000000" font-family="Arial" font-size="9.6" lengthAdjust="spacingAndGlyphs" textLength="122.4" x="60" y="165.4828">:Returns success message</text><rect fill="#FEFECE" height="38.0781" rx="10" ry="10" style="stroke: #A80036; stroke-width: 1.2000000000000002;" width="125.6" x="250.4" y="137.4391"/><text fill="#000000" font-family="Arial" font-size="9.6" lengthAdjust="spacingAndGlyphs" textLength="109.6" x="258.4" y="154.4438">Returns failure message</text><text fill="#000000" font-family="Arial" font-size="9.6" lengthAdjust="spacingAndGlyphs" textLength="60" x="283.2" y="165.4828">(Invalid index)</text><polygon fill="#FEFECE" points="217.2,180.3172,226.8,189.9172,217.2,199.5172,207.6,189.9172,217.2,180.3172" style="stroke: #A80036; stroke-width: 1.2000000000000002;"/><rect fill="#FEFECE" height="27.0391" rx="10" ry="10" style="stroke: #A80036; stroke-width: 1.2000000000000002;" width="183.2" x="125.6" y="215.5172"/><text fill="#000000" font-family="Arial" font-size="9.6" lengthAdjust="spacingAndGlyphs" textLength="167.2" x="133.6" y="232.5219">LogicManager prints message to user</text><rect fill="#FEFECE" height="38.0781" rx="10" ry="10" style="stroke: #A80036; stroke-width: 1.2000000000000002;" width="128" x="400" y="110.2391"/><text fill="#000000" font-family="Arial" font-size="9.6" lengthAdjust="spacingAndGlyphs" textLength="109.6" x="409.2" y="127.2438">Returns failure message</text><text fill="#000000" font-family="Arial" font-size="9.6" lengthAdjust="spacingAndGlyphs" textLength="112" x="408" y="138.2828">(invalid command format)</text><polygon fill="#FEFECE" points="340.6,247.3563,350.2,256.9563,340.6,266.5563,331,256.9563,340.6,247.3563" style="stroke: #A80036; stroke-width: 1.2000000000000002;"/><ellipse cx="340.6" cy="291.3563" fill="#FFFFFF" rx="8.8" ry="8.8" style="stroke: #000000; stroke-width: 0.8;"/><ellipse cx="340.6" cy="291.3563" fill="#000000" rx="4.8" ry="4.8" style="stroke: #7F7F7F; stroke-width: 0.8;"/><line style="stroke: #A80036; stroke-width: 1.2000000000000002;" x1="340.6" x2="340.6" y1="24" y2="40"/><polygon fill="#A80036" points="337.4,32,340.6,40,343.8,32,340.6,35.2" style="stroke: #A80036; stroke-width: 0.8;"/><line style="stroke: #A80036; stroke-width: 1.2000000000000002;" x1="207.6" x2="121.2" y1="119.8391" y2="119.8391"/><line style="stroke: #A80036; stroke-width: 1.2000000000000002;" x1="121.2" x2="121.2" y1="119.8391" y2="137.4391"/><polygon fill="#A80036" points="118,129.4391,121.2,137.4391,124.4,129.4391,121.2,132.6391" style="stroke: #A80036; stroke-width: 0.8;"/><line style="stroke: #A80036; stroke-width: 1.2000000000000002;" x1="226.8" x2="313.2" y1="119.8391" y2="119.8391"/><line style="stroke: #A80036; stroke-width: 1.2000000000000002;" x1="313.2" x2="313.2" y1="119.8391" y2="137.4391"/><polygon fill="#A80036" points="310,129.4391,313.2,137.4391,316.4,129.4391,313.2,132.6391" style="stroke: #A80036; stroke-width: 0.8;"/><line style="stroke: #A80036; stroke-width: 1.2000000000000002;" x1="121.2" x2="121.2" y1="175.5172" y2="189.9172"/><line style="stroke: #A80036; stroke-width: 1.2000000000000002;" x1="121.2" x2="207.6" y1="189.9172" y2="189.9172"/><polygon fill="#A80036" points="199.6,186.7172,207.6,189.9172,199.6,193.1172,202.8,189.9172" style="stroke: #A80036; stroke-width: 0.8;"/><line style="stroke: #A80036; stroke-width: 1.2000000000000002;" x1="313.2" x2="313.2" y1="175.5172" y2="189.9172"/><line style="stroke: #A80036; stroke-width: 1.2000000000000002;" x1="313.2" x2="226.8" y1="189.9172" y2="189.9172"/><polygon fill="#A80036" points="234.8,186.7172,226.8,189.9172,234.8,193.1172,231.6,189.9172" style="stroke: #A80036; stroke-width: 0.8;"/><line style="stroke: #A80036; stroke-width: 1.2000000000000002;" x1="217.2" x2="217.2" y1="199.5172" y2="215.5172"/><polygon fill="#A80036" points="214,207.5172,217.2,215.5172,220.4,207.5172,217.2,210.7172" style="stroke: #A80036; stroke-width: 0.8;"/><line style="stroke: #A80036; stroke-width: 1.2000000000000002;" x1="331" x2="217.2" y1="92.6391" y2="92.6391"/><line style="stroke: #A80036; stroke-width: 1.2000000000000002;" x1="217.2" x2="217.2" y1="92.6391" y2="110.2391"/><polygon fill="#A80036" points="214,102.2391,217.2,110.2391,220.4,102.2391,217.2,105.4391" style="stroke: #A80036; stroke-width: 0.8;"/><line style="stroke: #A80036; stroke-width: 1.2000000000000002;" x1="350.2" x2="464" y1="92.6391" y2="92.6391"/><line style="stroke: #A80036; stroke-width: 1.2000000000000002;" x1="464" x2="464" y1="92.6391" y2="110.2391"/><polygon fill="#A80036" points="460.8,102.2391,464,110.2391,467.2,102.2391,464,105.4391" style="stroke: #A80036; stroke-width: 0.8;"/><line style="stroke: #A80036; stroke-width: 1.2000000000000002;" x1="217.2" x2="217.2" y1="242.5563" y2="256.9563"/><line style="stroke: #A80036; stroke-width: 1.2000000000000002;" x1="217.2" x2="331" y1="256.9563" y2="256.9563"/><polygon fill="#A80036" points="323,253.7563,331,256.9563,323,260.1563,326.2,256.9563" style="stroke: #A80036; stroke-width: 0.8;"/><line style="stroke: #A80036; stroke-width: 1.2000000000000002;" x1="464" x2="464" y1="148.3172" y2="256.9563"/><line style="stroke: #A80036; stroke-width: 1.2000000000000002;" x1="464" x2="350.2" y1="256.9563" y2="256.9563"/><polygon fill="#A80036" points="358.2,253.7563,350.2,256.9563,358.2,260.1563,355,256.9563" style="stroke: #A80036; stroke-width: 0.8;"/><line style="stroke: #A80036; stroke-width: 1.2000000000000002;" x1="340.6" x2="340.6" y1="67.0391" y2="83.0391"/><polygon fill="#A80036" points="337.4,75.0391,340.6,83.0391,343.8,75.0391,340.6,78.2391" style="stroke: #A80036; stroke-width: 0.8;"/><line style="stroke: #A80036; stroke-width: 1.2000000000000002;" x1="340.6" x2="340.6" y1="266.5563" y2="282.5563"/><polygon fill="#A80036" points="337.4,274.5563,340.6,282.5563,343.8,274.5563,340.6,277.7563" style="stroke: #A80036; stroke-width: 0.8;"/><!--MD5=[b910fe720652d6440ddd182d69d02772]
@startuml








skinparam BackgroundColor #FFFFFFF

skinparam Shadowing false

skinparam Class {
    FontColor #FFFFFF
    BorderThickness 1
    BorderColor #FFFFFF
    StereotypeFontColor #FFFFFF
}

skinparam Actor {
    BorderColor #000000
    Color #000000
}

skinparam Sequence {
    MessageAlign center
    BoxFontSize 15
    BoxPadding 0
    BoxFontColor #FFFFFF
    SequenceBoxFontName Segoe UI
}

skinparam Participant {
    FontColor #FFFFFFF
    Padding 20
}

skinparam MinClassWidth 50
skinparam ParticipantPadding 10
skinparam Shadowing false
skinparam DefaultTextAlignment center
skinparam packageStyle Folder

skinparam DefaultFontName Arial
skinparam defaultMonospacedFontName Consolas

hide footbox
hide members
hide circle

start
:User inputs done command;

If () then ([Command is valid format])

If () then ([Recipe index exists])
    :Marks the recipe at specified index as attempted
    :Returns success message;
else ([Recipe index does not exist])
    :Returns failure message
    (Invalid index);
endif
:LogicManager prints message to user;

else ([command is not a valid format])
    :Returns failure message
    (invalid command format);

endif


stop
@enduml

PlantUML version 1.2020.03beta6(Unknown compile time)
(GPL source distribution)
Java Runtime: OpenJDK Runtime Environment
JVM: OpenJDK 64-Bit Server VM
Java Version: 11.0.5+10-b520.17
Operating System: Windows 10
Default Encoding: Cp1252
Language: en
Country: SG
--></g></svg>