<?xml version="1.0" encoding="UTF-8" standalone="no"?><svg xmlns="http://www.w3.org/2000/svg" xmlns:xlink="http://www.w3.org/1999/xlink" contentScriptType="application/ecmascript" contentStyleType="text/css" height="1498px" preserveAspectRatio="none" style="width:2376px;height:1498px;" version="1.1" viewBox="0 0 2376 1498" width="2376px" zoomAndPan="magnify"><defs/><g><rect fill="#C8C8FA" height="1455.9336" style="stroke: #A80036; stroke-width: 2.0;" width="1779" x="184" y="8"/><text fill="#FFFFFF" font-family="sans-serif" font-size="30" font-weight="bold" lengthAdjust="spacingAndGlyphs" textLength="84" x="1026.5" y="37.0039">Logic</text><rect fill="#F97181" height="1455.9336" style="stroke: #A80036; stroke-width: 2.0;" width="184" x="2159" y="8"/><text fill="#FFFFFF" font-family="sans-serif" font-size="30" font-weight="bold" lengthAdjust="spacingAndGlyphs" textLength="96" x="2198" y="37.0039">Model</text><rect fill="#FFFFFF" height="1263.0039" style="stroke: #A80036; stroke-width: 2.0;" width="20" x="316" y="176.9297"/><rect fill="#FFFFFF" height="456.4375" style="stroke: #A80036; stroke-width: 2.0;" width="20" x="744" y="235.5508"/><rect fill="#FFFFFF" height="62.9766" style="stroke: #A80036; stroke-width: 2.0;" width="20" x="1107" y="283.5508"/><rect fill="#FFFFFF" height="200.2188" style="stroke: #A80036; stroke-width: 2.0;" width="20" x="1107" y="405.1484"/><rect fill="#FFFFFF" height="93.5977" style="stroke: #A80036; stroke-width: 2.0;" width="20" x="1469" y="453.1484"/><rect fill="#FFFFFF" height="661.3242" style="stroke: #A80036; stroke-width: 2.0;" width="20" x="1469" y="750.6094"/><rect fill="#FFFFFF" height="80.6211" style="stroke: #A80036; stroke-width: 2.0;" width="20" x="1479" y="825.2305"/><rect fill="#FFFFFF" height="62.9766" style="stroke: #A80036; stroke-width: 2.0;" width="20" x="1794" y="1290.3359"/><rect fill="#FFFFFF" height="28" style="stroke: #A80036; stroke-width: 2.0;" width="20" x="2241" y="1027.0938"/><rect fill="#FFFFFF" height="28" style="stroke: #A80036; stroke-width: 2.0;" width="20" x="2241" y="1113.7148"/><rect fill="#FFFFFF" height="28" style="stroke: #A80036; stroke-width: 2.0;" width="20" x="2241" y="1214.3359"/><rect fill="#FFFFFF" height="207.8633" style="stroke: #000000; stroke-width: 4.0;" width="1050" x="1305" y="949.8516"/><line style="stroke: #A80036; stroke-width: 2.0; stroke-dasharray: 5.0,5.0;" x1="326" x2="326" y1="114.3086" y2="1475.9336"/><line style="stroke: #A80036; stroke-width: 2.0; stroke-dasharray: 5.0,5.0;" x1="753" x2="753" y1="114.3086" y2="1475.9336"/><line style="stroke: #A80036; stroke-width: 2.0; stroke-dasharray: 5.0,5.0;" x1="1117" x2="1117" y1="313.0391" y2="1475.9336"/><line style="stroke: #A80036; stroke-width: 2.0; stroke-dasharray: 5.0,5.0;" x1="1479" x2="1479" y1="482.6367" y2="1475.9336"/><line style="stroke: #A80036; stroke-width: 2.0; stroke-dasharray: 5.0,5.0;" x1="1803" x2="1803" y1="1319.8242" y2="1475.9336"/><line style="stroke: #A80036; stroke-width: 2.0; stroke-dasharray: 5.0,5.0;" x1="2251" x2="2251" y1="114.3086" y2="1475.9336"/><rect fill="#3333C4" height="60.9766" style="stroke: #A80036; stroke-width: 3.0;" width="228" x="212" y="51.332"/><text fill="#FFFFFF" font-family="sans-serif" font-size="28" lengthAdjust="spacingAndGlyphs" textLength="200" x="226" y="92.4023">:LogicManager</text><rect fill="#3333C4" height="60.9766" style="stroke: #A80036; stroke-width: 3.0;" width="270" x="619" y="51.332"/><text fill="#FFFFFF" font-family="sans-serif" font-size="28" lengthAdjust="spacingAndGlyphs" textLength="242" x="633" y="92.4023">:OrderBookParser</text><rect fill="#9D0012" height="60.9766" style="stroke: #A80036; stroke-width: 3.0;" width="128" x="2187" y="51.332"/><text fill="#FFFFFF" font-family="sans-serif" font-size="28" lengthAdjust="spacingAndGlyphs" textLength="92" x="2205" y="92.4023">:Model</text><rect fill="#FFFFFF" height="1263.0039" style="stroke: #A80036; stroke-width: 2.0;" width="20" x="316" y="176.9297"/><rect fill="#FFFFFF" height="456.4375" style="stroke: #A80036; stroke-width: 2.0;" width="20" x="744" y="235.5508"/><rect fill="#FFFFFF" height="62.9766" style="stroke: #A80036; stroke-width: 2.0;" width="20" x="1107" y="283.5508"/><rect fill="#FFFFFF" height="200.2188" style="stroke: #A80036; stroke-width: 2.0;" width="20" x="1107" y="405.1484"/><rect fill="#FFFFFF" height="93.5977" style="stroke: #A80036; stroke-width: 2.0;" width="20" x="1469" y="453.1484"/><rect fill="#FFFFFF" height="661.3242" style="stroke: #A80036; stroke-width: 2.0;" width="20" x="1469" y="750.6094"/><rect fill="#FFFFFF" height="80.6211" style="stroke: #A80036; stroke-width: 2.0;" width="20" x="1479" y="825.2305"/><rect fill="#FFFFFF" height="62.9766" style="stroke: #A80036; stroke-width: 2.0;" width="20" x="1794" y="1290.3359"/><rect fill="#FFFFFF" height="28" style="stroke: #A80036; stroke-width: 2.0;" width="20" x="2241" y="1027.0938"/><rect fill="#FFFFFF" height="28" style="stroke: #A80036; stroke-width: 2.0;" width="20" x="2241" y="1113.7148"/><rect fill="#FFFFFF" height="28" style="stroke: #A80036; stroke-width: 2.0;" width="20" x="2241" y="1214.3359"/><polygon fill="#A80036" points="292,168.9297,312,176.9297,292,184.9297,300,176.9297" style="stroke: #A80036; stroke-width: 2.0;"/><line style="stroke: #A80036; stroke-width: 2.0;" x1="6" x2="304" y1="176.9297" y2="176.9297"/><text fill="#000000" font-family="sans-serif" font-size="26" lengthAdjust="spacingAndGlyphs" textLength="272" x="25" y="167.4453">execute("delivered 1")</text><polygon fill="#A80036" points="720,227.5508,740,235.5508,720,243.5508,728,235.5508" style="stroke: #A80036; stroke-width: 2.0;"/><line style="stroke: #A80036; stroke-width: 2.0;" x1="336" x2="732" y1="235.5508" y2="235.5508"/><text fill="#000000" font-family="sans-serif" font-size="26" lengthAdjust="spacingAndGlyphs" textLength="370" x="355" y="226.0664">parseCommand("delivered 1")</text><polygon fill="#A80036" points="925,255.5508,945,263.5508,925,271.5508,933,263.5508" style="stroke: #A80036; stroke-width: 2.0;"/><line style="stroke: #A80036; stroke-width: 2.0;" x1="764" x2="937" y1="263.5508" y2="263.5508"/><rect fill="#3333C4" height="60.9766" style="stroke: #A80036; stroke-width: 3.0;" width="336" x="949" y="251.5508"/><text fill="#FFFFFF" font-family="sans-serif" font-size="28" lengthAdjust="spacingAndGlyphs" textLength="308" x="963" y="292.6211">:DoneCommandParser</text><polygon fill="#A80036" points="786,338.5273,766,346.5273,786,354.5273,778,346.5273" style="stroke: #A80036; stroke-width: 2.0;"/><line style="stroke: #A80036; stroke-width: 2.0; stroke-dasharray: 2.0,2.0;" x1="774" x2="1115" y1="346.5273" y2="346.5273"/><polygon fill="#A80036" points="1083,397.1484,1103,405.1484,1083,413.1484,1091,405.1484" style="stroke: #A80036; stroke-width: 2.0;"/><line style="stroke: #A80036; stroke-width: 2.0;" x1="764" x2="1095" y1="405.1484" y2="405.1484"/><text fill="#000000" font-family="sans-serif" font-size="26" lengthAdjust="spacingAndGlyphs" textLength="120" x="875.5" y="395.6641">parse("1")</text><polygon fill="#A80036" points="1321,425.1484,1341,433.1484,1321,441.1484,1329,433.1484" style="stroke: #A80036; stroke-width: 2.0;"/><line style="stroke: #A80036; stroke-width: 2.0;" x1="1127" x2="1333" y1="433.1484" y2="433.1484"/><rect fill="#3333C4" height="60.9766" style="stroke: #A80036; stroke-width: 3.0;" width="268" x="1345" y="421.1484"/><text fill="#FFFFFF" font-family="sans-serif" font-size="28" lengthAdjust="spacingAndGlyphs" textLength="240" x="1359" y="462.2188">d:DoneCommand</text><polygon fill="#A80036" points="1149,538.7461,1129,546.7461,1149,554.7461,1141,546.7461" style="stroke: #A80036; stroke-width: 2.0;"/><line style="stroke: #A80036; stroke-width: 2.0; stroke-dasharray: 2.0,2.0;" x1="1137" x2="1477" y1="546.7461" y2="546.7461"/><text fill="#000000" font-family="sans-serif" font-size="26" lengthAdjust="spacingAndGlyphs" textLength="16" x="1295" y="537.2617">d</text><polygon fill="#A80036" points="786,597.3672,766,605.3672,786,613.3672,778,605.3672" style="stroke: #A80036; stroke-width: 2.0;"/><line style="stroke: #A80036; stroke-width: 2.0; stroke-dasharray: 2.0,2.0;" x1="774" x2="1115" y1="605.3672" y2="605.3672"/><text fill="#000000" font-family="sans-serif" font-size="26" lengthAdjust="spacingAndGlyphs" textLength="16" x="932.5" y="595.8828">d</text><line style="stroke: #A80036; stroke-width: 4.0;" x1="1099" x2="1135" y1="615.3672" y2="651.3672"/><line style="stroke: #A80036; stroke-width: 4.0;" x1="1099" x2="1135" y1="651.3672" y2="615.3672"/><polygon fill="#A80036" points="358,683.9883,338,691.9883,358,699.9883,350,691.9883" style="stroke: #A80036; stroke-width: 2.0;"/><line style="stroke: #A80036; stroke-width: 2.0; stroke-dasharray: 2.0,2.0;" x1="346" x2="752" y1="691.9883" y2="691.9883"/><text fill="#000000" font-family="sans-serif" font-size="26" lengthAdjust="spacingAndGlyphs" textLength="16" x="537" y="682.5039">d</text><polygon fill="#A80036" points="1445,742.6094,1465,750.6094,1445,758.6094,1453,750.6094" style="stroke: #A80036; stroke-width: 2.0;"/><line style="stroke: #A80036; stroke-width: 2.0;" x1="336" x2="1457" y1="750.6094" y2="750.6094"/><text fill="#000000" font-family="sans-serif" font-size="26" lengthAdjust="spacingAndGlyphs" textLength="114" x="845.5" y="741.125">execute()</text><line style="stroke: #A80036; stroke-width: 2.0;" x1="1489" x2="1583" y1="799.2305" y2="799.2305"/><line style="stroke: #A80036; stroke-width: 2.0;" x1="1583" x2="1583" y1="799.2305" y2="825.2305"/><line style="stroke: #A80036; stroke-width: 2.0;" x1="1501" x2="1583" y1="825.2305" y2="825.2305"/><polygon fill="#A80036" points="1521,817.2305,1501,825.2305,1521,833.2305,1513,825.2305" style="stroke: #A80036; stroke-width: 2.0;"/><text fill="#000000" font-family="sans-serif" font-size="26" lengthAdjust="spacingAndGlyphs" textLength="156" x="1513" y="789.7461">isDelivered()</text><line style="stroke: #A80036; stroke-width: 2.0; stroke-dasharray: 2.0,2.0;" x1="1499" x2="1583" y1="903.8516" y2="903.8516"/><line style="stroke: #A80036; stroke-width: 2.0; stroke-dasharray: 2.0,2.0;" x1="1583" x2="1583" y1="903.8516" y2="929.8516"/><line style="stroke: #A80036; stroke-width: 2.0; stroke-dasharray: 2.0,2.0;" x1="1489" x2="1583" y1="929.8516" y2="929.8516"/><polygon fill="#A80036" points="1509,921.8516,1489,929.8516,1509,937.8516,1501,929.8516" style="stroke: #A80036; stroke-width: 2.0;"/><text fill="#000000" font-family="sans-serif" font-size="26" lengthAdjust="spacingAndGlyphs" textLength="60" x="1513" y="894.3672">false</text><path d="M1305,949.8516 L1439,949.8516 L1439,963.8516 L1419,983.8516 L1305,983.8516 L1305,949.8516 " fill="#EEEEEE" style="stroke: #000000; stroke-width: 2.0;"/><rect fill="none" height="207.8633" style="stroke: #000000; stroke-width: 4.0;" width="1050" x="1305" y="949.8516"/><text fill="#000000" font-family="sans-serif" font-size="26" font-weight="bold" lengthAdjust="spacingAndGlyphs" textLength="44" x="1335" y="976.9883">opt</text><text fill="#000000" font-family="sans-serif" font-size="22" font-weight="bold" lengthAdjust="spacingAndGlyphs" textLength="282" x="1469" y="975.1211">[order was not delivered]</text><polygon fill="#A80036" points="2217,1019.0938,2237,1027.0938,2217,1035.0938,2225,1027.0938" style="stroke: #A80036; stroke-width: 2.0;"/><line style="stroke: #A80036; stroke-width: 2.0;" x1="1489" x2="2229" y1="1027.0938" y2="1027.0938"/><text fill="#000000" font-family="sans-serif" font-size="26" lengthAdjust="spacingAndGlyphs" textLength="124" x="1803" y="1017.6094">setOrder()</text><polygon fill="#A80036" points="1511,1047.0938,1491,1055.0938,1511,1063.0938,1503,1055.0938" style="stroke: #A80036; stroke-width: 2.0;"/><line style="stroke: #A80036; stroke-width: 2.0; stroke-dasharray: 2.0,2.0;" x1="1499" x2="2249" y1="1055.0938" y2="1055.0938"/><polygon fill="#A80036" points="2217,1105.7148,2237,1113.7148,2217,1121.7148,2225,1113.7148" style="stroke: #A80036; stroke-width: 2.0;"/><line style="stroke: #A80036; stroke-width: 2.0;" x1="1489" x2="2229" y1="1113.7148" y2="1113.7148"/><text fill="#000000" font-family="sans-serif" font-size="26" lengthAdjust="spacingAndGlyphs" textLength="170" x="1780" y="1104.2305">deliverOrder()</text><polygon fill="#A80036" points="1511,1133.7148,1491,1141.7148,1511,1149.7148,1503,1141.7148" style="stroke: #A80036; stroke-width: 2.0;"/><line style="stroke: #A80036; stroke-width: 2.0; stroke-dasharray: 2.0,2.0;" x1="1499" x2="2249" y1="1141.7148" y2="1141.7148"/><polygon fill="#A80036" points="2217,1206.3359,2237,1214.3359,2217,1222.3359,2225,1214.3359" style="stroke: #A80036; stroke-width: 2.0;"/><line style="stroke: #A80036; stroke-width: 2.0;" x1="1489" x2="2229" y1="1214.3359" y2="1214.3359"/><text fill="#000000" font-family="sans-serif" font-size="26" lengthAdjust="spacingAndGlyphs" textLength="714" x="1508" y="1204.8516">updateFilteredOrderList(PREDICATE_SHOW_ALL_ORDERS)</text><polygon fill="#A80036" points="1511,1234.3359,1491,1242.3359,1511,1250.3359,1503,1242.3359" style="stroke: #A80036; stroke-width: 2.0;"/><line style="stroke: #A80036; stroke-width: 2.0; stroke-dasharray: 2.0,2.0;" x1="1499" x2="2249" y1="1242.3359" y2="1242.3359"/><polygon fill="#A80036" points="1649,1262.3359,1669,1270.3359,1649,1278.3359,1657,1270.3359" style="stroke: #A80036; stroke-width: 2.0;"/><line style="stroke: #A80036; stroke-width: 2.0;" x1="1489" x2="1661" y1="1270.3359" y2="1270.3359"/><rect fill="#3333C4" height="60.9766" style="stroke: #A80036; stroke-width: 3.0;" width="262" x="1673" y="1258.3359"/><text fill="#FFFFFF" font-family="sans-serif" font-size="28" lengthAdjust="spacingAndGlyphs" textLength="234" x="1687" y="1299.4063">:CommandResult</text><polygon fill="#A80036" points="1511,1345.3125,1491,1353.3125,1511,1361.3125,1503,1353.3125" style="stroke: #A80036; stroke-width: 2.0;"/><line style="stroke: #A80036; stroke-width: 2.0; stroke-dasharray: 2.0,2.0;" x1="1499" x2="1802" y1="1353.3125" y2="1353.3125"/><polygon fill="#A80036" points="358,1403.9336,338,1411.9336,358,1419.9336,350,1411.9336" style="stroke: #A80036; stroke-width: 2.0;"/><line style="stroke: #A80036; stroke-width: 2.0; stroke-dasharray: 2.0,2.0;" x1="346" x2="1477" y1="1411.9336" y2="1411.9336"/><text fill="#000000" font-family="sans-serif" font-size="26" lengthAdjust="spacingAndGlyphs" textLength="72" x="871.5" y="1402.4492">result</text><polygon fill="#A80036" points="28,1431.9336,8,1439.9336,28,1447.9336,20,1439.9336" style="stroke: #A80036; stroke-width: 2.0;"/><line style="stroke: #A80036; stroke-width: 2.0; stroke-dasharray: 2.0,2.0;" x1="16" x2="324" y1="1439.9336" y2="1439.9336"/><!--MD5=[9dc544312737f3255f2913c690554da9]
@startuml








skinparam BackgroundColor #FFFFFFF

skinparam Shadowing false

skinparam Class {
    FontColor #FFFFFF
    BorderThickness 1
    BorderColor #FFFFFF
    StereotypeFontColor #FFFFFF
    FontName Arial
}

skinparam Actor {
    BorderColor #000000
    Color #000000
    FontName Arial
}

skinparam Sequence {
    MessageAlign center
    BoxFontSize 15
    BoxPadding 0
    BoxFontColor #FFFFFF
    FontName Arial
}

skinparam Participant {
    FontColor #FFFFFFF
    Padding 20
}

skinparam MinClassWidth 50
skinparam ParticipantPadding 10
skinparam Shadowing false
skinparam DefaultTextAlignment center
skinparam packageStyle Rectangle

hide footbox
hide members
hide circle

box Logic #C8C8FA
participant ":LogicManager" as LogicManager #3333C4
participant ":OrderBookParser" as OrderBookParser #3333C4
participant ":DoneCommandParser" as DoneCommandParser #3333C4
participant "d:DoneCommand" as DoneCommand #3333C4
participant ":CommandResult" as CommandResult #3333C4
end box

box Model #F97181
participant ":Model" as Model #9D0012
end box

[-> LogicManager : execute("delivered 1")
activate LogicManager

LogicManager -> OrderBookParser : parseCommand("delivered 1")
activate OrderBookParser

create DoneCommandParser
OrderBookParser -> DoneCommandParser
activate DoneCommandParser

DoneCommandParser - -> OrderBookParser
deactivate DoneCommandParser

OrderBookParser -> DoneCommandParser : parse("1")
activate DoneCommandParser

create DoneCommand
DoneCommandParser -> DoneCommand
activate DoneCommand

DoneCommand - -> DoneCommandParser : d
deactivate DoneCommand

DoneCommandParser - -> OrderBookParser : d
deactivate DoneCommandParser
DoneCommandParser -[hidden]-> OrderBookParser
destroy DoneCommandParser

OrderBookParser - -> LogicManager : d
deactivate OrderBookParser

LogicManager -> DoneCommand : execute()
activate DoneCommand


DoneCommand -> DoneCommand: isDelivered()
activate DoneCommand
DoneCommand - -> DoneCommand: false
opt order was not delivered
deactivate DoneCommand

DoneCommand -> Model : setOrder()
activate Model

Model - -> DoneCommand
deactivate Model
DoneCommand -> Model : deliverOrder()
activate Model

Model - -> DoneCommand
deactivate Model
end

DoneCommand -> Model : updateFilteredOrderList(PREDICATE_SHOW_ALL_ORDERS)
activate Model

Model - -> DoneCommand
deactivate Model


create CommandResult
DoneCommand -> CommandResult
activate CommandResult

CommandResult - -> DoneCommand
deactivate CommandResult

DoneCommand - -> LogicManager : result
deactivate DoneCommand

[<- -LogicManager
deactivate LogicManager
@enduml

PlantUML version 1.2020.03beta6(Unknown compile time)
(GPL source distribution)
Java Runtime: OpenJDK Runtime Environment
JVM: OpenJDK 64-Bit Server VM
Java Version: 11.0.5+10-b520.38
Operating System: Mac OS X
Default Encoding: UTF-8
Language: en
Country: SG
--></g></svg>
