<?xml version="1.0" encoding="UTF-8" standalone="no"?><svg xmlns="http://www.w3.org/2000/svg" xmlns:xlink="http://www.w3.org/1999/xlink" contentScriptType="application/ecmascript" contentStyleType="text/css" height="433.6px" preserveAspectRatio="none" style="width:790px;height:433px;" version="1.1" viewBox="0 0 790 433" width="790.4px" zoomAndPan="magnify"><defs/><g><rect fill="#C8C8FA" height="416.1453" style="stroke: #A80036; stroke-width: 0.8;" width="656.8" x="49.6" y="3.2"/><text fill="#FFFFFF" font-family="Arial" font-size="12" font-weight="bold" lengthAdjust="spacingAndGlyphs" textLength="31.2" x="360.8" y="14.4559">Logic</text><rect fill="#F97181" height="416.1453" style="stroke: #A80036; stroke-width: 0.8;" width="73.6" x="708" y="3.2"/><text fill="#FFFFFF" font-family="Arial" font-size="12" font-weight="bold" lengthAdjust="spacingAndGlyphs" textLength="35.2" x="725.6" y="14.4559">Model</text><rect fill="#FFFFFF" height="339.9086" style="stroke: #A80036; stroke-width: 0.8;" width="8" x="100" y="69.8367"/><rect fill="#FFFFFF" height="180.7938" style="stroke: #A80036; stroke-width: 0.8;" width="8" x="241.6" y="92.9957"/><rect fill="#FFFFFF" height="24.8789" style="stroke: #A80036; stroke-width: 0.8;" width="8" x="383.2" y="112.1957"/><rect fill="#FFFFFF" height="79.1969" style="stroke: #A80036; stroke-width: 0.8;" width="8" x="383.2" y="160.2336"/><rect fill="#FFFFFF" height="36.8379" style="stroke: #A80036; stroke-width: 0.8;" width="8" x="520" y="179.4336"/><rect fill="#FFFFFF" height="101.5969" style="stroke: #A80036; stroke-width: 0.8;" width="8" x="520" y="296.9484"/><rect fill="#FFFFFF" height="24.8789" style="stroke: #A80036; stroke-width: 0.8;" width="8" x="642.4" y="350.5074"/><rect fill="#FFFFFF" height="11.2" style="stroke: #A80036; stroke-width: 0.8;" width="8" x="740.8" y="320.1074"/><line style="stroke: #A80036; stroke-width: 0.8; stroke-dasharray: 5.0,5.0;" x1="104" x2="104" y1="45.0777" y2="424.1453"/><line style="stroke: #A80036; stroke-width: 0.8; stroke-dasharray: 5.0,5.0;" x1="245.6" x2="245.6" y1="45.0777" y2="424.1453"/><line style="stroke: #A80036; stroke-width: 0.8; stroke-dasharray: 5.0,5.0;" x1="387.2" x2="387.2" y1="123.8352" y2="424.1453"/><line style="stroke: #A80036; stroke-width: 0.8; stroke-dasharray: 5.0,5.0;" x1="524" x2="524" y1="191.073" y2="424.1453"/><line style="stroke: #A80036; stroke-width: 0.8; stroke-dasharray: 5.0,5.0;" x1="646.4" x2="646.4" y1="362.1469" y2="424.1453"/><line style="stroke: #A80036; stroke-width: 0.8; stroke-dasharray: 5.0,5.0;" x1="744.8" x2="744.8" y1="45.0777" y2="424.1453"/><rect fill="#3333C4" height="24.0789" style="stroke: #A80036; stroke-width: 1.2000000000000002;" width="86.4" x="60.8" y="20.1988"/><text fill="#FFFFFF" font-family="Arial" font-size="11.2" lengthAdjust="spacingAndGlyphs" textLength="75.2" x="66.4" y="36.3043">:LogicManager</text><rect fill="#3333C4" height="24.0789" style="stroke: #A80036; stroke-width: 1.2000000000000002;" width="108.8" x="191.2" y="20.1988"/><text fill="#FFFFFF" font-family="Arial" font-size="11.2" lengthAdjust="spacingAndGlyphs" textLength="97.6" x="196.8" y="36.3043">:RecipeBookParser</text><rect fill="#9D0012" height="24.0789" style="stroke: #A80036; stroke-width: 1.2000000000000002;" width="51.2" x="719.2" y="20.1988"/><text fill="#FFFFFF" font-family="Arial" font-size="11.2" lengthAdjust="spacingAndGlyphs" textLength="33.6" x="728" y="36.3043">:Model</text><rect fill="#FFFFFF" height="339.9086" style="stroke: #A80036; stroke-width: 0.8;" width="8" x="100" y="69.8367"/><rect fill="#FFFFFF" height="180.7938" style="stroke: #A80036; stroke-width: 0.8;" width="8" x="241.6" y="92.9957"/><rect fill="#FFFFFF" height="24.8789" style="stroke: #A80036; stroke-width: 0.8;" width="8" x="383.2" y="112.1957"/><rect fill="#FFFFFF" height="79.1969" style="stroke: #A80036; stroke-width: 0.8;" width="8" x="383.2" y="160.2336"/><rect fill="#FFFFFF" height="36.8379" style="stroke: #A80036; stroke-width: 0.8;" width="8" x="520" y="179.4336"/><rect fill="#FFFFFF" height="101.5969" style="stroke: #A80036; stroke-width: 0.8;" width="8" x="520" y="296.9484"/><rect fill="#FFFFFF" height="24.8789" style="stroke: #A80036; stroke-width: 0.8;" width="8" x="642.4" y="350.5074"/><rect fill="#FFFFFF" height="11.2" style="stroke: #A80036; stroke-width: 0.8;" width="8" x="740.8" y="320.1074"/><polygon fill="#A80036" points="90.4,66.6367,98.4,69.8367,90.4,73.0367,93.6,69.8367" style="stroke: #A80036; stroke-width: 0.8;"/><line style="stroke: #A80036; stroke-width: 0.8;" x1="2.4" x2="95.2" y1="69.8367" y2="69.8367"/><text fill="#000000" font-family="Arial" font-size="10.4" lengthAdjust="spacingAndGlyphs" textLength="82.4" x="10" y="66.0328">execute("done 1")</text><polygon fill="#A80036" points="232,89.7957,240,92.9957,232,96.1957,235.2,92.9957" style="stroke: #A80036; stroke-width: 0.8;"/><line style="stroke: #A80036; stroke-width: 0.8;" x1="108" x2="236.8" y1="92.9957" y2="92.9957"/><text fill="#000000" font-family="Arial" font-size="10.4" lengthAdjust="spacingAndGlyphs" textLength="118.4" x="115.6" y="89.1918">parseCommand("done 1")</text><polygon fill="#A80036" points="314.4,100.9957,322.4,104.1957,314.4,107.3957,317.6,104.1957" style="stroke: #A80036; stroke-width: 0.8;"/><line style="stroke: #A80036; stroke-width: 0.8;" x1="249.6" x2="319.2" y1="104.1957" y2="104.1957"/><rect fill="#3333C4" height="24.0789" style="stroke: #A80036; stroke-width: 1.2000000000000002;" width="126.4" x="324" y="99.3957"/><text fill="#FFFFFF" font-family="Arial" font-size="11.2" lengthAdjust="spacingAndGlyphs" textLength="115.2" x="329.6" y="115.5012">:DoneCommandParser</text><polygon fill="#A80036" points="258.4,133.8746,250.4,137.0746,258.4,140.2746,255.2,137.0746" style="stroke: #A80036; stroke-width: 0.8;"/><line style="stroke: #A80036; stroke-width: 0.8; stroke-dasharray: 2.0,2.0;" x1="253.6" x2="386.4" y1="137.0746" y2="137.0746"/><polygon fill="#A80036" points="373.6,157.0336,381.6,160.2336,373.6,163.4336,376.8,160.2336" style="stroke: #A80036; stroke-width: 0.8;"/><line style="stroke: #A80036; stroke-width: 0.8;" x1="249.6" x2="378.4" y1="160.2336" y2="160.2336"/><text fill="#000000" font-family="Arial" font-size="10.4" lengthAdjust="spacingAndGlyphs" textLength="45.6" x="293.6" y="156.4297">parse("1")</text><polygon fill="#A80036" points="464.8,168.2336,472.8,171.4336,464.8,174.6336,468,171.4336" style="stroke: #A80036; stroke-width: 0.8;"/><line style="stroke: #A80036; stroke-width: 0.8;" x1="391.2" x2="469.6" y1="171.4336" y2="171.4336"/><rect fill="#3333C4" height="24.0789" style="stroke: #A80036; stroke-width: 1.2000000000000002;" width="99.2" x="474.4" y="166.6336"/><text fill="#FFFFFF" font-family="Arial" font-size="11.2" lengthAdjust="spacingAndGlyphs" textLength="88" x="480" y="182.7391">d:DoneCommand</text><polygon fill="#A80036" points="400,213.0715,392,216.2715,400,219.4715,396.8,216.2715" style="stroke: #A80036; stroke-width: 0.8;"/><line style="stroke: #A80036; stroke-width: 0.8; stroke-dasharray: 2.0,2.0;" x1="395.2" x2="523.2" y1="216.2715" y2="216.2715"/><text fill="#000000" font-family="Arial" font-size="10.4" lengthAdjust="spacingAndGlyphs" textLength="5.6" x="454.8" y="212.4676">d</text><polygon fill="#A80036" points="258.4,236.2305,250.4,239.4305,258.4,242.6305,255.2,239.4305" style="stroke: #A80036; stroke-width: 0.8;"/><line style="stroke: #A80036; stroke-width: 0.8; stroke-dasharray: 2.0,2.0;" x1="253.6" x2="386.4" y1="239.4305" y2="239.4305"/><text fill="#000000" font-family="Arial" font-size="10.4" lengthAdjust="spacingAndGlyphs" textLength="5.6" x="315.6" y="235.6266">d</text><line style="stroke: #A80036; stroke-width: 1.6;" x1="380" x2="394.4" y1="243.4305" y2="257.8305"/><line style="stroke: #A80036; stroke-width: 1.6;" x1="380" x2="394.4" y1="257.8305" y2="243.4305"/><polygon fill="#A80036" points="116.8,270.5895,108.8,273.7895,116.8,276.9895,113.6,273.7895" style="stroke: #A80036; stroke-width: 0.8;"/><line style="stroke: #A80036; stroke-width: 0.8; stroke-dasharray: 2.0,2.0;" x1="112" x2="244.8" y1="273.7895" y2="273.7895"/><text fill="#000000" font-family="Arial" font-size="10.4" lengthAdjust="spacingAndGlyphs" textLength="5.6" x="174" y="269.9855">d</text><polygon fill="#A80036" points="510.4,293.7484,518.4,296.9484,510.4,300.1484,513.6,296.9484" style="stroke: #A80036; stroke-width: 0.8;"/><line style="stroke: #A80036; stroke-width: 0.8;" x1="108" x2="515.2" y1="296.9484" y2="296.9484"/><text fill="#000000" font-family="Arial" font-size="10.4" lengthAdjust="spacingAndGlyphs" textLength="43.2" x="292.4" y="293.1445">execute()</text><polygon fill="#A80036" points="731.2,316.9074,739.2,320.1074,731.2,323.3074,734.4,320.1074" style="stroke: #A80036; stroke-width: 0.8;"/><line style="stroke: #A80036; stroke-width: 0.8;" x1="528" x2="736" y1="320.1074" y2="320.1074"/><text fill="#000000" font-family="Arial" font-size="10.4" lengthAdjust="spacingAndGlyphs" textLength="76.8" x="596" y="316.3035">attemptRecipe(r)</text><polygon fill="#A80036" points="536.8,328.1074,528.8,331.3074,536.8,334.5074,533.6,331.3074" style="stroke: #A80036; stroke-width: 0.8;"/><line style="stroke: #A80036; stroke-width: 0.8; stroke-dasharray: 2.0,2.0;" x1="532" x2="744" y1="331.3074" y2="331.3074"/><polygon fill="#A80036" points="588,339.3074,596,342.5074,588,345.7074,591.2,342.5074" style="stroke: #A80036; stroke-width: 0.8;"/><line style="stroke: #A80036; stroke-width: 0.8;" x1="528" x2="592.8" y1="342.5074" y2="342.5074"/><rect fill="#3333C4" height="24.0789" style="stroke: #A80036; stroke-width: 1.2000000000000002;" width="97.6" x="597.6" y="337.7074"/><text fill="#FFFFFF" font-family="Arial" font-size="11.2" lengthAdjust="spacingAndGlyphs" textLength="86.4" x="603.2" y="353.8129">:CommandResult</text><polygon fill="#A80036" points="536.8,372.1863,528.8,375.3863,536.8,378.5863,533.6,375.3863" style="stroke: #A80036; stroke-width: 0.8;"/><line style="stroke: #A80036; stroke-width: 0.8; stroke-dasharray: 2.0,2.0;" x1="532" x2="645.6" y1="375.3863" y2="375.3863"/><polygon fill="#A80036" points="116.8,395.3453,108.8,398.5453,116.8,401.7453,113.6,398.5453" style="stroke: #A80036; stroke-width: 0.8;"/><line style="stroke: #A80036; stroke-width: 0.8; stroke-dasharray: 2.0,2.0;" x1="112" x2="523.2" y1="398.5453" y2="398.5453"/><text fill="#000000" font-family="Arial" font-size="10.4" lengthAdjust="spacingAndGlyphs" textLength="25.6" x="303.2" y="394.7414">result</text><polygon fill="#A80036" points="11.2,406.5453,3.2,409.7453,11.2,412.9453,8,409.7453" style="stroke: #A80036; stroke-width: 0.8;"/><line style="stroke: #A80036; stroke-width: 0.8; stroke-dasharray: 2.0,2.0;" x1="6.4" x2="103.2" y1="409.7453" y2="409.7453"/><!--MD5=[e12415ba2c3b68e384ef0c6ea0c1fcf1]
@startuml DoneSequenceDiagram








skinparam BackgroundColor #FFFFFFF

skinparam Shadowing false

skinparam Class {
    FontColor #FFFFFF
    BorderThickness 1
    BorderColor #FFFFFF
    StereotypeFontColor #FFFFFF
}

skinparam Actor {
    BorderColor #000000
    Color #000000
}

skinparam Sequence {
    MessageAlign center
    BoxFontSize 15
    BoxPadding 0
    BoxFontColor #FFFFFF
    SequenceBoxFontName Segoe UI
}

skinparam Participant {
    FontColor #FFFFFFF
    Padding 20
}

skinparam MinClassWidth 50
skinparam ParticipantPadding 10
skinparam Shadowing false
skinparam DefaultTextAlignment center
skinparam packageStyle Folder

skinparam DefaultFontName Arial
skinparam defaultMonospacedFontName Consolas

hide footbox
hide members
hide circle

box Logic #C8C8FA
participant ":LogicManager" as LogicManager #3333C4
participant ":RecipeBookParser" as RecipeBookParser #3333C4
participant ":DoneCommandParser" as DoneCommandParser #3333C4
participant "d:DoneCommand" as DoneCommand #3333C4
participant ":CommandResult" as CommandResult #3333C4
end box

box Model #F97181
participant ":Model" as Model #9D0012
end box


[-> LogicManager : execute("done 1")
activate LogicManager

LogicManager -> RecipeBookParser : parseCommand("done 1")
activate RecipeBookParser

create DoneCommandParser
RecipeBookParser -> DoneCommandParser
activate DoneCommandParser

DoneCommandParser - -> RecipeBookParser
deactivate DoneCommandParser

RecipeBookParser -> DoneCommandParser : parse("1")
activate DoneCommandParser

create DoneCommand
DoneCommandParser -> DoneCommand
activate DoneCommand

DoneCommand - -> DoneCommandParser : d

deactivate DoneCommand

DoneCommandParser - -> RecipeBookParser : d
deactivate DoneCommandParser
DoneCommandParser -[hidden]-> RecipeBookParser
destroy DoneCommandParser

RecipeBookParser - -> LogicManager : d
deactivate RecipeBookParser

LogicManager -> DoneCommand : execute()
activate DoneCommand

DoneCommand -> Model : attemptRecipe(r)
activate Model

Model - -> DoneCommand
deactivate Model

create CommandResult
DoneCommand -> CommandResult
activate CommandResult

CommandResult - -> DoneCommand
deactivate CommandResult

DoneCommand - -> LogicManager : result
deactivate DoneCommand

[<- -LogicManager
deactivate LogicManager
@enduml

PlantUML version 1.2020.03beta6(Unknown compile time)
(GPL source distribution)
Java Runtime: OpenJDK Runtime Environment
JVM: OpenJDK 64-Bit Server VM
Java Version: 11.0.5+10-b520.17
Operating System: Windows 10
Default Encoding: Cp1252
Language: en
Country: SG
--></g></svg>
