<?xml version="1.0" encoding="UTF-8" standalone="no"?><svg xmlns="http://www.w3.org/2000/svg" xmlns:xlink="http://www.w3.org/1999/xlink" contentScriptType="application/ecmascript" contentStyleType="text/css" height="962.5px" preserveAspectRatio="none" style="width:1428px;height:962px;" version="1.1" viewBox="0 0 1428 962" width="1428.75px" zoomAndPan="magnify"><defs/><g><rect fill="#C8C8FA" height="935.2832" style="stroke: #A80036; stroke-width: 1.25;" width="1049.375" x="105" y="5"/><text fill="#FFFFFF" font-family="sans-serif" font-size="18.75" font-weight="bold" lengthAdjust="spacingAndGlyphs" textLength="48.75" x="602.8125" y="24.4641">Logic</text><rect fill="#F97181" height="935.2832" style="stroke: #A80036; stroke-width: 1.25;" width="115" x="1293.125" y="5"/><text fill="#FFFFFF" font-family="sans-serif" font-size="18.75" font-weight="bold" lengthAdjust="spacingAndGlyphs" textLength="55" x="1320.625" y="24.4641">Model</text><rect fill="#FFFFFF" height="810.498" style="stroke: #A80036; stroke-width: 1.25;" width="12.5" x="183.75" y="114.7852"/><rect fill="#FFFFFF" height="293.2813" style="stroke: #A80036; stroke-width: 1.25;" width="12.5" x="432.5" y="152.7246"/><rect fill="#FFFFFF" height="40.7617" style="stroke: #A80036; stroke-width: 1.25;" width="12.5" x="649.375" y="182.7246"/><rect fill="#FFFFFF" height="129.1406" style="stroke: #A80036; stroke-width: 1.25;" width="12.5" x="649.375" y="261.4258"/><rect fill="#FFFFFF" height="61.2012" style="stroke: #A80036; stroke-width: 1.25;" width="12.5" x="863.125" y="291.4258"/><rect fill="#FFFFFF" height="423.8379" style="stroke: #A80036; stroke-width: 1.25;" width="12.5" x="863.125" y="483.9453"/><rect fill="#FFFFFF" height="51.6895" style="stroke: #A80036; stroke-width: 1.25;" width="12.5" x="869.375" y="531.8848"/><rect fill="#FFFFFF" height="40.7617" style="stroke: #A80036; stroke-width: 1.25;" width="12.5" x="1054.375" y="829.082"/><rect fill="#FFFFFF" height="17.5" style="stroke: #A80036; stroke-width: 1.25;" width="12.5" x="1344.375" y="661.9531"/><rect fill="#FFFFFF" height="17.5" style="stroke: #A80036; stroke-width: 1.25;" width="12.5" x="1344.375" y="717.3926"/><rect fill="#FFFFFF" height="17.5" style="stroke: #A80036; stroke-width: 1.25;" width="12.5" x="1344.375" y="781.582"/><rect fill="#3333C4" height="39.5117" style="stroke: #A80036; stroke-width: 1.875;" width="197.5" x="556.875" y="162.7246"/><text fill="#FFFFFF" font-family="sans-serif" font-size="17.5" lengthAdjust="spacingAndGlyphs" textLength="180" x="565.625" y="189.6411">:DoneCommandParser</text><rect fill="#3333C4" height="39.5117" style="stroke: #A80036; stroke-width: 1.875;" width="155" x="791.875" y="271.4258"/><text fill="#FFFFFF" font-family="sans-serif" font-size="17.5" lengthAdjust="spacingAndGlyphs" textLength="137.5" x="800.625" y="298.3423">d:DoneCommand</text><rect fill="#FFFFFF" height="133.8184" style="stroke: #000000; stroke-width: 2.5;" width="648.75" x="766.875" y="611.0742"/><rect fill="#3333C4" height="39.5117" style="stroke: #A80036; stroke-width: 1.875;" width="152.5" x="984.375" y="809.082"/><text fill="#FFFFFF" font-family="sans-serif" font-size="17.5" lengthAdjust="spacingAndGlyphs" textLength="135" x="993.125" y="835.9985">:CommandResult</text><line style="stroke: #A80036; stroke-width: 1.25; stroke-dasharray: 5.0,5.0;" x1="190" x2="190" y1="74.3457" y2="947.7832"/><line style="stroke: #A80036; stroke-width: 1.25; stroke-dasharray: 5.0,5.0;" x1="438.125" x2="438.125" y1="74.3457" y2="947.7832"/><line style="stroke: #A80036; stroke-width: 1.25; stroke-dasharray: 5.0,5.0;" x1="655.625" x2="655.625" y1="201.8555" y2="947.7832"/><line style="stroke: #A80036; stroke-width: 1.25; stroke-dasharray: 5.0,5.0;" x1="869.375" x2="869.375" y1="310.5566" y2="947.7832"/><line style="stroke: #A80036; stroke-width: 1.25; stroke-dasharray: 5.0,5.0;" x1="1060.625" x2="1060.625" y1="848.2129" y2="947.7832"/><line style="stroke: #A80036; stroke-width: 1.25; stroke-dasharray: 5.0,5.0;" x1="1350.625" x2="1350.625" y1="74.3457" y2="947.7832"/><rect fill="#3333C4" height="39.5117" style="stroke: #A80036; stroke-width: 1.875;" width="135" x="122.5" y="33.584"/><text fill="#FFFFFF" font-family="sans-serif" font-size="17.5" lengthAdjust="spacingAndGlyphs" textLength="117.5" x="131.25" y="60.5005">:LogicManager</text><rect fill="#3333C4" height="39.5117" style="stroke: #A80036; stroke-width: 1.875;" width="161.25" x="358.125" y="33.584"/><text fill="#FFFFFF" font-family="sans-serif" font-size="17.5" lengthAdjust="spacingAndGlyphs" textLength="143.75" x="366.875" y="60.5005">:OrderBookParser</text><rect fill="#9D0012" height="39.5117" style="stroke: #A80036; stroke-width: 1.875;" width="80" x="1310.625" y="33.584"/><text fill="#FFFFFF" font-family="sans-serif" font-size="17.5" lengthAdjust="spacingAndGlyphs" textLength="52.5" x="1324.375" y="60.5005">:Model</text><rect fill="#FFFFFF" height="810.498" style="stroke: #A80036; stroke-width: 1.25;" width="12.5" x="183.75" y="114.7852"/><rect fill="#FFFFFF" height="293.2813" style="stroke: #A80036; stroke-width: 1.25;" width="12.5" x="432.5" y="152.7246"/><rect fill="#FFFFFF" height="40.7617" style="stroke: #A80036; stroke-width: 1.25;" width="12.5" x="649.375" y="182.7246"/><rect fill="#FFFFFF" height="129.1406" style="stroke: #A80036; stroke-width: 1.25;" width="12.5" x="649.375" y="261.4258"/><rect fill="#FFFFFF" height="61.2012" style="stroke: #A80036; stroke-width: 1.25;" width="12.5" x="863.125" y="291.4258"/><rect fill="#FFFFFF" height="423.8379" style="stroke: #A80036; stroke-width: 1.25;" width="12.5" x="863.125" y="483.9453"/><rect fill="#FFFFFF" height="51.6895" style="stroke: #A80036; stroke-width: 1.25;" width="12.5" x="869.375" y="531.8848"/><rect fill="#FFFFFF" height="40.7617" style="stroke: #A80036; stroke-width: 1.25;" width="12.5" x="1054.375" y="829.082"/><rect fill="#FFFFFF" height="17.5" style="stroke: #A80036; stroke-width: 1.25;" width="12.5" x="1344.375" y="661.9531"/><rect fill="#FFFFFF" height="17.5" style="stroke: #A80036; stroke-width: 1.25;" width="12.5" x="1344.375" y="717.3926"/><rect fill="#FFFFFF" height="17.5" style="stroke: #A80036; stroke-width: 1.25;" width="12.5" x="1344.375" y="781.582"/><polygon fill="#A80036" points="168.75,109.7852,181.25,114.7852,168.75,119.7852,173.75,114.7852" style="stroke: #A80036; stroke-width: 1.25;"/><line style="stroke: #A80036; stroke-width: 1.25;" x1="3.75" x2="176.25" y1="114.7852" y2="114.7852"/><text fill="#000000" font-family="sans-serif" font-size="16.25" lengthAdjust="spacingAndGlyphs" textLength="156.25" x="15.625" y="108.7146">execute("delivered 1")</text><polygon fill="#A80036" points="417.5,147.7246,430,152.7246,417.5,157.7246,422.5,152.7246" style="stroke: #A80036; stroke-width: 1.25;"/><line style="stroke: #A80036; stroke-width: 1.25;" x1="196.25" x2="425" y1="152.7246" y2="152.7246"/><text fill="#000000" font-family="sans-serif" font-size="16.25" lengthAdjust="spacingAndGlyphs" textLength="212.5" x="208.125" y="146.6541">parseCommand("delivered 1")</text><polygon fill="#A80036" points="541.875,165.2246,554.375,170.2246,541.875,175.2246,546.875,170.2246" style="stroke: #A80036; stroke-width: 1.25;"/><line style="stroke: #A80036; stroke-width: 1.25;" x1="445" x2="549.375" y1="170.2246" y2="170.2246"/><rect fill="#3333C4" height="39.5117" style="stroke: #A80036; stroke-width: 1.875;" width="197.5" x="556.875" y="162.7246"/><text fill="#FFFFFF" font-family="sans-serif" font-size="17.5" lengthAdjust="spacingAndGlyphs" textLength="180" x="565.625" y="189.6411">:DoneCommandParser</text><polygon fill="#A80036" points="458.75,218.4863,446.25,223.4863,458.75,228.4863,453.75,223.4863" style="stroke: #A80036; stroke-width: 1.25;"/><line style="stroke: #A80036; stroke-width: 1.25; stroke-dasharray: 2.0,2.0;" x1="451.25" x2="654.375" y1="223.4863" y2="223.4863"/><polygon fill="#A80036" points="634.375,256.4258,646.875,261.4258,634.375,266.4258,639.375,261.4258" style="stroke: #A80036; stroke-width: 1.25;"/><line style="stroke: #A80036; stroke-width: 1.25;" x1="445" x2="641.875" y1="261.4258" y2="261.4258"/><text fill="#000000" font-family="sans-serif" font-size="16.25" lengthAdjust="spacingAndGlyphs" textLength="71.25" x="511.5625" y="255.3552">parse("1")</text><polygon fill="#A80036" points="776.875,273.9258,789.375,278.9258,776.875,283.9258,781.875,278.9258" style="stroke: #A80036; stroke-width: 1.25;"/><line style="stroke: #A80036; stroke-width: 1.25;" x1="661.875" x2="784.375" y1="278.9258" y2="278.9258"/><rect fill="#3333C4" height="39.5117" style="stroke: #A80036; stroke-width: 1.875;" width="155" x="791.875" y="271.4258"/><text fill="#FFFFFF" font-family="sans-serif" font-size="17.5" lengthAdjust="spacingAndGlyphs" textLength="137.5" x="800.625" y="298.3423">d:DoneCommand</text><polygon fill="#A80036" points="675.625,347.627,663.125,352.627,675.625,357.627,670.625,352.627" style="stroke: #A80036; stroke-width: 1.25;"/><line style="stroke: #A80036; stroke-width: 1.25; stroke-dasharray: 2.0,2.0;" x1="668.125" x2="868.125" y1="352.627" y2="352.627"/><text fill="#000000" font-family="sans-serif" font-size="16.25" lengthAdjust="spacingAndGlyphs" textLength="8.75" x="761.25" y="346.5564">d</text><polygon fill="#A80036" points="458.75,385.5664,446.25,390.5664,458.75,395.5664,453.75,390.5664" style="stroke: #A80036; stroke-width: 1.25;"/><line style="stroke: #A80036; stroke-width: 1.25; stroke-dasharray: 2.0,2.0;" x1="451.25" x2="654.375" y1="390.5664" y2="390.5664"/><text fill="#000000" font-family="sans-serif" font-size="16.25" lengthAdjust="spacingAndGlyphs" textLength="8.75" x="545.9375" y="384.4958">d</text><line style="stroke: #A80036; stroke-width: 2.5;" x1="644.375" x2="666.875" y1="396.8164" y2="419.3164"/><line style="stroke: #A80036; stroke-width: 2.5;" x1="644.375" x2="666.875" y1="419.3164" y2="396.8164"/><polygon fill="#A80036" points="210,441.0059,197.5,446.0059,210,451.0059,205,446.0059" style="stroke: #A80036; stroke-width: 1.25;"/><line style="stroke: #A80036; stroke-width: 1.25; stroke-dasharray: 2.0,2.0;" x1="202.5" x2="437.5" y1="446.0059" y2="446.0059"/><text fill="#000000" font-family="sans-serif" font-size="16.25" lengthAdjust="spacingAndGlyphs" textLength="8.75" x="313.125" y="439.9353">d</text><polygon fill="#A80036" points="848.125,478.9453,860.625,483.9453,848.125,488.9453,853.125,483.9453" style="stroke: #A80036; stroke-width: 1.25;"/><line style="stroke: #A80036; stroke-width: 1.25;" x1="196.25" x2="855.625" y1="483.9453" y2="483.9453"/><text fill="#000000" font-family="sans-serif" font-size="16.25" lengthAdjust="spacingAndGlyphs" textLength="67.5" x="495.9375" y="477.8748">execute()</text><line style="stroke: #A80036; stroke-width: 1.25;" x1="875.625" x2="934.375" y1="515.6348" y2="515.6348"/><line style="stroke: #A80036; stroke-width: 1.25;" x1="934.375" x2="934.375" y1="515.6348" y2="531.8848"/><line style="stroke: #A80036; stroke-width: 1.25;" x1="883.125" x2="934.375" y1="531.8848" y2="531.8848"/><polygon fill="#A80036" points="895.625,526.8848,883.125,531.8848,895.625,536.8848,890.625,531.8848" style="stroke: #A80036; stroke-width: 1.25;"/><text fill="#000000" font-family="sans-serif" font-size="16.25" lengthAdjust="spacingAndGlyphs" textLength="87.5" x="890.625" y="509.5642">isDelivered()</text><line style="stroke: #A80036; stroke-width: 1.25; stroke-dasharray: 2.0,2.0;" x1="881.875" x2="934.375" y1="582.3242" y2="582.3242"/><line style="stroke: #A80036; stroke-width: 1.25; stroke-dasharray: 2.0,2.0;" x1="934.375" x2="934.375" y1="582.3242" y2="598.5742"/><line style="stroke: #A80036; stroke-width: 1.25; stroke-dasharray: 2.0,2.0;" x1="875.625" x2="934.375" y1="598.5742" y2="598.5742"/><polygon fill="#A80036" points="888.125,593.5742,875.625,598.5742,888.125,603.5742,883.125,598.5742" style="stroke: #A80036; stroke-width: 1.25;"/><text fill="#000000" font-family="sans-serif" font-size="16.25" lengthAdjust="spacingAndGlyphs" textLength="33.75" x="890.625" y="576.2537">false</text><path d="M766.875,611.0742 L848.125,611.0742 L848.125,621.0742 L835.625,633.5742 L766.875,633.5742 L766.875,611.0742 " fill="#EEEEEE" style="stroke: #000000; stroke-width: 1.25;"/><rect fill="none" height="133.8184" style="stroke: #000000; stroke-width: 2.5;" width="648.75" x="766.875" y="611.0742"/><text fill="#000000" font-family="sans-serif" font-size="16.25" font-weight="bold" lengthAdjust="spacingAndGlyphs" textLength="25" x="785.625" y="629.1931">opt</text><text fill="#000000" font-family="sans-serif" font-size="13.75" font-weight="bold" lengthAdjust="spacingAndGlyphs" textLength="176.25" x="866.875" y="627.8479">[order was not delivered]</text><polygon fill="#A80036" points="1329.375,656.9531,1341.875,661.9531,1329.375,666.9531,1334.375,661.9531" style="stroke: #A80036; stroke-width: 1.25;"/><line style="stroke: #A80036; stroke-width: 1.25;" x1="875.625" x2="1336.875" y1="661.9531" y2="661.9531"/><text fill="#000000" font-family="sans-serif" font-size="16.25" lengthAdjust="spacingAndGlyphs" textLength="72.5" x="1073.75" y="655.8826">setOrder()</text><polygon fill="#A80036" points="889.375,674.4531,876.875,679.4531,889.375,684.4531,884.375,679.4531" style="stroke: #A80036; stroke-width: 1.25;"/><line style="stroke: #A80036; stroke-width: 1.25; stroke-dasharray: 2.0,2.0;" x1="881.875" x2="1349.375" y1="679.4531" y2="679.4531"/><polygon fill="#A80036" points="1329.375,712.3926,1341.875,717.3926,1329.375,722.3926,1334.375,717.3926" style="stroke: #A80036; stroke-width: 1.25;"/><line style="stroke: #A80036; stroke-width: 1.25;" x1="875.625" x2="1336.875" y1="717.3926" y2="717.3926"/><text fill="#000000" font-family="sans-serif" font-size="16.25" lengthAdjust="spacingAndGlyphs" textLength="95" x="1062.5" y="711.322">deliverOrder()</text><polygon fill="#A80036" points="889.375,729.8926,876.875,734.8926,889.375,739.8926,884.375,734.8926" style="stroke: #A80036; stroke-width: 1.25;"/><line style="stroke: #A80036; stroke-width: 1.25; stroke-dasharray: 2.0,2.0;" x1="881.875" x2="1349.375" y1="734.8926" y2="734.8926"/><polygon fill="#A80036" points="1329.375,776.582,1341.875,781.582,1329.375,786.582,1334.375,781.582" style="stroke: #A80036; stroke-width: 1.25;"/><line style="stroke: #A80036; stroke-width: 1.25;" x1="875.625" x2="1336.875" y1="781.582" y2="781.582"/><text fill="#000000" font-family="sans-serif" font-size="16.25" lengthAdjust="spacingAndGlyphs" textLength="445" x="887.5" y="775.5115">updateFilteredOrderList(PREDICATE_SHOW_ALL_ORDERS)</text><polygon fill="#A80036" points="889.375,794.082,876.875,799.082,889.375,804.082,884.375,799.082" style="stroke: #A80036; stroke-width: 1.25;"/><line style="stroke: #A80036; stroke-width: 1.25; stroke-dasharray: 2.0,2.0;" x1="881.875" x2="1349.375" y1="799.082" y2="799.082"/><polygon fill="#A80036" points="969.375,811.582,981.875,816.582,969.375,821.582,974.375,816.582" style="stroke: #A80036; stroke-width: 1.25;"/><line style="stroke: #A80036; stroke-width: 1.25;" x1="875.625" x2="976.875" y1="816.582" y2="816.582"/><rect fill="#3333C4" height="39.5117" style="stroke: #A80036; stroke-width: 1.875;" width="152.5" x="984.375" y="809.082"/><text fill="#FFFFFF" font-family="sans-serif" font-size="17.5" lengthAdjust="spacingAndGlyphs" textLength="135" x="993.125" y="835.9985">:CommandResult</text><polygon fill="#A80036" points="889.375,864.8438,876.875,869.8438,889.375,874.8438,884.375,869.8438" style="stroke: #A80036; stroke-width: 1.25;"/><line style="stroke: #A80036; stroke-width: 1.25; stroke-dasharray: 2.0,2.0;" x1="881.875" x2="1059.375" y1="869.8438" y2="869.8438"/><polygon fill="#A80036" points="210,902.7832,197.5,907.7832,210,912.7832,205,907.7832" style="stroke: #A80036; stroke-width: 1.25;"/><line style="stroke: #A80036; stroke-width: 1.25; stroke-dasharray: 2.0,2.0;" x1="202.5" x2="868.125" y1="907.7832" y2="907.7832"/><text fill="#000000" font-family="sans-serif" font-size="16.25" lengthAdjust="spacingAndGlyphs" textLength="40" x="512.8125" y="901.7126">result</text><polygon fill="#A80036" points="17.5,920.2832,5,925.2832,17.5,930.2832,12.5,925.2832" style="stroke: #A80036; stroke-width: 1.25;"/><line style="stroke: #A80036; stroke-width: 1.25; stroke-dasharray: 2.0,2.0;" x1="10" x2="188.75" y1="925.2832" y2="925.2832"/><!--MD5=[3f2fff432aa26a2d75033fe8160f3a90]
@startuml








skinparam BackgroundColor #FFFFFFF

skinparam Shadowing false

skinparam Class {
    FontColor #FFFFFF
    BorderThickness 1
    BorderColor #FFFFFF
    StereotypeFontColor #FFFFFF
    FontName Arial
}

skinparam Actor {
    BorderColor #000000
    Color #000000
    FontName Arial
}

skinparam Sequence {
    MessageAlign center
    BoxFontSize 15
    BoxPadding 0
    BoxFontColor #FFFFFF
    FontName Arial
}

skinparam Participant {
    FontColor #FFFFFFF
    Padding 20
}

skinparam MinClassWidth 50
skinparam ParticipantPadding 10
skinparam Shadowing false
skinparam DefaultTextAlignment center
skinparam packageStyle Rectangle

hide footbox
hide members
hide circle

box Logic #C8C8FA
participant ":LogicManager" as LogicManager #3333C4
participant ":OrderBookParser" as OrderBookParser #3333C4
participant ":DoneCommandParser" as DoneCommandParser #3333C4
participant "d:DoneCommand" as DoneCommand #3333C4
participant ":CommandResult" as CommandResult #3333C4
end box

box Model #F97181
participant ":Model" as Model #9D0012
end box

[-> LogicManager : execute("delivered 1")
activate LogicManager

LogicManager -> OrderBookParser : parseCommand("delivered 1")
activate OrderBookParser

create DoneCommandParser
OrderBookParser -> DoneCommandParser
activate DoneCommandParser

DoneCommandParser - -> OrderBookParser
deactivate DoneCommandParser

OrderBookParser -> DoneCommandParser : parse("1")
activate DoneCommandParser

create DoneCommand
DoneCommandParser -> DoneCommand
activate DoneCommand

DoneCommand - -> DoneCommandParser : d
deactivate DoneCommand

DoneCommandParser - -> OrderBookParser : d
deactivate DoneCommandParser
DoneCommandParser -[hidden]-> OrderBookParser
destroy DoneCommandParser

OrderBookParser - -> LogicManager : d
deactivate OrderBookParser

LogicManager -> DoneCommand : execute()
activate DoneCommand


DoneCommand -> DoneCommand: isDelivered()
activate DoneCommand
DoneCommand - -> DoneCommand: false
opt order was not delivered
deactivate DoneCommand

DoneCommand -> Model : setOrder()
activate Model

Model - -> DoneCommand
deactivate Model
DoneCommand -> Model : deliverOrder()
activate Model

Model - -> DoneCommand
deactivate Model
end

DoneCommand -> Model : updateFilteredOrderList(PREDICATE_SHOW_ALL_ORDERS)
activate Model

Model - -> DoneCommand
deactivate Model


create CommandResult
DoneCommand -> CommandResult
activate CommandResult

CommandResult - -> DoneCommand
deactivate CommandResult

DoneCommand - -> LogicManager : result
deactivate DoneCommand

[<- -LogicManager
deactivate LogicManager
@enduml

PlantUML version 1.2019.11(Sun Sep 22 18:02:15 SGT 2019)
(GPL source distribution)
Java Runtime: OpenJDK Runtime Environment
JVM: OpenJDK 64-Bit Server VM
Java Version: 11.0.5+10-b520.38
Operating System: Windows 10
Default Encoding: UTF-8
Language: en
Country: SG
--></g></svg>
