<?xml version="1.0" encoding="UTF-8" standalone="no"?><svg xmlns="http://www.w3.org/2000/svg" xmlns:xlink="http://www.w3.org/1999/xlink" contentScriptType="application/ecmascript" contentStyleType="text/css" height="978.75px" preserveAspectRatio="none" style="width:1795px;height:978px;" version="1.1" viewBox="0 0 1795 978" width="1795px" zoomAndPan="magnify"><defs/><g><rect fill="#C8C8FA" height="952.4609" style="stroke: #A80036; stroke-width: 1.25;" width="1358.75" x="142.5" y="5"/><text fill="#FFFFFF" font-family="sans-serif" font-size="18.75" font-weight="bold" lengthAdjust="spacingAndGlyphs" textLength="48.75" x="795" y="24.4641">Logic</text><rect fill="#F97181" height="952.4609" style="stroke: #A80036; stroke-width: 1.25;" width="115" x="1657.5" y="5"/><text fill="#FFFFFF" font-family="sans-serif" font-size="18.75" font-weight="bold" lengthAdjust="spacingAndGlyphs" textLength="55" x="1685" y="24.4641">Model</text><rect fill="#FFFFFF" height="827.6758" style="stroke: #A80036; stroke-width: 1.25;" width="12.5" x="221.25" y="114.7852"/><rect fill="#FFFFFF" height="454.4824" style="stroke: #A80036; stroke-width: 1.25;" width="12.5" x="507.5" y="152.7246"/><rect fill="#FFFFFF" height="40.7617" style="stroke: #A80036; stroke-width: 1.25;" width="12.5" x="720" y="182.7246"/><rect fill="#FFFFFF" height="290.3418" style="stroke: #A80036; stroke-width: 1.25;" width="12.5" x="720" y="261.4258"/><rect fill="#FFFFFF" height="40.7617" style="stroke: #A80036; stroke-width: 1.25;" width="12.5" x="956.875" y="291.4258"/><rect fill="#FFFFFF" height="72.9395" style="stroke: #A80036; stroke-width: 1.25;" width="12.5" x="956.875" y="349.6875"/><rect fill="#FFFFFF" height="40.7617" style="stroke: #A80036; stroke-width: 1.25;" width="12.5" x="1172.5" y="473.0664"/><rect fill="#FFFFFF" height="279.8145" style="stroke: #A80036; stroke-width: 1.25;" width="12.5" x="1172.5" y="645.1465"/><rect fill="#FFFFFF" height="40.7617" style="stroke: #A80036; stroke-width: 1.25;" width="12.5" x="1379.375" y="846.2598"/><rect fill="#FFFFFF" height="17.5" style="stroke: #A80036; stroke-width: 1.25;" width="12.5" x="1708.75" y="714.7754"/><rect fill="#FFFFFF" height="17.5" style="stroke: #A80036; stroke-width: 1.25;" width="12.5" x="1708.75" y="790.0098"/><rect fill="#FFFFFF" height="153.6133" style="stroke: #000000; stroke-width: 2.5;" width="697.5" x="1082.5" y="663.8965"/><rect fill="#FFFFFF" height="75.2344" style="stroke: none; stroke-width: 1.25;" width="697.5" x="1082.5" y="742.2754"/><line style="stroke: #A80036; stroke-width: 1.25; stroke-dasharray: 5.0,5.0;" x1="227.5" x2="227.5" y1="74.3457" y2="964.9609"/><line style="stroke: #A80036; stroke-width: 1.25; stroke-dasharray: 5.0,5.0;" x1="513.75" x2="513.75" y1="74.3457" y2="964.9609"/><line style="stroke: #A80036; stroke-width: 1.25; stroke-dasharray: 5.0,5.0;" x1="726.25" x2="726.25" y1="201.8555" y2="964.9609"/><line style="stroke: #A80036; stroke-width: 1.25; stroke-dasharray: 5.0,5.0;" x1="962.5" x2="962.5" y1="310.5566" y2="964.9609"/><line style="stroke: #A80036; stroke-width: 1.25; stroke-dasharray: 5.0,5.0;" x1="1178.75" x2="1178.75" y1="471.7578" y2="964.9609"/><line style="stroke: #A80036; stroke-width: 1.25; stroke-dasharray: 5.0,5.0;" x1="1385" x2="1385" y1="865.3906" y2="964.9609"/><line style="stroke: #A80036; stroke-width: 1.25; stroke-dasharray: 5.0,5.0;" x1="1715" x2="1715" y1="74.3457" y2="964.9609"/><rect fill="#3333C4" height="39.5117" style="stroke: #A80036; stroke-width: 1.875;" width="135" x="160" y="33.584"/><text fill="#FFFFFF" font-family="sans-serif" font-size="17.5" lengthAdjust="spacingAndGlyphs" textLength="117.5" x="168.75" y="60.5005">:LogicManager</text><rect fill="#3333C4" height="39.5117" style="stroke: #A80036; stroke-width: 1.875;" width="125" x="451.25" y="33.584"/><text fill="#FFFFFF" font-family="sans-serif" font-size="17.5" lengthAdjust="spacingAndGlyphs" textLength="107.5" x="460" y="60.5005">:DelinoParser</text><rect fill="#9D0012" height="39.5117" style="stroke: #A80036; stroke-width: 1.875;" width="80" x="1675" y="33.584"/><text fill="#FFFFFF" font-family="sans-serif" font-size="17.5" lengthAdjust="spacingAndGlyphs" textLength="52.5" x="1688.75" y="60.5005">:Model</text><rect fill="#FFFFFF" height="827.6758" style="stroke: #A80036; stroke-width: 1.25;" width="12.5" x="221.25" y="114.7852"/><rect fill="#FFFFFF" height="454.4824" style="stroke: #A80036; stroke-width: 1.25;" width="12.5" x="507.5" y="152.7246"/><rect fill="#FFFFFF" height="40.7617" style="stroke: #A80036; stroke-width: 1.25;" width="12.5" x="720" y="182.7246"/><rect fill="#FFFFFF" height="290.3418" style="stroke: #A80036; stroke-width: 1.25;" width="12.5" x="720" y="261.4258"/><rect fill="#FFFFFF" height="40.7617" style="stroke: #A80036; stroke-width: 1.25;" width="12.5" x="956.875" y="291.4258"/><rect fill="#FFFFFF" height="72.9395" style="stroke: #A80036; stroke-width: 1.25;" width="12.5" x="956.875" y="349.6875"/><rect fill="#FFFFFF" height="40.7617" style="stroke: #A80036; stroke-width: 1.25;" width="12.5" x="1172.5" y="473.0664"/><rect fill="#FFFFFF" height="279.8145" style="stroke: #A80036; stroke-width: 1.25;" width="12.5" x="1172.5" y="645.1465"/><rect fill="#FFFFFF" height="40.7617" style="stroke: #A80036; stroke-width: 1.25;" width="12.5" x="1379.375" y="846.2598"/><rect fill="#FFFFFF" height="17.5" style="stroke: #A80036; stroke-width: 1.25;" width="12.5" x="1708.75" y="714.7754"/><rect fill="#FFFFFF" height="17.5" style="stroke: #A80036; stroke-width: 1.25;" width="12.5" x="1708.75" y="790.0098"/><polygon fill="#A80036" points="206.25,109.7852,218.75,114.7852,206.25,119.7852,211.25,114.7852" style="stroke: #A80036; stroke-width: 1.25;"/><line style="stroke: #A80036; stroke-width: 1.25;" x1="3.75" x2="213.75" y1="114.7852" y2="114.7852"/><text fill="#000000" font-family="sans-serif" font-size="16.25" lengthAdjust="spacingAndGlyphs" textLength="193.75" x="15.625" y="108.7146">execute("edit -o 1 n/Alice")</text><polygon fill="#A80036" points="492.5,147.7246,505,152.7246,492.5,157.7246,497.5,152.7246" style="stroke: #A80036; stroke-width: 1.25;"/><line style="stroke: #A80036; stroke-width: 1.25;" x1="233.75" x2="500" y1="152.7246" y2="152.7246"/><text fill="#000000" font-family="sans-serif" font-size="16.25" lengthAdjust="spacingAndGlyphs" textLength="250" x="245.625" y="146.6541">parseCommand("edit -o 1 n/Alice")</text><polygon fill="#A80036" points="618.75,165.2246,631.25,170.2246,618.75,175.2246,623.75,170.2246" style="stroke: #A80036; stroke-width: 1.25;"/><line style="stroke: #A80036; stroke-width: 1.25;" x1="520" x2="626.25" y1="170.2246" y2="170.2246"/><rect fill="#3333C4" height="39.5117" style="stroke: #A80036; stroke-width: 1.875;" width="185" x="633.75" y="162.7246"/><text fill="#FFFFFF" font-family="sans-serif" font-size="17.5" lengthAdjust="spacingAndGlyphs" textLength="167.5" x="642.5" y="189.6411">:EditCommandParser</text><polygon fill="#A80036" points="533.75,218.4863,521.25,223.4863,533.75,228.4863,528.75,223.4863" style="stroke: #A80036; stroke-width: 1.25;"/><line style="stroke: #A80036; stroke-width: 1.25; stroke-dasharray: 2.0,2.0;" x1="526.25" x2="725" y1="223.4863" y2="223.4863"/><polygon fill="#A80036" points="705,256.4258,717.5,261.4258,705,266.4258,710,261.4258" style="stroke: #A80036; stroke-width: 1.25;"/><line style="stroke: #A80036; stroke-width: 1.25;" x1="520" x2="712.5" y1="261.4258" y2="261.4258"/><text fill="#000000" font-family="sans-serif" font-size="16.25" lengthAdjust="spacingAndGlyphs" textLength="176.25" x="531.875" y="255.3552">parse("edit -o 1 n/Alice")</text><polygon fill="#A80036" points="841.25,273.9258,853.75,278.9258,841.25,283.9258,846.25,278.9258" style="stroke: #A80036; stroke-width: 1.25;"/><line style="stroke: #A80036; stroke-width: 1.25;" x1="732.5" x2="848.75" y1="278.9258" y2="278.9258"/><rect fill="#3333C4" height="39.5117" style="stroke: #A80036; stroke-width: 1.875;" width="213.75" x="856.25" y="271.4258"/><text fill="#FFFFFF" font-family="sans-serif" font-size="17.5" lengthAdjust="spacingAndGlyphs" textLength="196.25" x="865" y="298.3423">epd:EditParcelDescriptor</text><polygon fill="#A80036" points="746.25,327.1875,733.75,332.1875,746.25,337.1875,741.25,332.1875" style="stroke: #A80036; stroke-width: 1.25;"/><line style="stroke: #A80036; stroke-width: 1.25; stroke-dasharray: 2.0,2.0;" x1="738.75" x2="961.875" y1="332.1875" y2="332.1875"/><polygon fill="#A80036" points="941.875,344.6875,954.375,349.6875,941.875,354.6875,946.875,349.6875" style="stroke: #A80036; stroke-width: 1.25;"/><line style="stroke: #A80036; stroke-width: 1.25;" x1="732.5" x2="949.375" y1="349.6875" y2="349.6875"/><polygon fill="#A80036" points="746.25,417.627,733.75,422.627,746.25,427.627,741.25,422.627" style="stroke: #A80036; stroke-width: 1.25;"/><line style="stroke: #A80036; stroke-width: 1.25; stroke-dasharray: 2.0,2.0;" x1="738.75" x2="961.875" y1="422.627" y2="422.627"/><text fill="#000000" font-family="sans-serif" font-size="16.25" lengthAdjust="spacingAndGlyphs" textLength="26.25" x="834.6875" y="416.5564">epd</text><polygon fill="#A80036" points="1092.5,455.5664,1105,460.5664,1092.5,465.5664,1097.5,460.5664" style="stroke: #A80036; stroke-width: 1.25;"/><line style="stroke: #A80036; stroke-width: 1.25;" x1="732.5" x2="1100" y1="460.5664" y2="460.5664"/><text fill="#000000" font-family="sans-serif" font-size="16.25" lengthAdjust="spacingAndGlyphs" textLength="26.25" x="906.875" y="454.4958">epd</text><rect fill="#3333C4" height="39.5117" style="stroke: #A80036; stroke-width: 1.875;" width="142.5" x="1107.5" y="432.627"/><text fill="#FFFFFF" font-family="sans-serif" font-size="17.5" lengthAdjust="spacingAndGlyphs" textLength="125" x="1116.25" y="459.5435">e:EditCommand</text><polygon fill="#A80036" points="746.25,508.8281,733.75,513.8281,746.25,518.8281,741.25,513.8281" style="stroke: #A80036; stroke-width: 1.25;"/><line style="stroke: #A80036; stroke-width: 1.25; stroke-dasharray: 2.0,2.0;" x1="738.75" x2="1177.5" y1="513.8281" y2="513.8281"/><text fill="#000000" font-family="sans-serif" font-size="16.25" lengthAdjust="spacingAndGlyphs" textLength="8.75" x="951.25" y="507.7576">e</text><polygon fill="#A80036" points="533.75,546.7676,521.25,551.7676,533.75,556.7676,528.75,551.7676" style="stroke: #A80036; stroke-width: 1.25;"/><line style="stroke: #A80036; stroke-width: 1.25; stroke-dasharray: 2.0,2.0;" x1="526.25" x2="725" y1="551.7676" y2="551.7676"/><text fill="#000000" font-family="sans-serif" font-size="16.25" lengthAdjust="spacingAndGlyphs" textLength="8.75" x="618.75" y="545.697">e</text><line style="stroke: #A80036; stroke-width: 2.5;" x1="715" x2="737.5" y1="558.0176" y2="580.5176"/><line style="stroke: #A80036; stroke-width: 2.5;" x1="715" x2="737.5" y1="580.5176" y2="558.0176"/><polygon fill="#A80036" points="247.5,602.207,235,607.207,247.5,612.207,242.5,607.207" style="stroke: #A80036; stroke-width: 1.25;"/><line style="stroke: #A80036; stroke-width: 1.25; stroke-dasharray: 2.0,2.0;" x1="240" x2="512.5" y1="607.207" y2="607.207"/><text fill="#000000" font-family="sans-serif" font-size="16.25" lengthAdjust="spacingAndGlyphs" textLength="8.75" x="369.375" y="601.1365">e</text><polygon fill="#A80036" points="1157.5,640.1465,1170,645.1465,1157.5,650.1465,1162.5,645.1465" style="stroke: #A80036; stroke-width: 1.25;"/><line style="stroke: #A80036; stroke-width: 1.25;" x1="233.75" x2="1165" y1="645.1465" y2="645.1465"/><text fill="#000000" font-family="sans-serif" font-size="16.25" lengthAdjust="spacingAndGlyphs" textLength="111.25" x="647.5" y="639.0759">execute(model)</text><path d="M1082.5,663.8965 L1158.75,663.8965 L1158.75,673.8965 L1146.25,686.3965 L1082.5,686.3965 L1082.5,663.8965 " fill="#EEEEEE" style="stroke: #000000; stroke-width: 1.25;"/><rect fill="none" height="153.6133" style="stroke: #000000; stroke-width: 2.5;" width="697.5" x="1082.5" y="663.8965"/><text fill="#000000" font-family="sans-serif" font-size="16.25" font-weight="bold" lengthAdjust="spacingAndGlyphs" textLength="20" x="1101.25" y="682.0154">alt</text><text fill="#000000" font-family="sans-serif" font-size="13.75" font-weight="bold" lengthAdjust="spacingAndGlyphs" textLength="78.75" x="1177.5" y="680.6702">[Edit Order]</text><polygon fill="#A80036" points="1693.75,709.7754,1706.25,714.7754,1693.75,719.7754,1698.75,714.7754" style="stroke: #A80036; stroke-width: 1.25;"/><line style="stroke: #A80036; stroke-width: 1.25;" x1="1185" x2="1701.25" y1="714.7754" y2="714.7754"/><text fill="#000000" font-family="sans-serif" font-size="16.25" lengthAdjust="spacingAndGlyphs" textLength="445" x="1224.375" y="708.7048">updateFilteredOrderList(PREDICATE_SHOW_ALL_ORDERS)</text><polygon fill="#A80036" points="1198.75,727.2754,1186.25,732.2754,1198.75,737.2754,1193.75,732.2754" style="stroke: #A80036; stroke-width: 1.25;"/><line style="stroke: #A80036; stroke-width: 1.25; stroke-dasharray: 2.0,2.0;" x1="1191.25" x2="1713.75" y1="732.2754" y2="732.2754"/><line style="stroke: #000000; stroke-width: 1.25; stroke-dasharray: 2.0,2.0;" x1="1082.5" x2="1780" y1="743.5254" y2="743.5254"/><text fill="#000000" font-family="sans-serif" font-size="13.75" font-weight="bold" lengthAdjust="spacingAndGlyphs" textLength="128.75" x="1088.75" y="757.7991">[Edit Return Order]</text><polygon fill="#A80036" points="1693.75,785.0098,1706.25,790.0098,1693.75,795.0098,1698.75,790.0098" style="stroke: #A80036; stroke-width: 1.25;"/><line style="stroke: #A80036; stroke-width: 1.25;" x1="1185" x2="1701.25" y1="790.0098" y2="790.0098"/><text fill="#000000" font-family="sans-serif" font-size="16.25" lengthAdjust="spacingAndGlyphs" textLength="500" x="1196.875" y="783.9392">updateFilteredReturnOrderList(PREDICATE_SHOW_ALL_RETURNS)</text><polygon fill="#A80036" points="1198.75,802.5098,1186.25,807.5098,1198.75,812.5098,1193.75,807.5098" style="stroke: #A80036; stroke-width: 1.25;"/><line style="stroke: #A80036; stroke-width: 1.25; stroke-dasharray: 2.0,2.0;" x1="1191.25" x2="1713.75" y1="807.5098" y2="807.5098"/><polygon fill="#A80036" points="1272.5,828.7598,1285,833.7598,1272.5,838.7598,1277.5,833.7598" style="stroke: #A80036; stroke-width: 1.25;"/><line style="stroke: #A80036; stroke-width: 1.25;" x1="1185" x2="1280" y1="833.7598" y2="833.7598"/><rect fill="#3333C4" height="39.5117" style="stroke: #A80036; stroke-width: 1.875;" width="196.25" x="1287.5" y="826.2598"/><text fill="#FFFFFF" font-family="sans-serif" font-size="17.5" lengthAdjust="spacingAndGlyphs" textLength="178.75" x="1296.25" y="853.1763">result:CommandResult</text><polygon fill="#A80036" points="1198.75,882.0215,1186.25,887.0215,1198.75,892.0215,1193.75,887.0215" style="stroke: #A80036; stroke-width: 1.25;"/><line style="stroke: #A80036; stroke-width: 1.25; stroke-dasharray: 2.0,2.0;" x1="1191.25" x2="1384.375" y1="887.0215" y2="887.0215"/><polygon fill="#A80036" points="247.5,919.9609,235,924.9609,247.5,929.9609,242.5,924.9609" style="stroke: #A80036; stroke-width: 1.25;"/><line style="stroke: #A80036; stroke-width: 1.25; stroke-dasharray: 2.0,2.0;" x1="240" x2="1177.5" y1="924.9609" y2="924.9609"/><text fill="#000000" font-family="sans-serif" font-size="16.25" lengthAdjust="spacingAndGlyphs" textLength="40" x="686.25" y="918.8904">result</text><polygon fill="#A80036" points="17.5,937.4609,5,942.4609,17.5,947.4609,12.5,942.4609" style="stroke: #A80036; stroke-width: 1.25;"/><line style="stroke: #A80036; stroke-width: 1.25; stroke-dasharray: 2.0,2.0;" x1="10" x2="226.25" y1="942.4609" y2="942.4609"/><!--MD5=[f755addf9356f0e194c0f456d994bf42]
@startuml








skinparam BackgroundColor #FFFFFFF

skinparam Shadowing false

skinparam Class {
    FontColor #FFFFFF
    BorderThickness 1
    BorderColor #FFFFFF
    StereotypeFontColor #FFFFFF
    FontName Arial
}

skinparam Actor {
    BorderColor #000000
    Color #000000
    FontName Arial
}

skinparam Sequence {
    MessageAlign center
    BoxFontSize 15
    BoxPadding 0
    BoxFontColor #FFFFFF
    FontName Arial
}

skinparam Participant {
    FontColor #FFFFFFF
    Padding 20
}

skinparam MinClassWidth 50
skinparam ParticipantPadding 10
skinparam Shadowing false
skinparam DefaultTextAlignment center
skinparam packageStyle Rectangle

hide footbox
hide members
hide circle
box Logic #C8C8FA
participant ":LogicManager" as LogicManager #3333C4
participant ":DelinoParser" as DelinoParser #3333C4
participant ":EditCommandParser" as EditCommandParser #3333C4
participant "epd:EditParcelDescriptor" as EditParcelDescriptor #3333C4
participant "e:EditCommand" as EditCommand #3333C4
participant "result:CommandResult" as CommandResult #3333C4
end box

box Model #F97181
participant ":Model" as Model #9D0012
end box

[-> LogicManager : execute("edit -o 1 n/Alice")
activate LogicManager

LogicManager -> DelinoParser : parseCommand("edit -o 1 n/Alice")
activate DelinoParser

create EditCommandParser
DelinoParser -> EditCommandParser
activate EditCommandParser

EditCommandParser - -> DelinoParser
deactivate EditCommandParser

DelinoParser -> EditCommandParser : parse("edit -o 1 n/Alice")
activate EditCommandParser

create EditParcelDescriptor
EditCommandParser -> EditParcelDescriptor
activate EditParcelDescriptor

EditParcelDescriptor - -> EditCommandParser
deactivate

EditCommandParser -> EditParcelDescriptor
activate EditParcelDescriptor

EditParcelDescriptor -[hidden]-> EditCommandParser
EditParcelDescriptor -[hidden]-> EditCommandParser
EditParcelDescriptor - -> EditCommandParser : epd
deactivate

create EditCommand
EditCommandParser -> EditCommand : epd
activate EditCommand

EditCommand - -> EditCommandParser : e
deactivate EditCommand

EditCommandParser - -> DelinoParser : e
deactivate EditCommandParser
EditCommandParser -[hidden]-> DelinoParser
destroy EditCommandParser

DelinoParser - -> LogicManager : e
deactivate DelinoParser

LogicManager -> EditCommand : execute(model)
activate EditCommand

alt Edit Order
    EditCommand -> Model : updateFilteredOrderList(PREDICATE_SHOW_ALL_ORDERS)
    activate Model

    Model - -> EditCommand
    deactivate Model
else Edit Return Order
    EditCommand -> Model : updateFilteredReturnOrderList(PREDICATE_SHOW_ALL_RETURNS)
    activate Model

    Model - -> EditCommand
    deactivate Model
end

create CommandResult
EditCommand -> CommandResult
activate CommandResult

CommandResult - -> EditCommand
deactivate CommandResult

EditCommand - -> LogicManager : result
deactivate EditCommand

[<- -LogicManager
deactivate LogicManager
@enduml

PlantUML version 1.2020.03beta6(Unknown compile time)
(GPL source distribution)
Java Runtime: OpenJDK Runtime Environment
JVM: OpenJDK 64-Bit Server VM
Java Version: 11.0.5+10-b520.30
Operating System: Windows 10
Default Encoding: UTF-8
Language: en
Country: US
--></g></svg>
