<?xml version="1.0" encoding="UTF-8" standalone="no"?><svg xmlns="http://www.w3.org/2000/svg" xmlns:xlink="http://www.w3.org/1999/xlink" contentScriptType="application/ecmascript" contentStyleType="text/css" height="587.25px" preserveAspectRatio="none" style="width:1077px;height:587px;" version="1.1" viewBox="0 0 1077 587" width="1077px" zoomAndPan="magnify"><defs/><g><rect fill="#C8C8FA" height="571.4766" style="stroke: #A80036; stroke-width: 0.75;" width="815.25" x="85.5" y="3"/><text fill="#FFFFFF" font-family="sans-serif" font-size="11.25" font-weight="bold" lengthAdjust="spacingAndGlyphs" textLength="29.25" x="477" y="14.6785">Logic</text><rect fill="#F97181" height="571.4766" style="stroke: #A80036; stroke-width: 0.75;" width="69" x="994.5" y="3"/><text fill="#FFFFFF" font-family="sans-serif" font-size="11.25" font-weight="bold" lengthAdjust="spacingAndGlyphs" textLength="33" x="1011" y="14.6785">Model</text><rect fill="#FFFFFF" height="496.6055" style="stroke: #A80036; stroke-width: 0.75;" width="7.5" x="132.75" y="68.8711"/><rect fill="#FFFFFF" height="272.6895" style="stroke: #A80036; stroke-width: 0.75;" width="7.5" x="304.5" y="91.6348"/><rect fill="#FFFFFF" height="24.457" style="stroke: #A80036; stroke-width: 0.75;" width="7.5" x="432" y="109.6348"/><rect fill="#FFFFFF" height="174.2051" style="stroke: #A80036; stroke-width: 0.75;" width="7.5" x="432" y="156.8555"/><rect fill="#FFFFFF" height="24.457" style="stroke: #A80036; stroke-width: 0.75;" width="7.5" x="574.125" y="174.8555"/><rect fill="#FFFFFF" height="43.7637" style="stroke: #A80036; stroke-width: 0.75;" width="7.5" x="574.125" y="209.8125"/><rect fill="#FFFFFF" height="24.457" style="stroke: #A80036; stroke-width: 0.75;" width="7.5" x="703.5" y="283.8398"/><rect fill="#FFFFFF" height="167.8887" style="stroke: #A80036; stroke-width: 0.75;" width="7.5" x="703.5" y="387.0879"/><rect fill="#FFFFFF" height="24.457" style="stroke: #A80036; stroke-width: 0.75;" width="7.5" x="827.625" y="507.7559"/><rect fill="#FFFFFF" height="10.5" style="stroke: #A80036; stroke-width: 0.75;" width="7.5" x="1025.25" y="428.8652"/><rect fill="#FFFFFF" height="10.5" style="stroke: #A80036; stroke-width: 0.75;" width="7.5" x="1025.25" y="474.0059"/><rect fill="#FFFFFF" height="92.168" style="stroke: #000000; stroke-width: 1.5;" width="418.5" x="649.5" y="398.3379"/><rect fill="#FFFFFF" height="45.1406" style="stroke: none; stroke-width: 0.75;" width="418.5" x="649.5" y="445.3652"/><line style="stroke: #A80036; stroke-width: 0.75; stroke-dasharray: 5.0,5.0;" x1="136.5" x2="136.5" y1="44.6074" y2="578.9766"/><line style="stroke: #A80036; stroke-width: 0.75; stroke-dasharray: 5.0,5.0;" x1="307.875" x2="307.875" y1="44.6074" y2="578.9766"/><line style="stroke: #A80036; stroke-width: 0.75; stroke-dasharray: 5.0,5.0;" x1="435.75" x2="435.75" y1="121.1133" y2="578.9766"/><line style="stroke: #A80036; stroke-width: 0.75; stroke-dasharray: 5.0,5.0;" x1="577.5" x2="577.5" y1="186.334" y2="578.9766"/><line style="stroke: #A80036; stroke-width: 0.75; stroke-dasharray: 5.0,5.0;" x1="707.25" x2="707.25" y1="283.0547" y2="578.9766"/><line style="stroke: #A80036; stroke-width: 0.75; stroke-dasharray: 5.0,5.0;" x1="831" x2="831" y1="519.2344" y2="578.9766"/><line style="stroke: #A80036; stroke-width: 0.75; stroke-dasharray: 5.0,5.0;" x1="1029" x2="1029" y1="44.6074" y2="578.9766"/><rect fill="#3333C4" height="23.707" style="stroke: #A80036; stroke-width: 1.125;" width="81" x="96" y="20.1504"/><text fill="#FFFFFF" font-family="sans-serif" font-size="10.5" lengthAdjust="spacingAndGlyphs" textLength="70.5" x="101.25" y="36.3003">:LogicManager</text><rect fill="#3333C4" height="23.707" style="stroke: #A80036; stroke-width: 1.125;" width="96.75" x="259.875" y="20.1504"/><text fill="#FFFFFF" font-family="sans-serif" font-size="10.5" lengthAdjust="spacingAndGlyphs" textLength="86.25" x="265.125" y="36.3003">:OrderBookParser</text><rect fill="#9D0012" height="23.707" style="stroke: #A80036; stroke-width: 1.125;" width="48" x="1005" y="20.1504"/><text fill="#FFFFFF" font-family="sans-serif" font-size="10.5" lengthAdjust="spacingAndGlyphs" textLength="31.5" x="1013.25" y="36.3003">:Model</text><rect fill="#FFFFFF" height="496.6055" style="stroke: #A80036; stroke-width: 0.75;" width="7.5" x="132.75" y="68.8711"/><rect fill="#FFFFFF" height="272.6895" style="stroke: #A80036; stroke-width: 0.75;" width="7.5" x="304.5" y="91.6348"/><rect fill="#FFFFFF" height="24.457" style="stroke: #A80036; stroke-width: 0.75;" width="7.5" x="432" y="109.6348"/><rect fill="#FFFFFF" height="174.2051" style="stroke: #A80036; stroke-width: 0.75;" width="7.5" x="432" y="156.8555"/><rect fill="#FFFFFF" height="24.457" style="stroke: #A80036; stroke-width: 0.75;" width="7.5" x="574.125" y="174.8555"/><rect fill="#FFFFFF" height="43.7637" style="stroke: #A80036; stroke-width: 0.75;" width="7.5" x="574.125" y="209.8125"/><rect fill="#FFFFFF" height="24.457" style="stroke: #A80036; stroke-width: 0.75;" width="7.5" x="703.5" y="283.8398"/><rect fill="#FFFFFF" height="167.8887" style="stroke: #A80036; stroke-width: 0.75;" width="7.5" x="703.5" y="387.0879"/><rect fill="#FFFFFF" height="24.457" style="stroke: #A80036; stroke-width: 0.75;" width="7.5" x="827.625" y="507.7559"/><rect fill="#FFFFFF" height="10.5" style="stroke: #A80036; stroke-width: 0.75;" width="7.5" x="1025.25" y="428.8652"/><rect fill="#FFFFFF" height="10.5" style="stroke: #A80036; stroke-width: 0.75;" width="7.5" x="1025.25" y="474.0059"/><polygon fill="#A80036" points="123.75,65.8711,131.25,68.8711,123.75,71.8711,126.75,68.8711" style="stroke: #A80036; stroke-width: 0.75;"/><line style="stroke: #A80036; stroke-width: 0.75;" x1="2.25" x2="128.25" y1="68.8711" y2="68.8711"/><text fill="#000000" font-family="sans-serif" font-size="9.75" lengthAdjust="spacingAndGlyphs" textLength="116.25" x="9.375" y="65.2288">execute("edit -o 1 n/Alice")</text><polygon fill="#A80036" points="295.5,88.6348,303,91.6348,295.5,94.6348,298.5,91.6348" style="stroke: #A80036; stroke-width: 0.75;"/><line style="stroke: #A80036; stroke-width: 0.75;" x1="140.25" x2="300" y1="91.6348" y2="91.6348"/><text fill="#000000" font-family="sans-serif" font-size="9.75" lengthAdjust="spacingAndGlyphs" textLength="150" x="147.375" y="87.9924">parseCommand("edit -o 1 n/Alice")</text><polygon fill="#A80036" points="371.25,99.1348,378.75,102.1348,371.25,105.1348,374.25,102.1348" style="stroke: #A80036; stroke-width: 0.75;"/><line style="stroke: #A80036; stroke-width: 0.75;" x1="312" x2="375.75" y1="102.1348" y2="102.1348"/><rect fill="#3333C4" height="23.707" style="stroke: #A80036; stroke-width: 1.125;" width="111" x="380.25" y="97.6348"/><text fill="#FFFFFF" font-family="sans-serif" font-size="10.5" lengthAdjust="spacingAndGlyphs" textLength="100.5" x="385.5" y="113.7847">:EditCommandParser</text><polygon fill="#A80036" points="320.25,131.0918,312.75,134.0918,320.25,137.0918,317.25,134.0918" style="stroke: #A80036; stroke-width: 0.75;"/><line style="stroke: #A80036; stroke-width: 0.75; stroke-dasharray: 2.0,2.0;" x1="315.75" x2="435" y1="134.0918" y2="134.0918"/><polygon fill="#A80036" points="423,153.8555,430.5,156.8555,423,159.8555,426,156.8555" style="stroke: #A80036; stroke-width: 0.75;"/><line style="stroke: #A80036; stroke-width: 0.75;" x1="312" x2="427.5" y1="156.8555" y2="156.8555"/><text fill="#000000" font-family="sans-serif" font-size="9.75" lengthAdjust="spacingAndGlyphs" textLength="105.75" x="319.125" y="153.2131">parse("edit -o 1 n/Alice")</text><polygon fill="#A80036" points="504.75,164.3555,512.25,167.3555,504.75,170.3555,507.75,167.3555" style="stroke: #A80036; stroke-width: 0.75;"/><line style="stroke: #A80036; stroke-width: 0.75;" x1="439.5" x2="509.25" y1="167.3555" y2="167.3555"/><rect fill="#3333C4" height="23.707" style="stroke: #A80036; stroke-width: 1.125;" width="128.25" x="513.75" y="162.8555"/><text fill="#FFFFFF" font-family="sans-serif" font-size="10.5" lengthAdjust="spacingAndGlyphs" textLength="117.75" x="519" y="179.0054">epd:EditParcelDescriptor</text><polygon fill="#A80036" points="447.75,196.3125,440.25,199.3125,447.75,202.3125,444.75,199.3125" style="stroke: #A80036; stroke-width: 0.75;"/><line style="stroke: #A80036; stroke-width: 0.75; stroke-dasharray: 2.0,2.0;" x1="443.25" x2="577.125" y1="199.3125" y2="199.3125"/><polygon fill="#A80036" points="565.125,206.8125,572.625,209.8125,565.125,212.8125,568.125,209.8125" style="stroke: #A80036; stroke-width: 0.75;"/><line style="stroke: #A80036; stroke-width: 0.75;" x1="439.5" x2="569.625" y1="209.8125" y2="209.8125"/><polygon fill="#A80036" points="447.75,250.5762,440.25,253.5762,447.75,256.5762,444.75,253.5762" style="stroke: #A80036; stroke-width: 0.75;"/><line style="stroke: #A80036; stroke-width: 0.75; stroke-dasharray: 2.0,2.0;" x1="443.25" x2="577.125" y1="253.5762" y2="253.5762"/><text fill="#000000" font-family="sans-serif" font-size="9.75" lengthAdjust="spacingAndGlyphs" textLength="15.75" x="500.8125" y="249.9338">epd</text><polygon fill="#A80036" points="655.5,273.3398,663,276.3398,655.5,279.3398,658.5,276.3398" style="stroke: #A80036; stroke-width: 0.75;"/><line style="stroke: #A80036; stroke-width: 0.75;" x1="439.5" x2="660" y1="276.3398" y2="276.3398"/><text fill="#000000" font-family="sans-serif" font-size="9.75" lengthAdjust="spacingAndGlyphs" textLength="15.75" x="544.125" y="272.6975">epd</text><rect fill="#3333C4" height="23.707" style="stroke: #A80036; stroke-width: 1.125;" width="85.5" x="664.5" y="259.5762"/><text fill="#FFFFFF" font-family="sans-serif" font-size="10.5" lengthAdjust="spacingAndGlyphs" textLength="75" x="669.75" y="275.7261">e:EditCommand</text><polygon fill="#A80036" points="447.75,305.2969,440.25,308.2969,447.75,311.2969,444.75,308.2969" style="stroke: #A80036; stroke-width: 0.75;"/><line style="stroke: #A80036; stroke-width: 0.75; stroke-dasharray: 2.0,2.0;" x1="443.25" x2="706.5" y1="308.2969" y2="308.2969"/><text fill="#000000" font-family="sans-serif" font-size="9.75" lengthAdjust="spacingAndGlyphs" textLength="5.25" x="570.75" y="304.6545">e</text><polygon fill="#A80036" points="320.25,328.0605,312.75,331.0605,320.25,334.0605,317.25,331.0605" style="stroke: #A80036; stroke-width: 0.75;"/><line style="stroke: #A80036; stroke-width: 0.75; stroke-dasharray: 2.0,2.0;" x1="315.75" x2="435" y1="331.0605" y2="331.0605"/><text fill="#000000" font-family="sans-serif" font-size="9.75" lengthAdjust="spacingAndGlyphs" textLength="5.25" x="371.25" y="327.4182">e</text><line style="stroke: #A80036; stroke-width: 1.5;" x1="429" x2="442.5" y1="334.8105" y2="348.3105"/><line style="stroke: #A80036; stroke-width: 1.5;" x1="429" x2="442.5" y1="348.3105" y2="334.8105"/><polygon fill="#A80036" points="148.5,361.3242,141,364.3242,148.5,367.3242,145.5,364.3242" style="stroke: #A80036; stroke-width: 0.75;"/><line style="stroke: #A80036; stroke-width: 0.75; stroke-dasharray: 2.0,2.0;" x1="144" x2="307.5" y1="364.3242" y2="364.3242"/><text fill="#000000" font-family="sans-serif" font-size="9.75" lengthAdjust="spacingAndGlyphs" textLength="5.25" x="221.625" y="360.6819">e</text><polygon fill="#A80036" points="694.5,384.0879,702,387.0879,694.5,390.0879,697.5,387.0879" style="stroke: #A80036; stroke-width: 0.75;"/><line style="stroke: #A80036; stroke-width: 0.75;" x1="140.25" x2="699" y1="387.0879" y2="387.0879"/><text fill="#000000" font-family="sans-serif" font-size="9.75" lengthAdjust="spacingAndGlyphs" textLength="66.75" x="388.5" y="383.4456">execute(model)</text><path d="M649.5,398.3379 L695.25,398.3379 L695.25,404.3379 L687.75,411.8379 L649.5,411.8379 L649.5,398.3379 " fill="#EEEEEE" style="stroke: #000000; stroke-width: 0.75;"/><rect fill="none" height="92.168" style="stroke: #000000; stroke-width: 1.5;" width="418.5" x="649.5" y="398.3379"/><text fill="#000000" font-family="sans-serif" font-size="9.75" font-weight="bold" lengthAdjust="spacingAndGlyphs" textLength="12" x="660.75" y="409.2092">alt</text><text fill="#000000" font-family="sans-serif" font-size="8.25" font-weight="bold" lengthAdjust="spacingAndGlyphs" textLength="47.25" x="706.5" y="408.4021">[Edit Order]</text><polygon fill="#A80036" points="1016.25,425.8652,1023.75,428.8652,1016.25,431.8652,1019.25,428.8652" style="stroke: #A80036; stroke-width: 0.75;"/><line style="stroke: #A80036; stroke-width: 0.75;" x1="711" x2="1020.75" y1="428.8652" y2="428.8652"/><text fill="#000000" font-family="sans-serif" font-size="9.75" lengthAdjust="spacingAndGlyphs" textLength="267" x="734.625" y="425.2229">updateFilteredOrderList(PREDICATE_SHOW_ALL_ORDERS)</text><polygon fill="#A80036" points="719.25,436.3652,711.75,439.3652,719.25,442.3652,716.25,439.3652" style="stroke: #A80036; stroke-width: 0.75;"/><line style="stroke: #A80036; stroke-width: 0.75; stroke-dasharray: 2.0,2.0;" x1="714.75" x2="1028.25" y1="439.3652" y2="439.3652"/><line style="stroke: #000000; stroke-width: 0.75; stroke-dasharray: 2.0,2.0;" x1="649.5" x2="1068" y1="446.1152" y2="446.1152"/><text fill="#000000" font-family="sans-serif" font-size="8.25" font-weight="bold" lengthAdjust="spacingAndGlyphs" textLength="77.25" x="653.25" y="454.6794">[Edit Return Order]</text><polygon fill="#A80036" points="1016.25,471.0059,1023.75,474.0059,1016.25,477.0059,1019.25,474.0059" style="stroke: #A80036; stroke-width: 0.75;"/><line style="stroke: #A80036; stroke-width: 0.75;" x1="711" x2="1020.75" y1="474.0059" y2="474.0059"/><text fill="#000000" font-family="sans-serif" font-size="9.75" lengthAdjust="spacingAndGlyphs" textLength="300" x="718.125" y="470.3635">updateFilteredReturnOrderList(PREDICATE_SHOW_ALL_RETURNS)</text><polygon fill="#A80036" points="719.25,481.5059,711.75,484.5059,719.25,487.5059,716.25,484.5059" style="stroke: #A80036; stroke-width: 0.75;"/><line style="stroke: #A80036; stroke-width: 0.75; stroke-dasharray: 2.0,2.0;" x1="714.75" x2="1028.25" y1="484.5059" y2="484.5059"/><polygon fill="#A80036" points="763.5,497.2559,771,500.2559,763.5,503.2559,766.5,500.2559" style="stroke: #A80036; stroke-width: 0.75;"/><line style="stroke: #A80036; stroke-width: 0.75;" x1="711" x2="768" y1="500.2559" y2="500.2559"/><rect fill="#3333C4" height="23.707" style="stroke: #A80036; stroke-width: 1.125;" width="117.75" x="772.5" y="495.7559"/><text fill="#FFFFFF" font-family="sans-serif" font-size="10.5" lengthAdjust="spacingAndGlyphs" textLength="107.25" x="777.75" y="511.9058">result:CommandResult</text><polygon fill="#A80036" points="719.25,529.2129,711.75,532.2129,719.25,535.2129,716.25,532.2129" style="stroke: #A80036; stroke-width: 0.75;"/><line style="stroke: #A80036; stroke-width: 0.75; stroke-dasharray: 2.0,2.0;" x1="714.75" x2="830.625" y1="532.2129" y2="532.2129"/><polygon fill="#A80036" points="148.5,551.9766,141,554.9766,148.5,557.9766,145.5,554.9766" style="stroke: #A80036; stroke-width: 0.75;"/><line style="stroke: #A80036; stroke-width: 0.75; stroke-dasharray: 2.0,2.0;" x1="144" x2="706.5" y1="554.9766" y2="554.9766"/><text fill="#000000" font-family="sans-serif" font-size="9.75" lengthAdjust="spacingAndGlyphs" textLength="24" x="411.75" y="551.3342">result</text><polygon fill="#A80036" points="10.5,562.4766,3,565.4766,10.5,568.4766,7.5,565.4766" style="stroke: #A80036; stroke-width: 0.75;"/><line style="stroke: #A80036; stroke-width: 0.75; stroke-dasharray: 2.0,2.0;" x1="6" x2="135.75" y1="565.4766" y2="565.4766"/><!--MD5=[d8054ae05fa91bdadaaa00fb8248b8d0]
@startuml








skinparam BackgroundColor #FFFFFFF

skinparam Shadowing false

skinparam Class {
    FontColor #FFFFFF
    BorderThickness 1
    BorderColor #FFFFFF
    StereotypeFontColor #FFFFFF
    FontName Arial
}

skinparam Actor {
    BorderColor #000000
    Color #000000
    FontName Arial
}

skinparam Sequence {
    MessageAlign center
    BoxFontSize 15
    BoxPadding 0
    BoxFontColor #FFFFFF
    FontName Arial
}

skinparam Participant {
    FontColor #FFFFFFF
    Padding 20
}

skinparam MinClassWidth 50
skinparam ParticipantPadding 10
skinparam Shadowing false
skinparam DefaultTextAlignment center
skinparam packageStyle Rectangle

hide footbox
hide members
hide circle
box Logic #C8C8FA
participant ":LogicManager" as LogicManager #3333C4
participant ":OrderBookParser" as OrderBookParser #3333C4
participant ":EditCommandParser" as EditCommandParser #3333C4
participant "epd:EditParcelDescriptor" as EditParcelDescriptor #3333C4
participant "e:EditCommand" as EditCommand #3333C4
participant "result:CommandResult" as CommandResult #3333C4
end box

box Model #F97181
participant ":Model" as Model #9D0012
end box

[-> LogicManager : execute("edit -o 1 n/Alice")
activate LogicManager

LogicManager -> OrderBookParser : parseCommand("edit -o 1 n/Alice")
activate OrderBookParser

create EditCommandParser
OrderBookParser -> EditCommandParser
activate EditCommandParser

EditCommandParser - -> OrderBookParser
deactivate EditCommandParser

OrderBookParser -> EditCommandParser : parse("edit -o 1 n/Alice")
activate EditCommandParser

create EditParcelDescriptor
EditCommandParser -> EditParcelDescriptor
activate EditParcelDescriptor

EditParcelDescriptor - -> EditCommandParser
deactivate

EditCommandParser -> EditParcelDescriptor
activate EditParcelDescriptor

EditParcelDescriptor -[hidden]-> EditCommandParser
EditParcelDescriptor -[hidden]-> EditCommandParser
EditParcelDescriptor - -> EditCommandParser : epd
deactivate

create EditCommand
EditCommandParser -> EditCommand : epd
activate EditCommand

EditCommand - -> EditCommandParser : e
deactivate EditCommand

EditCommandParser - -> OrderBookParser : e
deactivate EditCommandParser
EditCommandParser -[hidden]-> OrderBookParser
destroy EditCommandParser

OrderBookParser - -> LogicManager : e
deactivate OrderBookParser

LogicManager -> EditCommand : execute(model)
activate EditCommand

alt Edit Order
    EditCommand -> Model : updateFilteredOrderList(PREDICATE_SHOW_ALL_ORDERS)
    activate Model

    Model - -> EditCommand
    deactivate Model
else Edit Return Order
    EditCommand -> Model : updateFilteredReturnOrderList(PREDICATE_SHOW_ALL_RETURNS)
    activate Model

    Model - -> EditCommand
    deactivate Model
end

create CommandResult
EditCommand -> CommandResult
activate CommandResult

CommandResult - -> EditCommand
deactivate CommandResult

EditCommand - -> LogicManager : result
deactivate EditCommand

[<- -LogicManager
deactivate LogicManager
@enduml

PlantUML version 1.2020.03beta6(Unknown compile time)
(GPL source distribution)
Java Runtime: OpenJDK Runtime Environment
JVM: OpenJDK 64-Bit Server VM
Java Version: 11.0.5+10-b520.30
Operating System: Windows 10
Default Encoding: UTF-8
Language: en
Country: US
--></g></svg>
