<?xml version="1.0" encoding="UTF-8" standalone="no"?><svg xmlns="http://www.w3.org/2000/svg" xmlns:xlink="http://www.w3.org/1999/xlink" contentScriptType="application/ecmascript" contentStyleType="text/css" height="1000px" preserveAspectRatio="none" style="width:942px;height:1000px;" version="1.1" viewBox="0 0 942 1000" width="942.5px" zoomAndPan="magnify"><defs><filter height="300%" id="f159a8hkn5fd31" width="300%" x="-1" y="-1"><feGaussianBlur result="blurOut" stdDeviation="2.5"/><feColorMatrix in="blurOut" result="blurOut2" type="matrix" values="0 0 0 0 0 0 0 0 0 0 0 0 0 0 0 0 0 0 .4 0"/><feOffset dx="5.0" dy="5.0" in="blurOut2" result="blurOut3"/><feBlend in="SourceGraphic" in2="blurOut3" mode="normal"/></filter></defs><g><ellipse cx="653.3594" cy="25" fill="#000000" filter="url(#f159a8hkn5fd31)" rx="12.5" ry="12.5" style="stroke: none; stroke-width: 1.25;"/><rect fill="#FEFECE" filter="url(#f159a8hkn5fd31)" height="43.8672" rx="15.625" ry="15.625" style="stroke: #A80036; stroke-width: 1.875;" width="178.75" x="563.9844" y="62.5"/><text fill="#000000" font-family="sans-serif" font-size="15" lengthAdjust="spacingAndGlyphs" textLength="153.75" x="576.4844" y="90.5713">User inputs command</text><rect fill="#FEFECE" filter="url(#f159a8hkn5fd31)" height="43.8672" rx="15.625" ry="15.625" style="stroke: #A80036; stroke-width: 1.875;" width="140" x="583.3594" y="131.3672"/><text fill="#000000" font-family="sans-serif" font-size="15" lengthAdjust="spacingAndGlyphs" textLength="115" x="595.8594" y="159.4385">Parse command</text><polygon fill="#FEFECE" filter="url(#f159a8hkn5fd31)" points="653.3594,200.2344,653.3594,200.2344,668.3594,215.2344,653.3594,230.2344,653.3594,230.2344,638.3594,215.2344,653.3594,200.2344" style="stroke: #A80036; stroke-width: 1.875;"/><text fill="#000000" font-family="sans-serif" font-size="13.75" lengthAdjust="spacingAndGlyphs" textLength="177.5" x="460.8594" y="212.2131">[command arguments is valid]</text><text fill="#000000" font-family="sans-serif" font-size="13.75" lengthAdjust="spacingAndGlyphs" textLength="32.5" x="668.3594" y="212.2131">[else]</text><rect fill="#FEFECE" filter="url(#f159a8hkn5fd31)" height="43.8672" rx="15.625" ry="15.625" style="stroke: #A80036; stroke-width: 1.875;" width="103.75" x="393.5938" y="242.7344"/><text fill="#000000" font-family="sans-serif" font-size="15" lengthAdjust="spacingAndGlyphs" textLength="78.75" x="406.0938" y="270.8057">Parse input</text><polygon fill="#FEFECE" filter="url(#f159a8hkn5fd31)" points="445.4688,330.3516,445.4688,330.3516,460.4688,345.3516,445.4688,360.3516,445.4688,360.3516,430.4688,345.3516,445.4688,330.3516" style="stroke: #A80036; stroke-width: 1.875;"/><text fill="#000000" font-family="sans-serif" font-size="13.75" lengthAdjust="spacingAndGlyphs" textLength="98.75" x="331.7188" y="342.3303">[valid user input]</text><text fill="#000000" font-family="sans-serif" font-size="13.75" lengthAdjust="spacingAndGlyphs" textLength="32.5" x="460.4688" y="342.3303">[else]</text><rect fill="#FEFECE" filter="url(#f159a8hkn5fd31)" height="43.8672" rx="15.625" ry="15.625" style="stroke: #A80036; stroke-width: 1.875;" width="225" x="135.9375" y="372.8516"/><text fill="#000000" font-family="sans-serif" font-size="15" lengthAdjust="spacingAndGlyphs" textLength="200" x="148.4375" y="400.9229">Generate new Edit command</text><rect fill="#FEFECE" filter="url(#f159a8hkn5fd31)" height="43.8672" rx="15.625" ry="15.625" style="stroke: #A80036; stroke-width: 1.875;" width="182.5" x="157.1875" y="460.4688"/><text fill="#000000" font-family="sans-serif" font-size="15" lengthAdjust="spacingAndGlyphs" textLength="157.5" x="169.6875" y="488.54">Execute Edit command</text><polygon fill="#FEFECE" filter="url(#f159a8hkn5fd31)" points="248.4375,529.3359,248.4375,529.3359,263.4375,544.3359,248.4375,559.3359,248.4375,559.3359,233.4375,544.3359,248.4375,529.3359" style="stroke: #A80036; stroke-width: 1.875;"/><text fill="#000000" font-family="sans-serif" font-size="13.75" lengthAdjust="spacingAndGlyphs" textLength="102.5" x="130.9375" y="541.3147">[Flag is order list]</text><text fill="#000000" font-family="sans-serif" font-size="13.75" lengthAdjust="spacingAndGlyphs" textLength="142.5" x="263.4375" y="541.3147">[Flag is return order list]</text><rect fill="#FEFECE" filter="url(#f159a8hkn5fd31)" height="43.8672" rx="15.625" ry="15.625" style="stroke: #A80036; stroke-width: 1.875;" width="155" x="41.25" y="571.8359"/><text fill="#000000" font-family="sans-serif" font-size="15" lengthAdjust="spacingAndGlyphs" textLength="130" x="53.75" y="599.9072">Obtain order to edit</text><rect fill="#FEFECE" filter="url(#f159a8hkn5fd31)" height="43.8672" rx="15.625" ry="15.625" style="stroke: #A80036; stroke-width: 1.875;" width="212.5" x="12.5" y="640.7031"/><text fill="#000000" font-family="sans-serif" font-size="15" lengthAdjust="spacingAndGlyphs" textLength="187.5" x="25" y="668.7744">Edit the order of given index</text><rect fill="#FEFECE" filter="url(#f159a8hkn5fd31)" height="43.8672" rx="15.625" ry="15.625" style="stroke: #A80036; stroke-width: 1.875;" width="198.75" x="278.75" y="571.8359"/><text fill="#000000" font-family="sans-serif" font-size="15" lengthAdjust="spacingAndGlyphs" textLength="173.75" x="291.25" y="599.9072">Obtain return order to edit</text><rect fill="#FEFECE" filter="url(#f159a8hkn5fd31)" height="43.8672" rx="15.625" ry="15.625" style="stroke: #A80036; stroke-width: 1.875;" width="256.25" x="250" y="640.7031"/><text fill="#000000" font-family="sans-serif" font-size="15" lengthAdjust="spacingAndGlyphs" textLength="231.25" x="262.5" y="668.7744">Edit the return order of given index</text><polygon fill="#FEFECE" filter="url(#f159a8hkn5fd31)" points="248.4375,692.0703,263.4375,707.0703,248.4375,722.0703,233.4375,707.0703,248.4375,692.0703" style="stroke: #A80036; stroke-width: 1.875;"/><rect fill="#FEFECE" filter="url(#f159a8hkn5fd31)" height="43.8672" rx="15.625" ry="15.625" style="stroke: #A80036; stroke-width: 1.875;" width="250" x="123.4375" y="747.0703"/><text fill="#000000" font-family="sans-serif" font-size="15" lengthAdjust="spacingAndGlyphs" textLength="225" x="135.9375" y="775.1416">Generate success edit message</text><rect fill="#FEFECE" filter="url(#f159a8hkn5fd31)" height="62.7344" rx="15.625" ry="15.625" style="stroke: #A80036; stroke-width: 1.875;" width="197.5" x="543.75" y="372.8516"/><text fill="#000000" font-family="sans-serif" font-size="15" lengthAdjust="spacingAndGlyphs" textLength="110" x="556.25" y="400.9229">Generate wrong</text><text fill="#000000" font-family="sans-serif" font-size="15" lengthAdjust="spacingAndGlyphs" textLength="172.5" x="556.25" y="419.79">format warning message</text><polygon fill="#FEFECE" filter="url(#f159a8hkn5fd31)" points="445.4688,798.4375,460.4688,813.4375,445.4688,828.4375,430.4688,813.4375,445.4688,798.4375" style="stroke: #A80036; stroke-width: 1.875;"/><rect fill="#FEFECE" filter="url(#f159a8hkn5fd31)" height="62.7344" rx="15.625" ry="15.625" style="stroke: #A80036; stroke-width: 1.875;" width="165" x="764.6094" y="242.7344"/><text fill="#000000" font-family="sans-serif" font-size="15" lengthAdjust="spacingAndGlyphs" textLength="130" x="780.8594" y="270.8057">Generate unknown</text><text fill="#000000" font-family="sans-serif" font-size="15" lengthAdjust="spacingAndGlyphs" textLength="140" x="777.1094" y="289.6729">command message</text><polygon fill="#FEFECE" filter="url(#f159a8hkn5fd31)" points="653.3594,835.9375,668.3594,850.9375,653.3594,865.9375,638.3594,850.9375,653.3594,835.9375" style="stroke: #A80036; stroke-width: 1.875;"/><rect fill="#FEFECE" filter="url(#f159a8hkn5fd31)" height="43.8672" rx="15.625" ry="15.625" style="stroke: #A80036; stroke-width: 1.875;" width="197.5" x="554.6094" y="890.9375"/><text fill="#000000" font-family="sans-serif" font-size="15" lengthAdjust="spacingAndGlyphs" textLength="172.5" x="567.1094" y="919.0088">Display message to user</text><ellipse cx="653.3594" cy="973.5547" fill="#FFFFFF" filter="url(#f159a8hkn5fd31)" rx="13.75" ry="13.75" style="stroke: #000000; stroke-width: 1.25;"/><ellipse cx="653.3594" cy="973.5547" fill="#000000" rx="7.5" ry="7.5" style="stroke: #7F7F7F; stroke-width: 1.25;"/><line style="stroke: #A80036; stroke-width: 1.875;" x1="653.3594" x2="653.3594" y1="37.5" y2="62.5"/><polygon fill="#A80036" points="648.3594,50,653.3594,62.5,658.3594,50,653.3594,55" style="stroke: #A80036; stroke-width: 1.25;"/><line style="stroke: #A80036; stroke-width: 1.875;" x1="653.3594" x2="653.3594" y1="106.3672" y2="131.3672"/><polygon fill="#A80036" points="648.3594,118.8672,653.3594,131.3672,658.3594,118.8672,653.3594,123.8672" style="stroke: #A80036; stroke-width: 1.25;"/><line style="stroke: #A80036; stroke-width: 1.875;" x1="248.4375" x2="248.4375" y1="416.7188" y2="460.4688"/><polygon fill="#A80036" points="243.4375,447.9688,248.4375,460.4688,253.4375,447.9688,248.4375,452.9688" style="stroke: #A80036; stroke-width: 1.25;"/><line style="stroke: #A80036; stroke-width: 1.875;" x1="118.75" x2="118.75" y1="615.7031" y2="640.7031"/><polygon fill="#A80036" points="113.75,628.2031,118.75,640.7031,123.75,628.2031,118.75,633.2031" style="stroke: #A80036; stroke-width: 1.25;"/><line style="stroke: #A80036; stroke-width: 1.875;" x1="378.125" x2="378.125" y1="615.7031" y2="640.7031"/><polygon fill="#A80036" points="373.125,628.2031,378.125,640.7031,383.125,628.2031,378.125,633.2031" style="stroke: #A80036; stroke-width: 1.25;"/><line style="stroke: #A80036; stroke-width: 1.875;" x1="233.4375" x2="118.75" y1="544.3359" y2="544.3359"/><line style="stroke: #A80036; stroke-width: 1.875;" x1="118.75" x2="118.75" y1="544.3359" y2="571.8359"/><polygon fill="#A80036" points="113.75,559.3359,118.75,571.8359,123.75,559.3359,118.75,564.3359" style="stroke: #A80036; stroke-width: 1.25;"/><line style="stroke: #A80036; stroke-width: 1.875;" x1="263.4375" x2="378.125" y1="544.3359" y2="544.3359"/><line style="stroke: #A80036; stroke-width: 1.875;" x1="378.125" x2="378.125" y1="544.3359" y2="571.8359"/><polygon fill="#A80036" points="373.125,559.3359,378.125,571.8359,383.125,559.3359,378.125,564.3359" style="stroke: #A80036; stroke-width: 1.25;"/><line style="stroke: #A80036; stroke-width: 1.875;" x1="118.75" x2="118.75" y1="684.5703" y2="707.0703"/><line style="stroke: #A80036; stroke-width: 1.875;" x1="118.75" x2="233.4375" y1="707.0703" y2="707.0703"/><polygon fill="#A80036" points="220.9375,702.0703,233.4375,707.0703,220.9375,712.0703,225.9375,707.0703" style="stroke: #A80036; stroke-width: 1.25;"/><line style="stroke: #A80036; stroke-width: 1.875;" x1="378.125" x2="378.125" y1="684.5703" y2="707.0703"/><line style="stroke: #A80036; stroke-width: 1.875;" x1="378.125" x2="263.4375" y1="707.0703" y2="707.0703"/><polygon fill="#A80036" points="275.9375,702.0703,263.4375,707.0703,275.9375,712.0703,270.9375,707.0703" style="stroke: #A80036; stroke-width: 1.25;"/><line style="stroke: #A80036; stroke-width: 1.875;" x1="248.4375" x2="248.4375" y1="504.3359" y2="529.3359"/><polygon fill="#A80036" points="243.4375,516.8359,248.4375,529.3359,253.4375,516.8359,248.4375,521.8359" style="stroke: #A80036; stroke-width: 1.25;"/><line style="stroke: #A80036; stroke-width: 1.875;" x1="248.4375" x2="248.4375" y1="722.0703" y2="747.0703"/><polygon fill="#A80036" points="243.4375,734.5703,248.4375,747.0703,253.4375,734.5703,248.4375,739.5703" style="stroke: #A80036; stroke-width: 1.25;"/><line style="stroke: #A80036; stroke-width: 1.875;" x1="430.4688" x2="248.4375" y1="345.3516" y2="345.3516"/><line style="stroke: #A80036; stroke-width: 1.875;" x1="248.4375" x2="248.4375" y1="345.3516" y2="372.8516"/><polygon fill="#A80036" points="243.4375,360.3516,248.4375,372.8516,253.4375,360.3516,248.4375,365.3516" style="stroke: #A80036; stroke-width: 1.25;"/><line style="stroke: #A80036; stroke-width: 1.875;" x1="460.4688" x2="642.5" y1="345.3516" y2="345.3516"/><line style="stroke: #A80036; stroke-width: 1.875;" x1="642.5" x2="642.5" y1="345.3516" y2="372.8516"/><polygon fill="#A80036" points="637.5,360.3516,642.5,372.8516,647.5,360.3516,642.5,365.3516" style="stroke: #A80036; stroke-width: 1.25;"/><line style="stroke: #A80036; stroke-width: 1.875;" x1="248.4375" x2="248.4375" y1="790.9375" y2="813.4375"/><line style="stroke: #A80036; stroke-width: 1.875;" x1="248.4375" x2="430.4688" y1="813.4375" y2="813.4375"/><polygon fill="#A80036" points="417.9688,808.4375,430.4688,813.4375,417.9688,818.4375,422.9688,813.4375" style="stroke: #A80036; stroke-width: 1.25;"/><line style="stroke: #A80036; stroke-width: 1.875;" x1="642.5" x2="642.5" y1="435.5859" y2="813.4375"/><line style="stroke: #A80036; stroke-width: 1.875;" x1="642.5" x2="460.4688" y1="813.4375" y2="813.4375"/><polygon fill="#A80036" points="472.9688,808.4375,460.4688,813.4375,472.9688,818.4375,467.9688,813.4375" style="stroke: #A80036; stroke-width: 1.25;"/><line style="stroke: #A80036; stroke-width: 1.875;" x1="445.4688" x2="445.4688" y1="286.6016" y2="330.3516"/><polygon fill="#A80036" points="440.4688,317.8516,445.4688,330.3516,450.4688,317.8516,445.4688,322.8516" style="stroke: #A80036; stroke-width: 1.25;"/><line style="stroke: #A80036; stroke-width: 1.875;" x1="638.3594" x2="445.4688" y1="215.2344" y2="215.2344"/><line style="stroke: #A80036; stroke-width: 1.875;" x1="445.4688" x2="445.4688" y1="215.2344" y2="242.7344"/><polygon fill="#A80036" points="440.4688,230.2344,445.4688,242.7344,450.4688,230.2344,445.4688,235.2344" style="stroke: #A80036; stroke-width: 1.25;"/><line style="stroke: #A80036; stroke-width: 1.875;" x1="668.3594" x2="847.1094" y1="215.2344" y2="215.2344"/><line style="stroke: #A80036; stroke-width: 1.875;" x1="847.1094" x2="847.1094" y1="215.2344" y2="242.7344"/><polygon fill="#A80036" points="842.1094,230.2344,847.1094,242.7344,852.1094,230.2344,847.1094,235.2344" style="stroke: #A80036; stroke-width: 1.25;"/><line style="stroke: #A80036; stroke-width: 1.875;" x1="445.4688" x2="445.4688" y1="828.4375" y2="850.9375"/><line style="stroke: #A80036; stroke-width: 1.875;" x1="445.4688" x2="638.3594" y1="850.9375" y2="850.9375"/><polygon fill="#A80036" points="625.8594,845.9375,638.3594,850.9375,625.8594,855.9375,630.8594,850.9375" style="stroke: #A80036; stroke-width: 1.25;"/><line style="stroke: #A80036; stroke-width: 1.875;" x1="847.1094" x2="847.1094" y1="305.4688" y2="850.9375"/><line style="stroke: #A80036; stroke-width: 1.875;" x1="847.1094" x2="668.3594" y1="850.9375" y2="850.9375"/><polygon fill="#A80036" points="680.8594,845.9375,668.3594,850.9375,680.8594,855.9375,675.8594,850.9375" style="stroke: #A80036; stroke-width: 1.25;"/><line style="stroke: #A80036; stroke-width: 1.875;" x1="653.3594" x2="653.3594" y1="175.2344" y2="200.2344"/><polygon fill="#A80036" points="648.3594,187.7344,653.3594,200.2344,658.3594,187.7344,653.3594,192.7344" style="stroke: #A80036; stroke-width: 1.25;"/><line style="stroke: #A80036; stroke-width: 1.875;" x1="653.3594" x2="653.3594" y1="865.9375" y2="890.9375"/><polygon fill="#A80036" points="648.3594,878.4375,653.3594,890.9375,658.3594,878.4375,653.3594,883.4375" style="stroke: #A80036; stroke-width: 1.25;"/><line style="stroke: #A80036; stroke-width: 1.875;" x1="653.3594" x2="653.3594" y1="934.8047" y2="959.8047"/><polygon fill="#A80036" points="648.3594,947.3047,653.3594,959.8047,658.3594,947.3047,653.3594,952.3047" style="stroke: #A80036; stroke-width: 1.25;"/><!--MD5=[9f3db92e627120ca28b804b78b540b72]
@startuml
start
:User inputs command;
:Parse command;

if () then ([command arguments is valid])
    :Parse input;
    if () then ([valid user input])
        :Generate new Edit command;
        :Execute Edit command;
        if () then ([Flag is order list])
        :Obtain order to edit;
        :Edit the order of given index;
        else ([Flag is return order list])
        :Obtain return order to edit;
        :Edit the return order of given index;
        endif
        :Generate success edit message;
    else ([else])
        :Generate wrong
        format warning message;
    endif
else ([else])
    : Generate unknown
    command message;
endif
:Display message to user;
stop
@enduml

PlantUML version 1.2020.03beta6(Unknown compile time)
(GPL source distribution)
Java Runtime: OpenJDK Runtime Environment
JVM: OpenJDK 64-Bit Server VM
Java Version: 11.0.5+10-b520.30
Operating System: Windows 10
Default Encoding: UTF-8
Language: en
Country: US
--></g></svg>
