<?xml version="1.0" encoding="UTF-8" standalone="no"?><svg xmlns="http://www.w3.org/2000/svg" xmlns:xlink="http://www.w3.org/1999/xlink" contentScriptType="application/ecmascript" contentStyleType="text/css" height="961.25px" preserveAspectRatio="none" style="width:1187px;height:961px;" version="1.1" viewBox="0 0 1187 961" width="1187.5px" zoomAndPan="magnify"><defs><filter height="300%" id="f5yim6rdolv41" width="300%" x="-1" y="-1"><feGaussianBlur result="blurOut" stdDeviation="2.5"/><feColorMatrix in="blurOut" result="blurOut2" type="matrix" values="0 0 0 0 0 0 0 0 0 0 0 0 0 0 0 0 0 0 .4 0"/><feOffset dx="5.0" dy="5.0" in="blurOut2" result="blurOut3"/><feBlend in="SourceGraphic" in2="blurOut3" mode="normal"/></filter></defs><g><ellipse cx="862.1484" cy="25" fill="#000000" filter="url(#f5yim6rdolv41)" rx="12.5" ry="12.5" style="stroke: none; stroke-width: 1.25;"/><rect fill="#FEFECE" filter="url(#f5yim6rdolv41)" height="43.8672" rx="15.625" ry="15.625" style="stroke: #A80036; stroke-width: 1.875;" width="178.75" x="772.7734" y="62.5"/><text fill="#000000" font-family="sans-serif" font-size="15" lengthAdjust="spacingAndGlyphs" textLength="153.75" x="785.2734" y="90.5713">User inputs command</text><rect fill="#FEFECE" filter="url(#f5yim6rdolv41)" height="43.8672" rx="15.625" ry="15.625" style="stroke: #A80036; stroke-width: 1.875;" width="140" x="792.1484" y="131.3672"/><text fill="#000000" font-family="sans-serif" font-size="15" lengthAdjust="spacingAndGlyphs" textLength="115" x="804.6484" y="159.4385">Parse command</text><polygon fill="#FEFECE" filter="url(#f5yim6rdolv41)" points="862.1484,200.2344,862.1484,200.2344,877.1484,215.2344,862.1484,230.2344,862.1484,230.2344,847.1484,215.2344,862.1484,200.2344" style="stroke: #A80036; stroke-width: 1.875;"/><text fill="#000000" font-family="sans-serif" font-size="13.75" lengthAdjust="spacingAndGlyphs" textLength="177.5" x="669.6484" y="212.2131">[command arguments is valid]</text><text fill="#000000" font-family="sans-serif" font-size="13.75" lengthAdjust="spacingAndGlyphs" textLength="32.5" x="877.1484" y="212.2131">[else]</text><rect fill="#FEFECE" filter="url(#f5yim6rdolv41)" height="43.8672" rx="15.625" ry="15.625" style="stroke: #A80036; stroke-width: 1.875;" width="225" x="495.5469" y="242.7344"/><text fill="#000000" font-family="sans-serif" font-size="15" lengthAdjust="spacingAndGlyphs" textLength="200" x="508.0469" y="270.8057">Generate new Edit command</text><rect fill="#FEFECE" filter="url(#f5yim6rdolv41)" height="43.8672" rx="15.625" ry="15.625" style="stroke: #A80036; stroke-width: 1.875;" width="103.75" x="556.1719" y="330.3516"/><text fill="#000000" font-family="sans-serif" font-size="15" lengthAdjust="spacingAndGlyphs" textLength="78.75" x="568.6719" y="358.4229">Parse input</text><polygon fill="#FEFECE" filter="url(#f5yim6rdolv41)" points="608.0469,399.2188,608.0469,399.2188,623.0469,414.2188,608.0469,429.2188,608.0469,429.2188,593.0469,414.2188,608.0469,399.2188" style="stroke: #A80036; stroke-width: 1.875;"/><text fill="#000000" font-family="sans-serif" font-size="13.75" lengthAdjust="spacingAndGlyphs" textLength="98.75" x="494.2969" y="411.1975">[valid user input]</text><text fill="#000000" font-family="sans-serif" font-size="13.75" lengthAdjust="spacingAndGlyphs" textLength="32.5" x="623.0469" y="411.1975">[else]</text><rect fill="#FEFECE" filter="url(#f5yim6rdolv41)" height="43.8672" rx="15.625" ry="15.625" style="stroke: #A80036; stroke-width: 1.875;" width="182.5" x="227.3438" y="441.7188"/><text fill="#000000" font-family="sans-serif" font-size="15" lengthAdjust="spacingAndGlyphs" textLength="157.5" x="239.8438" y="469.79">Execute Edit command</text><polygon fill="#FEFECE" filter="url(#f5yim6rdolv41)" points="318.5938,529.3359,318.5938,529.3359,333.5938,544.3359,318.5938,559.3359,318.5938,559.3359,303.5938,544.3359,318.5938,529.3359" style="stroke: #A80036; stroke-width: 1.875;"/><text fill="#000000" font-family="sans-serif" font-size="13.75" lengthAdjust="spacingAndGlyphs" textLength="102.5" x="201.0938" y="541.3147">[Flag is order list]</text><text fill="#000000" font-family="sans-serif" font-size="13.75" lengthAdjust="spacingAndGlyphs" textLength="32.5" x="333.5938" y="541.3147">[else]</text><rect fill="#FEFECE" filter="url(#f5yim6rdolv41)" height="43.8672" rx="15.625" ry="15.625" style="stroke: #A80036; stroke-width: 1.875;" width="155" x="41.25" y="571.8359"/><text fill="#000000" font-family="sans-serif" font-size="15" lengthAdjust="spacingAndGlyphs" textLength="130" x="53.75" y="599.9072">Obtain order to edit</text><rect fill="#FEFECE" filter="url(#f5yim6rdolv41)" height="43.8672" rx="15.625" ry="15.625" style="stroke: #A80036; stroke-width: 1.875;" width="212.5" x="12.5" y="659.4531"/><text fill="#000000" font-family="sans-serif" font-size="15" lengthAdjust="spacingAndGlyphs" textLength="187.5" x="25" y="687.5244">Edit the order of given index</text><polygon fill="#FEFECE" filter="url(#f5yim6rdolv41)" points="518.4375,571.8359,518.4375,571.8359,533.4375,586.8359,518.4375,601.8359,518.4375,601.8359,503.4375,586.8359,518.4375,571.8359" style="stroke: #A80036; stroke-width: 1.875;"/><text fill="#000000" font-family="sans-serif" font-size="13.75" lengthAdjust="spacingAndGlyphs" textLength="142.5" x="360.9375" y="583.8147">[Flag is return order list]</text><text fill="#000000" font-family="sans-serif" font-size="13.75" lengthAdjust="spacingAndGlyphs" textLength="32.5" x="533.4375" y="583.8147">[else]</text><rect fill="#FEFECE" filter="url(#f5yim6rdolv41)" height="43.8672" rx="15.625" ry="15.625" style="stroke: #A80036; stroke-width: 1.875;" width="198.75" x="291.25" y="614.3359"/><text fill="#000000" font-family="sans-serif" font-size="15" lengthAdjust="spacingAndGlyphs" textLength="173.75" x="303.75" y="642.4072">Obtain return order to edit</text><rect fill="#FEFECE" filter="url(#f5yim6rdolv41)" height="43.8672" rx="15.625" ry="15.625" style="stroke: #A80036; stroke-width: 1.875;" width="256.25" x="262.5" y="701.9531"/><text fill="#000000" font-family="sans-serif" font-size="15" lengthAdjust="spacingAndGlyphs" textLength="231.25" x="275" y="730.0244">Edit the return order of given index</text><rect fill="#FEFECE" filter="url(#f5yim6rdolv41)" height="62.7344" rx="15.625" ry="15.625" style="stroke: #A80036; stroke-width: 1.875;" width="205" x="543.75" y="614.3359"/><text fill="#000000" font-family="sans-serif" font-size="15" lengthAdjust="spacingAndGlyphs" textLength="180" x="556.25" y="642.4072">Display warning message</text><text fill="#000000" font-family="sans-serif" font-size="15" lengthAdjust="spacingAndGlyphs" textLength="116.25" x="556.25" y="661.2744">for no flags given</text><polygon fill="#FEFECE" filter="url(#f5yim6rdolv41)" points="518.4375,753.3203,533.4375,768.3203,518.4375,783.3203,503.4375,768.3203,518.4375,753.3203" style="stroke: #A80036; stroke-width: 1.875;"/><polygon fill="#FEFECE" filter="url(#f5yim6rdolv41)" points="318.5938,790.8203,333.5938,805.8203,318.5938,820.8203,303.5938,805.8203,318.5938,790.8203" style="stroke: #A80036; stroke-width: 1.875;"/><rect fill="#FEFECE" filter="url(#f5yim6rdolv41)" height="62.7344" rx="15.625" ry="15.625" style="stroke: #A80036; stroke-width: 1.875;" width="197.5" x="798.75" y="441.7188"/><text fill="#000000" font-family="sans-serif" font-size="15" lengthAdjust="spacingAndGlyphs" textLength="97.5" x="811.25" y="469.79">Display wrong</text><text fill="#000000" font-family="sans-serif" font-size="15" lengthAdjust="spacingAndGlyphs" textLength="172.5" x="811.25" y="488.6572">format warning message</text><polygon fill="#FEFECE" filter="url(#f5yim6rdolv41)" points="608.0469,828.3203,623.0469,843.3203,608.0469,858.3203,593.0469,843.3203,608.0469,828.3203" style="stroke: #A80036; stroke-width: 1.875;"/><rect fill="#FEFECE" filter="url(#f5yim6rdolv41)" height="62.7344" rx="15.625" ry="15.625" style="stroke: #A80036; stroke-width: 1.875;" width="165" x="1008.75" y="242.7344"/><text fill="#000000" font-family="sans-serif" font-size="15" lengthAdjust="spacingAndGlyphs" textLength="117.5" x="1025" y="270.8057">Display unknown</text><text fill="#000000" font-family="sans-serif" font-size="15" lengthAdjust="spacingAndGlyphs" textLength="140" x="1021.25" y="289.6729">command message</text><polygon fill="#FEFECE" filter="url(#f5yim6rdolv41)" points="862.1484,865.8203,877.1484,880.8203,862.1484,895.8203,847.1484,880.8203,862.1484,865.8203" style="stroke: #A80036; stroke-width: 1.875;"/><ellipse cx="862.1484" cy="934.5703" fill="#FFFFFF" filter="url(#f5yim6rdolv41)" rx="13.75" ry="13.75" style="stroke: #000000; stroke-width: 1.25;"/><ellipse cx="862.1484" cy="934.5703" fill="#000000" rx="7.5" ry="7.5" style="stroke: #7F7F7F; stroke-width: 1.25;"/><line style="stroke: #A80036; stroke-width: 1.875;" x1="862.1484" x2="862.1484" y1="37.5" y2="62.5"/><polygon fill="#A80036" points="857.1484,50,862.1484,62.5,867.1484,50,862.1484,55" style="stroke: #A80036; stroke-width: 1.25;"/><line style="stroke: #A80036; stroke-width: 1.875;" x1="862.1484" x2="862.1484" y1="106.3672" y2="131.3672"/><polygon fill="#A80036" points="857.1484,118.8672,862.1484,131.3672,867.1484,118.8672,862.1484,123.8672" style="stroke: #A80036; stroke-width: 1.25;"/><line style="stroke: #A80036; stroke-width: 1.875;" x1="608.0469" x2="608.0469" y1="286.6016" y2="330.3516"/><polygon fill="#A80036" points="603.0469,317.8516,608.0469,330.3516,613.0469,317.8516,608.0469,322.8516" style="stroke: #A80036; stroke-width: 1.25;"/><line style="stroke: #A80036; stroke-width: 1.875;" x1="118.75" x2="118.75" y1="615.7031" y2="659.4531"/><polygon fill="#A80036" points="113.75,646.9531,118.75,659.4531,123.75,646.9531,118.75,651.9531" style="stroke: #A80036; stroke-width: 1.25;"/><line style="stroke: #A80036; stroke-width: 1.875;" x1="390.625" x2="390.625" y1="658.2031" y2="701.9531"/><polygon fill="#A80036" points="385.625,689.4531,390.625,701.9531,395.625,689.4531,390.625,694.4531" style="stroke: #A80036; stroke-width: 1.25;"/><line style="stroke: #A80036; stroke-width: 1.875;" x1="503.4375" x2="390.625" y1="586.8359" y2="586.8359"/><line style="stroke: #A80036; stroke-width: 1.875;" x1="390.625" x2="390.625" y1="586.8359" y2="614.3359"/><polygon fill="#A80036" points="385.625,601.8359,390.625,614.3359,395.625,601.8359,390.625,606.8359" style="stroke: #A80036; stroke-width: 1.25;"/><line style="stroke: #A80036; stroke-width: 1.875;" x1="533.4375" x2="646.25" y1="586.8359" y2="586.8359"/><line style="stroke: #A80036; stroke-width: 1.875;" x1="646.25" x2="646.25" y1="586.8359" y2="614.3359"/><polygon fill="#A80036" points="641.25,601.8359,646.25,614.3359,651.25,601.8359,646.25,606.8359" style="stroke: #A80036; stroke-width: 1.25;"/><line style="stroke: #A80036; stroke-width: 1.875;" x1="390.625" x2="390.625" y1="745.8203" y2="768.3203"/><line style="stroke: #A80036; stroke-width: 1.875;" x1="390.625" x2="503.4375" y1="768.3203" y2="768.3203"/><polygon fill="#A80036" points="490.9375,763.3203,503.4375,768.3203,490.9375,773.3203,495.9375,768.3203" style="stroke: #A80036; stroke-width: 1.25;"/><line style="stroke: #A80036; stroke-width: 1.875;" x1="646.25" x2="646.25" y1="677.0703" y2="768.3203"/><line style="stroke: #A80036; stroke-width: 1.875;" x1="646.25" x2="533.4375" y1="768.3203" y2="768.3203"/><polygon fill="#A80036" points="545.9375,763.3203,533.4375,768.3203,545.9375,773.3203,540.9375,768.3203" style="stroke: #A80036; stroke-width: 1.25;"/><line style="stroke: #A80036; stroke-width: 1.875;" x1="303.5938" x2="118.75" y1="544.3359" y2="544.3359"/><line style="stroke: #A80036; stroke-width: 1.875;" x1="118.75" x2="118.75" y1="544.3359" y2="571.8359"/><polygon fill="#A80036" points="113.75,559.3359,118.75,571.8359,123.75,559.3359,118.75,564.3359" style="stroke: #A80036; stroke-width: 1.25;"/><line style="stroke: #A80036; stroke-width: 1.875;" x1="333.5938" x2="518.4375" y1="544.3359" y2="544.3359"/><line style="stroke: #A80036; stroke-width: 1.875;" x1="518.4375" x2="518.4375" y1="544.3359" y2="571.8359"/><polygon fill="#A80036" points="513.4375,559.3359,518.4375,571.8359,523.4375,559.3359,518.4375,564.3359" style="stroke: #A80036; stroke-width: 1.25;"/><line style="stroke: #A80036; stroke-width: 1.875;" x1="118.75" x2="118.75" y1="703.3203" y2="805.8203"/><line style="stroke: #A80036; stroke-width: 1.875;" x1="118.75" x2="303.5938" y1="805.8203" y2="805.8203"/><polygon fill="#A80036" points="291.0938,800.8203,303.5938,805.8203,291.0938,810.8203,296.0938,805.8203" style="stroke: #A80036; stroke-width: 1.25;"/><line style="stroke: #A80036; stroke-width: 1.875;" x1="518.4375" x2="518.4375" y1="783.3203" y2="805.8203"/><line style="stroke: #A80036; stroke-width: 1.875;" x1="518.4375" x2="333.5938" y1="805.8203" y2="805.8203"/><polygon fill="#A80036" points="346.0938,800.8203,333.5938,805.8203,346.0938,810.8203,341.0938,805.8203" style="stroke: #A80036; stroke-width: 1.25;"/><line style="stroke: #A80036; stroke-width: 1.875;" x1="318.5938" x2="318.5938" y1="485.5859" y2="529.3359"/><polygon fill="#A80036" points="313.5938,516.8359,318.5938,529.3359,323.5938,516.8359,318.5938,521.8359" style="stroke: #A80036; stroke-width: 1.25;"/><line style="stroke: #A80036; stroke-width: 1.875;" x1="593.0469" x2="318.5938" y1="414.2188" y2="414.2188"/><line style="stroke: #A80036; stroke-width: 1.875;" x1="318.5938" x2="318.5938" y1="414.2188" y2="441.7188"/><polygon fill="#A80036" points="313.5938,429.2188,318.5938,441.7188,323.5938,429.2188,318.5938,434.2188" style="stroke: #A80036; stroke-width: 1.25;"/><line style="stroke: #A80036; stroke-width: 1.875;" x1="623.0469" x2="897.5" y1="414.2188" y2="414.2188"/><line style="stroke: #A80036; stroke-width: 1.875;" x1="897.5" x2="897.5" y1="414.2188" y2="441.7188"/><polygon fill="#A80036" points="892.5,429.2188,897.5,441.7188,902.5,429.2188,897.5,434.2188" style="stroke: #A80036; stroke-width: 1.25;"/><line style="stroke: #A80036; stroke-width: 1.875;" x1="318.5938" x2="318.5938" y1="820.8203" y2="843.3203"/><line style="stroke: #A80036; stroke-width: 1.875;" x1="318.5938" x2="593.0469" y1="843.3203" y2="843.3203"/><polygon fill="#A80036" points="580.5469,838.3203,593.0469,843.3203,580.5469,848.3203,585.5469,843.3203" style="stroke: #A80036; stroke-width: 1.25;"/><line style="stroke: #A80036; stroke-width: 1.875;" x1="897.5" x2="897.5" y1="504.4531" y2="843.3203"/><line style="stroke: #A80036; stroke-width: 1.875;" x1="897.5" x2="623.0469" y1="843.3203" y2="843.3203"/><polygon fill="#A80036" points="635.5469,838.3203,623.0469,843.3203,635.5469,848.3203,630.5469,843.3203" style="stroke: #A80036; stroke-width: 1.25;"/><line style="stroke: #A80036; stroke-width: 1.875;" x1="608.0469" x2="608.0469" y1="374.2188" y2="399.2188"/><polygon fill="#A80036" points="603.0469,386.7188,608.0469,399.2188,613.0469,386.7188,608.0469,391.7188" style="stroke: #A80036; stroke-width: 1.25;"/><line style="stroke: #A80036; stroke-width: 1.875;" x1="847.1484" x2="608.0469" y1="215.2344" y2="215.2344"/><line style="stroke: #A80036; stroke-width: 1.875;" x1="608.0469" x2="608.0469" y1="215.2344" y2="242.7344"/><polygon fill="#A80036" points="603.0469,230.2344,608.0469,242.7344,613.0469,230.2344,608.0469,235.2344" style="stroke: #A80036; stroke-width: 1.25;"/><line style="stroke: #A80036; stroke-width: 1.875;" x1="877.1484" x2="1091.25" y1="215.2344" y2="215.2344"/><line style="stroke: #A80036; stroke-width: 1.875;" x1="1091.25" x2="1091.25" y1="215.2344" y2="242.7344"/><polygon fill="#A80036" points="1086.25,230.2344,1091.25,242.7344,1096.25,230.2344,1091.25,235.2344" style="stroke: #A80036; stroke-width: 1.25;"/><line style="stroke: #A80036; stroke-width: 1.875;" x1="608.0469" x2="608.0469" y1="858.3203" y2="880.8203"/><line style="stroke: #A80036; stroke-width: 1.875;" x1="608.0469" x2="847.1484" y1="880.8203" y2="880.8203"/><polygon fill="#A80036" points="834.6484,875.8203,847.1484,880.8203,834.6484,885.8203,839.6484,880.8203" style="stroke: #A80036; stroke-width: 1.25;"/><line style="stroke: #A80036; stroke-width: 1.875;" x1="1091.25" x2="1091.25" y1="305.4688" y2="880.8203"/><line style="stroke: #A80036; stroke-width: 1.875;" x1="1091.25" x2="877.1484" y1="880.8203" y2="880.8203"/><polygon fill="#A80036" points="889.6484,875.8203,877.1484,880.8203,889.6484,885.8203,884.6484,880.8203" style="stroke: #A80036; stroke-width: 1.25;"/><line style="stroke: #A80036; stroke-width: 1.875;" x1="862.1484" x2="862.1484" y1="175.2344" y2="200.2344"/><polygon fill="#A80036" points="857.1484,187.7344,862.1484,200.2344,867.1484,187.7344,862.1484,192.7344" style="stroke: #A80036; stroke-width: 1.25;"/><line style="stroke: #A80036; stroke-width: 1.875;" x1="862.1484" x2="862.1484" y1="895.8203" y2="920.8203"/><polygon fill="#A80036" points="857.1484,908.3203,862.1484,920.8203,867.1484,908.3203,862.1484,913.3203" style="stroke: #A80036; stroke-width: 1.25;"/><!--MD5=[8f24b72b3b7229605ab3fd8cfce81b1d]
@startuml
start
:User inputs command;
:Parse command;

if () then ([command arguments is valid])
    :Generate new Edit command;
    :Parse input;
    if () then ([valid user input])
        :Execute Edit command;
        if () then ([Flag is order list])
        :Obtain order to edit;
        :Edit the order of given index;
        else ([else])
            if () then ([Flag is return order list])
            :Obtain return order to edit;
            :Edit the return order of given index;
            else ([else])
            :Display warning message 
            for no flags given;
            endif
        endif
    else ([else])
        :Display wrong 
        format warning message;
    endif
else ([else])
    : Display unknown 
    command message;
endif

stop
@enduml

PlantUML version 1.2020.03beta6(Unknown compile time)
(GPL source distribution)
Java Runtime: OpenJDK Runtime Environment
JVM: OpenJDK 64-Bit Server VM
Java Version: 11.0.5+10-b520.30
Operating System: Windows 10
Default Encoding: UTF-8
Language: en
Country: US
--></g></svg>
