<?xml version="1.0" encoding="UTF-8" standalone="no"?><svg xmlns="http://www.w3.org/2000/svg" xmlns:xlink="http://www.w3.org/1999/xlink" contentScriptType="application/ecmascript" contentStyleType="text/css" height="308.8px" preserveAspectRatio="none" style="width:535px;height:308px;" version="1.1" viewBox="0 0 535 308" width="535.2px" zoomAndPan="magnify"><defs/><g><ellipse cx="339.2" cy="16" fill="#000000" rx="8" ry="8" style="stroke: none; stroke-width: 0.8;"/><rect fill="#FEFECE" height="27.0391" rx="10" ry="10" style="stroke: #A80036; stroke-width: 1.2000000000000002;" width="128.8" x="274.8" y="40"/><text fill="#000000" font-family="Arial" font-size="9.6" lengthAdjust="spacingAndGlyphs" textLength="112.8" x="282.8" y="57.0047">User inputs fav command</text><polygon fill="#FEFECE" points="339.2,83.0391,339.2,83.0391,348.8,92.6391,339.2,102.2391,339.2,102.2391,329.6,92.6391,339.2,83.0391" style="stroke: #A80036; stroke-width: 1.2000000000000002;"/><text fill="#000000" font-family="Arial" font-size="8.8" lengthAdjust="spacingAndGlyphs" textLength="98.4" x="231.2" y="90.7742">[Command is valid format]</text><text fill="#000000" font-family="Arial" font-size="8.8" lengthAdjust="spacingAndGlyphs" textLength="119.2" x="348.8" y="90.7742">[command is not a valid format]</text><polygon fill="#FEFECE" points="216,110.2391,216,110.2391,225.6,119.8391,216,129.4391,216,129.4391,206.4,119.8391,216,110.2391" style="stroke: #A80036; stroke-width: 1.2000000000000002;"/><text fill="#000000" font-family="Arial" font-size="8.8" lengthAdjust="spacingAndGlyphs" textLength="80" x="126.4" y="117.9742">[Recipe index exists]</text><text fill="#000000" font-family="Arial" font-size="8.8" lengthAdjust="spacingAndGlyphs" textLength="111.2" x="225.6" y="117.9742">[Recipe index does not exist]</text><rect fill="#FEFECE" height="38.0781" rx="10" ry="10" style="stroke: #A80036; stroke-width: 1.2000000000000002;" width="224.8" x="8" y="137.4391"/><text fill="#000000" font-family="Arial" font-size="9.6" lengthAdjust="spacingAndGlyphs" textLength="208.8" x="16" y="154.4438">Marks the recipe at specified index as favourited</text><text fill="#000000" font-family="Arial" font-size="9.6" lengthAdjust="spacingAndGlyphs" textLength="122.4" x="59.2" y="165.4828">:Returns success message</text><rect fill="#FEFECE" height="38.0781" rx="10" ry="10" style="stroke: #A80036; stroke-width: 1.2000000000000002;" width="125.6" x="248.8" y="137.4391"/><text fill="#000000" font-family="Arial" font-size="9.6" lengthAdjust="spacingAndGlyphs" textLength="109.6" x="256.8" y="154.4438">Returns failure message</text><text fill="#000000" font-family="Arial" font-size="9.6" lengthAdjust="spacingAndGlyphs" textLength="60" x="281.6" y="165.4828">(Invalid index)</text><polygon fill="#FEFECE" points="216,180.3172,225.6,189.9172,216,199.5172,206.4,189.9172,216,180.3172" style="stroke: #A80036; stroke-width: 1.2000000000000002;"/><rect fill="#FEFECE" height="27.0391" rx="10" ry="10" style="stroke: #A80036; stroke-width: 1.2000000000000002;" width="183.2" x="124.4" y="215.5172"/><text fill="#000000" font-family="Arial" font-size="9.6" lengthAdjust="spacingAndGlyphs" textLength="167.2" x="132.4" y="232.5219">LogicManager prints message to user</text><rect fill="#FEFECE" height="38.0781" rx="10" ry="10" style="stroke: #A80036; stroke-width: 1.2000000000000002;" width="128" x="398.4" y="110.2391"/><text fill="#000000" font-family="Arial" font-size="9.6" lengthAdjust="spacingAndGlyphs" textLength="109.6" x="407.6" y="127.2438">Returns failure message</text><text fill="#000000" font-family="Arial" font-size="9.6" lengthAdjust="spacingAndGlyphs" textLength="112" x="406.4" y="138.2828">(invalid command format)</text><polygon fill="#FEFECE" points="339.2,247.3563,348.8,256.9563,339.2,266.5563,329.6,256.9563,339.2,247.3563" style="stroke: #A80036; stroke-width: 1.2000000000000002;"/><ellipse cx="339.2" cy="291.3563" fill="#FFFFFF" rx="8.8" ry="8.8" style="stroke: #000000; stroke-width: 0.8;"/><ellipse cx="339.2" cy="291.3563" fill="#000000" rx="4.8" ry="4.8" style="stroke: #7F7F7F; stroke-width: 0.8;"/><line style="stroke: #A80036; stroke-width: 1.2000000000000002;" x1="339.2" x2="339.2" y1="24" y2="40"/><polygon fill="#A80036" points="336,32,339.2,40,342.4,32,339.2,35.2" style="stroke: #A80036; stroke-width: 0.8;"/><line style="stroke: #A80036; stroke-width: 1.2000000000000002;" x1="206.4" x2="120.4" y1="119.8391" y2="119.8391"/><line style="stroke: #A80036; stroke-width: 1.2000000000000002;" x1="120.4" x2="120.4" y1="119.8391" y2="137.4391"/><polygon fill="#A80036" points="117.2,129.4391,120.4,137.4391,123.6,129.4391,120.4,132.6391" style="stroke: #A80036; stroke-width: 0.8;"/><line style="stroke: #A80036; stroke-width: 1.2000000000000002;" x1="225.6" x2="311.6" y1="119.8391" y2="119.8391"/><line style="stroke: #A80036; stroke-width: 1.2000000000000002;" x1="311.6" x2="311.6" y1="119.8391" y2="137.4391"/><polygon fill="#A80036" points="308.4,129.4391,311.6,137.4391,314.8,129.4391,311.6,132.6391" style="stroke: #A80036; stroke-width: 0.8;"/><line style="stroke: #A80036; stroke-width: 1.2000000000000002;" x1="120.4" x2="120.4" y1="175.5172" y2="189.9172"/><line style="stroke: #A80036; stroke-width: 1.2000000000000002;" x1="120.4" x2="206.4" y1="189.9172" y2="189.9172"/><polygon fill="#A80036" points="198.4,186.7172,206.4,189.9172,198.4,193.1172,201.6,189.9172" style="stroke: #A80036; stroke-width: 0.8;"/><line style="stroke: #A80036; stroke-width: 1.2000000000000002;" x1="311.6" x2="311.6" y1="175.5172" y2="189.9172"/><line style="stroke: #A80036; stroke-width: 1.2000000000000002;" x1="311.6" x2="225.6" y1="189.9172" y2="189.9172"/><polygon fill="#A80036" points="233.6,186.7172,225.6,189.9172,233.6,193.1172,230.4,189.9172" style="stroke: #A80036; stroke-width: 0.8;"/><line style="stroke: #A80036; stroke-width: 1.2000000000000002;" x1="216" x2="216" y1="199.5172" y2="215.5172"/><polygon fill="#A80036" points="212.8,207.5172,216,215.5172,219.2,207.5172,216,210.7172" style="stroke: #A80036; stroke-width: 0.8;"/><line style="stroke: #A80036; stroke-width: 1.2000000000000002;" x1="329.6" x2="216" y1="92.6391" y2="92.6391"/><line style="stroke: #A80036; stroke-width: 1.2000000000000002;" x1="216" x2="216" y1="92.6391" y2="110.2391"/><polygon fill="#A80036" points="212.8,102.2391,216,110.2391,219.2,102.2391,216,105.4391" style="stroke: #A80036; stroke-width: 0.8;"/><line style="stroke: #A80036; stroke-width: 1.2000000000000002;" x1="348.8" x2="462.4" y1="92.6391" y2="92.6391"/><line style="stroke: #A80036; stroke-width: 1.2000000000000002;" x1="462.4" x2="462.4" y1="92.6391" y2="110.2391"/><polygon fill="#A80036" points="459.2,102.2391,462.4,110.2391,465.6,102.2391,462.4,105.4391" style="stroke: #A80036; stroke-width: 0.8;"/><line style="stroke: #A80036; stroke-width: 1.2000000000000002;" x1="216" x2="216" y1="242.5563" y2="256.9563"/><line style="stroke: #A80036; stroke-width: 1.2000000000000002;" x1="216" x2="329.6" y1="256.9563" y2="256.9563"/><polygon fill="#A80036" points="321.6,253.7563,329.6,256.9563,321.6,260.1563,324.8,256.9563" style="stroke: #A80036; stroke-width: 0.8;"/><line style="stroke: #A80036; stroke-width: 1.2000000000000002;" x1="462.4" x2="462.4" y1="148.3172" y2="256.9563"/><line style="stroke: #A80036; stroke-width: 1.2000000000000002;" x1="462.4" x2="348.8" y1="256.9563" y2="256.9563"/><polygon fill="#A80036" points="356.8,253.7563,348.8,256.9563,356.8,260.1563,353.6,256.9563" style="stroke: #A80036; stroke-width: 0.8;"/><line style="stroke: #A80036; stroke-width: 1.2000000000000002;" x1="339.2" x2="339.2" y1="67.0391" y2="83.0391"/><polygon fill="#A80036" points="336,75.0391,339.2,83.0391,342.4,75.0391,339.2,78.2391" style="stroke: #A80036; stroke-width: 0.8;"/><line style="stroke: #A80036; stroke-width: 1.2000000000000002;" x1="339.2" x2="339.2" y1="266.5563" y2="282.5563"/><polygon fill="#A80036" points="336,274.5563,339.2,282.5563,342.4,274.5563,339.2,277.7563" style="stroke: #A80036; stroke-width: 0.8;"/><!--MD5=[1dbdba3c8630ebf0a9b8d09832aa8a0b]
@startuml








skinparam BackgroundColor #FFFFFFF

skinparam Shadowing false

skinparam Class {
    FontColor #FFFFFF
    BorderThickness 1
    BorderColor #FFFFFF
    StereotypeFontColor #FFFFFF
}

skinparam Actor {
    BorderColor #000000
    Color #000000
}

skinparam Sequence {
    MessageAlign center
    BoxFontSize 15
    BoxPadding 0
    BoxFontColor #FFFFFF
    SequenceBoxFontName Segoe UI
}

skinparam Participant {
    FontColor #FFFFFFF
    Padding 20
}

skinparam MinClassWidth 50
skinparam ParticipantPadding 10
skinparam Shadowing false
skinparam DefaultTextAlignment center
skinparam packageStyle Folder

skinparam DefaultFontName Arial
skinparam defaultMonospacedFontName Consolas

hide footbox
hide members
hide circle

start
:User inputs fav command;

If () then ([Command is valid format])

If () then ([Recipe index exists])
    :Marks the recipe at specified index as favourited
    :Returns success message;
else ([Recipe index does not exist])
    :Returns failure message
    (Invalid index);
endif
:LogicManager prints message to user;

else ([command is not a valid format])
    :Returns failure message
    (invalid command format);

endif

stop
@enduml

PlantUML version 1.2020.03beta6(Unknown compile time)
(GPL source distribution)
Java Runtime: OpenJDK Runtime Environment
JVM: OpenJDK 64-Bit Server VM
Java Version: 11.0.5+10-b520.17
Operating System: Windows 10
Default Encoding: Cp1252
Language: en
Country: SG
--></g></svg>