<?xml version="1.0" encoding="UTF-8" standalone="no"?><svg xmlns="http://www.w3.org/2000/svg" xmlns:xlink="http://www.w3.org/1999/xlink" contentScriptType="application/ecmascript" contentStyleType="text/css" height="433.6px" preserveAspectRatio="none" style="width:753px;height:433px;" version="1.1" viewBox="0 0 753 433" width="753.6px" zoomAndPan="magnify"><defs/><g><rect fill="#C8C8FA" height="416.1453" style="stroke: #A80036; stroke-width: 0.8;" width="630.4" x="39.2" y="3.2"/><text fill="#FFFFFF" font-family="Arial" font-size="12" font-weight="bold" lengthAdjust="spacingAndGlyphs" textLength="31.2" x="337.2" y="14.4559">Logic</text><rect fill="#F97181" height="416.1453" style="stroke: #A80036; stroke-width: 0.8;" width="73.6" x="671.2" y="3.2"/><text fill="#FFFFFF" font-family="Arial" font-size="12" font-weight="bold" lengthAdjust="spacingAndGlyphs" textLength="35.2" x="688.8" y="14.4559">Model</text><rect fill="#FFFFFF" height="339.9086" style="stroke: #A80036; stroke-width: 0.8;" width="8" x="89.6" y="69.8367"/><rect fill="#FFFFFF" height="180.7938" style="stroke: #A80036; stroke-width: 0.8;" width="8" x="220.8" y="92.9957"/><rect fill="#FFFFFF" height="24.8789" style="stroke: #A80036; stroke-width: 0.8;" width="8" x="358.4" y="112.1957"/><rect fill="#FFFFFF" height="79.1969" style="stroke: #A80036; stroke-width: 0.8;" width="8" x="358.4" y="160.2336"/><rect fill="#FFFFFF" height="36.8379" style="stroke: #A80036; stroke-width: 0.8;" width="8" x="487.2" y="179.4336"/><rect fill="#FFFFFF" height="101.5969" style="stroke: #A80036; stroke-width: 0.8;" width="8" x="487.2" y="296.9484"/><rect fill="#FFFFFF" height="24.8789" style="stroke: #A80036; stroke-width: 0.8;" width="8" x="605.6" y="350.5074"/><rect fill="#FFFFFF" height="11.2" style="stroke: #A80036; stroke-width: 0.8;" width="8" x="704" y="320.1074"/><line style="stroke: #A80036; stroke-width: 0.8; stroke-dasharray: 5.0,5.0;" x1="93.6" x2="93.6" y1="45.0777" y2="424.1453"/><line style="stroke: #A80036; stroke-width: 0.8; stroke-dasharray: 5.0,5.0;" x1="224.8" x2="224.8" y1="45.0777" y2="424.1453"/><line style="stroke: #A80036; stroke-width: 0.8; stroke-dasharray: 5.0,5.0;" x1="362.4" x2="362.4" y1="123.8352" y2="424.1453"/><line style="stroke: #A80036; stroke-width: 0.8; stroke-dasharray: 5.0,5.0;" x1="491.2" x2="491.2" y1="191.073" y2="424.1453"/><line style="stroke: #A80036; stroke-width: 0.8; stroke-dasharray: 5.0,5.0;" x1="609.6" x2="609.6" y1="362.1469" y2="424.1453"/><line style="stroke: #A80036; stroke-width: 0.8; stroke-dasharray: 5.0,5.0;" x1="708" x2="708" y1="45.0777" y2="424.1453"/><rect fill="#3333C4" height="24.0789" style="stroke: #A80036; stroke-width: 1.2000000000000002;" width="86.4" x="50.4" y="20.1988"/><text fill="#FFFFFF" font-family="Arial" font-size="11.2" lengthAdjust="spacingAndGlyphs" textLength="75.2" x="56" y="36.3043">:LogicManager</text><rect fill="#3333C4" height="24.0789" style="stroke: #A80036; stroke-width: 1.2000000000000002;" width="108.8" x="170.4" y="20.1988"/><text fill="#FFFFFF" font-family="Arial" font-size="11.2" lengthAdjust="spacingAndGlyphs" textLength="97.6" x="176" y="36.3043">:RecipeBookParser</text><rect fill="#9D0012" height="24.0789" style="stroke: #A80036; stroke-width: 1.2000000000000002;" width="51.2" x="682.4" y="20.1988"/><text fill="#FFFFFF" font-family="Arial" font-size="11.2" lengthAdjust="spacingAndGlyphs" textLength="33.6" x="691.2" y="36.3043">:Model</text><rect fill="#FFFFFF" height="339.9086" style="stroke: #A80036; stroke-width: 0.8;" width="8" x="89.6" y="69.8367"/><rect fill="#FFFFFF" height="180.7938" style="stroke: #A80036; stroke-width: 0.8;" width="8" x="220.8" y="92.9957"/><rect fill="#FFFFFF" height="24.8789" style="stroke: #A80036; stroke-width: 0.8;" width="8" x="358.4" y="112.1957"/><rect fill="#FFFFFF" height="79.1969" style="stroke: #A80036; stroke-width: 0.8;" width="8" x="358.4" y="160.2336"/><rect fill="#FFFFFF" height="36.8379" style="stroke: #A80036; stroke-width: 0.8;" width="8" x="487.2" y="179.4336"/><rect fill="#FFFFFF" height="101.5969" style="stroke: #A80036; stroke-width: 0.8;" width="8" x="487.2" y="296.9484"/><rect fill="#FFFFFF" height="24.8789" style="stroke: #A80036; stroke-width: 0.8;" width="8" x="605.6" y="350.5074"/><rect fill="#FFFFFF" height="11.2" style="stroke: #A80036; stroke-width: 0.8;" width="8" x="704" y="320.1074"/><polygon fill="#A80036" points="80,66.6367,88,69.8367,80,73.0367,83.2,69.8367" style="stroke: #A80036; stroke-width: 0.8;"/><line style="stroke: #A80036; stroke-width: 0.8;" x1="2.4" x2="84.8" y1="69.8367" y2="69.8367"/><text fill="#000000" font-family="Arial" font-size="10.4" lengthAdjust="spacingAndGlyphs" textLength="72" x="10" y="66.0328">execute("fav 1")</text><polygon fill="#A80036" points="211.2,89.7957,219.2,92.9957,211.2,96.1957,214.4,92.9957" style="stroke: #A80036; stroke-width: 0.8;"/><line style="stroke: #A80036; stroke-width: 0.8;" x1="97.6" x2="216" y1="92.9957" y2="92.9957"/><text fill="#000000" font-family="Arial" font-size="10.4" lengthAdjust="spacingAndGlyphs" textLength="108" x="105.2" y="89.1918">parseCommand("fav 1")</text><polygon fill="#A80036" points="293.6,100.9957,301.6,104.1957,293.6,107.3957,296.8,104.1957" style="stroke: #A80036; stroke-width: 0.8;"/><line style="stroke: #A80036; stroke-width: 0.8;" x1="228.8" x2="298.4" y1="104.1957" y2="104.1957"/><rect fill="#3333C4" height="24.0789" style="stroke: #A80036; stroke-width: 1.2000000000000002;" width="118.4" x="303.2" y="99.3957"/><text fill="#FFFFFF" font-family="Arial" font-size="11.2" lengthAdjust="spacingAndGlyphs" textLength="107.2" x="308.8" y="115.5012">:FavCommandParser</text><polygon fill="#A80036" points="237.6,133.8746,229.6,137.0746,237.6,140.2746,234.4,137.0746" style="stroke: #A80036; stroke-width: 0.8;"/><line style="stroke: #A80036; stroke-width: 0.8; stroke-dasharray: 2.0,2.0;" x1="232.8" x2="361.6" y1="137.0746" y2="137.0746"/><polygon fill="#A80036" points="348.8,157.0336,356.8,160.2336,348.8,163.4336,352,160.2336" style="stroke: #A80036; stroke-width: 0.8;"/><line style="stroke: #A80036; stroke-width: 0.8;" x1="228.8" x2="353.6" y1="160.2336" y2="160.2336"/><text fill="#000000" font-family="Arial" font-size="10.4" lengthAdjust="spacingAndGlyphs" textLength="45.6" x="270.8" y="156.4297">parse("1")</text><polygon fill="#A80036" points="436,168.2336,444,171.4336,436,174.6336,439.2,171.4336" style="stroke: #A80036; stroke-width: 0.8;"/><line style="stroke: #A80036; stroke-width: 0.8;" x1="366.4" x2="440.8" y1="171.4336" y2="171.4336"/><rect fill="#3333C4" height="24.0789" style="stroke: #A80036; stroke-width: 1.2000000000000002;" width="91.2" x="445.6" y="166.6336"/><text fill="#FFFFFF" font-family="Arial" font-size="11.2" lengthAdjust="spacingAndGlyphs" textLength="80" x="451.2" y="182.7391">d:FavCommand</text><polygon fill="#A80036" points="375.2,213.0715,367.2,216.2715,375.2,219.4715,372,216.2715" style="stroke: #A80036; stroke-width: 0.8;"/><line style="stroke: #A80036; stroke-width: 0.8; stroke-dasharray: 2.0,2.0;" x1="370.4" x2="490.4" y1="216.2715" y2="216.2715"/><text fill="#000000" font-family="Arial" font-size="10.4" lengthAdjust="spacingAndGlyphs" textLength="5.6" x="426" y="212.4676">d</text><polygon fill="#A80036" points="237.6,236.2305,229.6,239.4305,237.6,242.6305,234.4,239.4305" style="stroke: #A80036; stroke-width: 0.8;"/><line style="stroke: #A80036; stroke-width: 0.8; stroke-dasharray: 2.0,2.0;" x1="232.8" x2="361.6" y1="239.4305" y2="239.4305"/><text fill="#000000" font-family="Arial" font-size="10.4" lengthAdjust="spacingAndGlyphs" textLength="5.6" x="292.8" y="235.6266">d</text><line style="stroke: #A80036; stroke-width: 1.6;" x1="355.2" x2="369.6" y1="243.4305" y2="257.8305"/><line style="stroke: #A80036; stroke-width: 1.6;" x1="355.2" x2="369.6" y1="257.8305" y2="243.4305"/><polygon fill="#A80036" points="106.4,270.5895,98.4,273.7895,106.4,276.9895,103.2,273.7895" style="stroke: #A80036; stroke-width: 0.8;"/><line style="stroke: #A80036; stroke-width: 0.8; stroke-dasharray: 2.0,2.0;" x1="101.6" x2="224" y1="273.7895" y2="273.7895"/><text fill="#000000" font-family="Arial" font-size="10.4" lengthAdjust="spacingAndGlyphs" textLength="5.6" x="158.4" y="269.9855">d</text><polygon fill="#A80036" points="477.6,293.7484,485.6,296.9484,477.6,300.1484,480.8,296.9484" style="stroke: #A80036; stroke-width: 0.8;"/><line style="stroke: #A80036; stroke-width: 0.8;" x1="97.6" x2="482.4" y1="296.9484" y2="296.9484"/><text fill="#000000" font-family="Arial" font-size="10.4" lengthAdjust="spacingAndGlyphs" textLength="43.2" x="270.8" y="293.1445">execute()</text><polygon fill="#A80036" points="694.4,316.9074,702.4,320.1074,694.4,323.3074,697.6,320.1074" style="stroke: #A80036; stroke-width: 0.8;"/><line style="stroke: #A80036; stroke-width: 0.8;" x1="495.2" x2="699.2" y1="320.1074" y2="320.1074"/><text fill="#000000" font-family="Arial" font-size="10.4" lengthAdjust="spacingAndGlyphs" textLength="53.6" x="572.8" y="316.3035">favRecipe(r)</text><polygon fill="#A80036" points="504,328.1074,496,331.3074,504,334.5074,500.8,331.3074" style="stroke: #A80036; stroke-width: 0.8;"/><line style="stroke: #A80036; stroke-width: 0.8; stroke-dasharray: 2.0,2.0;" x1="499.2" x2="707.2" y1="331.3074" y2="331.3074"/><polygon fill="#A80036" points="551.2,339.3074,559.2,342.5074,551.2,345.7074,554.4,342.5074" style="stroke: #A80036; stroke-width: 0.8;"/><line style="stroke: #A80036; stroke-width: 0.8;" x1="495.2" x2="556" y1="342.5074" y2="342.5074"/><rect fill="#3333C4" height="24.0789" style="stroke: #A80036; stroke-width: 1.2000000000000002;" width="97.6" x="560.8" y="337.7074"/><text fill="#FFFFFF" font-family="Arial" font-size="11.2" lengthAdjust="spacingAndGlyphs" textLength="86.4" x="566.4" y="353.8129">:CommandResult</text><polygon fill="#A80036" points="504,372.1863,496,375.3863,504,378.5863,500.8,375.3863" style="stroke: #A80036; stroke-width: 0.8;"/><line style="stroke: #A80036; stroke-width: 0.8; stroke-dasharray: 2.0,2.0;" x1="499.2" x2="608.8" y1="375.3863" y2="375.3863"/><polygon fill="#A80036" points="106.4,395.3453,98.4,398.5453,106.4,401.7453,103.2,398.5453" style="stroke: #A80036; stroke-width: 0.8;"/><line style="stroke: #A80036; stroke-width: 0.8; stroke-dasharray: 2.0,2.0;" x1="101.6" x2="490.4" y1="398.5453" y2="398.5453"/><text fill="#000000" font-family="Arial" font-size="10.4" lengthAdjust="spacingAndGlyphs" textLength="25.6" x="281.6" y="394.7414">result</text><polygon fill="#A80036" points="11.2,406.5453,3.2,409.7453,11.2,412.9453,8,409.7453" style="stroke: #A80036; stroke-width: 0.8;"/><line style="stroke: #A80036; stroke-width: 0.8; stroke-dasharray: 2.0,2.0;" x1="6.4" x2="92.8" y1="409.7453" y2="409.7453"/><!--MD5=[f8f8937887717c33948303b5ef78dffb]
@startuml FavSequenceDiagram








skinparam BackgroundColor #FFFFFFF

skinparam Shadowing false

skinparam Class {
    FontColor #FFFFFF
    BorderThickness 1
    BorderColor #FFFFFF
    StereotypeFontColor #FFFFFF
}

skinparam Actor {
    BorderColor #000000
    Color #000000
}

skinparam Sequence {
    MessageAlign center
    BoxFontSize 15
    BoxPadding 0
    BoxFontColor #FFFFFF
    SequenceBoxFontName Segoe UI
}

skinparam Participant {
    FontColor #FFFFFFF
    Padding 20
}

skinparam MinClassWidth 50
skinparam ParticipantPadding 10
skinparam Shadowing false
skinparam DefaultTextAlignment center
skinparam packageStyle Folder

skinparam DefaultFontName Arial
skinparam defaultMonospacedFontName Consolas

hide footbox
hide members
hide circle

box Logic #C8C8FA
participant ":LogicManager" as LogicManager #3333C4
participant ":RecipeBookParser" as RecipeBookParser #3333C4
participant ":FavCommandParser" as FavCommandParser #3333C4
participant "d:FavCommand" as FavCommand #3333C4
participant ":CommandResult" as CommandResult #3333C4
end box

box Model #F97181
participant ":Model" as Model #9D0012
end box


[-> LogicManager : execute("fav 1")
activate LogicManager

LogicManager -> RecipeBookParser : parseCommand("fav 1")
activate RecipeBookParser

create FavCommandParser
RecipeBookParser -> FavCommandParser
activate FavCommandParser

FavCommandParser - -> RecipeBookParser
deactivate FavCommandParser

RecipeBookParser -> FavCommandParser : parse("1")
activate FavCommandParser

create FavCommand
FavCommandParser -> FavCommand
activate FavCommand

FavCommand - -> FavCommandParser : d

deactivate FavCommand

FavCommandParser - -> RecipeBookParser : d
deactivate FavCommandParser
FavCommandParser -[hidden]-> RecipeBookParser
destroy FavCommandParser

RecipeBookParser - -> LogicManager : d
deactivate RecipeBookParser

LogicManager -> FavCommand : execute()
activate FavCommand

FavCommand -> Model : favRecipe(r)
activate Model

Model - -> FavCommand
deactivate Model

create CommandResult
FavCommand -> CommandResult
activate CommandResult

CommandResult - -> FavCommand
deactivate CommandResult

FavCommand - -> LogicManager : result
deactivate FavCommand

[<- -LogicManager
deactivate LogicManager
@enduml

PlantUML version 1.2020.03beta6(Unknown compile time)
(GPL source distribution)
Java Runtime: OpenJDK Runtime Environment
JVM: OpenJDK 64-Bit Server VM
Java Version: 11.0.5+10-b520.17
Operating System: Windows 10
Default Encoding: Cp1252
Language: en
Country: SG
--></g></svg>
