<?xml version="1.0" encoding="UTF-8" standalone="no"?><svg xmlns="http://www.w3.org/2000/svg" xmlns:xlink="http://www.w3.org/1999/xlink" contentScriptType="application/ecmascript" contentStyleType="text/css" height="528px" preserveAspectRatio="none" style="width:1099px;height:528px;" version="1.1" viewBox="0 0 1099 528" width="1099px" zoomAndPan="magnify"><defs/><g><rect fill="#C8C8FA" height="506.1816" style="stroke: #A80036; stroke-width: 1.0;" width="811" x="85" y="4"/><text fill="#FFFFFF" font-family="Arial" font-size="15" font-weight="bold" lengthAdjust="spacingAndGlyphs" textLength="39" x="469" y="18.0698">Logic</text><rect fill="#E41F36" height="506.1816" style="stroke: #A80036; stroke-width: 1.0;" width="92" x="898" y="4"/><text fill="#FFFFFF" font-family="Arial" font-size="15" font-weight="bold" lengthAdjust="spacingAndGlyphs" textLength="44" x="920" y="18.0698">Model</text><rect fill="#F97181" height="506.1816" style="stroke: #A80036; stroke-width: 1.0;" width="96" x="992" y="4"/><text fill="#FFFFFF" font-family="Arial" font-size="15" font-weight="bold" lengthAdjust="spacingAndGlyphs" textLength="56" x="1010" y="18.0698">Storage</text><rect fill="#FFFFFF" height="419.8857" style="stroke: #A80036; stroke-width: 1.0;" width="10" x="148" y="87.2959"/><rect fill="#FFFFFF" height="112.9961" style="stroke: #A80036; stroke-width: 1.0;" width="10" x="306" y="116.2446"/><rect fill="#FFFFFF" height="31.0986" style="stroke: #A80036; stroke-width: 1.0;" width="10" x="509" y="155.1934"/><rect fill="#FFFFFF" height="144.0947" style="stroke: #A80036; stroke-width: 1.0;" width="10" x="670" y="268.1895"/><rect fill="#FFFFFF" height="46.0474" style="stroke: #A80036; stroke-width: 1.0;" width="10" x="816" y="337.2881"/><rect fill="#FFFFFF" height="14" style="stroke: #A80036; stroke-width: 1.0;" width="10" x="939" y="299.2881"/><rect fill="#FFFFFF" height="14" style="stroke: #A80036; stroke-width: 1.0;" width="10" x="1035" y="455.2329"/><line style="stroke: #A80036; stroke-width: 1.0; stroke-dasharray: 5.0,5.0;" x1="153" x2="153" y1="56.3472" y2="516.1816"/><line style="stroke: #A80036; stroke-width: 1.0; stroke-dasharray: 5.0,5.0;" x1="311" x2="311" y1="56.3472" y2="516.1816"/><line style="stroke: #A80036; stroke-width: 1.0; stroke-dasharray: 5.0,5.0;" x1="514" x2="514" y1="154.7939" y2="516.1816"/><line style="stroke: #A80036; stroke-width: 1.0; stroke-dasharray: 5.0,5.0;" x1="675" x2="675" y1="267.79" y2="516.1816"/><line style="stroke: #A80036; stroke-width: 1.0; stroke-dasharray: 5.0,5.0;" x1="821" x2="821" y1="351.8374" y2="516.1816"/><line style="stroke: #A80036; stroke-width: 1.0; stroke-dasharray: 5.0,5.0;" x1="944" x2="944" y1="56.3472" y2="516.1816"/><line style="stroke: #A80036; stroke-width: 1.0; stroke-dasharray: 5.0,5.0;" x1="1040" x2="1040" y1="56.3472" y2="516.1816"/><rect fill="#3333C4" height="30.0986" style="stroke: #A80036; stroke-width: 1.5;" width="108" x="99" y="25.2485"/><text fill="#FFFFFF" font-family="Arial" font-size="14" lengthAdjust="spacingAndGlyphs" textLength="94" x="106" y="45.3804">:LogicManager</text><rect fill="#3333C4" height="30.0986" style="stroke: #A80036; stroke-width: 1.5;" width="136" x="243" y="25.2485"/><text fill="#FFFFFF" font-family="Arial" font-size="14" lengthAdjust="spacingAndGlyphs" textLength="122" x="250" y="45.3804">:RecipeBookParser</text><rect fill="#9D0012" height="30.0986" style="stroke: #A80036; stroke-width: 1.5;" width="64" x="912" y="25.2485"/><text fill="#FFFFFF" font-family="Arial" font-size="14" lengthAdjust="spacingAndGlyphs" textLength="42" x="923" y="45.3804">:Model</text><rect fill="#A38300" height="30.0986" style="stroke: #A80036; stroke-width: 1.5;" width="68" x="1006" y="25.2485"/><text fill="#FFFFFF" font-family="Arial" font-size="14" lengthAdjust="spacingAndGlyphs" textLength="54" x="1013" y="45.3804">:Storage</text><rect fill="#FFFFFF" height="419.8857" style="stroke: #A80036; stroke-width: 1.0;" width="10" x="148" y="87.2959"/><rect fill="#FFFFFF" height="112.9961" style="stroke: #A80036; stroke-width: 1.0;" width="10" x="306" y="116.2446"/><rect fill="#FFFFFF" height="31.0986" style="stroke: #A80036; stroke-width: 1.0;" width="10" x="509" y="155.1934"/><rect fill="#FFFFFF" height="144.0947" style="stroke: #A80036; stroke-width: 1.0;" width="10" x="670" y="268.1895"/><rect fill="#FFFFFF" height="46.0474" style="stroke: #A80036; stroke-width: 1.0;" width="10" x="816" y="337.2881"/><rect fill="#FFFFFF" height="14" style="stroke: #A80036; stroke-width: 1.0;" width="10" x="939" y="299.2881"/><rect fill="#FFFFFF" height="14" style="stroke: #A80036; stroke-width: 1.0;" width="10" x="1035" y="455.2329"/><polygon fill="#A80036" points="136,83.2959,146,87.2959,136,91.2959,140,87.2959" style="stroke: #A80036; stroke-width: 1.0;"/><line style="stroke: #A80036; stroke-width: 1.0;" x1="3" x2="142" y1="87.2959" y2="87.2959"/><text fill="#000000" font-family="Arial" font-size="13" lengthAdjust="spacingAndGlyphs" textLength="126" x="12.5" y="82.541">execute("find n/Ham")</text><polygon fill="#A80036" points="294,112.2446,304,116.2446,294,120.2446,298,116.2446" style="stroke: #A80036; stroke-width: 1.0;"/><line style="stroke: #A80036; stroke-width: 1.0;" x1="158" x2="300" y1="116.2446" y2="116.2446"/><text fill="#000000" font-family="Arial" font-size="13" lengthAdjust="spacingAndGlyphs" textLength="129" x="167.5" y="111.4897">parseCommand("find")</text><polygon fill="#A80036" points="426,141.1934,436,145.1934,426,149.1934,430,145.1934" style="stroke: #A80036; stroke-width: 1.0;"/><line style="stroke: #A80036; stroke-width: 1.0;" x1="316" x2="432" y1="145.1934" y2="145.1934"/><text fill="#000000" font-family="Arial" font-size="13" lengthAdjust="spacingAndGlyphs" textLength="88" x="333" y="140.4385">parse("n/Ham")</text><rect fill="#3333C4" height="30.0986" style="stroke: #A80036; stroke-width: 1.5;" width="152" x="438" y="124.2446"/><text fill="#FFFFFF" font-family="Arial" font-size="14" lengthAdjust="spacingAndGlyphs" textLength="138" x="445" y="144.3765">:FindCommandParser</text><polygon fill="#A80036" points="327,182.292,317,186.292,327,190.292,323,186.292" style="stroke: #A80036; stroke-width: 1.0;"/><line style="stroke: #A80036; stroke-width: 1.0; stroke-dasharray: 2.0,2.0;" x1="321" x2="513" y1="186.292" y2="186.292"/><text fill="#000000" font-family="Arial" font-size="13" lengthAdjust="spacingAndGlyphs" textLength="59" x="385.5" y="181.5371">Command</text><line style="stroke: #A80036; stroke-width: 2.0;" x1="505" x2="523" y1="191.292" y2="209.292"/><line style="stroke: #A80036; stroke-width: 2.0;" x1="505" x2="523" y1="209.292" y2="191.292"/><polygon fill="#A80036" points="169,225.2407,159,229.2407,169,233.2407,165,229.2407" style="stroke: #A80036; stroke-width: 1.0;"/><line style="stroke: #A80036; stroke-width: 1.0; stroke-dasharray: 2.0,2.0;" x1="163" x2="310" y1="229.2407" y2="229.2407"/><text fill="#000000" font-family="Arial" font-size="13" lengthAdjust="spacingAndGlyphs" textLength="59" x="205" y="224.4858">Command</text><polygon fill="#A80036" points="608,254.1895,618,258.1895,608,262.1895,612,258.1895" style="stroke: #A80036; stroke-width: 1.0;"/><line style="stroke: #A80036; stroke-width: 1.0;" x1="158" x2="614" y1="258.1895" y2="258.1895"/><text fill="#000000" font-family="Arial" font-size="13" lengthAdjust="spacingAndGlyphs" textLength="54" x="362" y="253.4346">execute()</text><rect fill="#3333C4" height="30.0986" style="stroke: #A80036; stroke-width: 1.5;" width="110" x="620" y="237.2407"/><text fill="#FFFFFF" font-family="Arial" font-size="14" lengthAdjust="spacingAndGlyphs" textLength="96" x="627" y="257.3726">:FindCommand</text><polygon fill="#A80036" points="927,295.2881,937,299.2881,927,303.2881,931,299.2881" style="stroke: #A80036; stroke-width: 1.0;"/><line style="stroke: #A80036; stroke-width: 1.0;" x1="680" x2="933" y1="299.2881" y2="299.2881"/><text fill="#000000" font-family="Arial" font-size="13" lengthAdjust="spacingAndGlyphs" textLength="151" x="734" y="294.5332">updateFilteredRecipeList()</text><polygon fill="#A80036" points="691,309.2881,681,313.2881,691,317.2881,687,313.2881" style="stroke: #A80036; stroke-width: 1.0;"/><line style="stroke: #A80036; stroke-width: 1.0; stroke-dasharray: 2.0,2.0;" x1="685" x2="943" y1="313.2881" y2="313.2881"/><polygon fill="#A80036" points="748,323.2881,758,327.2881,748,331.2881,752,327.2881" style="stroke: #A80036; stroke-width: 1.0;"/><line style="stroke: #A80036; stroke-width: 1.0;" x1="680" x2="754" y1="327.2881" y2="327.2881"/><rect fill="#3333C4" height="30.0986" style="stroke: #A80036; stroke-width: 1.5;" width="122" x="760" y="321.2881"/><text fill="#FFFFFF" font-family="Arial" font-size="14" lengthAdjust="spacingAndGlyphs" textLength="108" x="767" y="341.4199">:CommandResult</text><polygon fill="#A80036" points="691,379.3354,681,383.3354,691,387.3354,687,383.3354" style="stroke: #A80036; stroke-width: 1.0;"/><line style="stroke: #A80036; stroke-width: 1.0; stroke-dasharray: 2.0,2.0;" x1="685" x2="820" y1="383.3354" y2="383.3354"/><text fill="#000000" font-family="Arial" font-size="13" lengthAdjust="spacingAndGlyphs" textLength="32" x="734.5" y="378.5806">result</text><polygon fill="#A80036" points="169,408.2842,159,412.2842,169,416.2842,165,412.2842" style="stroke: #A80036; stroke-width: 1.0;"/><line style="stroke: #A80036; stroke-width: 1.0; stroke-dasharray: 2.0,2.0;" x1="163" x2="674" y1="412.2842" y2="412.2842"/><text fill="#000000" font-family="Arial" font-size="13" lengthAdjust="spacingAndGlyphs" textLength="32" x="400.5" y="407.5293">result</text><line style="stroke: #A80036; stroke-width: 2.0;" x1="666" x2="684" y1="417.2842" y2="435.2842"/><line style="stroke: #A80036; stroke-width: 2.0;" x1="666" x2="684" y1="435.2842" y2="417.2842"/><polygon fill="#A80036" points="1023,451.2329,1033,455.2329,1023,459.2329,1027,455.2329" style="stroke: #A80036; stroke-width: 1.0;"/><line style="stroke: #A80036; stroke-width: 1.0;" x1="158" x2="1029" y1="455.2329" y2="455.2329"/><text fill="#000000" font-family="Arial" font-size="13" lengthAdjust="spacingAndGlyphs" textLength="169" x="512" y="450.478">saveRecipeBook(recipeBook)</text><polygon fill="#A80036" points="169,465.2329,159,469.2329,169,473.2329,165,469.2329" style="stroke: #A80036; stroke-width: 1.0;"/><line style="stroke: #A80036; stroke-width: 1.0; stroke-dasharray: 2.0,2.0;" x1="163" x2="1039" y1="469.2329" y2="469.2329"/><polygon fill="#A80036" points="14,494.1816,4,498.1816,14,502.1816,10,498.1816" style="stroke: #A80036; stroke-width: 1.0;"/><line style="stroke: #A80036; stroke-width: 1.0; stroke-dasharray: 2.0,2.0;" x1="8" x2="147" y1="498.1816" y2="498.1816"/><text fill="#000000" font-family="Arial" font-size="13" lengthAdjust="spacingAndGlyphs" textLength="32" x="59.5" y="493.4268">result</text><!--MD5=[ebe7becc62e1ebb0ca52d589202cde0a]
@startuml FindSequenceDiagram








skinparam BackgroundColor #FFFFFFF

skinparam Shadowing false

skinparam Class {
    FontColor #FFFFFF
    BorderThickness 1
    BorderColor #FFFFFF
    StereotypeFontColor #FFFFFF
}

skinparam Actor {
    BorderColor #000000
    Color #000000
}

skinparam Sequence {
    MessageAlign center
    BoxFontSize 15
    BoxPadding 0
    BoxFontColor #FFFFFF
    SequenceBoxFontName Segoe UI
}

skinparam Participant {
    FontColor #FFFFFFF
    Padding 20
}

skinparam MinClassWidth 50
skinparam ParticipantPadding 10
skinparam Shadowing false
skinparam DefaultTextAlignment center
skinparam packageStyle Folder

skinparam DefaultFontName Arial
skinparam defaultMonospacedFontName Consolas

hide footbox
hide members
hide circle

box Logic #C8C8FA
participant ":LogicManager" as LogicManager #3333C4
participant ":RecipeBookParser" as RecipeBookParser #3333C4
participant ":FindCommandParser" as FindCommandParser #3333C4
participant ":FindCommand" as FindCommand #3333C4
participant ":CommandResult" as CommandResult #3333C4
end box

box Model #E41F36
participant ":Model" as Model #9D0012
end box

box Storage #F97181
participant ":Storage" as Storage #A38300
end box

[-> LogicManager : execute("find n/Ham")
activate LogicManager

LogicManager -> RecipeBookParser : parseCommand("find")
activate RecipeBookParser

create FindCommandParser
RecipeBookParser -> FindCommandParser : parse("n/Ham")
activate FindCommandParser

FindCommandParser - -> RecipeBookParser : Command
deactivate FindCommandParser
[<-[hidden]-FindCommandParser
destroy FindCommandParser

RecipeBookParser - -> LogicManager : Command
deactivate RecipeBookParser

create FindCommand
LogicManager -> FindCommand : execute()
activate FindCommand

FindCommand -> Model : updateFilteredRecipeList()
activate Model

Model - -> FindCommand
deactivate Model

create CommandResult
FindCommand -> CommandResult
activate CommandResult

CommandResult - -> FindCommand : result
deactivate CommandResult

FindCommand - -> LogicManager : result
deactivate FindCommand
[<-[hidden]-FindCommand
destroy FindCommand

LogicManager -> Storage : saveRecipeBook(recipeBook)
activate Storage

Storage - -> LogicManager
deactivate Storage

[<- -LogicManager : result
@enduml

PlantUML version 1.2020.03beta6(Unknown compile time)
(GPL source distribution)
Java Runtime: OpenJDK Runtime Environment
JVM: OpenJDK 64-Bit Server VM
Java Version: 11.0.6+8-b770.9
Operating System: Windows 10
Default Encoding: Cp1252
Language: en
Country: SG
--></g></svg>
