<?xml version="1.0" encoding="UTF-8" standalone="no"?><svg xmlns="http://www.w3.org/2000/svg" xmlns:xlink="http://www.w3.org/1999/xlink" contentScriptType="application/ecmascript" contentStyleType="text/css" height="533px" preserveAspectRatio="none" style="width:967px;height:533px;" version="1.1" viewBox="0 0 967 533" width="967px" zoomAndPan="magnify"><defs/><g><ellipse cx="540.5" cy="20" fill="#000000" rx="10" ry="10" style="stroke: none; stroke-width: 1.0;"/><rect fill="#FEFECE" height="33.7988" rx="12.5" ry="12.5" style="stroke: #A80036; stroke-width: 1.5;" width="115" x="483" y="50"/><text fill="#000000" font-family="Arial" font-size="12" lengthAdjust="spacingAndGlyphs" textLength="95" x="493" y="71.2559">User enters input</text><rect fill="#FEFECE" height="33.7988" rx="12.5" ry="12.5" style="stroke: #A80036; stroke-width: 1.5;" width="111" x="485" y="103.7988"/><text fill="#000000" font-family="Arial" font-size="12" lengthAdjust="spacingAndGlyphs" textLength="91" x="495" y="125.0547">Parse user input</text><polygon fill="#FEFECE" points="540.5,157.5977,540.5,157.5977,552.5,169.5977,540.5,181.5977,540.5,181.5977,528.5,169.5977,540.5,157.5977" style="stroke: #A80036; stroke-width: 1.5;"/><text fill="#000000" font-family="Arial" font-size="11" lengthAdjust="spacingAndGlyphs" textLength="136" x="392.5" y="167.2666">[input contains only 1 prefix]</text><text fill="#000000" font-family="Arial" font-size="11" lengthAdjust="spacingAndGlyphs" textLength="26" x="552.5" y="167.2666">[else]</text><rect fill="#FEFECE" height="33.7988" rx="12.5" ry="12.5" style="stroke: #A80036; stroke-width: 1.5;" width="242" x="180" y="191.5977"/><text fill="#000000" font-family="Arial" font-size="12" lengthAdjust="spacingAndGlyphs" textLength="222" x="190" y="212.8535">Break search string into single keywords</text><polygon fill="#FEFECE" points="301,245.3965,301,245.3965,313,257.3965,301,269.3965,301,269.3965,289,257.3965,301,245.3965" style="stroke: #A80036; stroke-width: 1.5;"/><text fill="#000000" font-family="Arial" font-size="11" lengthAdjust="spacingAndGlyphs" textLength="81" x="208" y="255.0654">[keywords exist]</text><text fill="#000000" font-family="Arial" font-size="11" lengthAdjust="spacingAndGlyphs" textLength="26" x="313" y="255.0654">[else]</text><rect fill="#FEFECE" height="33.7988" rx="12.5" ry="12.5" style="stroke: #A80036; stroke-width: 1.5;" width="290" x="10" y="279.3965"/><text fill="#000000" font-family="Arial" font-size="12" lengthAdjust="spacingAndGlyphs" textLength="270" x="20" y="300.6523">Filter recipe book for recipes containing keywords</text><rect fill="#FEFECE" height="33.7988" rx="12.5" ry="12.5" style="stroke: #A80036; stroke-width: 1.5;" width="187" x="61.5" y="333.1953"/><text fill="#000000" font-family="Arial" font-size="12" lengthAdjust="spacingAndGlyphs" textLength="167" x="71.5" y="354.4512">Update GUI with recipes found</text><rect fill="#FEFECE" height="33.7988" rx="12.5" ry="12.5" style="stroke: #A80036; stroke-width: 1.5;" width="254" x="320" y="279.3965"/><text fill="#000000" font-family="Arial" font-size="12" lengthAdjust="spacingAndGlyphs" textLength="234" x="330" y="300.6523">Throw "invalid search term" error message</text><polygon fill="#FEFECE" points="301,372.9941,313,384.9941,301,396.9941,289,384.9941,301,372.9941" style="stroke: #A80036; stroke-width: 1.5;"/><rect fill="#FEFECE" height="33.7988" rx="12.5" ry="12.5" style="stroke: #A80036; stroke-width: 1.5;" width="352" x="604" y="191.5977"/><text fill="#000000" font-family="Arial" font-size="12" lengthAdjust="spacingAndGlyphs" textLength="332" x="614" y="212.8535">Throw "incorrect number of prefixes detected" error message</text><polygon fill="#FEFECE" points="540.5,402.9941,552.5,414.9941,540.5,426.9941,528.5,414.9941,540.5,402.9941" style="stroke: #A80036; stroke-width: 1.5;"/><rect fill="#FEFECE" height="33.7988" rx="12.5" ry="12.5" style="stroke: #A80036; stroke-width: 1.5;" width="143" x="469" y="446.9941"/><text fill="#000000" font-family="Arial" font-size="12" lengthAdjust="spacingAndGlyphs" textLength="123" x="479" y="468.25">Display results to user</text><ellipse cx="540.5" cy="511.793" fill="#FFFFFF" rx="11" ry="11" style="stroke: #000000; stroke-width: 1.0;"/><ellipse cx="540.5" cy="511.793" fill="#000000" rx="6" ry="6" style="stroke: #7F7F7F; stroke-width: 1.0;"/><line style="stroke: #A80036; stroke-width: 1.5;" x1="540.5" x2="540.5" y1="30" y2="50"/><polygon fill="#A80036" points="536.5,40,540.5,50,544.5,40,540.5,44" style="stroke: #A80036; stroke-width: 1.0;"/><line style="stroke: #A80036; stroke-width: 1.5;" x1="540.5" x2="540.5" y1="83.7988" y2="103.7988"/><polygon fill="#A80036" points="536.5,93.7988,540.5,103.7988,544.5,93.7988,540.5,97.7988" style="stroke: #A80036; stroke-width: 1.0;"/><line style="stroke: #A80036; stroke-width: 1.5;" x1="155" x2="155" y1="313.1953" y2="333.1953"/><polygon fill="#A80036" points="151,323.1953,155,333.1953,159,323.1953,155,327.1953" style="stroke: #A80036; stroke-width: 1.0;"/><line style="stroke: #A80036; stroke-width: 1.5;" x1="289" x2="155" y1="257.3965" y2="257.3965"/><line style="stroke: #A80036; stroke-width: 1.5;" x1="155" x2="155" y1="257.3965" y2="279.3965"/><polygon fill="#A80036" points="151,269.3965,155,279.3965,159,269.3965,155,273.3965" style="stroke: #A80036; stroke-width: 1.0;"/><line style="stroke: #A80036; stroke-width: 1.5;" x1="313" x2="447" y1="257.3965" y2="257.3965"/><line style="stroke: #A80036; stroke-width: 1.5;" x1="447" x2="447" y1="257.3965" y2="279.3965"/><polygon fill="#A80036" points="443,269.3965,447,279.3965,451,269.3965,447,273.3965" style="stroke: #A80036; stroke-width: 1.0;"/><line style="stroke: #A80036; stroke-width: 1.5;" x1="155" x2="155" y1="366.9941" y2="384.9941"/><line style="stroke: #A80036; stroke-width: 1.5;" x1="155" x2="289" y1="384.9941" y2="384.9941"/><polygon fill="#A80036" points="279,380.9941,289,384.9941,279,388.9941,283,384.9941" style="stroke: #A80036; stroke-width: 1.0;"/><line style="stroke: #A80036; stroke-width: 1.5;" x1="447" x2="447" y1="313.1953" y2="384.9941"/><line style="stroke: #A80036; stroke-width: 1.5;" x1="447" x2="313" y1="384.9941" y2="384.9941"/><polygon fill="#A80036" points="323,380.9941,313,384.9941,323,388.9941,319,384.9941" style="stroke: #A80036; stroke-width: 1.0;"/><line style="stroke: #A80036; stroke-width: 1.5;" x1="301" x2="301" y1="225.3965" y2="245.3965"/><polygon fill="#A80036" points="297,235.3965,301,245.3965,305,235.3965,301,239.3965" style="stroke: #A80036; stroke-width: 1.0;"/><line style="stroke: #A80036; stroke-width: 1.5;" x1="528.5" x2="301" y1="169.5977" y2="169.5977"/><line style="stroke: #A80036; stroke-width: 1.5;" x1="301" x2="301" y1="169.5977" y2="191.5977"/><polygon fill="#A80036" points="297,181.5977,301,191.5977,305,181.5977,301,185.5977" style="stroke: #A80036; stroke-width: 1.0;"/><line style="stroke: #A80036; stroke-width: 1.5;" x1="552.5" x2="780" y1="169.5977" y2="169.5977"/><line style="stroke: #A80036; stroke-width: 1.5;" x1="780" x2="780" y1="169.5977" y2="191.5977"/><polygon fill="#A80036" points="776,181.5977,780,191.5977,784,181.5977,780,185.5977" style="stroke: #A80036; stroke-width: 1.0;"/><line style="stroke: #A80036; stroke-width: 1.5;" x1="301" x2="301" y1="396.9941" y2="414.9941"/><line style="stroke: #A80036; stroke-width: 1.5;" x1="301" x2="528.5" y1="414.9941" y2="414.9941"/><polygon fill="#A80036" points="518.5,410.9941,528.5,414.9941,518.5,418.9941,522.5,414.9941" style="stroke: #A80036; stroke-width: 1.0;"/><line style="stroke: #A80036; stroke-width: 1.5;" x1="780" x2="780" y1="225.3965" y2="414.9941"/><line style="stroke: #A80036; stroke-width: 1.5;" x1="780" x2="552.5" y1="414.9941" y2="414.9941"/><polygon fill="#A80036" points="562.5,410.9941,552.5,414.9941,562.5,418.9941,558.5,414.9941" style="stroke: #A80036; stroke-width: 1.0;"/><line style="stroke: #A80036; stroke-width: 1.5;" x1="540.5" x2="540.5" y1="137.5977" y2="157.5977"/><polygon fill="#A80036" points="536.5,147.5977,540.5,157.5977,544.5,147.5977,540.5,151.5977" style="stroke: #A80036; stroke-width: 1.0;"/><line style="stroke: #A80036; stroke-width: 1.5;" x1="540.5" x2="540.5" y1="426.9941" y2="446.9941"/><polygon fill="#A80036" points="536.5,436.9941,540.5,446.9941,544.5,436.9941,540.5,440.9941" style="stroke: #A80036; stroke-width: 1.0;"/><line style="stroke: #A80036; stroke-width: 1.5;" x1="540.5" x2="540.5" y1="480.793" y2="500.793"/><polygon fill="#A80036" points="536.5,490.793,540.5,500.793,544.5,490.793,540.5,494.793" style="stroke: #A80036; stroke-width: 1.0;"/><!--MD5=[3c16d5b2f1397e4d9b30b6fbe28bc4d5]
@startuml








skinparam BackgroundColor #FFFFFFF

skinparam Shadowing false

skinparam Class {
    FontColor #FFFFFF
    BorderThickness 1
    BorderColor #FFFFFF
    StereotypeFontColor #FFFFFF
}

skinparam Actor {
    BorderColor #000000
    Color #000000
}

skinparam Sequence {
    MessageAlign center
    BoxFontSize 15
    BoxPadding 0
    BoxFontColor #FFFFFF
    SequenceBoxFontName Segoe UI
}

skinparam Participant {
    FontColor #FFFFFFF
    Padding 20
}

skinparam MinClassWidth 50
skinparam ParticipantPadding 10
skinparam Shadowing false
skinparam DefaultTextAlignment center
skinparam packageStyle Folder

skinparam DefaultFontName Arial
skinparam defaultMonospacedFontName Consolas

hide footbox
hide members
hide circle

start
:User enters input;
:Parse user input;

if () then ([input contains only 1 prefix])
    :Break search string into single keywords;
    if () then ([keywords exist])
        :Filter recipe book for recipes containing keywords;
        :Update GUI with recipes found;
    else ([else])
        :Throw "invalid search term" error message;
    endif
else ([else])
    :Throw "incorrect number of prefixes detected" error message;
endif

:Display results to user;
stop
@enduml

PlantUML version 1.2020.03beta6(Unknown compile time)
(GPL source distribution)
Java Runtime: OpenJDK Runtime Environment
JVM: OpenJDK 64-Bit Server VM
Java Version: 11.0.6+8-b770.9
Operating System: Windows 10
Default Encoding: Cp1252
Language: en
Country: SG
--></g></svg>
