<?xml version="1.0" encoding="UTF-8" standalone="no"?><svg xmlns="http://www.w3.org/2000/svg" xmlns:xlink="http://www.w3.org/1999/xlink" contentScriptType="application/ecmascript" contentStyleType="text/css" height="707px" preserveAspectRatio="none" style="width:1626px;height:707px;" version="1.1" viewBox="0 0 1626 707" width="1626px" zoomAndPan="magnify"><defs/><g><rect fill="#C8C8FA" height="685.6719" style="stroke: #A80036; stroke-width: 1.0;" width="1399" x="122" y="4"/><text fill="#FFFFFF" font-family="sans-serif" font-size="15" font-weight="bold" lengthAdjust="spacingAndGlyphs" textLength="39" x="800" y="19.5713">Logic</text><rect fill="#F97181" height="685.6719" style="stroke: #A80036; stroke-width: 1.0;" width="92" x="1523" y="4"/><text fill="#FFFFFF" font-family="sans-serif" font-size="15" font-weight="bold" lengthAdjust="spacingAndGlyphs" textLength="44" x="1545" y="19.5713">Model</text><rect fill="#FFFFFF" height="585.8438" style="stroke: #A80036; stroke-width: 1.0;" width="10" x="185" y="91.8281"/><rect fill="#FFFFFF" height="477.4375" style="stroke: #A80036; stroke-width: 1.0;" width="10" x="422" y="122.1797"/><rect fill="#FFFFFF" height="32.6094" style="stroke: #A80036; stroke-width: 1.0;" width="10" x="598" y="146.1797"/><rect fill="#FFFFFF" height="346.125" style="stroke: #A80036; stroke-width: 1.0;" width="10" x="598" y="209.1406"/><rect fill="#FFFFFF" height="212.4609" style="stroke: #A80036; stroke-width: 1.0;" width="10" x="778" y="239.4922"/><rect fill="#FFFFFF" height="30.3516" style="stroke: #A80036; stroke-width: 1.0;" width="10" x="945" y="269.8438"/><rect fill="#FFFFFF" height="91.0547" style="stroke: #A80036; stroke-width: 1.0;" width="10" x="1060" y="330.5469"/><rect fill="#FFFFFF" height="30.3516" style="stroke: #A80036; stroke-width: 1.0;" width="10" x="1216" y="360.8984"/><rect fill="#FFFFFF" height="32.6094" style="stroke: #A80036; stroke-width: 1.0;" width="10" x="1390" y="492.3047"/><rect fill="#3333C4" height="31.6094" style="stroke: #A80036; stroke-width: 1.5;" width="163" x="521.5" y="130.1797"/><text fill="#FFFFFF" font-family="sans-serif" font-size="14" lengthAdjust="spacingAndGlyphs" textLength="149" x="528.5" y="151.7129">:ImportCommandParser</text><rect fill="#3333C4" height="31.6094" style="stroke: #A80036; stroke-width: 1.5;" width="224" x="1283" y="459.9531"/><text fill="#FFFFFF" font-family="sans-serif" font-size="14" lengthAdjust="spacingAndGlyphs" textLength="210" x="1290" y="481.4863">importCommand:ImportCommand</text><line style="stroke: #A80036; stroke-width: 1.0; stroke-dasharray: 5.0,5.0;" x1="190" x2="190" y1="59.4766" y2="695.6719"/><line style="stroke: #A80036; stroke-width: 1.0; stroke-dasharray: 5.0,5.0;" x1="426.5" x2="426.5" y1="59.4766" y2="695.6719"/><line style="stroke: #A80036; stroke-width: 1.0; stroke-dasharray: 5.0,5.0;" x1="602.5" x2="602.5" y1="161.4844" y2="695.6719"/><line style="stroke: #A80036; stroke-width: 1.0; stroke-dasharray: 5.0,5.0;" x1="783" x2="783" y1="59.4766" y2="695.6719"/><line style="stroke: #A80036; stroke-width: 1.0; stroke-dasharray: 5.0,5.0;" x1="950" x2="950" y1="59.4766" y2="695.6719"/><line style="stroke: #A80036; stroke-width: 1.0; stroke-dasharray: 5.0,5.0;" x1="1065" x2="1065" y1="59.4766" y2="695.6719"/><line style="stroke: #A80036; stroke-width: 1.0; stroke-dasharray: 5.0,5.0;" x1="1221" x2="1221" y1="59.4766" y2="695.6719"/><line style="stroke: #A80036; stroke-width: 1.0; stroke-dasharray: 5.0,5.0;" x1="1395" x2="1395" y1="491.2578" y2="695.6719"/><line style="stroke: #A80036; stroke-width: 1.0; stroke-dasharray: 5.0,5.0;" x1="1569" x2="1569" y1="59.4766" y2="695.6719"/><rect fill="#3333C4" height="31.6094" style="stroke: #A80036; stroke-width: 1.5;" width="108" x="136" y="26.8672"/><text fill="#FFFFFF" font-family="sans-serif" font-size="14" lengthAdjust="spacingAndGlyphs" textLength="94" x="143" y="48.4004">:LogicManager</text><rect fill="#3333C4" height="31.6094" style="stroke: #A80036; stroke-width: 1.5;" width="129" x="362.5" y="26.8672"/><text fill="#FFFFFF" font-family="sans-serif" font-size="14" lengthAdjust="spacingAndGlyphs" textLength="115" x="369.5" y="48.4004">:OrderBookParser</text><rect fill="#3333C4" height="31.6094" style="stroke: #A80036; stroke-width: 1.5;" width="74" x="746" y="26.8672"/><text fill="#FFFFFF" font-family="sans-serif" font-size="14" lengthAdjust="spacingAndGlyphs" textLength="60" x="753" y="48.4004">:ParseUtil</text><rect fill="#3333C4" height="31.6094" style="stroke: #A80036; stroke-width: 1.5;" width="64" x="918" y="26.8672"/><text fill="#FFFFFF" font-family="sans-serif" font-size="14" lengthAdjust="spacingAndGlyphs" textLength="40" x="930" y="48.4004">:Paths</text><rect fill="#3333C4" height="31.6094" style="stroke: #A80036; stroke-width: 1.5;" width="106" x="1012" y="26.8672"/><text fill="#FFFFFF" font-family="sans-serif" font-size="14" lengthAdjust="spacingAndGlyphs" textLength="92" x="1019" y="48.4004">:CsvProcessor</text><rect fill="#3333C4" height="31.6094" style="stroke: #A80036; stroke-width: 1.5;" width="64" x="1189" y="26.8672"/><text fill="#FFFFFF" font-family="sans-serif" font-size="14" lengthAdjust="spacingAndGlyphs" textLength="46" x="1198" y="48.4004">:FileUtil</text><rect fill="#9D0012" height="31.6094" style="stroke: #A80036; stroke-width: 1.5;" width="64" x="1537" y="26.8672"/><text fill="#FFFFFF" font-family="sans-serif" font-size="14" lengthAdjust="spacingAndGlyphs" textLength="42" x="1548" y="48.4004">:Model</text><rect fill="#FFFFFF" height="585.8438" style="stroke: #A80036; stroke-width: 1.0;" width="10" x="185" y="91.8281"/><rect fill="#FFFFFF" height="477.4375" style="stroke: #A80036; stroke-width: 1.0;" width="10" x="422" y="122.1797"/><rect fill="#FFFFFF" height="32.6094" style="stroke: #A80036; stroke-width: 1.0;" width="10" x="598" y="146.1797"/><rect fill="#FFFFFF" height="346.125" style="stroke: #A80036; stroke-width: 1.0;" width="10" x="598" y="209.1406"/><rect fill="#FFFFFF" height="212.4609" style="stroke: #A80036; stroke-width: 1.0;" width="10" x="778" y="239.4922"/><rect fill="#FFFFFF" height="30.3516" style="stroke: #A80036; stroke-width: 1.0;" width="10" x="945" y="269.8438"/><rect fill="#FFFFFF" height="91.0547" style="stroke: #A80036; stroke-width: 1.0;" width="10" x="1060" y="330.5469"/><rect fill="#FFFFFF" height="30.3516" style="stroke: #A80036; stroke-width: 1.0;" width="10" x="1216" y="360.8984"/><rect fill="#FFFFFF" height="32.6094" style="stroke: #A80036; stroke-width: 1.0;" width="10" x="1390" y="492.3047"/><polygon fill="#A80036" points="173,87.8281,183,91.8281,173,95.8281,177,91.8281" style="stroke: #A80036; stroke-width: 1.0;"/><line style="stroke: #A80036; stroke-width: 1.0;" x1="3" x2="179" y1="91.8281" y2="91.8281"/><text fill="#000000" font-family="sans-serif" font-size="13" lengthAdjust="spacingAndGlyphs" textLength="163" x="12.5" y="86.9717">execute("import orders.csv")</text><polygon fill="#A80036" points="410,118.1797,420,122.1797,410,126.1797,414,122.1797" style="stroke: #A80036; stroke-width: 1.0;"/><line style="stroke: #A80036; stroke-width: 1.0;" x1="195" x2="416" y1="122.1797" y2="122.1797"/><text fill="#000000" font-family="sans-serif" font-size="13" lengthAdjust="spacingAndGlyphs" textLength="208" x="204.5" y="117.3232">parseCommand("import orders.csv")</text><polygon fill="#A80036" points="509.5,132.1797,519.5,136.1797,509.5,140.1797,513.5,136.1797" style="stroke: #A80036; stroke-width: 1.0;"/><line style="stroke: #A80036; stroke-width: 1.0;" x1="432" x2="515.5" y1="136.1797" y2="136.1797"/><rect fill="#3333C4" height="31.6094" style="stroke: #A80036; stroke-width: 1.5;" width="163" x="521.5" y="130.1797"/><text fill="#FFFFFF" font-family="sans-serif" font-size="14" lengthAdjust="spacingAndGlyphs" textLength="149" x="528.5" y="151.7129">:ImportCommandParser</text><polygon fill="#A80036" points="443,174.7891,433,178.7891,443,182.7891,439,178.7891" style="stroke: #A80036; stroke-width: 1.0;"/><line style="stroke: #A80036; stroke-width: 1.0; stroke-dasharray: 2.0,2.0;" x1="437" x2="602" y1="178.7891" y2="178.7891"/><polygon fill="#A80036" points="586,205.1406,596,209.1406,586,213.1406,590,209.1406" style="stroke: #A80036; stroke-width: 1.0;"/><line style="stroke: #A80036; stroke-width: 1.0;" x1="432" x2="592" y1="209.1406" y2="209.1406"/><text fill="#000000" font-family="sans-serif" font-size="13" lengthAdjust="spacingAndGlyphs" textLength="109" x="460.5" y="204.2842">parse("orders.csv")</text><polygon fill="#A80036" points="766,235.4922,776,239.4922,766,243.4922,770,239.4922" style="stroke: #A80036; stroke-width: 1.0;"/><line style="stroke: #A80036; stroke-width: 1.0;" x1="608" x2="772" y1="239.4922" y2="239.4922"/><text fill="#000000" font-family="sans-serif" font-size="13" lengthAdjust="spacingAndGlyphs" textLength="151" x="617.5" y="234.6357">parseCsvFile("orders.csv")</text><polygon fill="#A80036" points="933,265.8438,943,269.8438,933,273.8438,937,269.8438" style="stroke: #A80036; stroke-width: 1.0;"/><line style="stroke: #A80036; stroke-width: 1.0;" x1="788" x2="939" y1="269.8438" y2="269.8438"/><text fill="#000000" font-family="sans-serif" font-size="13" lengthAdjust="spacingAndGlyphs" textLength="138" x="797.5" y="264.9873">get("data", "orders.csv")</text><polygon fill="#A80036" points="799,296.1953,789,300.1953,799,304.1953,795,300.1953" style="stroke: #A80036; stroke-width: 1.0;"/><line style="stroke: #A80036; stroke-width: 1.0; stroke-dasharray: 2.0,2.0;" x1="793" x2="949" y1="300.1953" y2="300.1953"/><text fill="#000000" font-family="sans-serif" font-size="13" lengthAdjust="spacingAndGlyphs" textLength="67" x="835.5" y="295.3389">csvFilePath</text><polygon fill="#A80036" points="1048,326.5469,1058,330.5469,1048,334.5469,1052,330.5469" style="stroke: #A80036; stroke-width: 1.0;"/><line style="stroke: #A80036; stroke-width: 1.0;" x1="788" x2="1054" y1="330.5469" y2="330.5469"/><text fill="#000000" font-family="sans-serif" font-size="13" lengthAdjust="spacingAndGlyphs" textLength="143" x="852.5" y="325.6904">retrieveData(csvFilePath)</text><polygon fill="#A80036" points="1204,356.8984,1214,360.8984,1204,364.8984,1208,360.8984" style="stroke: #A80036; stroke-width: 1.0;"/><line style="stroke: #A80036; stroke-width: 1.0;" x1="1070" x2="1210" y1="360.8984" y2="360.8984"/><text fill="#000000" font-family="sans-serif" font-size="13" lengthAdjust="spacingAndGlyphs" textLength="127" x="1079.5" y="356.042">readFromFile(filePath)</text><polygon fill="#A80036" points="1081,387.25,1071,391.25,1081,395.25,1077,391.25" style="stroke: #A80036; stroke-width: 1.0;"/><line style="stroke: #A80036; stroke-width: 1.0; stroke-dasharray: 2.0,2.0;" x1="1075" x2="1220" y1="391.25" y2="391.25"/><text fill="#000000" font-family="sans-serif" font-size="13" lengthAdjust="spacingAndGlyphs" textLength="43" x="1124" y="386.3936">fileData</text><polygon fill="#A80036" points="799,417.6016,789,421.6016,799,425.6016,795,421.6016" style="stroke: #A80036; stroke-width: 1.0;"/><line style="stroke: #A80036; stroke-width: 1.0; stroke-dasharray: 2.0,2.0;" x1="793" x2="1064" y1="421.6016" y2="421.6016"/><text fill="#000000" font-family="sans-serif" font-size="13" lengthAdjust="spacingAndGlyphs" textLength="43" x="905" y="416.7451">fileData</text><polygon fill="#A80036" points="619,447.9531,609,451.9531,619,455.9531,615,451.9531" style="stroke: #A80036; stroke-width: 1.0;"/><line style="stroke: #A80036; stroke-width: 1.0; stroke-dasharray: 2.0,2.0;" x1="613" x2="782" y1="451.9531" y2="451.9531"/><text fill="#000000" font-family="sans-serif" font-size="13" lengthAdjust="spacingAndGlyphs" textLength="43" x="674" y="447.0967">fileData</text><polygon fill="#A80036" points="1271,478.3047,1281,482.3047,1271,486.3047,1275,482.3047" style="stroke: #A80036; stroke-width: 1.0;"/><line style="stroke: #A80036; stroke-width: 1.0;" x1="608" x2="1277" y1="482.3047" y2="482.3047"/><text fill="#000000" font-family="sans-serif" font-size="13" lengthAdjust="spacingAndGlyphs" textLength="43" x="924" y="477.4482">fileData</text><rect fill="#3333C4" height="31.6094" style="stroke: #A80036; stroke-width: 1.5;" width="224" x="1283" y="459.9531"/><text fill="#FFFFFF" font-family="sans-serif" font-size="14" lengthAdjust="spacingAndGlyphs" textLength="210" x="1290" y="481.4863">importCommand:ImportCommand</text><polygon fill="#A80036" points="619,520.9141,609,524.9141,619,528.9141,615,524.9141" style="stroke: #A80036; stroke-width: 1.0;"/><line style="stroke: #A80036; stroke-width: 1.0; stroke-dasharray: 2.0,2.0;" x1="613" x2="1394" y1="524.9141" y2="524.9141"/><text fill="#000000" font-family="sans-serif" font-size="13" lengthAdjust="spacingAndGlyphs" textLength="95" x="954" y="520.0576">importCommand</text><polygon fill="#A80036" points="443,551.2656,433,555.2656,443,559.2656,439,555.2656" style="stroke: #A80036; stroke-width: 1.0;"/><line style="stroke: #A80036; stroke-width: 1.0; stroke-dasharray: 2.0,2.0;" x1="437" x2="602" y1="555.2656" y2="555.2656"/><text fill="#000000" font-family="sans-serif" font-size="13" lengthAdjust="spacingAndGlyphs" textLength="95" x="470" y="550.4092">importCommand</text><line style="stroke: #A80036; stroke-width: 2.0;" x1="594" x2="612" y1="560.2656" y2="578.2656"/><line style="stroke: #A80036; stroke-width: 2.0;" x1="594" x2="612" y1="578.2656" y2="560.2656"/><polygon fill="#A80036" points="206,595.6172,196,599.6172,206,603.6172,202,599.6172" style="stroke: #A80036; stroke-width: 1.0;"/><line style="stroke: #A80036; stroke-width: 1.0; stroke-dasharray: 2.0,2.0;" x1="200" x2="426" y1="599.6172" y2="599.6172"/><text fill="#000000" font-family="sans-serif" font-size="13" lengthAdjust="spacingAndGlyphs" textLength="95" x="263.5" y="594.7607">importCommand</text><rect fill="#FFFFFF" height="42.7031" style="stroke: #000000; stroke-width: 2.0;" width="1491" x="123" y="607.6172"/><polygon fill="#EEEEEE" points="123,607.6172,185,607.6172,185,615.6172,175,625.6172,123,625.6172,123,607.6172" style="stroke: #000000; stroke-width: 2.0;"/><text fill="#000000" font-family="sans-serif" font-size="13" font-weight="bold" lengthAdjust="spacingAndGlyphs" textLength="17" x="136" y="623.1123">ref</text><text fill="#000000" font-family="sans-serif" font-size="13" lengthAdjust="spacingAndGlyphs" textLength="147" x="795" y="643.1123">execute import command</text><polygon fill="#A80036" points="14,673.6719,4,677.6719,14,681.6719,10,677.6719" style="stroke: #A80036; stroke-width: 1.0;"/><line style="stroke: #A80036; stroke-width: 1.0; stroke-dasharray: 2.0,2.0;" x1="8" x2="189" y1="677.6719" y2="677.6719"/><text fill="#000000" font-family="sans-serif" font-size="13" lengthAdjust="spacingAndGlyphs" textLength="32" x="80.5" y="672.8154">result</text><!--MD5=[94de78cd99bd2a9f0394b0e7caf164f9]
@startuml








skinparam BackgroundColor #FFFFFFF

skinparam Shadowing false

skinparam Class {
    FontColor #FFFFFF
    BorderThickness 1
    BorderColor #FFFFFF
    StereotypeFontColor #FFFFFF
    FontName Arial
}

skinparam Actor {
    BorderColor #000000
    Color #000000
    FontName Arial
}

skinparam Sequence {
    MessageAlign center
    BoxFontSize 15
    BoxPadding 0
    BoxFontColor #FFFFFF
    FontName Arial
}

skinparam Participant {
    FontColor #FFFFFFF
    Padding 20
}

skinparam MinClassWidth 50
skinparam ParticipantPadding 10
skinparam Shadowing false
skinparam DefaultTextAlignment center
skinparam packageStyle Rectangle

hide footbox
hide members
hide circle
box Logic #C8C8FA
participant ":LogicManager" as LogicManager #3333C4
participant ":OrderBookParser" as OrderBookParser #3333C4
participant ":ImportCommandParser" as ImportCommandParser #3333C4
participant ":ParseUtil" as ParseUtil #3333C4
participant ":Paths" as Paths #3333C4
participant ":CsvProcessor" as CsvProcessor #3333C4
participant ":FileUtil" as FileUtil #3333C4
participant "importCommand:ImportCommand" as ImportCommand #3333C4
end box

box Model #F97181
participant ":Model" as Model #9D0012
end box

[-> LogicManager : execute("import orders.csv")
activate LogicManager

LogicManager -> OrderBookParser ++ : parseCommand("import orders.csv")

create ImportCommandParser
OrderBookParser -> ImportCommandParser ++

ImportCommandParser - -> OrderBookParser - -

OrderBookParser -> ImportCommandParser ++ : parse("orders.csv")

ImportCommandParser -> ParseUtil ++ : parseCsvFile("orders.csv")

ParseUtil -> Paths ++ : get("data", "orders.csv")

Paths - -> ParseUtil - - : csvFilePath

ParseUtil -> CsvProcessor ++ : retrieveData(csvFilePath)

CsvProcessor -> FileUtil ++ : readFromFile(filePath)

FileUtil - -> CsvProcessor - - : fileData

CsvProcessor - -> ParseUtil - - : fileData

ParseUtil - -> ImportCommandParser - - : fileData

create ImportCommand
ImportCommandParser -> ImportCommand ++ : fileData

ImportCommand - -> ImportCommandParser - - : importCommand

ImportCommandParser - -> OrderBookParser - - : importCommand

ImportCommandParser -[hidden]-> OrderBookParser
destroy ImportCommandParser

OrderBookParser - -> LogicManager - - : importCommand

ref over LogicManager,  Model : execute import command

[<- -LogicManager : result
deactivate LogicManager
@enduml

PlantUML version 1.2019.11(Sun Sep 22 18:02:15 SGT 2019)
(GPL source distribution)
Java Runtime: OpenJDK Runtime Environment
JVM: OpenJDK 64-Bit Server VM
Java Version: 11.0.5+10-b520.30
Operating System: Windows 10
Default Encoding: UTF-8
Language: en
Country: US
--></g></svg>
