<?xml version="1.0" encoding="UTF-8" standalone="no"?><svg xmlns="http://www.w3.org/2000/svg" xmlns:xlink="http://www.w3.org/1999/xlink" contentScriptType="application/ecmascript" contentStyleType="text/css" height="1381.25px" preserveAspectRatio="none" style="width:2228px;height:1381px;" version="1.1" viewBox="0 0 2228 1381" width="2228.75px" zoomAndPan="magnify"><defs/><g><rect fill="#C8C8FA" height="1354.6094" style="stroke: #A80036; stroke-width: 1.25;" width="1832.5" x="13.75" y="5"/><text fill="#FFFFFF" font-family="sans-serif" font-size="18.75" font-weight="bold" lengthAdjust="spacingAndGlyphs" textLength="48.75" x="903.125" y="24.4641">Logic</text><rect fill="#F97181" height="1354.6094" style="stroke: #A80036; stroke-width: 1.25;" width="115" x="1848.75" y="5"/><text fill="#FFFFFF" font-family="sans-serif" font-size="18.75" font-weight="bold" lengthAdjust="spacingAndGlyphs" textLength="55" x="1876.25" y="24.4641">Model</text><rect fill="#FFFFFF" height="1249.0137" style="stroke: #A80036; stroke-width: 1.25;" width="12.5" x="92.5" y="86.8457"/><rect fill="#FFFFFF" height="1154.3848" style="stroke: #A80036; stroke-width: 1.25;" width="12.5" x="337.5" y="146.4746"/><rect fill="#FFFFFF" height="51.6895" style="stroke: #A80036; stroke-width: 1.25;" width="12.5" x="343.75" y="1093.7793"/><rect fill="#FFFFFF" height="40.7617" style="stroke: #A80036; stroke-width: 1.25;" width="12.5" x="614.375" y="239.8535"/><rect fill="#FFFFFF" height="129.1406" style="stroke: #A80036; stroke-width: 1.25;" width="12.5" x="614.375" y="318.5547"/><rect fill="#FFFFFF" height="40.7617" style="stroke: #A80036; stroke-width: 1.25;" width="12.5" x="855.625" y="643.3691"/><rect fill="#FFFFFF" height="129.1406" style="stroke: #A80036; stroke-width: 1.25;" width="12.5" x="855.625" y="722.0703"/><rect fill="#FFFFFF" height="40.7617" style="stroke: #A80036; stroke-width: 1.25;" width="12.5" x="1132.5" y="368.9941"/><rect fill="#FFFFFF" height="72.9395" style="stroke: #A80036; stroke-width: 1.25;" width="12.5" x="1132.5" y="503.1348"/><rect fill="#FFFFFF" height="40.7617" style="stroke: #A80036; stroke-width: 1.25;" width="12.5" x="1446.875" y="772.5098"/><rect fill="#FFFFFF" height="72.9395" style="stroke: #A80036; stroke-width: 1.25;" width="12.5" x="1446.875" y="906.6504"/><rect fill="#FFFFFF" height="40.7617" style="stroke: #A80036; stroke-width: 1.25;" width="12.5" x="1724.375" y="1204.6582"/><rect fill="#FFFFFF" height="17.5" style="stroke: #A80036; stroke-width: 1.25;" width="12.5" x="1900" y="541.0742"/><rect fill="#FFFFFF" height="17.5" style="stroke: #A80036; stroke-width: 1.25;" width="12.5" x="1900" y="944.5898"/><rect fill="#FFFFFF" height="1250.2637" style="stroke: #000000; stroke-width: 2.5;" width="2207.5" x="7.5" y="95.5957"/><rect fill="#FFFFFF" height="881.8652" style="stroke: #000000; stroke-width: 2.5;" width="2036.25" x="166.25" y="165.2246"/><rect fill="#FFFFFF" height="841.4258" style="stroke: #000000; stroke-width: 2.5;" width="2011.25" x="178.75" y="196.9141"/><rect fill="#FFFFFF" height="434.7656" style="stroke: none; stroke-width: 1.25;" width="2011.25" x="178.75" y="603.5742"/><line style="stroke: #A80036; stroke-width: 1.25; stroke-dasharray: 5.0,5.0;" x1="98.75" x2="98.75" y1="74.3457" y2="1367.1094"/><line style="stroke: #A80036; stroke-width: 1.25; stroke-dasharray: 5.0,5.0;" x1="343.75" x2="343.75" y1="74.3457" y2="1367.1094"/><line style="stroke: #A80036; stroke-width: 1.25; stroke-dasharray: 5.0,5.0;" x1="620" x2="620" y1="258.9844" y2="1367.1094"/><line style="stroke: #A80036; stroke-width: 1.25; stroke-dasharray: 5.0,5.0;" x1="861.25" x2="861.25" y1="662.5" y2="1367.1094"/><line style="stroke: #A80036; stroke-width: 1.25; stroke-dasharray: 5.0,5.0;" x1="1138.75" x2="1138.75" y1="367.6855" y2="1367.1094"/><line style="stroke: #A80036; stroke-width: 1.25; stroke-dasharray: 5.0,5.0;" x1="1452.5" x2="1452.5" y1="771.2012" y2="1367.1094"/><line style="stroke: #A80036; stroke-width: 1.25; stroke-dasharray: 5.0,5.0;" x1="1730" x2="1730" y1="1203.3496" y2="1367.1094"/><line style="stroke: #A80036; stroke-width: 1.25; stroke-dasharray: 5.0,5.0;" x1="1906.25" x2="1906.25" y1="74.3457" y2="1367.1094"/><line style="stroke: #A80036; stroke-width: 1.25; stroke-dasharray: 5.0,5.0;" x1="2073.75" x2="2073.75" y1="74.3457" y2="1367.1094"/><rect fill="#3333C4" height="39.5117" style="stroke: #A80036; stroke-width: 1.875;" width="135" x="31.25" y="33.584"/><text fill="#FFFFFF" font-family="sans-serif" font-size="17.5" lengthAdjust="spacingAndGlyphs" textLength="117.5" x="40" y="60.5005">:LogicManager</text><rect fill="#3333C4" height="39.5117" style="stroke: #A80036; stroke-width: 1.875;" width="280" x="203.75" y="33.584"/><text fill="#FFFFFF" font-family="sans-serif" font-size="17.5" lengthAdjust="spacingAndGlyphs" textLength="262.5" x="212.5" y="60.5005">importCommand:ImportCommand</text><rect fill="#9D0012" height="39.5117" style="stroke: #A80036; stroke-width: 1.875;" width="80" x="1866.25" y="33.584"/><text fill="#FFFFFF" font-family="sans-serif" font-size="17.5" lengthAdjust="spacingAndGlyphs" textLength="52.5" x="1880" y="60.5005">:Model</text><rect fill="#FEFECE" height="39.5117" style="stroke: #A80036; stroke-width: 1.875;" width="181.25" x="1983.75" y="33.584"/><text fill="#FFFFFF" font-family="sans-serif" font-size="17.5" lengthAdjust="spacingAndGlyphs" textLength="163.75" x="1992.5" y="60.5005">AddCommandParser</text><rect fill="#FFFFFF" height="1249.0137" style="stroke: #A80036; stroke-width: 1.25;" width="12.5" x="92.5" y="86.8457"/><rect fill="#FFFFFF" height="1154.3848" style="stroke: #A80036; stroke-width: 1.25;" width="12.5" x="337.5" y="146.4746"/><rect fill="#FFFFFF" height="51.6895" style="stroke: #A80036; stroke-width: 1.25;" width="12.5" x="343.75" y="1093.7793"/><rect fill="#FFFFFF" height="40.7617" style="stroke: #A80036; stroke-width: 1.25;" width="12.5" x="614.375" y="239.8535"/><rect fill="#FFFFFF" height="129.1406" style="stroke: #A80036; stroke-width: 1.25;" width="12.5" x="614.375" y="318.5547"/><rect fill="#FFFFFF" height="40.7617" style="stroke: #A80036; stroke-width: 1.25;" width="12.5" x="855.625" y="643.3691"/><rect fill="#FFFFFF" height="129.1406" style="stroke: #A80036; stroke-width: 1.25;" width="12.5" x="855.625" y="722.0703"/><rect fill="#FFFFFF" height="40.7617" style="stroke: #A80036; stroke-width: 1.25;" width="12.5" x="1132.5" y="368.9941"/><rect fill="#FFFFFF" height="72.9395" style="stroke: #A80036; stroke-width: 1.25;" width="12.5" x="1132.5" y="503.1348"/><rect fill="#FFFFFF" height="40.7617" style="stroke: #A80036; stroke-width: 1.25;" width="12.5" x="1446.875" y="772.5098"/><rect fill="#FFFFFF" height="72.9395" style="stroke: #A80036; stroke-width: 1.25;" width="12.5" x="1446.875" y="906.6504"/><rect fill="#FFFFFF" height="40.7617" style="stroke: #A80036; stroke-width: 1.25;" width="12.5" x="1724.375" y="1204.6582"/><rect fill="#FFFFFF" height="17.5" style="stroke: #A80036; stroke-width: 1.25;" width="12.5" x="1900" y="541.0742"/><rect fill="#FFFFFF" height="17.5" style="stroke: #A80036; stroke-width: 1.25;" width="12.5" x="1900" y="944.5898"/><path d="M7.5,95.5957 L515,95.5957 L515,105.5957 L502.5,118.0957 L7.5,118.0957 L7.5,95.5957 " fill="#EEEEEE" style="stroke: #000000; stroke-width: 1.25;"/><rect fill="none" height="1250.2637" style="stroke: #000000; stroke-width: 2.5;" width="2207.5" x="7.5" y="95.5957"/><text fill="#000000" font-family="sans-serif" font-size="16.25" font-weight="bold" lengthAdjust="spacingAndGlyphs" textLength="451.25" x="26.25" y="113.7146">sd Execution of the Import Command Sequence Diagram</text><polygon fill="#A80036" points="322.5,141.4746,335,146.4746,322.5,151.4746,327.5,146.4746" style="stroke: #A80036; stroke-width: 1.25;"/><line style="stroke: #A80036; stroke-width: 1.25;" x1="105" x2="330" y1="146.4746" y2="146.4746"/><text fill="#000000" font-family="sans-serif" font-size="16.25" lengthAdjust="spacingAndGlyphs" textLength="111.25" x="165.625" y="140.4041">execute(model)</text><path d="M166.25,165.2246 L257.5,165.2246 L257.5,175.2246 L245,187.7246 L166.25,187.7246 L166.25,165.2246 " fill="#EEEEEE" style="stroke: #000000; stroke-width: 1.25;"/><rect fill="none" height="881.8652" style="stroke: #000000; stroke-width: 2.5;" width="2036.25" x="166.25" y="165.2246"/><text fill="#000000" font-family="sans-serif" font-size="16.25" font-weight="bold" lengthAdjust="spacingAndGlyphs" textLength="35" x="185" y="183.3435">loop</text><text fill="#000000" font-family="sans-serif" font-size="13.75" font-weight="bold" lengthAdjust="spacingAndGlyphs" textLength="361.25" x="276.25" y="181.9983">[until every String data in ordersData are processed]</text><path d="M178.75,196.9141 L255,196.9141 L255,206.9141 L242.5,219.4141 L178.75,219.4141 L178.75,196.9141 " fill="#EEEEEE" style="stroke: #000000; stroke-width: 1.25;"/><rect fill="none" height="841.4258" style="stroke: #000000; stroke-width: 2.5;" width="2011.25" x="178.75" y="196.9141"/><text fill="#000000" font-family="sans-serif" font-size="16.25" font-weight="bold" lengthAdjust="spacingAndGlyphs" textLength="20" x="197.5" y="215.033">alt</text><text fill="#000000" font-family="sans-serif" font-size="13.75" font-weight="bold" lengthAdjust="spacingAndGlyphs" textLength="160" x="273.75" y="213.6877">[data starts with order]</text><polygon fill="#A80036" points="506.25,222.3535,518.75,227.3535,506.25,232.3535,511.25,227.3535" style="stroke: #A80036; stroke-width: 1.25;"/><line style="stroke: #A80036; stroke-width: 1.25;" x1="350" x2="513.75" y1="227.3535" y2="227.3535"/><rect fill="#3333C4" height="39.5117" style="stroke: #A80036; stroke-width: 1.875;" width="198.75" x="521.25" y="219.8535"/><text fill="#FFFFFF" font-family="sans-serif" font-size="17.5" lengthAdjust="spacingAndGlyphs" textLength="181.25" x="530" y="246.77">:InsertCommandParser</text><polygon fill="#A80036" points="363.75,275.6152,351.25,280.6152,363.75,285.6152,358.75,280.6152" style="stroke: #A80036; stroke-width: 1.25;"/><line style="stroke: #A80036; stroke-width: 1.25; stroke-dasharray: 2.0,2.0;" x1="356.25" x2="619.375" y1="280.6152" y2="280.6152"/><polygon fill="#A80036" points="599.375,313.5547,611.875,318.5547,599.375,323.5547,604.375,318.5547" style="stroke: #A80036; stroke-width: 1.25;"/><line style="stroke: #A80036; stroke-width: 1.25;" x1="350" x2="606.875" y1="318.5547" y2="318.5547"/><text fill="#000000" font-family="sans-serif" font-size="16.25" lengthAdjust="spacingAndGlyphs" textLength="81.25" x="441.5625" y="312.4841">parse(data)</text><polygon fill="#A80036" points="988.75,351.4941,1001.25,356.4941,988.75,361.4941,993.75,356.4941" style="stroke: #A80036; stroke-width: 1.25;"/><line style="stroke: #A80036; stroke-width: 1.25;" x1="626.875" x2="996.25" y1="356.4941" y2="356.4941"/><text fill="#000000" font-family="sans-serif" font-size="16.25" lengthAdjust="spacingAndGlyphs" textLength="31.25" x="799.6875" y="350.4236">data</text><rect fill="#3333C4" height="39.5117" style="stroke: #A80036; stroke-width: 1.875;" width="270" x="1003.75" y="328.5547"/><text fill="#FFFFFF" font-family="sans-serif" font-size="17.5" lengthAdjust="spacingAndGlyphs" textLength="252.5" x="1012.5" y="355.4712">insertCommand:InsertCommand</text><polygon fill="#A80036" points="640.625,404.7559,628.125,409.7559,640.625,414.7559,635.625,409.7559" style="stroke: #A80036; stroke-width: 1.25;"/><line style="stroke: #A80036; stroke-width: 1.25; stroke-dasharray: 2.0,2.0;" x1="633.125" x2="1137.5" y1="409.7559" y2="409.7559"/><text fill="#000000" font-family="sans-serif" font-size="16.25" lengthAdjust="spacingAndGlyphs" textLength="113.75" x="825.9375" y="403.6853">insertCommand</text><polygon fill="#A80036" points="363.75,442.6953,351.25,447.6953,363.75,452.6953,358.75,447.6953" style="stroke: #A80036; stroke-width: 1.25;"/><line style="stroke: #A80036; stroke-width: 1.25; stroke-dasharray: 2.0,2.0;" x1="356.25" x2="619.375" y1="447.6953" y2="447.6953"/><text fill="#000000" font-family="sans-serif" font-size="16.25" lengthAdjust="spacingAndGlyphs" textLength="113.75" x="428.4375" y="441.6248">insertCommand</text><line style="stroke: #A80036; stroke-width: 2.5;" x1="609.375" x2="631.875" y1="453.9453" y2="476.4453"/><line style="stroke: #A80036; stroke-width: 2.5;" x1="609.375" x2="631.875" y1="476.4453" y2="453.9453"/><polygon fill="#A80036" points="1117.5,498.1348,1130,503.1348,1117.5,508.1348,1122.5,503.1348" style="stroke: #A80036; stroke-width: 1.25;"/><line style="stroke: #A80036; stroke-width: 1.25;" x1="350" x2="1125" y1="503.1348" y2="503.1348"/><text fill="#000000" font-family="sans-serif" font-size="16.25" lengthAdjust="spacingAndGlyphs" textLength="111.25" x="685.625" y="497.0642">execute(Model)</text><polygon fill="#A80036" points="1885,536.0742,1897.5,541.0742,1885,546.0742,1890,541.0742" style="stroke: #A80036; stroke-width: 1.25;"/><line style="stroke: #A80036; stroke-width: 1.25;" x1="1145" x2="1892.5" y1="541.0742" y2="541.0742"/><text fill="#000000" font-family="sans-serif" font-size="16.25" lengthAdjust="spacingAndGlyphs" textLength="118.75" x="1463.125" y="535.0037">addOrder(toAdd)</text><polygon fill="#A80036" points="1158.75,553.5742,1146.25,558.5742,1158.75,563.5742,1153.75,558.5742" style="stroke: #A80036; stroke-width: 1.25;"/><line style="stroke: #A80036; stroke-width: 1.25; stroke-dasharray: 2.0,2.0;" x1="1151.25" x2="1905" y1="558.5742" y2="558.5742"/><polygon fill="#A80036" points="363.75,571.0742,351.25,576.0742,363.75,581.0742,358.75,576.0742" style="stroke: #A80036; stroke-width: 1.25;"/><line style="stroke: #A80036; stroke-width: 1.25; stroke-dasharray: 2.0,2.0;" x1="356.25" x2="1137.5" y1="576.0742" y2="576.0742"/><line style="stroke: #A80036; stroke-width: 2.5;" x1="1127.5" x2="1150" y1="582.3242" y2="604.8242"/><line style="stroke: #A80036; stroke-width: 2.5;" x1="1127.5" x2="1150" y1="604.8242" y2="582.3242"/><line style="stroke: #000000; stroke-width: 1.25; stroke-dasharray: 2.0,2.0;" x1="178.75" x2="2190" y1="604.8242" y2="604.8242"/><text fill="#000000" font-family="sans-serif" font-size="13.75" font-weight="bold" lengthAdjust="spacingAndGlyphs" textLength="165" x="185" y="619.0979">[data starts with return]</text><polygon fill="#A80036" points="742.5,625.8691,755,630.8691,742.5,635.8691,747.5,630.8691" style="stroke: #A80036; stroke-width: 1.25;"/><line style="stroke: #A80036; stroke-width: 1.25;" x1="350" x2="750" y1="630.8691" y2="630.8691"/><rect fill="#3333C4" height="39.5117" style="stroke: #A80036; stroke-width: 1.875;" width="208.75" x="757.5" y="623.3691"/><text fill="#FFFFFF" font-family="sans-serif" font-size="17.5" lengthAdjust="spacingAndGlyphs" textLength="191.25" x="766.25" y="650.2856">:ReturnCommandParser</text><polygon fill="#A80036" points="363.75,679.1309,351.25,684.1309,363.75,689.1309,358.75,684.1309" style="stroke: #A80036; stroke-width: 1.25;"/><line style="stroke: #A80036; stroke-width: 1.25; stroke-dasharray: 2.0,2.0;" x1="356.25" x2="860.625" y1="684.1309" y2="684.1309"/><polygon fill="#A80036" points="840.625,717.0703,853.125,722.0703,840.625,727.0703,845.625,722.0703" style="stroke: #A80036; stroke-width: 1.25;"/><line style="stroke: #A80036; stroke-width: 1.25;" x1="350" x2="848.125" y1="722.0703" y2="722.0703"/><text fill="#000000" font-family="sans-serif" font-size="16.25" lengthAdjust="spacingAndGlyphs" textLength="81.25" x="562.1875" y="715.9998">parse(data)</text><polygon fill="#A80036" points="1296.25,755.0098,1308.75,760.0098,1296.25,765.0098,1301.25,760.0098" style="stroke: #A80036; stroke-width: 1.25;"/><line style="stroke: #A80036; stroke-width: 1.25;" x1="868.125" x2="1303.75" y1="760.0098" y2="760.0098"/><text fill="#000000" font-family="sans-serif" font-size="16.25" lengthAdjust="spacingAndGlyphs" textLength="31.25" x="1074.0625" y="753.9392">data</text><rect fill="#3333C4" height="39.5117" style="stroke: #A80036; stroke-width: 1.875;" width="283.75" x="1311.25" y="732.0703"/><text fill="#FFFFFF" font-family="sans-serif" font-size="17.5" lengthAdjust="spacingAndGlyphs" textLength="266.25" x="1320" y="758.9868">returnCommand:ReturnCommand</text><polygon fill="#A80036" points="881.875,808.2715,869.375,813.2715,881.875,818.2715,876.875,813.2715" style="stroke: #A80036; stroke-width: 1.25;"/><line style="stroke: #A80036; stroke-width: 1.25; stroke-dasharray: 2.0,2.0;" x1="874.375" x2="1451.875" y1="813.2715" y2="813.2715"/><text fill="#000000" font-family="sans-serif" font-size="16.25" lengthAdjust="spacingAndGlyphs" textLength="115" x="1103.125" y="807.2009">returnCommand</text><polygon fill="#A80036" points="363.75,846.2109,351.25,851.2109,363.75,856.2109,358.75,851.2109" style="stroke: #A80036; stroke-width: 1.25;"/><line style="stroke: #A80036; stroke-width: 1.25; stroke-dasharray: 2.0,2.0;" x1="356.25" x2="860.625" y1="851.2109" y2="851.2109"/><text fill="#000000" font-family="sans-serif" font-size="16.25" lengthAdjust="spacingAndGlyphs" textLength="115" x="548.4375" y="845.1404">returnCommand</text><line style="stroke: #A80036; stroke-width: 2.5;" x1="850.625" x2="873.125" y1="857.4609" y2="879.9609"/><line style="stroke: #A80036; stroke-width: 2.5;" x1="850.625" x2="873.125" y1="879.9609" y2="857.4609"/><polygon fill="#A80036" points="1431.875,901.6504,1444.375,906.6504,1431.875,911.6504,1436.875,906.6504" style="stroke: #A80036; stroke-width: 1.25;"/><line style="stroke: #A80036; stroke-width: 1.25;" x1="350" x2="1439.375" y1="906.6504" y2="906.6504"/><text fill="#000000" font-family="sans-serif" font-size="16.25" lengthAdjust="spacingAndGlyphs" textLength="111.25" x="842.8125" y="900.5798">execute(Model)</text><polygon fill="#A80036" points="1885,939.5898,1897.5,944.5898,1885,949.5898,1890,944.5898" style="stroke: #A80036; stroke-width: 1.25;"/><line style="stroke: #A80036; stroke-width: 1.25;" x1="1459.375" x2="1892.5" y1="944.5898" y2="944.5898"/><text fill="#000000" font-family="sans-serif" font-size="16.25" lengthAdjust="spacingAndGlyphs" textLength="213.75" x="1572.8125" y="938.5193">addReturnOrder(toBeCreated)</text><polygon fill="#A80036" points="1473.125,957.0898,1460.625,962.0898,1473.125,967.0898,1468.125,962.0898" style="stroke: #A80036; stroke-width: 1.25;"/><line style="stroke: #A80036; stroke-width: 1.25; stroke-dasharray: 2.0,2.0;" x1="1465.625" x2="1905" y1="962.0898" y2="962.0898"/><polygon fill="#A80036" points="363.75,974.5898,351.25,979.5898,363.75,984.5898,358.75,979.5898" style="stroke: #A80036; stroke-width: 1.25;"/><line style="stroke: #A80036; stroke-width: 1.25; stroke-dasharray: 2.0,2.0;" x1="356.25" x2="1451.875" y1="979.5898" y2="979.5898"/><line style="stroke: #A80036; stroke-width: 2.5;" x1="1441.875" x2="1464.375" y1="985.8398" y2="1008.3398"/><line style="stroke: #A80036; stroke-width: 2.5;" x1="1441.875" x2="1464.375" y1="1008.3398" y2="985.8398"/><line style="stroke: #A80036; stroke-width: 1.25;" x1="350" x2="408.75" y1="1077.5293" y2="1077.5293"/><line style="stroke: #A80036; stroke-width: 1.25;" x1="408.75" x2="408.75" y1="1077.5293" y2="1093.7793"/><line style="stroke: #A80036; stroke-width: 1.25;" x1="357.5" x2="408.75" y1="1093.7793" y2="1093.7793"/><polygon fill="#A80036" points="370,1088.7793,357.5,1093.7793,370,1098.7793,365,1093.7793" style="stroke: #A80036; stroke-width: 1.25;"/><text fill="#000000" font-family="sans-serif" font-size="16.25" lengthAdjust="spacingAndGlyphs" textLength="87.5" x="365" y="1071.4587">printResult()</text><line style="stroke: #A80036; stroke-width: 1.25; stroke-dasharray: 2.0,2.0;" x1="356.25" x2="408.75" y1="1144.2188" y2="1144.2188"/><line style="stroke: #A80036; stroke-width: 1.25; stroke-dasharray: 2.0,2.0;" x1="408.75" x2="408.75" y1="1144.2188" y2="1160.4688"/><line style="stroke: #A80036; stroke-width: 1.25; stroke-dasharray: 2.0,2.0;" x1="350" x2="408.75" y1="1160.4688" y2="1160.4688"/><polygon fill="#A80036" points="362.5,1155.4688,350,1160.4688,362.5,1165.4688,357.5,1160.4688" style="stroke: #A80036; stroke-width: 1.25;"/><text fill="#000000" font-family="sans-serif" font-size="16.25" lengthAdjust="spacingAndGlyphs" textLength="66.25" x="365" y="1138.1482">message</text><polygon fill="#A80036" points="1617.5,1187.1582,1630,1192.1582,1617.5,1197.1582,1622.5,1192.1582" style="stroke: #A80036; stroke-width: 1.25;"/><line style="stroke: #A80036; stroke-width: 1.25;" x1="350" x2="1625" y1="1192.1582" y2="1192.1582"/><text fill="#000000" font-family="sans-serif" font-size="16.25" lengthAdjust="spacingAndGlyphs" textLength="66.25" x="958.125" y="1186.0876">message</text><rect fill="#3333C4" height="39.5117" style="stroke: #A80036; stroke-width: 1.875;" width="196.25" x="1632.5" y="1164.2188"/><text fill="#FFFFFF" font-family="sans-serif" font-size="17.5" lengthAdjust="spacingAndGlyphs" textLength="178.75" x="1641.25" y="1191.1353">result:CommandResult</text><polygon fill="#A80036" points="363.75,1240.4199,351.25,1245.4199,363.75,1250.4199,358.75,1245.4199" style="stroke: #A80036; stroke-width: 1.25;"/><line style="stroke: #A80036; stroke-width: 1.25; stroke-dasharray: 2.0,2.0;" x1="356.25" x2="1729.375" y1="1245.4199" y2="1245.4199"/><text fill="#000000" font-family="sans-serif" font-size="16.25" lengthAdjust="spacingAndGlyphs" textLength="40" x="1020.3125" y="1239.3494">result</text><line style="stroke: #A80036; stroke-width: 2.5;" x1="1719.375" x2="1741.875" y1="1251.6699" y2="1274.1699"/><line style="stroke: #A80036; stroke-width: 2.5;" x1="1719.375" x2="1741.875" y1="1274.1699" y2="1251.6699"/><polygon fill="#A80036" points="118.75,1295.8594,106.25,1300.8594,118.75,1305.8594,113.75,1300.8594" style="stroke: #A80036; stroke-width: 1.25;"/><line style="stroke: #A80036; stroke-width: 1.25; stroke-dasharray: 2.0,2.0;" x1="111.25" x2="342.5" y1="1300.8594" y2="1300.8594"/><text fill="#000000" font-family="sans-serif" font-size="16.25" lengthAdjust="spacingAndGlyphs" textLength="40" x="204.375" y="1294.7888">result</text><line style="stroke: #A80036; stroke-width: 2.5;" x1="332.5" x2="355" y1="1307.1094" y2="1329.6094"/><line style="stroke: #A80036; stroke-width: 2.5;" x1="332.5" x2="355" y1="1329.6094" y2="1307.1094"/><polygon fill="#A80036" points="17.5,1330.8594,5,1335.8594,17.5,1340.8594,12.5,1335.8594" style="stroke: #A80036; stroke-width: 1.25;"/><line style="stroke: #A80036; stroke-width: 1.25; stroke-dasharray: 2.0,2.0;" x1="10" x2="97.5" y1="1335.8594" y2="1335.8594"/><!--MD5=[f6f6efb14bbfd535b02434e081916409]
@startuml








skinparam BackgroundColor #FFFFFFF

skinparam Shadowing false

skinparam Class {
    FontColor #FFFFFF
    BorderThickness 1
    BorderColor #FFFFFF
    StereotypeFontColor #FFFFFF
    FontName Arial
}

skinparam Actor {
    BorderColor #000000
    Color #000000
    FontName Arial
}

skinparam Sequence {
    MessageAlign center
    BoxFontSize 15
    BoxPadding 0
    BoxFontColor #FFFFFF
    FontName Arial
}

skinparam Participant {
    FontColor #FFFFFFF
    Padding 20
}

skinparam MinClassWidth 50
skinparam ParticipantPadding 10
skinparam Shadowing false
skinparam DefaultTextAlignment center
skinparam packageStyle Rectangle

hide footbox
hide members
hide circle
box Logic #C8C8FA
participant ":LogicManager" as LogicManager #3333C4
participant "importCommand:ImportCommand" as ImportCommand #3333C4
participant ":InsertCommandParser" as InsertCommandParser #3333C4
participant ":ReturnCommandParser" as ReturnCommandParser #3333C4
participant "insertCommand:InsertCommand" as InsertCommand #3333C4
participant "returnCommand:ReturnCommand" as ReturnCommand #3333C4
participant "result:CommandResult" as CommandResult #3333C4
end box

box Model #F97181
participant ":Model" as Model #9D0012
end box
activate LogicManager

group sd Execution of the Import Command Sequence Diagram

LogicManager -> ImportCommand : execute(model)
activate ImportCommand

loop until every String data in ordersData are processed
    alt data starts with order
        create InsertCommandParser
        ImportCommand -> InsertCommandParser ++

        InsertCommandParser - -> ImportCommand - -

        ImportCommand -> InsertCommandParser ++ : parse(data)

        create InsertCommand
        InsertCommandParser -> InsertCommand ++ : data

        InsertCommand - -> InsertCommandParser - - : insertCommand

        InsertCommandParser - -> ImportCommand - - : insertCommand

        InsertCommandParser -[hidden]-> ImportCommand
        destroy InsertCommandParser

        ImportCommand -> InsertCommand ++ : execute(Model)

        InsertCommand -> Model++ : addOrder(toAdd)

        Model - -> InsertCommand- -

        InsertCommand - -> ImportCommand - -

        InsertCommand -[hidden]-> ImportCommand
        destroy InsertCommand

    else data starts with return
        create ReturnCommandParser
        ImportCommand -> ReturnCommandParser ++

        ReturnCommandParser - -> ImportCommand - -

        ImportCommand -> ReturnCommandParser ++ : parse(data)

        create ReturnCommand
        ReturnCommandParser -> ReturnCommand ++ : data

        ReturnCommand - -> ReturnCommandParser - - : returnCommand

        ReturnCommandParser - -> ImportCommand - - : returnCommand
        AddCommandParser -[hidden]-> ImportCommand
        destroy ReturnCommandParser

        ImportCommand -> ReturnCommand ++ : execute(Model)

        ReturnCommand -> Model++ : addReturnOrder(toBeCreated)

        Model - -> ReturnCommand- -
        ReturnCommand - -> ImportCommand - -

        ReturnCommand -[hidden]-> ImportCommand
        destroy ReturnCommand
        |||
    end
end

ImportCommand -> ImportCommand ++ : printResult()

ImportCommand - -> ImportCommand - - : message
create CommandResult
ImportCommand -> CommandResult ++ : message

CommandResult - -> ImportCommand - - : result

CommandResult -[hidden]-> ImportCommand
destroy CommandResult

ImportCommand - -> LogicManager - - : result

CommandResult -[hidden]-> ImportCommand
destroy ImportCommand

[<- -LogicManager
deactivate LogicManager

end
@enduml

PlantUML version 1.2020.03beta6(Unknown compile time)
(GPL source distribution)
Java Runtime: OpenJDK Runtime Environment
JVM: OpenJDK 64-Bit Server VM
Java Version: 11.0.5+10-b520.30
Operating System: Windows 10
Default Encoding: UTF-8
Language: en
Country: US
--></g></svg>
