<?xml version="1.0" encoding="UTF-8" standalone="no"?><svg xmlns="http://www.w3.org/2000/svg" xmlns:xlink="http://www.w3.org/1999/xlink" contentScriptType="application/ecmascript" contentStyleType="text/css" height="1105px" preserveAspectRatio="none" style="width:1608px;height:1105px;" version="1.1" viewBox="0 0 1608 1105" width="1608px" zoomAndPan="magnify"><defs/><g><rect fill="#C8C8FA" height="1083.6875" style="stroke: #A80036; stroke-width: 1.0;" width="1466" x="11" y="4"/><text fill="#FFFFFF" font-family="sans-serif" font-size="15" font-weight="bold" lengthAdjust="spacingAndGlyphs" textLength="39" x="722.5" y="19.5713">Logic</text><rect fill="#F97181" height="1083.6875" style="stroke: #A80036; stroke-width: 1.0;" width="92" x="1479" y="4"/><text fill="#FFFFFF" font-family="sans-serif" font-size="15" font-weight="bold" lengthAdjust="spacingAndGlyphs" textLength="44" x="1501" y="19.5713">Model</text><rect fill="#FFFFFF" height="999.2109" style="stroke: #A80036; stroke-width: 1.0;" width="10" x="74" y="69.4766"/><rect fill="#FFFFFF" height="923.5078" style="stroke: #A80036; stroke-width: 1.0;" width="10" x="270" y="117.1797"/><rect fill="#FFFFFF" height="41.3516" style="stroke: #A80036; stroke-width: 1.0;" width="10" x="275" y="875.0234"/><rect fill="#FFFFFF" height="32.6094" style="stroke: #A80036; stroke-width: 1.0;" width="10" x="491.5" y="191.8828"/><rect fill="#FFFFFF" height="103.3125" style="stroke: #A80036; stroke-width: 1.0;" width="10" x="491.5" y="254.8438"/><rect fill="#FFFFFF" height="32.6094" style="stroke: #A80036; stroke-width: 1.0;" width="10" x="684.5" y="514.6953"/><rect fill="#FFFFFF" height="103.3125" style="stroke: #A80036; stroke-width: 1.0;" width="10" x="684.5" y="577.6563"/><rect fill="#FFFFFF" height="32.6094" style="stroke: #A80036; stroke-width: 1.0;" width="10" x="906" y="295.1953"/><rect fill="#FFFFFF" height="58.3516" style="stroke: #A80036; stroke-width: 1.0;" width="10" x="906" y="402.5078"/><rect fill="#FFFFFF" height="32.6094" style="stroke: #A80036; stroke-width: 1.0;" width="10" x="1157.5" y="618.0078"/><rect fill="#FFFFFF" height="58.3516" style="stroke: #A80036; stroke-width: 1.0;" width="10" x="1157.5" y="725.3203"/><rect fill="#FFFFFF" height="32.6094" style="stroke: #A80036; stroke-width: 1.0;" width="10" x="1379.5" y="963.7266"/><rect fill="#FFFFFF" height="14" style="stroke: #A80036; stroke-width: 1.0;" width="10" x="1520" y="432.8594"/><rect fill="#FFFFFF" height="14" style="stroke: #A80036; stroke-width: 1.0;" width="10" x="1520" y="755.6719"/><rect fill="#FFFFFF" height="1000.2109" style="stroke: #000000; stroke-width: 2.0;" width="1591" x="6" y="76.4766"/><rect fill="#FFFFFF" height="705.4922" style="stroke: #000000; stroke-width: 2.0;" width="1454" x="133" y="132.1797"/><rect fill="#FFFFFF" height="673.1406" style="stroke: #000000; stroke-width: 2.0;" width="1434" x="143" y="157.5313"/><rect fill="#3333C4" height="31.6094" style="stroke: #A80036; stroke-width: 1.5;" width="159" x="417" y="175.8828"/><text fill="#FFFFFF" font-family="sans-serif" font-size="14" lengthAdjust="spacingAndGlyphs" textLength="145" x="424" y="197.416">:InsertCommandParser</text><rect fill="#3333C4" height="31.6094" style="stroke: #A80036; stroke-width: 1.5;" width="216" x="803" y="262.8438"/><text fill="#FFFFFF" font-family="sans-serif" font-size="14" lengthAdjust="spacingAndGlyphs" textLength="202" x="810" y="284.377">insertCommand:InsertCommand</text><rect fill="#FFFFFF" height="347.8125" style="stroke: none; stroke-width: 1.0;" width="1434" x="143" y="482.8594"/><rect fill="#3333C4" height="31.6094" style="stroke: #A80036; stroke-width: 1.5;" width="167" x="606" y="498.6953"/><text fill="#FFFFFF" font-family="sans-serif" font-size="14" lengthAdjust="spacingAndGlyphs" textLength="153" x="613" y="520.2285">:ReturnCommandParser</text><rect fill="#3333C4" height="31.6094" style="stroke: #A80036; stroke-width: 1.5;" width="227" x="1049" y="585.6563"/><text fill="#FFFFFF" font-family="sans-serif" font-size="14" lengthAdjust="spacingAndGlyphs" textLength="213" x="1056" y="607.1895">returnCommand:ReturnCommand</text><rect fill="#3333C4" height="31.6094" style="stroke: #A80036; stroke-width: 1.5;" width="157" x="1306" y="931.375"/><text fill="#FFFFFF" font-family="sans-serif" font-size="14" lengthAdjust="spacingAndGlyphs" textLength="143" x="1313" y="952.9082">result:CommandResult</text><line style="stroke: #A80036; stroke-width: 1.0; stroke-dasharray: 5.0,5.0;" x1="79" x2="79" y1="59.4766" y2="1093.6875"/><line style="stroke: #A80036; stroke-width: 1.0; stroke-dasharray: 5.0,5.0;" x1="275" x2="275" y1="59.4766" y2="1093.6875"/><line style="stroke: #A80036; stroke-width: 1.0; stroke-dasharray: 5.0,5.0;" x1="496" x2="496" y1="207.1875" y2="1093.6875"/><line style="stroke: #A80036; stroke-width: 1.0; stroke-dasharray: 5.0,5.0;" x1="689" x2="689" y1="530" y2="1093.6875"/><line style="stroke: #A80036; stroke-width: 1.0; stroke-dasharray: 5.0,5.0;" x1="911" x2="911" y1="294.1484" y2="1093.6875"/><line style="stroke: #A80036; stroke-width: 1.0; stroke-dasharray: 5.0,5.0;" x1="1162" x2="1162" y1="616.9609" y2="1093.6875"/><line style="stroke: #A80036; stroke-width: 1.0; stroke-dasharray: 5.0,5.0;" x1="1384" x2="1384" y1="962.6797" y2="1093.6875"/><line style="stroke: #A80036; stroke-width: 1.0; stroke-dasharray: 5.0,5.0;" x1="1525" x2="1525" y1="59.4766" y2="1093.6875"/><rect fill="#3333C4" height="31.6094" style="stroke: #A80036; stroke-width: 1.5;" width="108" x="25" y="26.8672"/><text fill="#FFFFFF" font-family="sans-serif" font-size="14" lengthAdjust="spacingAndGlyphs" textLength="94" x="32" y="48.4004">:LogicManager</text><rect fill="#3333C4" height="31.6094" style="stroke: #A80036; stroke-width: 1.5;" width="224" x="163" y="26.8672"/><text fill="#FFFFFF" font-family="sans-serif" font-size="14" lengthAdjust="spacingAndGlyphs" textLength="210" x="170" y="48.4004">importCommand:ImportCommand</text><rect fill="#9D0012" height="31.6094" style="stroke: #A80036; stroke-width: 1.5;" width="64" x="1493" y="26.8672"/><text fill="#FFFFFF" font-family="sans-serif" font-size="14" lengthAdjust="spacingAndGlyphs" textLength="42" x="1504" y="48.4004">:Model</text><rect fill="#FFFFFF" height="999.2109" style="stroke: #A80036; stroke-width: 1.0;" width="10" x="74" y="69.4766"/><rect fill="#FFFFFF" height="923.5078" style="stroke: #A80036; stroke-width: 1.0;" width="10" x="270" y="117.1797"/><rect fill="#FFFFFF" height="41.3516" style="stroke: #A80036; stroke-width: 1.0;" width="10" x="275" y="875.0234"/><rect fill="#FFFFFF" height="32.6094" style="stroke: #A80036; stroke-width: 1.0;" width="10" x="491.5" y="191.8828"/><rect fill="#FFFFFF" height="103.3125" style="stroke: #A80036; stroke-width: 1.0;" width="10" x="491.5" y="254.8438"/><rect fill="#FFFFFF" height="32.6094" style="stroke: #A80036; stroke-width: 1.0;" width="10" x="684.5" y="514.6953"/><rect fill="#FFFFFF" height="103.3125" style="stroke: #A80036; stroke-width: 1.0;" width="10" x="684.5" y="577.6563"/><rect fill="#FFFFFF" height="32.6094" style="stroke: #A80036; stroke-width: 1.0;" width="10" x="906" y="295.1953"/><rect fill="#FFFFFF" height="58.3516" style="stroke: #A80036; stroke-width: 1.0;" width="10" x="906" y="402.5078"/><rect fill="#FFFFFF" height="32.6094" style="stroke: #A80036; stroke-width: 1.0;" width="10" x="1157.5" y="618.0078"/><rect fill="#FFFFFF" height="58.3516" style="stroke: #A80036; stroke-width: 1.0;" width="10" x="1157.5" y="725.3203"/><rect fill="#FFFFFF" height="32.6094" style="stroke: #A80036; stroke-width: 1.0;" width="10" x="1379.5" y="963.7266"/><rect fill="#FFFFFF" height="14" style="stroke: #A80036; stroke-width: 1.0;" width="10" x="1520" y="432.8594"/><rect fill="#FFFFFF" height="14" style="stroke: #A80036; stroke-width: 1.0;" width="10" x="1520" y="755.6719"/><path d="M6,76.4766 L412,76.4766 L412,84.4766 L402,94.4766 L6,94.4766 L6,76.4766 " fill="#EEEEEE" style="stroke: #000000; stroke-width: 1.0;"/><rect fill="none" height="1000.2109" style="stroke: #000000; stroke-width: 2.0;" width="1591" x="6" y="76.4766"/><text fill="#000000" font-family="sans-serif" font-size="13" font-weight="bold" lengthAdjust="spacingAndGlyphs" textLength="361" x="21" y="90.9717">sd Execution of the Import Command Sequence Diagram</text><polygon fill="#A80036" points="258,113.1797,268,117.1797,258,121.1797,262,117.1797" style="stroke: #A80036; stroke-width: 1.0;"/><line style="stroke: #A80036; stroke-width: 1.0;" x1="84" x2="264" y1="117.1797" y2="117.1797"/><text fill="#000000" font-family="sans-serif" font-size="13" lengthAdjust="spacingAndGlyphs" textLength="89" x="132.5" y="112.3232">execute(model)</text><path d="M133,132.1797 L206,132.1797 L206,140.1797 L196,150.1797 L133,150.1797 L133,132.1797 " fill="#EEEEEE" style="stroke: #000000; stroke-width: 1.0;"/><rect fill="none" height="705.4922" style="stroke: #000000; stroke-width: 2.0;" width="1454" x="133" y="132.1797"/><text fill="#000000" font-family="sans-serif" font-size="13" font-weight="bold" lengthAdjust="spacingAndGlyphs" textLength="28" x="148" y="146.6748">loop</text><text fill="#000000" font-family="sans-serif" font-size="11" font-weight="bold" lengthAdjust="spacingAndGlyphs" textLength="289" x="221" y="145.5986">[until every String data in ordersData are processed]</text><path d="M143,157.5313 L204,157.5313 L204,165.5313 L194,175.5313 L143,175.5313 L143,157.5313 " fill="#EEEEEE" style="stroke: #000000; stroke-width: 1.0;"/><rect fill="none" height="673.1406" style="stroke: #000000; stroke-width: 2.0;" width="1434" x="143" y="157.5313"/><text fill="#000000" font-family="sans-serif" font-size="13" font-weight="bold" lengthAdjust="spacingAndGlyphs" textLength="16" x="158" y="172.0264">alt</text><text fill="#000000" font-family="sans-serif" font-size="11" font-weight="bold" lengthAdjust="spacingAndGlyphs" textLength="128" x="219" y="170.9502">[data starts with order]</text><polygon fill="#A80036" points="405,177.8828,415,181.8828,405,185.8828,409,181.8828" style="stroke: #A80036; stroke-width: 1.0;"/><line style="stroke: #A80036; stroke-width: 1.0;" x1="280" x2="411" y1="181.8828" y2="181.8828"/><rect fill="#3333C4" height="31.6094" style="stroke: #A80036; stroke-width: 1.5;" width="159" x="417" y="175.8828"/><text fill="#FFFFFF" font-family="sans-serif" font-size="14" lengthAdjust="spacingAndGlyphs" textLength="145" x="424" y="197.416">:InsertCommandParser</text><polygon fill="#A80036" points="291,220.4922,281,224.4922,291,228.4922,287,224.4922" style="stroke: #A80036; stroke-width: 1.0;"/><line style="stroke: #A80036; stroke-width: 1.0; stroke-dasharray: 2.0,2.0;" x1="285" x2="495.5" y1="224.4922" y2="224.4922"/><polygon fill="#A80036" points="479.5,250.8438,489.5,254.8438,479.5,258.8438,483.5,254.8438" style="stroke: #A80036; stroke-width: 1.0;"/><line style="stroke: #A80036; stroke-width: 1.0;" x1="280" x2="485.5" y1="254.8438" y2="254.8438"/><text fill="#000000" font-family="sans-serif" font-size="13" lengthAdjust="spacingAndGlyphs" textLength="65" x="353.25" y="249.9873">parse(data)</text><polygon fill="#A80036" points="791,281.1953,801,285.1953,791,289.1953,795,285.1953" style="stroke: #A80036; stroke-width: 1.0;"/><line style="stroke: #A80036; stroke-width: 1.0;" x1="501.5" x2="797" y1="285.1953" y2="285.1953"/><text fill="#000000" font-family="sans-serif" font-size="13" lengthAdjust="spacingAndGlyphs" textLength="25" x="639.75" y="280.3389">data</text><rect fill="#3333C4" height="31.6094" style="stroke: #A80036; stroke-width: 1.5;" width="216" x="803" y="262.8438"/><text fill="#FFFFFF" font-family="sans-serif" font-size="14" lengthAdjust="spacingAndGlyphs" textLength="202" x="810" y="284.377">insertCommand:InsertCommand</text><polygon fill="#A80036" points="512.5,323.8047,502.5,327.8047,512.5,331.8047,508.5,327.8047" style="stroke: #A80036; stroke-width: 1.0;"/><line style="stroke: #A80036; stroke-width: 1.0; stroke-dasharray: 2.0,2.0;" x1="506.5" x2="910" y1="327.8047" y2="327.8047"/><text fill="#000000" font-family="sans-serif" font-size="13" lengthAdjust="spacingAndGlyphs" textLength="91" x="660.75" y="322.9482">insertCommand</text><polygon fill="#A80036" points="291,354.1563,281,358.1563,291,362.1563,287,358.1563" style="stroke: #A80036; stroke-width: 1.0;"/><line style="stroke: #A80036; stroke-width: 1.0; stroke-dasharray: 2.0,2.0;" x1="285" x2="495.5" y1="358.1563" y2="358.1563"/><text fill="#000000" font-family="sans-serif" font-size="13" lengthAdjust="spacingAndGlyphs" textLength="91" x="342.75" y="353.2998">insertCommand</text><line style="stroke: #A80036; stroke-width: 2.0;" x1="487.5" x2="505.5" y1="363.1563" y2="381.1563"/><line style="stroke: #A80036; stroke-width: 2.0;" x1="487.5" x2="505.5" y1="381.1563" y2="363.1563"/><polygon fill="#A80036" points="894,398.5078,904,402.5078,894,406.5078,898,402.5078" style="stroke: #A80036; stroke-width: 1.0;"/><line style="stroke: #A80036; stroke-width: 1.0;" x1="280" x2="900" y1="402.5078" y2="402.5078"/><text fill="#000000" font-family="sans-serif" font-size="13" lengthAdjust="spacingAndGlyphs" textLength="89" x="548.5" y="397.6514">execute(Model)</text><polygon fill="#A80036" points="1508,428.8594,1518,432.8594,1508,436.8594,1512,432.8594" style="stroke: #A80036; stroke-width: 1.0;"/><line style="stroke: #A80036; stroke-width: 1.0;" x1="916" x2="1514" y1="432.8594" y2="432.8594"/><text fill="#000000" font-family="sans-serif" font-size="13" lengthAdjust="spacingAndGlyphs" textLength="95" x="1170.5" y="428.0029">addOrder(toAdd)</text><polygon fill="#A80036" points="927,442.8594,917,446.8594,927,450.8594,923,446.8594" style="stroke: #A80036; stroke-width: 1.0;"/><line style="stroke: #A80036; stroke-width: 1.0; stroke-dasharray: 2.0,2.0;" x1="921" x2="1524" y1="446.8594" y2="446.8594"/><polygon fill="#A80036" points="291,456.8594,281,460.8594,291,464.8594,287,460.8594" style="stroke: #A80036; stroke-width: 1.0;"/><line style="stroke: #A80036; stroke-width: 1.0; stroke-dasharray: 2.0,2.0;" x1="285" x2="910" y1="460.8594" y2="460.8594"/><line style="stroke: #A80036; stroke-width: 2.0;" x1="902" x2="920" y1="465.8594" y2="483.8594"/><line style="stroke: #A80036; stroke-width: 2.0;" x1="902" x2="920" y1="483.8594" y2="465.8594"/><line style="stroke: #000000; stroke-width: 1.0; stroke-dasharray: 2.0,2.0;" x1="143" x2="1577" y1="483.8594" y2="483.8594"/><text fill="#000000" font-family="sans-serif" font-size="11" font-weight="bold" lengthAdjust="spacingAndGlyphs" textLength="132" x="148" y="495.2783">[data starts with return]</text><polygon fill="#A80036" points="594,500.6953,604,504.6953,594,508.6953,598,504.6953" style="stroke: #A80036; stroke-width: 1.0;"/><line style="stroke: #A80036; stroke-width: 1.0;" x1="280" x2="600" y1="504.6953" y2="504.6953"/><rect fill="#3333C4" height="31.6094" style="stroke: #A80036; stroke-width: 1.5;" width="167" x="606" y="498.6953"/><text fill="#FFFFFF" font-family="sans-serif" font-size="14" lengthAdjust="spacingAndGlyphs" textLength="153" x="613" y="520.2285">:ReturnCommandParser</text><polygon fill="#A80036" points="291,543.3047,281,547.3047,291,551.3047,287,547.3047" style="stroke: #A80036; stroke-width: 1.0;"/><line style="stroke: #A80036; stroke-width: 1.0; stroke-dasharray: 2.0,2.0;" x1="285" x2="688.5" y1="547.3047" y2="547.3047"/><polygon fill="#A80036" points="672.5,573.6563,682.5,577.6563,672.5,581.6563,676.5,577.6563" style="stroke: #A80036; stroke-width: 1.0;"/><line style="stroke: #A80036; stroke-width: 1.0;" x1="280" x2="678.5" y1="577.6563" y2="577.6563"/><text fill="#000000" font-family="sans-serif" font-size="13" lengthAdjust="spacingAndGlyphs" textLength="65" x="449.75" y="572.7998">parse(data)</text><polygon fill="#A80036" points="1037,604.0078,1047,608.0078,1037,612.0078,1041,608.0078" style="stroke: #A80036; stroke-width: 1.0;"/><line style="stroke: #A80036; stroke-width: 1.0;" x1="694.5" x2="1043" y1="608.0078" y2="608.0078"/><text fill="#000000" font-family="sans-serif" font-size="13" lengthAdjust="spacingAndGlyphs" textLength="25" x="859.25" y="603.1514">data</text><rect fill="#3333C4" height="31.6094" style="stroke: #A80036; stroke-width: 1.5;" width="227" x="1049" y="585.6563"/><text fill="#FFFFFF" font-family="sans-serif" font-size="14" lengthAdjust="spacingAndGlyphs" textLength="213" x="1056" y="607.1895">returnCommand:ReturnCommand</text><polygon fill="#A80036" points="705.5,646.6172,695.5,650.6172,705.5,654.6172,701.5,650.6172" style="stroke: #A80036; stroke-width: 1.0;"/><line style="stroke: #A80036; stroke-width: 1.0; stroke-dasharray: 2.0,2.0;" x1="699.5" x2="1161.5" y1="650.6172" y2="650.6172"/><text fill="#000000" font-family="sans-serif" font-size="13" lengthAdjust="spacingAndGlyphs" textLength="92" x="882.5" y="645.7607">returnCommand</text><polygon fill="#A80036" points="291,676.9688,281,680.9688,291,684.9688,287,680.9688" style="stroke: #A80036; stroke-width: 1.0;"/><line style="stroke: #A80036; stroke-width: 1.0; stroke-dasharray: 2.0,2.0;" x1="285" x2="688.5" y1="680.9688" y2="680.9688"/><text fill="#000000" font-family="sans-serif" font-size="13" lengthAdjust="spacingAndGlyphs" textLength="92" x="438.75" y="676.1123">returnCommand</text><line style="stroke: #A80036; stroke-width: 2.0;" x1="680.5" x2="698.5" y1="685.9688" y2="703.9688"/><line style="stroke: #A80036; stroke-width: 2.0;" x1="680.5" x2="698.5" y1="703.9688" y2="685.9688"/><polygon fill="#A80036" points="1145.5,721.3203,1155.5,725.3203,1145.5,729.3203,1149.5,725.3203" style="stroke: #A80036; stroke-width: 1.0;"/><line style="stroke: #A80036; stroke-width: 1.0;" x1="280" x2="1151.5" y1="725.3203" y2="725.3203"/><text fill="#000000" font-family="sans-serif" font-size="13" lengthAdjust="spacingAndGlyphs" textLength="89" x="674.25" y="720.4639">execute(Model)</text><polygon fill="#A80036" points="1508,751.6719,1518,755.6719,1508,759.6719,1512,755.6719" style="stroke: #A80036; stroke-width: 1.0;"/><line style="stroke: #A80036; stroke-width: 1.0;" x1="1167.5" x2="1514" y1="755.6719" y2="755.6719"/><text fill="#000000" font-family="sans-serif" font-size="13" lengthAdjust="spacingAndGlyphs" textLength="171" x="1258.25" y="750.8154">addReturnOrder(toBeCreated)</text><polygon fill="#A80036" points="1178.5,765.6719,1168.5,769.6719,1178.5,773.6719,1174.5,769.6719" style="stroke: #A80036; stroke-width: 1.0;"/><line style="stroke: #A80036; stroke-width: 1.0; stroke-dasharray: 2.0,2.0;" x1="1172.5" x2="1524" y1="769.6719" y2="769.6719"/><polygon fill="#A80036" points="291,779.6719,281,783.6719,291,787.6719,287,783.6719" style="stroke: #A80036; stroke-width: 1.0;"/><line style="stroke: #A80036; stroke-width: 1.0; stroke-dasharray: 2.0,2.0;" x1="285" x2="1161.5" y1="783.6719" y2="783.6719"/><line style="stroke: #A80036; stroke-width: 2.0;" x1="1153.5" x2="1171.5" y1="788.6719" y2="806.6719"/><line style="stroke: #A80036; stroke-width: 2.0;" x1="1153.5" x2="1171.5" y1="806.6719" y2="788.6719"/><line style="stroke: #A80036; stroke-width: 1.0;" x1="280" x2="327" y1="862.0234" y2="862.0234"/><line style="stroke: #A80036; stroke-width: 1.0;" x1="327" x2="327" y1="862.0234" y2="875.0234"/><line style="stroke: #A80036; stroke-width: 1.0;" x1="286" x2="327" y1="875.0234" y2="875.0234"/><polygon fill="#A80036" points="296,871.0234,286,875.0234,296,879.0234,292,875.0234" style="stroke: #A80036; stroke-width: 1.0;"/><text fill="#000000" font-family="sans-serif" font-size="13" lengthAdjust="spacingAndGlyphs" textLength="70" x="292" y="857.167">printResult()</text><line style="stroke: #A80036; stroke-width: 1.0; stroke-dasharray: 2.0,2.0;" x1="285" x2="327" y1="915.375" y2="915.375"/><line style="stroke: #A80036; stroke-width: 1.0; stroke-dasharray: 2.0,2.0;" x1="327" x2="327" y1="915.375" y2="928.375"/><line style="stroke: #A80036; stroke-width: 1.0; stroke-dasharray: 2.0,2.0;" x1="280" x2="327" y1="928.375" y2="928.375"/><polygon fill="#A80036" points="290,924.375,280,928.375,290,932.375,286,928.375" style="stroke: #A80036; stroke-width: 1.0;"/><text fill="#000000" font-family="sans-serif" font-size="13" lengthAdjust="spacingAndGlyphs" textLength="53" x="292" y="910.5186">message</text><polygon fill="#A80036" points="1294,949.7266,1304,953.7266,1294,957.7266,1298,953.7266" style="stroke: #A80036; stroke-width: 1.0;"/><line style="stroke: #A80036; stroke-width: 1.0;" x1="280" x2="1300" y1="953.7266" y2="953.7266"/><text fill="#000000" font-family="sans-serif" font-size="13" lengthAdjust="spacingAndGlyphs" textLength="53" x="766.5" y="948.8701">message</text><rect fill="#3333C4" height="31.6094" style="stroke: #A80036; stroke-width: 1.5;" width="157" x="1306" y="931.375"/><text fill="#FFFFFF" font-family="sans-serif" font-size="14" lengthAdjust="spacingAndGlyphs" textLength="143" x="1313" y="952.9082">result:CommandResult</text><polygon fill="#A80036" points="291,992.3359,281,996.3359,291,1000.3359,287,996.3359" style="stroke: #A80036; stroke-width: 1.0;"/><line style="stroke: #A80036; stroke-width: 1.0; stroke-dasharray: 2.0,2.0;" x1="285" x2="1383.5" y1="996.3359" y2="996.3359"/><text fill="#000000" font-family="sans-serif" font-size="13" lengthAdjust="spacingAndGlyphs" textLength="32" x="816.25" y="991.4795">result</text><line style="stroke: #A80036; stroke-width: 2.0;" x1="1375.5" x2="1393.5" y1="1001.3359" y2="1019.3359"/><line style="stroke: #A80036; stroke-width: 2.0;" x1="1375.5" x2="1393.5" y1="1019.3359" y2="1001.3359"/><polygon fill="#A80036" points="95,1036.6875,85,1040.6875,95,1044.6875,91,1040.6875" style="stroke: #A80036; stroke-width: 1.0;"/><line style="stroke: #A80036; stroke-width: 1.0; stroke-dasharray: 2.0,2.0;" x1="89" x2="274" y1="1040.6875" y2="1040.6875"/><text fill="#000000" font-family="sans-serif" font-size="13" lengthAdjust="spacingAndGlyphs" textLength="32" x="163.5" y="1035.8311">result</text><line style="stroke: #A80036; stroke-width: 2.0;" x1="266" x2="284" y1="1045.6875" y2="1063.6875"/><line style="stroke: #A80036; stroke-width: 2.0;" x1="266" x2="284" y1="1063.6875" y2="1045.6875"/><polygon fill="#A80036" points="14,1064.6875,4,1068.6875,14,1072.6875,10,1068.6875" style="stroke: #A80036; stroke-width: 1.0;"/><line style="stroke: #A80036; stroke-width: 1.0; stroke-dasharray: 2.0,2.0;" x1="8" x2="78" y1="1068.6875" y2="1068.6875"/><!--MD5=[605f04f49ac8a704b732971d830b5d9e]
@startuml








skinparam BackgroundColor #FFFFFFF

skinparam Shadowing false

skinparam Class {
    FontColor #FFFFFF
    BorderThickness 1
    BorderColor #FFFFFF
    StereotypeFontColor #FFFFFF
    FontName Arial
}

skinparam Actor {
    BorderColor #000000
    Color #000000
    FontName Arial
}

skinparam Sequence {
    MessageAlign center
    BoxFontSize 15
    BoxPadding 0
    BoxFontColor #FFFFFF
    FontName Arial
}

skinparam Participant {
    FontColor #FFFFFFF
    Padding 20
}

skinparam MinClassWidth 50
skinparam ParticipantPadding 10
skinparam Shadowing false
skinparam DefaultTextAlignment center
skinparam packageStyle Rectangle

hide footbox
hide members
hide circle
box Logic #C8C8FA
participant ":LogicManager" as LogicManager #3333C4
participant "importCommand:ImportCommand" as ImportCommand #3333C4
participant ":InsertCommandParser" as InsertCommandParser #3333C4
participant ":ReturnCommandParser" as ReturnCommandParser #3333C4
participant "insertCommand:InsertCommand" as InsertCommand #3333C4
participant "returnCommand:ReturnCommand" as ReturnCommand #3333C4
participant "result:CommandResult" as CommandResult #3333C4
end box

box Model #F97181
participant ":Model" as Model #9D0012
end box
activate LogicManager

group sd Execution of the Import Command Sequence Diagram

LogicManager -> ImportCommand : execute(model)
activate ImportCommand

loop until every String data in ordersData are processed
    alt data starts with order
        create InsertCommandParser
        ImportCommand -> InsertCommandParser ++

        InsertCommandParser - -> ImportCommand - -

        ImportCommand -> InsertCommandParser ++ : parse(data)

        create InsertCommand
        InsertCommandParser -> InsertCommand ++ : data

        InsertCommand - -> InsertCommandParser - - : insertCommand

        InsertCommandParser - -> ImportCommand - - : insertCommand

        InsertCommandParser -[hidden]-> ImportCommand
        destroy InsertCommandParser

        ImportCommand -> InsertCommand ++ : execute(Model)

        InsertCommand -> Model++ : addOrder(toAdd)

        Model - -> InsertCommand- -

        InsertCommand - -> ImportCommand - -

        InsertCommand -[hidden]-> ImportCommand
        destroy InsertCommand

    else data starts with return
        create ReturnCommandParser
        ImportCommand -> ReturnCommandParser ++

        ReturnCommandParser - -> ImportCommand - -

        ImportCommand -> ReturnCommandParser ++ : parse(data)

        create ReturnCommand
        ReturnCommandParser -> ReturnCommand ++ : data

        ReturnCommand - -> ReturnCommandParser - - : returnCommand

        ReturnCommandParser - -> ImportCommand - - : returnCommand
        ReturnCommandParser -[hidden]-> ImportCommand
        destroy ReturnCommandParser

        ImportCommand -> ReturnCommand ++ : execute(Model)

        ReturnCommand -> Model++ : addReturnOrder(toBeCreated)

        Model - -> ReturnCommand- -
        ReturnCommand - -> ImportCommand - -

        ReturnCommand -[hidden]-> ImportCommand
        destroy ReturnCommand
        |||
    end
end

ImportCommand -> ImportCommand ++ : printResult()

ImportCommand - -> ImportCommand - - : message
create CommandResult
ImportCommand -> CommandResult ++ : message

CommandResult - -> ImportCommand - - : result

CommandResult -[hidden]-> ImportCommand
destroy CommandResult

ImportCommand - -> LogicManager - - : result

CommandResult -[hidden]-> ImportCommand
destroy ImportCommand

[<- -LogicManager
deactivate LogicManager

end
@enduml

PlantUML version 1.2019.11(Sun Sep 22 18:02:15 SGT 2019)
(GPL source distribution)
Java Runtime: OpenJDK Runtime Environment
JVM: OpenJDK 64-Bit Server VM
Java Version: 11.0.5+10-b520.30
Operating System: Windows 10
Default Encoding: UTF-8
Language: en
Country: US
--></g></svg>
