<?xml version="1.0" encoding="UTF-8" standalone="no"?><svg xmlns="http://www.w3.org/2000/svg" xmlns:xlink="http://www.w3.org/1999/xlink" contentScriptType="application/ecmascript" contentStyleType="text/css" height="1122px" preserveAspectRatio="none" style="width:1616px;height:1122px;" version="1.1" viewBox="0 0 1616 1122" width="1616px" zoomAndPan="magnify"><defs/><g><rect fill="#C8C8FA" height="1100.0391" style="stroke: #A80036; stroke-width: 1.0;" width="1466" x="19" y="4"/><text fill="#FFFFFF" font-family="sans-serif" font-size="15" font-weight="bold" lengthAdjust="spacingAndGlyphs" textLength="39" x="730.5" y="19.5713">Logic</text><rect fill="#F97181" height="1100.0391" style="stroke: #A80036; stroke-width: 1.0;" width="92" x="1487" y="4"/><text fill="#FFFFFF" font-family="sans-serif" font-size="15" font-weight="bold" lengthAdjust="spacingAndGlyphs" textLength="44" x="1509" y="19.5713">Model</text><rect fill="#FFFFFF" height="1015.5625" style="stroke: #A80036; stroke-width: 1.0;" width="10" x="82" y="69.4766"/><rect fill="#FFFFFF" height="923.5078" style="stroke: #A80036; stroke-width: 1.0;" width="10" x="278" y="117.1797"/><rect fill="#FFFFFF" height="41.3516" style="stroke: #A80036; stroke-width: 1.0;" width="10" x="283" y="875.0234"/><rect fill="#FFFFFF" height="32.6094" style="stroke: #A80036; stroke-width: 1.0;" width="10" x="499.5" y="191.8828"/><rect fill="#FFFFFF" height="103.3125" style="stroke: #A80036; stroke-width: 1.0;" width="10" x="499.5" y="254.8438"/><rect fill="#FFFFFF" height="32.6094" style="stroke: #A80036; stroke-width: 1.0;" width="10" x="692.5" y="514.6953"/><rect fill="#FFFFFF" height="103.3125" style="stroke: #A80036; stroke-width: 1.0;" width="10" x="692.5" y="577.6563"/><rect fill="#FFFFFF" height="32.6094" style="stroke: #A80036; stroke-width: 1.0;" width="10" x="914" y="295.1953"/><rect fill="#FFFFFF" height="58.3516" style="stroke: #A80036; stroke-width: 1.0;" width="10" x="914" y="402.5078"/><rect fill="#FFFFFF" height="32.6094" style="stroke: #A80036; stroke-width: 1.0;" width="10" x="1165.5" y="618.0078"/><rect fill="#FFFFFF" height="58.3516" style="stroke: #A80036; stroke-width: 1.0;" width="10" x="1165.5" y="725.3203"/><rect fill="#FFFFFF" height="32.6094" style="stroke: #A80036; stroke-width: 1.0;" width="10" x="1387.5" y="963.7266"/><rect fill="#FFFFFF" height="14" style="stroke: #A80036; stroke-width: 1.0;" width="10" x="1528" y="432.8594"/><rect fill="#FFFFFF" height="14" style="stroke: #A80036; stroke-width: 1.0;" width="10" x="1528" y="755.6719"/><rect fill="#FFFFFF" height="1016.5625" style="stroke: #000000; stroke-width: 2.0;" width="1592" x="13" y="76.4766"/><rect fill="#FFFFFF" height="705.4922" style="stroke: #000000; stroke-width: 2.0;" width="1454" x="141" y="132.1797"/><rect fill="#FFFFFF" height="673.1406" style="stroke: #000000; stroke-width: 2.0;" width="1434" x="151" y="157.5313"/><rect fill="#3333C4" height="31.6094" style="stroke: #A80036; stroke-width: 1.5;" width="159" x="425" y="175.8828"/><text fill="#FFFFFF" font-family="sans-serif" font-size="14" lengthAdjust="spacingAndGlyphs" textLength="145" x="432" y="197.416">:InsertCommandParser</text><rect fill="#3333C4" height="31.6094" style="stroke: #A80036; stroke-width: 1.5;" width="216" x="811" y="262.8438"/><text fill="#FFFFFF" font-family="sans-serif" font-size="14" lengthAdjust="spacingAndGlyphs" textLength="202" x="818" y="284.377">insertCommand:InsertCommand</text><rect fill="#FFFFFF" height="347.8125" style="stroke: none; stroke-width: 1.0;" width="1434" x="151" y="482.8594"/><rect fill="#3333C4" height="31.6094" style="stroke: #A80036; stroke-width: 1.5;" width="167" x="614" y="498.6953"/><text fill="#FFFFFF" font-family="sans-serif" font-size="14" lengthAdjust="spacingAndGlyphs" textLength="153" x="621" y="520.2285">:ReturnCommandParser</text><rect fill="#3333C4" height="31.6094" style="stroke: #A80036; stroke-width: 1.5;" width="227" x="1057" y="585.6563"/><text fill="#FFFFFF" font-family="sans-serif" font-size="14" lengthAdjust="spacingAndGlyphs" textLength="213" x="1064" y="607.1895">returnCommand:ReturnCommand</text><rect fill="#3333C4" height="31.6094" style="stroke: #A80036; stroke-width: 1.5;" width="157" x="1314" y="931.375"/><text fill="#FFFFFF" font-family="sans-serif" font-size="14" lengthAdjust="spacingAndGlyphs" textLength="143" x="1321" y="952.9082">result:CommandResult</text><line style="stroke: #A80036; stroke-width: 1.0; stroke-dasharray: 5.0,5.0;" x1="87" x2="87" y1="59.4766" y2="1110.0391"/><line style="stroke: #A80036; stroke-width: 1.0; stroke-dasharray: 5.0,5.0;" x1="283" x2="283" y1="59.4766" y2="1110.0391"/><line style="stroke: #A80036; stroke-width: 1.0; stroke-dasharray: 5.0,5.0;" x1="504" x2="504" y1="207.1875" y2="1110.0391"/><line style="stroke: #A80036; stroke-width: 1.0; stroke-dasharray: 5.0,5.0;" x1="697" x2="697" y1="530" y2="1110.0391"/><line style="stroke: #A80036; stroke-width: 1.0; stroke-dasharray: 5.0,5.0;" x1="919" x2="919" y1="294.1484" y2="1110.0391"/><line style="stroke: #A80036; stroke-width: 1.0; stroke-dasharray: 5.0,5.0;" x1="1170" x2="1170" y1="616.9609" y2="1110.0391"/><line style="stroke: #A80036; stroke-width: 1.0; stroke-dasharray: 5.0,5.0;" x1="1392" x2="1392" y1="962.6797" y2="1110.0391"/><line style="stroke: #A80036; stroke-width: 1.0; stroke-dasharray: 5.0,5.0;" x1="1533" x2="1533" y1="59.4766" y2="1110.0391"/><rect fill="#3333C4" height="31.6094" style="stroke: #A80036; stroke-width: 1.5;" width="108" x="33" y="26.8672"/><text fill="#FFFFFF" font-family="sans-serif" font-size="14" lengthAdjust="spacingAndGlyphs" textLength="94" x="40" y="48.4004">:LogicManager</text><rect fill="#3333C4" height="31.6094" style="stroke: #A80036; stroke-width: 1.5;" width="224" x="171" y="26.8672"/><text fill="#FFFFFF" font-family="sans-serif" font-size="14" lengthAdjust="spacingAndGlyphs" textLength="210" x="178" y="48.4004">importCommand:ImportCommand</text><rect fill="#9D0012" height="31.6094" style="stroke: #A80036; stroke-width: 1.5;" width="64" x="1501" y="26.8672"/><text fill="#FFFFFF" font-family="sans-serif" font-size="14" lengthAdjust="spacingAndGlyphs" textLength="42" x="1512" y="48.4004">:Model</text><rect fill="#FFFFFF" height="1015.5625" style="stroke: #A80036; stroke-width: 1.0;" width="10" x="82" y="69.4766"/><rect fill="#FFFFFF" height="923.5078" style="stroke: #A80036; stroke-width: 1.0;" width="10" x="278" y="117.1797"/><rect fill="#FFFFFF" height="41.3516" style="stroke: #A80036; stroke-width: 1.0;" width="10" x="283" y="875.0234"/><rect fill="#FFFFFF" height="32.6094" style="stroke: #A80036; stroke-width: 1.0;" width="10" x="499.5" y="191.8828"/><rect fill="#FFFFFF" height="103.3125" style="stroke: #A80036; stroke-width: 1.0;" width="10" x="499.5" y="254.8438"/><rect fill="#FFFFFF" height="32.6094" style="stroke: #A80036; stroke-width: 1.0;" width="10" x="692.5" y="514.6953"/><rect fill="#FFFFFF" height="103.3125" style="stroke: #A80036; stroke-width: 1.0;" width="10" x="692.5" y="577.6563"/><rect fill="#FFFFFF" height="32.6094" style="stroke: #A80036; stroke-width: 1.0;" width="10" x="914" y="295.1953"/><rect fill="#FFFFFF" height="58.3516" style="stroke: #A80036; stroke-width: 1.0;" width="10" x="914" y="402.5078"/><rect fill="#FFFFFF" height="32.6094" style="stroke: #A80036; stroke-width: 1.0;" width="10" x="1165.5" y="618.0078"/><rect fill="#FFFFFF" height="58.3516" style="stroke: #A80036; stroke-width: 1.0;" width="10" x="1165.5" y="725.3203"/><rect fill="#FFFFFF" height="32.6094" style="stroke: #A80036; stroke-width: 1.0;" width="10" x="1387.5" y="963.7266"/><rect fill="#FFFFFF" height="14" style="stroke: #A80036; stroke-width: 1.0;" width="10" x="1528" y="432.8594"/><rect fill="#FFFFFF" height="14" style="stroke: #A80036; stroke-width: 1.0;" width="10" x="1528" y="755.6719"/><path d="M13,76.4766 L419,76.4766 L419,84.4766 L409,94.4766 L13,94.4766 L13,76.4766 " fill="#EEEEEE" style="stroke: #000000; stroke-width: 1.0;"/><rect fill="none" height="1016.5625" style="stroke: #000000; stroke-width: 2.0;" width="1592" x="13" y="76.4766"/><text fill="#000000" font-family="sans-serif" font-size="13" font-weight="bold" lengthAdjust="spacingAndGlyphs" textLength="361" x="28" y="90.9717">sd Execution of the Import Command Sequence Diagram</text><polygon fill="#A80036" points="266,113.1797,276,117.1797,266,121.1797,270,117.1797" style="stroke: #A80036; stroke-width: 1.0;"/><line style="stroke: #A80036; stroke-width: 1.0;" x1="92" x2="272" y1="117.1797" y2="117.1797"/><text fill="#000000" font-family="sans-serif" font-size="13" lengthAdjust="spacingAndGlyphs" textLength="89" x="140.5" y="112.3232">execute(model)</text><path d="M141,132.1797 L214,132.1797 L214,140.1797 L204,150.1797 L141,150.1797 L141,132.1797 " fill="#EEEEEE" style="stroke: #000000; stroke-width: 1.0;"/><rect fill="none" height="705.4922" style="stroke: #000000; stroke-width: 2.0;" width="1454" x="141" y="132.1797"/><text fill="#000000" font-family="sans-serif" font-size="13" font-weight="bold" lengthAdjust="spacingAndGlyphs" textLength="28" x="156" y="146.6748">loop</text><text fill="#000000" font-family="sans-serif" font-size="11" font-weight="bold" lengthAdjust="spacingAndGlyphs" textLength="289" x="229" y="145.5986">[until every String data in ordersData are processed]</text><path d="M151,157.5313 L212,157.5313 L212,165.5313 L202,175.5313 L151,175.5313 L151,157.5313 " fill="#EEEEEE" style="stroke: #000000; stroke-width: 1.0;"/><rect fill="none" height="673.1406" style="stroke: #000000; stroke-width: 2.0;" width="1434" x="151" y="157.5313"/><text fill="#000000" font-family="sans-serif" font-size="13" font-weight="bold" lengthAdjust="spacingAndGlyphs" textLength="16" x="166" y="172.0264">alt</text><text fill="#000000" font-family="sans-serif" font-size="11" font-weight="bold" lengthAdjust="spacingAndGlyphs" textLength="128" x="227" y="170.9502">[data starts with order]</text><polygon fill="#A80036" points="413,177.8828,423,181.8828,413,185.8828,417,181.8828" style="stroke: #A80036; stroke-width: 1.0;"/><line style="stroke: #A80036; stroke-width: 1.0;" x1="288" x2="419" y1="181.8828" y2="181.8828"/><rect fill="#3333C4" height="31.6094" style="stroke: #A80036; stroke-width: 1.5;" width="159" x="425" y="175.8828"/><text fill="#FFFFFF" font-family="sans-serif" font-size="14" lengthAdjust="spacingAndGlyphs" textLength="145" x="432" y="197.416">:InsertCommandParser</text><polygon fill="#A80036" points="299,220.4922,289,224.4922,299,228.4922,295,224.4922" style="stroke: #A80036; stroke-width: 1.0;"/><line style="stroke: #A80036; stroke-width: 1.0; stroke-dasharray: 2.0,2.0;" x1="293" x2="503.5" y1="224.4922" y2="224.4922"/><polygon fill="#A80036" points="487.5,250.8438,497.5,254.8438,487.5,258.8438,491.5,254.8438" style="stroke: #A80036; stroke-width: 1.0;"/><line style="stroke: #A80036; stroke-width: 1.0;" x1="288" x2="493.5" y1="254.8438" y2="254.8438"/><text fill="#000000" font-family="sans-serif" font-size="13" lengthAdjust="spacingAndGlyphs" textLength="65" x="361.25" y="249.9873">parse(data)</text><polygon fill="#A80036" points="799,281.1953,809,285.1953,799,289.1953,803,285.1953" style="stroke: #A80036; stroke-width: 1.0;"/><line style="stroke: #A80036; stroke-width: 1.0;" x1="509.5" x2="805" y1="285.1953" y2="285.1953"/><text fill="#000000" font-family="sans-serif" font-size="13" lengthAdjust="spacingAndGlyphs" textLength="25" x="647.75" y="280.3389">data</text><rect fill="#3333C4" height="31.6094" style="stroke: #A80036; stroke-width: 1.5;" width="216" x="811" y="262.8438"/><text fill="#FFFFFF" font-family="sans-serif" font-size="14" lengthAdjust="spacingAndGlyphs" textLength="202" x="818" y="284.377">insertCommand:InsertCommand</text><polygon fill="#A80036" points="520.5,323.8047,510.5,327.8047,520.5,331.8047,516.5,327.8047" style="stroke: #A80036; stroke-width: 1.0;"/><line style="stroke: #A80036; stroke-width: 1.0; stroke-dasharray: 2.0,2.0;" x1="514.5" x2="918" y1="327.8047" y2="327.8047"/><text fill="#000000" font-family="sans-serif" font-size="13" lengthAdjust="spacingAndGlyphs" textLength="91" x="668.75" y="322.9482">insertCommand</text><polygon fill="#A80036" points="299,354.1563,289,358.1563,299,362.1563,295,358.1563" style="stroke: #A80036; stroke-width: 1.0;"/><line style="stroke: #A80036; stroke-width: 1.0; stroke-dasharray: 2.0,2.0;" x1="293" x2="503.5" y1="358.1563" y2="358.1563"/><text fill="#000000" font-family="sans-serif" font-size="13" lengthAdjust="spacingAndGlyphs" textLength="91" x="350.75" y="353.2998">insertCommand</text><line style="stroke: #A80036; stroke-width: 2.0;" x1="495.5" x2="513.5" y1="363.1563" y2="381.1563"/><line style="stroke: #A80036; stroke-width: 2.0;" x1="495.5" x2="513.5" y1="381.1563" y2="363.1563"/><polygon fill="#A80036" points="902,398.5078,912,402.5078,902,406.5078,906,402.5078" style="stroke: #A80036; stroke-width: 1.0;"/><line style="stroke: #A80036; stroke-width: 1.0;" x1="288" x2="908" y1="402.5078" y2="402.5078"/><text fill="#000000" font-family="sans-serif" font-size="13" lengthAdjust="spacingAndGlyphs" textLength="89" x="556.5" y="397.6514">execute(Model)</text><polygon fill="#A80036" points="1516,428.8594,1526,432.8594,1516,436.8594,1520,432.8594" style="stroke: #A80036; stroke-width: 1.0;"/><line style="stroke: #A80036; stroke-width: 1.0;" x1="924" x2="1522" y1="432.8594" y2="432.8594"/><text fill="#000000" font-family="sans-serif" font-size="13" lengthAdjust="spacingAndGlyphs" textLength="95" x="1178.5" y="428.0029">addOrder(toAdd)</text><polygon fill="#A80036" points="935,442.8594,925,446.8594,935,450.8594,931,446.8594" style="stroke: #A80036; stroke-width: 1.0;"/><line style="stroke: #A80036; stroke-width: 1.0; stroke-dasharray: 2.0,2.0;" x1="929" x2="1532" y1="446.8594" y2="446.8594"/><polygon fill="#A80036" points="299,456.8594,289,460.8594,299,464.8594,295,460.8594" style="stroke: #A80036; stroke-width: 1.0;"/><line style="stroke: #A80036; stroke-width: 1.0; stroke-dasharray: 2.0,2.0;" x1="293" x2="918" y1="460.8594" y2="460.8594"/><line style="stroke: #A80036; stroke-width: 2.0;" x1="910" x2="928" y1="465.8594" y2="483.8594"/><line style="stroke: #A80036; stroke-width: 2.0;" x1="910" x2="928" y1="483.8594" y2="465.8594"/><line style="stroke: #000000; stroke-width: 1.0; stroke-dasharray: 2.0,2.0;" x1="151" x2="1585" y1="483.8594" y2="483.8594"/><text fill="#000000" font-family="sans-serif" font-size="11" font-weight="bold" lengthAdjust="spacingAndGlyphs" textLength="132" x="156" y="495.2783">[data starts with return]</text><polygon fill="#A80036" points="602,500.6953,612,504.6953,602,508.6953,606,504.6953" style="stroke: #A80036; stroke-width: 1.0;"/><line style="stroke: #A80036; stroke-width: 1.0;" x1="288" x2="608" y1="504.6953" y2="504.6953"/><rect fill="#3333C4" height="31.6094" style="stroke: #A80036; stroke-width: 1.5;" width="167" x="614" y="498.6953"/><text fill="#FFFFFF" font-family="sans-serif" font-size="14" lengthAdjust="spacingAndGlyphs" textLength="153" x="621" y="520.2285">:ReturnCommandParser</text><polygon fill="#A80036" points="299,543.3047,289,547.3047,299,551.3047,295,547.3047" style="stroke: #A80036; stroke-width: 1.0;"/><line style="stroke: #A80036; stroke-width: 1.0; stroke-dasharray: 2.0,2.0;" x1="293" x2="696.5" y1="547.3047" y2="547.3047"/><polygon fill="#A80036" points="680.5,573.6563,690.5,577.6563,680.5,581.6563,684.5,577.6563" style="stroke: #A80036; stroke-width: 1.0;"/><line style="stroke: #A80036; stroke-width: 1.0;" x1="288" x2="686.5" y1="577.6563" y2="577.6563"/><text fill="#000000" font-family="sans-serif" font-size="13" lengthAdjust="spacingAndGlyphs" textLength="65" x="457.75" y="572.7998">parse(data)</text><polygon fill="#A80036" points="1045,604.0078,1055,608.0078,1045,612.0078,1049,608.0078" style="stroke: #A80036; stroke-width: 1.0;"/><line style="stroke: #A80036; stroke-width: 1.0;" x1="702.5" x2="1051" y1="608.0078" y2="608.0078"/><text fill="#000000" font-family="sans-serif" font-size="13" lengthAdjust="spacingAndGlyphs" textLength="25" x="867.25" y="603.1514">data</text><rect fill="#3333C4" height="31.6094" style="stroke: #A80036; stroke-width: 1.5;" width="227" x="1057" y="585.6563"/><text fill="#FFFFFF" font-family="sans-serif" font-size="14" lengthAdjust="spacingAndGlyphs" textLength="213" x="1064" y="607.1895">returnCommand:ReturnCommand</text><polygon fill="#A80036" points="713.5,646.6172,703.5,650.6172,713.5,654.6172,709.5,650.6172" style="stroke: #A80036; stroke-width: 1.0;"/><line style="stroke: #A80036; stroke-width: 1.0; stroke-dasharray: 2.0,2.0;" x1="707.5" x2="1169.5" y1="650.6172" y2="650.6172"/><text fill="#000000" font-family="sans-serif" font-size="13" lengthAdjust="spacingAndGlyphs" textLength="92" x="890.5" y="645.7607">returnCommand</text><polygon fill="#A80036" points="299,676.9688,289,680.9688,299,684.9688,295,680.9688" style="stroke: #A80036; stroke-width: 1.0;"/><line style="stroke: #A80036; stroke-width: 1.0; stroke-dasharray: 2.0,2.0;" x1="293" x2="696.5" y1="680.9688" y2="680.9688"/><text fill="#000000" font-family="sans-serif" font-size="13" lengthAdjust="spacingAndGlyphs" textLength="92" x="446.75" y="676.1123">returnCommand</text><line style="stroke: #A80036; stroke-width: 2.0;" x1="688.5" x2="706.5" y1="685.9688" y2="703.9688"/><line style="stroke: #A80036; stroke-width: 2.0;" x1="688.5" x2="706.5" y1="703.9688" y2="685.9688"/><polygon fill="#A80036" points="1153.5,721.3203,1163.5,725.3203,1153.5,729.3203,1157.5,725.3203" style="stroke: #A80036; stroke-width: 1.0;"/><line style="stroke: #A80036; stroke-width: 1.0;" x1="288" x2="1159.5" y1="725.3203" y2="725.3203"/><text fill="#000000" font-family="sans-serif" font-size="13" lengthAdjust="spacingAndGlyphs" textLength="89" x="682.25" y="720.4639">execute(Model)</text><polygon fill="#A80036" points="1516,751.6719,1526,755.6719,1516,759.6719,1520,755.6719" style="stroke: #A80036; stroke-width: 1.0;"/><line style="stroke: #A80036; stroke-width: 1.0;" x1="1175.5" x2="1522" y1="755.6719" y2="755.6719"/><text fill="#000000" font-family="sans-serif" font-size="13" lengthAdjust="spacingAndGlyphs" textLength="171" x="1266.25" y="750.8154">addReturnOrder(toBeCreated)</text><polygon fill="#A80036" points="1186.5,765.6719,1176.5,769.6719,1186.5,773.6719,1182.5,769.6719" style="stroke: #A80036; stroke-width: 1.0;"/><line style="stroke: #A80036; stroke-width: 1.0; stroke-dasharray: 2.0,2.0;" x1="1180.5" x2="1532" y1="769.6719" y2="769.6719"/><polygon fill="#A80036" points="299,779.6719,289,783.6719,299,787.6719,295,783.6719" style="stroke: #A80036; stroke-width: 1.0;"/><line style="stroke: #A80036; stroke-width: 1.0; stroke-dasharray: 2.0,2.0;" x1="293" x2="1169.5" y1="783.6719" y2="783.6719"/><line style="stroke: #A80036; stroke-width: 2.0;" x1="1161.5" x2="1179.5" y1="788.6719" y2="806.6719"/><line style="stroke: #A80036; stroke-width: 2.0;" x1="1161.5" x2="1179.5" y1="806.6719" y2="788.6719"/><line style="stroke: #A80036; stroke-width: 1.0;" x1="288" x2="335" y1="862.0234" y2="862.0234"/><line style="stroke: #A80036; stroke-width: 1.0;" x1="335" x2="335" y1="862.0234" y2="875.0234"/><line style="stroke: #A80036; stroke-width: 1.0;" x1="294" x2="335" y1="875.0234" y2="875.0234"/><polygon fill="#A80036" points="304,871.0234,294,875.0234,304,879.0234,300,875.0234" style="stroke: #A80036; stroke-width: 1.0;"/><text fill="#000000" font-family="sans-serif" font-size="13" lengthAdjust="spacingAndGlyphs" textLength="70" x="300" y="857.167">printResult()</text><line style="stroke: #A80036; stroke-width: 1.0; stroke-dasharray: 2.0,2.0;" x1="293" x2="335" y1="915.375" y2="915.375"/><line style="stroke: #A80036; stroke-width: 1.0; stroke-dasharray: 2.0,2.0;" x1="335" x2="335" y1="915.375" y2="928.375"/><line style="stroke: #A80036; stroke-width: 1.0; stroke-dasharray: 2.0,2.0;" x1="288" x2="335" y1="928.375" y2="928.375"/><polygon fill="#A80036" points="298,924.375,288,928.375,298,932.375,294,928.375" style="stroke: #A80036; stroke-width: 1.0;"/><text fill="#000000" font-family="sans-serif" font-size="13" lengthAdjust="spacingAndGlyphs" textLength="53" x="300" y="910.5186">message</text><polygon fill="#A80036" points="1302,949.7266,1312,953.7266,1302,957.7266,1306,953.7266" style="stroke: #A80036; stroke-width: 1.0;"/><line style="stroke: #A80036; stroke-width: 1.0;" x1="288" x2="1308" y1="953.7266" y2="953.7266"/><text fill="#000000" font-family="sans-serif" font-size="13" lengthAdjust="spacingAndGlyphs" textLength="53" x="774.5" y="948.8701">message</text><rect fill="#3333C4" height="31.6094" style="stroke: #A80036; stroke-width: 1.5;" width="157" x="1314" y="931.375"/><text fill="#FFFFFF" font-family="sans-serif" font-size="14" lengthAdjust="spacingAndGlyphs" textLength="143" x="1321" y="952.9082">result:CommandResult</text><polygon fill="#A80036" points="299,992.3359,289,996.3359,299,1000.3359,295,996.3359" style="stroke: #A80036; stroke-width: 1.0;"/><line style="stroke: #A80036; stroke-width: 1.0; stroke-dasharray: 2.0,2.0;" x1="293" x2="1391.5" y1="996.3359" y2="996.3359"/><text fill="#000000" font-family="sans-serif" font-size="13" lengthAdjust="spacingAndGlyphs" textLength="32" x="824.25" y="991.4795">result</text><line style="stroke: #A80036; stroke-width: 2.0;" x1="1383.5" x2="1401.5" y1="1001.3359" y2="1019.3359"/><line style="stroke: #A80036; stroke-width: 2.0;" x1="1383.5" x2="1401.5" y1="1019.3359" y2="1001.3359"/><polygon fill="#A80036" points="103,1036.6875,93,1040.6875,103,1044.6875,99,1040.6875" style="stroke: #A80036; stroke-width: 1.0;"/><line style="stroke: #A80036; stroke-width: 1.0; stroke-dasharray: 2.0,2.0;" x1="97" x2="282" y1="1040.6875" y2="1040.6875"/><text fill="#000000" font-family="sans-serif" font-size="13" lengthAdjust="spacingAndGlyphs" textLength="32" x="171.5" y="1035.8311">result</text><line style="stroke: #A80036; stroke-width: 2.0;" x1="274" x2="292" y1="1045.6875" y2="1063.6875"/><line style="stroke: #A80036; stroke-width: 2.0;" x1="274" x2="292" y1="1063.6875" y2="1045.6875"/><polygon fill="#A80036" points="14,1081.0391,4,1085.0391,14,1089.0391,10,1085.0391" style="stroke: #A80036; stroke-width: 1.0;"/><line style="stroke: #A80036; stroke-width: 1.0; stroke-dasharray: 2.0,2.0;" x1="8" x2="86" y1="1085.0391" y2="1085.0391"/><text fill="#000000" font-family="sans-serif" font-size="13" lengthAdjust="spacingAndGlyphs" textLength="32" x="29" y="1080.1826">result</text><!--MD5=[927844f245afe112eefe1cd45fa8e96d]
@startuml








skinparam BackgroundColor #FFFFFFF

skinparam Shadowing false

skinparam Class {
    FontColor #FFFFFF
    BorderThickness 1
    BorderColor #FFFFFF
    StereotypeFontColor #FFFFFF
    FontName Arial
}

skinparam Actor {
    BorderColor #000000
    Color #000000
    FontName Arial
}

skinparam Sequence {
    MessageAlign center
    BoxFontSize 15
    BoxPadding 0
    BoxFontColor #FFFFFF
    FontName Arial
}

skinparam Participant {
    FontColor #FFFFFFF
    Padding 20
}

skinparam MinClassWidth 50
skinparam ParticipantPadding 10
skinparam Shadowing false
skinparam DefaultTextAlignment center
skinparam packageStyle Rectangle

hide footbox
hide members
hide circle
box Logic #C8C8FA
participant ":LogicManager" as LogicManager #3333C4
participant "importCommand:ImportCommand" as ImportCommand #3333C4
participant ":InsertCommandParser" as InsertCommandParser #3333C4
participant ":ReturnCommandParser" as ReturnCommandParser #3333C4
participant "insertCommand:InsertCommand" as InsertCommand #3333C4
participant "returnCommand:ReturnCommand" as ReturnCommand #3333C4
participant "result:CommandResult" as CommandResult #3333C4
end box

box Model #F97181
participant ":Model" as Model #9D0012
end box
activate LogicManager

group sd Execution of the Import Command Sequence Diagram

LogicManager -> ImportCommand : execute(model)
activate ImportCommand

loop until every String data in ordersData are processed
    alt data starts with order
        create InsertCommandParser
        ImportCommand -> InsertCommandParser ++

        InsertCommandParser - -> ImportCommand - -

        ImportCommand -> InsertCommandParser ++ : parse(data)

        create InsertCommand
        InsertCommandParser -> InsertCommand ++ : data

        InsertCommand - -> InsertCommandParser - - : insertCommand

        InsertCommandParser - -> ImportCommand - - : insertCommand

        InsertCommandParser -[hidden]-> ImportCommand
        destroy InsertCommandParser

        ImportCommand -> InsertCommand ++ : execute(Model)

        InsertCommand -> Model++ : addOrder(toAdd)

        Model - -> InsertCommand- -

        InsertCommand - -> ImportCommand - -

        InsertCommand -[hidden]-> ImportCommand
        destroy InsertCommand

    else data starts with return
        create ReturnCommandParser
        ImportCommand -> ReturnCommandParser ++

        ReturnCommandParser - -> ImportCommand - -

        ImportCommand -> ReturnCommandParser ++ : parse(data)

        create ReturnCommand
        ReturnCommandParser -> ReturnCommand ++ : data

        ReturnCommand - -> ReturnCommandParser - - : returnCommand

        ReturnCommandParser - -> ImportCommand - - : returnCommand
        ReturnCommandParser -[hidden]-> ImportCommand
        destroy ReturnCommandParser

        ImportCommand -> ReturnCommand ++ : execute(Model)

        ReturnCommand -> Model++ : addReturnOrder(toBeCreated)

        Model - -> ReturnCommand- -
        ReturnCommand - -> ImportCommand - -

        ReturnCommand -[hidden]-> ImportCommand
        destroy ReturnCommand
        |||
    end
end

ImportCommand -> ImportCommand ++ : printResult()

ImportCommand - -> ImportCommand - - : message
create CommandResult
ImportCommand -> CommandResult ++ : message

CommandResult - -> ImportCommand - - : result

CommandResult -[hidden]-> ImportCommand
destroy CommandResult

ImportCommand - -> LogicManager - - : result

CommandResult -[hidden]-> ImportCommand
destroy ImportCommand

[<- -LogicManager : result
deactivate LogicManager

end
@enduml

PlantUML version 1.2019.11(Sun Sep 22 18:02:15 SGT 2019)
(GPL source distribution)
Java Runtime: OpenJDK Runtime Environment
JVM: OpenJDK 64-Bit Server VM
Java Version: 11.0.5+10-b520.30
Operating System: Windows 10
Default Encoding: UTF-8
Language: en
Country: US
--></g></svg>
