<?xml version="1.0" encoding="UTF-8" standalone="no"?><svg xmlns="http://www.w3.org/2000/svg" xmlns:xlink="http://www.w3.org/1999/xlink" contentScriptType="application/ecmascript" contentStyleType="text/css" height="707px" preserveAspectRatio="none" style="width:1611px;height:707px;" version="1.1" viewBox="0 0 1611 707" width="1611px" zoomAndPan="magnify"><defs/><g><rect fill="#C8C8FA" height="685.6719" style="stroke: #A80036; stroke-width: 1.0;" width="1384.5" x="122" y="4"/><text fill="#FFFFFF" font-family="sans-serif" font-size="15" font-weight="bold" lengthAdjust="spacingAndGlyphs" textLength="39" x="792.75" y="19.5713">Logic</text><rect fill="#F97181" height="685.6719" style="stroke: #A80036; stroke-width: 1.0;" width="92" x="1508.5" y="4"/><text fill="#FFFFFF" font-family="sans-serif" font-size="15" font-weight="bold" lengthAdjust="spacingAndGlyphs" textLength="44" x="1530.5" y="19.5713">Model</text><rect fill="#FFFFFF" height="585.8438" style="stroke: #A80036; stroke-width: 1.0;" width="10" x="185" y="91.8281"/><rect fill="#FFFFFF" height="477.4375" style="stroke: #A80036; stroke-width: 1.0;" width="10" x="422" y="122.1797"/><rect fill="#FFFFFF" height="32.6094" style="stroke: #A80036; stroke-width: 1.0;" width="10" x="583.5" y="146.1797"/><rect fill="#FFFFFF" height="346.125" style="stroke: #A80036; stroke-width: 1.0;" width="10" x="583.5" y="209.1406"/><rect fill="#FFFFFF" height="212.4609" style="stroke: #A80036; stroke-width: 1.0;" width="10" x="763.5" y="239.4922"/><rect fill="#FFFFFF" height="30.3516" style="stroke: #A80036; stroke-width: 1.0;" width="10" x="930.5" y="269.8438"/><rect fill="#FFFFFF" height="91.0547" style="stroke: #A80036; stroke-width: 1.0;" width="10" x="1045.5" y="330.5469"/><rect fill="#FFFFFF" height="30.3516" style="stroke: #A80036; stroke-width: 1.0;" width="10" x="1201.5" y="360.8984"/><rect fill="#FFFFFF" height="32.6094" style="stroke: #A80036; stroke-width: 1.0;" width="10" x="1375.5" y="492.3047"/><rect fill="#3333C4" height="31.6094" style="stroke: #A80036; stroke-width: 1.5;" width="163" x="507" y="130.1797"/><text fill="#FFFFFF" font-family="sans-serif" font-size="14" lengthAdjust="spacingAndGlyphs" textLength="149" x="514" y="151.7129">:ImportCommandParser</text><rect fill="#3333C4" height="31.6094" style="stroke: #A80036; stroke-width: 1.5;" width="224" x="1268.5" y="459.9531"/><text fill="#FFFFFF" font-family="sans-serif" font-size="14" lengthAdjust="spacingAndGlyphs" textLength="210" x="1275.5" y="481.4863">importCommand:ImportCommand</text><line style="stroke: #A80036; stroke-width: 1.0; stroke-dasharray: 5.0,5.0;" x1="190" x2="190" y1="59.4766" y2="695.6719"/><line style="stroke: #A80036; stroke-width: 1.0; stroke-dasharray: 5.0,5.0;" x1="427" x2="427" y1="59.4766" y2="695.6719"/><line style="stroke: #A80036; stroke-width: 1.0; stroke-dasharray: 5.0,5.0;" x1="588" x2="588" y1="161.4844" y2="695.6719"/><line style="stroke: #A80036; stroke-width: 1.0; stroke-dasharray: 5.0,5.0;" x1="768.5" x2="768.5" y1="59.4766" y2="695.6719"/><line style="stroke: #A80036; stroke-width: 1.0; stroke-dasharray: 5.0,5.0;" x1="935.5" x2="935.5" y1="59.4766" y2="695.6719"/><line style="stroke: #A80036; stroke-width: 1.0; stroke-dasharray: 5.0,5.0;" x1="1050.5" x2="1050.5" y1="59.4766" y2="695.6719"/><line style="stroke: #A80036; stroke-width: 1.0; stroke-dasharray: 5.0,5.0;" x1="1206.5" x2="1206.5" y1="59.4766" y2="695.6719"/><line style="stroke: #A80036; stroke-width: 1.0; stroke-dasharray: 5.0,5.0;" x1="1380.5" x2="1380.5" y1="491.2578" y2="695.6719"/><line style="stroke: #A80036; stroke-width: 1.0; stroke-dasharray: 5.0,5.0;" x1="1554.5" x2="1554.5" y1="59.4766" y2="695.6719"/><rect fill="#3333C4" height="31.6094" style="stroke: #A80036; stroke-width: 1.5;" width="108" x="136" y="26.8672"/><text fill="#FFFFFF" font-family="sans-serif" font-size="14" lengthAdjust="spacingAndGlyphs" textLength="94" x="143" y="48.4004">:LogicManager</text><rect fill="#3333C4" height="31.6094" style="stroke: #A80036; stroke-width: 1.5;" width="100" x="377" y="26.8672"/><text fill="#FFFFFF" font-family="sans-serif" font-size="14" lengthAdjust="spacingAndGlyphs" textLength="86" x="384" y="48.4004">:DelinoParser</text><rect fill="#3333C4" height="31.6094" style="stroke: #A80036; stroke-width: 1.5;" width="74" x="731.5" y="26.8672"/><text fill="#FFFFFF" font-family="sans-serif" font-size="14" lengthAdjust="spacingAndGlyphs" textLength="60" x="738.5" y="48.4004">:ParseUtil</text><rect fill="#3333C4" height="31.6094" style="stroke: #A80036; stroke-width: 1.5;" width="64" x="903.5" y="26.8672"/><text fill="#FFFFFF" font-family="sans-serif" font-size="14" lengthAdjust="spacingAndGlyphs" textLength="40" x="915.5" y="48.4004">:Paths</text><rect fill="#3333C4" height="31.6094" style="stroke: #A80036; stroke-width: 1.5;" width="106" x="997.5" y="26.8672"/><text fill="#FFFFFF" font-family="sans-serif" font-size="14" lengthAdjust="spacingAndGlyphs" textLength="92" x="1004.5" y="48.4004">:CsvProcessor</text><rect fill="#3333C4" height="31.6094" style="stroke: #A80036; stroke-width: 1.5;" width="64" x="1174.5" y="26.8672"/><text fill="#FFFFFF" font-family="sans-serif" font-size="14" lengthAdjust="spacingAndGlyphs" textLength="46" x="1183.5" y="48.4004">:FileUtil</text><rect fill="#9D0012" height="31.6094" style="stroke: #A80036; stroke-width: 1.5;" width="64" x="1522.5" y="26.8672"/><text fill="#FFFFFF" font-family="sans-serif" font-size="14" lengthAdjust="spacingAndGlyphs" textLength="42" x="1533.5" y="48.4004">:Model</text><rect fill="#FFFFFF" height="585.8438" style="stroke: #A80036; stroke-width: 1.0;" width="10" x="185" y="91.8281"/><rect fill="#FFFFFF" height="477.4375" style="stroke: #A80036; stroke-width: 1.0;" width="10" x="422" y="122.1797"/><rect fill="#FFFFFF" height="32.6094" style="stroke: #A80036; stroke-width: 1.0;" width="10" x="583.5" y="146.1797"/><rect fill="#FFFFFF" height="346.125" style="stroke: #A80036; stroke-width: 1.0;" width="10" x="583.5" y="209.1406"/><rect fill="#FFFFFF" height="212.4609" style="stroke: #A80036; stroke-width: 1.0;" width="10" x="763.5" y="239.4922"/><rect fill="#FFFFFF" height="30.3516" style="stroke: #A80036; stroke-width: 1.0;" width="10" x="930.5" y="269.8438"/><rect fill="#FFFFFF" height="91.0547" style="stroke: #A80036; stroke-width: 1.0;" width="10" x="1045.5" y="330.5469"/><rect fill="#FFFFFF" height="30.3516" style="stroke: #A80036; stroke-width: 1.0;" width="10" x="1201.5" y="360.8984"/><rect fill="#FFFFFF" height="32.6094" style="stroke: #A80036; stroke-width: 1.0;" width="10" x="1375.5" y="492.3047"/><polygon fill="#A80036" points="173,87.8281,183,91.8281,173,95.8281,177,91.8281" style="stroke: #A80036; stroke-width: 1.0;"/><line style="stroke: #A80036; stroke-width: 1.0;" x1="3" x2="179" y1="91.8281" y2="91.8281"/><text fill="#000000" font-family="sans-serif" font-size="13" lengthAdjust="spacingAndGlyphs" textLength="163" x="12.5" y="86.9717">execute("import orders.csv")</text><polygon fill="#A80036" points="410,118.1797,420,122.1797,410,126.1797,414,122.1797" style="stroke: #A80036; stroke-width: 1.0;"/><line style="stroke: #A80036; stroke-width: 1.0;" x1="195" x2="416" y1="122.1797" y2="122.1797"/><text fill="#000000" font-family="sans-serif" font-size="13" lengthAdjust="spacingAndGlyphs" textLength="208" x="204.5" y="117.3232">parseCommand("import orders.csv")</text><polygon fill="#A80036" points="495,132.1797,505,136.1797,495,140.1797,499,136.1797" style="stroke: #A80036; stroke-width: 1.0;"/><line style="stroke: #A80036; stroke-width: 1.0;" x1="432" x2="501" y1="136.1797" y2="136.1797"/><rect fill="#3333C4" height="31.6094" style="stroke: #A80036; stroke-width: 1.5;" width="163" x="507" y="130.1797"/><text fill="#FFFFFF" font-family="sans-serif" font-size="14" lengthAdjust="spacingAndGlyphs" textLength="149" x="514" y="151.7129">:ImportCommandParser</text><polygon fill="#A80036" points="443,174.7891,433,178.7891,443,182.7891,439,178.7891" style="stroke: #A80036; stroke-width: 1.0;"/><line style="stroke: #A80036; stroke-width: 1.0; stroke-dasharray: 2.0,2.0;" x1="437" x2="587.5" y1="178.7891" y2="178.7891"/><polygon fill="#A80036" points="571.5,205.1406,581.5,209.1406,571.5,213.1406,575.5,209.1406" style="stroke: #A80036; stroke-width: 1.0;"/><line style="stroke: #A80036; stroke-width: 1.0;" x1="432" x2="577.5" y1="209.1406" y2="209.1406"/><text fill="#000000" font-family="sans-serif" font-size="13" lengthAdjust="spacingAndGlyphs" textLength="109" x="453.25" y="204.2842">parse("orders.csv")</text><polygon fill="#A80036" points="751.5,235.4922,761.5,239.4922,751.5,243.4922,755.5,239.4922" style="stroke: #A80036; stroke-width: 1.0;"/><line style="stroke: #A80036; stroke-width: 1.0;" x1="593.5" x2="757.5" y1="239.4922" y2="239.4922"/><text fill="#000000" font-family="sans-serif" font-size="13" lengthAdjust="spacingAndGlyphs" textLength="151" x="603" y="234.6357">parseCsvFile("orders.csv")</text><polygon fill="#A80036" points="918.5,265.8438,928.5,269.8438,918.5,273.8438,922.5,269.8438" style="stroke: #A80036; stroke-width: 1.0;"/><line style="stroke: #A80036; stroke-width: 1.0;" x1="773.5" x2="924.5" y1="269.8438" y2="269.8438"/><text fill="#000000" font-family="sans-serif" font-size="13" lengthAdjust="spacingAndGlyphs" textLength="138" x="783" y="264.9873">get("data", "orders.csv")</text><polygon fill="#A80036" points="784.5,296.1953,774.5,300.1953,784.5,304.1953,780.5,300.1953" style="stroke: #A80036; stroke-width: 1.0;"/><line style="stroke: #A80036; stroke-width: 1.0; stroke-dasharray: 2.0,2.0;" x1="778.5" x2="934.5" y1="300.1953" y2="300.1953"/><text fill="#000000" font-family="sans-serif" font-size="13" lengthAdjust="spacingAndGlyphs" textLength="67" x="821" y="295.3389">csvFilePath</text><polygon fill="#A80036" points="1033.5,326.5469,1043.5,330.5469,1033.5,334.5469,1037.5,330.5469" style="stroke: #A80036; stroke-width: 1.0;"/><line style="stroke: #A80036; stroke-width: 1.0;" x1="773.5" x2="1039.5" y1="330.5469" y2="330.5469"/><text fill="#000000" font-family="sans-serif" font-size="13" lengthAdjust="spacingAndGlyphs" textLength="143" x="838" y="325.6904">retrieveData(csvFilePath)</text><polygon fill="#A80036" points="1189.5,356.8984,1199.5,360.8984,1189.5,364.8984,1193.5,360.8984" style="stroke: #A80036; stroke-width: 1.0;"/><line style="stroke: #A80036; stroke-width: 1.0;" x1="1055.5" x2="1195.5" y1="360.8984" y2="360.8984"/><text fill="#000000" font-family="sans-serif" font-size="13" lengthAdjust="spacingAndGlyphs" textLength="127" x="1065" y="356.042">readFromFile(filePath)</text><polygon fill="#A80036" points="1066.5,387.25,1056.5,391.25,1066.5,395.25,1062.5,391.25" style="stroke: #A80036; stroke-width: 1.0;"/><line style="stroke: #A80036; stroke-width: 1.0; stroke-dasharray: 2.0,2.0;" x1="1060.5" x2="1205.5" y1="391.25" y2="391.25"/><text fill="#000000" font-family="sans-serif" font-size="13" lengthAdjust="spacingAndGlyphs" textLength="43" x="1109.5" y="386.3936">fileData</text><polygon fill="#A80036" points="784.5,417.6016,774.5,421.6016,784.5,425.6016,780.5,421.6016" style="stroke: #A80036; stroke-width: 1.0;"/><line style="stroke: #A80036; stroke-width: 1.0; stroke-dasharray: 2.0,2.0;" x1="778.5" x2="1049.5" y1="421.6016" y2="421.6016"/><text fill="#000000" font-family="sans-serif" font-size="13" lengthAdjust="spacingAndGlyphs" textLength="43" x="890.5" y="416.7451">fileData</text><polygon fill="#A80036" points="604.5,447.9531,594.5,451.9531,604.5,455.9531,600.5,451.9531" style="stroke: #A80036; stroke-width: 1.0;"/><line style="stroke: #A80036; stroke-width: 1.0; stroke-dasharray: 2.0,2.0;" x1="598.5" x2="767.5" y1="451.9531" y2="451.9531"/><text fill="#000000" font-family="sans-serif" font-size="13" lengthAdjust="spacingAndGlyphs" textLength="43" x="659.5" y="447.0967">fileData</text><polygon fill="#A80036" points="1256.5,478.3047,1266.5,482.3047,1256.5,486.3047,1260.5,482.3047" style="stroke: #A80036; stroke-width: 1.0;"/><line style="stroke: #A80036; stroke-width: 1.0;" x1="593.5" x2="1262.5" y1="482.3047" y2="482.3047"/><text fill="#000000" font-family="sans-serif" font-size="13" lengthAdjust="spacingAndGlyphs" textLength="43" x="909.5" y="477.4482">fileData</text><rect fill="#3333C4" height="31.6094" style="stroke: #A80036; stroke-width: 1.5;" width="224" x="1268.5" y="459.9531"/><text fill="#FFFFFF" font-family="sans-serif" font-size="14" lengthAdjust="spacingAndGlyphs" textLength="210" x="1275.5" y="481.4863">importCommand:ImportCommand</text><polygon fill="#A80036" points="604.5,520.9141,594.5,524.9141,604.5,528.9141,600.5,524.9141" style="stroke: #A80036; stroke-width: 1.0;"/><line style="stroke: #A80036; stroke-width: 1.0; stroke-dasharray: 2.0,2.0;" x1="598.5" x2="1379.5" y1="524.9141" y2="524.9141"/><text fill="#000000" font-family="sans-serif" font-size="13" lengthAdjust="spacingAndGlyphs" textLength="95" x="939.5" y="520.0576">importCommand</text><polygon fill="#A80036" points="443,551.2656,433,555.2656,443,559.2656,439,555.2656" style="stroke: #A80036; stroke-width: 1.0;"/><line style="stroke: #A80036; stroke-width: 1.0; stroke-dasharray: 2.0,2.0;" x1="437" x2="587.5" y1="555.2656" y2="555.2656"/><text fill="#000000" font-family="sans-serif" font-size="13" lengthAdjust="spacingAndGlyphs" textLength="95" x="462.75" y="550.4092">importCommand</text><line style="stroke: #A80036; stroke-width: 2.0;" x1="579.5" x2="597.5" y1="560.2656" y2="578.2656"/><line style="stroke: #A80036; stroke-width: 2.0;" x1="579.5" x2="597.5" y1="578.2656" y2="560.2656"/><polygon fill="#A80036" points="206,595.6172,196,599.6172,206,603.6172,202,599.6172" style="stroke: #A80036; stroke-width: 1.0;"/><line style="stroke: #A80036; stroke-width: 1.0; stroke-dasharray: 2.0,2.0;" x1="200" x2="426" y1="599.6172" y2="599.6172"/><text fill="#000000" font-family="sans-serif" font-size="13" lengthAdjust="spacingAndGlyphs" textLength="95" x="263.5" y="594.7607">importCommand</text><rect fill="#FFFFFF" height="42.7031" style="stroke: #000000; stroke-width: 2.0;" width="1476.5" x="123" y="607.6172"/><polygon fill="#EEEEEE" points="123,607.6172,185,607.6172,185,615.6172,175,625.6172,123,625.6172,123,607.6172" style="stroke: #000000; stroke-width: 2.0;"/><text fill="#000000" font-family="sans-serif" font-size="13" font-weight="bold" lengthAdjust="spacingAndGlyphs" textLength="17" x="136" y="623.1123">ref</text><text fill="#000000" font-family="sans-serif" font-size="13" lengthAdjust="spacingAndGlyphs" textLength="147" x="787.75" y="643.1123">execute import command</text><polygon fill="#A80036" points="14,673.6719,4,677.6719,14,681.6719,10,677.6719" style="stroke: #A80036; stroke-width: 1.0;"/><line style="stroke: #A80036; stroke-width: 1.0; stroke-dasharray: 2.0,2.0;" x1="8" x2="189" y1="677.6719" y2="677.6719"/><text fill="#000000" font-family="sans-serif" font-size="13" lengthAdjust="spacingAndGlyphs" textLength="32" x="80.5" y="672.8154">result</text><!--MD5=[3cd968099f592effe9a2dd47ca74199b]
@startuml








skinparam BackgroundColor #FFFFFFF

skinparam Shadowing false

skinparam Class {
    FontColor #FFFFFF
    BorderThickness 1
    BorderColor #FFFFFF
    StereotypeFontColor #FFFFFF
    FontName Arial
}

skinparam Actor {
    BorderColor #000000
    Color #000000
    FontName Arial
}

skinparam Sequence {
    MessageAlign center
    BoxFontSize 15
    BoxPadding 0
    BoxFontColor #FFFFFF
    FontName Arial
}

skinparam Participant {
    FontColor #FFFFFFF
    Padding 20
}

skinparam MinClassWidth 50
skinparam ParticipantPadding 10
skinparam Shadowing false
skinparam DefaultTextAlignment center
skinparam packageStyle Rectangle

hide footbox
hide members
hide circle
box Logic #C8C8FA
participant ":LogicManager" as LogicManager #3333C4
participant ":DelinoParser" as DelinoParser #3333C4
participant ":ImportCommandParser" as ImportCommandParser #3333C4
participant ":ParseUtil" as ParseUtil #3333C4
participant ":Paths" as Paths #3333C4
participant ":CsvProcessor" as CsvProcessor #3333C4
participant ":FileUtil" as FileUtil #3333C4
participant "importCommand:ImportCommand" as ImportCommand #3333C4
end box

box Model #F97181
participant ":Model" as Model #9D0012
end box

[-> LogicManager : execute("import orders.csv")
activate LogicManager

LogicManager -> DelinoParser ++ : parseCommand("import orders.csv")

create ImportCommandParser
DelinoParser -> ImportCommandParser ++

ImportCommandParser - -> DelinoParser - -

DelinoParser -> ImportCommandParser ++ : parse("orders.csv")

ImportCommandParser -> ParseUtil ++ : parseCsvFile("orders.csv")

ParseUtil -> Paths ++ : get("data", "orders.csv")

Paths - -> ParseUtil - - : csvFilePath

ParseUtil -> CsvProcessor ++ : retrieveData(csvFilePath)

CsvProcessor -> FileUtil ++ : readFromFile(filePath)

FileUtil - -> CsvProcessor - - : fileData

CsvProcessor - -> ParseUtil - - : fileData

ParseUtil - -> ImportCommandParser - - : fileData

create ImportCommand
ImportCommandParser -> ImportCommand ++ : fileData

ImportCommand - -> ImportCommandParser - - : importCommand

ImportCommandParser - -> DelinoParser - - : importCommand

ImportCommandParser -[hidden]-> DelinoParser
destroy ImportCommandParser

DelinoParser - -> LogicManager - - : importCommand

ref over LogicManager,  Model : execute import command

[<- -LogicManager : result
deactivate LogicManager
@enduml

PlantUML version 1.2019.11(Sun Sep 22 18:02:15 SGT 2019)
(GPL source distribution)
Java Runtime: OpenJDK Runtime Environment
JVM: OpenJDK 64-Bit Server VM
Java Version: 11.0.5+10-b520.30
Operating System: Windows 10
Default Encoding: UTF-8
Language: en
Country: US
--></g></svg>
