<?xml version="1.0" encoding="UTF-8" standalone="no"?><svg xmlns="http://www.w3.org/2000/svg" xmlns:xlink="http://www.w3.org/1999/xlink" contentScriptType="application/ecmascript" contentStyleType="text/css" height="770px" preserveAspectRatio="none" style="width:811px;height:770px;" version="1.1" viewBox="0 0 811 770" width="811px" zoomAndPan="magnify"><defs><filter height="300%" id="f18a01gtjibe5h" width="300%" x="-1" y="-1"><feGaussianBlur result="blurOut" stdDeviation="2.0"/><feColorMatrix in="blurOut" result="blurOut2" type="matrix" values="0 0 0 0 0 0 0 0 0 0 0 0 0 0 0 0 0 0 .4 0"/><feOffset dx="4.0" dy="4.0" in="blurOut2" result="blurOut3"/><feBlend in="SourceGraphic" in2="blurOut3" mode="normal"/></filter></defs><g><ellipse cx="282.375" cy="20" fill="#000000" filter="url(#f18a01gtjibe5h)" rx="10" ry="10" style="stroke: none; stroke-width: 1.0;"/><rect fill="#FEFECE" filter="url(#f18a01gtjibe5h)" height="35.0938" rx="12.5" ry="12.5" style="stroke: #A80036; stroke-width: 1.5;" width="175" x="194.875" y="50"/><text fill="#000000" font-family="sans-serif" font-size="12" lengthAdjust="spacingAndGlyphs" textLength="155" x="204.875" y="72.457">User enter import command</text><polygon fill="#FEFECE" filter="url(#f18a01gtjibe5h)" points="282.375,105.0938,282.375,105.0938,294.375,117.0938,282.375,129.0938,282.375,129.0938,270.375,117.0938,282.375,105.0938" style="stroke: #A80036; stroke-width: 1.5;"/><text fill="#000000" font-family="sans-serif" font-size="11" lengthAdjust="spacingAndGlyphs" textLength="85" x="185.375" y="114.6768">[filePath is invalid]</text><text fill="#000000" font-family="sans-serif" font-size="11" lengthAdjust="spacingAndGlyphs" textLength="26" x="294.375" y="114.6768">[else]</text><rect fill="#FEFECE" filter="url(#f18a01gtjibe5h)" height="35.0938" rx="12.5" ry="12.5" style="stroke: #A80036; stroke-width: 1.5;" width="187" x="10" y="139.0938"/><text fill="#000000" font-family="sans-serif" font-size="12" lengthAdjust="spacingAndGlyphs" textLength="167" x="20" y="161.5508">Display error message to user</text><polygon fill="#FEFECE" filter="url(#f18a01gtjibe5h)" points="461.25,139.0938,461.25,139.0938,473.25,151.0938,461.25,163.0938,461.25,163.0938,449.25,151.0938,461.25,139.0938" style="stroke: #A80036; stroke-width: 1.5;"/><text fill="#000000" font-family="sans-serif" font-size="11" lengthAdjust="spacingAndGlyphs" textLength="105" x="344.25" y="148.6768">[File is unable to read]</text><text fill="#000000" font-family="sans-serif" font-size="11" lengthAdjust="spacingAndGlyphs" textLength="26" x="473.25" y="148.6768">[else]</text><rect fill="#FEFECE" filter="url(#f18a01gtjibe5h)" height="35.0938" rx="12.5" ry="12.5" style="stroke: #A80036; stroke-width: 1.5;" width="187" x="227" y="173.0938"/><text fill="#000000" font-family="sans-serif" font-size="12" lengthAdjust="spacingAndGlyphs" textLength="167" x="237" y="195.5508">Display error message to user</text><rect fill="#FEFECE" filter="url(#f18a01gtjibe5h)" height="35.0938" rx="12.5" ry="12.5" style="stroke: #A80036; stroke-width: 1.5;" width="186" x="509" y="173.0938"/><text fill="#000000" font-family="sans-serif" font-size="12" lengthAdjust="spacingAndGlyphs" textLength="166" x="519" y="195.5508">Retrieve data from the CSV file</text><rect fill="#FEFECE" filter="url(#f18a01gtjibe5h)" height="35.0938" rx="12.5" ry="12.5" style="stroke: #A80036; stroke-width: 1.5;" width="113" x="545.5" y="228.1875"/><text fill="#000000" font-family="sans-serif" font-size="12" lengthAdjust="spacingAndGlyphs" textLength="93" x="555.5" y="250.6445">Process the data</text><rect fill="#FEFECE" filter="url(#f18a01gtjibe5h)" height="35.0938" rx="12.5" ry="12.5" style="stroke: #A80036; stroke-width: 1.5;" width="190" x="507" y="283.2813"/><text fill="#000000" font-family="sans-serif" font-size="12" lengthAdjust="spacingAndGlyphs" textLength="170" x="517" y="305.7383">Create a new ImportCommand</text><rect fill="#FEFECE" filter="url(#f18a01gtjibe5h)" height="35.0938" rx="12.5" ry="12.5" style="stroke: #A80036; stroke-width: 1.5;" width="232" x="486" y="338.375"/><text fill="#000000" font-family="sans-serif" font-size="12" lengthAdjust="spacingAndGlyphs" textLength="212" x="496" y="360.832">Logic Manager executes the command</text><polygon fill="#FEFECE" filter="url(#f18a01gtjibe5h)" points="602,437.4688,602,437.4688,614,449.4688,602,461.4688,602,461.4688,590,449.4688,602,437.4688" style="stroke: #A80036; stroke-width: 1.5;"/><text fill="#000000" font-family="sans-serif" font-size="11" lengthAdjust="spacingAndGlyphs" textLength="156" x="434" y="447.0518">[order value found in orderType]</text><text fill="#000000" font-family="sans-serif" font-size="11" lengthAdjust="spacingAndGlyphs" textLength="159" x="614" y="447.0518">[return value found in orderType]</text><rect fill="#FEFECE" filter="url(#f18a01gtjibe5h)" height="35.0938" rx="12.5" ry="12.5" style="stroke: #A80036; stroke-width: 1.5;" width="73" x="510.25" y="471.4688"/><text fill="#000000" font-family="sans-serif" font-size="12" lengthAdjust="spacingAndGlyphs" textLength="53" x="520.25" y="493.9258">Add order</text><rect fill="#FEFECE" filter="url(#f18a01gtjibe5h)" height="35.0938" rx="12.5" ry="12.5" style="stroke: #A80036; stroke-width: 1.5;" width="108" x="603.25" y="471.4688"/><text fill="#000000" font-family="sans-serif" font-size="12" lengthAdjust="spacingAndGlyphs" textLength="88" x="613.25" y="493.9258">Add return order</text><polygon fill="#FEFECE" filter="url(#f18a01gtjibe5h)" points="602,512.5625,614,524.5625,602,536.5625,590,524.5625,602,512.5625" style="stroke: #A80036; stroke-width: 1.5;"/><polygon fill="#FEFECE" filter="url(#f18a01gtjibe5h)" points="602,393.4688,614,405.4688,602,417.4688,590,405.4688,602,393.4688" style="stroke: #A80036; stroke-width: 1.5;"/><polygon fill="#FEFECE" filter="url(#f18a01gtjibe5h)" points="602,556.5625,602,556.5625,614,568.5625,602,580.5625,602,580.5625,590,568.5625,602,556.5625" style="stroke: #A80036; stroke-width: 1.5;"/><text fill="#000000" font-family="sans-serif" font-size="11" lengthAdjust="spacingAndGlyphs" textLength="133" x="614" y="566.1455">[Still have more data in list?]</text><rect fill="#FEFECE" filter="url(#f18a01gtjibe5h)" height="35.0938" rx="12.5" ry="12.5" style="stroke: #A80036; stroke-width: 1.5;" width="194" x="505" y="622.8154"/><text fill="#000000" font-family="sans-serif" font-size="12" lengthAdjust="spacingAndGlyphs" textLength="174" x="515" y="645.2725">Display the import result to user</text><polygon fill="#FEFECE" filter="url(#f18a01gtjibe5h)" points="461.25,663.9092,473.25,675.9092,461.25,687.9092,449.25,675.9092,461.25,663.9092" style="stroke: #A80036; stroke-width: 1.5;"/><polygon fill="#FEFECE" filter="url(#f18a01gtjibe5h)" points="282.375,693.9092,294.375,705.9092,282.375,717.9092,270.375,705.9092,282.375,693.9092" style="stroke: #A80036; stroke-width: 1.5;"/><ellipse cx="282.375" cy="748.9092" fill="#FFFFFF" filter="url(#f18a01gtjibe5h)" rx="11" ry="11" style="stroke: #000000; stroke-width: 1.0;"/><ellipse cx="282.375" cy="748.9092" fill="#000000" rx="6" ry="6" style="stroke: #7F7F7F; stroke-width: 1.0;"/><line style="stroke: #A80036; stroke-width: 1.5;" x1="282.375" x2="282.375" y1="30" y2="50"/><polygon fill="#A80036" points="278.375,40,282.375,50,286.375,40,282.375,44" style="stroke: #A80036; stroke-width: 1.0;"/><line style="stroke: #A80036; stroke-width: 1.5;" x1="602" x2="602" y1="208.1875" y2="228.1875"/><polygon fill="#A80036" points="598,218.1875,602,228.1875,606,218.1875,602,222.1875" style="stroke: #A80036; stroke-width: 1.0;"/><line style="stroke: #A80036; stroke-width: 1.5;" x1="602" x2="602" y1="263.2813" y2="283.2813"/><polygon fill="#A80036" points="598,273.2813,602,283.2813,606,273.2813,602,277.2813" style="stroke: #A80036; stroke-width: 1.0;"/><line style="stroke: #A80036; stroke-width: 1.5;" x1="602" x2="602" y1="318.375" y2="338.375"/><polygon fill="#A80036" points="598,328.375,602,338.375,606,328.375,602,332.375" style="stroke: #A80036; stroke-width: 1.0;"/><line style="stroke: #A80036; stroke-width: 1.5;" x1="590" x2="546.75" y1="449.4688" y2="449.4688"/><line style="stroke: #A80036; stroke-width: 1.5;" x1="546.75" x2="546.75" y1="449.4688" y2="471.4688"/><polygon fill="#A80036" points="542.75,461.4688,546.75,471.4688,550.75,461.4688,546.75,465.4688" style="stroke: #A80036; stroke-width: 1.0;"/><line style="stroke: #A80036; stroke-width: 1.5;" x1="614" x2="657.25" y1="449.4688" y2="449.4688"/><line style="stroke: #A80036; stroke-width: 1.5;" x1="657.25" x2="657.25" y1="449.4688" y2="471.4688"/><polygon fill="#A80036" points="653.25,461.4688,657.25,471.4688,661.25,461.4688,657.25,465.4688" style="stroke: #A80036; stroke-width: 1.0;"/><line style="stroke: #A80036; stroke-width: 1.5;" x1="546.75" x2="546.75" y1="506.5625" y2="524.5625"/><line style="stroke: #A80036; stroke-width: 1.5;" x1="546.75" x2="590" y1="524.5625" y2="524.5625"/><polygon fill="#A80036" points="580,520.5625,590,524.5625,580,528.5625,584,524.5625" style="stroke: #A80036; stroke-width: 1.0;"/><line style="stroke: #A80036; stroke-width: 1.5;" x1="657.25" x2="657.25" y1="506.5625" y2="524.5625"/><line style="stroke: #A80036; stroke-width: 1.5;" x1="657.25" x2="614" y1="524.5625" y2="524.5625"/><polygon fill="#A80036" points="624,520.5625,614,524.5625,624,528.5625,620,524.5625" style="stroke: #A80036; stroke-width: 1.0;"/><line style="stroke: #A80036; stroke-width: 1.5;" x1="602" x2="602" y1="417.4688" y2="437.4688"/><polygon fill="#A80036" points="598,427.4688,602,437.4688,606,427.4688,602,431.4688" style="stroke: #A80036; stroke-width: 1.0;"/><line style="stroke: #A80036; stroke-width: 1.5;" x1="614" x2="785" y1="568.5625" y2="568.5625"/><polygon fill="#A80036" points="781,497.0156,785,487.0156,789,497.0156,785,493.0156" style="stroke: #A80036; stroke-width: 1.5;"/><line style="stroke: #A80036; stroke-width: 1.5;" x1="785" x2="785" y1="405.4688" y2="568.5625"/><line style="stroke: #A80036; stroke-width: 1.5;" x1="785" x2="614" y1="405.4688" y2="405.4688"/><polygon fill="#A80036" points="624,401.4688,614,405.4688,624,409.4688,620,405.4688" style="stroke: #A80036; stroke-width: 1.0;"/><line style="stroke: #A80036; stroke-width: 1.5;" x1="602" x2="602" y1="536.5625" y2="556.5625"/><polygon fill="#A80036" points="598,546.5625,602,556.5625,606,546.5625,602,550.5625" style="stroke: #A80036; stroke-width: 1.0;"/><line style="stroke: #A80036; stroke-width: 1.5;" x1="602" x2="602" y1="373.4688" y2="393.4688"/><polygon fill="#A80036" points="598,383.4688,602,393.4688,606,383.4688,602,387.4688" style="stroke: #A80036; stroke-width: 1.0;"/><line style="stroke: #A80036; stroke-width: 1.5;" x1="602" x2="602" y1="580.5625" y2="622.8154"/><polygon fill="#A80036" points="598,612.8154,602,622.8154,606,612.8154,602,616.8154" style="stroke: #A80036; stroke-width: 1.0;"/><text fill="#000000" font-family="sans-serif" font-size="11" lengthAdjust="spacingAndGlyphs" textLength="26" x="606" y="602.8984">[else]</text><line style="stroke: #A80036; stroke-width: 1.5;" x1="449.25" x2="320.5" y1="151.0938" y2="151.0938"/><line style="stroke: #A80036; stroke-width: 1.5;" x1="320.5" x2="320.5" y1="151.0938" y2="173.0938"/><polygon fill="#A80036" points="316.5,163.0938,320.5,173.0938,324.5,163.0938,320.5,167.0938" style="stroke: #A80036; stroke-width: 1.0;"/><line style="stroke: #A80036; stroke-width: 1.5;" x1="473.25" x2="602" y1="151.0938" y2="151.0938"/><line style="stroke: #A80036; stroke-width: 1.5;" x1="602" x2="602" y1="151.0938" y2="173.0938"/><polygon fill="#A80036" points="598,163.0938,602,173.0938,606,163.0938,602,167.0938" style="stroke: #A80036; stroke-width: 1.0;"/><line style="stroke: #A80036; stroke-width: 1.5;" x1="320.5" x2="320.5" y1="208.1875" y2="675.9092"/><line style="stroke: #A80036; stroke-width: 1.5;" x1="320.5" x2="449.25" y1="675.9092" y2="675.9092"/><polygon fill="#A80036" points="439.25,671.9092,449.25,675.9092,439.25,679.9092,443.25,675.9092" style="stroke: #A80036; stroke-width: 1.0;"/><line style="stroke: #A80036; stroke-width: 1.5;" x1="602" x2="602" y1="657.9092" y2="675.9092"/><line style="stroke: #A80036; stroke-width: 1.5;" x1="602" x2="473.25" y1="675.9092" y2="675.9092"/><polygon fill="#A80036" points="483.25,671.9092,473.25,675.9092,483.25,679.9092,479.25,675.9092" style="stroke: #A80036; stroke-width: 1.0;"/><line style="stroke: #A80036; stroke-width: 1.5;" x1="270.375" x2="103.5" y1="117.0938" y2="117.0938"/><line style="stroke: #A80036; stroke-width: 1.5;" x1="103.5" x2="103.5" y1="117.0938" y2="139.0938"/><polygon fill="#A80036" points="99.5,129.0938,103.5,139.0938,107.5,129.0938,103.5,133.0938" style="stroke: #A80036; stroke-width: 1.0;"/><line style="stroke: #A80036; stroke-width: 1.5;" x1="294.375" x2="461.25" y1="117.0938" y2="117.0938"/><line style="stroke: #A80036; stroke-width: 1.5;" x1="461.25" x2="461.25" y1="117.0938" y2="139.0938"/><polygon fill="#A80036" points="457.25,129.0938,461.25,139.0938,465.25,129.0938,461.25,133.0938" style="stroke: #A80036; stroke-width: 1.0;"/><line style="stroke: #A80036; stroke-width: 1.5;" x1="103.5" x2="103.5" y1="174.1875" y2="705.9092"/><line style="stroke: #A80036; stroke-width: 1.5;" x1="103.5" x2="270.375" y1="705.9092" y2="705.9092"/><polygon fill="#A80036" points="260.375,701.9092,270.375,705.9092,260.375,709.9092,264.375,705.9092" style="stroke: #A80036; stroke-width: 1.0;"/><line style="stroke: #A80036; stroke-width: 1.5;" x1="461.25" x2="461.25" y1="687.9092" y2="705.9092"/><line style="stroke: #A80036; stroke-width: 1.5;" x1="461.25" x2="294.375" y1="705.9092" y2="705.9092"/><polygon fill="#A80036" points="304.375,701.9092,294.375,705.9092,304.375,709.9092,300.375,705.9092" style="stroke: #A80036; stroke-width: 1.0;"/><line style="stroke: #A80036; stroke-width: 1.5;" x1="282.375" x2="282.375" y1="85.0938" y2="105.0938"/><polygon fill="#A80036" points="278.375,95.0938,282.375,105.0938,286.375,95.0938,282.375,99.0938" style="stroke: #A80036; stroke-width: 1.0;"/><line style="stroke: #A80036; stroke-width: 1.5;" x1="282.375" x2="282.375" y1="717.9092" y2="737.9092"/><polygon fill="#A80036" points="278.375,727.9092,282.375,737.9092,286.375,727.9092,282.375,731.9092" style="stroke: #A80036; stroke-width: 1.0;"/><!--MD5=[b761db11c4853d89e65e0039a075c37f]
@startuml

start
:User enter import command;
if () then ([filePath is invalid])
    :Display error message to user;

else ([else])
    if() then ([File is unable to read])
        :Display error message to user;

    else ([else])
        :Retrieve data from the CSV file;
        :Process the data;
        :Create a new ImportCommand;
        :Logic Manager executes the command;
        repeat
            if () then ([order value found in orderType])
            :Add order;
            else ([return value found in orderType])
            :Add return order;
            endif
        repeat while () is ([Still have more data in list?])
        ->[else];
        :Display the import result to user;
        endif
        endif
stop
@enduml

PlantUML version 1.2019.11(Sun Sep 22 18:02:15 SGT 2019)
(GPL source distribution)
Java Runtime: OpenJDK Runtime Environment
JVM: OpenJDK 64-Bit Server VM
Java Version: 11.0.5+10-b520.30
Operating System: Windows 10
Default Encoding: UTF-8
Language: en
Country: US
--></g></svg>
