<?xml version="1.0" encoding="UTF-8" standalone="no"?><svg xmlns="http://www.w3.org/2000/svg" xmlns:xlink="http://www.w3.org/1999/xlink" contentScriptType="application/ecmascript" contentStyleType="text/css" height="768px" preserveAspectRatio="none" style="width:1626px;height:768px;" version="1.1" viewBox="0 0 1626 768" width="1626px" zoomAndPan="magnify"><defs/><g><rect fill="#C8C8FA" height="746.375" style="stroke: #A80036; stroke-width: 1.0;" width="1399" x="122" y="4"/><text fill="#FFFFFF" font-family="sans-serif" font-size="15" font-weight="bold" lengthAdjust="spacingAndGlyphs" textLength="39" x="800" y="19.5713">Logic</text><rect fill="#F97181" height="746.375" style="stroke: #A80036; stroke-width: 1.0;" width="92" x="1523" y="4"/><text fill="#FFFFFF" font-family="sans-serif" font-size="15" font-weight="bold" lengthAdjust="spacingAndGlyphs" textLength="44" x="1545" y="19.5713">Model</text><rect fill="#FFFFFF" height="646.5469" style="stroke: #A80036; stroke-width: 1.0;" width="10" x="185" y="91.8281"/><rect fill="#FFFFFF" height="538.1406" style="stroke: #A80036; stroke-width: 1.0;" width="10" x="422" y="122.1797"/><rect fill="#FFFFFF" height="32.6094" style="stroke: #A80036; stroke-width: 1.0;" width="10" x="598" y="146.1797"/><rect fill="#FFFFFF" height="406.8281" style="stroke: #A80036; stroke-width: 1.0;" width="10" x="598" y="209.1406"/><rect fill="#FFFFFF" height="273.1641" style="stroke: #A80036; stroke-width: 1.0;" width="10" x="778" y="239.4922"/><rect fill="#FFFFFF" height="30.3516" style="stroke: #A80036; stroke-width: 1.0;" width="10" x="945" y="269.8438"/><rect fill="#FFFFFF" height="91.0547" style="stroke: #A80036; stroke-width: 1.0;" width="10" x="1060" y="391.25"/><rect fill="#FFFFFF" height="30.3516" style="stroke: #A80036; stroke-width: 1.0;" width="10" x="1216" y="330.5469"/><rect fill="#FFFFFF" height="30.3516" style="stroke: #A80036; stroke-width: 1.0;" width="10" x="1216" y="421.6016"/><rect fill="#FFFFFF" height="32.6094" style="stroke: #A80036; stroke-width: 1.0;" width="10" x="1390" y="553.0078"/><rect fill="#3333C4" height="31.6094" style="stroke: #A80036; stroke-width: 1.5;" width="163" x="521.5" y="130.1797"/><text fill="#FFFFFF" font-family="sans-serif" font-size="14" lengthAdjust="spacingAndGlyphs" textLength="149" x="528.5" y="151.7129">:ImportCommandParser</text><rect fill="#3333C4" height="31.6094" style="stroke: #A80036; stroke-width: 1.5;" width="224" x="1283" y="520.6563"/><text fill="#FFFFFF" font-family="sans-serif" font-size="14" lengthAdjust="spacingAndGlyphs" textLength="210" x="1290" y="542.1895">importCommand:ImportCommand</text><line style="stroke: #A80036; stroke-width: 1.0; stroke-dasharray: 5.0,5.0;" x1="190" x2="190" y1="59.4766" y2="756.375"/><line style="stroke: #A80036; stroke-width: 1.0; stroke-dasharray: 5.0,5.0;" x1="426.5" x2="426.5" y1="59.4766" y2="756.375"/><line style="stroke: #A80036; stroke-width: 1.0; stroke-dasharray: 5.0,5.0;" x1="602.5" x2="602.5" y1="161.4844" y2="756.375"/><line style="stroke: #A80036; stroke-width: 1.0; stroke-dasharray: 5.0,5.0;" x1="783" x2="783" y1="59.4766" y2="756.375"/><line style="stroke: #A80036; stroke-width: 1.0; stroke-dasharray: 5.0,5.0;" x1="950" x2="950" y1="59.4766" y2="756.375"/><line style="stroke: #A80036; stroke-width: 1.0; stroke-dasharray: 5.0,5.0;" x1="1065" x2="1065" y1="59.4766" y2="756.375"/><line style="stroke: #A80036; stroke-width: 1.0; stroke-dasharray: 5.0,5.0;" x1="1221" x2="1221" y1="59.4766" y2="756.375"/><line style="stroke: #A80036; stroke-width: 1.0; stroke-dasharray: 5.0,5.0;" x1="1395" x2="1395" y1="551.9609" y2="756.375"/><line style="stroke: #A80036; stroke-width: 1.0; stroke-dasharray: 5.0,5.0;" x1="1569" x2="1569" y1="59.4766" y2="756.375"/><rect fill="#3333C4" height="31.6094" style="stroke: #A80036; stroke-width: 1.5;" width="108" x="136" y="26.8672"/><text fill="#FFFFFF" font-family="sans-serif" font-size="14" lengthAdjust="spacingAndGlyphs" textLength="94" x="143" y="48.4004">:LogicManager</text><rect fill="#3333C4" height="31.6094" style="stroke: #A80036; stroke-width: 1.5;" width="129" x="362.5" y="26.8672"/><text fill="#FFFFFF" font-family="sans-serif" font-size="14" lengthAdjust="spacingAndGlyphs" textLength="115" x="369.5" y="48.4004">:OrderBookParser</text><rect fill="#3333C4" height="31.6094" style="stroke: #A80036; stroke-width: 1.5;" width="74" x="746" y="26.8672"/><text fill="#FFFFFF" font-family="sans-serif" font-size="14" lengthAdjust="spacingAndGlyphs" textLength="60" x="753" y="48.4004">:ParseUtil</text><rect fill="#3333C4" height="31.6094" style="stroke: #A80036; stroke-width: 1.5;" width="64" x="918" y="26.8672"/><text fill="#FFFFFF" font-family="sans-serif" font-size="14" lengthAdjust="spacingAndGlyphs" textLength="40" x="930" y="48.4004">:Paths</text><rect fill="#3333C4" height="31.6094" style="stroke: #A80036; stroke-width: 1.5;" width="106" x="1012" y="26.8672"/><text fill="#FFFFFF" font-family="sans-serif" font-size="14" lengthAdjust="spacingAndGlyphs" textLength="92" x="1019" y="48.4004">:CsvProcessor</text><rect fill="#3333C4" height="31.6094" style="stroke: #A80036; stroke-width: 1.5;" width="64" x="1189" y="26.8672"/><text fill="#FFFFFF" font-family="sans-serif" font-size="14" lengthAdjust="spacingAndGlyphs" textLength="46" x="1198" y="48.4004">:FileUtil</text><rect fill="#9D0012" height="31.6094" style="stroke: #A80036; stroke-width: 1.5;" width="64" x="1537" y="26.8672"/><text fill="#FFFFFF" font-family="sans-serif" font-size="14" lengthAdjust="spacingAndGlyphs" textLength="42" x="1548" y="48.4004">:Model</text><rect fill="#FFFFFF" height="646.5469" style="stroke: #A80036; stroke-width: 1.0;" width="10" x="185" y="91.8281"/><rect fill="#FFFFFF" height="538.1406" style="stroke: #A80036; stroke-width: 1.0;" width="10" x="422" y="122.1797"/><rect fill="#FFFFFF" height="32.6094" style="stroke: #A80036; stroke-width: 1.0;" width="10" x="598" y="146.1797"/><rect fill="#FFFFFF" height="406.8281" style="stroke: #A80036; stroke-width: 1.0;" width="10" x="598" y="209.1406"/><rect fill="#FFFFFF" height="273.1641" style="stroke: #A80036; stroke-width: 1.0;" width="10" x="778" y="239.4922"/><rect fill="#FFFFFF" height="30.3516" style="stroke: #A80036; stroke-width: 1.0;" width="10" x="945" y="269.8438"/><rect fill="#FFFFFF" height="91.0547" style="stroke: #A80036; stroke-width: 1.0;" width="10" x="1060" y="391.25"/><rect fill="#FFFFFF" height="30.3516" style="stroke: #A80036; stroke-width: 1.0;" width="10" x="1216" y="330.5469"/><rect fill="#FFFFFF" height="30.3516" style="stroke: #A80036; stroke-width: 1.0;" width="10" x="1216" y="421.6016"/><rect fill="#FFFFFF" height="32.6094" style="stroke: #A80036; stroke-width: 1.0;" width="10" x="1390" y="553.0078"/><polygon fill="#A80036" points="173,87.8281,183,91.8281,173,95.8281,177,91.8281" style="stroke: #A80036; stroke-width: 1.0;"/><line style="stroke: #A80036; stroke-width: 1.0;" x1="3" x2="179" y1="91.8281" y2="91.8281"/><text fill="#000000" font-family="sans-serif" font-size="13" lengthAdjust="spacingAndGlyphs" textLength="163" x="12.5" y="86.9717">execute("import orders.csv")</text><polygon fill="#A80036" points="410,118.1797,420,122.1797,410,126.1797,414,122.1797" style="stroke: #A80036; stroke-width: 1.0;"/><line style="stroke: #A80036; stroke-width: 1.0;" x1="195" x2="416" y1="122.1797" y2="122.1797"/><text fill="#000000" font-family="sans-serif" font-size="13" lengthAdjust="spacingAndGlyphs" textLength="208" x="204.5" y="117.3232">parseCommand("import orders.csv")</text><polygon fill="#A80036" points="509.5,132.1797,519.5,136.1797,509.5,140.1797,513.5,136.1797" style="stroke: #A80036; stroke-width: 1.0;"/><line style="stroke: #A80036; stroke-width: 1.0;" x1="432" x2="515.5" y1="136.1797" y2="136.1797"/><rect fill="#3333C4" height="31.6094" style="stroke: #A80036; stroke-width: 1.5;" width="163" x="521.5" y="130.1797"/><text fill="#FFFFFF" font-family="sans-serif" font-size="14" lengthAdjust="spacingAndGlyphs" textLength="149" x="528.5" y="151.7129">:ImportCommandParser</text><polygon fill="#A80036" points="443,174.7891,433,178.7891,443,182.7891,439,178.7891" style="stroke: #A80036; stroke-width: 1.0;"/><line style="stroke: #A80036; stroke-width: 1.0; stroke-dasharray: 2.0,2.0;" x1="437" x2="602" y1="178.7891" y2="178.7891"/><polygon fill="#A80036" points="586,205.1406,596,209.1406,586,213.1406,590,209.1406" style="stroke: #A80036; stroke-width: 1.0;"/><line style="stroke: #A80036; stroke-width: 1.0;" x1="432" x2="592" y1="209.1406" y2="209.1406"/><text fill="#000000" font-family="sans-serif" font-size="13" lengthAdjust="spacingAndGlyphs" textLength="109" x="460.5" y="204.2842">parse("orders.csv")</text><polygon fill="#A80036" points="766,235.4922,776,239.4922,766,243.4922,770,239.4922" style="stroke: #A80036; stroke-width: 1.0;"/><line style="stroke: #A80036; stroke-width: 1.0;" x1="608" x2="772" y1="239.4922" y2="239.4922"/><text fill="#000000" font-family="sans-serif" font-size="13" lengthAdjust="spacingAndGlyphs" textLength="151" x="617.5" y="234.6357">parseCsvFile("orders.csv")</text><polygon fill="#A80036" points="933,265.8438,943,269.8438,933,273.8438,937,269.8438" style="stroke: #A80036; stroke-width: 1.0;"/><line style="stroke: #A80036; stroke-width: 1.0;" x1="788" x2="939" y1="269.8438" y2="269.8438"/><text fill="#000000" font-family="sans-serif" font-size="13" lengthAdjust="spacingAndGlyphs" textLength="138" x="797.5" y="264.9873">get("data", "orders.csv")</text><polygon fill="#A80036" points="799,296.1953,789,300.1953,799,304.1953,795,300.1953" style="stroke: #A80036; stroke-width: 1.0;"/><line style="stroke: #A80036; stroke-width: 1.0; stroke-dasharray: 2.0,2.0;" x1="793" x2="949" y1="300.1953" y2="300.1953"/><text fill="#000000" font-family="sans-serif" font-size="13" lengthAdjust="spacingAndGlyphs" textLength="67" x="835.5" y="295.3389">csvFilePath</text><polygon fill="#A80036" points="1204,326.5469,1214,330.5469,1204,334.5469,1208,330.5469" style="stroke: #A80036; stroke-width: 1.0;"/><line style="stroke: #A80036; stroke-width: 1.0;" x1="788" x2="1210" y1="330.5469" y2="330.5469"/><text fill="#000000" font-family="sans-serif" font-size="13" lengthAdjust="spacingAndGlyphs" textLength="143" x="930.5" y="325.6904">isFileExists(csvFilePath)</text><polygon fill="#A80036" points="799,356.8984,789,360.8984,799,364.8984,795,360.8984" style="stroke: #A80036; stroke-width: 1.0;"/><line style="stroke: #A80036; stroke-width: 1.0; stroke-dasharray: 2.0,2.0;" x1="793" x2="1220" y1="360.8984" y2="360.8984"/><text fill="#000000" font-family="sans-serif" font-size="13" lengthAdjust="spacingAndGlyphs" textLength="22" x="993.5" y="356.042">true</text><polygon fill="#A80036" points="1048,387.25,1058,391.25,1048,395.25,1052,391.25" style="stroke: #A80036; stroke-width: 1.0;"/><line style="stroke: #A80036; stroke-width: 1.0;" x1="788" x2="1054" y1="391.25" y2="391.25"/><text fill="#000000" font-family="sans-serif" font-size="13" lengthAdjust="spacingAndGlyphs" textLength="143" x="852.5" y="386.3936">retrieveData(csvFilePath)</text><polygon fill="#A80036" points="1204,417.6016,1214,421.6016,1204,425.6016,1208,421.6016" style="stroke: #A80036; stroke-width: 1.0;"/><line style="stroke: #A80036; stroke-width: 1.0;" x1="1070" x2="1210" y1="421.6016" y2="421.6016"/><text fill="#000000" font-family="sans-serif" font-size="13" lengthAdjust="spacingAndGlyphs" textLength="127" x="1079.5" y="416.7451">readFromFile(filePath)</text><polygon fill="#A80036" points="1081,447.9531,1071,451.9531,1081,455.9531,1077,451.9531" style="stroke: #A80036; stroke-width: 1.0;"/><line style="stroke: #A80036; stroke-width: 1.0; stroke-dasharray: 2.0,2.0;" x1="1075" x2="1220" y1="451.9531" y2="451.9531"/><text fill="#000000" font-family="sans-serif" font-size="13" lengthAdjust="spacingAndGlyphs" textLength="43" x="1124" y="447.0967">fileData</text><polygon fill="#A80036" points="799,478.3047,789,482.3047,799,486.3047,795,482.3047" style="stroke: #A80036; stroke-width: 1.0;"/><line style="stroke: #A80036; stroke-width: 1.0; stroke-dasharray: 2.0,2.0;" x1="793" x2="1064" y1="482.3047" y2="482.3047"/><text fill="#000000" font-family="sans-serif" font-size="13" lengthAdjust="spacingAndGlyphs" textLength="43" x="905" y="477.4482">fileData</text><polygon fill="#A80036" points="619,508.6563,609,512.6563,619,516.6563,615,512.6563" style="stroke: #A80036; stroke-width: 1.0;"/><line style="stroke: #A80036; stroke-width: 1.0; stroke-dasharray: 2.0,2.0;" x1="613" x2="782" y1="512.6563" y2="512.6563"/><text fill="#000000" font-family="sans-serif" font-size="13" lengthAdjust="spacingAndGlyphs" textLength="43" x="674" y="507.7998">fileData</text><polygon fill="#A80036" points="1271,539.0078,1281,543.0078,1271,547.0078,1275,543.0078" style="stroke: #A80036; stroke-width: 1.0;"/><line style="stroke: #A80036; stroke-width: 1.0;" x1="608" x2="1277" y1="543.0078" y2="543.0078"/><text fill="#000000" font-family="sans-serif" font-size="13" lengthAdjust="spacingAndGlyphs" textLength="43" x="924" y="538.1514">fileData</text><rect fill="#3333C4" height="31.6094" style="stroke: #A80036; stroke-width: 1.5;" width="224" x="1283" y="520.6563"/><text fill="#FFFFFF" font-family="sans-serif" font-size="14" lengthAdjust="spacingAndGlyphs" textLength="210" x="1290" y="542.1895">importCommand:ImportCommand</text><polygon fill="#A80036" points="619,581.6172,609,585.6172,619,589.6172,615,585.6172" style="stroke: #A80036; stroke-width: 1.0;"/><line style="stroke: #A80036; stroke-width: 1.0; stroke-dasharray: 2.0,2.0;" x1="613" x2="1394" y1="585.6172" y2="585.6172"/><text fill="#000000" font-family="sans-serif" font-size="13" lengthAdjust="spacingAndGlyphs" textLength="95" x="954" y="580.7607">importCommand</text><polygon fill="#A80036" points="443,611.9688,433,615.9688,443,619.9688,439,615.9688" style="stroke: #A80036; stroke-width: 1.0;"/><line style="stroke: #A80036; stroke-width: 1.0; stroke-dasharray: 2.0,2.0;" x1="437" x2="602" y1="615.9688" y2="615.9688"/><text fill="#000000" font-family="sans-serif" font-size="13" lengthAdjust="spacingAndGlyphs" textLength="95" x="470" y="611.1123">importCommand</text><line style="stroke: #A80036; stroke-width: 2.0;" x1="594" x2="612" y1="620.9688" y2="638.9688"/><line style="stroke: #A80036; stroke-width: 2.0;" x1="594" x2="612" y1="638.9688" y2="620.9688"/><polygon fill="#A80036" points="206,656.3203,196,660.3203,206,664.3203,202,660.3203" style="stroke: #A80036; stroke-width: 1.0;"/><line style="stroke: #A80036; stroke-width: 1.0; stroke-dasharray: 2.0,2.0;" x1="200" x2="426" y1="660.3203" y2="660.3203"/><text fill="#000000" font-family="sans-serif" font-size="13" lengthAdjust="spacingAndGlyphs" textLength="95" x="263.5" y="655.4639">importCommand</text><rect fill="#FFFFFF" height="42.7031" style="stroke: #000000; stroke-width: 2.0;" width="1491" x="123" y="668.3203"/><polygon fill="#EEEEEE" points="123,668.3203,185,668.3203,185,676.3203,175,686.3203,123,686.3203,123,668.3203" style="stroke: #000000; stroke-width: 2.0;"/><text fill="#000000" font-family="sans-serif" font-size="13" font-weight="bold" lengthAdjust="spacingAndGlyphs" textLength="17" x="136" y="683.8154">ref</text><text fill="#000000" font-family="sans-serif" font-size="13" lengthAdjust="spacingAndGlyphs" textLength="311" x="713" y="703.8154">Execution of the Import Command Sequence Diagram</text><polygon fill="#A80036" points="14,734.375,4,738.375,14,742.375,10,738.375" style="stroke: #A80036; stroke-width: 1.0;"/><line style="stroke: #A80036; stroke-width: 1.0; stroke-dasharray: 2.0,2.0;" x1="8" x2="189" y1="738.375" y2="738.375"/><text fill="#000000" font-family="sans-serif" font-size="13" lengthAdjust="spacingAndGlyphs" textLength="32" x="80.5" y="733.5186">result</text><!--MD5=[bd158821dc230e6da42354e58293b2ff]
@startuml








skinparam BackgroundColor #FFFFFFF

skinparam Shadowing false

skinparam Class {
    FontColor #FFFFFF
    BorderThickness 1
    BorderColor #FFFFFF
    StereotypeFontColor #FFFFFF
    FontName Arial
}

skinparam Actor {
    BorderColor #000000
    Color #000000
    FontName Arial
}

skinparam Sequence {
    MessageAlign center
    BoxFontSize 15
    BoxPadding 0
    BoxFontColor #FFFFFF
    FontName Arial
}

skinparam Participant {
    FontColor #FFFFFFF
    Padding 20
}

skinparam MinClassWidth 50
skinparam ParticipantPadding 10
skinparam Shadowing false
skinparam DefaultTextAlignment center
skinparam packageStyle Rectangle

hide footbox
hide members
hide circle
box Logic #C8C8FA
participant ":LogicManager" as LogicManager #3333C4
participant ":OrderBookParser" as OrderBookParser #3333C4
participant ":ImportCommandParser" as ImportCommandParser #3333C4
participant ":ParseUtil" as ParseUtil #3333C4
participant ":Paths" as Paths #3333C4
participant ":CsvProcessor" as CsvProcessor #3333C4
participant ":FileUtil" as FileUtil #3333C4
participant "importCommand:ImportCommand" as ImportCommand #3333C4
end box

box Model #F97181
participant ":Model" as Model #9D0012
end box

[-> LogicManager : execute("import orders.csv")
activate LogicManager

LogicManager -> OrderBookParser ++ : parseCommand("import orders.csv")

create ImportCommandParser
OrderBookParser -> ImportCommandParser ++

ImportCommandParser - -> OrderBookParser - -

OrderBookParser -> ImportCommandParser ++ : parse("orders.csv")

ImportCommandParser -> ParseUtil ++ : parseCsvFile("orders.csv")

ParseUtil -> Paths ++ : get("data", "orders.csv")

Paths - -> ParseUtil - - : csvFilePath

ParseUtil -> FileUtil ++ : isFileExists(csvFilePath)

FileUtil - -> ParseUtil - - : true

ParseUtil -> CsvProcessor ++ : retrieveData(csvFilePath)

CsvProcessor -> FileUtil ++ : readFromFile(filePath)

FileUtil - -> CsvProcessor - - : fileData

CsvProcessor - -> ParseUtil - - : fileData

ParseUtil - -> ImportCommandParser - - : fileData

create ImportCommand
ImportCommandParser -> ImportCommand ++ : fileData

ImportCommand - -> ImportCommandParser - - : importCommand

ImportCommandParser - -> OrderBookParser - - : importCommand

ImportCommandParser -[hidden]-> OrderBookParser
destroy ImportCommandParser

OrderBookParser - -> LogicManager - - : importCommand

ref over LogicManager,  Model : Execution of the Import Command Sequence Diagram

[<- -LogicManager : result
deactivate LogicManager
@enduml

PlantUML version 1.2019.11(Sun Sep 22 18:02:15 SGT 2019)
(GPL source distribution)
Java Runtime: OpenJDK Runtime Environment
JVM: OpenJDK 64-Bit Server VM
Java Version: 11.0.5+10-b520.30
Operating System: Windows 10
Default Encoding: UTF-8
Language: en
Country: US
--></g></svg>
