<?xml version="1.0" encoding="UTF-8" standalone="no"?><svg xmlns="http://www.w3.org/2000/svg" xmlns:xlink="http://www.w3.org/1999/xlink" contentScriptType="application/ecmascript" contentStyleType="text/css" height="788px" preserveAspectRatio="none" style="width:1268px;height:788px;" version="1.1" viewBox="0 0 1268 788" width="1268px" zoomAndPan="magnify"><defs><filter height="300%" id="f670ekybnanrf" width="300%" x="-1" y="-1"><feGaussianBlur result="blurOut" stdDeviation="2.0"/><feColorMatrix in="blurOut" result="blurOut2" type="matrix" values="0 0 0 0 0 0 0 0 0 0 0 0 0 0 0 0 0 0 .4 0"/><feOffset dx="4.0" dy="4.0" in="blurOut2" result="blurOut3"/><feBlend in="SourceGraphic" in2="blurOut3" mode="normal"/></filter></defs><g><ellipse cx="312.5938" cy="20" fill="#000000" filter="url(#f670ekybnanrf)" rx="10" ry="10" style="stroke: none; stroke-width: 1.0;"/><rect fill="#FEFECE" filter="url(#f670ekybnanrf)" height="35.0938" rx="12.5" ry="12.5" style="stroke: #A80036; stroke-width: 1.5;" width="175" x="225.0938" y="50"/><text fill="#000000" font-family="sans-serif" font-size="12" lengthAdjust="spacingAndGlyphs" textLength="155" x="235.0938" y="72.457">User enter import command</text><polygon fill="#FEFECE" filter="url(#f670ekybnanrf)" points="312.5938,105.0938,312.5938,105.0938,324.5938,117.0938,312.5938,129.0938,312.5938,129.0938,300.5938,117.0938,312.5938,105.0938" style="stroke: #A80036; stroke-width: 1.5;"/><text fill="#000000" font-family="sans-serif" font-size="11" lengthAdjust="spacingAndGlyphs" textLength="142" x="158.5938" y="114.6768">[Input without .csv extension]</text><text fill="#000000" font-family="sans-serif" font-size="11" lengthAdjust="spacingAndGlyphs" textLength="26" x="324.5938" y="114.6768">[else]</text><rect fill="#FEFECE" filter="url(#f670ekybnanrf)" height="35.0938" rx="12.5" ry="12.5" style="stroke: #A80036; stroke-width: 1.5;" width="187" x="10" y="139.0938"/><text fill="#000000" font-family="sans-serif" font-size="12" lengthAdjust="spacingAndGlyphs" textLength="167" x="20" y="161.5508">Display error message to user</text><polygon fill="#FEFECE" filter="url(#f670ekybnanrf)" points="521.6875,139.0938,521.6875,139.0938,533.6875,151.0938,521.6875,163.0938,521.6875,163.0938,509.6875,151.0938,521.6875,139.0938" style="stroke: #A80036; stroke-width: 1.5;"/><text fill="#000000" font-family="sans-serif" font-size="11" lengthAdjust="spacingAndGlyphs" textLength="87" x="422.6875" y="148.6768">[FilePath is invalid]</text><text fill="#000000" font-family="sans-serif" font-size="11" lengthAdjust="spacingAndGlyphs" textLength="26" x="533.6875" y="148.6768">[else]</text><rect fill="#FEFECE" filter="url(#f670ekybnanrf)" height="35.0938" rx="12.5" ry="12.5" style="stroke: #A80036; stroke-width: 1.5;" width="187" x="227" y="173.0938"/><text fill="#000000" font-family="sans-serif" font-size="12" lengthAdjust="spacingAndGlyphs" textLength="167" x="237" y="195.5508">Display error message to user</text><polygon fill="#FEFECE" filter="url(#f670ekybnanrf)" points="722.875,173.0938,722.875,173.0938,734.875,185.0938,722.875,197.0938,722.875,197.0938,710.875,185.0938,722.875,173.0938" style="stroke: #A80036; stroke-width: 1.5;"/><text fill="#000000" font-family="sans-serif" font-size="11" lengthAdjust="spacingAndGlyphs" textLength="105" x="605.875" y="182.6768">[File is unable to read]</text><text fill="#000000" font-family="sans-serif" font-size="11" lengthAdjust="spacingAndGlyphs" textLength="26" x="734.875" y="182.6768">[else]</text><rect fill="#FEFECE" filter="url(#f670ekybnanrf)" height="35.0938" rx="12.5" ry="12.5" style="stroke: #A80036; stroke-width: 1.5;" width="187" x="444" y="207.0938"/><text fill="#000000" font-family="sans-serif" font-size="12" lengthAdjust="spacingAndGlyphs" textLength="167" x="454" y="229.5508">Display error message to user</text><rect fill="#FEFECE" filter="url(#f670ekybnanrf)" height="35.0938" rx="12.5" ry="12.5" style="stroke: #A80036; stroke-width: 1.5;" width="281" x="767.75" y="207.0938"/><text fill="#000000" font-family="sans-serif" font-size="12" lengthAdjust="spacingAndGlyphs" textLength="261" x="777.75" y="229.5508">Retrieve  and process the data from the CSV file</text><rect fill="#FEFECE" filter="url(#f670ekybnanrf)" height="35.0938" rx="12.5" ry="12.5" style="stroke: #A80036; stroke-width: 1.5;" width="190" x="813.25" y="262.1875"/><text fill="#000000" font-family="sans-serif" font-size="12" lengthAdjust="spacingAndGlyphs" textLength="170" x="823.25" y="284.6445">Create a new ImportCommand</text><polygon fill="#FEFECE" filter="url(#f670ekybnanrf)" points="908.25,361.2813,908.25,361.2813,920.25,373.2813,908.25,385.2813,908.25,385.2813,896.25,373.2813,908.25,361.2813" style="stroke: #A80036; stroke-width: 1.5;"/><text fill="#000000" font-family="sans-serif" font-size="11" lengthAdjust="spacingAndGlyphs" textLength="89" x="807.25" y="370.8643">[Invalid orderType]</text><rect fill="#FEFECE" filter="url(#f670ekybnanrf)" height="35.0938" rx="12.5" ry="12.5" style="stroke: #A80036; stroke-width: 1.5;" width="203" x="661" y="395.2813"/><text fill="#000000" font-family="sans-serif" font-size="12" lengthAdjust="spacingAndGlyphs" textLength="183" x="671" y="417.7383">Add the invalid data into the result</text><polygon fill="#FEFECE" filter="url(#f670ekybnanrf)" points="1054,395.2813,1054,395.2813,1066,407.2813,1054,419.2813,1054,419.2813,1042,407.2813,1054,395.2813" style="stroke: #A80036; stroke-width: 1.5;"/><text fill="#000000" font-family="sans-serif" font-size="11" lengthAdjust="spacingAndGlyphs" textLength="158" x="884" y="404.8643">[Order value found in orderType]</text><text fill="#000000" font-family="sans-serif" font-size="11" lengthAdjust="spacingAndGlyphs" textLength="162" x="1066" y="404.8643">[Return value found in orderType]</text><rect fill="#FEFECE" filter="url(#f670ekybnanrf)" height="35.0938" rx="12.5" ry="12.5" style="stroke: #A80036; stroke-width: 1.5;" width="73" x="962.25" y="429.2813"/><text fill="#000000" font-family="sans-serif" font-size="12" lengthAdjust="spacingAndGlyphs" textLength="53" x="972.25" y="451.7383">Add order</text><rect fill="#FEFECE" filter="url(#f670ekybnanrf)" height="35.0938" rx="12.5" ry="12.5" style="stroke: #A80036; stroke-width: 1.5;" width="108" x="1055.25" y="429.2813"/><text fill="#000000" font-family="sans-serif" font-size="12" lengthAdjust="spacingAndGlyphs" textLength="88" x="1065.25" y="451.7383">Add return order</text><polygon fill="#FEFECE" filter="url(#f670ekybnanrf)" points="1054,470.375,1066,482.375,1054,494.375,1042,482.375,1054,470.375" style="stroke: #A80036; stroke-width: 1.5;"/><polygon fill="#FEFECE" filter="url(#f670ekybnanrf)" points="908.25,500.375,920.25,512.375,908.25,524.375,896.25,512.375,908.25,500.375" style="stroke: #A80036; stroke-width: 1.5;"/><polygon fill="#FEFECE" filter="url(#f670ekybnanrf)" points="908.25,317.2813,920.25,329.2813,908.25,341.2813,896.25,329.2813,908.25,317.2813" style="stroke: #A80036; stroke-width: 1.5;"/><polygon fill="#FEFECE" filter="url(#f670ekybnanrf)" points="908.25,544.375,908.25,544.375,920.25,556.375,908.25,568.375,908.25,568.375,896.25,556.375,908.25,544.375" style="stroke: #A80036; stroke-width: 1.5;"/><text fill="#000000" font-family="sans-serif" font-size="11" lengthAdjust="spacingAndGlyphs" textLength="133" x="920.25" y="553.958">[Still have more data in list?]</text><rect fill="#FEFECE" filter="url(#f670ekybnanrf)" height="35.0938" rx="12.5" ry="12.5" style="stroke: #A80036; stroke-width: 1.5;" width="194" x="811.25" y="610.6279"/><text fill="#000000" font-family="sans-serif" font-size="12" lengthAdjust="spacingAndGlyphs" textLength="174" x="821.25" y="633.085">Display the import result to user</text><polygon fill="#FEFECE" filter="url(#f670ekybnanrf)" points="722.875,651.7217,734.875,663.7217,722.875,675.7217,710.875,663.7217,722.875,651.7217" style="stroke: #A80036; stroke-width: 1.5;"/><polygon fill="#FEFECE" filter="url(#f670ekybnanrf)" points="521.6875,681.7217,533.6875,693.7217,521.6875,705.7217,509.6875,693.7217,521.6875,681.7217" style="stroke: #A80036; stroke-width: 1.5;"/><polygon fill="#FEFECE" filter="url(#f670ekybnanrf)" points="312.5938,711.7217,324.5938,723.7217,312.5938,735.7217,300.5938,723.7217,312.5938,711.7217" style="stroke: #A80036; stroke-width: 1.5;"/><ellipse cx="312.5938" cy="766.7217" fill="#FFFFFF" filter="url(#f670ekybnanrf)" rx="11" ry="11" style="stroke: #000000; stroke-width: 1.0;"/><ellipse cx="312.5938" cy="766.7217" fill="#000000" rx="6" ry="6" style="stroke: #7F7F7F; stroke-width: 1.0;"/><line style="stroke: #A80036; stroke-width: 1.5;" x1="312.5938" x2="312.5938" y1="30" y2="50"/><polygon fill="#A80036" points="308.5938,40,312.5938,50,316.5938,40,312.5938,44" style="stroke: #A80036; stroke-width: 1.0;"/><line style="stroke: #A80036; stroke-width: 1.5;" x1="908.25" x2="908.25" y1="242.1875" y2="262.1875"/><polygon fill="#A80036" points="904.25,252.1875,908.25,262.1875,912.25,252.1875,908.25,256.1875" style="stroke: #A80036; stroke-width: 1.0;"/><line style="stroke: #A80036; stroke-width: 1.5;" x1="1042" x2="998.75" y1="407.2813" y2="407.2813"/><line style="stroke: #A80036; stroke-width: 1.5;" x1="998.75" x2="998.75" y1="407.2813" y2="429.2813"/><polygon fill="#A80036" points="994.75,419.2813,998.75,429.2813,1002.75,419.2813,998.75,423.2813" style="stroke: #A80036; stroke-width: 1.0;"/><line style="stroke: #A80036; stroke-width: 1.5;" x1="1066" x2="1109.25" y1="407.2813" y2="407.2813"/><line style="stroke: #A80036; stroke-width: 1.5;" x1="1109.25" x2="1109.25" y1="407.2813" y2="429.2813"/><polygon fill="#A80036" points="1105.25,419.2813,1109.25,429.2813,1113.25,419.2813,1109.25,423.2813" style="stroke: #A80036; stroke-width: 1.0;"/><line style="stroke: #A80036; stroke-width: 1.5;" x1="998.75" x2="998.75" y1="464.375" y2="482.375"/><line style="stroke: #A80036; stroke-width: 1.5;" x1="998.75" x2="1042" y1="482.375" y2="482.375"/><polygon fill="#A80036" points="1032,478.375,1042,482.375,1032,486.375,1036,482.375" style="stroke: #A80036; stroke-width: 1.0;"/><line style="stroke: #A80036; stroke-width: 1.5;" x1="1109.25" x2="1109.25" y1="464.375" y2="482.375"/><line style="stroke: #A80036; stroke-width: 1.5;" x1="1109.25" x2="1066" y1="482.375" y2="482.375"/><polygon fill="#A80036" points="1076,478.375,1066,482.375,1076,486.375,1072,482.375" style="stroke: #A80036; stroke-width: 1.0;"/><line style="stroke: #A80036; stroke-width: 1.5;" x1="896.25" x2="762.5" y1="373.2813" y2="373.2813"/><line style="stroke: #A80036; stroke-width: 1.5;" x1="762.5" x2="762.5" y1="373.2813" y2="395.2813"/><polygon fill="#A80036" points="758.5,385.2813,762.5,395.2813,766.5,385.2813,762.5,389.2813" style="stroke: #A80036; stroke-width: 1.0;"/><line style="stroke: #A80036; stroke-width: 1.5;" x1="920.25" x2="1054" y1="373.2813" y2="373.2813"/><line style="stroke: #A80036; stroke-width: 1.5;" x1="1054" x2="1054" y1="373.2813" y2="395.2813"/><polygon fill="#A80036" points="1050,385.2813,1054,395.2813,1058,385.2813,1054,389.2813" style="stroke: #A80036; stroke-width: 1.0;"/><line style="stroke: #A80036; stroke-width: 1.5;" x1="762.5" x2="762.5" y1="430.375" y2="512.375"/><line style="stroke: #A80036; stroke-width: 1.5;" x1="762.5" x2="896.25" y1="512.375" y2="512.375"/><polygon fill="#A80036" points="886.25,508.375,896.25,512.375,886.25,516.375,890.25,512.375" style="stroke: #A80036; stroke-width: 1.0;"/><line style="stroke: #A80036; stroke-width: 1.5;" x1="1054" x2="1054" y1="494.375" y2="512.375"/><line style="stroke: #A80036; stroke-width: 1.5;" x1="1054" x2="920.25" y1="512.375" y2="512.375"/><polygon fill="#A80036" points="930.25,508.375,920.25,512.375,930.25,516.375,926.25,512.375" style="stroke: #A80036; stroke-width: 1.0;"/><line style="stroke: #A80036; stroke-width: 1.5;" x1="908.25" x2="908.25" y1="341.2813" y2="361.2813"/><polygon fill="#A80036" points="904.25,351.2813,908.25,361.2813,912.25,351.2813,908.25,355.2813" style="stroke: #A80036; stroke-width: 1.0;"/><line style="stroke: #A80036; stroke-width: 1.5;" x1="920.25" x2="1242" y1="556.375" y2="556.375"/><polygon fill="#A80036" points="1238,452.8281,1242,442.8281,1246,452.8281,1242,448.8281" style="stroke: #A80036; stroke-width: 1.5;"/><line style="stroke: #A80036; stroke-width: 1.5;" x1="1242" x2="1242" y1="329.2813" y2="556.375"/><line style="stroke: #A80036; stroke-width: 1.5;" x1="1242" x2="920.25" y1="329.2813" y2="329.2813"/><polygon fill="#A80036" points="930.25,325.2813,920.25,329.2813,930.25,333.2813,926.25,329.2813" style="stroke: #A80036; stroke-width: 1.0;"/><line style="stroke: #A80036; stroke-width: 1.5;" x1="908.25" x2="908.25" y1="524.375" y2="544.375"/><polygon fill="#A80036" points="904.25,534.375,908.25,544.375,912.25,534.375,908.25,538.375" style="stroke: #A80036; stroke-width: 1.0;"/><line style="stroke: #A80036; stroke-width: 1.5;" x1="908.25" x2="908.25" y1="297.2813" y2="317.2813"/><polygon fill="#A80036" points="904.25,307.2813,908.25,317.2813,912.25,307.2813,908.25,311.2813" style="stroke: #A80036; stroke-width: 1.0;"/><line style="stroke: #A80036; stroke-width: 1.5;" x1="908.25" x2="908.25" y1="568.375" y2="610.6279"/><polygon fill="#A80036" points="904.25,600.6279,908.25,610.6279,912.25,600.6279,908.25,604.6279" style="stroke: #A80036; stroke-width: 1.0;"/><text fill="#000000" font-family="sans-serif" font-size="11" lengthAdjust="spacingAndGlyphs" textLength="26" x="912.25" y="590.7109">[else]</text><line style="stroke: #A80036; stroke-width: 1.5;" x1="710.875" x2="537.5" y1="185.0938" y2="185.0938"/><line style="stroke: #A80036; stroke-width: 1.5;" x1="537.5" x2="537.5" y1="185.0938" y2="207.0938"/><polygon fill="#A80036" points="533.5,197.0938,537.5,207.0938,541.5,197.0938,537.5,201.0938" style="stroke: #A80036; stroke-width: 1.0;"/><line style="stroke: #A80036; stroke-width: 1.5;" x1="734.875" x2="908.25" y1="185.0938" y2="185.0938"/><line style="stroke: #A80036; stroke-width: 1.5;" x1="908.25" x2="908.25" y1="185.0938" y2="207.0938"/><polygon fill="#A80036" points="904.25,197.0938,908.25,207.0938,912.25,197.0938,908.25,201.0938" style="stroke: #A80036; stroke-width: 1.0;"/><line style="stroke: #A80036; stroke-width: 1.5;" x1="537.5" x2="537.5" y1="242.1875" y2="663.7217"/><line style="stroke: #A80036; stroke-width: 1.5;" x1="537.5" x2="710.875" y1="663.7217" y2="663.7217"/><polygon fill="#A80036" points="700.875,659.7217,710.875,663.7217,700.875,667.7217,704.875,663.7217" style="stroke: #A80036; stroke-width: 1.0;"/><line style="stroke: #A80036; stroke-width: 1.5;" x1="908.25" x2="908.25" y1="645.7217" y2="663.7217"/><line style="stroke: #A80036; stroke-width: 1.5;" x1="908.25" x2="734.875" y1="663.7217" y2="663.7217"/><polygon fill="#A80036" points="744.875,659.7217,734.875,663.7217,744.875,667.7217,740.875,663.7217" style="stroke: #A80036; stroke-width: 1.0;"/><line style="stroke: #A80036; stroke-width: 1.5;" x1="509.6875" x2="320.5" y1="151.0938" y2="151.0938"/><line style="stroke: #A80036; stroke-width: 1.5;" x1="320.5" x2="320.5" y1="151.0938" y2="173.0938"/><polygon fill="#A80036" points="316.5,163.0938,320.5,173.0938,324.5,163.0938,320.5,167.0938" style="stroke: #A80036; stroke-width: 1.0;"/><line style="stroke: #A80036; stroke-width: 1.5;" x1="533.6875" x2="722.875" y1="151.0938" y2="151.0938"/><line style="stroke: #A80036; stroke-width: 1.5;" x1="722.875" x2="722.875" y1="151.0938" y2="173.0938"/><polygon fill="#A80036" points="718.875,163.0938,722.875,173.0938,726.875,163.0938,722.875,167.0938" style="stroke: #A80036; stroke-width: 1.0;"/><line style="stroke: #A80036; stroke-width: 1.5;" x1="320.5" x2="320.5" y1="208.1875" y2="693.7217"/><line style="stroke: #A80036; stroke-width: 1.5;" x1="320.5" x2="509.6875" y1="693.7217" y2="693.7217"/><polygon fill="#A80036" points="499.6875,689.7217,509.6875,693.7217,499.6875,697.7217,503.6875,693.7217" style="stroke: #A80036; stroke-width: 1.0;"/><line style="stroke: #A80036; stroke-width: 1.5;" x1="722.875" x2="722.875" y1="675.7217" y2="693.7217"/><line style="stroke: #A80036; stroke-width: 1.5;" x1="722.875" x2="533.6875" y1="693.7217" y2="693.7217"/><polygon fill="#A80036" points="543.6875,689.7217,533.6875,693.7217,543.6875,697.7217,539.6875,693.7217" style="stroke: #A80036; stroke-width: 1.0;"/><line style="stroke: #A80036; stroke-width: 1.5;" x1="300.5938" x2="103.5" y1="117.0938" y2="117.0938"/><line style="stroke: #A80036; stroke-width: 1.5;" x1="103.5" x2="103.5" y1="117.0938" y2="139.0938"/><polygon fill="#A80036" points="99.5,129.0938,103.5,139.0938,107.5,129.0938,103.5,133.0938" style="stroke: #A80036; stroke-width: 1.0;"/><line style="stroke: #A80036; stroke-width: 1.5;" x1="324.5938" x2="521.6875" y1="117.0938" y2="117.0938"/><line style="stroke: #A80036; stroke-width: 1.5;" x1="521.6875" x2="521.6875" y1="117.0938" y2="139.0938"/><polygon fill="#A80036" points="517.6875,129.0938,521.6875,139.0938,525.6875,129.0938,521.6875,133.0938" style="stroke: #A80036; stroke-width: 1.0;"/><line style="stroke: #A80036; stroke-width: 1.5;" x1="103.5" x2="103.5" y1="174.1875" y2="723.7217"/><line style="stroke: #A80036; stroke-width: 1.5;" x1="103.5" x2="300.5938" y1="723.7217" y2="723.7217"/><polygon fill="#A80036" points="290.5938,719.7217,300.5938,723.7217,290.5938,727.7217,294.5938,723.7217" style="stroke: #A80036; stroke-width: 1.0;"/><line style="stroke: #A80036; stroke-width: 1.5;" x1="521.6875" x2="521.6875" y1="705.7217" y2="723.7217"/><line style="stroke: #A80036; stroke-width: 1.5;" x1="521.6875" x2="324.5938" y1="723.7217" y2="723.7217"/><polygon fill="#A80036" points="334.5938,719.7217,324.5938,723.7217,334.5938,727.7217,330.5938,723.7217" style="stroke: #A80036; stroke-width: 1.0;"/><line style="stroke: #A80036; stroke-width: 1.5;" x1="312.5938" x2="312.5938" y1="85.0938" y2="105.0938"/><polygon fill="#A80036" points="308.5938,95.0938,312.5938,105.0938,316.5938,95.0938,312.5938,99.0938" style="stroke: #A80036; stroke-width: 1.0;"/><line style="stroke: #A80036; stroke-width: 1.5;" x1="312.5938" x2="312.5938" y1="735.7217" y2="755.7217"/><polygon fill="#A80036" points="308.5938,745.7217,312.5938,755.7217,316.5938,745.7217,312.5938,749.7217" style="stroke: #A80036; stroke-width: 1.0;"/><!--MD5=[f0278f19f3ab121d6433d50fdf197351]
@startuml

start
:User enter import command;
if () then ([Input without .csv extension])
    :Display error message to user;
else ([else])
    if () then ([FilePath is invalid])
        :Display error message to user;

    else ([else])
        if() then ([File is unable to read])
            :Display error message to user;

        else ([else])
            :Retrieve  and process the data from the CSV file;
            :Create a new ImportCommand;
            repeat
                if() then ([Invalid orderType])
                :Add the invalid data into the result;
                else
                    if () then ([Order value found in orderType])
                    :Add order;
                    else ([Return value found in orderType])
                    :Add return order;
                    endif
                endif
            repeat while () is ([Still have more data in list?])
            ->[else];
            :Display the import result to user;
        endif
    endif
endif
stop
@enduml

PlantUML version 1.2019.11(Sun Sep 22 18:02:15 SGT 2019)
(GPL source distribution)
Java Runtime: OpenJDK Runtime Environment
JVM: OpenJDK 64-Bit Server VM
Java Version: 11.0.5+10-b520.30
Operating System: Windows 10
Default Encoding: UTF-8
Language: en
Country: US
--></g></svg>
