<?xml version="1.0" encoding="UTF-8" standalone="no"?><svg xmlns="http://www.w3.org/2000/svg" xmlns:xlink="http://www.w3.org/1999/xlink" contentScriptType="application/ecmascript" contentStyleType="text/css" height="646.5px" preserveAspectRatio="none" style="width:994px;height:646px;" version="1.1" viewBox="0 0 994 646" width="994.5px" zoomAndPan="magnify"><defs><filter height="300%" id="fcuctflkow5ek" width="300%" x="-1" y="-1"><feGaussianBlur result="blurOut" stdDeviation="3.0"/><feColorMatrix in="blurOut" result="blurOut2" type="matrix" values="0 0 0 0 0 0 0 0 0 0 0 0 0 0 0 0 0 0 .4 0"/><feOffset dx="6.0" dy="6.0" in="blurOut2" result="blurOut3"/><feBlend in="SourceGraphic" in2="blurOut3" mode="normal"/></filter></defs><g><ellipse cx="362.625" cy="30" fill="#000000" filter="url(#fcuctflkow5ek)" rx="15" ry="15" style="stroke: none; stroke-width: 1.5;"/><rect fill="#FEFECE" filter="url(#fcuctflkow5ek)" height="52.6406" rx="18.75" ry="18.75" style="stroke: #A80036; stroke-width: 2.25;" width="271.5" x="226.875" y="75"/><text fill="#000000" font-family="sans-serif" font-size="18" lengthAdjust="spacingAndGlyphs" textLength="241.5" x="241.875" y="108.6855">User enters Insert Command</text><polygon fill="#FEFECE" filter="url(#fcuctflkow5ek)" points="362.625,157.6406,362.625,157.6406,380.625,175.6406,362.625,193.6406,362.625,193.6406,344.625,175.6406,362.625,157.6406" style="stroke: #A80036; stroke-width: 2.25;"/><text fill="#000000" font-family="sans-serif" font-size="16.5" lengthAdjust="spacingAndGlyphs" textLength="322.5" x="22.125" y="172.0151">[Command has missing compulsory prefixes]</text><text fill="#000000" font-family="sans-serif" font-size="16.5" lengthAdjust="spacingAndGlyphs" textLength="133.5" x="380.625" y="172.0151">[Command is valid]</text><rect fill="#FEFECE" filter="url(#fcuctflkow5ek)" height="52.6406" rx="18.75" ry="18.75" style="stroke: #A80036; stroke-width: 2.25;" width="225" x="15" y="208.6406"/><text fill="#000000" font-family="sans-serif" font-size="18" lengthAdjust="spacingAndGlyphs" textLength="195" x="30" y="242.3262">Throws ParseException</text><polygon fill="#FEFECE" filter="url(#fcuctflkow5ek)" points="597.75,208.6406,597.75,208.6406,615.75,226.6406,597.75,244.6406,597.75,244.6406,579.75,226.6406,597.75,208.6406" style="stroke: #A80036; stroke-width: 2.25;"/><text fill="#000000" font-family="sans-serif" font-size="16.5" lengthAdjust="spacingAndGlyphs" textLength="136.5" x="443.25" y="223.0151">[Order is duplicate]</text><text fill="#000000" font-family="sans-serif" font-size="16.5" lengthAdjust="spacingAndGlyphs" textLength="120" x="615.75" y="223.0151">[Order is unique]</text><rect fill="#FEFECE" filter="url(#fcuctflkow5ek)" height="52.6406" rx="18.75" ry="18.75" style="stroke: #A80036; stroke-width: 2.25;" width="264" x="285" y="259.6406"/><text fill="#000000" font-family="sans-serif" font-size="18" lengthAdjust="spacingAndGlyphs" textLength="234" x="300" y="293.3262">Throws CommandException</text><rect fill="#FEFECE" filter="url(#fcuctflkow5ek)" height="52.6406" rx="18.75" ry="18.75" style="stroke: #A80036; stroke-width: 2.25;" width="235.5" x="660.75" y="259.6406"/><text fill="#000000" font-family="sans-serif" font-size="18" lengthAdjust="spacingAndGlyphs" textLength="205.5" x="675.75" y="293.3262">Adds Order to OrderBook</text><rect fill="#FEFECE" filter="url(#fcuctflkow5ek)" height="52.6406" rx="18.75" ry="18.75" style="stroke: #A80036; stroke-width: 2.25;" width="399" x="579" y="342.2813"/><text fill="#000000" font-family="sans-serif" font-size="18" lengthAdjust="spacingAndGlyphs" textLength="369" x="594" y="375.9668">Returns Message to user indicating Success</text><rect fill="#FEFECE" filter="url(#fcuctflkow5ek)" height="52.6406" rx="18.75" ry="18.75" style="stroke: #A80036; stroke-width: 2.25;" width="310.5" x="623.25" y="424.9219"/><text fill="#000000" font-family="sans-serif" font-size="18" lengthAdjust="spacingAndGlyphs" textLength="280.5" x="638.25" y="458.6074">LogicManager prints result to user</text><polygon fill="#FEFECE" filter="url(#fcuctflkow5ek)" points="597.75,486.5625,615.75,504.5625,597.75,522.5625,579.75,504.5625,597.75,486.5625" style="stroke: #A80036; stroke-width: 2.25;"/><polygon fill="#FEFECE" filter="url(#fcuctflkow5ek)" points="362.625,531.5625,380.625,549.5625,362.625,567.5625,344.625,549.5625,362.625,531.5625" style="stroke: #A80036; stroke-width: 2.25;"/><ellipse cx="362.625" cy="614.0625" fill="#FFFFFF" filter="url(#fcuctflkow5ek)" rx="16.5" ry="16.5" style="stroke: #000000; stroke-width: 1.5;"/><ellipse cx="362.625" cy="614.0625" fill="#000000" rx="9" ry="9" style="stroke: #7F7F7F; stroke-width: 1.5;"/><line style="stroke: #A80036; stroke-width: 2.25;" x1="362.625" x2="362.625" y1="45" y2="75"/><polygon fill="#A80036" points="356.625,60,362.625,75,368.625,60,362.625,66" style="stroke: #A80036; stroke-width: 1.5;"/><line style="stroke: #A80036; stroke-width: 2.25;" x1="778.5" x2="778.5" y1="312.2813" y2="342.2813"/><polygon fill="#A80036" points="772.5,327.2813,778.5,342.2813,784.5,327.2813,778.5,333.2813" style="stroke: #A80036; stroke-width: 1.5;"/><line style="stroke: #A80036; stroke-width: 2.25;" x1="778.5" x2="778.5" y1="394.9219" y2="424.9219"/><polygon fill="#A80036" points="772.5,409.9219,778.5,424.9219,784.5,409.9219,778.5,415.9219" style="stroke: #A80036; stroke-width: 1.5;"/><line style="stroke: #A80036; stroke-width: 2.25;" x1="579.75" x2="417" y1="226.6406" y2="226.6406"/><line style="stroke: #A80036; stroke-width: 2.25;" x1="417" x2="417" y1="226.6406" y2="259.6406"/><polygon fill="#A80036" points="411,244.6406,417,259.6406,423,244.6406,417,250.6406" style="stroke: #A80036; stroke-width: 1.5;"/><line style="stroke: #A80036; stroke-width: 2.25;" x1="615.75" x2="778.5" y1="226.6406" y2="226.6406"/><line style="stroke: #A80036; stroke-width: 2.25;" x1="778.5" x2="778.5" y1="226.6406" y2="259.6406"/><polygon fill="#A80036" points="772.5,244.6406,778.5,259.6406,784.5,244.6406,778.5,250.6406" style="stroke: #A80036; stroke-width: 1.5;"/><line style="stroke: #A80036; stroke-width: 2.25;" x1="417" x2="417" y1="312.2813" y2="504.5625"/><line style="stroke: #A80036; stroke-width: 2.25;" x1="417" x2="579.75" y1="504.5625" y2="504.5625"/><polygon fill="#A80036" points="564.75,498.5625,579.75,504.5625,564.75,510.5625,570.75,504.5625" style="stroke: #A80036; stroke-width: 1.5;"/><line style="stroke: #A80036; stroke-width: 2.25;" x1="778.5" x2="778.5" y1="477.5625" y2="504.5625"/><line style="stroke: #A80036; stroke-width: 2.25;" x1="778.5" x2="615.75" y1="504.5625" y2="504.5625"/><polygon fill="#A80036" points="630.75,498.5625,615.75,504.5625,630.75,510.5625,624.75,504.5625" style="stroke: #A80036; stroke-width: 1.5;"/><line style="stroke: #A80036; stroke-width: 2.25;" x1="344.625" x2="127.5" y1="175.6406" y2="175.6406"/><line style="stroke: #A80036; stroke-width: 2.25;" x1="127.5" x2="127.5" y1="175.6406" y2="208.6406"/><polygon fill="#A80036" points="121.5,193.6406,127.5,208.6406,133.5,193.6406,127.5,199.6406" style="stroke: #A80036; stroke-width: 1.5;"/><line style="stroke: #A80036; stroke-width: 2.25;" x1="380.625" x2="597.75" y1="175.6406" y2="175.6406"/><line style="stroke: #A80036; stroke-width: 2.25;" x1="597.75" x2="597.75" y1="175.6406" y2="208.6406"/><polygon fill="#A80036" points="591.75,193.6406,597.75,208.6406,603.75,193.6406,597.75,199.6406" style="stroke: #A80036; stroke-width: 1.5;"/><line style="stroke: #A80036; stroke-width: 2.25;" x1="127.5" x2="127.5" y1="261.2813" y2="549.5625"/><line style="stroke: #A80036; stroke-width: 2.25;" x1="127.5" x2="344.625" y1="549.5625" y2="549.5625"/><polygon fill="#A80036" points="329.625,543.5625,344.625,549.5625,329.625,555.5625,335.625,549.5625" style="stroke: #A80036; stroke-width: 1.5;"/><line style="stroke: #A80036; stroke-width: 2.25;" x1="597.75" x2="597.75" y1="522.5625" y2="549.5625"/><line style="stroke: #A80036; stroke-width: 2.25;" x1="597.75" x2="380.625" y1="549.5625" y2="549.5625"/><polygon fill="#A80036" points="395.625,543.5625,380.625,549.5625,395.625,555.5625,389.625,549.5625" style="stroke: #A80036; stroke-width: 1.5;"/><line style="stroke: #A80036; stroke-width: 2.25;" x1="362.625" x2="362.625" y1="127.6406" y2="157.6406"/><polygon fill="#A80036" points="356.625,142.6406,362.625,157.6406,368.625,142.6406,362.625,148.6406" style="stroke: #A80036; stroke-width: 1.5;"/><line style="stroke: #A80036; stroke-width: 2.25;" x1="362.625" x2="362.625" y1="567.5625" y2="597.5625"/><polygon fill="#A80036" points="356.625,582.5625,362.625,597.5625,368.625,582.5625,362.625,588.5625" style="stroke: #A80036; stroke-width: 1.5;"/><!--MD5=[6308a203bfe170e30ed61a45c89e84d7]
@startuml
start
:User enters Insert Command;


If () then ([Command has missing compulsory prefixes])
    :Throws ParseException;

    else ([Command is valid])


    If () then ([Order is duplicate])
    :Throws CommandException;

    else ([Order is unique])
        :Adds Order to OrderBook;
        :Returns Message to user indicating Success;
        :LogicManager prints result to user;
        endif
        endif
stop
@enduml

PlantUML version 1.2019.11(Sun Sep 22 18:02:15 SGT 2019)
(GPL source distribution)
Java Runtime: OpenJDK Runtime Environment
JVM: OpenJDK 64-Bit Server VM
Java Version: 11.0.5+10-b520.17
Operating System: Windows 10
Default Encoding: UTF-8
Language: en
Country: SG
--></g></svg>
