<?xml version="1.0" encoding="UTF-8" standalone="no"?><svg xmlns="http://www.w3.org/2000/svg" xmlns:xlink="http://www.w3.org/1999/xlink" contentScriptType="application/ecmascript" contentStyleType="text/css" height="1327.5px" preserveAspectRatio="none" style="width:2857px;height:1327px;" version="1.1" viewBox="0 0 2857 1327" width="2857.5px" zoomAndPan="magnify"><defs/><g><rect fill="#C8C8FA" height="1295.1094" style="stroke: #A80036; stroke-width: 1.5;" width="2345.25" x="355.5" y="6"/><text fill="#FFFFFF" font-family="sans-serif" font-size="22.5" font-weight="bold" lengthAdjust="spacingAndGlyphs" textLength="58.5" x="1495.875" y="29.3569">Logic</text><rect fill="#F97181" height="1295.1094" style="stroke: #A80036; stroke-width: 1.5;" width="138" x="2703.75" y="6"/><text fill="#FFFFFF" font-family="sans-serif" font-size="22.5" font-weight="bold" lengthAdjust="spacingAndGlyphs" textLength="66" x="2736.75" y="29.3569">Model</text><rect fill="#FFFFFF" height="1130.3672" style="stroke: #A80036; stroke-width: 1.5;" width="15" x="450" y="152.7422"/><rect fill="#FFFFFF" height="694.7344" style="stroke: #A80036; stroke-width: 1.5;" width="15" x="651" y="183.2695"/><rect fill="#FFFFFF" height="567.6797" style="stroke: #A80036; stroke-width: 1.5;" width="15" x="897.75" y="243.7969"/><rect fill="#FFFFFF" height="567.6797" style="stroke: #A80036; stroke-width: 1.5;" width="15" x="897.75" y="243.7969"/><rect fill="#FFFFFF" height="37.5" style="stroke: #A80036; stroke-width: 1.5;" width="15" x="905.25" y="414.1523"/><rect fill="#FFFFFF" height="48.9141" style="stroke: #A80036; stroke-width: 1.5;" width="15" x="1355.25" y="717.0352"/><rect fill="#FFFFFF" height="48.9141" style="stroke: #A80036; stroke-width: 1.5;" width="15" x="1355.25" y="717.0352"/><rect fill="#FFFFFF" height="267.0234" style="stroke: #A80036; stroke-width: 1.5;" width="15" x="1355.25" y="923.5313"/><rect fill="#FFFFFF" height="267.0234" style="stroke: #A80036; stroke-width: 1.5;" width="15" x="1355.25" y="923.5313"/><rect fill="#FFFFFF" height="48.9141" style="stroke: #A80036; stroke-width: 1.5;" width="15" x="1668" y="307.7109"/><rect fill="#FFFFFF" height="48.9141" style="stroke: #A80036; stroke-width: 1.5;" width="15" x="1668" y="307.7109"/><rect fill="#FFFFFF" height="24.3867" style="stroke: #A80036; stroke-width: 1.5;" width="15" x="1878" y="632.1211"/><rect fill="#FFFFFF" height="24.3867" style="stroke: #A80036; stroke-width: 1.5;" width="15" x="1878" y="632.1211"/><rect fill="#FFFFFF" height="48.9141" style="stroke: #A80036; stroke-width: 1.5;" width="15" x="2141.25" y="522.6797"/><rect fill="#FFFFFF" height="48.9141" style="stroke: #A80036; stroke-width: 1.5;" width="15" x="2141.25" y="522.6797"/><rect fill="#FFFFFF" height="48.9141" style="stroke: #A80036; stroke-width: 1.5;" width="15" x="2512.5" y="1096.1133"/><rect fill="#FFFFFF" height="48.9141" style="stroke: #A80036; stroke-width: 1.5;" width="15" x="2512.5" y="1096.1133"/><rect fill="#FFFFFF" height="21" style="stroke: #A80036; stroke-width: 1.5;" width="15" x="2765.25" y="969.0586"/><rect fill="#3333C4" height="47.4141" style="stroke: #A80036; stroke-width: 2.25;" width="238.5" x="778.5" y="195.2695"/><text fill="#FFFFFF" font-family="sans-serif" font-size="21" lengthAdjust="spacingAndGlyphs" textLength="217.5" x="789" y="227.5693">:InsertCommandParser</text><rect fill="#3333C4" height="47.4141" style="stroke: #A80036; stroke-width: 2.25;" width="211.5" x="1562.25" y="259.1836"/><text fill="#FFFFFF" font-family="sans-serif" font-size="21" lengthAdjust="spacingAndGlyphs" textLength="190.5" x="1572.75" y="291.4834">:ArgumentTokenizer</text><rect fill="#3333C4" height="47.4141" style="stroke: #A80036; stroke-width: 2.25;" width="318" x="1982.25" y="474.1523"/><text fill="#FFFFFF" font-family="sans-serif" font-size="21" lengthAdjust="spacingAndGlyphs" textLength="297" x="1992.75" y="506.4521">argMultimap:ArgumentMultimap</text><rect fill="#3333C4" height="47.4141" style="stroke: #A80036; stroke-width: 2.25;" width="118.5" x="1818.75" y="583.5938"/><text fill="#FFFFFF" font-family="sans-serif" font-size="21" lengthAdjust="spacingAndGlyphs" textLength="97.5" x="1829.25" y="615.8936">:ParserUtil</text><rect fill="#3333C4" height="47.4141" style="stroke: #A80036; stroke-width: 2.25;" width="324" x="1193.25" y="668.5078"/><text fill="#FFFFFF" font-family="sans-serif" font-size="21" lengthAdjust="spacingAndGlyphs" textLength="303" x="1203.75" y="700.8076">insertCommand:InsertCommand</text><rect fill="#3333C4" height="47.4141" style="stroke: #A80036; stroke-width: 2.25;" width="334.5" x="2345.25" y="1047.5859"/><text fill="#FFFFFF" font-family="sans-serif" font-size="21" lengthAdjust="spacingAndGlyphs" textLength="313.5" x="2355.75" y="1079.8857">commandResult:CommandResult</text><line style="stroke: #A80036; stroke-width: 1.5; stroke-dasharray: 5.0,5.0;" x1="457.5" x2="457.5" y1="89.2148" y2="1310.1094"/><line style="stroke: #A80036; stroke-width: 1.5; stroke-dasharray: 5.0,5.0;" x1="658.5" x2="658.5" y1="89.2148" y2="1310.1094"/><line style="stroke: #A80036; stroke-width: 1.5; stroke-dasharray: 5.0,5.0;" x1="897" x2="897" y1="242.2266" y2="1310.1094"/><line style="stroke: #A80036; stroke-width: 1.5; stroke-dasharray: 5.0,5.0;" x1="1355.25" x2="1355.25" y1="715.4648" y2="1310.1094"/><line style="stroke: #A80036; stroke-width: 1.5; stroke-dasharray: 5.0,5.0;" x1="1667.25" x2="1667.25" y1="306.1406" y2="1310.1094"/><line style="stroke: #A80036; stroke-width: 1.5; stroke-dasharray: 5.0,5.0;" x1="1877.25" x2="1877.25" y1="630.5508" y2="1310.1094"/><line style="stroke: #A80036; stroke-width: 1.5; stroke-dasharray: 5.0,5.0;" x1="2141.25" x2="2141.25" y1="521.1094" y2="1310.1094"/><line style="stroke: #A80036; stroke-width: 1.5; stroke-dasharray: 5.0,5.0;" x1="2511.75" x2="2511.75" y1="1094.543" y2="1310.1094"/><line style="stroke: #A80036; stroke-width: 1.5; stroke-dasharray: 5.0,5.0;" x1="2772.75" x2="2772.75" y1="89.2148" y2="1310.1094"/><rect fill="#3333C4" height="47.4141" style="stroke: #A80036; stroke-width: 2.25;" width="162" x="376.5" y="40.3008"/><text fill="#FFFFFF" font-family="sans-serif" font-size="21" lengthAdjust="spacingAndGlyphs" textLength="141" x="387" y="72.6006">:LogicManager</text><rect fill="#3333C4" height="47.4141" style="stroke: #A80036; stroke-width: 2.25;" width="150" x="583.5" y="40.3008"/><text fill="#FFFFFF" font-family="sans-serif" font-size="21" lengthAdjust="spacingAndGlyphs" textLength="129" x="594" y="72.6006">:DelinoParser</text><rect fill="#9D0012" height="47.4141" style="stroke: #A80036; stroke-width: 2.25;" width="96" x="2724.75" y="40.3008"/><text fill="#FFFFFF" font-family="sans-serif" font-size="21" lengthAdjust="spacingAndGlyphs" textLength="63" x="2741.25" y="72.6006">:Model</text><rect fill="#FFFFFF" height="1130.3672" style="stroke: #A80036; stroke-width: 1.5;" width="15" x="450" y="152.7422"/><rect fill="#FFFFFF" height="694.7344" style="stroke: #A80036; stroke-width: 1.5;" width="15" x="651" y="183.2695"/><rect fill="#FFFFFF" height="567.6797" style="stroke: #A80036; stroke-width: 1.5;" width="15" x="897.75" y="243.7969"/><rect fill="#FFFFFF" height="567.6797" style="stroke: #A80036; stroke-width: 1.5;" width="15" x="897.75" y="243.7969"/><rect fill="#FFFFFF" height="37.5" style="stroke: #A80036; stroke-width: 1.5;" width="15" x="905.25" y="414.1523"/><rect fill="#FFFFFF" height="48.9141" style="stroke: #A80036; stroke-width: 1.5;" width="15" x="1355.25" y="717.0352"/><rect fill="#FFFFFF" height="48.9141" style="stroke: #A80036; stroke-width: 1.5;" width="15" x="1355.25" y="717.0352"/><rect fill="#FFFFFF" height="267.0234" style="stroke: #A80036; stroke-width: 1.5;" width="15" x="1355.25" y="923.5313"/><rect fill="#FFFFFF" height="267.0234" style="stroke: #A80036; stroke-width: 1.5;" width="15" x="1355.25" y="923.5313"/><rect fill="#FFFFFF" height="48.9141" style="stroke: #A80036; stroke-width: 1.5;" width="15" x="1668" y="307.7109"/><rect fill="#FFFFFF" height="48.9141" style="stroke: #A80036; stroke-width: 1.5;" width="15" x="1668" y="307.7109"/><rect fill="#FFFFFF" height="24.3867" style="stroke: #A80036; stroke-width: 1.5;" width="15" x="1878" y="632.1211"/><rect fill="#FFFFFF" height="24.3867" style="stroke: #A80036; stroke-width: 1.5;" width="15" x="1878" y="632.1211"/><rect fill="#FFFFFF" height="48.9141" style="stroke: #A80036; stroke-width: 1.5;" width="15" x="2141.25" y="522.6797"/><rect fill="#FFFFFF" height="48.9141" style="stroke: #A80036; stroke-width: 1.5;" width="15" x="2141.25" y="522.6797"/><rect fill="#FFFFFF" height="48.9141" style="stroke: #A80036; stroke-width: 1.5;" width="15" x="2512.5" y="1096.1133"/><rect fill="#FFFFFF" height="48.9141" style="stroke: #A80036; stroke-width: 1.5;" width="15" x="2512.5" y="1096.1133"/><rect fill="#FFFFFF" height="21" style="stroke: #A80036; stroke-width: 1.5;" width="15" x="2765.25" y="969.0586"/><polygon fill="#A80036" points="439.5,131.7422,454.5,137.7422,439.5,143.7422,445.5,137.7422" style="stroke: #A80036; stroke-width: 1.5;"/><line style="stroke: #A80036; stroke-width: 1.5;" x1="4.5" x2="448.5" y1="137.7422" y2="137.7422"/><text fill="#000000" font-family="sans-serif" font-size="19.5" lengthAdjust="spacingAndGlyphs" textLength="417" x="22.5" y="130.4575">execute("insert tid/A11 n/Amos p/91234567"...")</text><polygon fill="#A80036" points="633,177.2695,648,183.2695,633,189.2695,639,183.2695" style="stroke: #A80036; stroke-width: 1.5;"/><line style="stroke: #A80036; stroke-width: 1.5;" x1="465" x2="642" y1="183.2695" y2="183.2695"/><text fill="#000000" font-family="sans-serif" font-size="19.5" lengthAdjust="spacingAndGlyphs" textLength="148.5" x="483.75" y="175.9849">parseCommand()</text><polygon fill="#A80036" points="760.5,222.7969,775.5,228.7969,760.5,234.7969,766.5,228.7969" style="stroke: #A80036; stroke-width: 1.5;"/><line style="stroke: #A80036; stroke-width: 1.5;" x1="666" x2="769.5" y1="228.7969" y2="228.7969"/><text fill="#000000" font-family="sans-serif" font-size="19.5" lengthAdjust="spacingAndGlyphs" textLength="60" x="692.25" y="221.5122">parse()</text><rect fill="#3333C4" height="47.4141" style="stroke: #A80036; stroke-width: 2.25;" width="238.5" x="778.5" y="195.2695"/><text fill="#FFFFFF" font-family="sans-serif" font-size="21" lengthAdjust="spacingAndGlyphs" textLength="217.5" x="789" y="227.5693">:InsertCommandParser</text><polygon fill="#A80036" points="1544.25,286.7109,1559.25,292.7109,1544.25,298.7109,1550.25,292.7109" style="stroke: #A80036; stroke-width: 1.5;"/><line style="stroke: #A80036; stroke-width: 1.5;" x1="912.75" x2="1553.25" y1="292.7109" y2="292.7109"/><text fill="#000000" font-family="sans-serif" font-size="19.5" lengthAdjust="spacingAndGlyphs" textLength="259.5" x="1107.75" y="285.4263">tokenize(args, PREFIX_TID...)</text><rect fill="#3333C4" height="47.4141" style="stroke: #A80036; stroke-width: 2.25;" width="211.5" x="1562.25" y="259.1836"/><text fill="#FFFFFF" font-family="sans-serif" font-size="21" lengthAdjust="spacingAndGlyphs" textLength="190.5" x="1572.75" y="291.4834">:ArgumentTokenizer</text><polygon fill="#A80036" points="929.25,350.625,914.25,356.625,929.25,362.625,923.25,356.625" style="stroke: #A80036; stroke-width: 1.5;"/><line style="stroke: #A80036; stroke-width: 1.5; stroke-dasharray: 2.0,2.0;" x1="920.25" x2="1666.5" y1="356.625" y2="356.625"/><text fill="#000000" font-family="sans-serif" font-size="19.5" lengthAdjust="spacingAndGlyphs" textLength="106.5" x="1237.125" y="349.3403">argMultimap</text><line style="stroke: #A80036; stroke-width: 1.5;" x1="912.75" x2="983.25" y1="394.6523" y2="394.6523"/><line style="stroke: #A80036; stroke-width: 1.5;" x1="983.25" x2="983.25" y1="394.6523" y2="414.1523"/><line style="stroke: #A80036; stroke-width: 1.5;" x1="921.75" x2="983.25" y1="414.1523" y2="414.1523"/><polygon fill="#A80036" points="936.75,408.1523,921.75,414.1523,936.75,420.1523,930.75,414.1523" style="stroke: #A80036; stroke-width: 1.5;"/><text fill="#000000" font-family="sans-serif" font-size="19.5" lengthAdjust="spacingAndGlyphs" textLength="414" x="930.75" y="387.3677">arePrefixesPresent(argMultimap, PREFIX_TID..)</text><line style="stroke: #A80036; stroke-width: 1.5; stroke-dasharray: 2.0,2.0;" x1="920.25" x2="983.25" y1="450.1523" y2="450.1523"/><line style="stroke: #A80036; stroke-width: 1.5; stroke-dasharray: 2.0,2.0;" x1="983.25" x2="983.25" y1="450.1523" y2="469.6523"/><line style="stroke: #A80036; stroke-width: 1.5; stroke-dasharray: 2.0,2.0;" x1="912.75" x2="983.25" y1="469.6523" y2="469.6523"/><polygon fill="#A80036" points="927.75,463.6523,912.75,469.6523,927.75,475.6523,921.75,469.6523" style="stroke: #A80036; stroke-width: 1.5;"/><polygon fill="#A80036" points="1964.25,501.6797,1979.25,507.6797,1964.25,513.6797,1970.25,507.6797" style="stroke: #A80036; stroke-width: 1.5;"/><line style="stroke: #A80036; stroke-width: 1.5;" x1="912.75" x2="1973.25" y1="507.6797" y2="507.6797"/><text fill="#000000" font-family="sans-serif" font-size="19.5" lengthAdjust="spacingAndGlyphs" textLength="466.5" x="1214.25" y="500.395">getValue(PREFIX_TID), getValue(PREFIX_NAME), ....</text><rect fill="#3333C4" height="47.4141" style="stroke: #A80036; stroke-width: 2.25;" width="318" x="1982.25" y="474.1523"/><text fill="#FFFFFF" font-family="sans-serif" font-size="21" lengthAdjust="spacingAndGlyphs" textLength="297" x="1992.75" y="506.4521">argMultimap:ArgumentMultimap</text><polygon fill="#A80036" points="929.25,565.5938,914.25,571.5938,929.25,577.5938,923.25,571.5938" style="stroke: #A80036; stroke-width: 1.5;"/><line style="stroke: #A80036; stroke-width: 1.5; stroke-dasharray: 2.0,2.0;" x1="920.25" x2="2139.75" y1="571.5938" y2="571.5938"/><text fill="#000000" font-family="sans-serif" font-size="19.5" lengthAdjust="spacingAndGlyphs" textLength="175.5" x="1439.25" y="564.3091">argTID, argName ....</text><polygon fill="#A80036" points="1800.75,611.1211,1815.75,617.1211,1800.75,623.1211,1806.75,617.1211" style="stroke: #A80036; stroke-width: 1.5;"/><line style="stroke: #A80036; stroke-width: 1.5;" x1="912.75" x2="1809.75" y1="617.1211" y2="617.1211"/><text fill="#000000" font-family="sans-serif" font-size="19.5" lengthAdjust="spacingAndGlyphs" textLength="378" x="1176.75" y="609.8364">parseTid(argTID), parseName(argName), ....</text><rect fill="#3333C4" height="47.4141" style="stroke: #A80036; stroke-width: 2.25;" width="118.5" x="1818.75" y="583.5938"/><text fill="#FFFFFF" font-family="sans-serif" font-size="21" lengthAdjust="spacingAndGlyphs" textLength="97.5" x="1829.25" y="615.8936">:ParserUtil</text><polygon fill="#A80036" points="929.25,650.5078,914.25,656.5078,929.25,662.5078,923.25,656.5078" style="stroke: #A80036; stroke-width: 1.5;"/><line style="stroke: #A80036; stroke-width: 1.5; stroke-dasharray: 2.0,2.0;" x1="920.25" x2="1876.5" y1="656.5078" y2="656.5078"/><polygon fill="#A80036" points="1175.25,696.0352,1190.25,702.0352,1175.25,708.0352,1181.25,702.0352" style="stroke: #A80036; stroke-width: 1.5;"/><line style="stroke: #A80036; stroke-width: 1.5;" x1="912.75" x2="1184.25" y1="702.0352" y2="702.0352"/><text fill="#000000" font-family="sans-serif" font-size="19.5" lengthAdjust="spacingAndGlyphs" textLength="48" x="1029" y="694.7505">Order</text><rect fill="#3333C4" height="47.4141" style="stroke: #A80036; stroke-width: 2.25;" width="324" x="1193.25" y="668.5078"/><text fill="#FFFFFF" font-family="sans-serif" font-size="21" lengthAdjust="spacingAndGlyphs" textLength="303" x="1203.75" y="700.8076">insertCommand:InsertCommand</text><polygon fill="#A80036" points="929.25,759.9492,914.25,765.9492,929.25,771.9492,923.25,765.9492" style="stroke: #A80036; stroke-width: 1.5;"/><line style="stroke: #A80036; stroke-width: 1.5; stroke-dasharray: 2.0,2.0;" x1="920.25" x2="1353.75" y1="765.9492" y2="765.9492"/><text fill="#000000" font-family="sans-serif" font-size="19.5" lengthAdjust="spacingAndGlyphs" textLength="136.5" x="1065.75" y="758.6646">insertCommand</text><polygon fill="#A80036" points="682.5,805.4766,667.5,811.4766,682.5,817.4766,676.5,811.4766" style="stroke: #A80036; stroke-width: 1.5;"/><line style="stroke: #A80036; stroke-width: 1.5; stroke-dasharray: 2.0,2.0;" x1="673.5" x2="896.25" y1="811.4766" y2="811.4766"/><text fill="#000000" font-family="sans-serif" font-size="19.5" lengthAdjust="spacingAndGlyphs" textLength="136.5" x="713.625" y="804.1919">insertCommand</text><polygon fill="#A80036" points="481.5,872.0039,466.5,878.0039,481.5,884.0039,475.5,878.0039" style="stroke: #A80036; stroke-width: 1.5;"/><line style="stroke: #A80036; stroke-width: 1.5; stroke-dasharray: 2.0,2.0;" x1="472.5" x2="657" y1="878.0039" y2="878.0039"/><text fill="#000000" font-family="sans-serif" font-size="19.5" lengthAdjust="spacingAndGlyphs" textLength="136.5" x="493.5" y="870.7192">insertCommand</text><polygon fill="#A80036" points="1337.25,917.5313,1352.25,923.5313,1337.25,929.5313,1343.25,923.5313" style="stroke: #A80036; stroke-width: 1.5;"/><line style="stroke: #A80036; stroke-width: 1.5;" x1="465" x2="1346.25" y1="923.5313" y2="923.5313"/><text fill="#000000" font-family="sans-serif" font-size="19.5" lengthAdjust="spacingAndGlyphs" textLength="133.5" x="843.375" y="916.2466">execute(model)</text><polygon fill="#A80036" points="2747.25,963.0586,2762.25,969.0586,2747.25,975.0586,2753.25,969.0586" style="stroke: #A80036; stroke-width: 1.5;"/><line style="stroke: #A80036; stroke-width: 1.5;" x1="1370.25" x2="2756.25" y1="969.0586" y2="969.0586"/><text fill="#000000" font-family="sans-serif" font-size="19.5" lengthAdjust="spacingAndGlyphs" textLength="142.5" x="1996.5" y="961.7739">hasOrder(toAdd)</text><polygon fill="#A80036" points="1386.75,984.0586,1371.75,990.0586,1386.75,996.0586,1380.75,990.0586" style="stroke: #A80036; stroke-width: 1.5;"/><line style="stroke: #A80036; stroke-width: 1.5; stroke-dasharray: 2.0,2.0;" x1="1377.75" x2="2771.25" y1="990.0586" y2="990.0586"/><polygon fill="#A80036" points="2754.75,1029.5859,2769.75,1035.5859,2754.75,1041.5859,2760.75,1035.5859" style="stroke: #A80036; stroke-width: 1.5;"/><line style="stroke: #A80036; stroke-width: 1.5;" x1="1370.25" x2="2763.75" y1="1035.5859" y2="1035.5859"/><text fill="#000000" font-family="sans-serif" font-size="19.5" lengthAdjust="spacingAndGlyphs" textLength="142.5" x="2000.25" y="1028.3013">addOrder(toAdd)</text><polygon fill="#A80036" points="2327.25,1075.1133,2342.25,1081.1133,2327.25,1087.1133,2333.25,1081.1133" style="stroke: #A80036; stroke-width: 1.5;"/><line style="stroke: #A80036; stroke-width: 1.5;" x1="1370.25" x2="2336.25" y1="1081.1133" y2="1081.1133"/><text fill="#000000" font-family="sans-serif" font-size="19.5" lengthAdjust="spacingAndGlyphs" textLength="79.5" x="1818" y="1073.8286">message</text><rect fill="#3333C4" height="47.4141" style="stroke: #A80036; stroke-width: 2.25;" width="334.5" x="2345.25" y="1047.5859"/><text fill="#FFFFFF" font-family="sans-serif" font-size="21" lengthAdjust="spacingAndGlyphs" textLength="313.5" x="2355.75" y="1079.8857">commandResult:CommandResult</text><polygon fill="#A80036" points="1386.75,1139.0273,1371.75,1145.0273,1386.75,1151.0273,1380.75,1145.0273" style="stroke: #A80036; stroke-width: 1.5;"/><line style="stroke: #A80036; stroke-width: 1.5; stroke-dasharray: 2.0,2.0;" x1="1377.75" x2="2511" y1="1145.0273" y2="1145.0273"/><text fill="#000000" font-family="sans-serif" font-size="19.5" lengthAdjust="spacingAndGlyphs" textLength="141" x="1870.875" y="1137.7427">commandResult</text><polygon fill="#A80036" points="481.5,1184.5547,466.5,1190.5547,481.5,1196.5547,475.5,1190.5547" style="stroke: #A80036; stroke-width: 1.5;"/><line style="stroke: #A80036; stroke-width: 1.5; stroke-dasharray: 2.0,2.0;" x1="472.5" x2="1353.75" y1="1190.5547" y2="1190.5547"/><text fill="#000000" font-family="sans-serif" font-size="19.5" lengthAdjust="spacingAndGlyphs" textLength="141" x="839.625" y="1183.27">commandResult</text><rect fill="#FFFFFF" height="64.0547" style="stroke: #000000; stroke-width: 3.0;" width="2483.25" x="357" y="1202.5547"/><polygon fill="#EEEEEE" points="357,1202.5547,450,1202.5547,450,1214.5547,435,1229.5547,357,1229.5547,357,1202.5547" style="stroke: #000000; stroke-width: 3.0;"/><text fill="#000000" font-family="sans-serif" font-size="19.5" font-weight="bold" lengthAdjust="spacingAndGlyphs" textLength="25.5" x="376.5" y="1225.7974">ref</text><text fill="#000000" font-family="sans-serif" font-size="19.5" lengthAdjust="spacingAndGlyphs" textLength="460.5" x="1368.375" y="1255.7974">Execution of the Insert Command Sequence Diagram</text><polygon fill="#A80036" points="21,1277.1094,6,1283.1094,21,1289.1094,15,1283.1094" style="stroke: #A80036; stroke-width: 1.5;"/><line style="stroke: #A80036; stroke-width: 1.5; stroke-dasharray: 2.0,2.0;" x1="12" x2="456" y1="1283.1094" y2="1283.1094"/><!--MD5=[1df2123abd7a4912bda67bbaa7632cce]
@startuml








skinparam BackgroundColor #FFFFFFF

skinparam Shadowing false

skinparam Class {
    FontColor #FFFFFF
    BorderThickness 1
    BorderColor #FFFFFF
    StereotypeFontColor #FFFFFF
    FontName Arial
}

skinparam Actor {
    BorderColor #000000
    Color #000000
    FontName Arial
}

skinparam Sequence {
    MessageAlign center
    BoxFontSize 15
    BoxPadding 0
    BoxFontColor #FFFFFF
    FontName Arial
}

skinparam Participant {
    FontColor #FFFFFFF
    Padding 20
}

skinparam MinClassWidth 50
skinparam ParticipantPadding 10
skinparam Shadowing false
skinparam DefaultTextAlignment center
skinparam packageStyle Rectangle

hide footbox
hide members
hide circle
box Logic #C8C8FA
participant ":LogicManager" as LogicManager #3333C4
participant ":DelinoParser" as DelinoParser #3333C4
participant ":InsertCommandParser" as InsertCommandParser #3333C4
participant "insertCommand:InsertCommand" as InsertCommand #3333C4
participant ":ArgumentTokenizer" as ArgumentTokenizer #3333C4
participant ":ParserUtil" as ParserUtil #3333C4
participant "argMultimap:ArgumentMultimap" as ArgumentMultimap #3333C4
participant "commandResult:CommandResult" as CommandResult #3333C4
end box

box Model #F97181
participant ":Model" as Model #9D0012
end box

create LogicManager
[-> LogicManager : execute("insert tid/A11 n/Amos p/91234567"...")
activate LogicManager

LogicManager -> DelinoParser : parseCommand()
activate DelinoParser

create InsertCommandParser

DelinoParser -> InsertCommandParser ++ : parse()
activate InsertCommandParser
create ArgumentTokenizer

InsertCommandParser -> ArgumentTokenizer ++ : tokenize(args, PREFIX_TID...)
activate ArgumentTokenizer

ArgumentTokenizer - -> InsertCommandParser - - : argMultimap
deactivate ArgumentTokenizer

InsertCommandParser -> InsertCommandParser ++ : arePrefixesPresent(argMultimap, PREFIX_TID..)
InsertCommandParser - -> InsertCommandParser - - :

create ArgumentMultimap
InsertCommandParser -> ArgumentMultimap ++ : getValue(PREFIX_TID), getValue(PREFIX_NAME), ....
activate ArgumentMultimap

ArgumentMultimap - -> InsertCommandParser - - : argTID, argName ....
deactivate ArgumentMultimap

create ParserUtil
InsertCommandParser -> ParserUtil ++ : parseTid(argTID), parseName(argName), ....
activate ParserUtil

ParserUtil - -> InsertCommandParser - -
deactivate ParserUtil

create InsertCommand

InsertCommandParser -> InsertCommand ++ : Order
activate InsertCommand

InsertCommand - -> InsertCommandParser - - : insertCommand
deactivate InsertCommand
InsertCommandParser - -> DelinoParser - - : insertCommand

deactivate InsertCommandParser
InsertCommandParser -[hidden]-> DelinoParser

DelinoParser - -> LogicManager - - : insertCommand

LogicManager -> InsertCommand ++ : execute(model)

activate InsertCommand

InsertCommand -> Model ++ : hasOrder(toAdd)

Model - -> InsertCommand - - :

InsertCommand -> Model : addOrder(toAdd)


create CommandResult

InsertCommand -> CommandResult ++ : message
activate CommandResult

CommandResult - -> InsertCommand - - : commandResult

deactivate CommandResult

InsertCommand - -> LogicManager - - : commandResult

ref over LogicManager,  Model : Execution of the Insert Command Sequence Diagram
deactivate InsertCommand
[<- -LogicManager
deactivate LogicManager
@enduml

PlantUML version 1.2019.11(Sun Sep 22 18:02:15 SGT 2019)
(GPL source distribution)
Java Runtime: OpenJDK Runtime Environment
JVM: OpenJDK 64-Bit Server VM
Java Version: 11.0.5+10-b520.17
Operating System: Windows 10
Default Encoding: UTF-8
Language: en
Country: SG
--></g></svg>
