<?xml version="1.0" encoding="UTF-8" standalone="no"?><svg xmlns="http://www.w3.org/2000/svg" xmlns:xlink="http://www.w3.org/1999/xlink" contentScriptType="application/ecmascript" contentStyleType="text/css" height="1327.5px" preserveAspectRatio="none" style="width:3465px;height:1327px;" version="1.1" viewBox="0 0 3465 1327" width="3465px" zoomAndPan="magnify"><defs/><g><rect fill="#C8C8FA" height="1295.1094" style="stroke: #A80036; stroke-width: 1.5;" width="2952.75" x="355.5" y="6"/><text fill="#FFFFFF" font-family="sans-serif" font-size="22.5" font-weight="bold" lengthAdjust="spacingAndGlyphs" textLength="58.5" x="1799.625" y="29.3569">Logic</text><rect fill="#F97181" height="1295.1094" style="stroke: #A80036; stroke-width: 1.5;" width="138" x="3311.25" y="6"/><text fill="#FFFFFF" font-family="sans-serif" font-size="22.5" font-weight="bold" lengthAdjust="spacingAndGlyphs" textLength="66" x="3344.25" y="29.3569">Model</text><rect fill="#FFFFFF" height="1130.3672" style="stroke: #A80036; stroke-width: 1.5;" width="15" x="450" y="152.7422"/><rect fill="#FFFFFF" height="694.7344" style="stroke: #A80036; stroke-width: 1.5;" width="15" x="978" y="183.2695"/><rect fill="#FFFFFF" height="567.6797" style="stroke: #A80036; stroke-width: 1.5;" width="15" x="1505.25" y="243.7969"/><rect fill="#FFFFFF" height="567.6797" style="stroke: #A80036; stroke-width: 1.5;" width="15" x="1505.25" y="243.7969"/><rect fill="#FFFFFF" height="37.5" style="stroke: #A80036; stroke-width: 1.5;" width="15" x="1512.75" y="414.1523"/><rect fill="#FFFFFF" height="48.9141" style="stroke: #A80036; stroke-width: 1.5;" width="15" x="1962.75" y="717.0352"/><rect fill="#FFFFFF" height="48.9141" style="stroke: #A80036; stroke-width: 1.5;" width="15" x="1962.75" y="717.0352"/><rect fill="#FFFFFF" height="267.0234" style="stroke: #A80036; stroke-width: 1.5;" width="15" x="1962.75" y="923.5313"/><rect fill="#FFFFFF" height="267.0234" style="stroke: #A80036; stroke-width: 1.5;" width="15" x="1962.75" y="923.5313"/><rect fill="#FFFFFF" height="48.9141" style="stroke: #A80036; stroke-width: 1.5;" width="15" x="2275.5" y="307.7109"/><rect fill="#FFFFFF" height="48.9141" style="stroke: #A80036; stroke-width: 1.5;" width="15" x="2275.5" y="307.7109"/><rect fill="#FFFFFF" height="24.3867" style="stroke: #A80036; stroke-width: 1.5;" width="15" x="2485.5" y="632.1211"/><rect fill="#FFFFFF" height="24.3867" style="stroke: #A80036; stroke-width: 1.5;" width="15" x="2485.5" y="632.1211"/><rect fill="#FFFFFF" height="48.9141" style="stroke: #A80036; stroke-width: 1.5;" width="15" x="2748.75" y="522.6797"/><rect fill="#FFFFFF" height="48.9141" style="stroke: #A80036; stroke-width: 1.5;" width="15" x="2748.75" y="522.6797"/><rect fill="#FFFFFF" height="48.9141" style="stroke: #A80036; stroke-width: 1.5;" width="15" x="3120" y="1096.1133"/><rect fill="#FFFFFF" height="48.9141" style="stroke: #A80036; stroke-width: 1.5;" width="15" x="3120" y="1096.1133"/><rect fill="#FFFFFF" height="21" style="stroke: #A80036; stroke-width: 1.5;" width="15" x="3372.75" y="969.0586"/><rect fill="#3333C4" height="47.4141" style="stroke: #A80036; stroke-width: 2.25;" width="238.5" x="1386" y="195.2695"/><text fill="#FFFFFF" font-family="sans-serif" font-size="21" lengthAdjust="spacingAndGlyphs" textLength="217.5" x="1396.5" y="227.5693">:InsertCommandParser</text><rect fill="#3333C4" height="47.4141" style="stroke: #A80036; stroke-width: 2.25;" width="211.5" x="2169.75" y="259.1836"/><text fill="#FFFFFF" font-family="sans-serif" font-size="21" lengthAdjust="spacingAndGlyphs" textLength="190.5" x="2180.25" y="291.4834">:ArgumentTokenizer</text><rect fill="#3333C4" height="47.4141" style="stroke: #A80036; stroke-width: 2.25;" width="318" x="2589.75" y="474.1523"/><text fill="#FFFFFF" font-family="sans-serif" font-size="21" lengthAdjust="spacingAndGlyphs" textLength="297" x="2600.25" y="506.4521">argMultimap:ArgumentMultimap</text><rect fill="#3333C4" height="47.4141" style="stroke: #A80036; stroke-width: 2.25;" width="118.5" x="2426.25" y="583.5938"/><text fill="#FFFFFF" font-family="sans-serif" font-size="21" lengthAdjust="spacingAndGlyphs" textLength="97.5" x="2436.75" y="615.8936">:ParserUtil</text><rect fill="#3333C4" height="47.4141" style="stroke: #A80036; stroke-width: 2.25;" width="324" x="1800.75" y="668.5078"/><text fill="#FFFFFF" font-family="sans-serif" font-size="21" lengthAdjust="spacingAndGlyphs" textLength="303" x="1811.25" y="700.8076">insertCommand:InsertCommand</text><rect fill="#3333C4" height="47.4141" style="stroke: #A80036; stroke-width: 2.25;" width="334.5" x="2952.75" y="1047.5859"/><text fill="#FFFFFF" font-family="sans-serif" font-size="21" lengthAdjust="spacingAndGlyphs" textLength="313.5" x="2963.25" y="1079.8857">commandResult:CommandResult</text><line style="stroke: #A80036; stroke-width: 1.5; stroke-dasharray: 5.0,5.0;" x1="457.5" x2="457.5" y1="89.2148" y2="1310.1094"/><line style="stroke: #A80036; stroke-width: 1.5; stroke-dasharray: 5.0,5.0;" x1="984.75" x2="984.75" y1="89.2148" y2="1310.1094"/><line style="stroke: #A80036; stroke-width: 1.5; stroke-dasharray: 5.0,5.0;" x1="1504.5" x2="1504.5" y1="242.2266" y2="1310.1094"/><line style="stroke: #A80036; stroke-width: 1.5; stroke-dasharray: 5.0,5.0;" x1="1962.75" x2="1962.75" y1="715.4648" y2="1310.1094"/><line style="stroke: #A80036; stroke-width: 1.5; stroke-dasharray: 5.0,5.0;" x1="2274.75" x2="2274.75" y1="306.1406" y2="1310.1094"/><line style="stroke: #A80036; stroke-width: 1.5; stroke-dasharray: 5.0,5.0;" x1="2484.75" x2="2484.75" y1="630.5508" y2="1310.1094"/><line style="stroke: #A80036; stroke-width: 1.5; stroke-dasharray: 5.0,5.0;" x1="2748.75" x2="2748.75" y1="521.1094" y2="1310.1094"/><line style="stroke: #A80036; stroke-width: 1.5; stroke-dasharray: 5.0,5.0;" x1="3119.25" x2="3119.25" y1="1094.543" y2="1310.1094"/><line style="stroke: #A80036; stroke-width: 1.5; stroke-dasharray: 5.0,5.0;" x1="3380.25" x2="3380.25" y1="89.2148" y2="1310.1094"/><rect fill="#3333C4" height="47.4141" style="stroke: #A80036; stroke-width: 2.25;" width="162" x="376.5" y="40.3008"/><text fill="#FFFFFF" font-family="sans-serif" font-size="21" lengthAdjust="spacingAndGlyphs" textLength="141" x="387" y="72.6006">:LogicManager</text><rect fill="#3333C4" height="47.4141" style="stroke: #A80036; stroke-width: 2.25;" width="193.5" x="888.75" y="40.3008"/><text fill="#FFFFFF" font-family="sans-serif" font-size="21" lengthAdjust="spacingAndGlyphs" textLength="172.5" x="899.25" y="72.6006">:OrderBookParser</text><rect fill="#9D0012" height="47.4141" style="stroke: #A80036; stroke-width: 2.25;" width="96" x="3332.25" y="40.3008"/><text fill="#FFFFFF" font-family="sans-serif" font-size="21" lengthAdjust="spacingAndGlyphs" textLength="63" x="3348.75" y="72.6006">:Model</text><rect fill="#FFFFFF" height="1130.3672" style="stroke: #A80036; stroke-width: 1.5;" width="15" x="450" y="152.7422"/><rect fill="#FFFFFF" height="694.7344" style="stroke: #A80036; stroke-width: 1.5;" width="15" x="978" y="183.2695"/><rect fill="#FFFFFF" height="567.6797" style="stroke: #A80036; stroke-width: 1.5;" width="15" x="1505.25" y="243.7969"/><rect fill="#FFFFFF" height="567.6797" style="stroke: #A80036; stroke-width: 1.5;" width="15" x="1505.25" y="243.7969"/><rect fill="#FFFFFF" height="37.5" style="stroke: #A80036; stroke-width: 1.5;" width="15" x="1512.75" y="414.1523"/><rect fill="#FFFFFF" height="48.9141" style="stroke: #A80036; stroke-width: 1.5;" width="15" x="1962.75" y="717.0352"/><rect fill="#FFFFFF" height="48.9141" style="stroke: #A80036; stroke-width: 1.5;" width="15" x="1962.75" y="717.0352"/><rect fill="#FFFFFF" height="267.0234" style="stroke: #A80036; stroke-width: 1.5;" width="15" x="1962.75" y="923.5313"/><rect fill="#FFFFFF" height="267.0234" style="stroke: #A80036; stroke-width: 1.5;" width="15" x="1962.75" y="923.5313"/><rect fill="#FFFFFF" height="48.9141" style="stroke: #A80036; stroke-width: 1.5;" width="15" x="2275.5" y="307.7109"/><rect fill="#FFFFFF" height="48.9141" style="stroke: #A80036; stroke-width: 1.5;" width="15" x="2275.5" y="307.7109"/><rect fill="#FFFFFF" height="24.3867" style="stroke: #A80036; stroke-width: 1.5;" width="15" x="2485.5" y="632.1211"/><rect fill="#FFFFFF" height="24.3867" style="stroke: #A80036; stroke-width: 1.5;" width="15" x="2485.5" y="632.1211"/><rect fill="#FFFFFF" height="48.9141" style="stroke: #A80036; stroke-width: 1.5;" width="15" x="2748.75" y="522.6797"/><rect fill="#FFFFFF" height="48.9141" style="stroke: #A80036; stroke-width: 1.5;" width="15" x="2748.75" y="522.6797"/><rect fill="#FFFFFF" height="48.9141" style="stroke: #A80036; stroke-width: 1.5;" width="15" x="3120" y="1096.1133"/><rect fill="#FFFFFF" height="48.9141" style="stroke: #A80036; stroke-width: 1.5;" width="15" x="3120" y="1096.1133"/><rect fill="#FFFFFF" height="21" style="stroke: #A80036; stroke-width: 1.5;" width="15" x="3372.75" y="969.0586"/><polygon fill="#A80036" points="439.5,131.7422,454.5,137.7422,439.5,143.7422,445.5,137.7422" style="stroke: #A80036; stroke-width: 1.5;"/><line style="stroke: #A80036; stroke-width: 1.5;" x1="4.5" x2="448.5" y1="137.7422" y2="137.7422"/><text fill="#000000" font-family="sans-serif" font-size="19.5" lengthAdjust="spacingAndGlyphs" textLength="417" x="22.5" y="130.4575">execute("insert tid/A11 n/Amos p/91234567"...")</text><polygon fill="#A80036" points="960,177.2695,975,183.2695,960,189.2695,966,183.2695" style="stroke: #A80036; stroke-width: 1.5;"/><line style="stroke: #A80036; stroke-width: 1.5;" x1="465" x2="969" y1="183.2695" y2="183.2695"/><text fill="#000000" font-family="sans-serif" font-size="19.5" lengthAdjust="spacingAndGlyphs" textLength="484.5" x="479.25" y="175.9849">parseCommand("insert tid/A11 n/Amos p/91234567"...")</text><polygon fill="#A80036" points="1368,222.7969,1383,228.7969,1368,234.7969,1374,228.7969" style="stroke: #A80036; stroke-width: 1.5;"/><line style="stroke: #A80036; stroke-width: 1.5;" x1="993" x2="1377" y1="228.7969" y2="228.7969"/><text fill="#000000" font-family="sans-serif" font-size="19.5" lengthAdjust="spacingAndGlyphs" textLength="342" x="1018.5" y="221.5122">parse("tid/A11 n/Amos p/91234567"...")</text><rect fill="#3333C4" height="47.4141" style="stroke: #A80036; stroke-width: 2.25;" width="238.5" x="1386" y="195.2695"/><text fill="#FFFFFF" font-family="sans-serif" font-size="21" lengthAdjust="spacingAndGlyphs" textLength="217.5" x="1396.5" y="227.5693">:InsertCommandParser</text><polygon fill="#A80036" points="2151.75,286.7109,2166.75,292.7109,2151.75,298.7109,2157.75,292.7109" style="stroke: #A80036; stroke-width: 1.5;"/><line style="stroke: #A80036; stroke-width: 1.5;" x1="1520.25" x2="2160.75" y1="292.7109" y2="292.7109"/><text fill="#000000" font-family="sans-serif" font-size="19.5" lengthAdjust="spacingAndGlyphs" textLength="259.5" x="1715.25" y="285.4263">tokenize(args, PREFIX_TID...)</text><rect fill="#3333C4" height="47.4141" style="stroke: #A80036; stroke-width: 2.25;" width="211.5" x="2169.75" y="259.1836"/><text fill="#FFFFFF" font-family="sans-serif" font-size="21" lengthAdjust="spacingAndGlyphs" textLength="190.5" x="2180.25" y="291.4834">:ArgumentTokenizer</text><polygon fill="#A80036" points="1536.75,350.625,1521.75,356.625,1536.75,362.625,1530.75,356.625" style="stroke: #A80036; stroke-width: 1.5;"/><line style="stroke: #A80036; stroke-width: 1.5; stroke-dasharray: 2.0,2.0;" x1="1527.75" x2="2274" y1="356.625" y2="356.625"/><text fill="#000000" font-family="sans-serif" font-size="19.5" lengthAdjust="spacingAndGlyphs" textLength="106.5" x="1844.625" y="349.3403">argMultimap</text><line style="stroke: #A80036; stroke-width: 1.5;" x1="1520.25" x2="1590.75" y1="394.6523" y2="394.6523"/><line style="stroke: #A80036; stroke-width: 1.5;" x1="1590.75" x2="1590.75" y1="394.6523" y2="414.1523"/><line style="stroke: #A80036; stroke-width: 1.5;" x1="1529.25" x2="1590.75" y1="414.1523" y2="414.1523"/><polygon fill="#A80036" points="1544.25,408.1523,1529.25,414.1523,1544.25,420.1523,1538.25,414.1523" style="stroke: #A80036; stroke-width: 1.5;"/><text fill="#000000" font-family="sans-serif" font-size="19.5" lengthAdjust="spacingAndGlyphs" textLength="414" x="1538.25" y="387.3677">arePrefixesPresent(argMultimap, PREFIX_TID..)</text><line style="stroke: #A80036; stroke-width: 1.5; stroke-dasharray: 2.0,2.0;" x1="1527.75" x2="1590.75" y1="450.1523" y2="450.1523"/><line style="stroke: #A80036; stroke-width: 1.5; stroke-dasharray: 2.0,2.0;" x1="1590.75" x2="1590.75" y1="450.1523" y2="469.6523"/><line style="stroke: #A80036; stroke-width: 1.5; stroke-dasharray: 2.0,2.0;" x1="1520.25" x2="1590.75" y1="469.6523" y2="469.6523"/><polygon fill="#A80036" points="1535.25,463.6523,1520.25,469.6523,1535.25,475.6523,1529.25,469.6523" style="stroke: #A80036; stroke-width: 1.5;"/><polygon fill="#A80036" points="2571.75,501.6797,2586.75,507.6797,2571.75,513.6797,2577.75,507.6797" style="stroke: #A80036; stroke-width: 1.5;"/><line style="stroke: #A80036; stroke-width: 1.5;" x1="1520.25" x2="2580.75" y1="507.6797" y2="507.6797"/><text fill="#000000" font-family="sans-serif" font-size="19.5" lengthAdjust="spacingAndGlyphs" textLength="466.5" x="1821.75" y="500.395">getValue(PREFIX_TID), getValue(PREFIX_NAME), ....</text><rect fill="#3333C4" height="47.4141" style="stroke: #A80036; stroke-width: 2.25;" width="318" x="2589.75" y="474.1523"/><text fill="#FFFFFF" font-family="sans-serif" font-size="21" lengthAdjust="spacingAndGlyphs" textLength="297" x="2600.25" y="506.4521">argMultimap:ArgumentMultimap</text><polygon fill="#A80036" points="1536.75,565.5938,1521.75,571.5938,1536.75,577.5938,1530.75,571.5938" style="stroke: #A80036; stroke-width: 1.5;"/><line style="stroke: #A80036; stroke-width: 1.5; stroke-dasharray: 2.0,2.0;" x1="1527.75" x2="2747.25" y1="571.5938" y2="571.5938"/><text fill="#000000" font-family="sans-serif" font-size="19.5" lengthAdjust="spacingAndGlyphs" textLength="175.5" x="2046.75" y="564.3091">argTID, argName ....</text><polygon fill="#A80036" points="2408.25,611.1211,2423.25,617.1211,2408.25,623.1211,2414.25,617.1211" style="stroke: #A80036; stroke-width: 1.5;"/><line style="stroke: #A80036; stroke-width: 1.5;" x1="1520.25" x2="2417.25" y1="617.1211" y2="617.1211"/><text fill="#000000" font-family="sans-serif" font-size="19.5" lengthAdjust="spacingAndGlyphs" textLength="378" x="1784.25" y="609.8364">parseTid(argTID), parseName(argName), ....</text><rect fill="#3333C4" height="47.4141" style="stroke: #A80036; stroke-width: 2.25;" width="118.5" x="2426.25" y="583.5938"/><text fill="#FFFFFF" font-family="sans-serif" font-size="21" lengthAdjust="spacingAndGlyphs" textLength="97.5" x="2436.75" y="615.8936">:ParserUtil</text><polygon fill="#A80036" points="1536.75,650.5078,1521.75,656.5078,1536.75,662.5078,1530.75,656.5078" style="stroke: #A80036; stroke-width: 1.5;"/><line style="stroke: #A80036; stroke-width: 1.5; stroke-dasharray: 2.0,2.0;" x1="1527.75" x2="2484" y1="656.5078" y2="656.5078"/><polygon fill="#A80036" points="1782.75,696.0352,1797.75,702.0352,1782.75,708.0352,1788.75,702.0352" style="stroke: #A80036; stroke-width: 1.5;"/><line style="stroke: #A80036; stroke-width: 1.5;" x1="1520.25" x2="1791.75" y1="702.0352" y2="702.0352"/><text fill="#000000" font-family="sans-serif" font-size="19.5" lengthAdjust="spacingAndGlyphs" textLength="48" x="1636.5" y="694.7505">Order</text><rect fill="#3333C4" height="47.4141" style="stroke: #A80036; stroke-width: 2.25;" width="324" x="1800.75" y="668.5078"/><text fill="#FFFFFF" font-family="sans-serif" font-size="21" lengthAdjust="spacingAndGlyphs" textLength="303" x="1811.25" y="700.8076">insertCommand:InsertCommand</text><polygon fill="#A80036" points="1536.75,759.9492,1521.75,765.9492,1536.75,771.9492,1530.75,765.9492" style="stroke: #A80036; stroke-width: 1.5;"/><line style="stroke: #A80036; stroke-width: 1.5; stroke-dasharray: 2.0,2.0;" x1="1527.75" x2="1961.25" y1="765.9492" y2="765.9492"/><text fill="#000000" font-family="sans-serif" font-size="19.5" lengthAdjust="spacingAndGlyphs" textLength="136.5" x="1673.25" y="758.6646">insertCommand</text><polygon fill="#A80036" points="1009.5,805.4766,994.5,811.4766,1009.5,817.4766,1003.5,811.4766" style="stroke: #A80036; stroke-width: 1.5;"/><line style="stroke: #A80036; stroke-width: 1.5; stroke-dasharray: 2.0,2.0;" x1="1000.5" x2="1503.75" y1="811.4766" y2="811.4766"/><text fill="#000000" font-family="sans-serif" font-size="19.5" lengthAdjust="spacingAndGlyphs" textLength="136.5" x="1180.875" y="804.1919">insertCommand</text><polygon fill="#A80036" points="481.5,872.0039,466.5,878.0039,481.5,884.0039,475.5,878.0039" style="stroke: #A80036; stroke-width: 1.5;"/><line style="stroke: #A80036; stroke-width: 1.5; stroke-dasharray: 2.0,2.0;" x1="472.5" x2="984" y1="878.0039" y2="878.0039"/><text fill="#000000" font-family="sans-serif" font-size="19.5" lengthAdjust="spacingAndGlyphs" textLength="136.5" x="657" y="870.7192">insertCommand</text><polygon fill="#A80036" points="1944.75,917.5313,1959.75,923.5313,1944.75,929.5313,1950.75,923.5313" style="stroke: #A80036; stroke-width: 1.5;"/><line style="stroke: #A80036; stroke-width: 1.5;" x1="465" x2="1953.75" y1="923.5313" y2="923.5313"/><text fill="#000000" font-family="sans-serif" font-size="19.5" lengthAdjust="spacingAndGlyphs" textLength="133.5" x="1147.125" y="916.2466">execute(model)</text><polygon fill="#A80036" points="3354.75,963.0586,3369.75,969.0586,3354.75,975.0586,3360.75,969.0586" style="stroke: #A80036; stroke-width: 1.5;"/><line style="stroke: #A80036; stroke-width: 1.5;" x1="1977.75" x2="3363.75" y1="969.0586" y2="969.0586"/><text fill="#000000" font-family="sans-serif" font-size="19.5" lengthAdjust="spacingAndGlyphs" textLength="142.5" x="2604" y="961.7739">hasOrder(toAdd)</text><polygon fill="#A80036" points="1994.25,984.0586,1979.25,990.0586,1994.25,996.0586,1988.25,990.0586" style="stroke: #A80036; stroke-width: 1.5;"/><line style="stroke: #A80036; stroke-width: 1.5; stroke-dasharray: 2.0,2.0;" x1="1985.25" x2="3378.75" y1="990.0586" y2="990.0586"/><polygon fill="#A80036" points="3362.25,1029.5859,3377.25,1035.5859,3362.25,1041.5859,3368.25,1035.5859" style="stroke: #A80036; stroke-width: 1.5;"/><line style="stroke: #A80036; stroke-width: 1.5;" x1="1977.75" x2="3371.25" y1="1035.5859" y2="1035.5859"/><text fill="#000000" font-family="sans-serif" font-size="19.5" lengthAdjust="spacingAndGlyphs" textLength="142.5" x="2607.75" y="1028.3013">addOrder(toAdd)</text><polygon fill="#A80036" points="2934.75,1075.1133,2949.75,1081.1133,2934.75,1087.1133,2940.75,1081.1133" style="stroke: #A80036; stroke-width: 1.5;"/><line style="stroke: #A80036; stroke-width: 1.5;" x1="1977.75" x2="2943.75" y1="1081.1133" y2="1081.1133"/><text fill="#000000" font-family="sans-serif" font-size="19.5" lengthAdjust="spacingAndGlyphs" textLength="79.5" x="2425.5" y="1073.8286">message</text><rect fill="#3333C4" height="47.4141" style="stroke: #A80036; stroke-width: 2.25;" width="334.5" x="2952.75" y="1047.5859"/><text fill="#FFFFFF" font-family="sans-serif" font-size="21" lengthAdjust="spacingAndGlyphs" textLength="313.5" x="2963.25" y="1079.8857">commandResult:CommandResult</text><polygon fill="#A80036" points="1994.25,1139.0273,1979.25,1145.0273,1994.25,1151.0273,1988.25,1145.0273" style="stroke: #A80036; stroke-width: 1.5;"/><line style="stroke: #A80036; stroke-width: 1.5; stroke-dasharray: 2.0,2.0;" x1="1985.25" x2="3118.5" y1="1145.0273" y2="1145.0273"/><text fill="#000000" font-family="sans-serif" font-size="19.5" lengthAdjust="spacingAndGlyphs" textLength="141" x="2478.375" y="1137.7427">commandResult</text><polygon fill="#A80036" points="481.5,1184.5547,466.5,1190.5547,481.5,1196.5547,475.5,1190.5547" style="stroke: #A80036; stroke-width: 1.5;"/><line style="stroke: #A80036; stroke-width: 1.5; stroke-dasharray: 2.0,2.0;" x1="472.5" x2="1961.25" y1="1190.5547" y2="1190.5547"/><text fill="#000000" font-family="sans-serif" font-size="19.5" lengthAdjust="spacingAndGlyphs" textLength="141" x="1143.375" y="1183.27">commandResult</text><rect fill="#FFFFFF" height="64.0547" style="stroke: #000000; stroke-width: 3.0;" width="3090.75" x="357" y="1202.5547"/><polygon fill="#EEEEEE" points="357,1202.5547,450,1202.5547,450,1214.5547,435,1229.5547,357,1229.5547,357,1202.5547" style="stroke: #000000; stroke-width: 3.0;"/><text fill="#000000" font-family="sans-serif" font-size="19.5" font-weight="bold" lengthAdjust="spacingAndGlyphs" textLength="25.5" x="376.5" y="1225.7974">ref</text><text fill="#000000" font-family="sans-serif" font-size="19.5" lengthAdjust="spacingAndGlyphs" textLength="460.5" x="1672.125" y="1255.7974">Execution of the Insert Command Sequence Diagram</text><polygon fill="#A80036" points="21,1277.1094,6,1283.1094,21,1289.1094,15,1283.1094" style="stroke: #A80036; stroke-width: 1.5;"/><line style="stroke: #A80036; stroke-width: 1.5; stroke-dasharray: 2.0,2.0;" x1="12" x2="456" y1="1283.1094" y2="1283.1094"/><!--MD5=[1bc379300039957a319f622a9c0b0989]
@startuml








skinparam BackgroundColor #FFFFFFF

skinparam Shadowing false

skinparam Class {
    FontColor #FFFFFF
    BorderThickness 1
    BorderColor #FFFFFF
    StereotypeFontColor #FFFFFF
    FontName Arial
}

skinparam Actor {
    BorderColor #000000
    Color #000000
    FontName Arial
}

skinparam Sequence {
    MessageAlign center
    BoxFontSize 15
    BoxPadding 0
    BoxFontColor #FFFFFF
    FontName Arial
}

skinparam Participant {
    FontColor #FFFFFFF
    Padding 20
}

skinparam MinClassWidth 50
skinparam ParticipantPadding 10
skinparam Shadowing false
skinparam DefaultTextAlignment center
skinparam packageStyle Rectangle

hide footbox
hide members
hide circle
box Logic #C8C8FA
participant ":LogicManager" as LogicManager #3333C4
participant ":OrderBookParser" as OrderBookParser #3333C4
participant ":InsertCommandParser" as InsertCommandParser #3333C4
participant "insertCommand:InsertCommand" as InsertCommand #3333C4
participant ":ArgumentTokenizer" as ArgumentTokenizer #3333C4
participant ":ParserUtil" as ParserUtil #3333C4
participant "argMultimap:ArgumentMultimap" as ArgumentMultimap #3333C4
participant "commandResult:CommandResult" as CommandResult #3333C4
end box

box Model #F97181
participant ":Model" as Model #9D0012
end box

create LogicManager
[-> LogicManager : execute("insert tid/A11 n/Amos p/91234567"...")
activate LogicManager

LogicManager -> OrderBookParser : parseCommand("insert tid/A11 n/Amos p/91234567"...")
activate OrderBookParser

create InsertCommandParser

OrderBookParser -> InsertCommandParser ++ : parse("tid/A11 n/Amos p/91234567"...")
activate InsertCommandParser
create ArgumentTokenizer

InsertCommandParser -> ArgumentTokenizer ++ : tokenize(args, PREFIX_TID...)
activate ArgumentTokenizer

ArgumentTokenizer - -> InsertCommandParser - - : argMultimap
deactivate ArgumentTokenizer

InsertCommandParser -> InsertCommandParser ++ : arePrefixesPresent(argMultimap, PREFIX_TID..)
InsertCommandParser - -> InsertCommandParser - - :

create ArgumentMultimap
InsertCommandParser -> ArgumentMultimap ++ : getValue(PREFIX_TID), getValue(PREFIX_NAME), ....
activate ArgumentMultimap

ArgumentMultimap - -> InsertCommandParser - - : argTID, argName ....
deactivate ArgumentMultimap

create ParserUtil
InsertCommandParser -> ParserUtil ++ : parseTid(argTID), parseName(argName), ....
activate ParserUtil

ParserUtil - -> InsertCommandParser - -
deactivate ParserUtil

create InsertCommand

InsertCommandParser -> InsertCommand ++ : Order
activate InsertCommand

InsertCommand - -> InsertCommandParser - - : insertCommand
deactivate InsertCommand
InsertCommandParser - -> OrderBookParser - - : insertCommand

deactivate InsertCommandParser
InsertCommandParser -[hidden]-> OrderBookParser

OrderBookParser - -> LogicManager - - : insertCommand

LogicManager -> InsertCommand ++ : execute(model)

activate InsertCommand

InsertCommand -> Model ++ : hasOrder(toAdd)

Model - -> InsertCommand - - :

InsertCommand -> Model : addOrder(toAdd)


create CommandResult

InsertCommand -> CommandResult ++ : message
activate CommandResult

CommandResult - -> InsertCommand - - : commandResult

deactivate CommandResult

InsertCommand - -> LogicManager - - : commandResult

ref over LogicManager,  Model : Execution of the Insert Command Sequence Diagram
deactivate InsertCommand
[<- -LogicManager
deactivate LogicManager
@enduml

PlantUML version 1.2019.11(Sun Sep 22 18:02:15 SGT 2019)
(GPL source distribution)
Java Runtime: OpenJDK Runtime Environment
JVM: OpenJDK 64-Bit Server VM
Java Version: 11.0.5+10-b520.17
Operating System: Windows 10
Default Encoding: UTF-8
Language: en
Country: SG
--></g></svg>
