<?xml version="1.0" encoding="UTF-8" standalone="no"?><svg xmlns="http://www.w3.org/2000/svg" xmlns:xlink="http://www.w3.org/1999/xlink" contentScriptType="application/ecmascript" contentStyleType="text/css" height="999px" preserveAspectRatio="none" style="width:1033px;height:999px;" version="1.1" viewBox="0 0 1033 999" width="1033.5px" zoomAndPan="magnify"><defs><filter height="300%" id="f1agrinwb6qefw" width="300%" x="-1" y="-1"><feGaussianBlur result="blurOut" stdDeviation="3.0"/><feColorMatrix in="blurOut" result="blurOut2" type="matrix" values="0 0 0 0 0 0 0 0 0 0 0 0 0 0 0 0 0 0 .4 0"/><feOffset dx="6.0" dy="6.0" in="blurOut2" result="blurOut3"/><feBlend in="SourceGraphic" in2="blurOut3" mode="normal"/></filter></defs><g><ellipse cx="367.5" cy="30" fill="#000000" filter="url(#f1agrinwb6qefw)" rx="15" ry="15" style="stroke: none; stroke-width: 1.5;"/><rect fill="#FEFECE" filter="url(#f1agrinwb6qefw)" height="52.6406" rx="18.75" ry="18.75" style="stroke: #A80036; stroke-width: 2.25;" width="271.5" x="231.75" y="75"/><text fill="#000000" font-family="sans-serif" font-size="18" lengthAdjust="spacingAndGlyphs" textLength="241.5" x="246.75" y="108.6855">User enters Insert Command</text><rect fill="#FEFECE" filter="url(#f1agrinwb6qefw)" height="52.6406" rx="18.75" ry="18.75" style="stroke: #A80036; stroke-width: 2.25;" width="456" x="139.5" y="157.6406"/><text fill="#000000" font-family="sans-serif" font-size="18" lengthAdjust="spacingAndGlyphs" textLength="426" x="154.5" y="191.3262">LogicManager parse command to OrderBookParser</text><rect fill="#FEFECE" filter="url(#f1agrinwb6qefw)" height="52.6406" rx="18.75" ry="18.75" style="stroke: #A80036; stroke-width: 2.25;" width="529.5" x="102.75" y="240.2813"/><text fill="#000000" font-family="sans-serif" font-size="18" lengthAdjust="spacingAndGlyphs" textLength="499.5" x="117.75" y="273.9668">OrderBookParser parse command to InsertCommandParser</text><polygon fill="#FEFECE" filter="url(#f1agrinwb6qefw)" points="367.5,322.9219,367.5,322.9219,385.5,340.9219,367.5,358.9219,367.5,358.9219,349.5,340.9219,367.5,322.9219" style="stroke: #A80036; stroke-width: 2.25;"/><text fill="#000000" font-family="sans-serif" font-size="16.5" lengthAdjust="spacingAndGlyphs" textLength="322.5" x="27" y="337.2964">[Command has missing compulsory prefixes]</text><text fill="#000000" font-family="sans-serif" font-size="16.5" lengthAdjust="spacingAndGlyphs" textLength="133.5" x="385.5" y="337.2964">[Command is valid]</text><rect fill="#FEFECE" filter="url(#f1agrinwb6qefw)" height="52.6406" rx="18.75" ry="18.75" style="stroke: #A80036; stroke-width: 2.25;" width="225" x="15" y="373.9219"/><text fill="#000000" font-family="sans-serif" font-size="18" lengthAdjust="spacingAndGlyphs" textLength="195" x="30" y="407.6074">Throws ParseException</text><rect fill="#FEFECE" filter="url(#f1agrinwb6qefw)" height="52.6406" rx="18.75" ry="18.75" style="stroke: #A80036; stroke-width: 2.25;" width="346.5" x="434.25" y="373.9219"/><text fill="#000000" font-family="sans-serif" font-size="18" lengthAdjust="spacingAndGlyphs" textLength="316.5" x="449.25" y="407.6074">Creates a new InsertCommand Object</text><rect fill="#FEFECE" filter="url(#f1agrinwb6qefw)" height="52.6406" rx="18.75" ry="18.75" style="stroke: #A80036; stroke-width: 2.25;" width="549" x="333" y="456.5625"/><text fill="#000000" font-family="sans-serif" font-size="18" lengthAdjust="spacingAndGlyphs" textLength="519" x="348" y="490.248">LogicManager calls the execute method InsertCommand object</text><polygon fill="#FEFECE" filter="url(#f1agrinwb6qefw)" points="607.5,539.2031,607.5,539.2031,625.5,557.2031,607.5,575.2031,607.5,575.2031,589.5,557.2031,607.5,539.2031" style="stroke: #A80036; stroke-width: 2.25;"/><text fill="#000000" font-family="sans-serif" font-size="16.5" lengthAdjust="spacingAndGlyphs" textLength="136.5" x="453" y="553.5776">[Order is duplicate]</text><text fill="#000000" font-family="sans-serif" font-size="16.5" lengthAdjust="spacingAndGlyphs" textLength="120" x="625.5" y="553.5776">[Order is unique]</text><rect fill="#FEFECE" filter="url(#f1agrinwb6qefw)" height="52.6406" rx="18.75" ry="18.75" style="stroke: #A80036; stroke-width: 2.25;" width="264" x="285" y="590.2031"/><text fill="#000000" font-family="sans-serif" font-size="18" lengthAdjust="spacingAndGlyphs" textLength="234" x="300" y="623.8887">Throws CommandException</text><rect fill="#FEFECE" filter="url(#f1agrinwb6qefw)" height="52.6406" rx="18.75" ry="18.75" style="stroke: #A80036; stroke-width: 2.25;" width="235.5" x="680.25" y="590.2031"/><text fill="#000000" font-family="sans-serif" font-size="18" lengthAdjust="spacingAndGlyphs" textLength="205.5" x="695.25" y="623.8887">Adds Order to OrderBook</text><rect fill="#FEFECE" filter="url(#f1agrinwb6qefw)" height="52.6406" rx="18.75" ry="18.75" style="stroke: #A80036; stroke-width: 2.25;" width="438" x="579" y="672.8438"/><text fill="#000000" font-family="sans-serif" font-size="18" lengthAdjust="spacingAndGlyphs" textLength="408" x="594" y="706.5293">Returns CommandResult object to LogicManager</text><rect fill="#FEFECE" filter="url(#f1agrinwb6qefw)" height="75.2813" rx="18.75" ry="18.75" style="stroke: #A80036; stroke-width: 2.25;" width="297" x="649.5" y="755.4844"/><text fill="#000000" font-family="sans-serif" font-size="18" lengthAdjust="spacingAndGlyphs" textLength="267" x="664.5" y="789.1699">LogicManager uses the object to</text><text fill="#000000" font-family="sans-serif" font-size="18" lengthAdjust="spacingAndGlyphs" textLength="159" x="664.5" y="811.8105">prints result to user</text><polygon fill="#FEFECE" filter="url(#f1agrinwb6qefw)" points="607.5,839.7656,625.5,857.7656,607.5,875.7656,589.5,857.7656,607.5,839.7656" style="stroke: #A80036; stroke-width: 2.25;"/><polygon fill="#FEFECE" filter="url(#f1agrinwb6qefw)" points="367.5,884.7656,385.5,902.7656,367.5,920.7656,349.5,902.7656,367.5,884.7656" style="stroke: #A80036; stroke-width: 2.25;"/><ellipse cx="367.5" cy="967.2656" fill="#FFFFFF" filter="url(#f1agrinwb6qefw)" rx="16.5" ry="16.5" style="stroke: #000000; stroke-width: 1.5;"/><ellipse cx="367.5" cy="967.2656" fill="#000000" rx="9" ry="9" style="stroke: #7F7F7F; stroke-width: 1.5;"/><line style="stroke: #A80036; stroke-width: 2.25;" x1="367.5" x2="367.5" y1="45" y2="75"/><polygon fill="#A80036" points="361.5,60,367.5,75,373.5,60,367.5,66" style="stroke: #A80036; stroke-width: 1.5;"/><line style="stroke: #A80036; stroke-width: 2.25;" x1="367.5" x2="367.5" y1="127.6406" y2="157.6406"/><polygon fill="#A80036" points="361.5,142.6406,367.5,157.6406,373.5,142.6406,367.5,148.6406" style="stroke: #A80036; stroke-width: 1.5;"/><line style="stroke: #A80036; stroke-width: 2.25;" x1="367.5" x2="367.5" y1="210.2813" y2="240.2813"/><polygon fill="#A80036" points="361.5,225.2813,367.5,240.2813,373.5,225.2813,367.5,231.2813" style="stroke: #A80036; stroke-width: 1.5;"/><line style="stroke: #A80036; stroke-width: 2.25;" x1="607.5" x2="607.5" y1="426.5625" y2="456.5625"/><polygon fill="#A80036" points="601.5,441.5625,607.5,456.5625,613.5,441.5625,607.5,447.5625" style="stroke: #A80036; stroke-width: 1.5;"/><line style="stroke: #A80036; stroke-width: 2.25;" x1="798" x2="798" y1="642.8438" y2="672.8438"/><polygon fill="#A80036" points="792,657.8438,798,672.8438,804,657.8438,798,663.8438" style="stroke: #A80036; stroke-width: 1.5;"/><line style="stroke: #A80036; stroke-width: 2.25;" x1="798" x2="798" y1="725.4844" y2="755.4844"/><polygon fill="#A80036" points="792,740.4844,798,755.4844,804,740.4844,798,746.4844" style="stroke: #A80036; stroke-width: 1.5;"/><line style="stroke: #A80036; stroke-width: 2.25;" x1="589.5" x2="417" y1="557.2031" y2="557.2031"/><line style="stroke: #A80036; stroke-width: 2.25;" x1="417" x2="417" y1="557.2031" y2="590.2031"/><polygon fill="#A80036" points="411,575.2031,417,590.2031,423,575.2031,417,581.2031" style="stroke: #A80036; stroke-width: 1.5;"/><line style="stroke: #A80036; stroke-width: 2.25;" x1="625.5" x2="798" y1="557.2031" y2="557.2031"/><line style="stroke: #A80036; stroke-width: 2.25;" x1="798" x2="798" y1="557.2031" y2="590.2031"/><polygon fill="#A80036" points="792,575.2031,798,590.2031,804,575.2031,798,581.2031" style="stroke: #A80036; stroke-width: 1.5;"/><line style="stroke: #A80036; stroke-width: 2.25;" x1="417" x2="417" y1="642.8438" y2="857.7656"/><line style="stroke: #A80036; stroke-width: 2.25;" x1="417" x2="589.5" y1="857.7656" y2="857.7656"/><polygon fill="#A80036" points="574.5,851.7656,589.5,857.7656,574.5,863.7656,580.5,857.7656" style="stroke: #A80036; stroke-width: 1.5;"/><line style="stroke: #A80036; stroke-width: 2.25;" x1="798" x2="798" y1="830.7656" y2="857.7656"/><line style="stroke: #A80036; stroke-width: 2.25;" x1="798" x2="625.5" y1="857.7656" y2="857.7656"/><polygon fill="#A80036" points="640.5,851.7656,625.5,857.7656,640.5,863.7656,634.5,857.7656" style="stroke: #A80036; stroke-width: 1.5;"/><line style="stroke: #A80036; stroke-width: 2.25;" x1="607.5" x2="607.5" y1="509.2031" y2="539.2031"/><polygon fill="#A80036" points="601.5,524.2031,607.5,539.2031,613.5,524.2031,607.5,530.2031" style="stroke: #A80036; stroke-width: 1.5;"/><line style="stroke: #A80036; stroke-width: 2.25;" x1="349.5" x2="127.5" y1="340.9219" y2="340.9219"/><line style="stroke: #A80036; stroke-width: 2.25;" x1="127.5" x2="127.5" y1="340.9219" y2="373.9219"/><polygon fill="#A80036" points="121.5,358.9219,127.5,373.9219,133.5,358.9219,127.5,364.9219" style="stroke: #A80036; stroke-width: 1.5;"/><line style="stroke: #A80036; stroke-width: 2.25;" x1="385.5" x2="607.5" y1="340.9219" y2="340.9219"/><line style="stroke: #A80036; stroke-width: 2.25;" x1="607.5" x2="607.5" y1="340.9219" y2="373.9219"/><polygon fill="#A80036" points="601.5,358.9219,607.5,373.9219,613.5,358.9219,607.5,364.9219" style="stroke: #A80036; stroke-width: 1.5;"/><line style="stroke: #A80036; stroke-width: 2.25;" x1="127.5" x2="127.5" y1="426.5625" y2="902.7656"/><line style="stroke: #A80036; stroke-width: 2.25;" x1="127.5" x2="349.5" y1="902.7656" y2="902.7656"/><polygon fill="#A80036" points="334.5,896.7656,349.5,902.7656,334.5,908.7656,340.5,902.7656" style="stroke: #A80036; stroke-width: 1.5;"/><line style="stroke: #A80036; stroke-width: 2.25;" x1="607.5" x2="607.5" y1="875.7656" y2="902.7656"/><line style="stroke: #A80036; stroke-width: 2.25;" x1="607.5" x2="385.5" y1="902.7656" y2="902.7656"/><polygon fill="#A80036" points="400.5,896.7656,385.5,902.7656,400.5,908.7656,394.5,902.7656" style="stroke: #A80036; stroke-width: 1.5;"/><line style="stroke: #A80036; stroke-width: 2.25;" x1="367.5" x2="367.5" y1="292.9219" y2="322.9219"/><polygon fill="#A80036" points="361.5,307.9219,367.5,322.9219,373.5,307.9219,367.5,313.9219" style="stroke: #A80036; stroke-width: 1.5;"/><line style="stroke: #A80036; stroke-width: 2.25;" x1="367.5" x2="367.5" y1="920.7656" y2="950.7656"/><polygon fill="#A80036" points="361.5,935.7656,367.5,950.7656,373.5,935.7656,367.5,941.7656" style="stroke: #A80036; stroke-width: 1.5;"/><!--MD5=[96fa3e0262283e9408966d163d00dcd0]
@startuml
start
:User enters Insert Command;
:LogicManager parse command to OrderBookParser;
:OrderBookParser parse command to InsertCommandParser;

If () then ([Command has missing compulsory prefixes])
    :Throws ParseException;
    else ([Command is valid])

        :Creates a new InsertCommand Object;
        :LogicManager calls the execute method InsertCommand object;

    If () then ([Order is duplicate])
    :Throws CommandException;

    else ([Order is unique])
        :Adds Order to OrderBook;
        :Returns CommandResult object to LogicManager;
        :LogicManager uses the object to
        prints result to user;
        endif
        endif
stop
@enduml

PlantUML version 1.2019.11(Sun Sep 22 18:02:15 SGT 2019)
(GPL source distribution)
Java Runtime: OpenJDK Runtime Environment
JVM: OpenJDK 64-Bit Server VM
Java Version: 11.0.5+10-b520.17
Operating System: Windows 10
Default Encoding: UTF-8
Language: en
Country: SG
--></g></svg>
