<?xml version="1.0" encoding="UTF-8" standalone="no"?><svg xmlns="http://www.w3.org/2000/svg" xmlns:xlink="http://www.w3.org/1999/xlink" contentScriptType="application/ecmascript" contentStyleType="text/css" height="787.5px" preserveAspectRatio="none" style="width:1335px;height:787px;" version="1.1" viewBox="0 0 1335 787" width="1335px" zoomAndPan="magnify"><defs><filter height="300%" id="f11qaa9o3at8wu" width="300%" x="-1" y="-1"><feGaussianBlur result="blurOut" stdDeviation="3.0"/><feColorMatrix in="blurOut" result="blurOut2" type="matrix" values="0 0 0 0 0 0 0 0 0 0 0 0 0 0 0 0 0 0 .4 0"/><feOffset dx="6.0" dy="6.0" in="blurOut2" result="blurOut3"/><feBlend in="SourceGraphic" in2="blurOut3" mode="normal"/></filter></defs><g><ellipse cx="435.9375" cy="30" fill="#000000" filter="url(#f11qaa9o3at8wu)" rx="15" ry="15" style="stroke: none; stroke-width: 1.5;"/><rect fill="#FEFECE" filter="url(#f11qaa9o3at8wu)" height="52.6406" rx="18.75" ry="18.75" style="stroke: #A80036; stroke-width: 2.25;" width="253.5" x="309.1875" y="75"/><text fill="#000000" font-family="sans-serif" font-size="18" lengthAdjust="spacingAndGlyphs" textLength="223.5" x="324.1875" y="108.6855">User inputs List Command</text><polygon fill="#FEFECE" filter="url(#f11qaa9o3at8wu)" points="435.9375,157.6406,435.9375,157.6406,453.9375,175.6406,435.9375,193.6406,435.9375,193.6406,417.9375,175.6406,435.9375,157.6406" style="stroke: #A80036; stroke-width: 2.25;"/><text fill="#000000" font-family="sans-serif" font-size="16.5" lengthAdjust="spacingAndGlyphs" textLength="166.5" x="251.4375" y="172.0151">[Command is 'list done']</text><text fill="#000000" font-family="sans-serif" font-size="16.5" lengthAdjust="spacingAndGlyphs" textLength="193.5" x="453.9375" y="172.0151">[Command is not 'list done']</text><rect fill="#FEFECE" filter="url(#f11qaa9o3at8wu)" height="52.6406" rx="18.75" ry="18.75" style="stroke: #A80036; stroke-width: 2.25;" width="234" x="25.5" y="208.6406"/><text fill="#000000" font-family="sans-serif" font-size="18" lengthAdjust="spacingAndGlyphs" textLength="204" x="40.5" y="242.3262">List all completed orders</text><rect fill="#FEFECE" filter="url(#f11qaa9o3at8wu)" height="52.6406" rx="18.75" ry="18.75" style="stroke: #A80036; stroke-width: 2.25;" width="255" x="15" y="313.7813"/><text fill="#000000" font-family="sans-serif" font-size="18" lengthAdjust="spacingAndGlyphs" textLength="225" x="30" y="347.4668">Returns success message</text><polygon fill="#FEFECE" filter="url(#f11qaa9o3at8wu)" points="729.375,208.6406,729.375,208.6406,747.375,226.6406,729.375,244.6406,729.375,244.6406,711.375,226.6406,729.375,208.6406" style="stroke: #A80036; stroke-width: 2.25;"/><text fill="#000000" font-family="sans-serif" font-size="16.5" lengthAdjust="spacingAndGlyphs" textLength="181.5" x="529.875" y="223.0151">[Command is 'list undone]</text><text fill="#000000" font-family="sans-serif" font-size="16.5" lengthAdjust="spacingAndGlyphs" textLength="211.5" x="747.375" y="223.0151">[Command is not 'list undone']</text><rect fill="#FEFECE" filter="url(#f11qaa9o3at8wu)" height="52.6406" rx="18.75" ry="18.75" style="stroke: #A80036; stroke-width: 2.25;" width="330" x="315" y="259.6406"/><text fill="#000000" font-family="sans-serif" font-size="18" lengthAdjust="spacingAndGlyphs" textLength="300" x="330" y="293.3262">List all orders that are not completed</text><rect fill="#FEFECE" filter="url(#f11qaa9o3at8wu)" height="52.6406" rx="18.75" ry="18.75" style="stroke: #A80036; stroke-width: 2.25;" width="255" x="352.5" y="364.7813"/><text fill="#000000" font-family="sans-serif" font-size="18" lengthAdjust="spacingAndGlyphs" textLength="225" x="367.5" y="398.4668">Returns success message</text><polygon fill="#FEFECE" filter="url(#f11qaa9o3at8wu)" points="978.75,259.6406,978.75,259.6406,996.75,277.6406,978.75,295.6406,978.75,295.6406,960.75,277.6406,978.75,259.6406" style="stroke: #A80036; stroke-width: 2.25;"/><text fill="#000000" font-family="sans-serif" font-size="16.5" lengthAdjust="spacingAndGlyphs" textLength="126" x="834.75" y="274.0151">[Command is 'list']</text><text fill="#000000" font-family="sans-serif" font-size="16.5" lengthAdjust="spacingAndGlyphs" textLength="321" x="996.75" y="274.0151">[Command is neither of the three commands]</text><rect fill="#FEFECE" filter="url(#f11qaa9o3at8wu)" height="75.2813" rx="18.75" ry="18.75" style="stroke: #A80036; stroke-width: 2.25;" width="286.5" x="690" y="310.6406"/><text fill="#000000" font-family="sans-serif" font-size="18" lengthAdjust="spacingAndGlyphs" textLength="112.5" x="705" y="344.3262">List all orders</text><text fill="#000000" font-family="sans-serif" font-size="18" lengthAdjust="spacingAndGlyphs" textLength="256.5" x="705" y="366.9668">(completed and not completed)</text><rect fill="#FEFECE" filter="url(#f11qaa9o3at8wu)" height="52.6406" rx="18.75" ry="18.75" style="stroke: #A80036; stroke-width: 2.25;" width="255" x="705.75" y="438.4219"/><text fill="#000000" font-family="sans-serif" font-size="18" lengthAdjust="spacingAndGlyphs" textLength="225" x="720.75" y="472.1074">Returns success message</text><rect fill="#FEFECE" filter="url(#f11qaa9o3at8wu)" height="75.2813" rx="18.75" ry="18.75" style="stroke: #A80036; stroke-width: 2.25;" width="235.5" x="1006.5" y="310.6406"/><text fill="#000000" font-family="sans-serif" font-size="18" lengthAdjust="spacingAndGlyphs" textLength="205.5" x="1021.5" y="344.3262">Returns failure message</text><text fill="#000000" font-family="sans-serif" font-size="18" lengthAdjust="spacingAndGlyphs" textLength="157.5" x="1021.5" y="366.9668">(Invalid Command)</text><polygon fill="#FEFECE" filter="url(#f11qaa9o3at8wu)" points="978.75,500.0625,996.75,518.0625,978.75,536.0625,960.75,518.0625,978.75,500.0625" style="stroke: #A80036; stroke-width: 2.25;"/><polygon fill="#FEFECE" filter="url(#f11qaa9o3at8wu)" points="729.375,545.0625,747.375,563.0625,729.375,581.0625,711.375,563.0625,729.375,545.0625" style="stroke: #A80036; stroke-width: 2.25;"/><polygon fill="#FEFECE" filter="url(#f11qaa9o3at8wu)" points="435.9375,590.0625,453.9375,608.0625,435.9375,626.0625,417.9375,608.0625,435.9375,590.0625" style="stroke: #A80036; stroke-width: 2.25;"/><rect fill="#FEFECE" filter="url(#f11qaa9o3at8wu)" height="52.6406" rx="18.75" ry="18.75" style="stroke: #A80036; stroke-width: 2.25;" width="343.5" x="264.1875" y="656.0625"/><text fill="#000000" font-family="sans-serif" font-size="18" lengthAdjust="spacingAndGlyphs" textLength="313.5" x="279.1875" y="689.748">LogicManager prints message to user</text><ellipse cx="435.9375" cy="755.2031" fill="#FFFFFF" filter="url(#f11qaa9o3at8wu)" rx="16.5" ry="16.5" style="stroke: #000000; stroke-width: 1.5;"/><ellipse cx="435.9375" cy="755.2031" fill="#000000" rx="9" ry="9" style="stroke: #7F7F7F; stroke-width: 1.5;"/><line style="stroke: #A80036; stroke-width: 2.25;" x1="435.9375" x2="435.9375" y1="45" y2="75"/><polygon fill="#A80036" points="429.9375,60,435.9375,75,441.9375,60,435.9375,66" style="stroke: #A80036; stroke-width: 1.5;"/><line style="stroke: #A80036; stroke-width: 2.25;" x1="142.5" x2="142.5" y1="261.2813" y2="313.7813"/><polygon fill="#A80036" points="136.5,298.7813,142.5,313.7813,148.5,298.7813,142.5,304.7813" style="stroke: #A80036; stroke-width: 1.5;"/><line style="stroke: #A80036; stroke-width: 2.25;" x1="480" x2="480" y1="312.2813" y2="364.7813"/><polygon fill="#A80036" points="474,349.7813,480,364.7813,486,349.7813,480,355.7813" style="stroke: #A80036; stroke-width: 1.5;"/><line style="stroke: #A80036; stroke-width: 2.25;" x1="833.25" x2="833.25" y1="385.9219" y2="438.4219"/><polygon fill="#A80036" points="827.25,423.4219,833.25,438.4219,839.25,423.4219,833.25,429.4219" style="stroke: #A80036; stroke-width: 1.5;"/><line style="stroke: #A80036; stroke-width: 2.25;" x1="960.75" x2="833.25" y1="277.6406" y2="277.6406"/><line style="stroke: #A80036; stroke-width: 2.25;" x1="833.25" x2="833.25" y1="277.6406" y2="310.6406"/><polygon fill="#A80036" points="827.25,295.6406,833.25,310.6406,839.25,295.6406,833.25,301.6406" style="stroke: #A80036; stroke-width: 1.5;"/><line style="stroke: #A80036; stroke-width: 2.25;" x1="996.75" x2="1124.25" y1="277.6406" y2="277.6406"/><line style="stroke: #A80036; stroke-width: 2.25;" x1="1124.25" x2="1124.25" y1="277.6406" y2="310.6406"/><polygon fill="#A80036" points="1118.25,295.6406,1124.25,310.6406,1130.25,295.6406,1124.25,301.6406" style="stroke: #A80036; stroke-width: 1.5;"/><line style="stroke: #A80036; stroke-width: 2.25;" x1="833.25" x2="833.25" y1="491.0625" y2="518.0625"/><line style="stroke: #A80036; stroke-width: 2.25;" x1="833.25" x2="960.75" y1="518.0625" y2="518.0625"/><polygon fill="#A80036" points="945.75,512.0625,960.75,518.0625,945.75,524.0625,951.75,518.0625" style="stroke: #A80036; stroke-width: 1.5;"/><line style="stroke: #A80036; stroke-width: 2.25;" x1="1124.25" x2="1124.25" y1="385.9219" y2="518.0625"/><line style="stroke: #A80036; stroke-width: 2.25;" x1="1124.25" x2="996.75" y1="518.0625" y2="518.0625"/><polygon fill="#A80036" points="1011.75,512.0625,996.75,518.0625,1011.75,524.0625,1005.75,518.0625" style="stroke: #A80036; stroke-width: 1.5;"/><line style="stroke: #A80036; stroke-width: 2.25;" x1="711.375" x2="480" y1="226.6406" y2="226.6406"/><line style="stroke: #A80036; stroke-width: 2.25;" x1="480" x2="480" y1="226.6406" y2="259.6406"/><polygon fill="#A80036" points="474,244.6406,480,259.6406,486,244.6406,480,250.6406" style="stroke: #A80036; stroke-width: 1.5;"/><line style="stroke: #A80036; stroke-width: 2.25;" x1="747.375" x2="978.75" y1="226.6406" y2="226.6406"/><line style="stroke: #A80036; stroke-width: 2.25;" x1="978.75" x2="978.75" y1="226.6406" y2="259.6406"/><polygon fill="#A80036" points="972.75,244.6406,978.75,259.6406,984.75,244.6406,978.75,250.6406" style="stroke: #A80036; stroke-width: 1.5;"/><line style="stroke: #A80036; stroke-width: 2.25;" x1="480" x2="480" y1="417.4219" y2="563.0625"/><line style="stroke: #A80036; stroke-width: 2.25;" x1="480" x2="711.375" y1="563.0625" y2="563.0625"/><polygon fill="#A80036" points="696.375,557.0625,711.375,563.0625,696.375,569.0625,702.375,563.0625" style="stroke: #A80036; stroke-width: 1.5;"/><line style="stroke: #A80036; stroke-width: 2.25;" x1="978.75" x2="978.75" y1="536.0625" y2="563.0625"/><line style="stroke: #A80036; stroke-width: 2.25;" x1="978.75" x2="747.375" y1="563.0625" y2="563.0625"/><polygon fill="#A80036" points="762.375,557.0625,747.375,563.0625,762.375,569.0625,756.375,563.0625" style="stroke: #A80036; stroke-width: 1.5;"/><line style="stroke: #A80036; stroke-width: 2.25;" x1="417.9375" x2="142.5" y1="175.6406" y2="175.6406"/><line style="stroke: #A80036; stroke-width: 2.25;" x1="142.5" x2="142.5" y1="175.6406" y2="208.6406"/><polygon fill="#A80036" points="136.5,193.6406,142.5,208.6406,148.5,193.6406,142.5,199.6406" style="stroke: #A80036; stroke-width: 1.5;"/><line style="stroke: #A80036; stroke-width: 2.25;" x1="453.9375" x2="729.375" y1="175.6406" y2="175.6406"/><line style="stroke: #A80036; stroke-width: 2.25;" x1="729.375" x2="729.375" y1="175.6406" y2="208.6406"/><polygon fill="#A80036" points="723.375,193.6406,729.375,208.6406,735.375,193.6406,729.375,199.6406" style="stroke: #A80036; stroke-width: 1.5;"/><line style="stroke: #A80036; stroke-width: 2.25;" x1="142.5" x2="142.5" y1="366.4219" y2="608.0625"/><line style="stroke: #A80036; stroke-width: 2.25;" x1="142.5" x2="417.9375" y1="608.0625" y2="608.0625"/><polygon fill="#A80036" points="402.9375,602.0625,417.9375,608.0625,402.9375,614.0625,408.9375,608.0625" style="stroke: #A80036; stroke-width: 1.5;"/><line style="stroke: #A80036; stroke-width: 2.25;" x1="729.375" x2="729.375" y1="581.0625" y2="608.0625"/><line style="stroke: #A80036; stroke-width: 2.25;" x1="729.375" x2="453.9375" y1="608.0625" y2="608.0625"/><polygon fill="#A80036" points="468.9375,602.0625,453.9375,608.0625,468.9375,614.0625,462.9375,608.0625" style="stroke: #A80036; stroke-width: 1.5;"/><line style="stroke: #A80036; stroke-width: 2.25;" x1="435.9375" x2="435.9375" y1="127.6406" y2="157.6406"/><polygon fill="#A80036" points="429.9375,142.6406,435.9375,157.6406,441.9375,142.6406,435.9375,148.6406" style="stroke: #A80036; stroke-width: 1.5;"/><line style="stroke: #A80036; stroke-width: 2.25;" x1="435.9375" x2="435.9375" y1="626.0625" y2="656.0625"/><polygon fill="#A80036" points="429.9375,641.0625,435.9375,656.0625,441.9375,641.0625,435.9375,647.0625" style="stroke: #A80036; stroke-width: 1.5;"/><line style="stroke: #A80036; stroke-width: 2.25;" x1="435.9375" x2="435.9375" y1="708.7031" y2="738.7031"/><polygon fill="#A80036" points="429.9375,723.7031,435.9375,738.7031,441.9375,723.7031,435.9375,729.7031" style="stroke: #A80036; stroke-width: 1.5;"/><!--MD5=[982d66a2fd001b1157b655cdf0e79a00]
@startuml
start
:User inputs List Command;

If () then ([Command is 'list done'])
    :List all completed orders;
    :Returns success message;
else ([Command is not 'list done'])
    If () then ([Command is 'list undone])
        :List all orders that are not completed;
        :Returns success message;
        else ([Command is not 'list undone'])
            If () then ([Command is 'list'])
                :List all orders
                (completed and not completed);
                :Returns success message;
            else ([Command is neither of the three commands])
                :Returns failure message
                (Invalid Command);

        endif
endif
endif
:LogicManager prints message to user;

stop
@enduml

PlantUML version 1.2019.11(Sun Sep 22 18:02:15 SGT 2019)
(GPL source distribution)
Java Runtime: OpenJDK Runtime Environment
JVM: OpenJDK 64-Bit Server VM
Java Version: 11.0.5+10-b520.17
Operating System: Windows 10
Default Encoding: UTF-8
Language: en
Country: SG
--></g></svg>
