<?xml version="1.0" encoding="UTF-8" standalone="no"?><svg xmlns="http://www.w3.org/2000/svg" xmlns:xlink="http://www.w3.org/1999/xlink" contentScriptType="application/ecmascript" contentStyleType="text/css" height="832.5px" preserveAspectRatio="none" style="width:1609px;height:832px;" version="1.1" viewBox="0 0 1609 832" width="1609.5px" zoomAndPan="magnify"><defs><filter height="300%" id="f1jcshtwlau448" width="300%" x="-1" y="-1"><feGaussianBlur result="blurOut" stdDeviation="3.0"/><feColorMatrix in="blurOut" result="blurOut2" type="matrix" values="0 0 0 0 0 0 0 0 0 0 0 0 0 0 0 0 0 0 .4 0"/><feOffset dx="6.0" dy="6.0" in="blurOut2" result="blurOut3"/><feBlend in="SourceGraphic" in2="blurOut3" mode="normal"/></filter></defs><g><ellipse cx="576.6563" cy="30" fill="#000000" filter="url(#f1jcshtwlau448)" rx="15" ry="15" style="stroke: none; stroke-width: 1.5;"/><rect fill="#FEFECE" filter="url(#f1jcshtwlau448)" height="52.6406" rx="18.75" ry="18.75" style="stroke: #A80036; stroke-width: 2.25;" width="253.5" x="449.9063" y="75"/><text fill="#000000" font-family="sans-serif" font-size="18" lengthAdjust="spacingAndGlyphs" textLength="223.5" x="464.9063" y="108.6855">User inputs List Command</text><polygon fill="#FEFECE" filter="url(#f1jcshtwlau448)" points="576.6563,157.6406,576.6563,157.6406,594.6563,175.6406,576.6563,193.6406,576.6563,193.6406,558.6563,175.6406,576.6563,157.6406" style="stroke: #A80036; stroke-width: 2.25;"/><text fill="#000000" font-family="sans-serif" font-size="16.5" lengthAdjust="spacingAndGlyphs" textLength="166.5" x="392.1563" y="172.0151">[Command is 'list done']</text><text fill="#000000" font-family="sans-serif" font-size="16.5" lengthAdjust="spacingAndGlyphs" textLength="193.5" x="594.6563" y="172.0151">[Command is not 'list done']</text><rect fill="#FEFECE" filter="url(#f1jcshtwlau448)" height="75.2813" rx="18.75" ry="18.75" style="stroke: #A80036; stroke-width: 2.25;" width="372" x="21.75" y="208.6406"/><text fill="#000000" font-family="sans-serif" font-size="18" lengthAdjust="spacingAndGlyphs" textLength="342" x="36.75" y="242.3262">UpdateFilteredList with predicate to list all</text><text fill="#000000" font-family="sans-serif" font-size="18" lengthAdjust="spacingAndGlyphs" textLength="133.5" x="36.75" y="264.9668">delivered orders</text><rect fill="#FEFECE" filter="url(#f1jcshtwlau448)" height="75.2813" rx="18.75" ry="18.75" style="stroke: #A80036; stroke-width: 2.25;" width="385.5" x="15" y="336.4219"/><text fill="#000000" font-family="sans-serif" font-size="18" lengthAdjust="spacingAndGlyphs" textLength="355.5" x="30" y="370.1074">Returns Message that indicates successful</text><text fill="#000000" font-family="sans-serif" font-size="18" lengthAdjust="spacingAndGlyphs" textLength="294" x="34.5" y="392.748">command to list all delivered orders</text><polygon fill="#FEFECE" filter="url(#f1jcshtwlau448)" points="945.5625,208.6406,945.5625,208.6406,963.5625,226.6406,945.5625,244.6406,945.5625,244.6406,927.5625,226.6406,945.5625,208.6406" style="stroke: #A80036; stroke-width: 2.25;"/><text fill="#000000" font-family="sans-serif" font-size="16.5" lengthAdjust="spacingAndGlyphs" textLength="181.5" x="746.0625" y="223.0151">[Command is 'list undone]</text><text fill="#000000" font-family="sans-serif" font-size="16.5" lengthAdjust="spacingAndGlyphs" textLength="211.5" x="963.5625" y="223.0151">[Command is not 'list undone']</text><rect fill="#FEFECE" filter="url(#f1jcshtwlau448)" height="75.2813" rx="18.75" ry="18.75" style="stroke: #A80036; stroke-width: 2.25;" width="372" x="452.25" y="259.6406"/><text fill="#000000" font-family="sans-serif" font-size="18" lengthAdjust="spacingAndGlyphs" textLength="342" x="467.25" y="293.3262">UpdateFilteredList with predicate to list all</text><text fill="#000000" font-family="sans-serif" font-size="18" lengthAdjust="spacingAndGlyphs" textLength="163.5" x="467.25" y="315.9668">orders not delivered</text><rect fill="#FEFECE" filter="url(#f1jcshtwlau448)" height="75.2813" rx="18.75" ry="18.75" style="stroke: #A80036; stroke-width: 2.25;" width="385.5" x="445.5" y="387.4219"/><text fill="#000000" font-family="sans-serif" font-size="18" lengthAdjust="spacingAndGlyphs" textLength="355.5" x="460.5" y="421.1074">Returns Message that indicates successful</text><text fill="#000000" font-family="sans-serif" font-size="18" lengthAdjust="spacingAndGlyphs" textLength="324" x="460.5" y="443.748">command to list all orders not delivered</text><polygon fill="#FEFECE" filter="url(#f1jcshtwlau448)" points="1252.875,259.6406,1252.875,259.6406,1270.875,277.6406,1252.875,295.6406,1252.875,295.6406,1234.875,277.6406,1252.875,259.6406" style="stroke: #A80036; stroke-width: 2.25;"/><text fill="#000000" font-family="sans-serif" font-size="16.5" lengthAdjust="spacingAndGlyphs" textLength="126" x="1108.875" y="274.0151">[Command is 'list']</text><text fill="#000000" font-family="sans-serif" font-size="16.5" lengthAdjust="spacingAndGlyphs" textLength="321" x="1270.875" y="274.0151">[Command is neither of the three commands]</text><rect fill="#FEFECE" filter="url(#f1jcshtwlau448)" height="75.2813" rx="18.75" ry="18.75" style="stroke: #A80036; stroke-width: 2.25;" width="357" x="890.25" y="310.6406"/><text fill="#000000" font-family="sans-serif" font-size="18" lengthAdjust="spacingAndGlyphs" textLength="270" x="905.25" y="344.3262">UpdateFilteredList with predicate</text><text fill="#000000" font-family="sans-serif" font-size="18" lengthAdjust="spacingAndGlyphs" textLength="327" x="905.25" y="366.9668">that always result to true (List all orders)</text><rect fill="#FEFECE" filter="url(#f1jcshtwlau448)" height="97.9219" rx="18.75" ry="18.75" style="stroke: #A80036; stroke-width: 2.25;" width="385.5" x="876" y="438.4219"/><text fill="#000000" font-family="sans-serif" font-size="18" lengthAdjust="spacingAndGlyphs" textLength="355.5" x="891" y="472.1074">Returns Message that indicates successful</text><text fill="#000000" font-family="sans-serif" font-size="18" lengthAdjust="spacingAndGlyphs" textLength="214.5" x="891" y="494.748">command to list all orders</text><text fill="#000000" font-family="sans-serif" font-size="18" lengthAdjust="spacingAndGlyphs" textLength="265.5" x="891" y="517.3887">(Both delivered and undelivered)</text><rect fill="#FEFECE" filter="url(#f1jcshtwlau448)" height="75.2813" rx="18.75" ry="18.75" style="stroke: #A80036; stroke-width: 2.25;" width="291" x="1291.5" y="310.6406"/><text fill="#000000" font-family="sans-serif" font-size="18" lengthAdjust="spacingAndGlyphs" textLength="261" x="1306.5" y="344.3262">Returns Message that indicates</text><text fill="#000000" font-family="sans-serif" font-size="18" lengthAdjust="spacingAndGlyphs" textLength="166.5" x="1311" y="366.9668">an invalid command</text><polygon fill="#FEFECE" filter="url(#f1jcshtwlau448)" points="1252.875,545.3438,1270.875,563.3438,1252.875,581.3438,1234.875,563.3438,1252.875,545.3438" style="stroke: #A80036; stroke-width: 2.25;"/><polygon fill="#FEFECE" filter="url(#f1jcshtwlau448)" points="945.5625,590.3438,963.5625,608.3438,945.5625,626.3438,927.5625,608.3438,945.5625,590.3438" style="stroke: #A80036; stroke-width: 2.25;"/><polygon fill="#FEFECE" filter="url(#f1jcshtwlau448)" points="576.6563,635.3438,594.6563,653.3438,576.6563,671.3438,558.6563,653.3438,576.6563,635.3438" style="stroke: #A80036; stroke-width: 2.25;"/><rect fill="#FEFECE" filter="url(#f1jcshtwlau448)" height="52.6406" rx="18.75" ry="18.75" style="stroke: #A80036; stroke-width: 2.25;" width="343.5" x="404.9063" y="701.3438"/><text fill="#000000" font-family="sans-serif" font-size="18" lengthAdjust="spacingAndGlyphs" textLength="313.5" x="419.9063" y="735.0293">LogicManager prints message to user</text><ellipse cx="576.6563" cy="800.4844" fill="#FFFFFF" filter="url(#f1jcshtwlau448)" rx="16.5" ry="16.5" style="stroke: #000000; stroke-width: 1.5;"/><ellipse cx="576.6563" cy="800.4844" fill="#000000" rx="9" ry="9" style="stroke: #7F7F7F; stroke-width: 1.5;"/><line style="stroke: #A80036; stroke-width: 2.25;" x1="576.6563" x2="576.6563" y1="45" y2="75"/><polygon fill="#A80036" points="570.6563,60,576.6563,75,582.6563,60,576.6563,66" style="stroke: #A80036; stroke-width: 1.5;"/><line style="stroke: #A80036; stroke-width: 2.25;" x1="207.75" x2="207.75" y1="283.9219" y2="336.4219"/><polygon fill="#A80036" points="201.75,321.4219,207.75,336.4219,213.75,321.4219,207.75,327.4219" style="stroke: #A80036; stroke-width: 1.5;"/><line style="stroke: #A80036; stroke-width: 2.25;" x1="638.25" x2="638.25" y1="334.9219" y2="387.4219"/><polygon fill="#A80036" points="632.25,372.4219,638.25,387.4219,644.25,372.4219,638.25,378.4219" style="stroke: #A80036; stroke-width: 1.5;"/><line style="stroke: #A80036; stroke-width: 2.25;" x1="1068.75" x2="1068.75" y1="385.9219" y2="438.4219"/><polygon fill="#A80036" points="1062.75,423.4219,1068.75,438.4219,1074.75,423.4219,1068.75,429.4219" style="stroke: #A80036; stroke-width: 1.5;"/><line style="stroke: #A80036; stroke-width: 2.25;" x1="1234.875" x2="1068.75" y1="277.6406" y2="277.6406"/><line style="stroke: #A80036; stroke-width: 2.25;" x1="1068.75" x2="1068.75" y1="277.6406" y2="310.6406"/><polygon fill="#A80036" points="1062.75,295.6406,1068.75,310.6406,1074.75,295.6406,1068.75,301.6406" style="stroke: #A80036; stroke-width: 1.5;"/><line style="stroke: #A80036; stroke-width: 2.25;" x1="1270.875" x2="1437" y1="277.6406" y2="277.6406"/><line style="stroke: #A80036; stroke-width: 2.25;" x1="1437" x2="1437" y1="277.6406" y2="310.6406"/><polygon fill="#A80036" points="1431,295.6406,1437,310.6406,1443,295.6406,1437,301.6406" style="stroke: #A80036; stroke-width: 1.5;"/><line style="stroke: #A80036; stroke-width: 2.25;" x1="1068.75" x2="1068.75" y1="536.3438" y2="563.3438"/><line style="stroke: #A80036; stroke-width: 2.25;" x1="1068.75" x2="1234.875" y1="563.3438" y2="563.3438"/><polygon fill="#A80036" points="1219.875,557.3438,1234.875,563.3438,1219.875,569.3438,1225.875,563.3438" style="stroke: #A80036; stroke-width: 1.5;"/><line style="stroke: #A80036; stroke-width: 2.25;" x1="1437" x2="1437" y1="385.9219" y2="563.3438"/><line style="stroke: #A80036; stroke-width: 2.25;" x1="1437" x2="1270.875" y1="563.3438" y2="563.3438"/><polygon fill="#A80036" points="1285.875,557.3438,1270.875,563.3438,1285.875,569.3438,1279.875,563.3438" style="stroke: #A80036; stroke-width: 1.5;"/><line style="stroke: #A80036; stroke-width: 2.25;" x1="927.5625" x2="638.25" y1="226.6406" y2="226.6406"/><line style="stroke: #A80036; stroke-width: 2.25;" x1="638.25" x2="638.25" y1="226.6406" y2="259.6406"/><polygon fill="#A80036" points="632.25,244.6406,638.25,259.6406,644.25,244.6406,638.25,250.6406" style="stroke: #A80036; stroke-width: 1.5;"/><line style="stroke: #A80036; stroke-width: 2.25;" x1="963.5625" x2="1252.875" y1="226.6406" y2="226.6406"/><line style="stroke: #A80036; stroke-width: 2.25;" x1="1252.875" x2="1252.875" y1="226.6406" y2="259.6406"/><polygon fill="#A80036" points="1246.875,244.6406,1252.875,259.6406,1258.875,244.6406,1252.875,250.6406" style="stroke: #A80036; stroke-width: 1.5;"/><line style="stroke: #A80036; stroke-width: 2.25;" x1="638.25" x2="638.25" y1="462.7031" y2="608.3438"/><line style="stroke: #A80036; stroke-width: 2.25;" x1="638.25" x2="927.5625" y1="608.3438" y2="608.3438"/><polygon fill="#A80036" points="912.5625,602.3438,927.5625,608.3438,912.5625,614.3438,918.5625,608.3438" style="stroke: #A80036; stroke-width: 1.5;"/><line style="stroke: #A80036; stroke-width: 2.25;" x1="1252.875" x2="1252.875" y1="581.3438" y2="608.3438"/><line style="stroke: #A80036; stroke-width: 2.25;" x1="1252.875" x2="963.5625" y1="608.3438" y2="608.3438"/><polygon fill="#A80036" points="978.5625,602.3438,963.5625,608.3438,978.5625,614.3438,972.5625,608.3438" style="stroke: #A80036; stroke-width: 1.5;"/><line style="stroke: #A80036; stroke-width: 2.25;" x1="558.6563" x2="207.75" y1="175.6406" y2="175.6406"/><line style="stroke: #A80036; stroke-width: 2.25;" x1="207.75" x2="207.75" y1="175.6406" y2="208.6406"/><polygon fill="#A80036" points="201.75,193.6406,207.75,208.6406,213.75,193.6406,207.75,199.6406" style="stroke: #A80036; stroke-width: 1.5;"/><line style="stroke: #A80036; stroke-width: 2.25;" x1="594.6563" x2="945.5625" y1="175.6406" y2="175.6406"/><line style="stroke: #A80036; stroke-width: 2.25;" x1="945.5625" x2="945.5625" y1="175.6406" y2="208.6406"/><polygon fill="#A80036" points="939.5625,193.6406,945.5625,208.6406,951.5625,193.6406,945.5625,199.6406" style="stroke: #A80036; stroke-width: 1.5;"/><line style="stroke: #A80036; stroke-width: 2.25;" x1="207.75" x2="207.75" y1="411.7031" y2="653.3438"/><line style="stroke: #A80036; stroke-width: 2.25;" x1="207.75" x2="558.6563" y1="653.3438" y2="653.3438"/><polygon fill="#A80036" points="543.6563,647.3438,558.6563,653.3438,543.6563,659.3438,549.6563,653.3438" style="stroke: #A80036; stroke-width: 1.5;"/><line style="stroke: #A80036; stroke-width: 2.25;" x1="945.5625" x2="945.5625" y1="626.3438" y2="653.3438"/><line style="stroke: #A80036; stroke-width: 2.25;" x1="945.5625" x2="594.6563" y1="653.3438" y2="653.3438"/><polygon fill="#A80036" points="609.6563,647.3438,594.6563,653.3438,609.6563,659.3438,603.6563,653.3438" style="stroke: #A80036; stroke-width: 1.5;"/><line style="stroke: #A80036; stroke-width: 2.25;" x1="576.6563" x2="576.6563" y1="127.6406" y2="157.6406"/><polygon fill="#A80036" points="570.6563,142.6406,576.6563,157.6406,582.6563,142.6406,576.6563,148.6406" style="stroke: #A80036; stroke-width: 1.5;"/><line style="stroke: #A80036; stroke-width: 2.25;" x1="576.6563" x2="576.6563" y1="671.3438" y2="701.3438"/><polygon fill="#A80036" points="570.6563,686.3438,576.6563,701.3438,582.6563,686.3438,576.6563,692.3438" style="stroke: #A80036; stroke-width: 1.5;"/><line style="stroke: #A80036; stroke-width: 2.25;" x1="576.6563" x2="576.6563" y1="753.9844" y2="783.9844"/><polygon fill="#A80036" points="570.6563,768.9844,576.6563,783.9844,582.6563,768.9844,576.6563,774.9844" style="stroke: #A80036; stroke-width: 1.5;"/><!--MD5=[42ef7d105c071f8a775fd34bd6eec01a]
@startuml
start
:User inputs List Command;

If () then ([Command is 'list done'])
    :UpdateFilteredList with predicate to list all
    delivered orders;
    :Returns Message that indicates successful
     command to list all delivered orders;
else ([Command is not 'list done'])
    If () then ([Command is 'list undone])
        :UpdateFilteredList with predicate to list all
        orders not delivered;
        :Returns Message that indicates successful
        command to list all orders not delivered;
        else ([Command is not 'list undone'])
            If () then ([Command is 'list'])
                :UpdateFilteredList with predicate
                that always result to true (List all orders);
                :Returns Message that indicates successful
                command to list all orders 
                (Both delivered and undelivered);
            else ([Command is neither of the three commands])
                :Returns Message that indicates
                 an invalid command;

        endif
endif
endif
:LogicManager prints message to user;

stop
@enduml

PlantUML version 1.2019.11(Sun Sep 22 18:02:15 SGT 2019)
(GPL source distribution)
Java Runtime: OpenJDK Runtime Environment
JVM: OpenJDK 64-Bit Server VM
Java Version: 11.0.5+10-b520.17
Operating System: Windows 10
Default Encoding: UTF-8
Language: en
Country: SG
--></g></svg>