<?xml version="1.0" encoding="UTF-8" standalone="no"?><svg xmlns="http://www.w3.org/2000/svg" xmlns:xlink="http://www.w3.org/1999/xlink" contentScriptType="application/ecmascript" contentStyleType="text/css" height="999px" preserveAspectRatio="none" style="width:1693px;height:999px;" version="1.1" viewBox="0 0 1693 999" width="1693.5px" zoomAndPan="magnify"><defs><filter height="300%" id="flp3igruwm1mc" width="300%" x="-1" y="-1"><feGaussianBlur result="blurOut" stdDeviation="3.0"/><feColorMatrix in="blurOut" result="blurOut2" type="matrix" values="0 0 0 0 0 0 0 0 0 0 0 0 0 0 0 0 0 0 .4 0"/><feOffset dx="6.0" dy="6.0" in="blurOut2" result="blurOut3"/><feBlend in="SourceGraphic" in2="blurOut3" mode="normal"/></filter></defs><g><ellipse cx="565.5" cy="30" fill="#000000" filter="url(#flp3igruwm1mc)" rx="15" ry="15" style="stroke: none; stroke-width: 1.5;"/><rect fill="#FEFECE" filter="url(#flp3igruwm1mc)" height="52.6406" rx="18.75" ry="18.75" style="stroke: #A80036; stroke-width: 2.25;" width="253.5" x="438.75" y="75"/><text fill="#000000" font-family="sans-serif" font-size="18" lengthAdjust="spacingAndGlyphs" textLength="223.5" x="453.75" y="108.6855">User inputs List Command</text><rect fill="#FEFECE" filter="url(#flp3igruwm1mc)" height="52.6406" rx="18.75" ry="18.75" style="stroke: #A80036; stroke-width: 2.25;" width="456" x="337.5" y="157.6406"/><text fill="#000000" font-family="sans-serif" font-size="18" lengthAdjust="spacingAndGlyphs" textLength="426" x="352.5" y="191.3262">LogicManager parse command to OrderBookParser</text><rect fill="#FEFECE" filter="url(#flp3igruwm1mc)" height="52.6406" rx="18.75" ry="18.75" style="stroke: #A80036; stroke-width: 2.25;" width="471" x="330" y="240.2813"/><text fill="#000000" font-family="sans-serif" font-size="18" lengthAdjust="spacingAndGlyphs" textLength="441" x="345" y="273.9668">OrderBookParser creates a new ListCommand object</text><polygon fill="#FEFECE" filter="url(#flp3igruwm1mc)" points="565.5,322.9219,565.5,322.9219,583.5,340.9219,565.5,358.9219,565.5,358.9219,547.5,340.9219,565.5,322.9219" style="stroke: #A80036; stroke-width: 2.25;"/><text fill="#000000" font-family="sans-serif" font-size="16.5" lengthAdjust="spacingAndGlyphs" textLength="166.5" x="381" y="337.2964">[Command is 'list done']</text><text fill="#000000" font-family="sans-serif" font-size="16.5" lengthAdjust="spacingAndGlyphs" textLength="193.5" x="583.5" y="337.2964">[Command is not 'list done']</text><rect fill="#FEFECE" filter="url(#flp3igruwm1mc)" height="75.2813" rx="18.75" ry="18.75" style="stroke: #A80036; stroke-width: 2.25;" width="372" x="15" y="373.9219"/><text fill="#000000" font-family="sans-serif" font-size="18" lengthAdjust="spacingAndGlyphs" textLength="342" x="30" y="407.6074">UpdateFilteredList with predicate to list all</text><text fill="#000000" font-family="sans-serif" font-size="18" lengthAdjust="spacingAndGlyphs" textLength="133.5" x="30" y="430.248">delivered orders</text><polygon fill="#FEFECE" filter="url(#flp3igruwm1mc)" points="930,373.9219,930,373.9219,948,391.9219,930,409.9219,930,409.9219,912,391.9219,930,373.9219" style="stroke: #A80036; stroke-width: 2.25;"/><text fill="#000000" font-family="sans-serif" font-size="16.5" lengthAdjust="spacingAndGlyphs" textLength="181.5" x="730.5" y="388.2964">[Command is 'list undone]</text><text fill="#000000" font-family="sans-serif" font-size="16.5" lengthAdjust="spacingAndGlyphs" textLength="211.5" x="948" y="388.2964">[Command is not 'list undone']</text><rect fill="#FEFECE" filter="url(#flp3igruwm1mc)" height="75.2813" rx="18.75" ry="18.75" style="stroke: #A80036; stroke-width: 2.25;" width="372" x="432" y="424.9219"/><text fill="#000000" font-family="sans-serif" font-size="18" lengthAdjust="spacingAndGlyphs" textLength="342" x="447" y="458.6074">UpdateFilteredList with predicate to list all</text><text fill="#000000" font-family="sans-serif" font-size="18" lengthAdjust="spacingAndGlyphs" textLength="163.5" x="447" y="481.248">orders not delivered</text><polygon fill="#FEFECE" filter="url(#flp3igruwm1mc)" points="1242,424.9219,1242,424.9219,1260,442.9219,1242,460.9219,1242,460.9219,1224,442.9219,1242,424.9219" style="stroke: #A80036; stroke-width: 2.25;"/><text fill="#000000" font-family="sans-serif" font-size="16.5" lengthAdjust="spacingAndGlyphs" textLength="126" x="1098" y="439.2964">[Command is 'list']</text><text fill="#000000" font-family="sans-serif" font-size="16.5" lengthAdjust="spacingAndGlyphs" textLength="321" x="1260" y="439.2964">[Command is neither of the three commands]</text><rect fill="#FEFECE" filter="url(#flp3igruwm1mc)" height="75.2813" rx="18.75" ry="18.75" style="stroke: #A80036; stroke-width: 2.25;" width="357" x="849" y="475.9219"/><text fill="#000000" font-family="sans-serif" font-size="18" lengthAdjust="spacingAndGlyphs" textLength="270" x="864" y="509.6074">UpdateFilteredList with predicate</text><text fill="#000000" font-family="sans-serif" font-size="18" lengthAdjust="spacingAndGlyphs" textLength="327" x="864" y="532.248">that always result to true (List all orders)</text><rect fill="#FEFECE" filter="url(#flp3igruwm1mc)" height="75.2813" rx="18.75" ry="18.75" style="stroke: #A80036; stroke-width: 2.25;" width="441" x="1236" y="475.9219"/><text fill="#000000" font-family="sans-serif" font-size="18" lengthAdjust="spacingAndGlyphs" textLength="411" x="1251" y="509.6074">Returns a new CommandResult object with String</text><text fill="#000000" font-family="sans-serif" font-size="18" lengthAdjust="spacingAndGlyphs" textLength="250.5" x="1251" y="532.248">indicating an invalid command</text><ellipse cx="1456.5" cy="597.7031" fill="#FFFFFF" filter="url(#flp3igruwm1mc)" rx="16.5" ry="16.5" style="stroke: #000000; stroke-width: 1.5;"/><ellipse cx="1456.5" cy="597.7031" fill="#000000" rx="9" ry="9" style="stroke: #7F7F7F; stroke-width: 1.5;"/><polygon fill="#FEFECE" filter="url(#flp3igruwm1mc)" points="930,629.2031,948,647.2031,930,665.2031,912,647.2031,930,629.2031" style="stroke: #A80036; stroke-width: 2.25;"/><polygon fill="#FEFECE" filter="url(#flp3igruwm1mc)" points="565.5,674.2031,583.5,692.2031,565.5,710.2031,547.5,692.2031,565.5,674.2031" style="stroke: #A80036; stroke-width: 2.25;"/><rect fill="#FEFECE" filter="url(#flp3igruwm1mc)" height="75.2813" rx="18.75" ry="18.75" style="stroke: #A80036; stroke-width: 2.25;" width="441" x="345" y="740.2031"/><text fill="#000000" font-family="sans-serif" font-size="18" lengthAdjust="spacingAndGlyphs" textLength="411" x="360" y="773.8887">Returns a new CommandResult object with String</text><text fill="#000000" font-family="sans-serif" font-size="18" lengthAdjust="spacingAndGlyphs" textLength="360" x="360" y="796.5293">indicating a successful command execution</text><rect fill="#FEFECE" filter="url(#flp3igruwm1mc)" height="75.2813" rx="18.75" ry="18.75" style="stroke: #A80036; stroke-width: 2.25;" width="297" x="417" y="845.4844"/><text fill="#000000" font-family="sans-serif" font-size="18" lengthAdjust="spacingAndGlyphs" textLength="267" x="432" y="879.1699">LogicManager uses the object to</text><text fill="#000000" font-family="sans-serif" font-size="18" lengthAdjust="spacingAndGlyphs" textLength="148.5" x="432" y="901.8105">rints result to user</text><ellipse cx="565.5" cy="967.2656" fill="#FFFFFF" filter="url(#flp3igruwm1mc)" rx="16.5" ry="16.5" style="stroke: #000000; stroke-width: 1.5;"/><ellipse cx="565.5" cy="967.2656" fill="#000000" rx="9" ry="9" style="stroke: #7F7F7F; stroke-width: 1.5;"/><line style="stroke: #A80036; stroke-width: 2.25;" x1="565.5" x2="565.5" y1="45" y2="75"/><polygon fill="#A80036" points="559.5,60,565.5,75,571.5,60,565.5,66" style="stroke: #A80036; stroke-width: 1.5;"/><line style="stroke: #A80036; stroke-width: 2.25;" x1="565.5" x2="565.5" y1="127.6406" y2="157.6406"/><polygon fill="#A80036" points="559.5,142.6406,565.5,157.6406,571.5,142.6406,565.5,148.6406" style="stroke: #A80036; stroke-width: 1.5;"/><line style="stroke: #A80036; stroke-width: 2.25;" x1="565.5" x2="565.5" y1="210.2813" y2="240.2813"/><polygon fill="#A80036" points="559.5,225.2813,565.5,240.2813,571.5,225.2813,565.5,231.2813" style="stroke: #A80036; stroke-width: 1.5;"/><line style="stroke: #A80036; stroke-width: 2.25;" x1="1456.5" x2="1456.5" y1="551.2031" y2="581.2031"/><polygon fill="#A80036" points="1450.5,566.2031,1456.5,581.2031,1462.5,566.2031,1456.5,572.2031" style="stroke: #A80036; stroke-width: 1.5;"/><line style="stroke: #A80036; stroke-width: 2.25;" x1="1224" x2="1027.5" y1="442.9219" y2="442.9219"/><line style="stroke: #A80036; stroke-width: 2.25;" x1="1027.5" x2="1027.5" y1="442.9219" y2="475.9219"/><polygon fill="#A80036" points="1021.5,460.9219,1027.5,475.9219,1033.5,460.9219,1027.5,466.9219" style="stroke: #A80036; stroke-width: 1.5;"/><line style="stroke: #A80036; stroke-width: 2.25;" x1="1260" x2="1456.5" y1="442.9219" y2="442.9219"/><line style="stroke: #A80036; stroke-width: 2.25;" x1="1456.5" x2="1456.5" y1="442.9219" y2="475.9219"/><polygon fill="#A80036" points="1450.5,460.9219,1456.5,475.9219,1462.5,460.9219,1456.5,466.9219" style="stroke: #A80036; stroke-width: 1.5;"/><line style="stroke: #A80036; stroke-width: 2.25;" x1="1027.5" x2="1027.5" y1="551.2031" y2="647.2031"/><line style="stroke: #A80036; stroke-width: 2.25;" x1="1027.5" x2="948" y1="647.2031" y2="647.2031"/><polygon fill="#A80036" points="963,641.2031,948,647.2031,963,653.2031,957,647.2031" style="stroke: #A80036; stroke-width: 1.5;"/><line style="stroke: #A80036; stroke-width: 2.25;" x1="912" x2="618" y1="391.9219" y2="391.9219"/><line style="stroke: #A80036; stroke-width: 2.25;" x1="618" x2="618" y1="391.9219" y2="424.9219"/><polygon fill="#A80036" points="612,409.9219,618,424.9219,624,409.9219,618,415.9219" style="stroke: #A80036; stroke-width: 1.5;"/><line style="stroke: #A80036; stroke-width: 2.25;" x1="948" x2="1242" y1="391.9219" y2="391.9219"/><line style="stroke: #A80036; stroke-width: 2.25;" x1="1242" x2="1242" y1="391.9219" y2="424.9219"/><polygon fill="#A80036" points="1236,409.9219,1242,424.9219,1248,409.9219,1242,415.9219" style="stroke: #A80036; stroke-width: 1.5;"/><line style="stroke: #A80036; stroke-width: 2.25;" x1="618" x2="618" y1="500.2031" y2="647.2031"/><line style="stroke: #A80036; stroke-width: 2.25;" x1="618" x2="912" y1="647.2031" y2="647.2031"/><polygon fill="#A80036" points="897,641.2031,912,647.2031,897,653.2031,903,647.2031" style="stroke: #A80036; stroke-width: 1.5;"/><line style="stroke: #A80036; stroke-width: 2.25;" x1="547.5" x2="201" y1="340.9219" y2="340.9219"/><line style="stroke: #A80036; stroke-width: 2.25;" x1="201" x2="201" y1="340.9219" y2="373.9219"/><polygon fill="#A80036" points="195,358.9219,201,373.9219,207,358.9219,201,364.9219" style="stroke: #A80036; stroke-width: 1.5;"/><line style="stroke: #A80036; stroke-width: 2.25;" x1="583.5" x2="930" y1="340.9219" y2="340.9219"/><line style="stroke: #A80036; stroke-width: 2.25;" x1="930" x2="930" y1="340.9219" y2="373.9219"/><polygon fill="#A80036" points="924,358.9219,930,373.9219,936,358.9219,930,364.9219" style="stroke: #A80036; stroke-width: 1.5;"/><line style="stroke: #A80036; stroke-width: 2.25;" x1="201" x2="201" y1="449.2031" y2="692.2031"/><line style="stroke: #A80036; stroke-width: 2.25;" x1="201" x2="547.5" y1="692.2031" y2="692.2031"/><polygon fill="#A80036" points="532.5,686.2031,547.5,692.2031,532.5,698.2031,538.5,692.2031" style="stroke: #A80036; stroke-width: 1.5;"/><line style="stroke: #A80036; stroke-width: 2.25;" x1="930" x2="930" y1="665.2031" y2="692.2031"/><line style="stroke: #A80036; stroke-width: 2.25;" x1="930" x2="583.5" y1="692.2031" y2="692.2031"/><polygon fill="#A80036" points="598.5,686.2031,583.5,692.2031,598.5,698.2031,592.5,692.2031" style="stroke: #A80036; stroke-width: 1.5;"/><line style="stroke: #A80036; stroke-width: 2.25;" x1="565.5" x2="565.5" y1="292.9219" y2="322.9219"/><polygon fill="#A80036" points="559.5,307.9219,565.5,322.9219,571.5,307.9219,565.5,313.9219" style="stroke: #A80036; stroke-width: 1.5;"/><line style="stroke: #A80036; stroke-width: 2.25;" x1="565.5" x2="565.5" y1="710.2031" y2="740.2031"/><polygon fill="#A80036" points="559.5,725.2031,565.5,740.2031,571.5,725.2031,565.5,731.2031" style="stroke: #A80036; stroke-width: 1.5;"/><line style="stroke: #A80036; stroke-width: 2.25;" x1="565.5" x2="565.5" y1="815.4844" y2="845.4844"/><polygon fill="#A80036" points="559.5,830.4844,565.5,845.4844,571.5,830.4844,565.5,836.4844" style="stroke: #A80036; stroke-width: 1.5;"/><line style="stroke: #A80036; stroke-width: 2.25;" x1="565.5" x2="565.5" y1="920.7656" y2="950.7656"/><polygon fill="#A80036" points="559.5,935.7656,565.5,950.7656,571.5,935.7656,565.5,941.7656" style="stroke: #A80036; stroke-width: 1.5;"/><!--MD5=[78352b09a3d67a1d4121c1cf308f0298]
@startuml
start
:User inputs List Command;
:LogicManager parse command to OrderBookParser;
:OrderBookParser creates a new ListCommand object;
If () then ([Command is 'list done'])
    :UpdateFilteredList with predicate to list all
    delivered orders;

else ([Command is not 'list done'])
    If () then ([Command is 'list undone])
        :UpdateFilteredList with predicate to list all
        orders not delivered;
        else ([Command is not 'list undone'])
            If () then ([Command is 'list'])
                :UpdateFilteredList with predicate
                that always result to true (List all orders);
            else ([Command is neither of the three commands])
                :Returns a new CommandResult object with String
                indicating an invalid command;

                stop

        endif
endif
endif
:Returns a new CommandResult object with String
indicating a successful command execution;
:LogicManager uses the object to
rints result to user;

stop
@enduml

PlantUML version 1.2019.11(Sun Sep 22 18:02:15 SGT 2019)
(GPL source distribution)
Java Runtime: OpenJDK Runtime Environment
JVM: OpenJDK 64-Bit Server VM
Java Version: 11.0.5+10-b520.17
Operating System: Windows 10
Default Encoding: UTF-8
Language: en
Country: SG
--></g></svg>
