<?xml version="1.0" encoding="UTF-8" standalone="no"?><svg xmlns="http://www.w3.org/2000/svg" xmlns:xlink="http://www.w3.org/1999/xlink" contentScriptType="application/ecmascript" contentStyleType="text/css" height="676px" preserveAspectRatio="none" style="width:1075px;height:676px;" version="1.1" viewBox="0 0 1075 676" width="1075px" zoomAndPan="magnify"><defs/><g><!--MD5=[8237f0313b7e89f796726a268ea6fa70]
cluster Logic--><rect fill="#FFFFFF" height="586" style="stroke: #000000; stroke-width: 1.5;" width="781" x="22" y="79"/><text fill="#000000" font-family="sans-serif" font-size="14" font-weight="bold" lengthAdjust="spacingAndGlyphs" textLength="38" x="393.5" y="95.5332">Logic</text><!--MD5=[e012f972f019d0f7836d3226899874dc]
cluster Parser--><rect fill="#FFFFFF" height="300" style="stroke: #000000; stroke-width: 1.5;" width="575" x="46" y="341"/><text fill="#000000" font-family="sans-serif" font-size="14" font-weight="bold" lengthAdjust="spacingAndGlyphs" textLength="46" x="310.5" y="357.5332">Parser</text><!--MD5=[7ea3f7332222999d7939fca1b8e1fb19]
cluster Command--><rect fill="#FFFFFF" height="345.5" style="stroke: #000000; stroke-width: 1.5;" width="134" x="645" y="201"/><text fill="#000000" font-family="sans-serif" font-size="14" font-weight="bold" lengthAdjust="spacingAndGlyphs" textLength="69" x="677.5" y="217.5332">Command</text><!--MD5=[15636c1ca4a123c16a2a1a8e90aca7a9]
cluster Model--><rect fill="#FFFFFF" height="92" style="stroke: #000000; stroke-width: 1.5;" width="147" x="835" y="333"/><text fill="#000000" font-family="sans-serif" font-size="14" font-weight="bold" lengthAdjust="spacingAndGlyphs" textLength="44" x="886.5" y="349.5332">Model</text><!--MD5=[42fa18dda7351a0ae87d9497de925436]
class Logic--><rect fill="#3333C4" height="38.8926" id="Logic" style="stroke: #FFFFFF; stroke-width: 1.0;" width="64" x="599" y="115"/><text fill="#FFFFFF" font-family="sans-serif" font-size="12" font-style="italic" lengthAdjust="spacingAndGlyphs" textLength="62" x="600" y="132.457">«Interface»</text><text fill="#FFFFFF" font-family="Arial" font-size="12" font-style="italic" lengthAdjust="spacingAndGlyphs" textLength="30" x="616" y="146.3496">Logic</text><!--MD5=[ac54ce389d4d948eef4a4344659a3e1d]
class LogicManager--><rect fill="#3333C4" height="23.7988" id="LogicManager" style="stroke: #FFFFFF; stroke-width: 1.0;" width="84" x="508" y="237"/><text fill="#FFFFFF" font-family="Arial" font-size="12" lengthAdjust="spacingAndGlyphs" textLength="78" x="511" y="253.2559">LogicManager</text><!--MD5=[628cc5a2753cca06eb1ffef55c386535]
class Parser--><rect fill="#3333C4" height="38.8926" id="Parser" style="stroke: #FFFFFF; stroke-width: 1.0;" width="64" x="541" y="499"/><text fill="#FFFFFF" font-family="sans-serif" font-size="12" font-style="italic" lengthAdjust="spacingAndGlyphs" textLength="62" x="542" y="516.457">«Interface»</text><text fill="#FFFFFF" font-family="Arial" font-size="12" font-style="italic" lengthAdjust="spacingAndGlyphs" textLength="36" x="555" y="530.3496">Parser</text><!--MD5=[75094943c46d9515b70eb34c67c3e376]
class RecipeBookParser--><rect fill="#3333C4" height="23.7988" id="RecipeBookParser" style="stroke: #FFFFFF; stroke-width: 1.0;" width="110" x="479" y="377"/><text fill="#FFFFFF" font-family="Arial" font-size="12" lengthAdjust="spacingAndGlyphs" textLength="104" x="482" y="393.2559">RecipeBookParser</text><!--MD5=[746b88d7985d9e505b8852bd181da32b]
class XYZCommandParser--><rect fill="#3333C4" height="23.7988" id="XYZCommandParser" style="stroke: #FFFFFF; stroke-width: 1.0;" width="123" x="263.5" y="377"/><text fill="#FFFFFF" font-family="Arial" font-size="12" lengthAdjust="spacingAndGlyphs" textLength="117" x="266.5" y="393.2559">XYZCommandParser</text><!--MD5=[a5f9b6bdaa662156cb9d68223195a1d4]
class CliSyntax--><rect fill="#3333C4" height="23.7988" id="CliSyntax" style="stroke: #FFFFFF; stroke-width: 1.0;" width="56" x="62" y="506.5"/><text fill="#FFFFFF" font-family="Arial" font-size="12" lengthAdjust="spacingAndGlyphs" textLength="50" x="65" y="522.7559">CliSyntax</text><!--MD5=[2d4364422ef2416875213e99e5053212]
class ParserUtil--><rect fill="#3333C4" height="23.7988" id="ParserUtil" style="stroke: #FFFFFF; stroke-width: 1.0;" width="61" x="153.5" y="506.5"/><text fill="#FFFFFF" font-family="Arial" font-size="12" lengthAdjust="spacingAndGlyphs" textLength="55" x="156.5" y="522.7559">ParserUtil</text><!--MD5=[219f3ac85648aee436ae9305d11a5044]
class ArgumentMultimap--><rect fill="#3333C4" height="23.7988" id="ArgumentMultimap" style="stroke: #FFFFFF; stroke-width: 1.0;" width="109" x="249.5" y="506.5"/><text fill="#FFFFFF" font-family="Arial" font-size="12" lengthAdjust="spacingAndGlyphs" textLength="103" x="252.5" y="522.7559">ArgumentMultimap</text><!--MD5=[976c1e937c698a0ce33eedc81d81cedc]
class ArgumentTokenizer--><rect fill="#3333C4" height="23.7988" id="ArgumentTokenizer" style="stroke: #FFFFFF; stroke-width: 1.0;" width="112" x="394" y="506.5"/><text fill="#FFFFFF" font-family="Arial" font-size="12" lengthAdjust="spacingAndGlyphs" textLength="106" x="397" y="522.7559">ArgumentTokenizer</text><!--MD5=[441c273129fdc179bfb2b8ffb4e98281]
class Prefix--><rect fill="#3333C4" height="23.7988" id="Prefix" style="stroke: #FFFFFF; stroke-width: 1.0;" width="50" x="159" y="601"/><text fill="#FFFFFF" font-family="Arial" font-size="12" lengthAdjust="spacingAndGlyphs" textLength="30" x="169" y="617.2559">Prefix</text><!--MD5=[20b3262af791fb1c285bffe8069ced12]
class XYZCommand--><rect fill="#3333C4" height="23.7988" id="XYZCommand" style="stroke: #FFFFFF; stroke-width: 1.0;" width="86" x="675" y="506.5"/><text fill="#FFFFFF" font-family="Arial" font-size="12" lengthAdjust="spacingAndGlyphs" textLength="80" x="678" y="522.7559">XYZCommand</text><!--MD5=[8b8ed4d3c39d809e656c591f744ce388]
class CommandResult--><rect fill="#3333C4" height="23.7988" id="CommandResult" style="stroke: #FFFFFF; stroke-width: 1.0;" width="101" x="661.5" y="237"/><text fill="#FFFFFF" font-family="Arial" font-size="12" lengthAdjust="spacingAndGlyphs" textLength="95" x="664.5" y="253.2559">CommandResult</text><!--MD5=[521817ab83e81da341a3f4b5e91bae41]
class Command--><rect fill="#3333C4" height="37.5977" id="Command" style="stroke: #FFFFFF; stroke-width: 1.0;" width="65" x="685.5" y="370"/><text fill="#FFFFFF" font-family="Arial" font-size="12" lengthAdjust="spacingAndGlyphs" textLength="52" x="692" y="386.2559">{abstract}</text><text fill="#FFFFFF" font-family="Arial" font-size="12" lengthAdjust="spacingAndGlyphs" textLength="59" x="688.5" y="400.0547">Command</text><!--MD5=[eef5f0b07d2fd263bed9c722d8c1c089]
class HiddenModel--><rect fill="#FFFFFF" height="23.7988" id="HiddenModel" style="stroke: #FFFFFF; stroke-width: 1.0;" width="79" x="878.5" y="377"/><rect fill="#FFFFFF" height="23.7988" style="stroke: #FFFFFF; stroke-width: 1.0;" width="79" x="878.5" y="377"/><text fill="#FFFFFF" font-family="Arial" font-size="12" lengthAdjust="spacingAndGlyphs" textLength="73" x="881.5" y="393.2559">HiddenModel</text><!--MD5=[f8dc820cca8808bdb695301f77a92b66]
class HiddenOutside--><rect fill="#FFFFFF" height="23.7988" id="HiddenOutside" style="stroke: #FFFFFF; stroke-width: 1.0;" width="89" x="586.5" y="8"/><rect fill="#FFFFFF" height="23.7988" style="stroke: #FFFFFF; stroke-width: 1.0;" width="89" x="586.5" y="8"/><text fill="#FFFFFF" font-family="Arial" font-size="12" lengthAdjust="spacingAndGlyphs" textLength="83" x="589.5" y="24.2559">HiddenOutside</text><path d="M819,497 L819,514.5 L761.119,518.5 L819,522.5 L819,539.7031 A0,0 0 0 0 819,539.7031 L1063,539.7031 A0,0 0 0 0 1063,539.7031 L1063,507 L1053,497 L819,497 A0,0 0 0 0 819,497 " fill="#FBFB77" style="stroke: #A80036; stroke-width: 1.0;"/><path d="M1053,497 L1053,507 L1063,507 L1053,497 " fill="#FBFB77" style="stroke: #A80036; stroke-width: 1.0;"/><text fill="#000000" font-family="sans-serif" font-size="13" lengthAdjust="spacingAndGlyphs" textLength="186" x="825" y="515.4951">XYZCommand = NewCommand,</text><text fill="#000000" font-family="sans-serif" font-size="13" lengthAdjust="spacingAndGlyphs" textLength="223" x="825" y="531.8467">ModifyCommand, DeleteCommand etc</text><!--MD5=[f287eff34db650aad88860d6e0e6d9fb]
link HiddenOutside to Logic--><path d="M631,32.198 C631,50.179 631,85.885 631,109.736 " fill="none" id="HiddenOutside-&gt;Logic" style="stroke: #101086; stroke-width: 1.1; stroke-dasharray: 7.0,7.0;"/><polygon fill="#101086" points="631,114.931,635,105.931,631,109.931,627,105.931,631,114.931" style="stroke: #101086; stroke-width: 1.1;"/><!--MD5=[bf82750ea579186b360cc57c11579602]
reverse link Logic to LogicManager--><path d="M605.797,170.504 C589.366,193.324 568.998,221.614 557.981,236.915 " fill="none" id="Logic&lt;-LogicManager" style="stroke: #101086; stroke-width: 1.1; stroke-dasharray: 7.0,7.0;"/><polygon fill="none" points="600.258,166.218,617.624,154.077,611.619,174.398,600.258,166.218" style="stroke: #101086; stroke-width: 1.1;"/><!--MD5=[7737253ee3aa49a9201ae19a1d4c0b0e]
link LogicManager to RecipeBookParser--><path d="M546.371,261.001 C543.84,269.179 540.634,280.663 539,291 C534.547,319.165 533.795,352.445 533.798,371.793 " fill="none" id="LogicManager-&gt;RecipeBookParser" style="stroke: #101086; stroke-width: 1.1;"/><polygon fill="#101086" points="533.816,376.865,537.7825,367.8502,533.7974,371.865,529.7826,367.8799,533.816,376.865" style="stroke: #101086; stroke-width: 1.1;"/><text fill="#000000" font-family="sans-serif" font-size="13" lengthAdjust="spacingAndGlyphs" textLength="7" x="525.2964" y="366.1684">1</text><!--MD5=[0a47a07c4dcd7f6c53a0d524e85f5a1e]
reverse link XYZCommandParser to RecipeBookParser--><path d="M391.773,389 C419.88,389 452.192,389 478.908,389 " fill="none" id="XYZCommandParser&lt;-RecipeBookParser" style="stroke: #101086; stroke-width: 1.1; stroke-dasharray: 7.0,7.0;"/><polygon fill="#101086" points="386.576,389,395.576,393,391.576,389,395.576,385,386.576,389" style="stroke: #101086; stroke-width: 1.1;"/><polygon fill="#000000" points="411.75,375.6758,405.75,378.6758,411.75,381.6758,411.75,375.6758" style="stroke: #000000; stroke-width: 1.0;"/><text fill="#000000" font-family="sans-serif" font-size="13" lengthAdjust="spacingAndGlyphs" textLength="43" x="417.75" y="382.4951">creates</text><!--MD5=[d27984addfc542d1d1be725c2279ae44]
link XYZCommandParser to XYZCommand--><path d="M352.668,401.02 C380.006,411.756 423.112,428.274 461,441 C534.532,465.698 621.219,490.654 672.786,505.069 " fill="none" id="XYZCommandParser-&gt;XYZCommand" style="stroke: #101086; stroke-width: 1.1; stroke-dasharray: 7.0,7.0;"/><polygon fill="#101086" points="677.665,506.431,670.0719,500.1585,672.8491,505.0867,667.9209,507.8639,677.665,506.431" style="stroke: #101086; stroke-width: 1.1;"/><text fill="#000000" font-family="sans-serif" font-size="13" lengthAdjust="spacingAndGlyphs" textLength="43" x="540" y="463.4951">creates</text><polygon fill="#000000" points="586,456.6758,592,459.6758,586,462.6758,586,456.6758" style="stroke: #000000; stroke-width: 1.0;"/><!--MD5=[702466f3e8e49f769f4f3a4febda25fe]
link XYZCommandParser to Parser--><path d="M346.575,401.092 C385.599,421.155 468.86,463.96 522.812,491.697 " fill="none" id="XYZCommandParser-&gt;Parser" style="stroke: #101086; stroke-width: 1.1; stroke-dasharray: 7.0,7.0;"/><polygon fill="none" points="526.303,485.621,540.889,500.991,519.901,498.072,526.303,485.621" style="stroke: #101086; stroke-width: 1.1;"/><!--MD5=[7704627926244de72f7ef2eb6defa245]
link XYZCommandParser to ArgumentMultimap--><path d="M323.136,401.315 C319.407,423.96 311.012,474.929 306.687,501.184 " fill="none" id="XYZCommandParser-&gt;ArgumentMultimap" style="stroke: #101086; stroke-width: 1.1; stroke-dasharray: 7.0,7.0;"/><polygon fill="#101086" points="305.829,506.393,311.2387,498.1629,306.6417,501.4595,303.3451,496.8625,305.829,506.393" style="stroke: #101086; stroke-width: 1.1;"/><!--MD5=[3e460ee2718e2446fc84ab0c879fd975]
link XYZCommandParser to ArgumentTokenizer--><path d="M336.093,401.315 C358.759,424.434 410.366,477.074 435.587,502.799 " fill="none" id="XYZCommandParser-&gt;ArgumentTokenizer" style="stroke: #101086; stroke-width: 1.1; stroke-dasharray: 7.0,7.0;"/><polygon fill="#101086" points="439.11,506.393,435.6675,497.1654,435.6104,502.8219,429.9538,502.7648,439.11,506.393" style="stroke: #101086; stroke-width: 1.1;"/><!--MD5=[744126052430dceb43a1fc87b0afff3a]
reverse link ArgumentMultimap to ArgumentTokenizer--><path d="M363.935,518.5 C373.851,518.5 383.766,518.5 393.682,518.5 " fill="none" id="ArgumentMultimap&lt;-ArgumentTokenizer" style="stroke: #101086; stroke-width: 1.1; stroke-dasharray: 7.0,7.0;"/><polygon fill="#101086" points="358.75,518.5,367.75,522.5,363.75,518.5,367.75,514.5,358.75,518.5" style="stroke: #101086; stroke-width: 1.1;"/><!--MD5=[57b8f0a03f5f0a08076cf01ef235fbd0]
link XYZCommandParser to CliSyntax--><path d="M304.556,401.092 C261.588,424.404 162.022,478.424 115.197,503.829 " fill="none" id="XYZCommandParser-&gt;CliSyntax" style="stroke: #101086; stroke-width: 1.1; stroke-dasharray: 7.0,7.0;"/><polygon fill="#101086" points="110.564,506.343,120.3823,505.568,114.9591,503.9591,116.568,498.5358,110.564,506.343" style="stroke: #101086; stroke-width: 1.1;"/><!--MD5=[46bd36fa196b2102764e4db65e78a96e]
link CliSyntax to Prefix--><path d="M101.5262,530.842 C118.532,547.576 150.35,578.887 169.105,597.3423 " fill="none" id="CliSyntax-&gt;Prefix" style="stroke: #101086; stroke-width: 1.1; stroke-dasharray: 7.0,7.0;"/><polygon fill="#101086" points="172.673,600.8538,169.0639,591.6901,169.1092,597.3467,163.4526,597.3921,172.673,600.8538" style="stroke: #101086; stroke-width: 1.1;"/><!--MD5=[23dc644bd6e395904f7fbc7f95585d62]
link XYZCommandParser to ParserUtil--><path d="M312.487,401.315 C286.92,424.434 228.707,477.074 200.257,502.799 " fill="none" id="XYZCommandParser-&gt;ParserUtil" style="stroke: #101086; stroke-width: 1.1; stroke-dasharray: 7.0,7.0;"/><polygon fill="#101086" points="196.283,506.393,205.641,503.3224,199.9912,503.039,200.2746,497.3893,196.283,506.393" style="stroke: #101086; stroke-width: 1.1;"/><!--MD5=[0e7e27ed237fb40dcd22197309d5f712]
link ParserUtil to Prefix--><path d="M184,530.842 C184,547.019 184,576.816 184,595.4549 " fill="none" id="ParserUtil-&gt;Prefix" style="stroke: #101086; stroke-width: 1.1; stroke-dasharray: 7.0,7.0;"/><polygon fill="#101086" points="184,600.8538,188,591.8538,184,595.8538,180,591.8538,184,600.8538" style="stroke: #101086; stroke-width: 1.1;"/><!--MD5=[5a965c56be27e54f1a55401a0d6400e9]
link ArgumentTokenizer to Prefix--><path d="M428.679,530.636 C414.093,537.992 394.178,547.525 376,554.5 C320.037,575.974 252.451,594.5842 214.225,604.4613 " fill="none" id="ArgumentTokenizer-&gt;Prefix" style="stroke: #101086; stroke-width: 1.1; stroke-dasharray: 7.0,7.0;"/><polygon fill="#101086" points="209.257,605.7384,218.9693,607.3728,214.0997,604.4941,216.9784,599.6245,209.257,605.7384" style="stroke: #101086; stroke-width: 1.1;"/><!--MD5=[520da0335c5a8803876f267d9ec2ad91]
reverse link Command to XYZCommand--><path d="M718,428.595 C718,455.392 718,489.252 718,506.424 " fill="none" id="Command&lt;-XYZCommand" style="stroke: #101086; stroke-width: 1.1;"/><polygon fill="none" points="711,428.268,718,408.268,725,428.268,711,428.268" style="stroke: #101086; stroke-width: 1.1;"/><!--MD5=[a9e1a5717f5f63af61c3019fdb5e4d29]
reverse link Command to LogicManager--><path d="M691.579,366.297 C655.25,336.455 591.223,283.862 563.464,261.06 " fill="none" id="Command&lt;-LogicManager" style="stroke: #101086; stroke-width: 1.1; stroke-dasharray: 7.0,7.0;"/><polygon fill="#101086" points="695.868,369.82,691.4541,361.0156,692.005,366.6456,686.375,367.1965,695.868,369.82" style="stroke: #101086; stroke-width: 1.1;"/><text fill="#000000" font-family="sans-serif" font-size="13" lengthAdjust="spacingAndGlyphs" textLength="53" x="620" y="305.4951">executes</text><polygon fill="#000000" points="676,298.6758,682,301.6758,676,304.6758,676,298.6758" style="stroke: #000000; stroke-width: 1.0;"/><!--MD5=[583ed1d0c45772f950f62e8f2bec1df7]
link LogicManager to Model--><path d="M592.22,255.089 C640.542,262.482 720.536,279.635 779,317 C796.339,328.0815 811.8965,345.0858 823.3303,359.6751 C826.1887,363.3225 828.7894,366.8189 831.0958,370.0341 C832.2489,371.6417 833.3285,373.179 834.33,374.6297 C834.4552,374.8111 834.5791,374.991 834.7019,375.1696 C834.7632,375.2589 834.8243,375.3479 834.885,375.4365 " fill="none" id="LogicManager-&gt;Model" style="stroke: #101086; stroke-width: 1.1;"/><polygon fill="#101086" points="834.885,375.4365,833.0949,365.7517,832.0577,371.3127,826.4967,370.2755,834.885,375.4365" style="stroke: #101086; stroke-width: 1.1;"/><!--MD5=[bfa7276062558292ff251f85fbc261be]
link Command to Model--><path d="M750.715,389 C766.0355,389 781.3563,389 796.6771,389 C804.3376,389 811.998,389 819.6585,389 C823.4888,389 827.319,389 831.1493,389 C832.1068,389 833.0644,389 834.0219,389 C834.2613,389 834.5007,389 834.7401,389 " fill="none" id="Command-&gt;Model" style="stroke: #101086; stroke-width: 1.1; stroke-dasharray: 7.0,7.0;"/><polygon fill="#101086" points="834.7401,389,825.7401,385,829.7401,389,825.7401,393,834.7401,389" style="stroke: #101086; stroke-width: 1.1;"/><!--MD5=[e956d43f58f30a24ce78a60af954e307]
link Logic to CommandResult--><path d="M644.376,154.077 C660.233,176.101 686.357,212.385 701.062,232.808 " fill="none" id="Logic-&gt;CommandResult" style="stroke: #101086; stroke-width: 1.1; stroke-dasharray: 7.0,7.0;"/><polygon fill="#101086" points="704.019,236.915,702.0059,227.2741,701.0973,232.8575,695.5139,231.9488,704.019,236.915" style="stroke: #101086; stroke-width: 1.1;"/><!--MD5=[326ab9d23d3e7b599e2005f3db29a5f7]
link LogicManager to CommandResult--><path d="M592.082,249 C613.476,249 634.87,249 656.264,249 " fill="none" id="LogicManager-&gt;CommandResult" style="stroke: #101086; stroke-width: 1.1; stroke-dasharray: 7.0,7.0;"/><polygon fill="#101086" points="661.41,249,652.41,245,656.41,249,652.41,253,661.41,249" style="stroke: #101086; stroke-width: 1.1;"/><!--MD5=[a534c61ae9dd17e311f1526c83ae047b]
reverse link CommandResult to Command--><path d="M712.715,266.441 C713.842,292.373 716.026,342.6 717.203,369.664 " fill="none" id="CommandResult&lt;-Command" style="stroke: #101086; stroke-width: 1.1; stroke-dasharray: 7.0,7.0;"/><polygon fill="#101086" points="712.491,261.293,708.8856,270.4582,712.7081,266.2883,716.8781,270.1108,712.491,261.293" style="stroke: #101086; stroke-width: 1.1;"/><!--MD5=[2d154d433063f730ad198fff046fbabd]
link CommandResult to Parser--><!--MD5=[685d6095f2949b2ca69a9cea415ac410]
@startuml LogicClassDiagram








skinparam BackgroundColor #FFFFFFF

skinparam Shadowing false

skinparam Class {
    FontColor #FFFFFF
    BorderThickness 1
    BorderColor #FFFFFF
    StereotypeFontColor #FFFFFF
    FontName Arial
}

skinparam Actor {
    BorderColor #000000
    Color #000000
    FontName Arial
}

skinparam Sequence {
    MessageAlign center
    BoxFontSize 15
    BoxPadding 0
    BoxFontColor #FFFFFF
    FontName Arial
}

skinparam Participant {
    FontColor #FFFFFFF
    Padding 20
}

skinparam MinClassWidth 50
skinparam ParticipantPadding 10
skinparam Shadowing false
skinparam DefaultTextAlignment center
skinparam packageStyle Rectangle

hide footbox
hide members
hide circle
skinparam arrowThickness 1.1
skinparam arrowColor #101086
skinparam classBackgroundColor #3333C4

package Logic {

package Parser {
Interface Parser <<Interface>>
Class RecipeBookParser
Class XYZCommandParser
Class CliSyntax
Class ParserUtil
Class ArgumentMultimap
Class ArgumentTokenizer
Class Prefix
}

package Command {
Class XYZCommand
Class CommandResult
Class "{abstract}\nCommand" as Command
}

Interface Logic <<Interface>>
Class LogicManager
}

package Model{
Class HiddenModel #FFFFFF
}

Class HiddenOutside #FFFFFF
HiddenOutside ..> Logic

LogicManager .up.|> Logic
LogicManager - ->"1" RecipeBookParser
RecipeBookParser .left.> XYZCommandParser: creates >

XYZCommandParser ..> XYZCommand : creates >
XYZCommandParser ..|> Parser
XYZCommandParser ..> ArgumentMultimap
XYZCommandParser ..> ArgumentTokenizer
ArgumentTokenizer .left.> ArgumentMultimap
XYZCommandParser ..> CliSyntax
CliSyntax ..> Prefix
XYZCommandParser ..> ParserUtil
ParserUtil .down.> Prefix
ArgumentTokenizer .down.> Prefix
XYZCommand -up-|> Command
LogicManager .left.> Command : executes >

LogicManager - -> Model
Command .right.> Model
note right of XYZCommand: XYZCommand = NewCommand,\nModifyCommand, DeleteCommand etc

Logic ..> CommandResult
LogicManager .down.> CommandResult
Command .up.> CommandResult
CommandResult -[hidden]-> Parser
@enduml

PlantUML version 1.2020.03beta6(Unknown compile time)
(GPL source distribution)
Java Runtime: OpenJDK Runtime Environment
JVM: OpenJDK 64-Bit Server VM
Java Version: 11.0.6+8-b770.9
Operating System: Windows 10
Default Encoding: Cp1252
Language: en
Country: SG
--></g></svg>
