<?xml version="1.0" encoding="UTF-8" standalone="no"?><svg xmlns="http://www.w3.org/2000/svg" xmlns:xlink="http://www.w3.org/1999/xlink" contentScriptType="application/ecmascript" contentStyleType="text/css" height="700px" preserveAspectRatio="none" style="width:438px;height:700px;" version="1.1" viewBox="0 0 438 700" width="438px" zoomAndPan="magnify"><defs/><g><!--MD5=[15636c1ca4a123c16a2a1a8e90aca7a9]
cluster Model--><rect fill="#FFFFFF" height="610" style="stroke: #000000; stroke-width: 1.5;" width="405" x="22" y="79"/><text fill="#000000" font-family="sans-serif" font-size="14" font-weight="bold" lengthAdjust="spacingAndGlyphs" textLength="47" x="201" y="93.9951">Model</text><!--MD5=[a88a92b9ad7f1df35ef861db036bec5e]
cluster Recipe--><rect fill="#FFFFFF" height="266" style="stroke: #000000; stroke-width: 1.5;" width="227" x="70" y="399"/><text fill="#000000" font-family="sans-serif" font-size="14" font-weight="bold" lengthAdjust="spacingAndGlyphs" textLength="53" x="157" y="413.9951">Recipe</text><!--MD5=[565f50dc830de045365c575a6a060834]
cluster Tag--><rect fill="#FFFFFF" height="75" style="stroke: #000000; stroke-width: 1.5;" width="82" x="321" y="590"/><text fill="#000000" font-family="sans-serif" font-size="14" font-weight="bold" lengthAdjust="spacingAndGlyphs" textLength="29" x="347.5" y="604.9951">Tag</text><!--MD5=[7db9adc9de0d7ede4a02693692151135]
class ReadOnlyRecipeBook--><rect fill="#9D0012" height="37.9375" id="ReadOnlyRecipeBook" style="stroke: #FFFFFF; stroke-width: 1.0;" width="137" x="38.5" y="213"/><text fill="#FFFFFF" font-family="sans-serif" font-size="12" font-style="italic" lengthAdjust="spacingAndGlyphs" textLength="71" x="71.5" y="229.1387">«Interface»</text><text fill="#FFFFFF" font-family="Arial" font-size="12" lengthAdjust="spacingAndGlyphs" textLength="131" x="41.5" y="243.1074">ReadOnlyRecipeBook</text><!--MD5=[7e20e022571e30ec1001cf6eabd7f3e2]
class Model--><rect fill="#9D0012" height="37.9375" id="Model" style="stroke: #FFFFFF; stroke-width: 1.0;" width="73" x="207.5" y="114"/><text fill="#FFFFFF" font-family="sans-serif" font-size="12" font-style="italic" lengthAdjust="spacingAndGlyphs" textLength="71" x="208.5" y="130.1387">«Interface»</text><text fill="#FFFFFF" font-family="Arial" font-size="12" lengthAdjust="spacingAndGlyphs" textLength="37" x="225.5" y="144.1074">Model</text><!--MD5=[113df03bb65a4006fb91ed3fb77b6ec1]
class ObservableList--><rect fill="#9D0012" height="37.9375" id="ObservableList" style="stroke: #FFFFFF; stroke-width: 1.0;" width="95" x="315.5" y="114"/><text fill="#FFFFFF" font-family="sans-serif" font-size="12" font-style="italic" lengthAdjust="spacingAndGlyphs" textLength="71" x="327.5" y="130.1387">«Interface»</text><text fill="#FFFFFF" font-family="Arial" font-size="12" font-style="italic" lengthAdjust="spacingAndGlyphs" textLength="89" x="318.5" y="144.1074">ObservableList</text><!--MD5=[05f5fba1ff83d42873626e04b4b84faa]
class RecipeBook--><rect fill="#9D0012" height="23.9688" id="RecipeBook" style="stroke: #FFFFFF; stroke-width: 1.0;" width="79" x="103.5" y="312"/><text fill="#FFFFFF" font-family="Arial" font-size="12" lengthAdjust="spacingAndGlyphs" textLength="73" x="106.5" y="328.1387">RecipeBook</text><!--MD5=[0d23c233efb60477cf7e578633a93a45]
class ModelManager--><rect fill="#9D0012" height="23.9688" id="ModelManager" style="stroke: #FFFFFF; stroke-width: 1.0;" width="98" x="313" y="220"/><text fill="#FFFFFF" font-family="Arial" font-size="12" lengthAdjust="spacingAndGlyphs" textLength="92" x="316" y="236.1387">ModelManager</text><!--MD5=[8d0026c7984aa4cd1b21c0238fc19d6b]
class UserPrefs--><rect fill="#9D0012" height="23.9688" id="UserPrefs" style="stroke: #FFFFFF; stroke-width: 1.0;" width="67" x="210.5" y="220"/><text fill="#FFFFFF" font-family="Arial" font-size="12" lengthAdjust="spacingAndGlyphs" textLength="61" x="213.5" y="236.1387">UserPrefs</text><!--MD5=[a832290d741b8e569f0b0a043ed40841]
class ReadOnlyUserPrefs--><rect fill="#9D0012" height="23.9688" id="ReadOnlyUserPrefs" style="stroke: #FFFFFF; stroke-width: 1.0;" width="125" x="47.5" y="121"/><text fill="#FFFFFF" font-family="Arial" font-size="12" lengthAdjust="spacingAndGlyphs" textLength="119" x="50.5" y="137.1387">ReadOnlyUserPrefs</text><!--MD5=[20418cb98520644da1e87dc0310aa74a]
class Recipe--><rect fill="#9D0012" height="23.9688" id="Recipe" style="stroke: #FFFFFF; stroke-width: 1.0;" width="50" x="86" y="519"/><text fill="#FFFFFF" font-family="Arial" font-size="12" lengthAdjust="spacingAndGlyphs" textLength="42" x="90" y="535.1387">Recipe</text><!--MD5=[3cdd5f167b4e8ffc8048a8d8c666fa85]
class IngredientList--><rect fill="#9D0012" height="23.9688" id="IngredientList" style="stroke: #FFFFFF; stroke-width: 1.0;" width="91" x="189.5" y="519"/><text fill="#FFFFFF" font-family="Arial" font-size="12" lengthAdjust="spacingAndGlyphs" textLength="85" x="192.5" y="535.1387">IngredientList</text><!--MD5=[53f6a92bd21ca2f2960392a061f3a1c6]
class Name--><rect fill="#9D0012" height="23.9688" id="Name" style="stroke: #FFFFFF; stroke-width: 1.0;" width="50" x="86" y="625"/><text fill="#FFFFFF" font-family="Arial" font-size="12" lengthAdjust="spacingAndGlyphs" textLength="36" x="93" y="641.1387">Name</text><!--MD5=[0ff7f33fb4cfaccd6bcebc094e3b238f]
class InstructionList--><rect fill="#9D0012" height="23.9688" id="InstructionList" style="stroke: #FFFFFF; stroke-width: 1.0;" width="94" x="171" y="625"/><text fill="#FFFFFF" font-family="Arial" font-size="12" lengthAdjust="spacingAndGlyphs" textLength="88" x="174" y="641.1387">InstructionList</text><!--MD5=[0db0c73c8eed4bdf2e92c941cd0ea335]
class UniqueRecipeList--><rect fill="#9D0012" height="23.9688" id="UniqueRecipeList" style="stroke: #FFFFFF; stroke-width: 1.0;" width="113" x="86.5" y="434"/><text fill="#FFFFFF" font-family="Arial" font-size="12" lengthAdjust="spacingAndGlyphs" textLength="107" x="89.5" y="450.1387">UniqueRecipeList</text><!--MD5=[39d6d2ea03de602dbf4d534e70c872a9]
class Tag--><rect fill="#9D0012" height="23.9688" id="Tag" style="stroke: #FFFFFF; stroke-width: 1.0;" width="50" x="337" y="625"/><text fill="#FFFFFF" font-family="Arial" font-size="12" lengthAdjust="spacingAndGlyphs" textLength="23" x="350.5" y="641.1387">Tag</text><!--MD5=[f8dc820cca8808bdb695301f77a92b66]
class HiddenOutside--><rect fill="#FFFFFF" height="23.9688" id="HiddenOutside" style="stroke: #FFFFFF; stroke-width: 1.0;" width="98" x="195" y="8"/><rect fill="#FFFFFF" height="23.9688" style="stroke: #FFFFFF; stroke-width: 1.0;" width="98" x="195" y="8"/><text fill="#FFFFFF" font-family="Arial" font-size="12" lengthAdjust="spacingAndGlyphs" textLength="92" x="198" y="24.1387">HiddenOutside</text><!--MD5=[d201fe284d2a1152149acb90a3e86885]
link HiddenOutside to Model--><path d="M244,32.049 C244,49.79 244,85.02 244,108.552 " fill="none" id="HiddenOutside-&gt;Model" style="stroke: #9D0012; stroke-width: 1.1; stroke-dasharray: 7.0,7.0;"/><polygon fill="#9D0012" points="244,113.678,248,104.678,244,108.678,240,104.678,244,113.678" style="stroke: #9D0012; stroke-width: 1.1;"/><!--MD5=[bea5a4238804ca47c4395317d24ff2a6]
reverse link ReadOnlyRecipeBook to RecipeBook--><path d="M121.713,269.783 C127.773,284.933 134.348,301.369 138.562,311.905 " fill="none" id="ReadOnlyRecipeBook&lt;-RecipeBook" style="stroke: #9D0012; stroke-width: 1.1; stroke-dasharray: 7.0,7.0;"/><polygon fill="none" points="115.214,272.382,114.285,251.213,128.212,267.183,115.214,272.382" style="stroke: #9D0012; stroke-width: 1.1;"/><!--MD5=[b88a9fc704bcaab99a71844113667eb4]
reverse link Model to ModelManager--><path d="M281.411,164.753 C304.225,183.507 332.035,206.368 348.304,219.742 " fill="none" id="Model&lt;-ModelManager" style="stroke: #9D0012; stroke-width: 1.1; stroke-dasharray: 7.0,7.0;"/><polygon fill="none" points="276.923,170.126,265.918,152.018,285.813,159.311,276.923,170.126" style="stroke: #9D0012; stroke-width: 1.1;"/><!--MD5=[5544fbbf5edcd033443c011d9df48be8]
link Model to ObservableList--><path d="M280.723,133 C290.575,133 300.428,133 310.281,133 " fill="none" id="Model-&gt;ObservableList" style="stroke: #9D0012; stroke-width: 1.1; stroke-dasharray: 7.0,7.0;"/><polygon fill="#9D0012" points="315.433,133,306.433,129,310.433,133,306.433,137,315.433,133" style="stroke: #9D0012; stroke-width: 1.1;"/><!--MD5=[8038e36fb092ee0bb3c83cc743592715]
link ModelManager to RecipeBook--><path d="M324.0467,248.5973 C324.0467,248.5973 221.958,290.551 182.18,306.899 " fill="none" id="ModelManager-RecipeBook" style="stroke: #9D0012; stroke-width: 1.1;"/><polygon fill="#9D0012" points="170.073,311.874,179.9179,312.1528,174.6977,309.9735,176.877,304.7533,170.073,311.874" style="stroke: #9D0012; stroke-width: 1.1;"/><line style="stroke: #9D0012; stroke-width: 1.1;" x1="174.6977" x2="182.0975" y1="309.9735" y2="306.9325"/><polygon fill="#FFFFFF" points="335.146,244.036,328.0759,242.6169,324.0467,248.5973,331.1168,250.0164,335.146,244.036" style="stroke: #9D0012; stroke-width: 1.1;"/><text fill="#000000" font-family="sans-serif" font-size="13" lengthAdjust="spacingAndGlyphs" textLength="8" x="171.5906" y="300.879">1</text><!--MD5=[8a7bd34f39a85d86f43d3dfea0b77dfc]
link UserPrefs to ModelManager--><path d="M290.87,232 C293.853,232 300.905,232 300.905,232 " fill="none" id="UserPrefs-ModelManager" style="stroke: #9D0012; stroke-width: 1.1;"/><polygon fill="#FFFFFF" points="312.905,232,306.905,228,300.905,232,306.905,236,312.905,232" style="stroke: #9D0012; stroke-width: 1.1;"/><polygon fill="#9D0012" points="277.648,232,286.648,236,282.648,232,286.648,228,277.648,232" style="stroke: #9D0012; stroke-width: 1.1;"/><line style="stroke: #9D0012; stroke-width: 1.1;" x1="282.648" x2="290.648" y1="232" y2="232"/><text fill="#000000" font-family="sans-serif" font-size="13" lengthAdjust="spacingAndGlyphs" textLength="8" x="285.4129" y="227.5369">1</text><!--MD5=[69497c261184ae79c34a503b1c31ce5d]
reverse link ReadOnlyUserPrefs to UserPrefs--><path d="M141.817,157.032 C169.111,176.789 207.278,204.418 228.395,219.704 " fill="none" id="ReadOnlyUserPrefs&lt;-UserPrefs" style="stroke: #9D0012; stroke-width: 1.1; stroke-dasharray: 7.0,7.0;"/><polygon fill="none" points="137.468,162.525,125.372,145.127,145.677,151.184,137.468,162.525" style="stroke: #9D0012; stroke-width: 1.1;"/><!--MD5=[399a5d3003824dd2aaed60fba5076426]
link RecipeBook to UniqueRecipeList--><path d="M143,348.074 C143,348.074 143,399.92 143,420.675 " fill="none" id="RecipeBook-UniqueRecipeList" style="stroke: #9D0012; stroke-width: 1.1;"/><polygon fill="#9D0012" points="143,433.953,147,424.953,143,428.953,139,424.953,143,433.953" style="stroke: #9D0012; stroke-width: 1.1;"/><line style="stroke: #9D0012; stroke-width: 1.1;" x1="143" x2="143" y1="428.953" y2="420.953"/><polygon fill="#9D0012" points="143,336.074,139,342.074,143,348.074,147,342.074,143,336.074" style="stroke: #9D0012; stroke-width: 1.1;"/><text fill="#000000" font-family="sans-serif" font-size="13" lengthAdjust="spacingAndGlyphs" textLength="8" x="133.35" y="422.9906">1</text><!--MD5=[016354eeaf1f2cf03d6b4aa43f02fce5]
link UniqueRecipeList to Recipe--><path d="M134.3679,469.3909 C134.3679,469.3909 124.319,495.453 119.991,506.68 " fill="none" id="UniqueRecipeList-Recipe" style="stroke: #9D0012; stroke-width: 1.1;"/><polygon fill="#9D0012" points="115.247,518.984,122.2171,512.0257,117.0458,514.3188,114.7527,509.1476,115.247,518.984" style="stroke: #9D0012; stroke-width: 1.1;"/><line style="stroke: #9D0012; stroke-width: 1.1;" x1="117.0458" x2="119.9235" y1="514.3188" y2="506.854"/><polygon fill="#FFFFFF" points="138.684,458.194,132.7937,462.3538,134.3679,469.3909,140.2583,465.2312,138.684,458.194" style="stroke: #9D0012; stroke-width: 1.1;"/><text fill="#000000" font-family="sans-serif" font-size="13" lengthAdjust="spacingAndGlyphs" textLength="7" x="108.5551" y="508.0344">*</text><!--MD5=[b238b3902e04b6fb0dff70774213bdd8]
link Recipe to Name--><path d="M111,555.13 C111,555.13 111,595.077 111,611.7228 " fill="none" id="Recipe-Name" style="stroke: #9D0012; stroke-width: 1.1;"/><polygon fill="#9D0012" points="111,624.9502,115,615.9502,111,619.9502,107,615.9502,111,624.9502" style="stroke: #9D0012; stroke-width: 1.1;"/><line style="stroke: #9D0012; stroke-width: 1.1;" x1="111" x2="111" y1="619.9502" y2="611.9502"/><polygon fill="#9D0012" points="111,543.13,107,549.13,111,555.13,115,549.13,111,543.13" style="stroke: #9D0012; stroke-width: 1.1;"/><!--MD5=[17d950f7a9a09a742b3342499805a664]
link Recipe to InstructionList--><path d="M121.7269,552.4727 C121.7269,552.4727 166.124,598.686 187.93,616.6677 " fill="none" id="Recipe-InstructionList" style="stroke: #9D0012; stroke-width: 1.1;"/><polygon fill="#9D0012" points="198.4,624.9502,193.8233,616.2293,194.4787,621.8481,188.8599,622.5034,198.4,624.9502" style="stroke: #9D0012; stroke-width: 1.1;"/><line style="stroke: #9D0012; stroke-width: 1.1;" x1="194.4787" x2="188.205" y1="621.8481" y2="616.8848"/><polygon fill="#9D0012" points="114.196,543.13,114.8472,550.3116,121.7269,552.4727,121.0757,545.2911,114.196,543.13" style="stroke: #9D0012; stroke-width: 1.1;"/><!--MD5=[2ae02f12b4af88c0bc80a3222ab982f6]
link InstructionList to Recipe--><!--MD5=[1ffc9816fa0c2433efc0ee7e42589584]
link Recipe to IngredientList--><path d="M148.0685,538.5161 C148.0685,538.5161 167.168,540.112 176.209,539.976 " fill="none" id="Recipe-IngredientList" style="stroke: #9D0012; stroke-width: 1.1;"/><polygon fill="#9D0012" points="189.454,539.366,180.2794,535.7847,184.4593,539.5962,180.6477,543.7762,189.454,539.366" style="stroke: #9D0012; stroke-width: 1.1;"/><line style="stroke: #9D0012; stroke-width: 1.1;" x1="184.4593" x2="176.4675" y1="539.5962" y2="539.964"/><polygon fill="#9D0012" points="136.188,536.827,141.5652,541.6317,148.0685,538.5161,142.6913,533.7114,136.188,536.827" style="stroke: #9D0012; stroke-width: 1.1;"/><!--MD5=[1ffc9816fa0c2433efc0ee7e42589584]
link Recipe to IngredientList--><!--MD5=[19c7872daf13b60238031a647b7e7832]
link Recipe to Recipe--><path d="M148.2579,523.2004 C148.2579,523.2004 171,525.886 171,531 C171,536.114 161.511,538.737 149.465,538.87 " fill="none" id="Recipe-Recipe" style="stroke: #9D0012; stroke-width: 1.1;"/><polygon fill="#9D0012" points="136.278,538.106,145.0317,542.6195,141.2696,538.395,145.4942,534.6329,136.278,538.106" style="stroke: #9D0012; stroke-width: 1.1;"/><line style="stroke: #9D0012; stroke-width: 1.1;" x1="141.2696" x2="149.256" y1="538.395" y2="538.8575"/><polygon fill="#9D0012" points="136.278,523.894,142.4992,527.5405,148.2579,523.2004,142.0368,519.5539,136.278,523.894" style="stroke: #9D0012; stroke-width: 1.1;"/><!--MD5=[aab071f6e496da150eb1924ca162ae57]
link Recipe to Tag--><path d="M147.808,539.929 C147.808,539.929 271.327,568.702 297,582 C313.726,590.663 330.024,604.219 342.117,615.5815 " fill="none" id="Recipe-Tag" style="stroke: #9D0012; stroke-width: 1.1;"/><polygon fill="#9D0012" points="351.566,624.8234,347.9281,615.671,347.9912,621.3275,342.3347,621.3907,351.566,624.8234" style="stroke: #9D0012; stroke-width: 1.1;"/><line style="stroke: #9D0012; stroke-width: 1.1;" x1="347.9912" x2="342.272" y1="621.3275" y2="615.7335"/><polygon fill="#9D0012" points="136.09,537.343,141.087,542.542,147.808,539.929,142.811,534.73,136.09,537.343" style="stroke: #9D0012; stroke-width: 1.1;"/><text fill="#000000" font-family="sans-serif" font-size="13" lengthAdjust="spacingAndGlyphs" textLength="7" x="338.8182" y="613.8075">*</text><!--MD5=[71cd868474e9a9f1c454a66b4020a81e]
link Name to InstructionList--><!--MD5=[f9d40165887b8070da6c12037e71cb66]
link ModelManager to Recipe--><path d="M356.721,244.407 C340.095,279.462 285.816,387.498 217,458 C193.108,482.477 159.68,503.523 136.788,516.431 " fill="none" id="ModelManager-&gt;Recipe" style="stroke: #9D0012; stroke-width: 1.1;"/><polygon fill="#9D0012" points="132.356,518.903,142.1647,518.015,136.7233,516.4686,138.2697,511.0272,132.356,518.903" style="stroke: #9D0012; stroke-width: 1.1;"/><text fill="#000000" font-family="sans-serif" font-size="13" lengthAdjust="spacingAndGlyphs" textLength="66" x="289" y="379.0669">filtered list</text><text fill="#000000" font-family="sans-serif" font-size="13" lengthAdjust="spacingAndGlyphs" textLength="8" x="131.5154" y="507.92">1</text><!--MD5=[9ef666bef241c048107af5f1f784721a]
@startuml








skinparam BackgroundColor #FFFFFFF

skinparam Shadowing false

skinparam Class {
    FontColor #FFFFFF
    BorderThickness 1
    BorderColor #FFFFFF
    StereotypeFontColor #FFFFFF
    FontName Arial
}

skinparam Actor {
    BorderColor #000000
    Color #000000
    FontName Arial
}

skinparam Sequence {
    MessageAlign center
    BoxFontSize 15
    BoxPadding 0
    BoxFontColor #FFFFFF
    FontName Arial
}

skinparam Participant {
    FontColor #FFFFFFF
    Padding 20
}

skinparam MinClassWidth 50
skinparam ParticipantPadding 10
skinparam Shadowing false
skinparam DefaultTextAlignment center
skinparam packageStyle Rectangle

hide footbox
hide members
hide circle

skinparam arrowThickness 1.1
skinparam arrowColor #9D0012
skinparam classBackgroundColor #9D0012

Package Model <<Rectangle>>{
Interface ReadOnlyRecipeBook <<Interface>>
Interface Model <<Interface>>
Interface ObservableList <<Interface>>
Class RecipeBook
Class ReadOnlyRecipeBook
Class Model
Class ModelManager
Class UserPrefs
Class ReadOnlyUserPrefs

Package Recipe {
Class Recipe
Class Recipe
Class IngredientList
Class Name
Class InstructionList
Class UniqueRecipeList
}

Package Tag {
Class Tag
}
}

Class HiddenOutside #FFFFFF
HiddenOutside ..> Model

RecipeBook .up.|> ReadOnlyRecipeBook

ModelManager .up.|> Model
Model .right.> ObservableList
ModelManager o- -> "1" RecipeBook
ModelManager o-left-> "1" UserPrefs
UserPrefs .up.|> ReadOnlyUserPrefs

RecipeBook *- -> "1" UniqueRecipeList
UniqueRecipeList o- -> "*" Recipe
Recipe *- -> Name
Recipe *- -> InstructionList
Recipe *- -> IngredientList
Recipe *- -> Recipe
Recipe *- -> "*" Tag

Name -[hidden]right-> InstructionList
InstructionList -[hidden]right-> Recipe
Recipe -[hidden]right-> IngredientList

ModelManager - ->"1" Recipe : filtered list
@enduml

PlantUML version 1.2020.03beta11(Unknown compile time)
(GPL source distribution)
Java Runtime: Java(TM) SE Runtime Environment
JVM: Java HotSpot(TM) 64-Bit Server VM
Java Version: 1.7.0_25-b15
Operating System: Linux
Default Encoding: UTF-8
Language: en
Country: US
--></g></svg>
