<?xml version="1.0" encoding="UTF-8" standalone="no"?><svg xmlns="http://www.w3.org/2000/svg" xmlns:xlink="http://www.w3.org/1999/xlink" contentScriptType="application/ecmascript" contentStyleType="text/css" height="706px" preserveAspectRatio="none" style="width:590px;height:706px;" version="1.1" viewBox="0 0 590 706" width="590px" zoomAndPan="magnify"><defs/><g><!--MD5=[15636c1ca4a123c16a2a1a8e90aca7a9]
cluster Model--><rect fill="#FFFFFF" height="616" style="stroke: #000000; stroke-width: 1.5;" width="557" x="22" y="79"/><text fill="#000000" font-family="sans-serif" font-size="14" font-weight="bold" lengthAdjust="spacingAndGlyphs" textLength="44" x="278.5" y="95.5332">Model</text><!--MD5=[a88a92b9ad7f1df35ef861db036bec5e]
cluster Recipe--><rect fill="#FFFFFF" height="268" style="stroke: #000000; stroke-width: 1.5;" width="403" x="46" y="403"/><text fill="#000000" font-family="sans-serif" font-size="14" font-weight="bold" lengthAdjust="spacingAndGlyphs" textLength="49" x="223" y="419.5332">Recipe</text><!--MD5=[565f50dc830de045365c575a6a060834]
cluster Tag--><rect fill="#FFFFFF" height="76" style="stroke: #000000; stroke-width: 1.5;" width="82" x="473" y="595"/><text fill="#000000" font-family="sans-serif" font-size="14" font-weight="bold" lengthAdjust="spacingAndGlyphs" textLength="25" x="501.5" y="611.5332">Tag</text><!--MD5=[7db9adc9de0d7ede4a02693692151135]
class ReadOnlyRecipeBook--><rect fill="#9D0012" height="38.8926" id="ReadOnlyRecipeBook" style="stroke: #FFFFFF; stroke-width: 1.0;" width="127" x="47.5" y="215"/><text fill="#FFFFFF" font-family="sans-serif" font-size="12" font-style="italic" lengthAdjust="spacingAndGlyphs" textLength="62" x="80" y="232.457">«Interface»</text><text fill="#FFFFFF" font-family="Arial" font-size="12" lengthAdjust="spacingAndGlyphs" textLength="121" x="50.5" y="246.3496">ReadOnlyRecipeBook</text><!--MD5=[7e20e022571e30ec1001cf6eabd7f3e2]
class Model--><rect fill="#9D0012" height="38.8926" id="Model" style="stroke: #FFFFFF; stroke-width: 1.0;" width="64" x="325" y="115"/><text fill="#FFFFFF" font-family="sans-serif" font-size="12" font-style="italic" lengthAdjust="spacingAndGlyphs" textLength="62" x="326" y="132.457">«Interface»</text><text fill="#FFFFFF" font-family="Arial" font-size="12" lengthAdjust="spacingAndGlyphs" textLength="33" x="340.5" y="146.3496">Model</text><!--MD5=[113df03bb65a4006fb91ed3fb77b6ec1]
class ObservableList--><rect fill="#9D0012" height="38.8926" id="ObservableList" style="stroke: #FFFFFF; stroke-width: 1.0;" width="90" x="424" y="115"/><text fill="#FFFFFF" font-family="sans-serif" font-size="12" font-style="italic" lengthAdjust="spacingAndGlyphs" textLength="62" x="438" y="132.457">«Interface»</text><text fill="#FFFFFF" font-family="Arial" font-size="12" font-style="italic" lengthAdjust="spacingAndGlyphs" textLength="84" x="427" y="146.3496">ObservableList</text><!--MD5=[05f5fba1ff83d42873626e04b4b84faa]
class RecipeBook--><rect fill="#9D0012" height="23.7988" id="RecipeBook" style="stroke: #FFFFFF; stroke-width: 1.0;" width="73" x="225.5" y="315"/><text fill="#FFFFFF" font-family="Arial" font-size="12" lengthAdjust="spacingAndGlyphs" textLength="67" x="228.5" y="331.2559">RecipeBook</text><!--MD5=[0d23c233efb60477cf7e578633a93a45]
class ModelManager--><rect fill="#9D0012" height="23.7988" id="ModelManager" style="stroke: #FFFFFF; stroke-width: 1.0;" width="87" x="307.5" y="222.5"/><text fill="#FFFFFF" font-family="Arial" font-size="12" lengthAdjust="spacingAndGlyphs" textLength="81" x="310.5" y="238.7559">ModelManager</text><!--MD5=[8d0026c7984aa4cd1b21c0238fc19d6b]
class UserPrefs--><rect fill="#9D0012" height="23.7988" id="UserPrefs" style="stroke: #FFFFFF; stroke-width: 1.0;" width="62" x="210" y="222.5"/><text fill="#FFFFFF" font-family="Arial" font-size="12" lengthAdjust="spacingAndGlyphs" textLength="56" x="213" y="238.7559">UserPrefs</text><!--MD5=[a832290d741b8e569f0b0a043ed40841]
class ReadOnlyUserPrefs--><rect fill="#9D0012" height="23.7988" id="ReadOnlyUserPrefs" style="stroke: #FFFFFF; stroke-width: 1.0;" width="116" x="174" y="122.5"/><text fill="#FFFFFF" font-family="Arial" font-size="12" lengthAdjust="spacingAndGlyphs" textLength="110" x="177" y="138.7559">ReadOnlyUserPrefs</text><!--MD5=[37b1713fbddd25bf4cca619143e755c7]
class Calorie--><rect fill="#9D0012" height="23.7988" id="Calorie" style="stroke: #FFFFFF; stroke-width: 1.0;" width="50" x="181" y="631"/><text fill="#FFFFFF" font-family="Arial" font-size="12" lengthAdjust="spacingAndGlyphs" textLength="40" x="186" y="647.2559">Calorie</text><!--MD5=[3cdd5f167b4e8ffc8048a8d8c666fa85]
class IngredientList--><rect fill="#9D0012" height="23.7988" id="IngredientList" style="stroke: #FFFFFF; stroke-width: 1.0;" width="81" x="351.5" y="524"/><text fill="#FFFFFF" font-family="Arial" font-size="12" lengthAdjust="spacingAndGlyphs" textLength="75" x="354.5" y="540.2559">IngredientList</text><!--MD5=[0ff7f33fb4cfaccd6bcebc094e3b238f]
class InstructionList--><rect fill="#9D0012" height="23.7988" id="InstructionList" style="stroke: #FFFFFF; stroke-width: 1.0;" width="83" x="147.5" y="524"/><text fill="#FFFFFF" font-family="Arial" font-size="12" lengthAdjust="spacingAndGlyphs" textLength="77" x="150.5" y="540.2559">InstructionList</text><!--MD5=[53f6a92bd21ca2f2960392a061f3a1c6]
class Name--><rect fill="#9D0012" height="23.7988" id="Name" style="stroke: #FFFFFF; stroke-width: 1.0;" width="50" x="62" y="524"/><text fill="#FFFFFF" font-family="Arial" font-size="12" lengthAdjust="spacingAndGlyphs" textLength="34" x="70" y="540.2559">Name</text><!--MD5=[20418cb98520644da1e87dc0310aa74a]
class Recipe--><rect fill="#9D0012" height="23.7988" id="Recipe" style="stroke: #FFFFFF; stroke-width: 1.0;" width="50" x="266" y="524"/><text fill="#FFFFFF" font-family="Arial" font-size="12" lengthAdjust="spacingAndGlyphs" textLength="39" x="271.5" y="540.2559">Recipe</text><!--MD5=[0a8a9a553ad28d76d3a1fd3918a25a86]
class Rating--><rect fill="#9D0012" height="23.7988" id="Rating" style="stroke: #FFFFFF; stroke-width: 1.0;" width="50" x="266" y="631"/><text fill="#FFFFFF" font-family="Arial" font-size="12" lengthAdjust="spacingAndGlyphs" textLength="36" x="273" y="647.2559">Rating</text><!--MD5=[d7a175801c7751fb719f2545215a2693]
class Serving--><rect fill="#9D0012" height="23.7988" id="Serving" style="stroke: #FFFFFF; stroke-width: 1.0;" width="50" x="351" y="631"/><text fill="#FFFFFF" font-family="Arial" font-size="12" lengthAdjust="spacingAndGlyphs" textLength="41" x="355.5" y="647.2559">Serving</text><!--MD5=[0db0c73c8eed4bdf2e92c941cd0ea335]
class UniqueRecipeList--><rect fill="#9D0012" height="23.7988" id="UniqueRecipeList" style="stroke: #FFFFFF; stroke-width: 1.0;" width="105" x="209.5" y="439"/><text fill="#FFFFFF" font-family="Arial" font-size="12" lengthAdjust="spacingAndGlyphs" textLength="99" x="212.5" y="455.2559">UniqueRecipeList</text><!--MD5=[39d6d2ea03de602dbf4d534e70c872a9]
class Tag--><rect fill="#9D0012" height="23.7988" id="Tag" style="stroke: #FFFFFF; stroke-width: 1.0;" width="50" x="489" y="631"/><text fill="#FFFFFF" font-family="Arial" font-size="12" lengthAdjust="spacingAndGlyphs" textLength="21" x="503.5" y="647.2559">Tag</text><!--MD5=[f8dc820cca8808bdb695301f77a92b66]
class HiddenOutside--><rect fill="#FFFFFF" height="23.7988" id="HiddenOutside" style="stroke: #FFFFFF; stroke-width: 1.0;" width="89" x="312.5" y="8"/><rect fill="#FFFFFF" height="23.7988" style="stroke: #FFFFFF; stroke-width: 1.0;" width="89" x="312.5" y="8"/><text fill="#FFFFFF" font-family="Arial" font-size="12" lengthAdjust="spacingAndGlyphs" textLength="83" x="315.5" y="24.2559">HiddenOutside</text><!--MD5=[d201fe284d2a1152149acb90a3e86885]
link HiddenOutside to Model--><path d="M357,32.198 C357,50.179 357,85.885 357,109.736 " fill="none" id="HiddenOutside-&gt;Model" style="stroke: #9D0012; stroke-width: 1.1; stroke-dasharray: 7.0,7.0;"/><polygon fill="#9D0012" points="357,114.931,361,105.931,357,109.931,353,105.931,357,114.931" style="stroke: #9D0012; stroke-width: 1.1;"/><!--MD5=[bea5a4238804ca47c4395317d24ff2a6]
reverse link ReadOnlyRecipeBook to RecipeBook--><path d="M159.241,264.413 C187.905,281.592 222.623,302.4 243.479,314.899 " fill="none" id="ReadOnlyRecipeBook&lt;-RecipeBook" style="stroke: #9D0012; stroke-width: 1.1; stroke-dasharray: 7.0,7.0;"/><polygon fill="none" points="155.478,270.318,141.921,254.032,162.675,258.31,155.478,270.318" style="stroke: #9D0012; stroke-width: 1.1;"/><!--MD5=[b88a9fc704bcaab99a71844113667eb4]
reverse link Model to ModelManager--><path d="M354.607,174.582 C353.555,191.768 352.399,210.652 351.686,222.294 " fill="none" id="Model&lt;-ModelManager" style="stroke: #9D0012; stroke-width: 1.1; stroke-dasharray: 7.0,7.0;"/><polygon fill="none" points="347.634,173.93,355.843,154.395,361.608,174.786,347.634,173.93" style="stroke: #9D0012; stroke-width: 1.1;"/><!--MD5=[5544fbbf5edcd033443c011d9df48be8]
link Model to ObservableList--><path d="M389.375,134.5 C399.175,134.5 408.975,134.5 418.775,134.5 " fill="none" id="Model-&gt;ObservableList" style="stroke: #9D0012; stroke-width: 1.1; stroke-dasharray: 7.0,7.0;"/><polygon fill="#9D0012" points="423.9,134.5,414.9,130.5,418.9,134.5,414.9,138.5,423.9,134.5" style="stroke: #9D0012; stroke-width: 1.1;"/><!--MD5=[8038e36fb092ee0bb3c83cc743592715]
link ModelManager to RecipeBook--><path d="M331.6739,255.1538 C331.6739,255.1538 296.686,290.73 282.145,305.516 " fill="none" id="ModelManager-RecipeBook" style="stroke: #9D0012; stroke-width: 1.1;"/><polygon fill="#9D0012" points="273.002,314.812,282.1647,311.2002,276.508,311.2472,276.461,305.5905,273.002,314.812" style="stroke: #9D0012; stroke-width: 1.1;"/><line style="stroke: #9D0012; stroke-width: 1.1;" x1="276.508" x2="282.118" y1="311.2472" y2="305.5435"/><polygon fill="#FFFFFF" points="340.087,246.597,333.0282,248.0711,331.6739,255.1538,338.7327,253.6798,340.087,246.597" style="stroke: #9D0012; stroke-width: 1.1;"/><text fill="#000000" font-family="sans-serif" font-size="13" lengthAdjust="spacingAndGlyphs" textLength="7" x="269.0966" y="304.0936">1</text><!--MD5=[8a7bd34f39a85d86f43d3dfea0b77dfc]
link UserPrefs to ModelManager--><path d="M285.498,234.5 C288.348,234.5 295.383,234.5 295.383,234.5 " fill="none" id="UserPrefs-ModelManager" style="stroke: #9D0012; stroke-width: 1.1;"/><polygon fill="#FFFFFF" points="307.383,234.5,301.383,230.5,295.383,234.5,301.383,238.5,307.383,234.5" style="stroke: #9D0012; stroke-width: 1.1;"/><polygon fill="#9D0012" points="272.367,234.5,281.367,238.5,277.367,234.5,281.367,230.5,272.367,234.5" style="stroke: #9D0012; stroke-width: 1.1;"/><line style="stroke: #9D0012; stroke-width: 1.1;" x1="277.367" x2="285.367" y1="234.5" y2="234.5"/><text fill="#000000" font-family="sans-serif" font-size="13" lengthAdjust="spacingAndGlyphs" textLength="7" x="279.9942" y="230.3056">1</text><!--MD5=[69497c261184ae79c34a503b1c31ce5d]
reverse link ReadOnlyUserPrefs to UserPrefs--><path d="M234.863,166.67 C236.612,185.722 238.744,208.939 239.98,222.389 " fill="none" id="ReadOnlyUserPrefs&lt;-UserPrefs" style="stroke: #9D0012; stroke-width: 1.1; stroke-dasharray: 7.0,7.0;"/><polygon fill="none" points="227.891,167.298,233.032,146.742,241.832,166.018,227.891,167.298" style="stroke: #9D0012; stroke-width: 1.1;"/><!--MD5=[399a5d3003824dd2aaed60fba5076426]
link RecipeBook to UniqueRecipeList--><path d="M262,351.259 C262,351.259 262,404.273 262,425.506 " fill="none" id="RecipeBook-UniqueRecipeList" style="stroke: #9D0012; stroke-width: 1.1;"/><polygon fill="#9D0012" points="262,438.768,266,429.768,262,433.768,258,429.768,262,438.768" style="stroke: #9D0012; stroke-width: 1.1;"/><line style="stroke: #9D0012; stroke-width: 1.1;" x1="262" x2="262" y1="433.768" y2="425.768"/><polygon fill="#9D0012" points="262,339.259,258,345.259,262,351.259,266,345.259,262,339.259" style="stroke: #9D0012; stroke-width: 1.1;"/><text fill="#000000" font-family="sans-serif" font-size="13" lengthAdjust="spacingAndGlyphs" textLength="7" x="253.5563" y="428.0314">1</text><!--MD5=[016354eeaf1f2cf03d6b4aa43f02fce5]
link UniqueRecipeList to Recipe--><path d="M269.8699,474.5221 C269.8699,474.5221 278.929,500.453 282.852,511.68 " fill="none" id="UniqueRecipeList-Recipe" style="stroke: #9D0012; stroke-width: 1.1;"/><polygon fill="#9D0012" points="287.151,523.984,287.9582,514.1683,285.5016,519.2639,280.406,516.8073,287.151,523.984" style="stroke: #9D0012; stroke-width: 1.1;"/><line style="stroke: #9D0012; stroke-width: 1.1;" x1="285.5016" x2="282.8625" y1="519.2639" y2="511.711"/><polygon fill="#FFFFFF" points="265.911,463.194,264.1144,470.1777,269.8699,474.5221,271.6665,467.5384,265.911,463.194" style="stroke: #9D0012; stroke-width: 1.1;"/><text fill="#000000" font-family="sans-serif" font-size="13" lengthAdjust="spacingAndGlyphs" textLength="5" x="279.532" y="513.3365">*</text><!--MD5=[8b18990a75762e5489588bd26d9232bc]
link Name to Recipe--><path d="M109.231,515.416 C119.954,506.868 133.511,497.922 147.5,493.5 C182.673,482.381 195.327,482.381 230.5,493.5 C244.489,497.922 269.681,516.1926 269.681,516.1926 " fill="none" id="Name-Recipe" style="stroke: #9D0012; stroke-width: 1.1;"/><polygon fill="#9D0012" points="278.817,523.973,276.8425,517.0375,269.681,516.1926,271.6556,523.1282,278.817,523.973" style="stroke: #9D0012; stroke-width: 1.1;"/><polygon fill="#9D0012" points="99.1834,523.973,108.6288,521.1831,102.9901,520.7312,103.4419,515.0924,99.1834,523.973" style="stroke: #9D0012; stroke-width: 1.1;"/><line style="stroke: #9D0012; stroke-width: 1.1;" x1="102.9901" x2="109.08" y1="520.7312" y2="515.544"/><!--MD5=[2ae02f12b4af88c0bc80a3222ab982f6]
link InstructionList to Recipe--><path d="M243.879,544.948 C246.823,544.869 253.7221,544.3062 253.7221,544.3062 " fill="none" id="InstructionList-Recipe" style="stroke: #9D0012; stroke-width: 1.1;"/><polygon fill="#9D0012" points="265.618,542.729,259.1443,539.5523,253.7221,544.3062,260.1958,547.4829,265.618,542.729" style="stroke: #9D0012; stroke-width: 1.1;"/><polygon fill="#9D0012" points="230.836,544.709,239.7615,548.8725,235.8352,544.8002,239.9075,540.8739,230.836,544.709" style="stroke: #9D0012; stroke-width: 1.1;"/><line style="stroke: #9D0012; stroke-width: 1.1;" x1="235.8352" x2="243.834" y1="544.8002" y2="544.947"/><!--MD5=[2ae02f12b4af88c0bc80a3222ab982f6]
link InstructionList to Recipe--><!--MD5=[2648f4cc287baaabb238ad4dbbbc4389]
link IngredientList to Recipe--><path d="M338.232,544.962 C335.214,544.893 328.1459,544.3272 328.1459,544.3272 " fill="none" id="IngredientList-Recipe" style="stroke: #9D0012; stroke-width: 1.1;"/><polygon fill="#9D0012" points="316.25,542.75,321.6722,547.5039,328.1459,544.3272,322.7237,539.5733,316.25,542.75" style="stroke: #9D0012; stroke-width: 1.1;"/><polygon fill="#9D0012" points="351.462,544.65,342.37,540.8637,346.4634,544.7681,342.559,548.8615,351.462,544.65" style="stroke: #9D0012; stroke-width: 1.1;"/><line style="stroke: #9D0012; stroke-width: 1.1;" x1="346.4634" x2="338.4655" y1="544.7681" y2="544.957"/><!--MD5=[1ffc9816fa0c2433efc0ee7e42589584]
link Recipe to IngredientList--><!--MD5=[576d84be776654c1bee81d2b6aec8431]
link Recipe to Calorie--><path d="M273.7806,557.1767 C273.7806,557.1767 256.729,577.463 249,587 C240.128,597.946 230.447,610.293 222.521,620.5101 " fill="none" id="Recipe-Calorie" style="stroke: #9D0012; stroke-width: 1.1;"/><polygon fill="#9D0012" points="214.454,630.9535,223.1212,626.2759,217.5104,626.9964,216.7898,621.3856,214.454,630.9535" style="stroke: #9D0012; stroke-width: 1.1;"/><line style="stroke: #9D0012; stroke-width: 1.1;" x1="217.5104" x2="222.401" y1="626.9964" y2="620.6652"/><polygon fill="#9D0012" points="281.546,548.028,274.6137,550.0139,273.7806,557.1767,280.7128,555.1908,281.546,548.028" style="stroke: #9D0012; stroke-width: 1.1;"/><!--MD5=[37a874072a213527d24aff4f30d28ef8]
link Recipe to Serving--><path d="M308.9987,557.3901 C308.9987,557.3901 326.209,577.389 334,587 C342.795,597.849 352.264,610.187 359.98,620.4235 " fill="none" id="Recipe-Serving" style="stroke: #9D0012; stroke-width: 1.1;"/><polygon fill="#9D0012" points="367.818,630.8973,365.6282,621.295,364.8223,626.8941,359.2231,626.0882,367.818,630.8973" style="stroke: #9D0012; stroke-width: 1.1;"/><line style="stroke: #9D0012; stroke-width: 1.1;" x1="364.8223" x2="360.029" y1="626.8941" y2="620.4891"/><polygon fill="#9D0012" points="301.098,548.358,302.0376,555.5076,308.9987,557.3901,308.059,550.2405,301.098,548.358" style="stroke: #9D0012; stroke-width: 1.1;"/><!--MD5=[3073158967b6a264075a8499999a8deb]
link Recipe to Rating--><path d="M291,560.237 C291,560.237 291,600.742 291,617.6737 " fill="none" id="Recipe-Rating" style="stroke: #9D0012; stroke-width: 1.1;"/><polygon fill="#9D0012" points="291,630.844,295,621.844,291,625.844,287,621.844,291,630.844" style="stroke: #9D0012; stroke-width: 1.1;"/><line style="stroke: #9D0012; stroke-width: 1.1;" x1="291" x2="291" y1="625.844" y2="617.844"/><polygon fill="#9D0012" points="291,548.237,287,554.237,291,560.237,295,554.237,291,548.237" style="stroke: #9D0012; stroke-width: 1.1;"/><!--MD5=[aab071f6e496da150eb1924ca162ae57]
link Recipe to Tag--><path d="M327.8543,546.8508 C327.8543,546.8508 428.237,575.539 449,587 C465.616,596.172 481.915,609.978 494.035,621.4629 " fill="none" id="Recipe-Tag" style="stroke: #9D0012; stroke-width: 1.1;"/><polygon fill="#9D0012" points="503.513,630.7833,499.9001,621.621,499.9478,627.2777,494.2911,627.3254,503.513,630.7833" style="stroke: #9D0012; stroke-width: 1.1;"/><line style="stroke: #9D0012; stroke-width: 1.1;" x1="499.9478" x2="494.244" y1="627.2777" y2="621.6685"/><polygon fill="#9D0012" points="316.278,543.69,321.0125,549.1291,327.8543,546.8508,323.1197,541.4116,316.278,543.69" style="stroke: #9D0012; stroke-width: 1.1;"/><text fill="#000000" font-family="sans-serif" font-size="13" lengthAdjust="spacingAndGlyphs" textLength="5" x="493.1559" y="620.053">*</text><!--MD5=[71cd868474e9a9f1c454a66b4020a81e]
link Name to InstructionList--><!--MD5=[f9d40165887b8070da6c12037e71cb66]
link ModelManager to Recipe--><path d="M351.74,246.713 C353.609,280.368 356.753,383.119 332,463 C325.497,483.986 312.16,505.559 302.458,519.549 " fill="none" id="ModelManager-&gt;Recipe" style="stroke: #9D0012; stroke-width: 1.1;"/><polygon fill="#9D0012" points="299.322,523.991,307.7811,518.9468,302.2063,519.9068,301.2463,514.332,299.322,523.991" style="stroke: #9D0012; stroke-width: 1.1;"/><text fill="#000000" font-family="sans-serif" font-size="13" lengthAdjust="spacingAndGlyphs" textLength="59" x="350" y="383.4951">filtered list</text><text fill="#000000" font-family="sans-serif" font-size="13" lengthAdjust="spacingAndGlyphs" textLength="7" x="294.3111" y="513.3464">1</text><!--MD5=[d72636f3c2b8bde803a68223979c8962]
@startuml ModelClassDiagram








skinparam BackgroundColor #FFFFFFF

skinparam Shadowing false

skinparam Class {
    FontColor #FFFFFF
    BorderThickness 1
    BorderColor #FFFFFF
    StereotypeFontColor #FFFFFF
    FontName Arial
}

skinparam Actor {
    BorderColor #000000
    Color #000000
    FontName Arial
}

skinparam Sequence {
    MessageAlign center
    BoxFontSize 15
    BoxPadding 0
    BoxFontColor #FFFFFF
    FontName Arial
}

skinparam Participant {
    FontColor #FFFFFFF
    Padding 20
}

skinparam MinClassWidth 50
skinparam ParticipantPadding 10
skinparam Shadowing false
skinparam DefaultTextAlignment center
skinparam packageStyle Rectangle

hide footbox
hide members
hide circle
skinparam arrowThickness 1.1
skinparam arrowColor #9D0012
skinparam classBackgroundColor #9D0012

Package Model <<Rectangle>>{
Interface ReadOnlyRecipeBook <<Interface>>
Interface Model <<Interface>>
Interface ObservableList <<Interface>>
Class RecipeBook
Class ReadOnlyRecipeBook
Class Model
Class ModelManager
Class UserPrefs
Class ReadOnlyUserPrefs

Package Recipe {
Class Calorie
Class IngredientList
Class InstructionList
Class Name
Class Recipe
Class Rating
Class Serving
Class UniqueRecipeList
}

Package Tag {
Class Tag
}
}

Class HiddenOutside #FFFFFF
HiddenOutside ..> Model

RecipeBook .up.|> ReadOnlyRecipeBook

ModelManager .up.|> Model
Model .right.> ObservableList
ModelManager o- -> "1" RecipeBook
ModelManager o-left-> "1" UserPrefs
UserPrefs .up.|> ReadOnlyUserPrefs

RecipeBook *- -> "1" UniqueRecipeList
UniqueRecipeList o- -> "*" Recipe
Recipe *-left-> Name
Recipe *-left-> InstructionList
Recipe *-left-> IngredientList
Recipe *-down-> Calorie
Recipe *- -> Serving
Recipe *- -> Rating
Recipe *- -> "*" Tag

Name -[hidden]right-> InstructionList
InstructionList -[hidden]right-> Recipe
Recipe -[hidden]right-> IngredientList

ModelManager - ->"1" Recipe : filtered list
@enduml

PlantUML version 1.2020.03beta6(Unknown compile time)
(GPL source distribution)
Java Runtime: OpenJDK Runtime Environment
JVM: OpenJDK 64-Bit Server VM
Java Version: 11.0.6+8-b770.9
Operating System: Windows 10
Default Encoding: Cp1252
Language: en
Country: SG
--></g></svg>
