<?xml version="1.0" encoding="UTF-8" standalone="no"?><svg xmlns="http://www.w3.org/2000/svg" xmlns:xlink="http://www.w3.org/1999/xlink" contentScriptType="application/ecmascript" contentStyleType="text/css" height="645px" preserveAspectRatio="none" style="width:424px;height:645px;" version="1.1" viewBox="0 0 424 645" width="424px" zoomAndPan="magnify"><defs/><g><!--MD5=[5d4cd377749310b66bf14896f5cd8d9b]
cluster model--><polygon fill="#FFFFFF" points="22,24,71,24,78,46.0986,402,46.0986,402,633,22,633,22,24" style="stroke: #000000; stroke-width: 1.5;"/><line style="stroke: #000000; stroke-width: 1.5;" x1="22" x2="78" y1="46.0986" y2="46.0986"/><text fill="#000000" font-family="Arial" font-size="14" font-weight="bold" lengthAdjust="spacingAndGlyphs" textLength="43" x="26" y="39.1318">model</text><!--MD5=[dc96b4f243af77830faaa10a462a89e2]
cluster recipe--><polygon fill="#FFFFFF" points="102,428,153,428,160,450.0986,240,450.0986,240,609,102,609,102,428" style="stroke: #000000; stroke-width: 1.5;"/><line style="stroke: #000000; stroke-width: 1.5;" x1="102" x2="160" y1="450.0986" y2="450.0986"/><text fill="#000000" font-family="Arial" font-size="14" font-weight="bold" lengthAdjust="spacingAndGlyphs" textLength="45" x="106" y="443.1318">recipe</text><!--MD5=[ef07b3aba6dead893f58a6ac812a8ba7]
cluster attribute--><polygon fill="#FFFFFF" points="264,534,330,534,337,556.0986,376,556.0986,376,609,264,609,264,534" style="stroke: #000000; stroke-width: 1.5;"/><line style="stroke: #000000; stroke-width: 1.5;" x1="264" x2="337" y1="556.0986" y2="556.0986"/><text fill="#000000" font-family="Arial" font-size="14" font-weight="bold" lengthAdjust="spacingAndGlyphs" textLength="60" x="268" y="549.1318">attribute</text><!--MD5=[7db9adc9de0d7ede4a02693692151135]
class ReadOnlyRecipeBook--><rect fill="#9D0012" height="37.5977" id="ReadOnlyRecipeBook" style="stroke: #FFFFFF; stroke-width: 1.0;" width="127" x="258.5" y="243"/><text fill="#FFFFFF" font-family="Arial" font-size="12" font-style="italic" lengthAdjust="spacingAndGlyphs" textLength="62" x="291" y="259.2559">«Interface»</text><text fill="#FFFFFF" font-family="Arial" font-size="12" lengthAdjust="spacingAndGlyphs" textLength="121" x="261.5" y="273.0547">ReadOnlyRecipeBook</text><!--MD5=[7e20e022571e30ec1001cf6eabd7f3e2]
class Model--><rect fill="#9D0012" height="37.5977" id="Model" style="stroke: #FFFFFF; stroke-width: 1.0;" width="64" x="46" y="144"/><text fill="#FFFFFF" font-family="Arial" font-size="12" font-style="italic" lengthAdjust="spacingAndGlyphs" textLength="62" x="47" y="160.2559">«Interface»</text><text fill="#FFFFFF" font-family="Arial" font-size="12" lengthAdjust="spacingAndGlyphs" textLength="33" x="61.5" y="174.0547">Model</text><!--MD5=[113df03bb65a4006fb91ed3fb77b6ec1]
class ObservableList--><rect fill="#9D0012" height="37.5977" id="ObservableList" style="stroke: #FFFFFF; stroke-width: 1.0;" width="90" x="145" y="144"/><text fill="#FFFFFF" font-family="Arial" font-size="12" font-style="italic" lengthAdjust="spacingAndGlyphs" textLength="62" x="159" y="160.2559">«Interface»</text><text fill="#FFFFFF" font-family="Arial" font-size="12" font-style="italic" lengthAdjust="spacingAndGlyphs" textLength="84" x="148" y="174.0547">ObservableList</text><!--MD5=[05f5fba1ff83d42873626e04b4b84faa]
class RecipeBook--><rect fill="#9D0012" height="23.7988" id="RecipeBook" style="stroke: #FFFFFF; stroke-width: 1.0;" width="73" x="134.5" y="342"/><text fill="#FFFFFF" font-family="Arial" font-size="12" lengthAdjust="spacingAndGlyphs" textLength="67" x="137.5" y="358.2559">RecipeBook</text><!--MD5=[0d23c233efb60477cf7e578633a93a45]
class ModelManager--><rect fill="#9D0012" height="23.7988" id="ModelManager" style="stroke: #FFFFFF; stroke-width: 1.0;" width="87" x="38.5" y="250"/><text fill="#FFFFFF" font-family="Arial" font-size="12" lengthAdjust="spacingAndGlyphs" textLength="81" x="41.5" y="266.2559">ModelManager</text><!--MD5=[8d0026c7984aa4cd1b21c0238fc19d6b]
class UserPrefs--><rect fill="#9D0012" height="23.7988" id="UserPrefs" style="stroke: #FFFFFF; stroke-width: 1.0;" width="62" x="161" y="250"/><text fill="#FFFFFF" font-family="Arial" font-size="12" lengthAdjust="spacingAndGlyphs" textLength="56" x="164" y="266.2559">UserPrefs</text><!--MD5=[a832290d741b8e569f0b0a043ed40841]
class ReadOnlyUserPrefs--><rect fill="#9D0012" height="23.7988" id="ReadOnlyUserPrefs" style="stroke: #FFFFFF; stroke-width: 1.0;" width="116" x="270" y="151"/><text fill="#FFFFFF" font-family="Arial" font-size="12" lengthAdjust="spacingAndGlyphs" textLength="110" x="273" y="167.2559">ReadOnlyUserPrefs</text><!--MD5=[f8dc820cca8808bdb695301f77a92b66]
class HiddenOutside--><rect fill="#FFFFFF" height="23.7988" id="HiddenOutside" style="stroke: #FFFFFF; stroke-width: 1.0;" width="89" x="38.5" y="59"/><rect fill="#FFFFFF" height="23.7988" style="stroke: #FFFFFF; stroke-width: 1.0;" width="89" x="38.5" y="59"/><text fill="#FFFFFF" font-family="Arial" font-size="12" lengthAdjust="spacingAndGlyphs" textLength="83" x="41.5" y="75.2559">HiddenOutside</text><!--MD5=[20418cb98520644da1e87dc0310aa74a]
class Recipe--><rect fill="#9D0012" height="23.7988" id="Recipe" style="stroke: #FFFFFF; stroke-width: 1.0;" width="50" x="146" y="569"/><text fill="#FFFFFF" font-family="Arial" font-size="12" lengthAdjust="spacingAndGlyphs" textLength="39" x="151.5" y="585.2559">Recipe</text><!--MD5=[0db0c73c8eed4bdf2e92c941cd0ea335]
class UniqueRecipeList--><rect fill="#9D0012" height="23.7988" id="UniqueRecipeList" style="stroke: #FFFFFF; stroke-width: 1.0;" width="105" x="118.5" y="463"/><text fill="#FFFFFF" font-family="Arial" font-size="12" lengthAdjust="spacingAndGlyphs" textLength="99" x="121.5" y="479.2559">UniqueRecipeList</text><!--MD5=[3097066ed20b3fc4508db0761e05f804]
class HiddenInside--><rect fill="#FFFFFF" height="23.7988" id="HiddenInside" style="stroke: #FFFFFF; stroke-width: 1.0;" width="80" x="280" y="569"/><rect fill="#FFFFFF" height="23.7988" style="stroke: #FFFFFF; stroke-width: 1.0;" width="80" x="280" y="569"/><text fill="#FFFFFF" font-family="Arial" font-size="12" lengthAdjust="spacingAndGlyphs" textLength="74" x="283" y="585.2559">HiddenInside</text><!--MD5=[d201fe284d2a1152149acb90a3e86885]
link HiddenOutside to Model--><path d="M82.3869,83.036 C81.6259,96.733 80.3074,120.468 79.314,138.349 " fill="none" id="HiddenOutside-&gt;Model" style="stroke: #9D0012; stroke-width: 1.1; stroke-dasharray: 7.0,7.0;"/><polygon fill="#9D0012" points="79.0171,143.692,83.5098,134.9276,79.2942,138.6997,75.5221,134.4841,79.0171,143.692" style="stroke: #9D0012; stroke-width: 1.1;"/><!--MD5=[bea5a4238804ca47c4395317d24ff2a6]
reverse link ReadOnlyRecipeBook to RecipeBook--><path d="M274.123,291.536 C245.433,308.636 210.569,329.416 189.615,341.905 " fill="none" id="ReadOnlyRecipeBook&lt;-RecipeBook" style="stroke: #9D0012; stroke-width: 1.1; stroke-dasharray: 7.0,7.0;"/><polygon fill="none" points="270.679,285.44,291.443,281.213,277.847,297.466,270.679,285.44" style="stroke: #9D0012; stroke-width: 1.1;"/><!--MD5=[b88a9fc704bcaab99a71844113667eb4]
reverse link Model to ModelManager--><path d="M79.577,202.243 C80.2811,219.316 81.0584,238.166 81.538,249.797 " fill="none" id="Model&lt;-ModelManager" style="stroke: #9D0012; stroke-width: 1.1; stroke-dasharray: 7.0,7.0;"/><polygon fill="none" points="72.5825,202.516,78.7524,182.245,86.5706,201.94,72.5825,202.516" style="stroke: #9D0012; stroke-width: 1.1;"/><!--MD5=[5544fbbf5edcd033443c011d9df48be8]
link Model to ObservableList--><path d="M110.375,163 C120.175,163 129.975,163 139.775,163 " fill="none" id="Model-&gt;ObservableList" style="stroke: #9D0012; stroke-width: 1.1; stroke-dasharray: 7.0,7.0;"/><polygon fill="#9D0012" points="144.9,163,135.9,159,139.9,163,135.9,167,144.9,163" style="stroke: #9D0012; stroke-width: 1.1;"/><!--MD5=[8038e36fb092ee0bb3c83cc743592715]
link ModelManager to RecipeBook--><path d="M101.3511,282.5683 C101.3511,282.5683 136.314,317.925 150.855,332.629 " fill="none" id="ModelManager-RecipeBook" style="stroke: #9D0012; stroke-width: 1.1;"/><polygon fill="#9D0012" points="159.998,341.874,156.5139,332.662,156.4823,338.3187,150.8255,338.2871,159.998,341.874" style="stroke: #9D0012; stroke-width: 1.1;"/><line style="stroke: #9D0012; stroke-width: 1.1;" x1="156.4823" x2="150.8565" y1="338.3187" y2="332.6305"/><polygon fill="#FFFFFF" points="92.9131,274.036,94.288,281.1148,101.3511,282.5683,99.9762,275.4895,92.9131,274.036" style="stroke: #9D0012; stroke-width: 1.1;"/><text fill="#000000" font-family="Arial" font-size="13" lengthAdjust="spacingAndGlyphs" textLength="7" x="145.9283" y="331.0242">1</text><!--MD5=[8a7bd34f39a85d86f43d3dfea0b77dfc]
link UserPrefs to ModelManager--><path d="M147.937,262 C144.961,262 137.828,262 137.828,262 " fill="none" id="UserPrefs-ModelManager" style="stroke: #9D0012; stroke-width: 1.1;"/><polygon fill="#FFFFFF" points="125.828,262,131.828,266,137.828,262,131.828,258,125.828,262" style="stroke: #9D0012; stroke-width: 1.1;"/><polygon fill="#9D0012" points="160.982,262,151.982,258,155.982,262,151.982,266,160.982,262" style="stroke: #9D0012; stroke-width: 1.1;"/><line style="stroke: #9D0012; stroke-width: 1.1;" x1="155.982" x2="147.982" y1="262" y2="262"/><text fill="#000000" font-family="Arial" font-size="13" lengthAdjust="spacingAndGlyphs" textLength="7" x="145.9997" y="258.7081">1</text><!--MD5=[69497c261184ae79c34a503b1c31ce5d]
reverse link ReadOnlyUserPrefs to UserPrefs--><path d="M296.105,186.749 C268.378,206.524 229.372,234.345 207.838,249.704 " fill="none" id="ReadOnlyUserPrefs&lt;-UserPrefs" style="stroke: #9D0012; stroke-width: 1.1; stroke-dasharray: 7.0,7.0;"/><polygon fill="none" points="292.052,181.042,312.399,175.127,300.181,192.44,292.052,181.042" style="stroke: #9D0012; stroke-width: 1.1;"/><!--MD5=[399a5d3003824dd2aaed60fba5076426]
link RecipeBook to UniqueRecipeList--><path d="M171,378.41 C171,378.41 171,429.262 171,449.694 " fill="none" id="RecipeBook-UniqueRecipeList" style="stroke: #9D0012; stroke-width: 1.1;"/><polygon fill="#9D0012" points="171,462.798,175,453.798,171,457.798,167,453.798,171,462.798" style="stroke: #9D0012; stroke-width: 1.1;"/><line style="stroke: #9D0012; stroke-width: 1.1;" x1="171" x2="171" y1="457.798" y2="449.798"/><polygon fill="#9D0012" points="171,366.41,167,372.41,171,378.41,175,372.41,171,366.41" style="stroke: #9D0012; stroke-width: 1.1;"/><text fill="#000000" font-family="Arial" font-size="13" lengthAdjust="spacingAndGlyphs" textLength="7" x="162.3813" y="452.3768">1</text><!--MD5=[016354eeaf1f2cf03d6b4aa43f02fce5]
link UniqueRecipeList to Recipe--><path d="M171,499.13 C171,499.13 171,539.077 171,555.7228 " fill="none" id="UniqueRecipeList-Recipe" style="stroke: #9D0012; stroke-width: 1.1;"/><polygon fill="#9D0012" points="171,568.9502,175,559.9502,171,563.9502,167,559.9502,171,568.9502" style="stroke: #9D0012; stroke-width: 1.1;"/><line style="stroke: #9D0012; stroke-width: 1.1;" x1="171" x2="171" y1="563.9502" y2="555.9502"/><polygon fill="#FFFFFF" points="171,487.13,167,493.13,171,499.13,175,493.13,171,487.13" style="stroke: #9D0012; stroke-width: 1.1;"/><text fill="#000000" font-family="Arial" font-size="13" lengthAdjust="spacingAndGlyphs" textLength="5" x="164.7813" y="558.1376">*</text><!--MD5=[3f8a94d4c3f2ff84fb22bd509bd5566a]
link Recipe to HiddenInside--><path d="M196.027,581 C222.208,581 248.389,581 274.57,581 " fill="none" id="Recipe-&gt;HiddenInside" style="stroke: #9D0012; stroke-width: 1.1;"/><polygon fill="#9D0012" points="279.806,581,270.806,577,274.806,581,270.806,585,279.806,581" style="stroke: #9D0012; stroke-width: 1.1;"/><!--MD5=[f9d40165887b8070da6c12037e71cb66]
link ModelManager to Recipe--><path d="M80.8306,274.2 C77.7607,307.784 71.6114,410.072 101,487 C113.002,518.415 138.98,548.286 155.692,565.3457 " fill="none" id="ModelManager-&gt;Recipe" style="stroke: #9D0012; stroke-width: 1.1;"/><polygon fill="#9D0012" points="159.315,568.9916,155.8092,559.7878,155.7909,565.4447,150.1341,565.4264,159.315,568.9916" style="stroke: #9D0012; stroke-width: 1.1;"/><text fill="#000000" font-family="Arial" font-size="13" lengthAdjust="spacingAndGlyphs" textLength="59" x="84" y="409.1938">filtered list</text><text fill="#000000" font-family="Arial" font-size="13" lengthAdjust="spacingAndGlyphs" textLength="7" x="144.9123" y="558.1991">1</text><!--MD5=[aaf2551518390e5c0a63583e40dbfbfe]
@startuml ModelClassDiagram








skinparam BackgroundColor #FFFFFFF

skinparam Shadowing false

skinparam Class {
    FontColor #FFFFFF
    BorderThickness 1
    BorderColor #FFFFFF
    StereotypeFontColor #FFFFFF
}

skinparam Actor {
    BorderColor #000000
    Color #000000
}

skinparam Sequence {
    MessageAlign center
    BoxFontSize 15
    BoxPadding 0
    BoxFontColor #FFFFFF
    SequenceBoxFontName Segoe UI
}

skinparam Participant {
    FontColor #FFFFFFF
    Padding 20
}

skinparam MinClassWidth 50
skinparam ParticipantPadding 10
skinparam Shadowing false
skinparam DefaultTextAlignment center
skinparam packageStyle Folder

skinparam DefaultFontName Arial

skinparam defaultMonospacedFontName Consolas

hide footbox
hide members
hide circle
skinparam arrowThickness 1.1
skinparam arrowColor #9D0012
skinparam classBackgroundColor #9D0012

Package model {
    Interface ReadOnlyRecipeBook <<Interface>>
    Interface Model <<Interface>>
    Interface ObservableList <<Interface>>
    Class RecipeBook
    Class ReadOnlyRecipeBook
    Class Model
    Class ModelManager
    Class UserPrefs
    Class ReadOnlyUserPrefs

    Package recipe {
        Class Recipe
        Class UniqueRecipeList
    }

    Package attribute {
        Class HiddenInside #FFFFFF
    }

    Class HiddenOutside #FFFFFF
    HiddenOutside ..> Model

    RecipeBook .up.|> ReadOnlyRecipeBook

    ModelManager .up.|> Model
    Model .right.> ObservableList
    ModelManager o- -> "1" RecipeBook
    ModelManager o-left-> "1" UserPrefs
    UserPrefs .up.|> ReadOnlyUserPrefs

    RecipeBook *- -> "1" UniqueRecipeList
    UniqueRecipeList o-down-> "*" Recipe

    Recipe -r-> HiddenInside

    ModelManager - ->"1" Recipe : filtered list
}
    @enduml

PlantUML version 1.2020.06(Sun Apr 05 20:38:32 SGT 2020)
(GPL source distribution)
Java Runtime: Java(TM) SE Runtime Environment
JVM: Java HotSpot(TM) 64-Bit Server VM
Java Version: 13.0.1+9
Operating System: Windows 10
Default Encoding: Cp1252
Language: en
Country: SG
--></g></svg>
