<?xml version="1.0" encoding="UTF-8" standalone="no"?><svg xmlns="http://www.w3.org/2000/svg" xmlns:xlink="http://www.w3.org/1999/xlink" contentScriptType="application/ecmascript" contentStyleType="text/css" height="1556px" preserveAspectRatio="none" style="width:3408px;height:1556px;" version="1.1" viewBox="0 0 3408 1556" width="3408px" zoomAndPan="magnify"><defs/><g><!--MD5=[15636c1ca4a123c16a2a1a8e90aca7a9]
cluster Model--><rect fill="#FFFFFF" height="1486" style="stroke: #000000; stroke-width: 3.0;" width="3342" x="44" y="48"/><text fill="#000000" font-family="sans-serif" font-size="28" font-weight="bold" lengthAdjust="spacingAndGlyphs" textLength="88" x="1671" y="79.0703">Model</text><!--MD5=[f2b83134119c2a26462ad25ebc7597ff]
cluster Parcel--><rect fill="#FFFFFF" height="178" style="stroke: #000000; stroke-width: 3.0;" width="180" x="1900" y="1308"/><text fill="#000000" font-family="sans-serif" font-size="28" font-weight="bold" lengthAdjust="spacingAndGlyphs" textLength="86" x="1947" y="1339.0703">Parcel</text><!--MD5=[942ee4b883c52d7a03f098d74c95ae83]
cluster Comment--><rect fill="#FFFFFF" height="150" style="stroke: #000000; stroke-width: 3.0;" width="184" x="1668" y="1322"/><text fill="#000000" font-family="sans-serif" font-size="28" font-weight="bold" lengthAdjust="spacingAndGlyphs" textLength="140" x="1690" y="1353.0703">Comment</text><!--MD5=[7f3b6ce7d46cf03b2044a184b637ed78]
cluster TypeOfItem--><rect fill="#FFFFFF" height="150" style="stroke: #000000; stroke-width: 3.0;" width="204" x="1416" y="1322"/><text fill="#000000" font-family="sans-serif" font-size="28" font-weight="bold" lengthAdjust="spacingAndGlyphs" textLength="172" x="1432" y="1353.0703">TypeOfItem</text><!--MD5=[a8f0ed50d1fec95f73bf5e4305df3503]
cluster CashOnDelivery--><rect fill="#FFFFFF" height="150" style="stroke: #000000; stroke-width: 3.0;" width="262" x="1106" y="1322"/><text fill="#000000" font-family="sans-serif" font-size="28" font-weight="bold" lengthAdjust="spacingAndGlyphs" textLength="230" x="1122" y="1353.0703">CashOnDelivery</text><!--MD5=[6ef308a68ea16e5af8af7a196bc0a5c1]
cluster ReturnOrderAttributes--><rect fill="#FFFFFF" height="182" style="stroke: #000000; stroke-width: 3.0;" width="1394" x="1928" y="1044"/><text fill="#000000" font-family="sans-serif" font-size="28" font-weight="bold" lengthAdjust="spacingAndGlyphs" textLength="324" x="2463" y="1075.0703">ReturnOrderAttributes</text><!--MD5=[b8ae5bf29076c9167279b8ecffff009f]
cluster OrderAttributes--><rect fill="#FFFFFF" height="182" style="stroke: #000000; stroke-width: 3.0;" width="1394" x="108" y="1044"/><text fill="#000000" font-family="sans-serif" font-size="28" font-weight="bold" lengthAdjust="spacingAndGlyphs" textLength="228" x="691" y="1075.0703">OrderAttributes</text><!--MD5=[9081c15d9762451a8c321a7e33586db5]
class ReadOnlyOrderBook--><rect fill="#9D0012" height="75.8633" id="ReadOnlyOrderBook" style="stroke: #FFFFFF; stroke-width: 2.0;" width="240" x="1282" y="486"/><text fill="#FFFFFF" font-family="sans-serif" font-size="24" font-style="italic" lengthAdjust="spacingAndGlyphs" textLength="124" x="1340" y="519.2031">«Interface»</text><text fill="#FFFFFF" font-family="Arial" font-size="24" lengthAdjust="spacingAndGlyphs" textLength="228" x="1288" y="546.7773">ReadOnlyOrderBook</text><!--MD5=[2f31dc06677bc58ef3d8f512d76c1f2e]
class ReadOnlyReturnOrderBook--><rect fill="#9D0012" height="75.8633" id="ReadOnlyReturnOrderBook" style="stroke: #FFFFFF; stroke-width: 2.0;" width="314" x="2033" y="486"/><text fill="#FFFFFF" font-family="sans-serif" font-size="24" font-style="italic" lengthAdjust="spacingAndGlyphs" textLength="124" x="2128" y="519.2031">«Interface»</text><text fill="#FFFFFF" font-family="Arial" font-size="24" lengthAdjust="spacingAndGlyphs" textLength="302" x="2039" y="546.7773">ReadOnlyReturnOrderBook</text><!--MD5=[7e20e022571e30ec1001cf6eabd7f3e2]
class Model--><rect fill="#9D0012" height="75.8633" id="Model" style="stroke: #FFFFFF; stroke-width: 2.0;" width="128" x="1446" y="288"/><text fill="#FFFFFF" font-family="sans-serif" font-size="24" font-style="italic" lengthAdjust="spacingAndGlyphs" textLength="124" x="1448" y="321.2031">«Interface»</text><text fill="#FFFFFF" font-family="Arial" font-size="24" lengthAdjust="spacingAndGlyphs" textLength="68" x="1476" y="348.7773">Model</text><!--MD5=[113df03bb65a4006fb91ed3fb77b6ec1]
class ObservableList--><rect fill="#9D0012" height="75.8633" id="ObservableList" style="stroke: #FFFFFF; stroke-width: 2.0;" width="176" x="1644" y="288"/><text fill="#FFFFFF" font-family="sans-serif" font-size="24" font-style="italic" lengthAdjust="spacingAndGlyphs" textLength="124" x="1670" y="321.2031">«Interface»</text><text fill="#FFFFFF" font-family="Arial" font-size="24" font-style="italic" lengthAdjust="spacingAndGlyphs" textLength="164" x="1650" y="348.7773">ObservableList</text><!--MD5=[e3a0a37d90b6ff76e20d9faadcec8253]
class OrderBook--><rect fill="#9D0012" height="47.5977" id="OrderBook" style="stroke: #FFFFFF; stroke-width: 2.0;" width="130" x="1357" y="684"/><text fill="#FFFFFF" font-family="Arial" font-size="24" lengthAdjust="spacingAndGlyphs" textLength="118" x="1363" y="716.5117">OrderBook</text><!--MD5=[1aa99e31529f0e0267c883b5ecdd326b]
class ReturnOrderBook--><rect fill="#9D0012" height="47.5977" id="ReturnOrderBook" style="stroke: #FFFFFF; stroke-width: 2.0;" width="204" x="1904" y="684"/><text fill="#FFFFFF" font-family="Arial" font-size="24" lengthAdjust="spacingAndGlyphs" textLength="192" x="1910" y="716.5117">ReturnOrderBook</text><!--MD5=[0d23c233efb60477cf7e578633a93a45]
class ModelManager--><rect fill="#9D0012" height="47.5977" id="ModelManager" style="stroke: #FFFFFF; stroke-width: 2.0;" width="178" x="1593" y="500"/><text fill="#FFFFFF" font-family="Arial" font-size="24" lengthAdjust="spacingAndGlyphs" textLength="166" x="1599" y="532.5117">ModelManager</text><!--MD5=[8d0026c7984aa4cd1b21c0238fc19d6b]
class UserPrefs--><rect fill="#9D0012" height="47.5977" id="UserPrefs" style="stroke: #FFFFFF; stroke-width: 2.0;" width="120" x="1842" y="500"/><text fill="#FFFFFF" font-family="Arial" font-size="24" lengthAdjust="spacingAndGlyphs" textLength="108" x="1848" y="532.5117">UserPrefs</text><!--MD5=[a832290d741b8e569f0b0a043ed40841]
class ReadOnlyUserPrefs--><rect fill="#9D0012" height="47.5977" id="ReadOnlyUserPrefs" style="stroke: #FFFFFF; stroke-width: 2.0;" width="230" x="1891" y="302"/><text fill="#FFFFFF" font-family="Arial" font-size="24" lengthAdjust="spacingAndGlyphs" textLength="218" x="1897" y="334.5117">ReadOnlyUserPrefs</text><!--MD5=[267c57a1fbbc895f720b3da7838b3af0]
class UniqueReturnOrderList--><rect fill="#9D0012" height="47.5977" id="UniqueReturnOrderList" style="stroke: #FFFFFF; stroke-width: 2.0;" width="266" x="1873" y="886"/><text fill="#FFFFFF" font-family="Arial" font-size="24" lengthAdjust="spacingAndGlyphs" textLength="254" x="1879" y="918.5117">UniqueReturnOrderList</text><!--MD5=[a5127b499828c09889c8715fca3202ad]
class UniqueOrderList--><rect fill="#9D0012" height="47.5977" id="UniqueOrderList" style="stroke: #FFFFFF; stroke-width: 2.0;" width="192" x="1362" y="886"/><text fill="#FFFFFF" font-family="Arial" font-size="24" lengthAdjust="spacingAndGlyphs" textLength="180" x="1368" y="918.5117">UniqueOrderList</text><!--MD5=[cf4d6237fcae255cd2e1656cf84a30e2]
class Order--><rect fill="#9D0012" height="47.5977" id="Order" style="stroke: #FFFFFF; stroke-width: 2.0;" width="100" x="1556" y="1130"/><text fill="#FFFFFF" font-family="Arial" font-size="24" lengthAdjust="spacingAndGlyphs" textLength="62" x="1575" y="1162.5117">Order</text><!--MD5=[f8dc820cca8808bdb695301f77a92b66]
class HiddenOutside--><rect fill="#FFFFFF" height="47.5977" id="HiddenOutside" style="stroke: #FFFFFF; stroke-width: 2.0;" width="176" x="1422" y="118"/><rect fill="#FFFFFF" height="47.5977" style="stroke: #FFFFFF; stroke-width: 2.0;" width="176" x="1422" y="118"/><text fill="#FFFFFF" font-family="Arial" font-size="24" lengthAdjust="spacingAndGlyphs" textLength="164" x="1428" y="150.5117">HiddenOutside</text><!--MD5=[28a58247ec52b6b346e404cf2e9cbcf6]
class ReturnOrder--><rect fill="#9D0012" height="47.5977" id="ReturnOrder" style="stroke: #FFFFFF; stroke-width: 2.0;" width="148" x="1726" y="1130"/><text fill="#FFFFFF" font-family="Arial" font-size="24" lengthAdjust="spacingAndGlyphs" textLength="136" x="1732" y="1162.5117">ReturnOrder</text><!--MD5=[d7833036c0ff6b4f474b7ddbce8071dc]
class Parcel--><rect fill="#9D0012" height="75.1953" id="Parcel" style="stroke: #FFFFFF; stroke-width: 2.0;" width="114" x="1933" y="1378"/><text fill="#FFFFFF" font-family="Arial" font-size="24" lengthAdjust="spacingAndGlyphs" textLength="102" x="1939" y="1410.5117">{abstract}</text><text fill="#FFFFFF" font-family="Arial" font-size="24" lengthAdjust="spacingAndGlyphs" textLength="70" x="1955" y="1438.1094">Parcel</text><!--MD5=[042fa140da40c49659127f611bcff931]
class Comment--><rect fill="#9D0012" height="47.5977" id="Comment" style="stroke: #FFFFFF; stroke-width: 2.0;" width="118" x="1701" y="1392"/><text fill="#FFFFFF" font-family="Arial" font-size="24" lengthAdjust="spacingAndGlyphs" textLength="106" x="1707" y="1424.5117">Comment</text><!--MD5=[77658b3ea9ab4d6f6055329028fcb9d5]
class TypeOfItem--><rect fill="#9D0012" height="47.5977" id="TypeOfItem" style="stroke: #FFFFFF; stroke-width: 2.0;" width="136" x="1452" y="1392"/><text fill="#FFFFFF" font-family="Arial" font-size="24" lengthAdjust="spacingAndGlyphs" textLength="124" x="1458" y="1424.5117">TypeOfItem</text><!--MD5=[4c4d4953716a20dcc08fa0e3f0d7ea84]
class CashOnDelivery--><rect fill="#9D0012" height="47.5977" id="CashOnDelivery" style="stroke: #FFFFFF; stroke-width: 2.0;" width="192" x="1144" y="1392"/><text fill="#FFFFFF" font-family="Arial" font-size="24" lengthAdjust="spacingAndGlyphs" textLength="180" x="1150" y="1424.5117">CashOnDelivery</text><!--MD5=[498e1c92f71608595d87e3276dd44155]
class tid1--><rect fill="#9D0012" height="47.5977" id="tid1" style="stroke: #FFFFFF; stroke-width: 2.0;" width="160" x="2944" y="1130"/><text fill="#FFFFFF" font-family="Arial" font-size="24" lengthAdjust="spacingAndGlyphs" textLength="148" x="2950" y="1162.5117">TransactionId</text><!--MD5=[a10910ce6e882df9c63a130be5c83c69]
class addr1--><rect fill="#9D0012" height="47.5977" id="addr1" style="stroke: #FFFFFF; stroke-width: 2.0;" width="102" x="2771" y="1130"/><text fill="#FFFFFF" font-family="Arial" font-size="24" lengthAdjust="spacingAndGlyphs" textLength="90" x="2777" y="1162.5117">Address</text><!--MD5=[c1e9b78d5bc9c2ae3990d079069d5183]
class name1--><rect fill="#9D0012" height="47.5977" id="name1" style="stroke: #FFFFFF; stroke-width: 2.0;" width="100" x="3174" y="1130"/><text fill="#FFFFFF" font-family="Arial" font-size="24" lengthAdjust="spacingAndGlyphs" textLength="66" x="3191" y="1162.5117">Name</text><!--MD5=[2b15f2171d224e71474c7c9abf34a307]
class phone1--><rect fill="#9D0012" height="47.5977" id="phone1" style="stroke: #FFFFFF; stroke-width: 2.0;" width="100" x="2600" y="1130"/><text fill="#FFFFFF" font-family="Arial" font-size="24" lengthAdjust="spacingAndGlyphs" textLength="72" x="2614" y="1162.5117">Phone</text><!--MD5=[40479dbf9eaf4f6c7938244ee9bc3cd2]
class warehouse1--><rect fill="#9D0012" height="47.5977" id="warehouse1" style="stroke: #FFFFFF; stroke-width: 2.0;" width="138" x="2185" y="1130"/><text fill="#FFFFFF" font-family="Arial" font-size="24" lengthAdjust="spacingAndGlyphs" textLength="126" x="2191" y="1162.5117">Warehouse</text><!--MD5=[e3eef2c9cafa6b29516cded5904e98a1]
class timestamp1--><rect fill="#9D0012" height="47.5977" id="timestamp1" style="stroke: #FFFFFF; stroke-width: 2.0;" width="136" x="2394" y="1130"/><text fill="#FFFFFF" font-family="Arial" font-size="24" lengthAdjust="spacingAndGlyphs" textLength="124" x="2400" y="1162.5117">TimeStamp</text><!--MD5=[f22b09dddbb6e772a552411f09ca1427]
class email1--><rect fill="#9D0012" height="47.5977" id="email1" style="stroke: #FFFFFF; stroke-width: 2.0;" width="100" x="2014" y="1130"/><text fill="#FFFFFF" font-family="Arial" font-size="24" lengthAdjust="spacingAndGlyphs" textLength="62" x="2033" y="1162.5117">Email</text><!--MD5=[5e94c88dd1b2adca17ee853db39e1224]
class TransactionId--><rect fill="#9D0012" height="47.5977" id="TransactionId" style="stroke: #FFFFFF; stroke-width: 2.0;" width="160" x="1086" y="1130"/><text fill="#FFFFFF" font-family="Arial" font-size="24" lengthAdjust="spacingAndGlyphs" textLength="148" x="1092" y="1162.5117">TransactionId</text><!--MD5=[0f39e4cb6f03951afbf6d14bd2505654]
class Address--><rect fill="#9D0012" height="47.5977" id="Address" style="stroke: #FFFFFF; stroke-width: 2.0;" width="102" x="497" y="1130"/><text fill="#FFFFFF" font-family="Arial" font-size="24" lengthAdjust="spacingAndGlyphs" textLength="90" x="503" y="1162.5117">Address</text><!--MD5=[53f6a92bd21ca2f2960392a061f3a1c6]
class Name--><rect fill="#9D0012" height="47.5977" id="Name" style="stroke: #FFFFFF; stroke-width: 2.0;" width="100" x="156" y="1130"/><text fill="#FFFFFF" font-family="Arial" font-size="24" lengthAdjust="spacingAndGlyphs" textLength="66" x="173" y="1162.5117">Name</text><!--MD5=[03be55fb4aae919908819e432b9694ea]
class Phone--><rect fill="#9D0012" height="47.5977" id="Phone" style="stroke: #FFFFFF; stroke-width: 2.0;" width="100" x="326" y="1130"/><text fill="#FFFFFF" font-family="Arial" font-size="24" lengthAdjust="spacingAndGlyphs" textLength="72" x="340" y="1162.5117">Phone</text><!--MD5=[c5149b4909ffd2688ff51a939867f774]
class Warehouse--><rect fill="#9D0012" height="47.5977" id="Warehouse" style="stroke: #FFFFFF; stroke-width: 2.0;" width="138" x="877" y="1130"/><text fill="#FFFFFF" font-family="Arial" font-size="24" lengthAdjust="spacingAndGlyphs" textLength="126" x="883" y="1162.5117">Warehouse</text><!--MD5=[e186123a0e171d8e4c05cbc7f31a370c]
class TimeStamp--><rect fill="#9D0012" height="47.5977" id="TimeStamp" style="stroke: #FFFFFF; stroke-width: 2.0;" width="136" x="670" y="1130"/><text fill="#FFFFFF" font-family="Arial" font-size="24" lengthAdjust="spacingAndGlyphs" textLength="124" x="676" y="1162.5117">TimeStamp</text><!--MD5=[78bec0fde86ad92ec1dc3fb343b83709]
class Email--><rect fill="#9D0012" height="47.5977" id="Email" style="stroke: #FFFFFF; stroke-width: 2.0;" width="100" x="1316" y="1130"/><text fill="#FFFFFF" font-family="Arial" font-size="24" lengthAdjust="spacingAndGlyphs" textLength="62" x="1335" y="1162.5117">Email</text><!--MD5=[d201fe284d2a1152149acb90a3e86885]
link HiddenOutside to Model--><path d="M1510,166.08 C1510,193.46 1510,240.94 1510,276.7 " fill="none" id="HiddenOutside-&gt;Model" style="stroke: #123456; stroke-width: 2.2; stroke-dasharray: 7.0,7.0;"/><polygon fill="#123456" points="1510,287.38,1518,269.38,1510,277.38,1502,269.38,1510,287.38" style="stroke: #123456; stroke-width: 2.2;"/><!--MD5=[6313ccca822872607481ac8ace14911c]
reverse link ReadOnlyOrderBook to OrderBook--><path d="M1410.52,602.64 C1413.78,632.06 1417.28,663.44 1419.54,683.82 " fill="none" id="ReadOnlyOrderBook&lt;-OrderBook" style="stroke: #123456; stroke-width: 2.2; stroke-dasharray: 7.0,7.0;"/><polygon fill="none" points="1396.56,603.72,1406.04,562.42,1424.38,600.64,1396.56,603.72" style="stroke: #123456; stroke-width: 2.2;"/><!--MD5=[a9565963e9e412a86fa7324d54155291]
reverse link ReadOnlyReturnOrderBook to ReturnOrderBook--><path d="M2124.1,590.46 C2090.74,623.1 2052.4,660.6 2028.68,683.82 " fill="none" id="ReadOnlyReturnOrderBook&lt;-ReturnOrderBook" style="stroke: #123456; stroke-width: 2.2; stroke-dasharray: 7.0,7.0;"/><polygon fill="none" points="2114.38,580.38,2152.76,562.42,2133.96,600.4,2114.38,580.38" style="stroke: #123456; stroke-width: 2.2;"/><!--MD5=[b88a9fc704bcaab99a71844113667eb4]
reverse link Model to ModelManager--><path d="M1569.34,394.92 C1601.66,431.38 1639.56,474.14 1662.14,499.6 " fill="none" id="Model&lt;-ModelManager" style="stroke: #123456; stroke-width: 2.2; stroke-dasharray: 7.0,7.0;"/><polygon fill="none" points="1558.42,403.7,1542.36,364.48,1579.36,385.14,1558.42,403.7" style="stroke: #123456; stroke-width: 2.2;"/><!--MD5=[5544fbbf5edcd033443c011d9df48be8]
link Model to ObservableList--><path d="M1574.18,326 C1593.94,326 1613.72,326 1633.5,326 " fill="none" id="Model-&gt;ObservableList" style="stroke: #123456; stroke-width: 2.2; stroke-dasharray: 7.0,7.0;"/><polygon fill="#123456" points="1643.84,326,1625.84,318,1633.84,326,1625.84,334,1643.84,326" style="stroke: #123456; stroke-width: 2.2;"/><!--MD5=[efc5c386041b99534d4449903aba32bc]
link ModelManager to OrderBook--><path d="M1630.3807,561.7314 C1630.3807,561.7314 1520.48,637.82 1475.66,668.84 " fill="none" id="ModelManager-OrderBook" style="stroke: #123456; stroke-width: 2.2;"/><polygon fill="#123456" points="1454.14,683.74,1473.4949,680.0812,1462.3647,678.0519,1464.394,666.9217,1454.14,683.74" style="stroke: #123456; stroke-width: 2.2;"/><line style="stroke: #123456; stroke-width: 2.2;" x1="1462.3647" x2="1475.52" y1="678.0519" y2="668.95"/><polygon fill="#FFFFFF" points="1650.12,548.08,1635.6999,548.326,1630.3807,561.7314,1644.8009,561.4855,1650.12,548.08" style="stroke: #123456; stroke-width: 2.2;"/><text fill="#000000" font-family="sans-serif" font-size="26" lengthAdjust="spacingAndGlyphs" textLength="16" x="1448.0978" y="662.8931">1</text><!--MD5=[2ad5166cce388623b4d8a00d4b45d8ae]
link ModelManager to ReturnOrderBook--><path d="M1742.7023,559.731 C1742.7023,559.731 1885.34,638.96 1942.48,670.72 " fill="none" id="ModelManager-ReturnOrderBook" style="stroke: #123456; stroke-width: 2.2;"/><polygon fill="#123456" points="1965.94,683.74,1954.087,668.0077,1957.1974,678.8854,1946.3197,681.9959,1965.94,683.74" style="stroke: #123456; stroke-width: 2.2;"/><line style="stroke: #123456; stroke-width: 2.2;" x1="1957.1974" x2="1943.22" y1="678.8854" y2="671.12"/><polygon fill="#FFFFFF" points="1721.72,548.08,1728.3275,560.8996,1742.7023,559.731,1736.0948,546.9114,1721.72,548.08" style="stroke: #123456; stroke-width: 2.2;"/><text fill="#000000" font-family="sans-serif" font-size="26" lengthAdjust="spacingAndGlyphs" textLength="16" x="1930.1153" y="662.8931">1</text><!--MD5=[8a7bd34f39a85d86f43d3dfea0b77dfc]
link UserPrefs to ModelManager--><path d="M1815.66,524 C1809.7,524 1795.38,524 1795.38,524 " fill="none" id="UserPrefs-ModelManager" style="stroke: #123456; stroke-width: 2.2;"/><polygon fill="#FFFFFF" points="1771.38,524,1783.38,532,1795.38,524,1783.38,516,1771.38,524" style="stroke: #123456; stroke-width: 2.2;"/><polygon fill="#123456" points="1841.8,524,1823.8088,515.9802,1831.8,523.989,1823.7912,531.9802,1841.8,524" style="stroke: #123456; stroke-width: 2.2;"/><line style="stroke: #123456; stroke-width: 2.2;" x1="1831.8" x2="1815.79" y1="523.989" y2="524"/><text fill="#000000" font-family="sans-serif" font-size="26" lengthAdjust="spacingAndGlyphs" textLength="16" x="1810.0288" y="515.7863">1</text><!--MD5=[69497c261184ae79c34a503b1c31ce5d]
reverse link ReadOnlyUserPrefs to UserPrefs--><path d="M1975.02,385.8 C1954.58,423.92 1928.94,471.76 1914.12,499.4 " fill="none" id="ReadOnlyUserPrefs&lt;-UserPrefs" style="stroke: #123456; stroke-width: 2.2; stroke-dasharray: 7.0,7.0;"/><polygon fill="none" points="1962.84,378.9,1994.06,350.26,1987.5,392.12,1962.84,378.9" style="stroke: #123456; stroke-width: 2.2;"/><!--MD5=[44c736116019ba75513e6202b286c7b8]
link Name to Phone--><!--MD5=[0ad9bbd3cbb714a395e16db642e04fb1]
link Phone to Address--><!--MD5=[5946e61fc8799026cd3127be8f640bbe]
link Address to TimeStamp--><!--MD5=[5921fcb98fbc12b03149741fc6719aa6]
link Order to Comment--><!--MD5=[5921fcb98fbc12b03149741fc6719aa6]
link Order to Comment--><path d="M1635.86,1178.9 C1676.88,1224.92 1739.64,1328.72 1759.3,1381.64 " fill="none" id="Order-&gt;Comment-1" style="stroke: #123456; stroke-width: 2.2;"/><polygon fill="#123456" points="1762.64,1391.52,1764.4136,1371.9023,1759.4179,1382.0533,1749.2669,1377.0576,1762.64,1391.52" style="stroke: #123456; stroke-width: 2.2;"/><!--MD5=[8f6a54eb328cf341c11ba6ddb3347906]
link TimeStamp to Warehouse--><!--MD5=[731f0d5d0cb0210efc310e2b11755a42]
link Warehouse to TransactionId--><!--MD5=[afeb64337f889abcb8cd710efbd85124]
link TransactionId to CashOnDelivery--><!--MD5=[791dce56747994b3a6cc026556a41f34]
link TypeOfItem to Comment--><!--MD5=[ccc3d2c9b972759d34526089ab6fa27f]
reverse link OrderAttributes to CashOnDelivery--><!--MD5=[09122d4da33d8f98bec308af36936028]
link OrderBook to OrderAttributes--><!--MD5=[aeb78ab3993cd4619221a0607f3fa90b]
link Order to Parcel--><path d="M1618.72,1178.48 C1633.28,1202.1 1659.42,1238.48 1692,1258 C1754.36,1295.36 1787.08,1259.3 1852,1292 C1880.54,1306.38 1907.82,1328.12 1930.48,1349.28 " fill="none" id="Order-&gt;Parcel" style="stroke: #123456; stroke-width: 2.2;"/><polygon fill="none" points="1940.76,1339.76,1959.08,1377.98,1920.94,1359.54,1940.76,1339.76" style="stroke: #123456; stroke-width: 2.2;"/><!--MD5=[3d2f70486d65b6ac81b84ebdde74b95e]
link Order to TypeOfItem--><path d="M1598.36,1178.9 C1583.02,1224.92 1548.42,1328.72 1530.78,1381.64 " fill="none" id="Order-&gt;TypeOfItem" style="stroke: #123456; stroke-width: 2.2;"/><polygon fill="#123456" points="1527.5,1391.52,1540.7552,1376.9495,1530.6451,1382.0275,1525.5672,1371.9173,1527.5,1391.52" style="stroke: #123456; stroke-width: 2.2;"/><!--MD5=[4e833d437c29ccd55176d2b86f10c525]
link Order to Name--><path d="M1590.5577,1107.4544 C1590.5577,1107.4544 1537.84,997.48 1483,973 C1424.36,946.84 385.64,946.84 327,973 C272.68,997.24 239.42,1060.06 221.86,1104.88 " fill="none" id="Order-Name" style="stroke: #123456; stroke-width: 2.2;"/><polygon fill="#123456" points="212.9,1129.94,226.4869,1115.6783,216.2627,1120.5223,211.4187,1110.2981,212.9,1129.94" style="stroke: #123456; stroke-width: 2.2;"/><line style="stroke: #123456; stroke-width: 2.2;" x1="216.2627" x2="221.65" y1="1120.5223" y2="1105.46"/><polygon fill="#123456" points="1598.84,1129.98,1602.2074,1115.9564,1590.5577,1107.4544,1587.1903,1121.4779,1598.84,1129.98" style="stroke: #123456; stroke-width: 2.2;"/><!--MD5=[282d0158203dded5bc3c1d1a2c2e3450]
link Order to TransactionId--><path d="M1590.5577,1107.4544 C1590.5577,1107.4544 1537.84,997.48 1483,973 C1415.62,942.94 1384.38,942.94 1317,973 C1257.96,999.34 1214.28,1062.12 1189.48,1106.32 " fill="none" id="Order-TransactionId" style="stroke: #123456; stroke-width: 2.2;"/><polygon fill="#123456" points="1177.1,1129.78,1192.5728,1117.5901,1181.7647,1120.9346,1178.4202,1110.1266,1177.1,1129.78" style="stroke: #123456; stroke-width: 2.2;"/><line style="stroke: #123456; stroke-width: 2.2;" x1="1181.7647" x2="1189.24" y1="1120.9346" y2="1106.78"/><polygon fill="#123456" points="1598.84,1129.98,1602.2074,1115.9564,1590.5577,1107.4544,1587.1903,1121.4779,1598.84,1129.98" style="stroke: #123456; stroke-width: 2.2;"/><!--MD5=[dd2bca8e69277b6dcf04d6bf8fed5dca]
link Order to Address--><path d="M1590.5577,1107.4544 C1590.5577,1107.4544 1537.84,997.48 1483,973 C1400.6,936.24 753.4,936.24 671,973 C616.16,997.48 582.14,1060.74 564.14,1105.56 " fill="none" id="Order-Address" style="stroke: #123456; stroke-width: 2.2;"/><polygon fill="#123456" points="555.16,1129.98,568.8802,1115.8465,558.6109,1120.5943,553.8631,1110.325,555.16,1129.98" style="stroke: #123456; stroke-width: 2.2;"/><line style="stroke: #123456; stroke-width: 2.2;" x1="558.6109" x2="564.14" y1="1120.5943" y2="1105.58"/><polygon fill="#123456" points="1598.84,1129.98,1602.2074,1115.9564,1590.5577,1107.4544,1587.1903,1121.4779,1598.84,1129.98" style="stroke: #123456; stroke-width: 2.2;"/><!--MD5=[cc2b52f64d7199996496b0f7ee2fcb9b]
link Order to CashOnDelivery--><path d="M1577.7656,1198.0088 C1577.7656,1198.0088 1540.54,1242.7 1518,1258 C1479.86,1283.9 1461.22,1271.34 1420,1292 C1372.94,1315.6 1323.74,1349.68 1288.7,1375.84 " fill="none" id="Order-CashOnDelivery" style="stroke: #123456; stroke-width: 2.2;"/><polygon fill="#123456" points="1267.86,1391.68,1287.0246,1387.1283,1275.8123,1385.6169,1277.3237,1374.4046,1267.86,1391.68" style="stroke: #123456; stroke-width: 2.2;"/><line style="stroke: #123456; stroke-width: 2.2;" x1="1275.8123" x2="1288.56" y1="1385.6169" y2="1375.94"/><polygon fill="#123456" points="1591.8,1178.54,1578.2932,1183.5963,1577.7656,1198.0088,1591.2724,1192.9526,1591.8,1178.54" style="stroke: #123456; stroke-width: 2.2;"/><!--MD5=[2370952989a40ace62fd13617fae20de]
link Order to Phone--><path d="M1590.5577,1107.4544 C1590.5577,1107.4544 1537.84,997.48 1483,973 C1382.96,928.36 597.04,928.36 497,973 C442.68,997.24 409.42,1060.06 391.86,1104.88 " fill="none" id="Order-Phone" style="stroke: #123456; stroke-width: 2.2;"/><polygon fill="#123456" points="382.9,1129.94,396.4869,1115.6783,386.2627,1120.5223,381.4187,1110.2981,382.9,1129.94" style="stroke: #123456; stroke-width: 2.2;"/><line style="stroke: #123456; stroke-width: 2.2;" x1="386.2627" x2="391.65" y1="1120.5223" y2="1105.46"/><polygon fill="#123456" points="1598.84,1129.98,1602.2074,1115.9564,1590.5577,1107.4544,1587.1903,1121.4779,1598.84,1129.98" style="stroke: #123456; stroke-width: 2.2;"/><!--MD5=[a87306a0d6fd062b6a3f0ac4ed1f2fe1]
link Order to Warehouse--><path d="M1590.5577,1107.4544 C1590.5577,1107.4544 1537.84,997.48 1483,973 C1402.64,937.14 1167.36,937.14 1087,973 C1029.52,998.64 989.3,1061.58 966.9,1106 " fill="none" id="Order-Warehouse" style="stroke: #123456; stroke-width: 2.2;"/><polygon fill="#123456" points="955.8,1129.6,970.7119,1116.7301,960.0643,1120.5548,956.2396,1109.9072,955.8,1129.6" style="stroke: #123456; stroke-width: 2.2;"/><line style="stroke: #123456; stroke-width: 2.2;" x1="960.0643" x2="966.87" y1="1120.5548" y2="1106.08"/><polygon fill="#123456" points="1598.84,1129.98,1602.2074,1115.9564,1590.5577,1107.4544,1587.1903,1121.4779,1598.84,1129.98" style="stroke: #123456; stroke-width: 2.2;"/><!--MD5=[877f0b1b21b5b5341fd32fbb94cf785f]
link Order to TimeStamp--><path d="M1590.5577,1107.4544 C1590.5577,1107.4544 1537.84,997.48 1483,973 C1421.52,945.56 938.48,945.56 877,973 C820.1,998.38 780.66,1060.88 758.7,1105.32 " fill="none" id="Order-TimeStamp" style="stroke: #123456; stroke-width: 2.2;"/><polygon fill="#123456" points="747.52,1129.56,762.3237,1116.5658,751.7085,1120.4794,747.7948,1109.8642,747.52,1129.56" style="stroke: #123456; stroke-width: 2.2;"/><line style="stroke: #123456; stroke-width: 2.2;" x1="751.7085" x2="758.4" y1="1120.4794" y2="1105.95"/><polygon fill="#123456" points="1598.84,1129.98,1602.2074,1115.9564,1590.5577,1107.4544,1587.1903,1121.4779,1598.84,1129.98" style="stroke: #123456; stroke-width: 2.2;"/><!--MD5=[31f35bdd0346216a532b0e337c5e40a9]
link Order to Email--><path d="M1592.0559,1106.7785 C1592.0559,1106.7785 1524.38,943.84 1459,973 C1408.48,995.54 1384.96,1058.24 1374.32,1103.52 " fill="none" id="Order-Email" style="stroke: #123456; stroke-width: 2.2;"/><polygon fill="#123456" points="1369.14,1129.56,1380.5078,1113.4736,1371.0969,1119.7533,1364.8172,1110.3425,1369.14,1129.56" style="stroke: #123456; stroke-width: 2.2;"/><line style="stroke: #123456; stroke-width: 2.2;" x1="1371.0969" x2="1374.22" y1="1119.7533" y2="1104.06"/><polygon fill="#123456" points="1599.36,1129.64,1603.3285,1115.7745,1592.0559,1106.7785,1588.0874,1120.6439,1599.36,1129.64" style="stroke: #123456; stroke-width: 2.2;"/><!--MD5=[22abd425f1eea181d9ac4c18a00852e4]
link ReturnOrder to ReturnOrderAttributes--><!--MD5=[f4344f75ecf46af2ee437bd4522bc058]
link ReturnOrder to Parcel--><path d="M1816.86,1178.9 C1843.98,1215.72 1898.36,1289.56 1938.98,1344.7 " fill="none" id="ReturnOrder-&gt;Parcel" style="stroke: #123456; stroke-width: 2.2;"/><polygon fill="none" points="1950.8,1337.16,1963.24,1377.68,1928.26,1353.76,1950.8,1337.16" style="stroke: #123456; stroke-width: 2.2;"/><!--MD5=[5194cced9d60441e679aaa07a1a84b99]
link ReturnOrder to TypeOfItem--><path d="M1776.96,1178.02 C1755.18,1198.78 1721.52,1230.68 1692,1258 C1643.58,1302.8 1586.8,1354.06 1552.12,1385.22 " fill="none" id="ReturnOrder-&gt;TypeOfItem" style="stroke: #123456; stroke-width: 2.2;"/><polygon fill="#123456" points="1544.64,1391.94,1563.371,1385.845,1552.0729,1385.2504,1552.6676,1373.9523,1544.64,1391.94" style="stroke: #123456; stroke-width: 2.2;"/><!--MD5=[411c7225d5bf4082c41147d0600b557a]
link ReturnOrder to Comment--><path d="M1796.46,1178.9 C1789.34,1224.72 1773.36,1327.86 1765.12,1380.98 " fill="none" id="ReturnOrder-&gt;Comment" style="stroke: #123456; stroke-width: 2.2;"/><polygon fill="#123456" points="1763.48,1391.52,1774.16,1374.9689,1765.022,1381.6396,1758.3513,1372.5017,1763.48,1391.52" style="stroke: #123456; stroke-width: 2.2;"/><!--MD5=[ed4613ebcca2eb756e05cd38f8dd86d5]
link ReturnOrder to name1--><path d="M1821.3975,1108.2761 C1821.3975,1108.2761 1888.6,999.06 1947,973 C2005.74,946.78 3046.26,946.78 3105,973 C3159.04,997.12 3191.6,1059.96 3208.68,1104.82 " fill="none" id="ReturnOrder-name1" style="stroke: #123456; stroke-width: 2.2;"/><polygon fill="#123456" points="3217.36,1129.92,3219.046,1110.2946,3214.0957,1120.4678,3203.9225,1115.5175,3217.36,1129.92" style="stroke: #123456; stroke-width: 2.2;"/><line style="stroke: #123456; stroke-width: 2.2;" x1="3214.0957" x2="3208.86" y1="1120.4678" y2="1105.35"/><polygon fill="#123456" points="1810.58,1129.7,1823.13,1122.5939,1821.3975,1108.2761,1808.8474,1115.3822,1810.58,1129.7" style="stroke: #123456; stroke-width: 2.2;"/><!--MD5=[6b2e7e803c963be7ab15f561571f83f8]
link ReturnOrder to tid1--><path d="M1821.3975,1108.2761 C1821.3975,1108.2761 1888.6,999.06 1947,973 C2040.96,931.08 2779.04,931.08 2873,973 C2932.04,999.34 2975.72,1062.12 3000.52,1106.32 " fill="none" id="ReturnOrder-tid1" style="stroke: #123456; stroke-width: 2.2;"/><polygon fill="#123456" points="3012.9,1129.78,3011.5798,1110.1266,3008.2353,1120.9346,2997.4272,1117.5901,3012.9,1129.78" style="stroke: #123456; stroke-width: 2.2;"/><line style="stroke: #123456; stroke-width: 2.2;" x1="3008.2353" x2="3000.76" y1="1120.9346" y2="1106.78"/><polygon fill="#123456" points="1810.58,1129.7,1823.13,1122.5939,1821.3975,1108.2761,1808.8474,1115.3822,1810.58,1129.7" style="stroke: #123456; stroke-width: 2.2;"/><!--MD5=[49631ba36f46214710f7e2394e2c8caa]
link ReturnOrder to addr1--><path d="M1821.3975,1108.2761 C1821.3975,1108.2761 1888.6,999.06 1947,973 C2023.5,938.86 2624.5,938.86 2701,973 C2755.32,997.24 2788.58,1060.06 2806.14,1104.88 " fill="none" id="ReturnOrder-addr1" style="stroke: #123456; stroke-width: 2.2;"/><polygon fill="#123456" points="2815.1,1129.94,2816.5813,1110.2981,2811.7373,1120.5223,2801.5131,1115.6783,2815.1,1129.94" style="stroke: #123456; stroke-width: 2.2;"/><line style="stroke: #123456; stroke-width: 2.2;" x1="2811.7373" x2="2806.35" y1="1120.5223" y2="1105.46"/><polygon fill="#123456" points="1810.58,1129.7,1823.13,1122.5939,1821.3975,1108.2761,1808.8474,1115.3822,1810.58,1129.7" style="stroke: #123456; stroke-width: 2.2;"/><!--MD5=[7ac2d4b81579cd0cb965e4737a0d9394]
link ReturnOrder to phone1--><path d="M1821.3975,1108.2761 C1821.3975,1108.2761 1888.6,999.06 1947,973 C2006.26,946.56 2471.74,946.56 2531,973 C2585.04,997.12 2617.6,1059.96 2634.68,1104.82 " fill="none" id="ReturnOrder-phone1" style="stroke: #123456; stroke-width: 2.2;"/><polygon fill="#123456" points="2643.36,1129.92,2645.046,1110.2946,2640.0957,1120.4678,2629.9225,1115.5175,2643.36,1129.92" style="stroke: #123456; stroke-width: 2.2;"/><line style="stroke: #123456; stroke-width: 2.2;" x1="2640.0957" x2="2634.86" y1="1120.4678" y2="1105.35"/><polygon fill="#123456" points="1810.58,1129.7,1823.13,1122.5939,1821.3975,1108.2761,1808.8474,1115.3822,1810.58,1129.7" style="stroke: #123456; stroke-width: 2.2;"/><!--MD5=[64b47ea515a10ca24de6d57d7fe8a270]
link ReturnOrder to timestamp1--><path d="M1821.3975,1108.2761 C1821.3975,1108.2761 1888.6,999.06 1947,973 C2023.3,938.96 2246.7,938.96 2323,973 C2379.9,998.38 2419.34,1060.88 2441.3,1105.32 " fill="none" id="ReturnOrder-timestamp1" style="stroke: #123456; stroke-width: 2.2;"/><polygon fill="#123456" points="2452.48,1129.56,2452.2052,1109.8642,2448.2915,1120.4794,2437.6763,1116.5658,2452.48,1129.56" style="stroke: #123456; stroke-width: 2.2;"/><line style="stroke: #123456; stroke-width: 2.2;" x1="2448.2915" x2="2441.6" y1="1120.4794" y2="1105.95"/><polygon fill="#123456" points="1810.58,1129.7,1823.13,1122.5939,1821.3975,1108.2761,1808.8474,1115.3822,1810.58,1129.7" style="stroke: #123456; stroke-width: 2.2;"/><!--MD5=[d125ed3b9dcf72d2f4020f5ce5879949]
link ReturnOrder to warehouse1--><path d="M1821.3975,1108.2761 C1821.3975,1108.2761 1888.6,999.06 1947,973 C2015.18,942.58 2046.82,942.58 2115,973 C2171.9,998.38 2211.34,1060.88 2233.3,1105.32 " fill="none" id="ReturnOrder-warehouse1" style="stroke: #123456; stroke-width: 2.2;"/><polygon fill="#123456" points="2244.48,1129.56,2244.2052,1109.8642,2240.2915,1120.4794,2229.6763,1116.5658,2244.48,1129.56" style="stroke: #123456; stroke-width: 2.2;"/><line style="stroke: #123456; stroke-width: 2.2;" x1="2240.2915" x2="2233.6" y1="1120.4794" y2="1105.95"/><polygon fill="#123456" points="1810.58,1129.7,1823.13,1122.5939,1821.3975,1108.2761,1808.8474,1115.3822,1810.58,1129.7" style="stroke: #123456; stroke-width: 2.2;"/><!--MD5=[543a50a7acf4663f76dd255cdfb543bf]
link ReturnOrder to email1--><path d="M1817.5852,1107.0693 C1817.5852,1107.0693 1900.88,941.72 1971,973 C2021.52,995.54 2045.04,1058.24 2055.68,1103.52 " fill="none" id="ReturnOrder-email1" style="stroke: #123456; stroke-width: 2.2;"/><polygon fill="#123456" points="2060.86,1129.56,2065.1828,1110.3425,2058.9031,1119.7533,2049.4922,1113.4736,2060.86,1129.56" style="stroke: #123456; stroke-width: 2.2;"/><line style="stroke: #123456; stroke-width: 2.2;" x1="2058.9031" x2="2055.78" y1="1119.7533" y2="1104.06"/><polygon fill="#123456" points="1808.64,1129.34,1820.5362,1121.1864,1817.5852,1107.0693,1805.689,1115.2229,1808.64,1129.34" style="stroke: #123456; stroke-width: 2.2;"/><!--MD5=[ba69f6e02128d3f1efc02a80d9bc8a11]
link OrderBook to UniqueOrderList--><path d="M1430.4156,756.3325 C1430.4156,756.3325 1443.56,828.6 1449.16,859.36 " fill="none" id="OrderBook-UniqueOrderList" style="stroke: #123456; stroke-width: 2.2;"/><polygon fill="#123456" points="1453.92,885.56,1458.5654,866.4179,1452.1282,875.7218,1442.8243,869.2847,1453.92,885.56" style="stroke: #123456; stroke-width: 2.2;"/><line style="stroke: #123456; stroke-width: 2.2;" x1="1452.1282" x2="1449.27" y1="875.7218" y2="859.97"/><polygon fill="#123456" points="1426.12,732.72,1420.397,745.9581,1430.4156,756.3325,1436.1386,743.0944,1426.12,732.72" style="stroke: #123456; stroke-width: 2.2;"/><text fill="#000000" font-family="sans-serif" font-size="26" lengthAdjust="spacingAndGlyphs" textLength="16" x="1432.937" y="864.6388">1</text><!--MD5=[c66f89bb5d550c59037a6582b78cf56e]
link ReturnOrderBook to UniqueReturnOrderList--><path d="M2006,756.72 C2006,756.72 2006,828.92 2006,859.5 " fill="none" id="ReturnOrderBook-UniqueReturnOrderList" style="stroke: #123456; stroke-width: 2.2;"/><polygon fill="#123456" points="2006,885.56,2014,867.56,2006,875.56,1998,867.56,2006,885.56" style="stroke: #123456; stroke-width: 2.2;"/><line style="stroke: #123456; stroke-width: 2.2;" x1="2006" x2="2006" y1="875.56" y2="859.56"/><polygon fill="#123456" points="2006,732.72,1998,744.72,2006,756.72,2014,744.72,2006,732.72" style="stroke: #123456; stroke-width: 2.2;"/><text fill="#000000" font-family="sans-serif" font-size="26" lengthAdjust="spacingAndGlyphs" textLength="16" x="1986.7" y="864.6388">1</text><!--MD5=[4e0facf6f6992d661d1e5ec9f9180bf8]
link UniqueReturnOrderList to ReturnOrder--><path d="M1967.1822,951.857 C1967.1822,951.857 1929.06,992.34 1912,1012 C1884.6,1043.6 1855.1,1080.6 1833.26,1108.62 " fill="none" id="UniqueReturnOrderList-ReturnOrder" style="stroke: #123456; stroke-width: 2.2;"/><polygon fill="#123456" points="1816.94,1129.74,1834.2815,1120.398,1823.0589,1121.8305,1821.6264,1110.6079,1816.94,1129.74" style="stroke: #123456; stroke-width: 2.2;"/><line style="stroke: #123456; stroke-width: 2.2;" x1="1823.0589" x2="1832.84" y1="1121.8305" y2="1109.17"/><polygon fill="#FFFFFF" points="1983.82,934.56,1969.7355,937.6626,1967.1822,951.857,1981.2668,948.7544,1983.82,934.56" style="stroke: #123456; stroke-width: 2.2;"/><text fill="#000000" font-family="sans-serif" font-size="26" lengthAdjust="spacingAndGlyphs" textLength="12" x="1809.4528" y="1108.8931">*</text><!--MD5=[07a9a40e155cf7ba8fa563215030c51a]
link UniqueOrderList to Order--><path d="M1484.2589,954.5671 C1484.2589,954.5671 1551.98,1064.38 1578.5,1107.42 " fill="none" id="UniqueOrderList-Order" style="stroke: #123456; stroke-width: 2.2;"/><polygon fill="#123456" points="1592.38,1129.9,1589.7398,1110.38,1587.1304,1121.3887,1576.1218,1118.7793,1592.38,1129.9" style="stroke: #123456; stroke-width: 2.2;"/><line style="stroke: #123456; stroke-width: 2.2;" x1="1587.1304" x2="1578.73" y1="1121.3887" y2="1107.78"/><polygon fill="#FFFFFF" points="1471.66,934.14,1471.1504,948.5532,1484.2589,954.5671,1484.7685,940.1539,1471.66,934.14" style="stroke: #123456; stroke-width: 2.2;"/><text fill="#000000" font-family="sans-serif" font-size="26" lengthAdjust="spacingAndGlyphs" textLength="12" x="1571.7963" y="1108.1543">*</text><!--MD5=[3b55e350e2d2efb83b20b51c3623f75f]
link ModelManager to Order--><path d="M1675.22,548.5 C1661.86,594 1632.34,700.36 1620,792 C1603.82,912.12 1604.12,1056.68 1605.22,1119.84 " fill="none" id="ModelManager-&gt;Order" style="stroke: #123456; stroke-width: 2.2;"/><polygon fill="#123456" points="1605.4,1129.96,1613.0903,1111.8255,1605.2286,1119.9615,1597.0926,1112.0998,1605.4,1129.96" style="stroke: #123456; stroke-width: 2.2;"/><text fill="#000000" font-family="sans-serif" font-size="26" lengthAdjust="spacingAndGlyphs" textLength="90" x="1622" y="819.1367">filtered</text><text fill="#000000" font-family="sans-serif" font-size="26" lengthAdjust="spacingAndGlyphs" textLength="16" x="1608.6375" y="1108.2406">1</text><!--MD5=[48173a74995c8ba4e565ffa43f308e86]
link ModelManager to ReturnOrder--><path d="M1686.2,548.28 C1703.98,642.6 1773.08,1009.22 1793.98,1120.08 " fill="none" id="ModelManager-&gt;ReturnOrder" style="stroke: #123456; stroke-width: 2.2;"/><polygon fill="#123456" points="1795.86,1129.98,1800.4327,1110.8204,1794.0309,1120.1487,1784.7026,1113.7469,1795.86,1129.98" style="stroke: #123456; stroke-width: 2.2;"/><text fill="#000000" font-family="sans-serif" font-size="26" lengthAdjust="spacingAndGlyphs" textLength="90" x="1740" y="819.1367">filtered</text><text fill="#000000" font-family="sans-serif" font-size="26" lengthAdjust="spacingAndGlyphs" textLength="16" x="1774.5488" y="1108.2693">1</text><!--MD5=[58a4cc229760db65536be576876f6c2d]
@startuml








skinparam BackgroundColor #FFFFFFF

skinparam Shadowing false

skinparam Class {
    FontColor #FFFFFF
    BorderThickness 1
    BorderColor #FFFFFF
    StereotypeFontColor #FFFFFF
    FontName Arial
}

skinparam Actor {
    BorderColor #000000
    Color #000000
    FontName Arial
}

skinparam Sequence {
    MessageAlign center
    BoxFontSize 15
    BoxPadding 0
    BoxFontColor #FFFFFF
    FontName Arial
}

skinparam Participant {
    FontColor #FFFFFFF
    Padding 20
}

skinparam MinClassWidth 50
skinparam ParticipantPadding 10
skinparam Shadowing false
skinparam DefaultTextAlignment center
skinparam packageStyle Rectangle

hide footbox
hide members
hide circle
skinparam arrowThickness 1.1
skinparam arrowColor 123456
skinparam classBackgroundColor #9D0012

Package Model <<Rectangle>>{
Interface ReadOnlyOrderBook <<Interface>>
Interface ReadOnlyReturnOrderBook <<Interface>>
Interface Model <<Interface>>
Interface ObservableList <<Interface>>
Class OrderBook
Class ReturnOrderBook
Class ReadOnlyOrderBook
Class ReadOnlyReturnOrderBook
Class Model
Class ModelManager
Class UserPrefs
Class ReadOnlyUserPrefs

Package Parcel {
Class "{abstract}\nParcel" as Parcel
}

Package Comment {
Class Comment
}

Package TypeOfItem {
Class TypeOfItem
}

Package CashOnDelivery {
Class CashOnDelivery
}

Class UniqueReturnOrderList
Class UniqueOrderList

Package ReturnOrderAttributes {
Class "TransactionId" as tid1
Class "Address" as addr1
Class "Name" as name1
Class "Phone" as phone1
Class "Warehouse" as warehouse1
Class "TimeStamp" as timestamp1
Class "Email" as email1
}

Class Order
Package OrderAttributes {
Class TransactionId
Class CashOnDelivery
Class Address
Class Name
Class Phone
Class Warehouse
Class TimeStamp
Class Email
}

Class HiddenOutside #FFFFFF
HiddenOutside ..> Model

OrderBook .up.|> ReadOnlyOrderBook
ReturnOrderBook .up.|> ReadOnlyReturnOrderBook
ModelManager .up.|> Model
Model .right.> ObservableList
ModelManager o- -> "1" OrderBook
ModelManager o-right-> "1" ReturnOrderBook
ModelManager o-left-> "1" UserPrefs
UserPrefs .up.|> ReadOnlyUserPrefs

Name -[hidden]right-> Phone
Phone -[hidden]right-> Address
Address -[hidden]right-> TimeStamp
Order -[hidden]right-> Comment
TimeStamp -[hidden]right-> Warehouse
Warehouse -[hidden]right-> TransactionId
TransactionId -[hidden]right-> CashOnDelivery
TypeOfItem -[hidden]right-> Comment
CashOnDelivery -[hidden]up-> OrderAttributes
OrderBook -[hidden]right-> OrderAttributes

Order - -|> Parcel
Order - -> TypeOfItem
Order - -> Comment
Order *-> Name
Order *-> TransactionId
Order *-> Address
Order *-> CashOnDelivery
Order *-> Phone
Order *-> Warehouse
Order *-> TimeStamp
Order *-> Email

ReturnOrder -[hidden]right-> ReturnOrderAttributes
ReturnOrder - -|> Parcel
ReturnOrder - -> TypeOfItem
ReturnOrder - -> Comment
ReturnOrder *-> name1
ReturnOrder *-> tid1
ReturnOrder *-> addr1
ReturnOrder *-> phone1
ReturnOrder *-> timestamp1
ReturnOrder *-> warehouse1
ReturnOrder *-> email1

OrderBook *- -> "1" UniqueOrderList
ReturnOrderBook *- -> "1" UniqueReturnOrderList
UniqueReturnOrderList o- -> "*" ReturnOrder
UniqueOrderList o- -> "*" Order


ModelManager - ->"1" Order : filtered
ModelManager -right->"1" ReturnOrder : filtered
@enduml

PlantUML version 1.2020.03beta6(Unknown compile time)
(GPL source distribution)
Java Runtime: OpenJDK Runtime Environment
JVM: OpenJDK 64-Bit Server VM
Java Version: 11.0.5+10-b520.38
Operating System: Mac OS X
Default Encoding: UTF-8
Language: en
Country: SG
--></g></svg>
