<?xml version="1.0" encoding="UTF-8" standalone="no"?><svg xmlns="http://www.w3.org/2000/svg" xmlns:xlink="http://www.w3.org/1999/xlink" contentScriptType="application/ecmascript" contentStyleType="text/css" height="619.5px" preserveAspectRatio="none" style="width:940px;height:619px;" version="1.1" viewBox="0 0 940 619" width="940.1px" zoomAndPan="magnify"><defs/><g><rect fill="#C8C8FA" height="604.543" style="stroke: #A80036; stroke-width: 0.7;" width="810.6" x="56" y="2.8"/><text fill="#FFFFFF" font-family="sans-serif" font-size="10.5" font-weight="bold" lengthAdjust="spacingAndGlyphs" textLength="27.3" x="446.25" y="13.6999">Logic</text><rect fill="#F97181" height="604.543" style="stroke: #A80036; stroke-width: 0.7;" width="64.4" x="868" y="2.8"/><text fill="#FFFFFF" font-family="sans-serif" font-size="10.5" font-weight="bold" lengthAdjust="spacingAndGlyphs" textLength="30.8" x="883.4" y="13.6999">Model</text><rect fill="#FFFFFF" height="534.6633" style="stroke: #A80036; stroke-width: 0.7;" width="7" x="100.1" y="64.2797"/><rect fill="#FFFFFF" height="164.2375" style="stroke: #A80036; stroke-width: 0.7;" width="7" x="236.6" y="85.5258"/><rect fill="#FFFFFF" height="22.8266" style="stroke: #A80036; stroke-width: 0.7;" width="7" x="361.9" y="102.3258"/><rect fill="#FFFFFF" height="72.3188" style="stroke: #A80036; stroke-width: 0.7;" width="7" x="361.9" y="146.3984"/><rect fill="#FFFFFF" height="34.2727" style="stroke: #A80036; stroke-width: 0.7;" width="7" x="489.3" y="163.1984"/><rect fill="#FFFFFF" height="318.1336" style="stroke: #A80036; stroke-width: 0.7;" width="7" x="489.3" y="271.0094"/><rect fill="#FFFFFF" height="28.9461" style="stroke: #A80036; stroke-width: 0.7;" width="7" x="492.8" y="297.8555"/><rect fill="#FFFFFF" height="161.957" style="stroke: #A80036; stroke-width: 0.7;" width="7" x="492.8" y="401.0398"/><rect fill="#FFFFFF" height="28.9461" style="stroke: #A80036; stroke-width: 0.7;" width="7" x="496.3" y="431.3859"/><rect fill="#FFFFFF" height="21.2461" style="stroke: #A80036; stroke-width: 0.7;" width="7" x="671.3" y="352.9477"/><rect fill="#FFFFFF" height="34.2727" style="stroke: #A80036; stroke-width: 0.7;" width="7" x="798.35" y="503.2781"/><line style="stroke: #A80036; stroke-width: 0.7; stroke-dasharray: 5.0,5.0;" x1="103.6" x2="103.6" y1="41.6336" y2="611.543"/><line style="stroke: #A80036; stroke-width: 0.7; stroke-dasharray: 5.0,5.0;" x1="239.75" x2="239.75" y1="41.6336" y2="611.543"/><line style="stroke: #A80036; stroke-width: 0.7; stroke-dasharray: 5.0,5.0;" x1="365.05" x2="365.05" y1="113.0391" y2="611.543"/><line style="stroke: #A80036; stroke-width: 0.7; stroke-dasharray: 5.0,5.0;" x1="492.45" x2="492.45" y1="173.9117" y2="611.543"/><line style="stroke: #A80036; stroke-width: 0.7; stroke-dasharray: 5.0,5.0;" x1="674.8" x2="674.8" y1="41.6336" y2="611.543"/><line style="stroke: #A80036; stroke-width: 0.7; stroke-dasharray: 5.0,5.0;" x1="801.5" x2="801.5" y1="513.9914" y2="611.543"/><line style="stroke: #A80036; stroke-width: 0.7; stroke-dasharray: 5.0,5.0;" x1="900.2" x2="900.2" y1="41.6336" y2="611.543"/><rect fill="#3333C4" height="22.1266" style="stroke: #A80036; stroke-width: 1.0499999999999998;" width="75.6" x="65.8" y="18.807"/><text fill="#FFFFFF" font-family="sans-serif" font-size="9.8" lengthAdjust="spacingAndGlyphs" textLength="65.8" x="70.7" y="33.8803">:LogicManager</text><rect fill="#3333C4" height="22.1266" style="stroke: #A80036; stroke-width: 1.0499999999999998;" width="90.3" x="194.95" y="18.807"/><text fill="#FFFFFF" font-family="sans-serif" font-size="9.8" lengthAdjust="spacingAndGlyphs" textLength="80.5" x="199.85" y="33.8803">:OrderBookParser</text><rect fill="#3333C4" height="22.1266" style="stroke: #A80036; stroke-width: 1.0499999999999998;" width="102.2" x="623.7" y="18.807"/><text fill="#FFFFFF" font-family="sans-serif" font-size="9.8" lengthAdjust="spacingAndGlyphs" textLength="92.4" x="628.6" y="33.8803">:NearbyCommandUtil</text><rect fill="#9D0012" height="22.1266" style="stroke: #A80036; stroke-width: 1.0499999999999998;" width="44.8" x="877.8" y="18.807"/><text fill="#FFFFFF" font-family="sans-serif" font-size="9.8" lengthAdjust="spacingAndGlyphs" textLength="29.4" x="885.5" y="33.8803">:Model</text><rect fill="#FFFFFF" height="534.6633" style="stroke: #A80036; stroke-width: 0.7;" width="7" x="100.1" y="64.2797"/><rect fill="#FFFFFF" height="164.2375" style="stroke: #A80036; stroke-width: 0.7;" width="7" x="236.6" y="85.5258"/><rect fill="#FFFFFF" height="22.8266" style="stroke: #A80036; stroke-width: 0.7;" width="7" x="361.9" y="102.3258"/><rect fill="#FFFFFF" height="72.3188" style="stroke: #A80036; stroke-width: 0.7;" width="7" x="361.9" y="146.3984"/><rect fill="#FFFFFF" height="34.2727" style="stroke: #A80036; stroke-width: 0.7;" width="7" x="489.3" y="163.1984"/><rect fill="#FFFFFF" height="318.1336" style="stroke: #A80036; stroke-width: 0.7;" width="7" x="489.3" y="271.0094"/><rect fill="#FFFFFF" height="28.9461" style="stroke: #A80036; stroke-width: 0.7;" width="7" x="492.8" y="297.8555"/><rect fill="#FFFFFF" height="161.957" style="stroke: #A80036; stroke-width: 0.7;" width="7" x="492.8" y="401.0398"/><rect fill="#FFFFFF" height="28.9461" style="stroke: #A80036; stroke-width: 0.7;" width="7" x="496.3" y="431.3859"/><rect fill="#FFFFFF" height="21.2461" style="stroke: #A80036; stroke-width: 0.7;" width="7" x="671.3" y="352.9477"/><rect fill="#FFFFFF" height="34.2727" style="stroke: #A80036; stroke-width: 0.7;" width="7" x="798.35" y="503.2781"/><polygon fill="#A80036" points="91.7,61.4797,98.7,64.2797,91.7,67.0797,94.5,64.2797" style="stroke: #A80036; stroke-width: 0.7;"/><line style="stroke: #A80036; stroke-width: 0.7;" x1="2.1" x2="95.9" y1="64.2797" y2="64.2797"/><text fill="#000000" font-family="sans-serif" font-size="9.1" lengthAdjust="spacingAndGlyphs" textLength="84.7" x="8.75" y="60.8802">execute("nearby 14")</text><polygon fill="#A80036" points="228.2,82.7258,235.2,85.5258,228.2,88.3258,231,85.5258" style="stroke: #A80036; stroke-width: 0.7;"/><line style="stroke: #A80036; stroke-width: 0.7;" x1="107.1" x2="232.4" y1="85.5258" y2="85.5258"/><text fill="#000000" font-family="sans-serif" font-size="9.1" lengthAdjust="spacingAndGlyphs" textLength="116.2" x="113.75" y="82.1263">parseCommand("nearby 14")</text><polygon fill="#A80036" points="297.85,92.5258,304.85,95.3258,297.85,98.1258,300.65,95.3258" style="stroke: #A80036; stroke-width: 0.7;"/><line style="stroke: #A80036; stroke-width: 0.7;" x1="243.6" x2="302.05" y1="95.3258" y2="95.3258"/><rect fill="#3333C4" height="22.1266" style="stroke: #A80036; stroke-width: 1.0499999999999998;" width="118.3" x="306.25" y="91.1258"/><text fill="#FFFFFF" font-family="sans-serif" font-size="9.8" lengthAdjust="spacingAndGlyphs" textLength="108.5" x="311.15" y="106.199">:NearbyCommandParser</text><polygon fill="#A80036" points="251.3,122.3523,244.3,125.1523,251.3,127.9523,248.5,125.1523" style="stroke: #A80036; stroke-width: 0.7;"/><line style="stroke: #A80036; stroke-width: 0.7; stroke-dasharray: 2.0,2.0;" x1="247.1" x2="364.7" y1="125.1523" y2="125.1523"/><polygon fill="#A80036" points="353.5,143.5984,360.5,146.3984,353.5,149.1984,356.3,146.3984" style="stroke: #A80036; stroke-width: 0.7;"/><line style="stroke: #A80036; stroke-width: 0.7;" x1="243.6" x2="357.7" y1="146.3984" y2="146.3984"/><text fill="#000000" font-family="sans-serif" font-size="9.1" lengthAdjust="spacingAndGlyphs" textLength="44.8" x="280.35" y="142.9989">parse("14")</text><polygon fill="#A80036" points="437.15,153.3984,444.15,156.1984,437.15,158.9984,439.95,156.1984" style="stroke: #A80036; stroke-width: 0.7;"/><line style="stroke: #A80036; stroke-width: 0.7;" x1="368.9" x2="441.35" y1="156.1984" y2="156.1984"/><rect fill="#3333C4" height="22.1266" style="stroke: #A80036; stroke-width: 1.0499999999999998;" width="94.5" x="445.55" y="151.9984"/><text fill="#FFFFFF" font-family="sans-serif" font-size="9.8" lengthAdjust="spacingAndGlyphs" textLength="84.7" x="450.45" y="167.0717">n:NearbyCommand</text><polygon fill="#A80036" points="376.6,194.6711,369.6,197.4711,376.6,200.2711,373.8,197.4711" style="stroke: #A80036; stroke-width: 0.7;"/><line style="stroke: #A80036; stroke-width: 0.7; stroke-dasharray: 2.0,2.0;" x1="372.4" x2="492.1" y1="197.4711" y2="197.4711"/><text fill="#000000" font-family="sans-serif" font-size="9.1" lengthAdjust="spacingAndGlyphs" textLength="4.9" x="428.4" y="194.0716">n</text><polygon fill="#A80036" points="251.3,215.9172,244.3,218.7172,251.3,221.5172,248.5,218.7172" style="stroke: #A80036; stroke-width: 0.7;"/><line style="stroke: #A80036; stroke-width: 0.7; stroke-dasharray: 2.0,2.0;" x1="247.1" x2="364.7" y1="218.7172" y2="218.7172"/><text fill="#000000" font-family="sans-serif" font-size="9.1" lengthAdjust="spacingAndGlyphs" textLength="4.9" x="302.05" y="215.3177">n</text><line style="stroke: #A80036; stroke-width: 1.4;" x1="359.1" x2="371.7" y1="222.2172" y2="234.8172"/><line style="stroke: #A80036; stroke-width: 1.4;" x1="359.1" x2="371.7" y1="234.8172" y2="222.2172"/><polygon fill="#A80036" points="114.8,246.9633,107.8,249.7633,114.8,252.5633,112,249.7633" style="stroke: #A80036; stroke-width: 0.7;"/><line style="stroke: #A80036; stroke-width: 0.7; stroke-dasharray: 2.0,2.0;" x1="110.6" x2="239.4" y1="249.7633" y2="249.7633"/><text fill="#000000" font-family="sans-serif" font-size="9.1" lengthAdjust="spacingAndGlyphs" textLength="4.9" x="171.15" y="246.3638">n</text><polygon fill="#A80036" points="480.9,268.2094,487.9,271.0094,480.9,273.8094,483.7,271.0094" style="stroke: #A80036; stroke-width: 0.7;"/><line style="stroke: #A80036; stroke-width: 0.7;" x1="107.1" x2="485.1" y1="271.0094" y2="271.0094"/><text fill="#000000" font-family="sans-serif" font-size="9.1" lengthAdjust="spacingAndGlyphs" textLength="37.8" x="279.3" y="267.6099">execute()</text><line style="stroke: #A80036; stroke-width: 0.7;" x1="496.3" x2="529.2" y1="288.7555" y2="288.7555"/><line style="stroke: #A80036; stroke-width: 0.7;" x1="529.2" x2="529.2" y1="288.7555" y2="297.8555"/><line style="stroke: #A80036; stroke-width: 0.7;" x1="500.5" x2="529.2" y1="297.8555" y2="297.8555"/><polygon fill="#A80036" points="507.5,295.0555,500.5,297.8555,507.5,300.6555,504.7,297.8555" style="stroke: #A80036; stroke-width: 0.7;"/><text fill="#000000" font-family="sans-serif" font-size="9.1" lengthAdjust="spacingAndGlyphs" textLength="93.8" x="504.7" y="285.356">isPostalSectorSearch()</text><line style="stroke: #A80036; stroke-width: 0.7; stroke-dasharray: 2.0,2.0;" x1="499.8" x2="529.2" y1="326.1016" y2="326.1016"/><line style="stroke: #A80036; stroke-width: 0.7; stroke-dasharray: 2.0,2.0;" x1="529.2" x2="529.2" y1="326.1016" y2="335.2016"/><line style="stroke: #A80036; stroke-width: 0.7; stroke-dasharray: 2.0,2.0;" x1="496.3" x2="529.2" y1="335.2016" y2="335.2016"/><polygon fill="#A80036" points="503.3,332.4016,496.3,335.2016,503.3,338.0016,500.5,335.2016" style="stroke: #A80036; stroke-width: 0.7;"/><text fill="#000000" font-family="sans-serif" font-size="9.1" lengthAdjust="spacingAndGlyphs" textLength="15.4" x="504.7" y="322.7021">true</text><polygon fill="#A80036" points="662.9,350.1477,669.9,352.9477,662.9,355.7477,665.7,352.9477" style="stroke: #A80036; stroke-width: 0.7;"/><line style="stroke: #A80036; stroke-width: 0.7;" x1="496.3" x2="667.1" y1="352.9477" y2="352.9477"/><text fill="#000000" font-family="sans-serif" font-size="9.1" lengthAdjust="spacingAndGlyphs" textLength="95.2" x="536.2" y="349.5481">isValidPostalSector(14)</text><polygon fill="#A80036" points="504,371.3937,497,374.1937,504,376.9938,501.2,374.1937" style="stroke: #A80036; stroke-width: 0.7;"/><line style="stroke: #A80036; stroke-width: 0.7; stroke-dasharray: 2.0,2.0;" x1="499.8" x2="674.1" y1="374.1937" y2="374.1937"/><text fill="#000000" font-family="sans-serif" font-size="9.1" lengthAdjust="spacingAndGlyphs" textLength="15.4" x="577.85" y="370.7942">true</text><line style="stroke: #A80036; stroke-width: 0.7;" x1="496.3" x2="529.2" y1="391.9398" y2="391.9398"/><line style="stroke: #A80036; stroke-width: 0.7;" x1="529.2" x2="529.2" y1="391.9398" y2="401.0398"/><line style="stroke: #A80036; stroke-width: 0.7;" x1="500.5" x2="529.2" y1="401.0398" y2="401.0398"/><polygon fill="#A80036" points="507.5,398.2398,500.5,401.0398,507.5,403.8398,504.7,401.0398" style="stroke: #A80036; stroke-width: 0.7;"/><text fill="#000000" font-family="sans-serif" font-size="9.1" lengthAdjust="spacingAndGlyphs" textLength="165.2" x="504.7" y="388.5403">showPostalSectors(model, postalSector)</text><line style="stroke: #A80036; stroke-width: 0.7;" x1="499.8" x2="532.7" y1="422.2859" y2="422.2859"/><line style="stroke: #A80036; stroke-width: 0.7;" x1="532.7" x2="532.7" y1="422.2859" y2="431.3859"/><line style="stroke: #A80036; stroke-width: 0.7;" x1="504" x2="532.7" y1="431.3859" y2="431.3859"/><polygon fill="#A80036" points="511,428.5859,504,431.3859,511,434.1859,508.2,431.3859" style="stroke: #A80036; stroke-width: 0.7;"/><text fill="#000000" font-family="sans-serif" font-size="9.1" lengthAdjust="spacingAndGlyphs" textLength="109.2" x="508.2" y="418.8864">getPostalSectorPredicate()</text><line style="stroke: #A80036; stroke-width: 0.7; stroke-dasharray: 2.0,2.0;" x1="503.3" x2="532.7" y1="459.632" y2="459.632"/><line style="stroke: #A80036; stroke-width: 0.7; stroke-dasharray: 2.0,2.0;" x1="532.7" x2="532.7" y1="459.632" y2="468.732"/><line style="stroke: #A80036; stroke-width: 0.7; stroke-dasharray: 2.0,2.0;" x1="499.8" x2="532.7" y1="468.732" y2="468.732"/><polygon fill="#A80036" points="506.8,465.932,499.8,468.732,506.8,471.532,504,468.732" style="stroke: #A80036; stroke-width: 0.7;"/><text fill="#000000" font-family="sans-serif" font-size="9.1" lengthAdjust="spacingAndGlyphs" textLength="58.8" x="508.2" y="456.2325">orderPredicate</text><polygon fill="#A80036" points="891.8,483.6781,898.8,486.4781,891.8,489.2781,894.6,486.4781" style="stroke: #A80036; stroke-width: 0.7;"/><line style="stroke: #A80036; stroke-width: 0.7;" x1="499.8" x2="896" y1="486.4781" y2="486.4781"/><text fill="#000000" font-family="sans-serif" font-size="9.1" lengthAdjust="spacingAndGlyphs" textLength="158.9" x="620.55" y="483.0786">updateFilteredOrderList(orderPredicate)</text><polygon fill="#A80036" points="738.5,493.4781,745.5,496.2781,738.5,499.0781,741.3,496.2781" style="stroke: #A80036; stroke-width: 0.7;"/><line style="stroke: #A80036; stroke-width: 0.7;" x1="499.8" x2="742.7" y1="496.2781" y2="496.2781"/><rect fill="#3333C4" height="22.1266" style="stroke: #A80036; stroke-width: 1.0499999999999998;" width="109.9" x="746.9" y="492.0781"/><text fill="#FFFFFF" font-family="sans-serif" font-size="9.8" lengthAdjust="spacingAndGlyphs" textLength="100.1" x="751.8" y="507.1514">result:CommandResult</text><polygon fill="#A80036" points="507.5,534.7508,500.5,537.5508,507.5,540.3508,504.7,537.5508" style="stroke: #A80036; stroke-width: 0.7;"/><line style="stroke: #A80036; stroke-width: 0.7; stroke-dasharray: 2.0,2.0;" x1="503.3" x2="801.15" y1="537.5508" y2="537.5508"/><text fill="#000000" font-family="sans-serif" font-size="9.1" lengthAdjust="spacingAndGlyphs" textLength="22.4" x="639.625" y="534.1513">result</text><line style="stroke: #A80036; stroke-width: 0.7; stroke-dasharray: 2.0,2.0;" x1="499.8" x2="529.2" y1="562.2969" y2="562.2969"/><line style="stroke: #A80036; stroke-width: 0.7; stroke-dasharray: 2.0,2.0;" x1="529.2" x2="529.2" y1="562.2969" y2="571.3969"/><line style="stroke: #A80036; stroke-width: 0.7; stroke-dasharray: 2.0,2.0;" x1="496.3" x2="529.2" y1="571.3969" y2="571.3969"/><polygon fill="#A80036" points="503.3,568.5969,496.3,571.3969,503.3,574.1969,500.5,571.3969" style="stroke: #A80036; stroke-width: 0.7;"/><text fill="#000000" font-family="sans-serif" font-size="9.1" lengthAdjust="spacingAndGlyphs" textLength="22.4" x="504.7" y="558.8974">result</text><polygon fill="#A80036" points="114.8,586.343,107.8,589.143,114.8,591.943,112,589.143" style="stroke: #A80036; stroke-width: 0.7;"/><line style="stroke: #A80036; stroke-width: 0.7; stroke-dasharray: 2.0,2.0;" x1="110.6" x2="492.1" y1="589.143" y2="589.143"/><text fill="#000000" font-family="sans-serif" font-size="9.1" lengthAdjust="spacingAndGlyphs" textLength="22.4" x="288.75" y="585.7435">result</text><polygon fill="#A80036" points="9.8,596.143,2.8,598.943,9.8,601.743,7,598.943" style="stroke: #A80036; stroke-width: 0.7;"/><line style="stroke: #A80036; stroke-width: 0.7; stroke-dasharray: 2.0,2.0;" x1="5.6" x2="102.9" y1="598.943" y2="598.943"/><!--MD5=[b0efdfc1effd93f1620ca8d9623d5e42]
@startuml

skinparam BackgroundColor #FFFFFFF

skinparam Shadowing false

skinparam Class {
    FontColor #FFFFFF
    BorderThickness 1
    BorderColor #FFFFFF
    StereotypeFontColor #FFFFFF
    FontName Arial
}

skinparam Actor {
    BorderColor #000000
    Color #000000
    FontName Arial
}

skinparam Sequence {
    MessageAlign center
    BoxFontSize 15
    BoxPadding 0
    BoxFontColor #FFFFFF
    FontName Arial
}

skinparam Participant {
    FontColor #FFFFFFF
    Padding 20
}

skinparam MinClassWidth 50
skinparam ParticipantPadding 10
skinparam Shadowing false
skinparam DefaultTextAlignment center
skinparam packageStyle Rectangle

hide footbox
hide members
hide circle
box Logic #C8C8FA
participant ":LogicManager" as LogicManager #3333C4
participant ":OrderBookParser" as OrderBookParser #3333C4
participant ":NearbyCommandParser" as NearbyCommandParser #3333C4
participant "n:NearbyCommand" as NearbyCommand #3333C4
participant ":NearbyCommandUtil" as NearbyCommandUtil #3333C4
participant "result:CommandResult" as CommandResult #3333C4
end box

box Model #F97181
participant ":Model" as Model #9D0012
end box

[-> LogicManager : execute("nearby 14")
activate LogicManager

LogicManager -> OrderBookParser : parseCommand("nearby 14")
activate OrderBookParser

create NearbyCommandParser
OrderBookParser -> NearbyCommandParser
activate NearbyCommandParser

NearbyCommandParser - -> OrderBookParser
deactivate NearbyCommandParser

OrderBookParser -> NearbyCommandParser : parse("14")
activate NearbyCommandParser

create NearbyCommand
NearbyCommandParser -> NearbyCommand
activate NearbyCommand

NearbyCommand - -> NearbyCommandParser : n
deactivate NearbyCommand

NearbyCommandParser - -> OrderBookParser : n
deactivate NearbyCommandParser
NearbyCommandParser -[hidden]-> OrderBookParser
destroy NearbyCommandParser

OrderBookParser - -> LogicManager : n
deactivate OrderBookParser

LogicManager -> NearbyCommand : execute()
activate NearbyCommand

NearbyCommand -> NearbyCommand: isPostalSectorSearch()
activate NearbyCommand
NearbyCommand - -> NearbyCommand: true
deactivate NearbyCommand

NearbyCommand -> NearbyCommandUtil: isValidPostalSector(14)
activate NearbyCommandUtil
NearbyCommandUtil - -> NearbyCommand: true
deactivate NearbyCommandUtil

NearbyCommand -> NearbyCommand: showPostalSectors(model, postalSector)
activate NearbyCommand
NearbyCommand -> NearbyCommand: getPostalSectorPredicate()
activate NearbyCommand
NearbyCommand - -> NearbyCommand: orderPredicate
deactivate NearbyCommand
NearbyCommand -> Model: updateFilteredOrderList(orderPredicate)

create CommandResult
NearbyCommand -> CommandResult
activate CommandResult

CommandResult - -> NearbyCommand: result
deactivate CommandResult
NearbyCommand - -> NearbyCommand: result
deactivate NearbyCommand

NearbyCommand - -> LogicManager : result
deactivate NearbyCommand

[<- -LogicManager
deactivate LogicManager
@enduml

PlantUML version 1.2020.03beta6(Unknown compile time)
(GPL source distribution)
Java Runtime: OpenJDK Runtime Environment
JVM: OpenJDK 64-Bit Server VM
Java Version: 11.0.5+10-b520.38
Operating System: Windows 10
Default Encoding: Cp1252
Language: en
Country: SG
--></g></svg>
