<?xml version="1.0" encoding="UTF-8" standalone="no"?><svg xmlns="http://www.w3.org/2000/svg" xmlns:xlink="http://www.w3.org/1999/xlink" contentScriptType="application/ecmascript" contentStyleType="text/css" height="649.6px" preserveAspectRatio="none" style="width:1060px;height:649px;" version="1.1" viewBox="0 0 1060 649" width="1060px" zoomAndPan="magnify"><defs/><g><rect fill="#C8C8FA" height="632.7438" style="stroke: #A80036; stroke-width: 0.8;" width="880.4" x="96" y="3.2"/><text fill="#FFFFFF" font-family="sans-serif" font-size="12" font-weight="bold" lengthAdjust="spacingAndGlyphs" textLength="31.2" x="519" y="15.657">Logic</text><rect fill="#F97181" height="632.7438" style="stroke: #A80036; stroke-width: 0.8;" width="73.6" x="978" y="3.2"/><text fill="#FFFFFF" font-family="sans-serif" font-size="12" font-weight="bold" lengthAdjust="spacingAndGlyphs" textLength="35.2" x="995.6" y="15.657">Model</text><rect fill="#FFFFFF" height="552.8813" style="stroke: #A80036; stroke-width: 0.8;" width="8" x="146.4" y="73.4625"/><rect fill="#FFFFFF" height="187.7" style="stroke: #A80036; stroke-width: 0.8;" width="8" x="334.4" y="97.7438"/><rect fill="#FFFFFF" height="26.0875" style="stroke: #A80036; stroke-width: 0.8;" width="8" x="466" y="116.9438"/><rect fill="#FFFFFF" height="82.65" style="stroke: #A80036; stroke-width: 0.8;" width="8" x="466" y="167.3125"/><rect fill="#FFFFFF" height="39.1688" style="stroke: #A80036; stroke-width: 0.8;" width="8" x="611.6" y="186.5125"/><rect fill="#FFFFFF" height="292.3375" style="stroke: #A80036; stroke-width: 0.8;" width="8" x="611.6" y="309.725"/><rect fill="#FFFFFF" height="183.2125" style="stroke: #A80036; stroke-width: 0.8;" width="8" x="615.6" y="388.9688"/><rect fill="#FFFFFF" height="55.4813" style="stroke: #A80036; stroke-width: 0.8;" width="8" x="619.6" y="423.65"/><rect fill="#FFFFFF" height="24.2813" style="stroke: #A80036; stroke-width: 0.8;" width="8" x="778" y="334.0063"/><rect fill="#FFFFFF" height="39.1688" style="stroke: #A80036; stroke-width: 0.8;" width="8" x="898.4" y="503.9313"/><rect fill="#FFFFFF" height="11.2" style="stroke: #A80036; stroke-width: 0.8;" width="8" x="1010.8" y="451.9313"/><line style="stroke: #A80036; stroke-width: 0.8; stroke-dasharray: 5.0,5.0;" x1="150.4" x2="150.4" y1="47.5813" y2="640.7438"/><line style="stroke: #A80036; stroke-width: 0.8; stroke-dasharray: 5.0,5.0;" x1="338.4" x2="338.4" y1="47.5813" y2="640.7438"/><line style="stroke: #A80036; stroke-width: 0.8; stroke-dasharray: 5.0,5.0;" x1="469.6" x2="469.6" y1="129.1875" y2="640.7438"/><line style="stroke: #A80036; stroke-width: 0.8; stroke-dasharray: 5.0,5.0;" x1="615.2" x2="615.2" y1="198.7563" y2="640.7438"/><line style="stroke: #A80036; stroke-width: 0.8; stroke-dasharray: 5.0,5.0;" x1="782" x2="782" y1="47.5813" y2="640.7438"/><line style="stroke: #A80036; stroke-width: 0.8; stroke-dasharray: 5.0,5.0;" x1="902" x2="902" y1="516.175" y2="640.7438"/><line style="stroke: #A80036; stroke-width: 0.8; stroke-dasharray: 5.0,5.0;" x1="1014.8" x2="1014.8" y1="47.5813" y2="640.7438"/><rect fill="#3333C4" height="25.2875" style="stroke: #A80036; stroke-width: 1.2000000000000002;" width="86.4" x="107.2" y="21.4938"/><text fill="#FFFFFF" font-family="sans-serif" font-size="11.2" lengthAdjust="spacingAndGlyphs" textLength="75.2" x="112.8" y="38.7203">:LogicManager</text><rect fill="#3333C4" height="25.2875" style="stroke: #A80036; stroke-width: 1.2000000000000002;" width="80" x="298.4" y="21.4938"/><text fill="#FFFFFF" font-family="sans-serif" font-size="11.2" lengthAdjust="spacingAndGlyphs" textLength="68.8" x="304" y="38.7203">:DelinoParser</text><rect fill="#3333C4" height="25.2875" style="stroke: #A80036; stroke-width: 1.2000000000000002;" width="67.2" x="748.4" y="21.4938"/><text fill="#FFFFFF" font-family="sans-serif" font-size="11.2" lengthAdjust="spacingAndGlyphs" textLength="56" x="754" y="38.7203">:DistrictInfo</text><rect fill="#9D0012" height="25.2875" style="stroke: #A80036; stroke-width: 1.2000000000000002;" width="51.2" x="989.2" y="21.4938"/><text fill="#FFFFFF" font-family="sans-serif" font-size="11.2" lengthAdjust="spacingAndGlyphs" textLength="33.6" x="998" y="38.7203">:Model</text><rect fill="#FFFFFF" height="552.8813" style="stroke: #A80036; stroke-width: 0.8;" width="8" x="146.4" y="73.4625"/><rect fill="#FFFFFF" height="187.7" style="stroke: #A80036; stroke-width: 0.8;" width="8" x="334.4" y="97.7438"/><rect fill="#FFFFFF" height="26.0875" style="stroke: #A80036; stroke-width: 0.8;" width="8" x="466" y="116.9438"/><rect fill="#FFFFFF" height="82.65" style="stroke: #A80036; stroke-width: 0.8;" width="8" x="466" y="167.3125"/><rect fill="#FFFFFF" height="39.1688" style="stroke: #A80036; stroke-width: 0.8;" width="8" x="611.6" y="186.5125"/><rect fill="#FFFFFF" height="292.3375" style="stroke: #A80036; stroke-width: 0.8;" width="8" x="611.6" y="309.725"/><rect fill="#FFFFFF" height="183.2125" style="stroke: #A80036; stroke-width: 0.8;" width="8" x="615.6" y="388.9688"/><rect fill="#FFFFFF" height="55.4813" style="stroke: #A80036; stroke-width: 0.8;" width="8" x="619.6" y="423.65"/><rect fill="#FFFFFF" height="24.2813" style="stroke: #A80036; stroke-width: 0.8;" width="8" x="778" y="334.0063"/><rect fill="#FFFFFF" height="39.1688" style="stroke: #A80036; stroke-width: 0.8;" width="8" x="898.4" y="503.9313"/><rect fill="#FFFFFF" height="11.2" style="stroke: #A80036; stroke-width: 0.8;" width="8" x="1010.8" y="451.9313"/><polygon fill="#A80036" points="136.8,70.2625,144.8,73.4625,136.8,76.6625,140,73.4625" style="stroke: #A80036; stroke-width: 0.8;"/><line style="stroke: #A80036; stroke-width: 0.8;" x1="2.4" x2="141.6" y1="73.4625" y2="73.4625"/><text fill="#000000" font-family="sans-serif" font-size="10.4" lengthAdjust="spacingAndGlyphs" textLength="128.8" x="10" y="69.5773">execute("nearby -o central")</text><polygon fill="#A80036" points="324.8,94.5438,332.8,97.7438,324.8,100.9438,328,97.7438" style="stroke: #A80036; stroke-width: 0.8;"/><line style="stroke: #A80036; stroke-width: 0.8;" x1="154.4" x2="329.6" y1="97.7438" y2="97.7438"/><text fill="#000000" font-family="sans-serif" font-size="10.4" lengthAdjust="spacingAndGlyphs" textLength="164.8" x="162" y="93.8586">parseCommand("nearby -o central")</text><polygon fill="#A80036" points="392.8,105.7438,400.8,108.9438,392.8,112.1438,396,108.9438" style="stroke: #A80036; stroke-width: 0.8;"/><line style="stroke: #A80036; stroke-width: 0.8;" x1="342.4" x2="397.6" y1="108.9438" y2="108.9438"/><rect fill="#3333C4" height="25.2875" style="stroke: #A80036; stroke-width: 1.2000000000000002;" width="135.2" x="402.4" y="104.1438"/><text fill="#FFFFFF" font-family="sans-serif" font-size="11.2" lengthAdjust="spacingAndGlyphs" textLength="124" x="408" y="121.3703">:NearbyCommandParser</text><polygon fill="#A80036" points="351.2,139.8313,343.2,143.0313,351.2,146.2313,348,143.0313" style="stroke: #A80036; stroke-width: 0.8;"/><line style="stroke: #A80036; stroke-width: 0.8; stroke-dasharray: 2.0,2.0;" x1="346.4" x2="469.2" y1="143.0313" y2="143.0313"/><polygon fill="#A80036" points="456.4,164.1125,464.4,167.3125,456.4,170.5125,459.6,167.3125" style="stroke: #A80036; stroke-width: 0.8;"/><line style="stroke: #A80036; stroke-width: 0.8;" x1="342.4" x2="461.2" y1="167.3125" y2="167.3125"/><text fill="#000000" font-family="sans-serif" font-size="10.4" lengthAdjust="spacingAndGlyphs" textLength="86.4" x="361" y="163.4273">parse(" -o central")</text><polygon fill="#A80036" points="552,175.3125,560,178.5125,552,181.7125,555.2,178.5125" style="stroke: #A80036; stroke-width: 0.8;"/><line style="stroke: #A80036; stroke-width: 0.8;" x1="474" x2="556.8" y1="178.5125" y2="178.5125"/><rect fill="#3333C4" height="25.2875" style="stroke: #A80036; stroke-width: 1.2000000000000002;" width="108" x="561.6" y="173.7125"/><text fill="#FFFFFF" font-family="sans-serif" font-size="11.2" lengthAdjust="spacingAndGlyphs" textLength="96.8" x="567.2" y="190.9391">n:NearbyCommand</text><polygon fill="#A80036" points="482.8,222.4813,474.8,225.6813,482.8,228.8813,479.6,225.6813" style="stroke: #A80036; stroke-width: 0.8;"/><line style="stroke: #A80036; stroke-width: 0.8; stroke-dasharray: 2.0,2.0;" x1="478" x2="614.8" y1="225.6813" y2="225.6813"/><text fill="#000000" font-family="sans-serif" font-size="10.4" lengthAdjust="spacingAndGlyphs" textLength="5.6" x="542" y="221.7961">n</text><polygon fill="#A80036" points="351.2,246.7625,343.2,249.9625,351.2,253.1625,348,249.9625" style="stroke: #A80036; stroke-width: 0.8;"/><line style="stroke: #A80036; stroke-width: 0.8; stroke-dasharray: 2.0,2.0;" x1="346.4" x2="469.2" y1="249.9625" y2="249.9625"/><text fill="#000000" font-family="sans-serif" font-size="10.4" lengthAdjust="spacingAndGlyphs" textLength="5.6" x="403.4" y="246.0773">n</text><line style="stroke: #A80036; stroke-width: 1.6;" x1="462.8" x2="477.2" y1="253.9625" y2="268.3625"/><line style="stroke: #A80036; stroke-width: 1.6;" x1="462.8" x2="477.2" y1="268.3625" y2="253.9625"/><polygon fill="#A80036" points="163.2,282.2438,155.2,285.4438,163.2,288.6438,160,285.4438" style="stroke: #A80036; stroke-width: 0.8;"/><line style="stroke: #A80036; stroke-width: 0.8; stroke-dasharray: 2.0,2.0;" x1="158.4" x2="337.6" y1="285.4438" y2="285.4438"/><text fill="#000000" font-family="sans-serif" font-size="10.4" lengthAdjust="spacingAndGlyphs" textLength="5.6" x="243.6" y="281.5586">n</text><polygon fill="#A80036" points="602,306.525,610,309.725,602,312.925,605.2,309.725" style="stroke: #A80036; stroke-width: 0.8;"/><line style="stroke: #A80036; stroke-width: 0.8;" x1="154.4" x2="606.8" y1="309.725" y2="309.725"/><text fill="#000000" font-family="sans-serif" font-size="10.4" lengthAdjust="spacingAndGlyphs" textLength="71.2" x="347.4" y="305.8398">execute(model)</text><polygon fill="#A80036" points="768.4,330.8063,776.4,334.0063,768.4,337.2063,771.6,334.0063" style="stroke: #A80036; stroke-width: 0.8;"/><line style="stroke: #A80036; stroke-width: 0.8;" x1="619.6" x2="773.2" y1="334.0063" y2="334.0063"/><text fill="#000000" font-family="sans-serif" font-size="10.4" lengthAdjust="spacingAndGlyphs" textLength="98.4" x="649.6" y="330.1211">isValidArea("central")</text><polygon fill="#A80036" points="628.4,355.0875,620.4,358.2875,628.4,361.4875,625.2,358.2875" style="stroke: #A80036; stroke-width: 0.8;"/><line style="stroke: #A80036; stroke-width: 0.8; stroke-dasharray: 2.0,2.0;" x1="623.6" x2="781.2" y1="358.2875" y2="358.2875"/><text fill="#000000" font-family="sans-serif" font-size="10.4" lengthAdjust="spacingAndGlyphs" textLength="17.6" x="692" y="354.4023">true</text><line style="stroke: #A80036; stroke-width: 0.8;" x1="619.6" x2="657.2" y1="378.5688" y2="378.5688"/><line style="stroke: #A80036; stroke-width: 0.8;" x1="657.2" x2="657.2" y1="378.5688" y2="388.9688"/><line style="stroke: #A80036; stroke-width: 0.8;" x1="624.4" x2="657.2" y1="388.9688" y2="388.9688"/><polygon fill="#A80036" points="632.4,385.7688,624.4,388.9688,632.4,392.1688,629.2,388.9688" style="stroke: #A80036; stroke-width: 0.8;"/><text fill="#000000" font-family="sans-serif" font-size="10.4" lengthAdjust="spacingAndGlyphs" textLength="147.2" x="629.2" y="374.6836">getAreaCommandResult(model)</text><line style="stroke: #A80036; stroke-width: 0.8;" x1="623.6" x2="661.2" y1="413.25" y2="413.25"/><line style="stroke: #A80036; stroke-width: 0.8;" x1="661.2" x2="661.2" y1="413.25" y2="423.65"/><line style="stroke: #A80036; stroke-width: 0.8;" x1="628.4" x2="661.2" y1="423.65" y2="423.65"/><polygon fill="#A80036" points="636.4,420.45,628.4,423.65,636.4,426.85,633.2,423.65" style="stroke: #A80036; stroke-width: 0.8;"/><text fill="#000000" font-family="sans-serif" font-size="10.4" lengthAdjust="spacingAndGlyphs" textLength="80" x="633.2" y="409.3648">showArea(model)</text><polygon fill="#A80036" points="1001.2,448.7313,1009.2,451.9313,1001.2,455.1313,1004.4,451.9313" style="stroke: #A80036; stroke-width: 0.8;"/><line style="stroke: #A80036; stroke-width: 0.8;" x1="627.6" x2="1006" y1="451.9313" y2="451.9313"/><text fill="#000000" font-family="sans-serif" font-size="10.4" lengthAdjust="spacingAndGlyphs" textLength="181.6" x="728.4" y="448.0461">updateFilteredOrderList(orderPredicate)</text><polygon fill="#A80036" points="636.4,459.9313,628.4,463.1313,636.4,466.3313,633.2,463.1313" style="stroke: #A80036; stroke-width: 0.8;"/><line style="stroke: #A80036; stroke-width: 0.8; stroke-dasharray: 2.0,2.0;" x1="631.6" x2="1014" y1="463.1313" y2="463.1313"/><line style="stroke: #A80036; stroke-width: 0.8; stroke-dasharray: 2.0,2.0;" x1="627.6" x2="661.2" y1="478.3313" y2="478.3313"/><line style="stroke: #A80036; stroke-width: 0.8; stroke-dasharray: 2.0,2.0;" x1="661.2" x2="661.2" y1="478.3313" y2="488.7313"/><line style="stroke: #A80036; stroke-width: 0.8; stroke-dasharray: 2.0,2.0;" x1="623.6" x2="661.2" y1="488.7313" y2="488.7313"/><polygon fill="#A80036" points="631.6,485.5313,623.6,488.7313,631.6,491.9313,628.4,488.7313" style="stroke: #A80036; stroke-width: 0.8;"/><polygon fill="#A80036" points="830,492.7313,838,495.9313,830,499.1313,833.2,495.9313" style="stroke: #A80036; stroke-width: 0.8;"/><line style="stroke: #A80036; stroke-width: 0.8;" x1="623.6" x2="834.8" y1="495.9313" y2="495.9313"/><rect fill="#3333C4" height="25.2875" style="stroke: #A80036; stroke-width: 1.2000000000000002;" width="125.6" x="839.6" y="491.1313"/><text fill="#FFFFFF" font-family="sans-serif" font-size="11.2" lengthAdjust="spacingAndGlyphs" textLength="114.4" x="845.2" y="508.3578">result:CommandResult</text><polygon fill="#A80036" points="632.4,539.9,624.4,543.1,632.4,546.3,629.2,543.1" style="stroke: #A80036; stroke-width: 0.8;"/><line style="stroke: #A80036; stroke-width: 0.8; stroke-dasharray: 2.0,2.0;" x1="627.6" x2="901.6" y1="543.1" y2="543.1"/><text fill="#000000" font-family="sans-serif" font-size="10.4" lengthAdjust="spacingAndGlyphs" textLength="25.6" x="750.2" y="539.2148">result</text><line style="stroke: #A80036; stroke-width: 0.8; stroke-dasharray: 2.0,2.0;" x1="623.6" x2="657.2" y1="571.3813" y2="571.3813"/><line style="stroke: #A80036; stroke-width: 0.8; stroke-dasharray: 2.0,2.0;" x1="657.2" x2="657.2" y1="571.3813" y2="581.7813"/><line style="stroke: #A80036; stroke-width: 0.8; stroke-dasharray: 2.0,2.0;" x1="619.6" x2="657.2" y1="581.7813" y2="581.7813"/><polygon fill="#A80036" points="627.6,578.5813,619.6,581.7813,627.6,584.9813,624.4,581.7813" style="stroke: #A80036; stroke-width: 0.8;"/><text fill="#000000" font-family="sans-serif" font-size="10.4" lengthAdjust="spacingAndGlyphs" textLength="25.6" x="629.2" y="567.4961">result</text><polygon fill="#A80036" points="163.2,598.8625,155.2,602.0625,163.2,605.2625,160,602.0625" style="stroke: #A80036; stroke-width: 0.8;"/><line style="stroke: #A80036; stroke-width: 0.8; stroke-dasharray: 2.0,2.0;" x1="158.4" x2="614.8" y1="602.0625" y2="602.0625"/><text fill="#000000" font-family="sans-serif" font-size="10.4" lengthAdjust="spacingAndGlyphs" textLength="25.6" x="372.2" y="598.1773">result</text><polygon fill="#A80036" points="11.2,623.1438,3.2,626.3438,11.2,629.5438,8,626.3438" style="stroke: #A80036; stroke-width: 0.8;"/><line style="stroke: #A80036; stroke-width: 0.8; stroke-dasharray: 2.0,2.0;" x1="6.4" x2="149.6" y1="626.3438" y2="626.3438"/><text fill="#000000" font-family="sans-serif" font-size="10.4" lengthAdjust="spacingAndGlyphs" textLength="25.6" x="63.6" y="622.4586">result</text><!--MD5=[3c6d97ea44fbe4f7cd5bee8b95249c05]
@startuml

skinparam BackgroundColor #FFFFFFF

skinparam Shadowing false

skinparam Class {
    FontColor #FFFFFF
    BorderThickness 1
    BorderColor #FFFFFF
    StereotypeFontColor #FFFFFF
    FontName Arial
}

skinparam Actor {
    BorderColor #000000
    Color #000000
    FontName Arial
}

skinparam Sequence {
    MessageAlign center
    BoxFontSize 15
    BoxPadding 0
    BoxFontColor #FFFFFF
    FontName Arial
}

skinparam Participant {
    FontColor #FFFFFFF
    Padding 20
}

skinparam MinClassWidth 50
skinparam ParticipantPadding 10
skinparam Shadowing false
skinparam DefaultTextAlignment center
skinparam packageStyle Rectangle

hide footbox
hide members
hide circle
box Logic #C8C8FA
participant ":LogicManager" as LogicManager #3333C4
participant ":DelinoParser" as DelinoParser #3333C4
participant ":NearbyCommandParser" as NearbyCommandParser #3333C4
participant "n:NearbyCommand" as NearbyCommand #3333C4
participant ":DistrictInfo" as DistrictInfo #3333C4
participant "result:CommandResult" as CommandResult #3333C4
end box

box Model #F97181
participant ":Model" as Model #9D0012
end box

[-> LogicManager : execute("nearby -o central")
activate LogicManager

LogicManager -> DelinoParser : parseCommand("nearby -o central")
activate DelinoParser

create NearbyCommandParser
DelinoParser -> NearbyCommandParser
activate NearbyCommandParser

NearbyCommandParser - -> DelinoParser
deactivate NearbyCommandParser

DelinoParser -> NearbyCommandParser : parse(" -o central")
activate NearbyCommandParser

create NearbyCommand
NearbyCommandParser -> NearbyCommand
activate NearbyCommand

NearbyCommand - -> NearbyCommandParser : n
deactivate NearbyCommand

NearbyCommandParser - -> DelinoParser : n
deactivate NearbyCommandParser
NearbyCommandParser -[hidden]-> DelinoParser
destroy NearbyCommandParser

DelinoParser - -> LogicManager : n
deactivate DelinoParser

LogicManager -> NearbyCommand : execute(model)
activate NearbyCommand

NearbyCommand -> DistrictInfo: isValidArea("central")
activate DistrictInfo
DistrictInfo - -> NearbyCommand: true
deactivate DistrictInfo

NearbyCommand -> NearbyCommand : getAreaCommandResult(model)
activate NearbyCommand
NearbyCommand -> NearbyCommand : showArea(model)
activate NearbyCommand
NearbyCommand -> Model++ : updateFilteredOrderList(orderPredicate)
Model - -> NearbyCommand
deactivate Model
NearbyCommand - -> NearbyCommand
deactivate NearbyCommand

create CommandResult
NearbyCommand -> CommandResult
activate CommandResult

CommandResult - -> NearbyCommand: result
deactivate CommandResult
NearbyCommand - -> NearbyCommand: result
deactivate NearbyCommand

NearbyCommand - -> LogicManager : result
deactivate NearbyCommand

[<- -LogicManager: result
deactivate LogicManager
@enduml

PlantUML version 1.2020.03beta6(Unknown compile time)
(GPL source distribution)
Java Runtime: OpenJDK Runtime Environment
JVM: OpenJDK 64-Bit Server VM
Java Version: 11.0.6+8-b520.43
Operating System: Windows 10
Default Encoding: Cp1252
Language: en
Country: SG
--></g></svg>
