<?xml version="1.0" encoding="UTF-8" standalone="no"?><svg xmlns="http://www.w3.org/2000/svg" xmlns:xlink="http://www.w3.org/1999/xlink" contentScriptType="application/ecmascript" contentStyleType="text/css" height="719.2px" preserveAspectRatio="none" style="width:1083px;height:719px;" version="1.1" viewBox="0 0 1083 719" width="1083.2px" zoomAndPan="magnify"><defs/><g><rect fill="#C8C8FA" height="702.1063" style="stroke: #A80036; stroke-width: 0.8;" width="923.6" x="76" y="3.2"/><text fill="#FFFFFF" font-family="sans-serif" font-size="12" font-weight="bold" lengthAdjust="spacingAndGlyphs" textLength="31.2" x="520.6" y="15.657">Logic</text><rect fill="#F97181" height="702.1063" style="stroke: #A80036; stroke-width: 0.8;" width="73.6" x="1001.2" y="3.2"/><text fill="#FFFFFF" font-family="sans-serif" font-size="12" font-weight="bold" lengthAdjust="spacingAndGlyphs" textLength="35.2" x="1018.8" y="15.657">Model</text><rect fill="#FFFFFF" height="622.2438" style="stroke: #A80036; stroke-width: 0.8;" width="8" x="126.4" y="73.4625"/><rect fill="#FFFFFF" height="187.7" style="stroke: #A80036; stroke-width: 0.8;" width="8" x="294.4" y="97.7438"/><rect fill="#FFFFFF" height="26.0875" style="stroke: #A80036; stroke-width: 0.8;" width="8" x="426" y="116.9438"/><rect fill="#FFFFFF" height="82.65" style="stroke: #A80036; stroke-width: 0.8;" width="8" x="426" y="167.3125"/><rect fill="#FFFFFF" height="39.1688" style="stroke: #A80036; stroke-width: 0.8;" width="8" x="571.6" y="186.5125"/><rect fill="#FFFFFF" height="361.7" style="stroke: #A80036; stroke-width: 0.8;" width="8" x="571.6" y="309.725"/><rect fill="#FFFFFF" height="33.0813" style="stroke: #A80036; stroke-width: 0.8;" width="8" x="575.6" y="340.4063"/><rect fill="#FFFFFF" height="231.775" style="stroke: #A80036; stroke-width: 0.8;" width="8" x="575.6" y="409.7688"/><rect fill="#FFFFFF" height="55.4813" style="stroke: #A80036; stroke-width: 0.8;" width="8" x="579.6" y="493.0125"/><rect fill="#FFFFFF" height="24.2813" style="stroke: #A80036; stroke-width: 0.8;" width="8" x="776.4" y="438.05"/><rect fill="#FFFFFF" height="39.1688" style="stroke: #A80036; stroke-width: 0.8;" width="8" x="921.6" y="573.2938"/><rect fill="#FFFFFF" height="11.2" style="stroke: #A80036; stroke-width: 0.8;" width="8" x="1034" y="521.2938"/><line style="stroke: #A80036; stroke-width: 0.8; stroke-dasharray: 5.0,5.0;" x1="130.4" x2="130.4" y1="47.5813" y2="710.1063"/><line style="stroke: #A80036; stroke-width: 0.8; stroke-dasharray: 5.0,5.0;" x1="298.4" x2="298.4" y1="47.5813" y2="710.1063"/><line style="stroke: #A80036; stroke-width: 0.8; stroke-dasharray: 5.0,5.0;" x1="429.6" x2="429.6" y1="129.1875" y2="710.1063"/><line style="stroke: #A80036; stroke-width: 0.8; stroke-dasharray: 5.0,5.0;" x1="575.2" x2="575.2" y1="198.7563" y2="710.1063"/><line style="stroke: #A80036; stroke-width: 0.8; stroke-dasharray: 5.0,5.0;" x1="780.4" x2="780.4" y1="47.5813" y2="710.1063"/><line style="stroke: #A80036; stroke-width: 0.8; stroke-dasharray: 5.0,5.0;" x1="925.2" x2="925.2" y1="585.5375" y2="710.1063"/><line style="stroke: #A80036; stroke-width: 0.8; stroke-dasharray: 5.0,5.0;" x1="1038" x2="1038" y1="47.5813" y2="710.1063"/><rect fill="#3333C4" height="25.2875" style="stroke: #A80036; stroke-width: 1.2000000000000002;" width="86.4" x="87.2" y="21.4938"/><text fill="#FFFFFF" font-family="sans-serif" font-size="11.2" lengthAdjust="spacingAndGlyphs" textLength="75.2" x="92.8" y="38.7203">:LogicManager</text><rect fill="#3333C4" height="25.2875" style="stroke: #A80036; stroke-width: 1.2000000000000002;" width="80" x="258.4" y="21.4938"/><text fill="#FFFFFF" font-family="sans-serif" font-size="11.2" lengthAdjust="spacingAndGlyphs" textLength="68.8" x="264" y="38.7203">:DelinoParser</text><rect fill="#3333C4" height="25.2875" style="stroke: #A80036; stroke-width: 1.2000000000000002;" width="116.8" x="722" y="21.4938"/><text fill="#FFFFFF" font-family="sans-serif" font-size="11.2" lengthAdjust="spacingAndGlyphs" textLength="105.6" x="727.6" y="38.7203">:NearbyCommandUtil</text><rect fill="#9D0012" height="25.2875" style="stroke: #A80036; stroke-width: 1.2000000000000002;" width="51.2" x="1012.4" y="21.4938"/><text fill="#FFFFFF" font-family="sans-serif" font-size="11.2" lengthAdjust="spacingAndGlyphs" textLength="33.6" x="1021.2" y="38.7203">:Model</text><rect fill="#FFFFFF" height="622.2438" style="stroke: #A80036; stroke-width: 0.8;" width="8" x="126.4" y="73.4625"/><rect fill="#FFFFFF" height="187.7" style="stroke: #A80036; stroke-width: 0.8;" width="8" x="294.4" y="97.7438"/><rect fill="#FFFFFF" height="26.0875" style="stroke: #A80036; stroke-width: 0.8;" width="8" x="426" y="116.9438"/><rect fill="#FFFFFF" height="82.65" style="stroke: #A80036; stroke-width: 0.8;" width="8" x="426" y="167.3125"/><rect fill="#FFFFFF" height="39.1688" style="stroke: #A80036; stroke-width: 0.8;" width="8" x="571.6" y="186.5125"/><rect fill="#FFFFFF" height="361.7" style="stroke: #A80036; stroke-width: 0.8;" width="8" x="571.6" y="309.725"/><rect fill="#FFFFFF" height="33.0813" style="stroke: #A80036; stroke-width: 0.8;" width="8" x="575.6" y="340.4063"/><rect fill="#FFFFFF" height="231.775" style="stroke: #A80036; stroke-width: 0.8;" width="8" x="575.6" y="409.7688"/><rect fill="#FFFFFF" height="55.4813" style="stroke: #A80036; stroke-width: 0.8;" width="8" x="579.6" y="493.0125"/><rect fill="#FFFFFF" height="24.2813" style="stroke: #A80036; stroke-width: 0.8;" width="8" x="776.4" y="438.05"/><rect fill="#FFFFFF" height="39.1688" style="stroke: #A80036; stroke-width: 0.8;" width="8" x="921.6" y="573.2938"/><rect fill="#FFFFFF" height="11.2" style="stroke: #A80036; stroke-width: 0.8;" width="8" x="1034" y="521.2938"/><polygon fill="#A80036" points="116.8,70.2625,124.8,73.4625,116.8,76.6625,120,73.4625" style="stroke: #A80036; stroke-width: 0.8;"/><line style="stroke: #A80036; stroke-width: 0.8;" x1="2.4" x2="121.6" y1="73.4625" y2="73.4625"/><text fill="#000000" font-family="sans-serif" font-size="10.4" lengthAdjust="spacingAndGlyphs" textLength="108.8" x="10" y="69.5773">execute("nearby -o 14")</text><polygon fill="#A80036" points="284.8,94.5438,292.8,97.7438,284.8,100.9438,288,97.7438" style="stroke: #A80036; stroke-width: 0.8;"/><line style="stroke: #A80036; stroke-width: 0.8;" x1="134.4" x2="289.6" y1="97.7438" y2="97.7438"/><text fill="#000000" font-family="sans-serif" font-size="10.4" lengthAdjust="spacingAndGlyphs" textLength="144.8" x="142" y="93.8586">parseCommand("nearby -o 14")</text><polygon fill="#A80036" points="352.8,105.7438,360.8,108.9438,352.8,112.1438,356,108.9438" style="stroke: #A80036; stroke-width: 0.8;"/><line style="stroke: #A80036; stroke-width: 0.8;" x1="302.4" x2="357.6" y1="108.9438" y2="108.9438"/><rect fill="#3333C4" height="25.2875" style="stroke: #A80036; stroke-width: 1.2000000000000002;" width="135.2" x="362.4" y="104.1438"/><text fill="#FFFFFF" font-family="sans-serif" font-size="11.2" lengthAdjust="spacingAndGlyphs" textLength="124" x="368" y="121.3703">:NearbyCommandParser</text><polygon fill="#A80036" points="311.2,139.8313,303.2,143.0313,311.2,146.2313,308,143.0313" style="stroke: #A80036; stroke-width: 0.8;"/><line style="stroke: #A80036; stroke-width: 0.8; stroke-dasharray: 2.0,2.0;" x1="306.4" x2="429.2" y1="143.0313" y2="143.0313"/><polygon fill="#A80036" points="416.4,164.1125,424.4,167.3125,416.4,170.5125,419.6,167.3125" style="stroke: #A80036; stroke-width: 0.8;"/><line style="stroke: #A80036; stroke-width: 0.8;" x1="302.4" x2="421.2" y1="167.3125" y2="167.3125"/><text fill="#000000" font-family="sans-serif" font-size="10.4" lengthAdjust="spacingAndGlyphs" textLength="66.4" x="331" y="163.4273">parse(" -o 14")</text><polygon fill="#A80036" points="512,175.3125,520,178.5125,512,181.7125,515.2,178.5125" style="stroke: #A80036; stroke-width: 0.8;"/><line style="stroke: #A80036; stroke-width: 0.8;" x1="434" x2="516.8" y1="178.5125" y2="178.5125"/><rect fill="#3333C4" height="25.2875" style="stroke: #A80036; stroke-width: 1.2000000000000002;" width="108" x="521.6" y="173.7125"/><text fill="#FFFFFF" font-family="sans-serif" font-size="11.2" lengthAdjust="spacingAndGlyphs" textLength="96.8" x="527.2" y="190.9391">n:NearbyCommand</text><polygon fill="#A80036" points="442.8,222.4813,434.8,225.6813,442.8,228.8813,439.6,225.6813" style="stroke: #A80036; stroke-width: 0.8;"/><line style="stroke: #A80036; stroke-width: 0.8; stroke-dasharray: 2.0,2.0;" x1="438" x2="574.8" y1="225.6813" y2="225.6813"/><text fill="#000000" font-family="sans-serif" font-size="10.4" lengthAdjust="spacingAndGlyphs" textLength="5.6" x="502" y="221.7961">n</text><polygon fill="#A80036" points="311.2,246.7625,303.2,249.9625,311.2,253.1625,308,249.9625" style="stroke: #A80036; stroke-width: 0.8;"/><line style="stroke: #A80036; stroke-width: 0.8; stroke-dasharray: 2.0,2.0;" x1="306.4" x2="429.2" y1="249.9625" y2="249.9625"/><text fill="#000000" font-family="sans-serif" font-size="10.4" lengthAdjust="spacingAndGlyphs" textLength="5.6" x="363.4" y="246.0773">n</text><line style="stroke: #A80036; stroke-width: 1.6;" x1="422.8" x2="437.2" y1="253.9625" y2="268.3625"/><line style="stroke: #A80036; stroke-width: 1.6;" x1="422.8" x2="437.2" y1="268.3625" y2="253.9625"/><polygon fill="#A80036" points="143.2,282.2438,135.2,285.4438,143.2,288.6438,140,285.4438" style="stroke: #A80036; stroke-width: 0.8;"/><line style="stroke: #A80036; stroke-width: 0.8; stroke-dasharray: 2.0,2.0;" x1="138.4" x2="297.6" y1="285.4438" y2="285.4438"/><text fill="#000000" font-family="sans-serif" font-size="10.4" lengthAdjust="spacingAndGlyphs" textLength="5.6" x="213.6" y="281.5586">n</text><polygon fill="#A80036" points="562,306.525,570,309.725,562,312.925,565.2,309.725" style="stroke: #A80036; stroke-width: 0.8;"/><line style="stroke: #A80036; stroke-width: 0.8;" x1="134.4" x2="566.8" y1="309.725" y2="309.725"/><text fill="#000000" font-family="sans-serif" font-size="10.4" lengthAdjust="spacingAndGlyphs" textLength="71.2" x="317.4" y="305.8398">execute(model)</text><line style="stroke: #A80036; stroke-width: 0.8;" x1="579.6" x2="617.2" y1="330.0063" y2="330.0063"/><line style="stroke: #A80036; stroke-width: 0.8;" x1="617.2" x2="617.2" y1="330.0063" y2="340.4063"/><line style="stroke: #A80036; stroke-width: 0.8;" x1="584.4" x2="617.2" y1="340.4063" y2="340.4063"/><polygon fill="#A80036" points="592.4,337.2063,584.4,340.4063,592.4,343.6063,589.2,340.4063" style="stroke: #A80036; stroke-width: 0.8;"/><text fill="#000000" font-family="sans-serif" font-size="10.4" lengthAdjust="spacingAndGlyphs" textLength="107.2" x="589.2" y="326.1211">isPostalSectorSearch()</text><line style="stroke: #A80036; stroke-width: 0.8; stroke-dasharray: 2.0,2.0;" x1="583.6" x2="617.2" y1="372.6875" y2="372.6875"/><line style="stroke: #A80036; stroke-width: 0.8; stroke-dasharray: 2.0,2.0;" x1="617.2" x2="617.2" y1="372.6875" y2="383.0875"/><line style="stroke: #A80036; stroke-width: 0.8; stroke-dasharray: 2.0,2.0;" x1="579.6" x2="617.2" y1="383.0875" y2="383.0875"/><polygon fill="#A80036" points="587.6,379.8875,579.6,383.0875,587.6,386.2875,584.4,383.0875" style="stroke: #A80036; stroke-width: 0.8;"/><text fill="#000000" font-family="sans-serif" font-size="10.4" lengthAdjust="spacingAndGlyphs" textLength="17.6" x="589.2" y="368.8023">true</text><line style="stroke: #A80036; stroke-width: 0.8;" x1="579.6" x2="617.2" y1="399.3688" y2="399.3688"/><line style="stroke: #A80036; stroke-width: 0.8;" x1="617.2" x2="617.2" y1="399.3688" y2="409.7688"/><line style="stroke: #A80036; stroke-width: 0.8;" x1="584.4" x2="617.2" y1="409.7688" y2="409.7688"/><polygon fill="#A80036" points="592.4,406.5688,584.4,409.7688,592.4,412.9688,589.2,409.7688" style="stroke: #A80036; stroke-width: 0.8;"/><text fill="#000000" font-family="sans-serif" font-size="10.4" lengthAdjust="spacingAndGlyphs" textLength="185.6" x="589.2" y="395.4836">getPostalSectorCommandResult(model)</text><polygon fill="#A80036" points="766.8,434.85,774.8,438.05,766.8,441.25,770,438.05" style="stroke: #A80036; stroke-width: 0.8;"/><line style="stroke: #A80036; stroke-width: 0.8;" x1="583.6" x2="771.6" y1="438.05" y2="438.05"/><text fill="#000000" font-family="sans-serif" font-size="10.4" lengthAdjust="spacingAndGlyphs" textLength="108.8" x="625.6" y="434.1648">isValidPostalSector(14)</text><polygon fill="#A80036" points="592.4,459.1313,584.4,462.3313,592.4,465.5313,589.2,462.3313" style="stroke: #A80036; stroke-width: 0.8;"/><line style="stroke: #A80036; stroke-width: 0.8; stroke-dasharray: 2.0,2.0;" x1="587.6" x2="779.6" y1="462.3313" y2="462.3313"/><text fill="#000000" font-family="sans-serif" font-size="10.4" lengthAdjust="spacingAndGlyphs" textLength="17.6" x="673.2" y="458.4461">true</text><line style="stroke: #A80036; stroke-width: 0.8;" x1="583.6" x2="621.2" y1="482.6125" y2="482.6125"/><line style="stroke: #A80036; stroke-width: 0.8;" x1="621.2" x2="621.2" y1="482.6125" y2="493.0125"/><line style="stroke: #A80036; stroke-width: 0.8;" x1="588.4" x2="621.2" y1="493.0125" y2="493.0125"/><polygon fill="#A80036" points="596.4,489.8125,588.4,493.0125,596.4,496.2125,593.2,493.0125" style="stroke: #A80036; stroke-width: 0.8;"/><text fill="#000000" font-family="sans-serif" font-size="10.4" lengthAdjust="spacingAndGlyphs" textLength="124" x="593.2" y="478.7273">showPostalSectors(model)</text><polygon fill="#A80036" points="1024.4,518.0938,1032.4,521.2938,1024.4,524.4938,1027.6,521.2938" style="stroke: #A80036; stroke-width: 0.8;"/><line style="stroke: #A80036; stroke-width: 0.8;" x1="587.6" x2="1029.2" y1="521.2938" y2="521.2938"/><text fill="#000000" font-family="sans-serif" font-size="10.4" lengthAdjust="spacingAndGlyphs" textLength="181.6" x="720" y="517.4086">updateFilteredOrderList(orderPredicate)</text><polygon fill="#A80036" points="596.4,529.2938,588.4,532.4938,596.4,535.6938,593.2,532.4938" style="stroke: #A80036; stroke-width: 0.8;"/><line style="stroke: #A80036; stroke-width: 0.8; stroke-dasharray: 2.0,2.0;" x1="591.6" x2="1037.2" y1="532.4938" y2="532.4938"/><line style="stroke: #A80036; stroke-width: 0.8; stroke-dasharray: 2.0,2.0;" x1="587.6" x2="621.2" y1="547.6938" y2="547.6938"/><line style="stroke: #A80036; stroke-width: 0.8; stroke-dasharray: 2.0,2.0;" x1="621.2" x2="621.2" y1="547.6938" y2="558.0938"/><line style="stroke: #A80036; stroke-width: 0.8; stroke-dasharray: 2.0,2.0;" x1="583.6" x2="621.2" y1="558.0938" y2="558.0938"/><polygon fill="#A80036" points="591.6,554.8938,583.6,558.0938,591.6,561.2938,588.4,558.0938" style="stroke: #A80036; stroke-width: 0.8;"/><polygon fill="#A80036" points="853.2,562.0938,861.2,565.2938,853.2,568.4938,856.4,565.2938" style="stroke: #A80036; stroke-width: 0.8;"/><line style="stroke: #A80036; stroke-width: 0.8;" x1="583.6" x2="858" y1="565.2938" y2="565.2938"/><rect fill="#3333C4" height="25.2875" style="stroke: #A80036; stroke-width: 1.2000000000000002;" width="125.6" x="862.8" y="560.4938"/><text fill="#FFFFFF" font-family="sans-serif" font-size="11.2" lengthAdjust="spacingAndGlyphs" textLength="114.4" x="868.4" y="577.7203">result:CommandResult</text><polygon fill="#A80036" points="592.4,609.2625,584.4,612.4625,592.4,615.6625,589.2,612.4625" style="stroke: #A80036; stroke-width: 0.8;"/><line style="stroke: #A80036; stroke-width: 0.8; stroke-dasharray: 2.0,2.0;" x1="587.6" x2="924.8" y1="612.4625" y2="612.4625"/><text fill="#000000" font-family="sans-serif" font-size="10.4" lengthAdjust="spacingAndGlyphs" textLength="25.6" x="741.8" y="608.5773">result</text><line style="stroke: #A80036; stroke-width: 0.8; stroke-dasharray: 2.0,2.0;" x1="583.6" x2="617.2" y1="640.7438" y2="640.7438"/><line style="stroke: #A80036; stroke-width: 0.8; stroke-dasharray: 2.0,2.0;" x1="617.2" x2="617.2" y1="640.7438" y2="651.1438"/><line style="stroke: #A80036; stroke-width: 0.8; stroke-dasharray: 2.0,2.0;" x1="579.6" x2="617.2" y1="651.1438" y2="651.1438"/><polygon fill="#A80036" points="587.6,647.9438,579.6,651.1438,587.6,654.3438,584.4,651.1438" style="stroke: #A80036; stroke-width: 0.8;"/><text fill="#000000" font-family="sans-serif" font-size="10.4" lengthAdjust="spacingAndGlyphs" textLength="25.6" x="589.2" y="636.8586">result</text><polygon fill="#A80036" points="143.2,668.225,135.2,671.425,143.2,674.625,140,671.425" style="stroke: #A80036; stroke-width: 0.8;"/><line style="stroke: #A80036; stroke-width: 0.8; stroke-dasharray: 2.0,2.0;" x1="138.4" x2="574.8" y1="671.425" y2="671.425"/><text fill="#000000" font-family="sans-serif" font-size="10.4" lengthAdjust="spacingAndGlyphs" textLength="25.6" x="342.2" y="667.5398">result</text><polygon fill="#A80036" points="11.2,692.5063,3.2,695.7063,11.2,698.9063,8,695.7063" style="stroke: #A80036; stroke-width: 0.8;"/><line style="stroke: #A80036; stroke-width: 0.8; stroke-dasharray: 2.0,2.0;" x1="6.4" x2="129.6" y1="695.7063" y2="695.7063"/><text fill="#000000" font-family="sans-serif" font-size="10.4" lengthAdjust="spacingAndGlyphs" textLength="25.6" x="53.6" y="691.8211">result</text><!--MD5=[86a077bbcfa8de14bf17d5ee2edd48bf]
@startuml

skinparam BackgroundColor #FFFFFFF

skinparam Shadowing false

skinparam Class {
    FontColor #FFFFFF
    BorderThickness 1
    BorderColor #FFFFFF
    StereotypeFontColor #FFFFFF
    FontName Arial
}

skinparam Actor {
    BorderColor #000000
    Color #000000
    FontName Arial
}

skinparam Sequence {
    MessageAlign center
    BoxFontSize 15
    BoxPadding 0
    BoxFontColor #FFFFFF
    FontName Arial
}

skinparam Participant {
    FontColor #FFFFFFF
    Padding 20
}

skinparam MinClassWidth 50
skinparam ParticipantPadding 10
skinparam Shadowing false
skinparam DefaultTextAlignment center
skinparam packageStyle Rectangle

hide footbox
hide members
hide circle
box Logic #C8C8FA
participant ":LogicManager" as LogicManager #3333C4
participant ":DelinoParser" as DelinoParser #3333C4
participant ":NearbyCommandParser" as NearbyCommandParser #3333C4
participant "n:NearbyCommand" as NearbyCommand #3333C4
participant ":NearbyCommandUtil" as NearbyCommandUtil #3333C4
participant "result:CommandResult" as CommandResult #3333C4
end box

box Model #F97181
participant ":Model" as Model #9D0012
end box

[-> LogicManager : execute("nearby -o 14")
activate LogicManager

LogicManager -> DelinoParser : parseCommand("nearby -o 14")
activate DelinoParser

create NearbyCommandParser
DelinoParser -> NearbyCommandParser
activate NearbyCommandParser

NearbyCommandParser - -> DelinoParser
deactivate NearbyCommandParser

DelinoParser -> NearbyCommandParser : parse(" -o 14")
activate NearbyCommandParser

create NearbyCommand
NearbyCommandParser -> NearbyCommand
activate NearbyCommand

NearbyCommand - -> NearbyCommandParser : n
deactivate NearbyCommand

NearbyCommandParser - -> DelinoParser : n
deactivate NearbyCommandParser
NearbyCommandParser -[hidden]-> DelinoParser
destroy NearbyCommandParser

DelinoParser - -> LogicManager : n
deactivate DelinoParser

LogicManager -> NearbyCommand : execute(model)
activate NearbyCommand

NearbyCommand -> NearbyCommand: isPostalSectorSearch()
activate NearbyCommand
NearbyCommand - -> NearbyCommand: true
deactivate NearbyCommand

NearbyCommand -> NearbyCommand: getPostalSectorCommandResult(model)
activate NearbyCommand

NearbyCommand -> NearbyCommandUtil: isValidPostalSector(14)
activate NearbyCommandUtil
NearbyCommandUtil - -> NearbyCommand: true
deactivate NearbyCommandUtil

NearbyCommand -> NearbyCommand: showPostalSectors(model)
activate NearbyCommand
NearbyCommand -> Model : updateFilteredOrderList(orderPredicate)
activate Model
Model - -> NearbyCommand
deactivate Model
NearbyCommand - -> NearbyCommand:
deactivate NearbyCommand

create CommandResult
NearbyCommand -> CommandResult
activate CommandResult

CommandResult - -> NearbyCommand: result
deactivate CommandResult
NearbyCommand - -> NearbyCommand: result
deactivate NearbyCommand
NearbyCommand - -> LogicManager : result
deactivate NearbyCommand

[<- -LogicManager : result
deactivate LogicManager
@enduml

PlantUML version 1.2020.03beta6(Unknown compile time)
(GPL source distribution)
Java Runtime: OpenJDK Runtime Environment
JVM: OpenJDK 64-Bit Server VM
Java Version: 11.0.6+8-b520.43
Operating System: Windows 10
Default Encoding: Cp1252
Language: en
Country: SG
--></g></svg>
