<?xml version="1.0" encoding="UTF-8" standalone="no"?><svg xmlns="http://www.w3.org/2000/svg" xmlns:xlink="http://www.w3.org/1999/xlink" contentScriptType="application/ecmascript" contentStyleType="text/css" height="885px" preserveAspectRatio="none" style="width:1373px;height:885px;" version="1.1" viewBox="0 0 1373 885" width="1373px" zoomAndPan="magnify"><defs/><g><rect fill="#C8C8FA" height="863.6328" style="stroke: #A80036; stroke-width: 1.0;" width="1173" x="95" y="4"/><text fill="#FFFFFF" font-family="sans-serif" font-size="15" font-weight="bold" lengthAdjust="spacingAndGlyphs" textLength="39" x="660" y="19.5713">Logic</text><rect fill="#F97181" height="863.6328" style="stroke: #A80036; stroke-width: 1.0;" width="92" x="1270" y="4"/><text fill="#FFFFFF" font-family="sans-serif" font-size="15" font-weight="bold" lengthAdjust="spacingAndGlyphs" textLength="44" x="1292" y="19.5713">Model</text><rect fill="#FFFFFF" height="763.8047" style="stroke: #A80036; stroke-width: 1.0;" width="10" x="158" y="91.8281"/><rect fill="#FFFFFF" height="234.625" style="stroke: #A80036; stroke-width: 1.0;" width="10" x="368" y="122.1797"/><rect fill="#FFFFFF" height="32.6094" style="stroke: #A80036; stroke-width: 1.0;" width="10" x="547" y="146.1797"/><rect fill="#FFFFFF" height="103.3125" style="stroke: #A80036; stroke-width: 1.0;" width="10" x="547" y="209.1406"/><rect fill="#FFFFFF" height="48.9609" style="stroke: #A80036; stroke-width: 1.0;" width="10" x="729" y="233.1406"/><rect fill="#FFFFFF" height="417.125" style="stroke: #A80036; stroke-width: 1.0;" width="10" x="729" y="387.1563"/><rect fill="#FFFFFF" height="41.3516" style="stroke: #A80036; stroke-width: 1.0;" width="10" x="734" y="425.5078"/><rect fill="#FFFFFF" height="41.3516" style="stroke: #A80036; stroke-width: 1.0;" width="10" x="734" y="616.2656"/><rect fill="#FFFFFF" height="30.3516" style="stroke: #A80036; stroke-width: 1.0;" width="10" x="989" y="504.2109"/><rect fill="#FFFFFF" height="48.9609" style="stroke: #A80036; stroke-width: 1.0;" width="10" x="1170.5" y="718.9688"/><line style="stroke: #A80036; stroke-width: 1.0; stroke-dasharray: 5.0,5.0;" x1="163" x2="163" y1="59.4766" y2="873.6328"/><line style="stroke: #A80036; stroke-width: 1.0; stroke-dasharray: 5.0,5.0;" x1="372.5" x2="372.5" y1="59.4766" y2="873.6328"/><line style="stroke: #A80036; stroke-width: 1.0; stroke-dasharray: 5.0,5.0;" x1="551.5" x2="551.5" y1="161.4844" y2="873.6328"/><line style="stroke: #A80036; stroke-width: 1.0; stroke-dasharray: 5.0,5.0;" x1="733.5" x2="733.5" y1="248.4453" y2="873.6328"/><line style="stroke: #A80036; stroke-width: 1.0; stroke-dasharray: 5.0,5.0;" x1="994" x2="994" y1="59.4766" y2="873.6328"/><line style="stroke: #A80036; stroke-width: 1.0; stroke-dasharray: 5.0,5.0;" x1="1175" x2="1175" y1="734.2734" y2="873.6328"/><line style="stroke: #A80036; stroke-width: 1.0; stroke-dasharray: 5.0,5.0;" x1="1316" x2="1316" y1="59.4766" y2="873.6328"/><rect fill="#3333C4" height="31.6094" style="stroke: #A80036; stroke-width: 1.5;" width="108" x="109" y="26.8672"/><text fill="#FFFFFF" font-family="sans-serif" font-size="14" lengthAdjust="spacingAndGlyphs" textLength="94" x="116" y="48.4004">:LogicManager</text><rect fill="#3333C4" height="31.6094" style="stroke: #A80036; stroke-width: 1.5;" width="129" x="308.5" y="26.8672"/><text fill="#FFFFFF" font-family="sans-serif" font-size="14" lengthAdjust="spacingAndGlyphs" textLength="115" x="315.5" y="48.4004">:OrderBookParser</text><rect fill="#3333C4" height="31.6094" style="stroke: #A80036; stroke-width: 1.5;" width="146" x="921" y="26.8672"/><text fill="#FFFFFF" font-family="sans-serif" font-size="14" lengthAdjust="spacingAndGlyphs" textLength="132" x="928" y="48.4004">:NearbyCommandUtil</text><rect fill="#9D0012" height="31.6094" style="stroke: #A80036; stroke-width: 1.5;" width="64" x="1284" y="26.8672"/><text fill="#FFFFFF" font-family="sans-serif" font-size="14" lengthAdjust="spacingAndGlyphs" textLength="42" x="1295" y="48.4004">:Model</text><rect fill="#FFFFFF" height="763.8047" style="stroke: #A80036; stroke-width: 1.0;" width="10" x="158" y="91.8281"/><rect fill="#FFFFFF" height="234.625" style="stroke: #A80036; stroke-width: 1.0;" width="10" x="368" y="122.1797"/><rect fill="#FFFFFF" height="32.6094" style="stroke: #A80036; stroke-width: 1.0;" width="10" x="547" y="146.1797"/><rect fill="#FFFFFF" height="103.3125" style="stroke: #A80036; stroke-width: 1.0;" width="10" x="547" y="209.1406"/><rect fill="#FFFFFF" height="48.9609" style="stroke: #A80036; stroke-width: 1.0;" width="10" x="729" y="233.1406"/><rect fill="#FFFFFF" height="417.125" style="stroke: #A80036; stroke-width: 1.0;" width="10" x="729" y="387.1563"/><rect fill="#FFFFFF" height="41.3516" style="stroke: #A80036; stroke-width: 1.0;" width="10" x="734" y="425.5078"/><rect fill="#FFFFFF" height="41.3516" style="stroke: #A80036; stroke-width: 1.0;" width="10" x="734" y="616.2656"/><rect fill="#FFFFFF" height="30.3516" style="stroke: #A80036; stroke-width: 1.0;" width="10" x="989" y="504.2109"/><rect fill="#FFFFFF" height="48.9609" style="stroke: #A80036; stroke-width: 1.0;" width="10" x="1170.5" y="718.9688"/><polygon fill="#A80036" points="146,87.8281,156,91.8281,146,95.8281,150,91.8281" style="stroke: #A80036; stroke-width: 1.0;"/><line style="stroke: #A80036; stroke-width: 1.0;" x1="3" x2="152" y1="91.8281" y2="91.8281"/><text fill="#000000" font-family="sans-serif" font-size="13" lengthAdjust="spacingAndGlyphs" textLength="136" x="12.5" y="86.9717">execute("nearby -o 14")</text><polygon fill="#A80036" points="356,118.1797,366,122.1797,356,126.1797,360,122.1797" style="stroke: #A80036; stroke-width: 1.0;"/><line style="stroke: #A80036; stroke-width: 1.0;" x1="168" x2="362" y1="122.1797" y2="122.1797"/><text fill="#000000" font-family="sans-serif" font-size="13" lengthAdjust="spacingAndGlyphs" textLength="181" x="177.5" y="117.3232">parseCommand("nearby -o 14")</text><polygon fill="#A80036" points="455.5,132.1797,465.5,136.1797,455.5,140.1797,459.5,136.1797" style="stroke: #A80036; stroke-width: 1.0;"/><line style="stroke: #A80036; stroke-width: 1.0;" x1="378" x2="461.5" y1="136.1797" y2="136.1797"/><rect fill="#3333C4" height="31.6094" style="stroke: #A80036; stroke-width: 1.5;" width="169" x="467.5" y="130.1797"/><text fill="#FFFFFF" font-family="sans-serif" font-size="14" lengthAdjust="spacingAndGlyphs" textLength="155" x="474.5" y="151.7129">:NearbyCommandParser</text><polygon fill="#A80036" points="389,174.7891,379,178.7891,389,182.7891,385,178.7891" style="stroke: #A80036; stroke-width: 1.0;"/><line style="stroke: #A80036; stroke-width: 1.0; stroke-dasharray: 2.0,2.0;" x1="383" x2="551" y1="178.7891" y2="178.7891"/><polygon fill="#A80036" points="535,205.1406,545,209.1406,535,213.1406,539,209.1406" style="stroke: #A80036; stroke-width: 1.0;"/><line style="stroke: #A80036; stroke-width: 1.0;" x1="378" x2="541" y1="209.1406" y2="209.1406"/><text fill="#000000" font-family="sans-serif" font-size="13" lengthAdjust="spacingAndGlyphs" textLength="83" x="421" y="204.2842">parse(" -o 14")</text><polygon fill="#A80036" points="654.5,219.1406,664.5,223.1406,654.5,227.1406,658.5,223.1406" style="stroke: #A80036; stroke-width: 1.0;"/><line style="stroke: #A80036; stroke-width: 1.0;" x1="557" x2="660.5" y1="223.1406" y2="223.1406"/><rect fill="#3333C4" height="31.6094" style="stroke: #A80036; stroke-width: 1.5;" width="135" x="666.5" y="217.1406"/><text fill="#FFFFFF" font-family="sans-serif" font-size="14" lengthAdjust="spacingAndGlyphs" textLength="121" x="673.5" y="238.6738">n:NearbyCommand</text><polygon fill="#A80036" points="568,278.1016,558,282.1016,568,286.1016,564,282.1016" style="stroke: #A80036; stroke-width: 1.0;"/><line style="stroke: #A80036; stroke-width: 1.0; stroke-dasharray: 2.0,2.0;" x1="562" x2="733" y1="282.1016" y2="282.1016"/><text fill="#000000" font-family="sans-serif" font-size="13" lengthAdjust="spacingAndGlyphs" textLength="7" x="642" y="277.2451">n</text><polygon fill="#A80036" points="389,308.4531,379,312.4531,389,316.4531,385,312.4531" style="stroke: #A80036; stroke-width: 1.0;"/><line style="stroke: #A80036; stroke-width: 1.0; stroke-dasharray: 2.0,2.0;" x1="383" x2="551" y1="312.4531" y2="312.4531"/><text fill="#000000" font-family="sans-serif" font-size="13" lengthAdjust="spacingAndGlyphs" textLength="7" x="461.5" y="307.5967">n</text><line style="stroke: #A80036; stroke-width: 2.0;" x1="543" x2="561" y1="317.4531" y2="335.4531"/><line style="stroke: #A80036; stroke-width: 2.0;" x1="543" x2="561" y1="335.4531" y2="317.4531"/><polygon fill="#A80036" points="179,352.8047,169,356.8047,179,360.8047,175,356.8047" style="stroke: #A80036; stroke-width: 1.0;"/><line style="stroke: #A80036; stroke-width: 1.0; stroke-dasharray: 2.0,2.0;" x1="173" x2="372" y1="356.8047" y2="356.8047"/><text fill="#000000" font-family="sans-serif" font-size="13" lengthAdjust="spacingAndGlyphs" textLength="7" x="267" y="351.9482">n</text><polygon fill="#A80036" points="717,383.1563,727,387.1563,717,391.1563,721,387.1563" style="stroke: #A80036; stroke-width: 1.0;"/><line style="stroke: #A80036; stroke-width: 1.0;" x1="168" x2="723" y1="387.1563" y2="387.1563"/><text fill="#000000" font-family="sans-serif" font-size="13" lengthAdjust="spacingAndGlyphs" textLength="54" x="421.5" y="382.2998">execute()</text><line style="stroke: #A80036; stroke-width: 1.0;" x1="739" x2="786" y1="412.5078" y2="412.5078"/><line style="stroke: #A80036; stroke-width: 1.0;" x1="786" x2="786" y1="412.5078" y2="425.5078"/><line style="stroke: #A80036; stroke-width: 1.0;" x1="745" x2="786" y1="425.5078" y2="425.5078"/><polygon fill="#A80036" points="755,421.5078,745,425.5078,755,429.5078,751,425.5078" style="stroke: #A80036; stroke-width: 1.0;"/><text fill="#000000" font-family="sans-serif" font-size="13" lengthAdjust="spacingAndGlyphs" textLength="134" x="751" y="407.6514">isPostalSectorSearch()</text><line style="stroke: #A80036; stroke-width: 1.0; stroke-dasharray: 2.0,2.0;" x1="744" x2="786" y1="465.8594" y2="465.8594"/><line style="stroke: #A80036; stroke-width: 1.0; stroke-dasharray: 2.0,2.0;" x1="786" x2="786" y1="465.8594" y2="478.8594"/><line style="stroke: #A80036; stroke-width: 1.0; stroke-dasharray: 2.0,2.0;" x1="739" x2="786" y1="478.8594" y2="478.8594"/><polygon fill="#A80036" points="749,474.8594,739,478.8594,749,482.8594,745,478.8594" style="stroke: #A80036; stroke-width: 1.0;"/><text fill="#000000" font-family="sans-serif" font-size="13" lengthAdjust="spacingAndGlyphs" textLength="22" x="751" y="461.0029">true</text><polygon fill="#A80036" points="977,500.2109,987,504.2109,977,508.2109,981,504.2109" style="stroke: #A80036; stroke-width: 1.0;"/><line style="stroke: #A80036; stroke-width: 1.0;" x1="739" x2="983" y1="504.2109" y2="504.2109"/><text fill="#000000" font-family="sans-serif" font-size="13" lengthAdjust="spacingAndGlyphs" textLength="136" x="796" y="499.3545">isValidPostalSector(14)</text><polygon fill="#A80036" points="750,530.5625,740,534.5625,750,538.5625,746,534.5625" style="stroke: #A80036; stroke-width: 1.0;"/><line style="stroke: #A80036; stroke-width: 1.0; stroke-dasharray: 2.0,2.0;" x1="744" x2="993" y1="534.5625" y2="534.5625"/><text fill="#000000" font-family="sans-serif" font-size="13" lengthAdjust="spacingAndGlyphs" textLength="22" x="855.5" y="529.7061">true</text><line style="stroke: #A80036; stroke-width: 1.0;" x1="739" x2="781" y1="564.9141" y2="564.9141"/><line style="stroke: #A80036; stroke-width: 1.0;" x1="781" x2="781" y1="564.9141" y2="577.9141"/><line style="stroke: #A80036; stroke-width: 1.0;" x1="740" x2="781" y1="577.9141" y2="577.9141"/><polygon fill="#A80036" points="750,573.9141,740,577.9141,750,581.9141,746,577.9141" style="stroke: #A80036; stroke-width: 1.0;"/><text fill="#000000" font-family="sans-serif" font-size="13" lengthAdjust="spacingAndGlyphs" textLength="236" x="746" y="560.0576">showPostalSectors(model, postalSector)</text><line style="stroke: #A80036; stroke-width: 1.0;" x1="739" x2="786" y1="603.2656" y2="603.2656"/><line style="stroke: #A80036; stroke-width: 1.0;" x1="786" x2="786" y1="603.2656" y2="616.2656"/><line style="stroke: #A80036; stroke-width: 1.0;" x1="745" x2="786" y1="616.2656" y2="616.2656"/><polygon fill="#A80036" points="755,612.2656,745,616.2656,755,620.2656,751,616.2656" style="stroke: #A80036; stroke-width: 1.0;"/><text fill="#000000" font-family="sans-serif" font-size="13" lengthAdjust="spacingAndGlyphs" textLength="156" x="751" y="598.4092">getPostalSectorPredicate()</text><line style="stroke: #A80036; stroke-width: 1.0; stroke-dasharray: 2.0,2.0;" x1="744" x2="786" y1="656.6172" y2="656.6172"/><line style="stroke: #A80036; stroke-width: 1.0; stroke-dasharray: 2.0,2.0;" x1="786" x2="786" y1="656.6172" y2="669.6172"/><line style="stroke: #A80036; stroke-width: 1.0; stroke-dasharray: 2.0,2.0;" x1="739" x2="786" y1="669.6172" y2="669.6172"/><polygon fill="#A80036" points="749,665.6172,739,669.6172,749,673.6172,745,669.6172" style="stroke: #A80036; stroke-width: 1.0;"/><text fill="#000000" font-family="sans-serif" font-size="13" lengthAdjust="spacingAndGlyphs" textLength="84" x="751" y="651.7607">orderPredicate</text><polygon fill="#A80036" points="1304,690.9688,1314,694.9688,1304,698.9688,1308,694.9688" style="stroke: #A80036; stroke-width: 1.0;"/><line style="stroke: #A80036; stroke-width: 1.0;" x1="739" x2="1310" y1="694.9688" y2="694.9688"/><text fill="#000000" font-family="sans-serif" font-size="13" lengthAdjust="spacingAndGlyphs" textLength="227" x="914" y="690.1123">updateFilteredOrderList(orderPredicate)</text><polygon fill="#A80036" points="1085,704.9688,1095,708.9688,1085,712.9688,1089,708.9688" style="stroke: #A80036; stroke-width: 1.0;"/><line style="stroke: #A80036; stroke-width: 1.0;" x1="739" x2="1091" y1="708.9688" y2="708.9688"/><rect fill="#3333C4" height="31.6094" style="stroke: #A80036; stroke-width: 1.5;" width="157" x="1097" y="702.9688"/><text fill="#FFFFFF" font-family="sans-serif" font-size="14" lengthAdjust="spacingAndGlyphs" textLength="143" x="1104" y="724.502">result:CommandResult</text><polygon fill="#A80036" points="750,763.9297,740,767.9297,750,771.9297,746,767.9297" style="stroke: #A80036; stroke-width: 1.0;"/><line style="stroke: #A80036; stroke-width: 1.0; stroke-dasharray: 2.0,2.0;" x1="744" x2="1174.5" y1="767.9297" y2="767.9297"/><text fill="#000000" font-family="sans-serif" font-size="13" lengthAdjust="spacingAndGlyphs" textLength="32" x="941.25" y="763.0732">result</text><line style="stroke: #A80036; stroke-width: 1.0; stroke-dasharray: 2.0,2.0;" x1="739" x2="781" y1="803.2813" y2="803.2813"/><line style="stroke: #A80036; stroke-width: 1.0; stroke-dasharray: 2.0,2.0;" x1="781" x2="781" y1="803.2813" y2="816.2813"/><line style="stroke: #A80036; stroke-width: 1.0; stroke-dasharray: 2.0,2.0;" x1="734" x2="781" y1="816.2813" y2="816.2813"/><polygon fill="#A80036" points="744,812.2813,734,816.2813,744,820.2813,740,816.2813" style="stroke: #A80036; stroke-width: 1.0;"/><text fill="#000000" font-family="sans-serif" font-size="13" lengthAdjust="spacingAndGlyphs" textLength="32" x="746" y="798.4248">result</text><polygon fill="#A80036" points="179,837.6328,169,841.6328,179,845.6328,175,841.6328" style="stroke: #A80036; stroke-width: 1.0;"/><line style="stroke: #A80036; stroke-width: 1.0; stroke-dasharray: 2.0,2.0;" x1="173" x2="733" y1="841.6328" y2="841.6328"/><text fill="#000000" font-family="sans-serif" font-size="13" lengthAdjust="spacingAndGlyphs" textLength="32" x="435" y="836.7764">result</text><polygon fill="#A80036" points="14,851.6328,4,855.6328,14,859.6328,10,855.6328" style="stroke: #A80036; stroke-width: 1.0;"/><line style="stroke: #A80036; stroke-width: 1.0; stroke-dasharray: 2.0,2.0;" x1="8" x2="162" y1="855.6328" y2="855.6328"/><!--MD5=[f0d36df642a1397610cee2e3d6cf2696]
@startuml








skinparam BackgroundColor #FFFFFFF

skinparam Shadowing false

skinparam Class {
    FontColor #FFFFFF
    BorderThickness 1
    BorderColor #FFFFFF
    StereotypeFontColor #FFFFFF
    FontName Arial
}

skinparam Actor {
    BorderColor #000000
    Color #000000
    FontName Arial
}

skinparam Sequence {
    MessageAlign center
    BoxFontSize 15
    BoxPadding 0
    BoxFontColor #FFFFFF
    FontName Arial
}

skinparam Participant {
    FontColor #FFFFFFF
    Padding 20
}

skinparam MinClassWidth 50
skinparam ParticipantPadding 10
skinparam Shadowing false
skinparam DefaultTextAlignment center
skinparam packageStyle Rectangle

hide footbox
hide members
hide circle
box Logic #C8C8FA
participant ":LogicManager" as LogicManager #3333C4
participant ":OrderBookParser" as OrderBookParser #3333C4
participant ":NearbyCommandParser" as NearbyCommandParser #3333C4
participant "n:NearbyCommand" as NearbyCommand #3333C4
participant ":NearbyCommandUtil" as NearbyCommandUtil #3333C4
participant "result:CommandResult" as CommandResult #3333C4
end box

box Model #F97181
participant ":Model" as Model #9D0012
end box

[-> LogicManager : execute("nearby -o 14")
activate LogicManager

LogicManager -> OrderBookParser : parseCommand("nearby -o 14")
activate OrderBookParser

create NearbyCommandParser
OrderBookParser -> NearbyCommandParser
activate NearbyCommandParser

NearbyCommandParser - -> OrderBookParser
deactivate NearbyCommandParser

OrderBookParser -> NearbyCommandParser : parse(" -o 14")
activate NearbyCommandParser

create NearbyCommand
NearbyCommandParser -> NearbyCommand
activate NearbyCommand

NearbyCommand - -> NearbyCommandParser : n
deactivate NearbyCommand

NearbyCommandParser - -> OrderBookParser : n
deactivate NearbyCommandParser
NearbyCommandParser -[hidden]-> OrderBookParser
destroy NearbyCommandParser

OrderBookParser - -> LogicManager : n
deactivate OrderBookParser

LogicManager -> NearbyCommand : execute()
activate NearbyCommand

NearbyCommand -> NearbyCommand: isPostalSectorSearch()
activate NearbyCommand
NearbyCommand - -> NearbyCommand: true
deactivate NearbyCommand

NearbyCommand -> NearbyCommandUtil: isValidPostalSector(14)
activate NearbyCommandUtil
NearbyCommandUtil - -> NearbyCommand: true
deactivate NearbyCommandUtil

NearbyCommand -> NearbyCommand: showPostalSectors(model, postalSector)

NearbyCommand -> NearbyCommand: getPostalSectorPredicate()
activate NearbyCommand
NearbyCommand - -> NearbyCommand: orderPredicate
deactivate NearbyCommand
NearbyCommand -> Model: updateFilteredOrderList(orderPredicate)

create CommandResult
NearbyCommand -> CommandResult
activate CommandResult

CommandResult - -> NearbyCommand: result
deactivate CommandResult
NearbyCommand - -> NearbyCommand: result
deactivate NearbyCommand

NearbyCommand - -> LogicManager : result
deactivate NearbyCommand

[<- -LogicManager
deactivate LogicManager
@enduml

PlantUML version 1.2020.03beta6(Unknown compile time)
(GPL source distribution)
Java Runtime: OpenJDK Runtime Environment
JVM: OpenJDK 64-Bit Server VM
Java Version: 11.0.6+8-b520.43
Operating System: Windows 10
Default Encoding: Cp1252
Language: en
Country: SG
--></g></svg>
