<?xml version="1.0" encoding="UTF-8" standalone="no"?><svg xmlns="http://www.w3.org/2000/svg" xmlns:xlink="http://www.w3.org/1999/xlink" contentScriptType="application/ecmascript" contentStyleType="text/css" height="577.5px" preserveAspectRatio="none" style="width:917px;height:577px;" version="1.1" viewBox="0 0 917 577" width="917.7px" zoomAndPan="magnify"><defs><filter height="300%" id="f1be2e8gt57wm2" width="300%" x="-1" y="-1"><feGaussianBlur result="blurOut" stdDeviation="1.4"/><feColorMatrix in="blurOut" result="blurOut2" type="matrix" values="0 0 0 0 0 0 0 0 0 0 0 0 0 0 0 0 0 0 .4 0"/><feOffset dx="2.8" dy="2.8" in="blurOut2" result="blurOut3"/><feBlend in="SourceGraphic" in2="blurOut3" mode="normal"/></filter></defs><g><!--MD5=[279f48b7e83476bc8afeea45f9ba12ab]
class DistrictInfo--><rect fill="#FEFECE" filter="url(#f1be2e8gt57wm2)" height="440.3766" id="DistrictInfo" style="stroke: #A80036; stroke-width: 1.0499999999999998;" width="193.2" x="4.2" y="129.5"/><ellipse cx="77.525" cy="140.7" fill="#ADD1B2" rx="7.7" ry="7.7" style="stroke: #A80036; stroke-width: 0.7;"/><path d="M78.925,138.25 Q79.0672,137.9 79.2312,137.725 Q79.3953,137.55 79.5813,137.55 Q79.9094,137.55 80.1172,137.7469 Q80.325,137.9438 80.325,138.4031 L80.325,139.4969 Q80.325,139.9562 80.1281,140.1531 Q79.9312,140.35 79.625,140.35 Q79.3516,140.35 79.1766,140.2297 Q79.0016,140.1094 78.925,139.7922 Q78.8922,139.5734 78.7719,139.4531 Q78.5531,139.2234 78.1594,139.0922 Q77.7656,138.95 77.3719,138.95 Q76.8797,138.95 76.4641,139.1469 Q76.0594,139.3438 75.7422,139.7813 Q75.425,140.2188 75.425,140.8203 L75.425,141.4656 Q75.425,142.1875 76.0156,142.6688 Q76.6062,143.15 77.6563,143.15 Q78.2797,143.15 78.7172,143.0078 Q78.9688,142.9312 79.2531,142.6797 Q79.4391,142.5375 79.5375,142.4937 Q79.6359,142.45 79.7563,142.45 Q79.9859,142.45 80.15,142.6359 Q80.325,142.8109 80.325,143.0625 Q80.325,143.3031 80.0844,143.5875 Q79.7344,144.0031 79.1766,144.2328 Q78.4438,144.55 77.5469,144.55 Q76.4969,144.55 75.6547,144.1344 Q74.9766,143.8062 74.4953,143.0953 Q74.025,142.3844 74.025,141.5422 L74.025,140.7766 Q74.025,139.9016 74.4406,139.1359 Q74.8672,138.3703 75.6,137.9656 Q76.3438,137.55 77.175,137.55 Q77.6781,137.55 78.1156,137.725 Q78.5531,137.9 78.925,138.25 Z "/><text fill="#000000" font-family="sans-serif" font-size="8.4" lengthAdjust="spacingAndGlyphs" textLength="40.6" x="91.875" y="144.1371">DistrictInfo</text><line style="stroke: #A80036; stroke-width: 1.0499999999999998;" x1="4.9" x2="196.7" y1="151.9" y2="151.9"/><ellipse cx="11.9" cy="159.6" fill="none" rx="2.1" ry="2.1" style="stroke: #038048; stroke-width: 0.7;"/><text fill="#000000" font-family="sans-serif" font-size="7.7" lengthAdjust="spacingAndGlyphs" text-decoration="underline" textLength="58.8" x="18.2" y="162.6933">CENTRAL : String</text><ellipse cx="11.9" cy="169.2852" fill="none" rx="2.1" ry="2.1" style="stroke: #038048; stroke-width: 0.7;"/><text fill="#000000" font-family="sans-serif" font-size="7.7" lengthAdjust="spacingAndGlyphs" text-decoration="underline" textLength="44.8" x="18.2" y="172.3784">EAST : String</text><ellipse cx="11.9" cy="178.9703" fill="none" rx="2.1" ry="2.1" style="stroke: #038048; stroke-width: 0.7;"/><text fill="#000000" font-family="sans-serif" font-size="7.7" lengthAdjust="spacingAndGlyphs" text-decoration="underline" textLength="73.5" x="18.2" y="182.0636">NORTH_EAST : String</text><ellipse cx="11.9" cy="188.6555" fill="none" rx="2.1" ry="2.1" style="stroke: #038048; stroke-width: 0.7;"/><text fill="#000000" font-family="sans-serif" font-size="7.7" lengthAdjust="spacingAndGlyphs" text-decoration="underline" textLength="46.2" x="18.2" y="191.7487">WEST : String</text><ellipse cx="11.9" cy="198.3406" fill="none" rx="2.1" ry="2.1" style="stroke: #038048; stroke-width: 0.7;"/><text fill="#000000" font-family="sans-serif" font-size="7.7" lengthAdjust="spacingAndGlyphs" text-decoration="underline" textLength="50.4" x="18.2" y="201.4339">NORTH : String</text><text fill="#000000" font-family="sans-serif" font-size="7.7" lengthAdjust="spacingAndGlyphs" textLength="0" x="20.3" y="211.119"/><rect fill="none" height="4.2" style="stroke: #C82930; stroke-width: 0.7;" width="4.2" x="9.8" y="215.6109"/><text fill="#000000" font-family="sans-serif" font-size="7.7" lengthAdjust="spacingAndGlyphs" text-decoration="underline" textLength="72.8" x="18.2" y="220.8042">district1 : List&lt;String&gt;</text><rect fill="none" height="4.2" style="stroke: #C82930; stroke-width: 0.7;" width="4.2" x="9.8" y="225.2961"/><text fill="#000000" font-family="sans-serif" font-size="7.7" lengthAdjust="spacingAndGlyphs" text-decoration="underline" textLength="72.8" x="18.2" y="230.4894">district2 : List&lt;String&gt;</text><rect fill="none" height="4.2" style="stroke: #C82930; stroke-width: 0.7;" width="4.2" x="9.8" y="234.9813"/><text fill="#000000" font-family="sans-serif" font-size="7.7" lengthAdjust="spacingAndGlyphs" text-decoration="underline" textLength="72.8" x="18.2" y="240.1745">district3 : List&lt;String&gt;</text><rect fill="none" height="4.2" style="stroke: #C82930; stroke-width: 0.7;" width="4.2" x="9.8" y="244.6664"/><text fill="#000000" font-family="sans-serif" font-size="7.7" lengthAdjust="spacingAndGlyphs" text-decoration="underline" textLength="72.8" x="18.2" y="249.8597">district4 : List&lt;String&gt;</text><rect fill="none" height="4.2" style="stroke: #C82930; stroke-width: 0.7;" width="4.2" x="9.8" y="254.3516"/><text fill="#000000" font-family="sans-serif" font-size="7.7" lengthAdjust="spacingAndGlyphs" text-decoration="underline" textLength="72.8" x="18.2" y="259.5448">district5 : List&lt;String&gt;</text><rect fill="none" height="4.2" style="stroke: #C82930; stroke-width: 0.7;" width="4.2" x="9.8" y="264.0367"/><text fill="#000000" font-family="sans-serif" font-size="7.7" lengthAdjust="spacingAndGlyphs" text-decoration="underline" textLength="72.8" x="18.2" y="269.23">district6 : List&lt;String&gt;</text><rect fill="none" height="4.2" style="stroke: #C82930; stroke-width: 0.7;" width="4.2" x="9.8" y="273.7219"/><text fill="#000000" font-family="sans-serif" font-size="7.7" lengthAdjust="spacingAndGlyphs" text-decoration="underline" textLength="72.8" x="18.2" y="278.9151">district7 : List&lt;String&gt;</text><rect fill="none" height="4.2" style="stroke: #C82930; stroke-width: 0.7;" width="4.2" x="9.8" y="283.407"/><text fill="#000000" font-family="sans-serif" font-size="7.7" lengthAdjust="spacingAndGlyphs" text-decoration="underline" textLength="72.8" x="18.2" y="288.6003">district8 : List&lt;String&gt;</text><rect fill="none" height="4.2" style="stroke: #C82930; stroke-width: 0.7;" width="4.2" x="9.8" y="293.0922"/><text fill="#000000" font-family="sans-serif" font-size="7.7" lengthAdjust="spacingAndGlyphs" text-decoration="underline" textLength="72.8" x="18.2" y="298.2854">district9 : List&lt;String&gt;</text><rect fill="none" height="4.2" style="stroke: #C82930; stroke-width: 0.7;" width="4.2" x="9.8" y="302.7773"/><text fill="#000000" font-family="sans-serif" font-size="7.7" lengthAdjust="spacingAndGlyphs" text-decoration="underline" textLength="77" x="18.2" y="307.9706">district10 : List&lt;String&gt;</text><rect fill="none" height="4.2" style="stroke: #C82930; stroke-width: 0.7;" width="4.2" x="9.8" y="312.4625"/><text fill="#000000" font-family="sans-serif" font-size="7.7" lengthAdjust="spacingAndGlyphs" text-decoration="underline" textLength="77" x="18.2" y="317.6558">district11 : List&lt;String&gt;</text><rect fill="none" height="4.2" style="stroke: #C82930; stroke-width: 0.7;" width="4.2" x="9.8" y="322.1477"/><text fill="#000000" font-family="sans-serif" font-size="7.7" lengthAdjust="spacingAndGlyphs" text-decoration="underline" textLength="77" x="18.2" y="327.3409">district12 : List&lt;String&gt;</text><rect fill="none" height="4.2" style="stroke: #C82930; stroke-width: 0.7;" width="4.2" x="9.8" y="331.8328"/><text fill="#000000" font-family="sans-serif" font-size="7.7" lengthAdjust="spacingAndGlyphs" text-decoration="underline" textLength="77" x="18.2" y="337.0261">district13 : List&lt;String&gt;</text><rect fill="none" height="4.2" style="stroke: #C82930; stroke-width: 0.7;" width="4.2" x="9.8" y="341.518"/><text fill="#000000" font-family="sans-serif" font-size="7.7" lengthAdjust="spacingAndGlyphs" text-decoration="underline" textLength="77" x="18.2" y="346.7112">district14 : List&lt;String&gt;</text><rect fill="none" height="4.2" style="stroke: #C82930; stroke-width: 0.7;" width="4.2" x="9.8" y="351.2031"/><text fill="#000000" font-family="sans-serif" font-size="7.7" lengthAdjust="spacingAndGlyphs" text-decoration="underline" textLength="77" x="18.2" y="356.3964">district15 : List&lt;String&gt;</text><rect fill="none" height="4.2" style="stroke: #C82930; stroke-width: 0.7;" width="4.2" x="9.8" y="360.8883"/><text fill="#000000" font-family="sans-serif" font-size="7.7" lengthAdjust="spacingAndGlyphs" text-decoration="underline" textLength="77" x="18.2" y="366.0815">district16 : List&lt;String&gt;</text><rect fill="none" height="4.2" style="stroke: #C82930; stroke-width: 0.7;" width="4.2" x="9.8" y="370.5734"/><text fill="#000000" font-family="sans-serif" font-size="7.7" lengthAdjust="spacingAndGlyphs" text-decoration="underline" textLength="77" x="18.2" y="375.7667">district17 : List&lt;String&gt;</text><rect fill="none" height="4.2" style="stroke: #C82930; stroke-width: 0.7;" width="4.2" x="9.8" y="380.2586"/><text fill="#000000" font-family="sans-serif" font-size="7.7" lengthAdjust="spacingAndGlyphs" text-decoration="underline" textLength="77" x="18.2" y="385.4519">district18 : List&lt;String&gt;</text><rect fill="none" height="4.2" style="stroke: #C82930; stroke-width: 0.7;" width="4.2" x="9.8" y="389.9437"/><text fill="#000000" font-family="sans-serif" font-size="7.7" lengthAdjust="spacingAndGlyphs" text-decoration="underline" textLength="77" x="18.2" y="395.137">district19 : List&lt;String&gt;</text><rect fill="none" height="4.2" style="stroke: #C82930; stroke-width: 0.7;" width="4.2" x="9.8" y="399.6289"/><text fill="#000000" font-family="sans-serif" font-size="7.7" lengthAdjust="spacingAndGlyphs" text-decoration="underline" textLength="77" x="18.2" y="404.8222">district20 : List&lt;String&gt;</text><rect fill="none" height="4.2" style="stroke: #C82930; stroke-width: 0.7;" width="4.2" x="9.8" y="409.3141"/><text fill="#000000" font-family="sans-serif" font-size="7.7" lengthAdjust="spacingAndGlyphs" text-decoration="underline" textLength="77" x="18.2" y="414.5073">district21 : List&lt;String&gt;</text><rect fill="none" height="4.2" style="stroke: #C82930; stroke-width: 0.7;" width="4.2" x="9.8" y="418.9992"/><text fill="#000000" font-family="sans-serif" font-size="7.7" lengthAdjust="spacingAndGlyphs" text-decoration="underline" textLength="77" x="18.2" y="424.1925">district22 : List&lt;String&gt;</text><rect fill="none" height="4.2" style="stroke: #C82930; stroke-width: 0.7;" width="4.2" x="9.8" y="428.6844"/><text fill="#000000" font-family="sans-serif" font-size="7.7" lengthAdjust="spacingAndGlyphs" text-decoration="underline" textLength="77" x="18.2" y="433.8776">district23 : List&lt;String&gt;</text><rect fill="none" height="4.2" style="stroke: #C82930; stroke-width: 0.7;" width="4.2" x="9.8" y="438.3695"/><text fill="#000000" font-family="sans-serif" font-size="7.7" lengthAdjust="spacingAndGlyphs" text-decoration="underline" textLength="77" x="18.2" y="443.5628">district24 : List&lt;String&gt;</text><rect fill="none" height="4.2" style="stroke: #C82930; stroke-width: 0.7;" width="4.2" x="9.8" y="448.0547"/><text fill="#000000" font-family="sans-serif" font-size="7.7" lengthAdjust="spacingAndGlyphs" text-decoration="underline" textLength="77" x="18.2" y="453.2479">district25 : List&lt;String&gt;</text><rect fill="none" height="4.2" style="stroke: #C82930; stroke-width: 0.7;" width="4.2" x="9.8" y="457.7398"/><text fill="#000000" font-family="sans-serif" font-size="7.7" lengthAdjust="spacingAndGlyphs" text-decoration="underline" textLength="77" x="18.2" y="462.9331">district26 : List&lt;String&gt;</text><rect fill="none" height="4.2" style="stroke: #C82930; stroke-width: 0.7;" width="4.2" x="9.8" y="467.425"/><text fill="#000000" font-family="sans-serif" font-size="7.7" lengthAdjust="spacingAndGlyphs" text-decoration="underline" textLength="77" x="18.2" y="472.6183">district27 : List&lt;String&gt;</text><rect fill="none" height="4.2" style="stroke: #C82930; stroke-width: 0.7;" width="4.2" x="9.8" y="477.1102"/><text fill="#000000" font-family="sans-serif" font-size="7.7" lengthAdjust="spacingAndGlyphs" text-decoration="underline" textLength="77" x="18.2" y="482.3034">district28 : List&lt;String&gt;</text><text fill="#000000" font-family="sans-serif" font-size="7.7" lengthAdjust="spacingAndGlyphs" textLength="0" x="20.3" y="491.9886"/><rect fill="none" height="4.2" style="stroke: #C82930; stroke-width: 0.7;" width="4.2" x="9.8" y="496.4805"/><text fill="#000000" font-family="sans-serif" font-size="7.7" lengthAdjust="spacingAndGlyphs" text-decoration="underline" textLength="86.1" x="18.2" y="501.6737">centralArea : List&lt;String&gt;</text><rect fill="none" height="4.2" style="stroke: #C82930; stroke-width: 0.7;" width="4.2" x="9.8" y="506.1656"/><text fill="#000000" font-family="sans-serif" font-size="7.7" lengthAdjust="spacingAndGlyphs" text-decoration="underline" textLength="77.7" x="18.2" y="511.3589">eastArea : List&lt;String&gt;</text><rect fill="none" height="4.2" style="stroke: #C82930; stroke-width: 0.7;" width="4.2" x="9.8" y="515.8508"/><text fill="#000000" font-family="sans-serif" font-size="7.7" lengthAdjust="spacingAndGlyphs" text-decoration="underline" textLength="95.2" x="18.2" y="521.044">northEastArea : List&lt;String&gt;</text><rect fill="none" height="4.2" style="stroke: #C82930; stroke-width: 0.7;" width="4.2" x="9.8" y="525.5359"/><text fill="#000000" font-family="sans-serif" font-size="7.7" lengthAdjust="spacingAndGlyphs" text-decoration="underline" textLength="80.5" x="18.2" y="530.7292">westArea : List&lt;String&gt;</text><rect fill="none" height="4.2" style="stroke: #C82930; stroke-width: 0.7;" width="4.2" x="9.8" y="535.2211"/><text fill="#000000" font-family="sans-serif" font-size="7.7" lengthAdjust="spacingAndGlyphs" text-decoration="underline" textLength="80.5" x="18.2" y="540.4144">northArea : List&lt;String&gt;</text><line style="stroke: #A80036; stroke-width: 1.0499999999999998;" x1="4.9" x2="196.7" y1="544.9063" y2="544.9063"/><ellipse cx="11.9" cy="552.6062" fill="#84BE84" rx="2.1" ry="2.1" style="stroke: #038048; stroke-width: 0.7;"/><text fill="#000000" font-family="sans-serif" font-size="7.7" lengthAdjust="spacingAndGlyphs" text-decoration="underline" textLength="144.2" x="18.2" y="555.6995">isValidArea(searchTerm : String) : boolean</text><ellipse cx="11.9" cy="562.2914" fill="#84BE84" rx="2.1" ry="2.1" style="stroke: #038048; stroke-width: 0.7;"/><text fill="#000000" font-family="sans-serif" font-size="7.7" lengthAdjust="spacingAndGlyphs" text-decoration="underline" textLength="175" x="18.2" y="565.3847">sameAreaRegex(searchTerm : String) : List&lt;String&gt;</text><!--MD5=[f8569e19ebdfd93850c04aa772dd53b6]
class NearbyCommandUtil--><rect fill="#FEFECE" filter="url(#f1be2e8gt57wm2)" height="372.5805" id="NearbyCommandUtil" style="stroke: #A80036; stroke-width: 1.0499999999999998;" width="218.4" x="221.9" y="163.45"/><ellipse cx="287.525" cy="174.65" fill="#ADD1B2" rx="7.7" ry="7.7" style="stroke: #A80036; stroke-width: 0.7;"/><path d="M288.925,172.2 Q289.0672,171.85 289.2313,171.675 Q289.3953,171.5 289.5812,171.5 Q289.9094,171.5 290.1172,171.6969 Q290.325,171.8937 290.325,172.3531 L290.325,173.4469 Q290.325,173.9063 290.1281,174.1031 Q289.9313,174.3 289.625,174.3 Q289.3516,174.3 289.1766,174.1797 Q289.0016,174.0594 288.925,173.7422 Q288.8922,173.5234 288.7719,173.4031 Q288.5531,173.1734 288.1594,173.0422 Q287.7656,172.9 287.3719,172.9 Q286.8797,172.9 286.4641,173.0969 Q286.0594,173.2938 285.7422,173.7313 Q285.425,174.1688 285.425,174.7703 L285.425,175.4156 Q285.425,176.1375 286.0156,176.6187 Q286.6063,177.1 287.6563,177.1 Q288.2797,177.1 288.7172,176.9578 Q288.9688,176.8813 289.2531,176.6297 Q289.4391,176.4875 289.5375,176.4438 Q289.6359,176.4 289.7562,176.4 Q289.9859,176.4 290.15,176.5859 Q290.325,176.7609 290.325,177.0125 Q290.325,177.2531 290.0844,177.5375 Q289.7344,177.9531 289.1766,178.1828 Q288.4437,178.5 287.5469,178.5 Q286.4969,178.5 285.6547,178.0844 Q284.9766,177.7563 284.4953,177.0453 Q284.025,176.3344 284.025,175.4922 L284.025,174.7266 Q284.025,173.8516 284.4406,173.0859 Q284.8672,172.3203 285.6,171.9156 Q286.3438,171.5 287.175,171.5 Q287.6781,171.5 288.1156,171.675 Q288.5531,171.85 288.925,172.2 Z "/><text fill="#000000" font-family="sans-serif" font-size="8.4" lengthAdjust="spacingAndGlyphs" textLength="81.2" x="301.875" y="178.0871">NearbyCommandUtil</text><line style="stroke: #A80036; stroke-width: 1.0499999999999998;" x1="222.6" x2="439.6" y1="185.85" y2="185.85"/><rect fill="none" height="4.2" style="stroke: #C82930; stroke-width: 0.7;" width="4.2" x="227.5" y="191.45"/><text fill="#000000" font-family="sans-serif" font-size="7.7" lengthAdjust="spacingAndGlyphs" text-decoration="underline" textLength="148.4" x="235.9" y="196.6433">postalSectorInfo : HashMap&lt;Integer, String&gt;</text><text fill="#000000" font-family="sans-serif" font-size="7.7" lengthAdjust="spacingAndGlyphs" textLength="0" x="238" y="206.3284"/><rect fill="none" height="4.2" style="stroke: #C82930; stroke-width: 0.7;" width="4.2" x="227.5" y="210.8203"/><text fill="#000000" font-family="sans-serif" font-size="7.7" lengthAdjust="spacingAndGlyphs" text-decoration="underline" textLength="60.2" x="235.9" y="216.0136">addDistrict1 : void</text><rect fill="none" height="4.2" style="stroke: #C82930; stroke-width: 0.7;" width="4.2" x="227.5" y="220.5055"/><text fill="#000000" font-family="sans-serif" font-size="7.7" lengthAdjust="spacingAndGlyphs" text-decoration="underline" textLength="60.2" x="235.9" y="225.6987">addDistrict2 : void</text><rect fill="none" height="4.2" style="stroke: #C82930; stroke-width: 0.7;" width="4.2" x="227.5" y="230.1906"/><text fill="#000000" font-family="sans-serif" font-size="7.7" lengthAdjust="spacingAndGlyphs" text-decoration="underline" textLength="60.2" x="235.9" y="235.3839">addDistrict3 : void</text><rect fill="none" height="4.2" style="stroke: #C82930; stroke-width: 0.7;" width="4.2" x="227.5" y="239.8758"/><text fill="#000000" font-family="sans-serif" font-size="7.7" lengthAdjust="spacingAndGlyphs" text-decoration="underline" textLength="60.2" x="235.9" y="245.069">addDistrict4 : void</text><rect fill="none" height="4.2" style="stroke: #C82930; stroke-width: 0.7;" width="4.2" x="227.5" y="249.5609"/><text fill="#000000" font-family="sans-serif" font-size="7.7" lengthAdjust="spacingAndGlyphs" text-decoration="underline" textLength="60.2" x="235.9" y="254.7542">addDistrict5 : void</text><rect fill="none" height="4.2" style="stroke: #C82930; stroke-width: 0.7;" width="4.2" x="227.5" y="259.2461"/><text fill="#000000" font-family="sans-serif" font-size="7.7" lengthAdjust="spacingAndGlyphs" text-decoration="underline" textLength="60.2" x="235.9" y="264.4394">addDistrict6 : void</text><rect fill="none" height="4.2" style="stroke: #C82930; stroke-width: 0.7;" width="4.2" x="227.5" y="268.9313"/><text fill="#000000" font-family="sans-serif" font-size="7.7" lengthAdjust="spacingAndGlyphs" text-decoration="underline" textLength="60.2" x="235.9" y="274.1245">addDistrict7 : void</text><rect fill="none" height="4.2" style="stroke: #C82930; stroke-width: 0.7;" width="4.2" x="227.5" y="278.6164"/><text fill="#000000" font-family="sans-serif" font-size="7.7" lengthAdjust="spacingAndGlyphs" text-decoration="underline" textLength="60.2" x="235.9" y="283.8097">addDistrict8 : void</text><rect fill="none" height="4.2" style="stroke: #C82930; stroke-width: 0.7;" width="4.2" x="227.5" y="288.3016"/><text fill="#000000" font-family="sans-serif" font-size="7.7" lengthAdjust="spacingAndGlyphs" text-decoration="underline" textLength="60.2" x="235.9" y="293.4948">addDistrict9 : void</text><rect fill="none" height="4.2" style="stroke: #C82930; stroke-width: 0.7;" width="4.2" x="227.5" y="297.9867"/><text fill="#000000" font-family="sans-serif" font-size="7.7" lengthAdjust="spacingAndGlyphs" text-decoration="underline" textLength="64.4" x="235.9" y="303.18">addDistrict10 : void</text><rect fill="none" height="4.2" style="stroke: #C82930; stroke-width: 0.7;" width="4.2" x="227.5" y="307.6719"/><text fill="#000000" font-family="sans-serif" font-size="7.7" lengthAdjust="spacingAndGlyphs" text-decoration="underline" textLength="64.4" x="235.9" y="312.8651">addDistrict11 : void</text><rect fill="none" height="4.2" style="stroke: #C82930; stroke-width: 0.7;" width="4.2" x="227.5" y="317.357"/><text fill="#000000" font-family="sans-serif" font-size="7.7" lengthAdjust="spacingAndGlyphs" text-decoration="underline" textLength="64.4" x="235.9" y="322.5503">addDistrict12 : void</text><rect fill="none" height="4.2" style="stroke: #C82930; stroke-width: 0.7;" width="4.2" x="227.5" y="327.0422"/><text fill="#000000" font-family="sans-serif" font-size="7.7" lengthAdjust="spacingAndGlyphs" text-decoration="underline" textLength="64.4" x="235.9" y="332.2354">addDistrict13 : void</text><rect fill="none" height="4.2" style="stroke: #C82930; stroke-width: 0.7;" width="4.2" x="227.5" y="336.7273"/><text fill="#000000" font-family="sans-serif" font-size="7.7" lengthAdjust="spacingAndGlyphs" text-decoration="underline" textLength="64.4" x="235.9" y="341.9206">addDistrict14 : void</text><rect fill="none" height="4.2" style="stroke: #C82930; stroke-width: 0.7;" width="4.2" x="227.5" y="346.4125"/><text fill="#000000" font-family="sans-serif" font-size="7.7" lengthAdjust="spacingAndGlyphs" text-decoration="underline" textLength="64.4" x="235.9" y="351.6058">addDistrict15 : void</text><rect fill="none" height="4.2" style="stroke: #C82930; stroke-width: 0.7;" width="4.2" x="227.5" y="356.0977"/><text fill="#000000" font-family="sans-serif" font-size="7.7" lengthAdjust="spacingAndGlyphs" text-decoration="underline" textLength="64.4" x="235.9" y="361.2909">addDistrict16 : void</text><rect fill="none" height="4.2" style="stroke: #C82930; stroke-width: 0.7;" width="4.2" x="227.5" y="365.7828"/><text fill="#000000" font-family="sans-serif" font-size="7.7" lengthAdjust="spacingAndGlyphs" text-decoration="underline" textLength="64.4" x="235.9" y="370.9761">addDistrict17 : void</text><rect fill="none" height="4.2" style="stroke: #C82930; stroke-width: 0.7;" width="4.2" x="227.5" y="375.468"/><text fill="#000000" font-family="sans-serif" font-size="7.7" lengthAdjust="spacingAndGlyphs" text-decoration="underline" textLength="64.4" x="235.9" y="380.6612">addDistrict18 : void</text><rect fill="none" height="4.2" style="stroke: #C82930; stroke-width: 0.7;" width="4.2" x="227.5" y="385.1531"/><text fill="#000000" font-family="sans-serif" font-size="7.7" lengthAdjust="spacingAndGlyphs" text-decoration="underline" textLength="64.4" x="235.9" y="390.3464">addDistrict19 : void</text><rect fill="none" height="4.2" style="stroke: #C82930; stroke-width: 0.7;" width="4.2" x="227.5" y="394.8383"/><text fill="#000000" font-family="sans-serif" font-size="7.7" lengthAdjust="spacingAndGlyphs" text-decoration="underline" textLength="64.4" x="235.9" y="400.0315">addDistrict20 : void</text><rect fill="none" height="4.2" style="stroke: #C82930; stroke-width: 0.7;" width="4.2" x="227.5" y="404.5234"/><text fill="#000000" font-family="sans-serif" font-size="7.7" lengthAdjust="spacingAndGlyphs" text-decoration="underline" textLength="64.4" x="235.9" y="409.7167">addDistrict21 : void</text><rect fill="none" height="4.2" style="stroke: #C82930; stroke-width: 0.7;" width="4.2" x="227.5" y="414.2086"/><text fill="#000000" font-family="sans-serif" font-size="7.7" lengthAdjust="spacingAndGlyphs" text-decoration="underline" textLength="64.4" x="235.9" y="419.4019">addDistrict22 : void</text><rect fill="none" height="4.2" style="stroke: #C82930; stroke-width: 0.7;" width="4.2" x="227.5" y="423.8937"/><text fill="#000000" font-family="sans-serif" font-size="7.7" lengthAdjust="spacingAndGlyphs" text-decoration="underline" textLength="64.4" x="235.9" y="429.087">addDistrict23 : void</text><rect fill="none" height="4.2" style="stroke: #C82930; stroke-width: 0.7;" width="4.2" x="227.5" y="433.5789"/><text fill="#000000" font-family="sans-serif" font-size="7.7" lengthAdjust="spacingAndGlyphs" text-decoration="underline" textLength="64.4" x="235.9" y="438.7722">addDistrict24 : void</text><rect fill="none" height="4.2" style="stroke: #C82930; stroke-width: 0.7;" width="4.2" x="227.5" y="443.2641"/><text fill="#000000" font-family="sans-serif" font-size="7.7" lengthAdjust="spacingAndGlyphs" text-decoration="underline" textLength="64.4" x="235.9" y="448.4573">addDistrict25 : void</text><rect fill="none" height="4.2" style="stroke: #C82930; stroke-width: 0.7;" width="4.2" x="227.5" y="452.9492"/><text fill="#000000" font-family="sans-serif" font-size="7.7" lengthAdjust="spacingAndGlyphs" text-decoration="underline" textLength="64.4" x="235.9" y="458.1425">addDistrict26 : void</text><rect fill="none" height="4.2" style="stroke: #C82930; stroke-width: 0.7;" width="4.2" x="227.5" y="462.6344"/><text fill="#000000" font-family="sans-serif" font-size="7.7" lengthAdjust="spacingAndGlyphs" text-decoration="underline" textLength="64.4" x="235.9" y="467.8276">addDistrict27 : void</text><rect fill="none" height="4.2" style="stroke: #C82930; stroke-width: 0.7;" width="4.2" x="227.5" y="472.3195"/><text fill="#000000" font-family="sans-serif" font-size="7.7" lengthAdjust="spacingAndGlyphs" text-decoration="underline" textLength="64.4" x="235.9" y="477.5128">addDistrict28 : void</text><line style="stroke: #A80036; stroke-width: 1.0499999999999998;" x1="222.6" x2="439.6" y1="482.0047" y2="482.0047"/><ellipse cx="229.6" cy="489.7047" fill="#84BE84" rx="2.1" ry="2.1" style="stroke: #038048; stroke-width: 0.7;"/><text fill="#000000" font-family="sans-serif" font-size="7.7" lengthAdjust="spacingAndGlyphs" text-decoration="underline" textLength="170.8" x="235.9" y="492.7979">isValidPostalSector(postalSector : Index) : boolean</text><ellipse cx="229.6" cy="499.3898" fill="#84BE84" rx="2.1" ry="2.1" style="stroke: #038048; stroke-width: 0.7;"/><text fill="#000000" font-family="sans-serif" font-size="7.7" lengthAdjust="spacingAndGlyphs" text-decoration="underline" textLength="200.2" x="235.9" y="502.4831">getGeneralLocation(postalSector : Index) : Optional&lt;String&gt;</text><ellipse cx="229.6" cy="509.075" fill="#84BE84" rx="2.1" ry="2.1" style="stroke: #038048; stroke-width: 0.7;"/><text fill="#000000" font-family="sans-serif" font-size="7.7" lengthAdjust="spacingAndGlyphs" text-decoration="underline" textLength="177.1" x="235.9" y="512.1683">sameGeneralLocation(location : String) : List&lt;String&gt;</text><text fill="#000000" font-family="sans-serif" font-size="7.7" lengthAdjust="spacingAndGlyphs" textLength="0" x="238" y="521.8534"/><rect fill="#F24D5C" height="4.2" style="stroke: #C82930; stroke-width: 0.7;" width="4.2" x="227.5" y="526.3453"/><text fill="#000000" font-family="sans-serif" font-size="7.7" lengthAdjust="spacingAndGlyphs" text-decoration="underline" textLength="51.8" x="235.9" y="531.5386">initialize() : void</text><!--MD5=[15b9a87b033c6044cf0e9bbdacb18726]
class Index--><rect fill="#FEFECE" filter="url(#f1be2e8gt57wm2)" height="82.0258" id="Index" style="stroke: #A80036; stroke-width: 1.0499999999999998;" width="170.8" x="15.4" y="5.6"/><ellipse cx="87.675" cy="16.8" fill="#ADD1B2" rx="7.7" ry="7.7" style="stroke: #A80036; stroke-width: 0.7;"/><path d="M89.075,14.35 Q89.2172,14 89.3813,13.825 Q89.5453,13.65 89.7312,13.65 Q90.0594,13.65 90.2672,13.8469 Q90.475,14.0438 90.475,14.5031 L90.475,15.5969 Q90.475,16.0563 90.2781,16.2531 Q90.0813,16.45 89.775,16.45 Q89.5016,16.45 89.3266,16.3297 Q89.1516,16.2094 89.075,15.8922 Q89.0422,15.6734 88.9219,15.5531 Q88.7031,15.3234 88.3094,15.1922 Q87.9156,15.05 87.5219,15.05 Q87.0297,15.05 86.6141,15.2469 Q86.2094,15.4438 85.8922,15.8813 Q85.575,16.3187 85.575,16.9203 L85.575,17.5656 Q85.575,18.2875 86.1656,18.7687 Q86.7563,19.25 87.8062,19.25 Q88.4297,19.25 88.8672,19.1078 Q89.1187,19.0313 89.4031,18.7797 Q89.5891,18.6375 89.6875,18.5938 Q89.7859,18.55 89.9063,18.55 Q90.1359,18.55 90.3,18.7359 Q90.475,18.9109 90.475,19.1625 Q90.475,19.4031 90.2344,19.6875 Q89.8844,20.1031 89.3266,20.3328 Q88.5938,20.65 87.6969,20.65 Q86.6469,20.65 85.8047,20.2344 Q85.1266,19.9063 84.6453,19.1953 Q84.175,18.4844 84.175,17.6422 L84.175,16.8766 Q84.175,16.0016 84.5906,15.2359 Q85.0172,14.4703 85.75,14.0656 Q86.4937,13.65 87.325,13.65 Q87.8281,13.65 88.2656,13.825 Q88.7031,14 89.075,14.35 Z "/><text fill="#000000" font-family="sans-serif" font-size="8.4" lengthAdjust="spacingAndGlyphs" textLength="20.3" x="102.025" y="20.2371">Index</text><line style="stroke: #A80036; stroke-width: 1.0499999999999998;" x1="16.1" x2="185.5" y1="28" y2="28"/><rect fill="none" height="4.2" style="stroke: #C82930; stroke-width: 0.7;" width="4.2" x="21" y="33.6"/><text fill="#000000" font-family="sans-serif" font-size="7.7" lengthAdjust="spacingAndGlyphs" textLength="69.3" x="29.4" y="38.7933">zeroBasedIndex : int</text><line style="stroke: #A80036; stroke-width: 1.0499999999999998;" x1="16.1" x2="185.5" y1="43.2852" y2="43.2852"/><ellipse cx="23.1" cy="50.9852" fill="#84BE84" rx="2.1" ry="2.1" style="stroke: #038048; stroke-width: 0.7;"/><text fill="#000000" font-family="sans-serif" font-size="7.7" lengthAdjust="spacingAndGlyphs" textLength="67.9" x="29.4" y="54.0784">getZeroBased() : int</text><ellipse cx="23.1" cy="60.6703" fill="#84BE84" rx="2.1" ry="2.1" style="stroke: #038048; stroke-width: 0.7;"/><text fill="#000000" font-family="sans-serif" font-size="7.7" lengthAdjust="spacingAndGlyphs" textLength="65.8" x="29.4" y="63.7636">getOneBased() : int</text><ellipse cx="23.1" cy="70.3555" fill="#84BE84" rx="2.1" ry="2.1" style="stroke: #038048; stroke-width: 0.7;"/><text fill="#000000" font-family="sans-serif" font-size="7.7" lengthAdjust="spacingAndGlyphs" text-decoration="underline" textLength="152.6" x="29.4" y="73.4487">fromZeroBased(zeroBasedIndex : int) : Index</text><ellipse cx="23.1" cy="80.0406" fill="#84BE84" rx="2.1" ry="2.1" style="stroke: #038048; stroke-width: 0.7;"/><text fill="#000000" font-family="sans-serif" font-size="7.7" lengthAdjust="spacingAndGlyphs" text-decoration="underline" textLength="147.7" x="29.4" y="83.1339">fromOneBased(oneBasedIndex : int) : Index</text><!--MD5=[b5f778b4839bbb838945944caf89d846]
class NearbyCommand--><rect fill="#FEFECE" filter="url(#f1be2e8gt57wm2)" height="159.507" id="NearbyCommand" style="stroke: #A80036; stroke-width: 1.0499999999999998;" width="267.4" x="464.8" y="269.85"/><ellipse cx="561.225" cy="281.05" fill="#ADD1B2" rx="7.7" ry="7.7" style="stroke: #A80036; stroke-width: 0.7;"/><path d="M562.625,278.6 Q562.7672,278.25 562.9313,278.075 Q563.0953,277.9 563.2813,277.9 Q563.6094,277.9 563.8172,278.0969 Q564.025,278.2938 564.025,278.7531 L564.025,279.8469 Q564.025,280.3063 563.8281,280.5031 Q563.6312,280.7 563.325,280.7 Q563.0516,280.7 562.8766,280.5797 Q562.7016,280.4594 562.625,280.1422 Q562.5922,279.9234 562.4719,279.8031 Q562.2531,279.5734 561.8594,279.4422 Q561.4656,279.3 561.0719,279.3 Q560.5797,279.3 560.1641,279.4969 Q559.7594,279.6937 559.4422,280.1312 Q559.125,280.5687 559.125,281.1703 L559.125,281.8156 Q559.125,282.5375 559.7156,283.0187 Q560.3063,283.5 561.3562,283.5 Q561.9797,283.5 562.4172,283.3578 Q562.6687,283.2813 562.9531,283.0297 Q563.1391,282.8875 563.2375,282.8438 Q563.3359,282.8 563.4563,282.8 Q563.6859,282.8 563.85,282.9859 Q564.025,283.1609 564.025,283.4125 Q564.025,283.6531 563.7844,283.9375 Q563.4344,284.3531 562.8766,284.5828 Q562.1438,284.9 561.2469,284.9 Q560.1969,284.9 559.3547,284.4844 Q558.6766,284.1563 558.1953,283.4453 Q557.725,282.7344 557.725,281.8922 L557.725,281.1266 Q557.725,280.2516 558.1406,279.4859 Q558.5672,278.7203 559.3,278.3156 Q560.0437,277.9 560.875,277.9 Q561.3781,277.9 561.8156,278.075 Q562.2531,278.25 562.625,278.6 Z "/><text fill="#000000" font-family="sans-serif" font-size="8.4" lengthAdjust="spacingAndGlyphs" textLength="68.6" x="575.575" y="284.4871">NearbyCommand</text><line style="stroke: #A80036; stroke-width: 1.0499999999999998;" x1="465.5" x2="731.5" y1="292.25" y2="292.25"/><ellipse cx="472.5" cy="299.95" fill="none" rx="2.1" ry="2.1" style="stroke: #038048; stroke-width: 0.7;"/><text fill="#000000" font-family="sans-serif" font-size="7.7" lengthAdjust="spacingAndGlyphs" text-decoration="underline" textLength="89.6" x="478.8" y="303.0433">COMMAND_WORD : String</text><ellipse cx="472.5" cy="309.6352" fill="none" rx="2.1" ry="2.1" style="stroke: #038048; stroke-width: 0.7;"/><text fill="#000000" font-family="sans-serif" font-size="7.7" lengthAdjust="spacingAndGlyphs" text-decoration="underline" textLength="56.7" x="478.8" y="312.7284">NEWLINE : String</text><ellipse cx="472.5" cy="319.3203" fill="none" rx="2.1" ry="2.1" style="stroke: #038048; stroke-width: 0.7;"/><text fill="#000000" font-family="sans-serif" font-size="7.7" lengthAdjust="spacingAndGlyphs" text-decoration="underline" textLength="90.3" x="478.8" y="322.4136">MESSAGE_USAGE : String</text><ellipse cx="472.5" cy="329.0055" fill="none" rx="2.1" ry="2.1" style="stroke: #038048; stroke-width: 0.7;"/><text fill="#000000" font-family="sans-serif" font-size="7.7" lengthAdjust="spacingAndGlyphs" text-decoration="underline" textLength="164.5" x="478.8" y="332.0987">MESSAGE_SUCCESS_POSTAL_SECTOR : String</text><ellipse cx="472.5" cy="338.6906" fill="none" rx="2.1" ry="2.1" style="stroke: #038048; stroke-width: 0.7;"/><text fill="#000000" font-family="sans-serif" font-size="7.7" lengthAdjust="spacingAndGlyphs" text-decoration="underline" textLength="123.2" x="478.8" y="341.7839">MESSAGE_SUCCESS_AREA : String</text><ellipse cx="472.5" cy="348.3758" fill="none" rx="2.1" ry="2.1" style="stroke: #038048; stroke-width: 0.7;"/><text fill="#000000" font-family="sans-serif" font-size="7.7" lengthAdjust="spacingAndGlyphs" text-decoration="underline" textLength="160.3" x="478.8" y="351.469">MESSAGE_FAILURE_POSTAL_SECTOR : String</text><ellipse cx="472.5" cy="358.0609" fill="none" rx="2.1" ry="2.1" style="stroke: #038048; stroke-width: 0.7;"/><text fill="#000000" font-family="sans-serif" font-size="7.7" lengthAdjust="spacingAndGlyphs" text-decoration="underline" textLength="119" x="478.8" y="361.1542">MESSAGE_FAILURE_AREA : String</text><rect fill="none" height="4.2" style="stroke: #C82930; stroke-width: 0.7;" width="4.2" x="470.4" y="365.6461"/><text fill="#000000" font-family="sans-serif" font-size="7.7" lengthAdjust="spacingAndGlyphs" textLength="66.5" x="478.8" y="370.8394">searchTerm : String</text><line style="stroke: #A80036; stroke-width: 1.0499999999999998;" x1="465.5" x2="731.5" y1="375.3312" y2="375.3312"/><ellipse cx="472.5" cy="383.0313" fill="#84BE84" rx="2.1" ry="2.1" style="stroke: #038048; stroke-width: 0.7;"/><text fill="#000000" font-family="sans-serif" font-size="7.7" lengthAdjust="spacingAndGlyphs" textLength="138.6" x="478.8" y="386.1245">execute(model : Model) : CommandResult</text><rect fill="#F24D5C" height="4.2" style="stroke: #C82930; stroke-width: 0.7;" width="4.2" x="470.4" y="390.6164"/><text fill="#000000" font-family="sans-serif" font-size="7.7" lengthAdjust="spacingAndGlyphs" textLength="156.1" x="478.8" y="395.8097">getPostalSectorPredicate() : Predicate&lt;Order&gt;</text><rect fill="#F24D5C" height="4.2" style="stroke: #C82930; stroke-width: 0.7;" width="4.2" x="470.4" y="400.3016"/><text fill="#000000" font-family="sans-serif" font-size="7.7" lengthAdjust="spacingAndGlyphs" textLength="130.2" x="478.8" y="405.4948">getAreaPredicate() : Predicate&lt;Order&gt;</text><rect fill="#F24D5C" height="4.2" style="stroke: #C82930; stroke-width: 0.7;" width="4.2" x="470.4" y="409.9867"/><text fill="#000000" font-family="sans-serif" font-size="7.7" lengthAdjust="spacingAndGlyphs" textLength="249.2" x="478.8" y="415.18">showPostalSectors(model : Model, postalSector : Index) : CommandResult</text><rect fill="#F24D5C" height="4.2" style="stroke: #C82930; stroke-width: 0.7;" width="4.2" x="470.4" y="419.6719"/><text fill="#000000" font-family="sans-serif" font-size="7.7" lengthAdjust="spacingAndGlyphs" textLength="111.3" x="478.8" y="424.8651">isPostalSectorSearch() : boolean</text><!--MD5=[521817ab83e81da341a3f4b5e91bae41]
class Command--><rect fill="#FEFECE" filter="url(#f1be2e8gt57wm2)" height="43.2852" id="Command" style="stroke: #A80036; stroke-width: 1.0499999999999998;" width="163.1" x="516.95" y="24.85"/><ellipse cx="574.875" cy="36.05" fill="#A9DCDF" rx="7.7" ry="7.7" style="stroke: #A80036; stroke-width: 0.7;"/><path d="M576.1,37.1 L573.7922,37.1 L573.4859,37.8 L573.4859,37.8 L573.8141,37.8 L574.175,38.2375 L574.175,38.5 L574.175,38.7625 L573.8141,39.2 L573.4859,39.2 L572.1625,39.2 L571.7359,39.2 L571.375,38.7625 L571.375,38.5 L571.375,38.2375 L571.7359,37.8 L572.1625,37.8 L573.7813,33.6 L573.1687,33.6 L572.4359,33.6 L572.075,33.1625 L572.075,32.9 L572.075,32.6375 L572.4359,32.2 L573.1687,32.2 L575.7391,32.2 L577.6203,37.8 L578.0141,37.8 L578.0141,37.8 L578.375,38.2375 L578.375,38.5 L578.375,38.7625 L578.0141,39.2 L577.6203,39.2 L576.2969,39.2 L575.9359,39.2 L575.575,38.7625 L575.575,38.5 L575.575,38.2375 L575.9359,37.8 L576.2969,37.8 L576.2969,37.8 L576.1,37.1 Z M575.7172,35.7 L574.875,33.1953 L574.1531,35.7 L575.7172,35.7 Z "/><text fill="#000000" font-family="sans-serif" font-size="8.4" font-style="italic" lengthAdjust="spacingAndGlyphs" textLength="41.3" x="589.225" y="39.4871">Command</text><line style="stroke: #A80036; stroke-width: 1.0499999999999998;" x1="517.65" x2="679.35" y1="47.25" y2="47.25"/><line style="stroke: #A80036; stroke-width: 1.0499999999999998;" x1="517.65" x2="679.35" y1="52.85" y2="52.85"/><ellipse cx="524.65" cy="60.55" fill="#84BE84" rx="2.1" ry="2.1" style="stroke: #038048; stroke-width: 0.7;"/><text fill="#000000" font-family="sans-serif" font-size="7.7" font-style="italic" lengthAdjust="spacingAndGlyphs" textLength="144.9" x="530.95" y="63.6433">execute(model : Model) : CommandResult</text><!--MD5=[06d26d299e28f4509c461b875533e542]
class NearbyCommandParser--><rect fill="#FEFECE" filter="url(#f1be2e8gt57wm2)" height="43.2852" id="NearbyCommandParser" style="stroke: #A80036; stroke-width: 1.0499999999999998;" width="148.4" x="756.7" y="327.95"/><ellipse cx="781.375" cy="339.15" fill="#ADD1B2" rx="7.7" ry="7.7" style="stroke: #A80036; stroke-width: 0.7;"/><path d="M782.775,336.7 Q782.9172,336.35 783.0813,336.175 Q783.2453,336 783.4313,336 Q783.7594,336 783.9672,336.1969 Q784.175,336.3937 784.175,336.8531 L784.175,337.9469 Q784.175,338.4063 783.9781,338.6031 Q783.7813,338.8 783.475,338.8 Q783.2016,338.8 783.0266,338.6797 Q782.8516,338.5594 782.775,338.2422 Q782.7422,338.0234 782.6219,337.9031 Q782.4031,337.6734 782.0094,337.5422 Q781.6156,337.4 781.2219,337.4 Q780.7297,337.4 780.3141,337.5969 Q779.9094,337.7938 779.5922,338.2313 Q779.275,338.6688 779.275,339.2703 L779.275,339.9156 Q779.275,340.6375 779.8656,341.1188 Q780.4563,341.6 781.5062,341.6 Q782.1297,341.6 782.5672,341.4578 Q782.8187,341.3812 783.1031,341.1297 Q783.2891,340.9875 783.3875,340.9437 Q783.4859,340.9 783.6062,340.9 Q783.8359,340.9 784,341.0859 Q784.175,341.2609 784.175,341.5125 Q784.175,341.7531 783.9344,342.0375 Q783.5844,342.4531 783.0266,342.6828 Q782.2937,343 781.3969,343 Q780.3469,343 779.5047,342.5844 Q778.8266,342.2562 778.3453,341.5453 Q777.875,340.8344 777.875,339.9922 L777.875,339.2266 Q777.875,338.3516 778.2906,337.5859 Q778.7172,336.8203 779.45,336.4156 Q780.1937,336 781.025,336 Q781.5281,336 781.9656,336.175 Q782.4031,336.35 782.775,336.7 Z "/><text fill="#000000" font-family="sans-serif" font-size="8.4" lengthAdjust="spacingAndGlyphs" textLength="94.5" x="794.325" y="342.5871">NearbyCommandParser</text><line style="stroke: #A80036; stroke-width: 1.0499999999999998;" x1="757.4" x2="904.4" y1="350.35" y2="350.35"/><line style="stroke: #A80036; stroke-width: 1.0499999999999998;" x1="757.4" x2="904.4" y1="355.95" y2="355.95"/><ellipse cx="764.4" cy="363.65" fill="#84BE84" rx="2.1" ry="2.1" style="stroke: #038048; stroke-width: 0.7;"/><text fill="#000000" font-family="sans-serif" font-size="7.7" lengthAdjust="spacingAndGlyphs" textLength="130.2" x="770.7" y="366.7433">parse(args : String) : NearbyCommand</text><!--MD5=[628cc5a2753cca06eb1ffef55c386535]
class Parser--><rect fill="#FEFECE" filter="url(#f1be2e8gt57wm2)" height="43.2852" id="Parser" style="stroke: #A80036; stroke-width: 1.0499999999999998;" width="154.7" x="753.55" y="24.85"/><ellipse cx="811.475" cy="36.05" fill="#B4A7E5" rx="7.7" ry="7.7" style="stroke: #A80036; stroke-width: 0.7;"/><path d="M812.175,33.95 L812.175,38.15 L813.575,38.15 L813.9141,38.15 L814.275,38.5875 L814.275,38.85 L814.275,39.1125 L813.9141,39.55 L813.575,39.55 L809.375,39.55 L809.0359,39.55 L808.675,39.1125 L808.675,38.85 L808.675,38.5875 L809.0359,38.15 L809.375,38.15 L810.775,38.15 L810.775,33.95 L809.375,33.95 L809.0359,33.95 L808.675,33.5125 L808.675,33.25 L808.675,32.9875 L809.0359,32.55 L809.375,32.55 L813.575,32.55 L813.9141,32.55 L814.275,32.9875 L814.275,33.25 L814.275,33.5125 L813.9141,33.95 L813.575,33.95 L812.175,33.95 Z "/><text fill="#000000" font-family="sans-serif" font-size="8.4" font-style="italic" lengthAdjust="spacingAndGlyphs" textLength="25.2" x="825.825" y="39.4871">Parser</text><rect fill="#FFFFFF" height="11.9656" style="stroke: #000000; stroke-width: 0.7; stroke-dasharray: 2.0,2.0;" width="6.3" x="904.05" y="22.75"/><text fill="#000000" font-family="sans-serif" font-size="8.4" font-style="italic" lengthAdjust="spacingAndGlyphs" textLength="4.9" x="904.75" y="32.1699">T</text><line style="stroke: #A80036; stroke-width: 1.0499999999999998;" x1="754.25" x2="907.55" y1="47.25" y2="47.25"/><line style="stroke: #A80036; stroke-width: 1.0499999999999998;" x1="754.25" x2="907.55" y1="52.85" y2="52.85"/><text fill="#000000" font-family="sans-serif" font-size="7.7" lengthAdjust="spacingAndGlyphs" textLength="146.3" x="757.75" y="63.6433">parse(userInput : String) : NearbyCommand</text><!--MD5=[43764d1c54226ba287214e9379608154]
reverse link Command to NearbyCommand--><path d="M598.5,82.4985 C598.5,128.0888 598.5,208.8415 598.5,269.535 " fill="none" id="Command&lt;-NearbyCommand" style="stroke: #A80036; stroke-width: 0.7;"/><polygon fill="none" points="593.6,82.4649,598.5,68.4649,603.4,82.4649,593.6,82.4649" style="stroke: #A80036; stroke-width: 0.7;"/><!--MD5=[b6ca1efe7a4be31ad2f76457df624e53]
reverse link Parser to NearbyCommandParser--><path d="M830.9,82.6623 C830.9,145.9465 830.9,276.6078 830.9,327.7582 " fill="none" id="Parser&lt;-NearbyCommandParser" style="stroke: #A80036; stroke-width: 0.7; stroke-dasharray: 7.0,7.0;"/><polygon fill="none" points="826,82.4649,830.9,68.4649,835.8,82.4649,826,82.4649" style="stroke: #A80036; stroke-width: 0.7;"/><!--MD5=[a0566abf3dd0f85d7ef7f49c0e266019]
reverse link Index to DistrictInfo--><path d="M100.8,91.3836 C100.8,102.6515 100.8,115.5476 100.8,129.4307 " fill="none" id="Index&lt;-DistrictInfo" style="stroke: #A80036; stroke-width: 0.7;"/><polygon fill="#A80036" points="100.8,87.6253,98,93.9253,100.8,91.1253,103.6,93.9253,100.8,87.6253" style="stroke: #A80036; stroke-width: 0.7;"/><!--MD5=[26433e40933d16c36166b2cec379f060]
link DistrictInfo to NearbyCommandUtil--><!--MD5=[1cc7af70f662364af583cbb0010eb3b3]
@startuml
skinparam backgroundColor #ffffff

class DistrictInfo {
    + {static} CENTRAL : String
    + {static} EAST : String
    + {static} NORTH_EAST : String
    + {static} WEST : String
    + {static} NORTH : String

    - {static} district1 : List<String>
    - {static} district2 : List<String>
    - {static} district3 : List<String>
    - {static} district4 : List<String>
    - {static} district5 : List<String>
    - {static} district6 : List<String>
    - {static} district7 : List<String>
    - {static} district8 : List<String>
    - {static} district9 : List<String>
    - {static} district10 : List<String>
    - {static} district11 : List<String>
    - {static} district12 : List<String>
    - {static} district13 : List<String>
    - {static} district14 : List<String>
    - {static} district15 : List<String>
    - {static} district16 : List<String>
    - {static} district17 : List<String>
    - {static} district18 : List<String>
    - {static} district19 : List<String>
    - {static} district20 : List<String>
    - {static} district21 : List<String>
    - {static} district22 : List<String>
    - {static} district23 : List<String>
    - {static} district24 : List<String>
    - {static} district25 : List<String>
    - {static} district26 : List<String>
    - {static} district27 : List<String>
    - {static} district28 : List<String>

    - {static} centralArea : List<String>
    - {static} eastArea : List<String>
    - {static} northEastArea : List<String>
    - {static} westArea : List<String>
    - {static} northArea : List<String>

    + {static} isValidArea(searchTerm : String) : boolean
    + {static} sameAreaRegex(searchTerm : String) : List<String>
}

class NearbyCommandUtil {
    - {static} postalSectorInfo : HashMap<Integer, String>
    + {static} isValidPostalSector(postalSector : Index) : boolean
    + {static} getGeneralLocation(postalSector : Index) : Optional<String>
    + {static} sameGeneralLocation(location : String) : List<String>

    - {static} initialize() : void
    - {static} addDistrict1 : void
    - {static} addDistrict2 : void
    - {static} addDistrict3 : void
    - {static} addDistrict4 : void
    - {static} addDistrict5 : void
    - {static} addDistrict6 : void
    - {static} addDistrict7 : void
    - {static} addDistrict8 : void
    - {static} addDistrict9 : void
    - {static} addDistrict10 : void
    - {static} addDistrict11 : void
    - {static} addDistrict12 : void
    - {static} addDistrict13 : void
    - {static} addDistrict14 : void
    - {static} addDistrict15 : void
    - {static} addDistrict16 : void
    - {static} addDistrict17 : void
    - {static} addDistrict18 : void
    - {static} addDistrict19 : void
    - {static} addDistrict20 : void
    - {static} addDistrict21 : void
    - {static} addDistrict22 : void
    - {static} addDistrict23 : void
    - {static} addDistrict24 : void
    - {static} addDistrict25 : void
    - {static} addDistrict26 : void
    - {static} addDistrict27 : void
    - {static} addDistrict28 : void
}

class Index {
    - zeroBasedIndex : int
    + getZeroBased() : int
    + getOneBased() : int
    + {static} fromZeroBased(zeroBasedIndex : int) : Index
    + {static} fromOneBased(oneBasedIndex : int) : Index
}

class NearbyCommand extends Command {
    + {static} COMMAND_WORD : String
    + {static} NEWLINE : String
    + {static} MESSAGE_USAGE : String
    + {static} MESSAGE_SUCCESS_POSTAL_SECTOR : String
    + {static} MESSAGE_SUCCESS_AREA : String
    + {static} MESSAGE_FAILURE_POSTAL_SECTOR : String
    + {static} MESSAGE_FAILURE_AREA : String
    - searchTerm : String

    + execute(model : Model) : CommandResult
    - getPostalSectorPredicate() : Predicate<Order>
    - getAreaPredicate() : Predicate<Order>
    - showPostalSectors(model : Model, postalSector : Index) : CommandResult
    - isPostalSectorSearch() : boolean
}

abstract class Command {
    + {abstract} execute(model : Model) : CommandResult
}

class NearbyCommandParser implements Parser {
    + parse(args : String) : NearbyCommand
}

interface Parser<T> {
    parse(userInput : String) : NearbyCommand
}

DistrictInfo -up-> Index
DistrictInfo -[hidden] NearbyCommandUtil

@enduml

PlantUML version 1.2020.03beta6(Unknown compile time)
(GPL source distribution)
Java Runtime: OpenJDK Runtime Environment
JVM: OpenJDK 64-Bit Server VM
Java Version: 11.0.5+10-b520.38
Operating System: Windows 10
Default Encoding: Cp1252
Language: en
Country: SG
--></g></svg>
