<?xml version="1.0" encoding="UTF-8" standalone="no"?><svg xmlns="http://www.w3.org/2000/svg" xmlns:xlink="http://www.w3.org/1999/xlink" contentScriptType="application/ecmascript" contentStyleType="text/css" height="1078.8px" preserveAspectRatio="none" style="width:1642px;height:1078px;" version="1.1" viewBox="0 0 1642 1078" width="1642.8px" zoomAndPan="magnify"><defs/><g><rect fill="#C8C8FA" height="1053.1594" style="stroke: #A80036; stroke-width: 1.2;" width="1402.8" x="114" y="4.8"/><text fill="#FFFFFF" font-family="sans-serif" font-size="18" font-weight="bold" lengthAdjust="spacingAndGlyphs" textLength="46.8" x="789.6" y="23.4855">Logic</text><rect fill="#F97181" height="1053.1594" style="stroke: #A80036; stroke-width: 1.2;" width="110.4" x="1519.2" y="4.8"/><text fill="#FFFFFF" font-family="sans-serif" font-size="18" font-weight="bold" lengthAdjust="spacingAndGlyphs" textLength="52.8" x="1545.6" y="23.4855">Model</text><rect fill="#FFFFFF" height="933.3656" style="stroke: #A80036; stroke-width: 1.2;" width="12" x="189.6" y="110.1938"/><rect fill="#FFFFFF" height="281.55" style="stroke: #A80036; stroke-width: 1.2;" width="12" x="441.6" y="146.6156"/><rect fill="#FFFFFF" height="39.1313" style="stroke: #A80036; stroke-width: 1.2;" width="12" x="656.4" y="175.4156"/><rect fill="#FFFFFF" height="123.975" style="stroke: #A80036; stroke-width: 1.2;" width="12" x="656.4" y="250.9688"/><rect fill="#FFFFFF" height="58.7531" style="stroke: #A80036; stroke-width: 1.2;" width="12" x="874.8" y="279.7688"/><rect fill="#FFFFFF" height="542.55" style="stroke: #A80036; stroke-width: 1.2;" width="12" x="874.8" y="464.5875"/><rect fill="#FFFFFF" height="49.6219" style="stroke: #A80036; stroke-width: 1.2;" width="12" x="880.8" y="510.6094"/><rect fill="#FFFFFF" height="347.6625" style="stroke: #A80036; stroke-width: 1.2;" width="12" x="880.8" y="614.6531"/><rect fill="#FFFFFF" height="83.2219" style="stroke: #A80036; stroke-width: 1.2;" width="12" x="886.8" y="739.5188"/><rect fill="#FFFFFF" height="36.4219" style="stroke: #A80036; stroke-width: 1.2;" width="12" x="1182" y="657.075"/><rect fill="#FFFFFF" height="58.7531" style="stroke: #A80036; stroke-width: 1.2;" width="12" x="1399.8" y="859.9406"/><rect fill="#FFFFFF" height="16.8" style="stroke: #A80036; stroke-width: 1.2;" width="12" x="1568.4" y="781.9406"/><line style="stroke: #A80036; stroke-width: 1.2; stroke-dasharray: 5.0,5.0;" x1="195.6" x2="195.6" y1="71.3719" y2="1065.1594"/><line style="stroke: #A80036; stroke-width: 1.2; stroke-dasharray: 5.0,5.0;" x1="447" x2="447" y1="71.3719" y2="1065.1594"/><line style="stroke: #A80036; stroke-width: 1.2; stroke-dasharray: 5.0,5.0;" x1="661.8" x2="661.8" y1="193.7813" y2="1065.1594"/><line style="stroke: #A80036; stroke-width: 1.2; stroke-dasharray: 5.0,5.0;" x1="880.2" x2="880.2" y1="298.1344" y2="1065.1594"/><line style="stroke: #A80036; stroke-width: 1.2; stroke-dasharray: 5.0,5.0;" x1="1188" x2="1188" y1="71.3719" y2="1065.1594"/><line style="stroke: #A80036; stroke-width: 1.2; stroke-dasharray: 5.0,5.0;" x1="1405.2" x2="1405.2" y1="878.3063" y2="1065.1594"/><line style="stroke: #A80036; stroke-width: 1.2; stroke-dasharray: 5.0,5.0;" x1="1574.4" x2="1574.4" y1="71.3719" y2="1065.1594"/><rect fill="#3333C4" height="37.9313" style="stroke: #A80036; stroke-width: 1.7999999999999998;" width="129.6" x="130.8" y="32.2406"/><text fill="#FFFFFF" font-family="sans-serif" font-size="16.8" lengthAdjust="spacingAndGlyphs" textLength="112.8" x="139.2" y="58.0805">:LogicManager</text><rect fill="#3333C4" height="37.9313" style="stroke: #A80036; stroke-width: 1.7999999999999998;" width="154.8" x="370.2" y="32.2406"/><text fill="#FFFFFF" font-family="sans-serif" font-size="16.8" lengthAdjust="spacingAndGlyphs" textLength="138" x="378.6" y="58.0805">:OrderBookParser</text><rect fill="#3333C4" height="37.9313" style="stroke: #A80036; stroke-width: 1.7999999999999998;" width="175.2" x="1100.4" y="32.2406"/><text fill="#FFFFFF" font-family="sans-serif" font-size="16.8" lengthAdjust="spacingAndGlyphs" textLength="158.4" x="1108.8" y="58.0805">:NearbyCommandUtil</text><rect fill="#9D0012" height="37.9313" style="stroke: #A80036; stroke-width: 1.7999999999999998;" width="76.8" x="1536" y="32.2406"/><text fill="#FFFFFF" font-family="sans-serif" font-size="16.8" lengthAdjust="spacingAndGlyphs" textLength="50.4" x="1549.2" y="58.0805">:Model</text><rect fill="#FFFFFF" height="933.3656" style="stroke: #A80036; stroke-width: 1.2;" width="12" x="189.6" y="110.1938"/><rect fill="#FFFFFF" height="281.55" style="stroke: #A80036; stroke-width: 1.2;" width="12" x="441.6" y="146.6156"/><rect fill="#FFFFFF" height="39.1313" style="stroke: #A80036; stroke-width: 1.2;" width="12" x="656.4" y="175.4156"/><rect fill="#FFFFFF" height="123.975" style="stroke: #A80036; stroke-width: 1.2;" width="12" x="656.4" y="250.9688"/><rect fill="#FFFFFF" height="58.7531" style="stroke: #A80036; stroke-width: 1.2;" width="12" x="874.8" y="279.7688"/><rect fill="#FFFFFF" height="542.55" style="stroke: #A80036; stroke-width: 1.2;" width="12" x="874.8" y="464.5875"/><rect fill="#FFFFFF" height="49.6219" style="stroke: #A80036; stroke-width: 1.2;" width="12" x="880.8" y="510.6094"/><rect fill="#FFFFFF" height="347.6625" style="stroke: #A80036; stroke-width: 1.2;" width="12" x="880.8" y="614.6531"/><rect fill="#FFFFFF" height="83.2219" style="stroke: #A80036; stroke-width: 1.2;" width="12" x="886.8" y="739.5188"/><rect fill="#FFFFFF" height="36.4219" style="stroke: #A80036; stroke-width: 1.2;" width="12" x="1182" y="657.075"/><rect fill="#FFFFFF" height="58.7531" style="stroke: #A80036; stroke-width: 1.2;" width="12" x="1399.8" y="859.9406"/><rect fill="#FFFFFF" height="16.8" style="stroke: #A80036; stroke-width: 1.2;" width="12" x="1568.4" y="781.9406"/><polygon fill="#A80036" points="175.2,105.3938,187.2,110.1938,175.2,114.9937,180,110.1938" style="stroke: #A80036; stroke-width: 1.2;"/><line style="stroke: #A80036; stroke-width: 1.2;" x1="3.6" x2="182.4" y1="110.1938" y2="110.1938"/><text fill="#000000" font-family="sans-serif" font-size="15.6" lengthAdjust="spacingAndGlyphs" textLength="163.2" x="15" y="104.366">execute("nearby -o 14")</text><polygon fill="#A80036" points="427.2,141.8156,439.2,146.6156,427.2,151.4156,432,146.6156" style="stroke: #A80036; stroke-width: 1.2;"/><line style="stroke: #A80036; stroke-width: 1.2;" x1="201.6" x2="434.4" y1="146.6156" y2="146.6156"/><text fill="#000000" font-family="sans-serif" font-size="15.6" lengthAdjust="spacingAndGlyphs" textLength="217.2" x="213" y="140.7879">parseCommand("nearby -o 14")</text><polygon fill="#A80036" points="546.6,158.6156,558.6,163.4156,546.6,168.2156,551.4,163.4156" style="stroke: #A80036; stroke-width: 1.2;"/><line style="stroke: #A80036; stroke-width: 1.2;" x1="453.6" x2="553.8" y1="163.4156" y2="163.4156"/><rect fill="#3333C4" height="37.9313" style="stroke: #A80036; stroke-width: 1.7999999999999998;" width="202.8" x="561" y="156.2156"/><text fill="#FFFFFF" font-family="sans-serif" font-size="16.8" lengthAdjust="spacingAndGlyphs" textLength="186" x="569.4" y="182.0555">:NearbyCommandParser</text><polygon fill="#A80036" points="466.8,209.7469,454.8,214.5469,466.8,219.3469,462,214.5469" style="stroke: #A80036; stroke-width: 1.2;"/><line style="stroke: #A80036; stroke-width: 1.2; stroke-dasharray: 2.0,2.0;" x1="459.6" x2="661.2" y1="214.5469" y2="214.5469"/><polygon fill="#A80036" points="642,246.1688,654,250.9688,642,255.7687,646.8,250.9688" style="stroke: #A80036; stroke-width: 1.2;"/><line style="stroke: #A80036; stroke-width: 1.2;" x1="453.6" x2="649.2" y1="250.9688" y2="250.9688"/><text fill="#000000" font-family="sans-serif" font-size="15.6" lengthAdjust="spacingAndGlyphs" textLength="99.6" x="505.2" y="245.141">parse(" -o 14")</text><polygon fill="#A80036" points="785.4,262.9688,797.4,267.7688,785.4,272.5687,790.2,267.7688" style="stroke: #A80036; stroke-width: 1.2;"/><line style="stroke: #A80036; stroke-width: 1.2;" x1="668.4" x2="792.6" y1="267.7688" y2="267.7688"/><rect fill="#3333C4" height="37.9313" style="stroke: #A80036; stroke-width: 1.7999999999999998;" width="162" x="799.8" y="260.5687"/><text fill="#FFFFFF" font-family="sans-serif" font-size="16.8" lengthAdjust="spacingAndGlyphs" textLength="145.2" x="808.2" y="286.4086">n:NearbyCommand</text><polygon fill="#A80036" points="681.6,333.7219,669.6,338.5219,681.6,343.3219,676.8,338.5219" style="stroke: #A80036; stroke-width: 1.2;"/><line style="stroke: #A80036; stroke-width: 1.2; stroke-dasharray: 2.0,2.0;" x1="674.4" x2="879.6" y1="338.5219" y2="338.5219"/><text fill="#000000" font-family="sans-serif" font-size="15.6" lengthAdjust="spacingAndGlyphs" textLength="8.4" x="770.4" y="332.6941">n</text><polygon fill="#A80036" points="466.8,370.1438,454.8,374.9437,466.8,379.7438,462,374.9437" style="stroke: #A80036; stroke-width: 1.2;"/><line style="stroke: #A80036; stroke-width: 1.2; stroke-dasharray: 2.0,2.0;" x1="459.6" x2="661.2" y1="374.9437" y2="374.9437"/><text fill="#000000" font-family="sans-serif" font-size="15.6" lengthAdjust="spacingAndGlyphs" textLength="8.4" x="553.8" y="369.116">n</text><line style="stroke: #A80036; stroke-width: 2.4;" x1="651.6" x2="673.2" y1="380.9437" y2="402.5438"/><line style="stroke: #A80036; stroke-width: 2.4;" x1="651.6" x2="673.2" y1="402.5438" y2="380.9437"/><polygon fill="#A80036" points="214.8,423.3656,202.8,428.1656,214.8,432.9656,210,428.1656" style="stroke: #A80036; stroke-width: 1.2;"/><line style="stroke: #A80036; stroke-width: 1.2; stroke-dasharray: 2.0,2.0;" x1="207.6" x2="446.4" y1="428.1656" y2="428.1656"/><text fill="#000000" font-family="sans-serif" font-size="15.6" lengthAdjust="spacingAndGlyphs" textLength="8.4" x="320.4" y="422.3379">n</text><polygon fill="#A80036" points="860.4,459.7875,872.4,464.5875,860.4,469.3875,865.2,464.5875" style="stroke: #A80036; stroke-width: 1.2;"/><line style="stroke: #A80036; stroke-width: 1.2;" x1="201.6" x2="867.6" y1="464.5875" y2="464.5875"/><text fill="#000000" font-family="sans-serif" font-size="15.6" lengthAdjust="spacingAndGlyphs" textLength="106.8" x="484.8" y="458.7598">execute(model)</text><line style="stroke: #A80036; stroke-width: 1.2;" x1="886.8" x2="943.2" y1="495.0094" y2="495.0094"/><line style="stroke: #A80036; stroke-width: 1.2;" x1="943.2" x2="943.2" y1="495.0094" y2="510.6094"/><line style="stroke: #A80036; stroke-width: 1.2;" x1="894" x2="943.2" y1="510.6094" y2="510.6094"/><polygon fill="#A80036" points="906,505.8094,894,510.6094,906,515.4094,901.2,510.6094" style="stroke: #A80036; stroke-width: 1.2;"/><text fill="#000000" font-family="sans-serif" font-size="15.6" lengthAdjust="spacingAndGlyphs" textLength="160.8" x="901.2" y="489.1816">isPostalSectorSearch()</text><line style="stroke: #A80036; stroke-width: 1.2; stroke-dasharray: 2.0,2.0;" x1="892.8" x2="943.2" y1="559.0313" y2="559.0313"/><line style="stroke: #A80036; stroke-width: 1.2; stroke-dasharray: 2.0,2.0;" x1="943.2" x2="943.2" y1="559.0313" y2="574.6313"/><line style="stroke: #A80036; stroke-width: 1.2; stroke-dasharray: 2.0,2.0;" x1="886.8" x2="943.2" y1="574.6313" y2="574.6313"/><polygon fill="#A80036" points="898.8,569.8313,886.8,574.6313,898.8,579.4313,894,574.6313" style="stroke: #A80036; stroke-width: 1.2;"/><text fill="#000000" font-family="sans-serif" font-size="15.6" lengthAdjust="spacingAndGlyphs" textLength="26.4" x="901.2" y="553.2035">true</text><line style="stroke: #A80036; stroke-width: 1.2;" x1="886.8" x2="943.2" y1="599.0531" y2="599.0531"/><line style="stroke: #A80036; stroke-width: 1.2;" x1="943.2" x2="943.2" y1="599.0531" y2="614.6531"/><line style="stroke: #A80036; stroke-width: 1.2;" x1="894" x2="943.2" y1="614.6531" y2="614.6531"/><polygon fill="#A80036" points="906,609.8531,894,614.6531,906,619.4531,901.2,614.6531" style="stroke: #A80036; stroke-width: 1.2;"/><text fill="#000000" font-family="sans-serif" font-size="15.6" lengthAdjust="spacingAndGlyphs" textLength="278.4" x="901.2" y="593.2254">getPostalSectorCommandResult(model)</text><polygon fill="#A80036" points="1167.6,652.275,1179.6,657.075,1167.6,661.875,1172.4,657.075" style="stroke: #A80036; stroke-width: 1.2;"/><line style="stroke: #A80036; stroke-width: 1.2;" x1="892.8" x2="1174.8" y1="657.075" y2="657.075"/><text fill="#000000" font-family="sans-serif" font-size="15.6" lengthAdjust="spacingAndGlyphs" textLength="163.2" x="955.8" y="651.2473">isValidPostalSector(14)</text><polygon fill="#A80036" points="906,688.6969,894,693.4969,906,698.2969,901.2,693.4969" style="stroke: #A80036; stroke-width: 1.2;"/><line style="stroke: #A80036; stroke-width: 1.2; stroke-dasharray: 2.0,2.0;" x1="898.8" x2="1186.8" y1="693.4969" y2="693.4969"/><text fill="#000000" font-family="sans-serif" font-size="15.6" lengthAdjust="spacingAndGlyphs" textLength="26.4" x="1027.2" y="687.6691">true</text><line style="stroke: #A80036; stroke-width: 1.2;" x1="892.8" x2="949.2" y1="723.9187" y2="723.9187"/><line style="stroke: #A80036; stroke-width: 1.2;" x1="949.2" x2="949.2" y1="723.9187" y2="739.5188"/><line style="stroke: #A80036; stroke-width: 1.2;" x1="900" x2="949.2" y1="739.5188" y2="739.5188"/><polygon fill="#A80036" points="912,734.7188,900,739.5188,912,744.3188,907.2,739.5188" style="stroke: #A80036; stroke-width: 1.2;"/><text fill="#000000" font-family="sans-serif" font-size="15.6" lengthAdjust="spacingAndGlyphs" textLength="186" x="907.2" y="718.091">showPostalSectors(model)</text><polygon fill="#A80036" points="1554,777.1406,1566,781.9406,1554,786.7406,1558.8,781.9406" style="stroke: #A80036; stroke-width: 1.2;"/><line style="stroke: #A80036; stroke-width: 1.2;" x1="898.8" x2="1561.2" y1="781.9406" y2="781.9406"/><text fill="#000000" font-family="sans-serif" font-size="15.6" lengthAdjust="spacingAndGlyphs" textLength="272.4" x="1097.4" y="776.1129">updateFilteredOrderList(orderPredicate)</text><polygon fill="#A80036" points="912,793.9406,900,798.7406,912,803.5406,907.2,798.7406" style="stroke: #A80036; stroke-width: 1.2;"/><line style="stroke: #A80036; stroke-width: 1.2; stroke-dasharray: 2.0,2.0;" x1="904.8" x2="1573.2" y1="798.7406" y2="798.7406"/><line style="stroke: #A80036; stroke-width: 1.2; stroke-dasharray: 2.0,2.0;" x1="898.8" x2="949.2" y1="821.5406" y2="821.5406"/><line style="stroke: #A80036; stroke-width: 1.2; stroke-dasharray: 2.0,2.0;" x1="949.2" x2="949.2" y1="821.5406" y2="837.1406"/><line style="stroke: #A80036; stroke-width: 1.2; stroke-dasharray: 2.0,2.0;" x1="892.8" x2="949.2" y1="837.1406" y2="837.1406"/><polygon fill="#A80036" points="904.8,832.3406,892.8,837.1406,904.8,841.9406,900,837.1406" style="stroke: #A80036; stroke-width: 1.2;"/><polygon fill="#A80036" points="1297.2,843.1406,1309.2,847.9406,1297.2,852.7406,1302,847.9406" style="stroke: #A80036; stroke-width: 1.2;"/><line style="stroke: #A80036; stroke-width: 1.2;" x1="892.8" x2="1304.4" y1="847.9406" y2="847.9406"/><rect fill="#3333C4" height="37.9313" style="stroke: #A80036; stroke-width: 1.7999999999999998;" width="188.4" x="1311.6" y="840.7406"/><text fill="#FFFFFF" font-family="sans-serif" font-size="16.8" lengthAdjust="spacingAndGlyphs" textLength="171.6" x="1320" y="866.5805">result:CommandResult</text><polygon fill="#A80036" points="906,913.8938,894,918.6938,906,923.4938,901.2,918.6938" style="stroke: #A80036; stroke-width: 1.2;"/><line style="stroke: #A80036; stroke-width: 1.2; stroke-dasharray: 2.0,2.0;" x1="898.8" x2="1404.6" y1="918.6938" y2="918.6938"/><text fill="#000000" font-family="sans-serif" font-size="15.6" lengthAdjust="spacingAndGlyphs" textLength="38.4" x="1130.1" y="912.866">result</text><line style="stroke: #A80036; stroke-width: 1.2; stroke-dasharray: 2.0,2.0;" x1="892.8" x2="943.2" y1="961.1156" y2="961.1156"/><line style="stroke: #A80036; stroke-width: 1.2; stroke-dasharray: 2.0,2.0;" x1="943.2" x2="943.2" y1="961.1156" y2="976.7156"/><line style="stroke: #A80036; stroke-width: 1.2; stroke-dasharray: 2.0,2.0;" x1="886.8" x2="943.2" y1="976.7156" y2="976.7156"/><polygon fill="#A80036" points="898.8,971.9156,886.8,976.7156,898.8,981.5156,894,976.7156" style="stroke: #A80036; stroke-width: 1.2;"/><text fill="#000000" font-family="sans-serif" font-size="15.6" lengthAdjust="spacingAndGlyphs" textLength="38.4" x="901.2" y="955.2879">result</text><polygon fill="#A80036" points="214.8,1002.3375,202.8,1007.1375,214.8,1011.9375,210,1007.1375" style="stroke: #A80036; stroke-width: 1.2;"/><line style="stroke: #A80036; stroke-width: 1.2; stroke-dasharray: 2.0,2.0;" x1="207.6" x2="879.6" y1="1007.1375" y2="1007.1375"/><text fill="#000000" font-family="sans-serif" font-size="15.6" lengthAdjust="spacingAndGlyphs" textLength="38.4" x="522" y="1001.3098">result</text><polygon fill="#A80036" points="16.8,1038.7594,4.8,1043.5594,16.8,1048.3594,12,1043.5594" style="stroke: #A80036; stroke-width: 1.2;"/><line style="stroke: #A80036; stroke-width: 1.2; stroke-dasharray: 2.0,2.0;" x1="9.6" x2="194.4" y1="1043.5594" y2="1043.5594"/><text fill="#000000" font-family="sans-serif" font-size="15.6" lengthAdjust="spacingAndGlyphs" textLength="38.4" x="80.4" y="1037.7316">result</text><!--MD5=[a2ba581957999a47c85dd42864c1b4eb]
@startuml

skinparam BackgroundColor #FFFFFFF

skinparam Shadowing false

skinparam Class {
    FontColor #FFFFFF
    BorderThickness 1
    BorderColor #FFFFFF
    StereotypeFontColor #FFFFFF
    FontName Arial
}

skinparam Actor {
    BorderColor #000000
    Color #000000
    FontName Arial
}

skinparam Sequence {
    MessageAlign center
    BoxFontSize 15
    BoxPadding 0
    BoxFontColor #FFFFFF
    FontName Arial
}

skinparam Participant {
    FontColor #FFFFFFF
    Padding 20
}

skinparam MinClassWidth 50
skinparam ParticipantPadding 10
skinparam Shadowing false
skinparam DefaultTextAlignment center
skinparam packageStyle Rectangle

hide footbox
hide members
hide circle
box Logic #C8C8FA
participant ":LogicManager" as LogicManager #3333C4
participant ":OrderBookParser" as OrderBookParser #3333C4
participant ":NearbyCommandParser" as NearbyCommandParser #3333C4
participant "n:NearbyCommand" as NearbyCommand #3333C4
participant ":NearbyCommandUtil" as NearbyCommandUtil #3333C4
participant "result:CommandResult" as CommandResult #3333C4
end box

box Model #F97181
participant ":Model" as Model #9D0012
end box

[-> LogicManager : execute("nearby -o 14")
activate LogicManager

LogicManager -> OrderBookParser : parseCommand("nearby -o 14")
activate OrderBookParser

create NearbyCommandParser
OrderBookParser -> NearbyCommandParser
activate NearbyCommandParser

NearbyCommandParser - -> OrderBookParser
deactivate NearbyCommandParser

OrderBookParser -> NearbyCommandParser : parse(" -o 14")
activate NearbyCommandParser

create NearbyCommand
NearbyCommandParser -> NearbyCommand
activate NearbyCommand

NearbyCommand - -> NearbyCommandParser : n
deactivate NearbyCommand

NearbyCommandParser - -> OrderBookParser : n
deactivate NearbyCommandParser
NearbyCommandParser -[hidden]-> OrderBookParser
destroy NearbyCommandParser

OrderBookParser - -> LogicManager : n
deactivate OrderBookParser

LogicManager -> NearbyCommand : execute(model)
activate NearbyCommand

NearbyCommand -> NearbyCommand: isPostalSectorSearch()
activate NearbyCommand
NearbyCommand - -> NearbyCommand: true
deactivate NearbyCommand

NearbyCommand -> NearbyCommand: getPostalSectorCommandResult(model)
activate NearbyCommand

NearbyCommand -> NearbyCommandUtil: isValidPostalSector(14)
activate NearbyCommandUtil
NearbyCommandUtil - -> NearbyCommand: true
deactivate NearbyCommandUtil

NearbyCommand -> NearbyCommand: showPostalSectors(model)
activate NearbyCommand
NearbyCommand -> Model : updateFilteredOrderList(orderPredicate)
activate Model
Model - -> NearbyCommand
deactivate Model
NearbyCommand - -> NearbyCommand:
deactivate NearbyCommand

create CommandResult
NearbyCommand -> CommandResult
activate CommandResult

CommandResult - -> NearbyCommand: result
deactivate CommandResult
NearbyCommand - -> NearbyCommand: result
deactivate NearbyCommand
NearbyCommand - -> LogicManager : result
deactivate NearbyCommand

[<- -LogicManager : result
deactivate LogicManager
@enduml

PlantUML version 1.2020.03beta6(Unknown compile time)
(GPL source distribution)
Java Runtime: OpenJDK Runtime Environment
JVM: OpenJDK 64-Bit Server VM
Java Version: 11.0.6+8-b520.43
Operating System: Windows 10
Default Encoding: Cp1252
Language: en
Country: SG
--></g></svg>
