<?xml version="1.0" encoding="UTF-8" standalone="no"?><svg xmlns="http://www.w3.org/2000/svg" xmlns:xlink="http://www.w3.org/1999/xlink" contentScriptType="application/ecmascript" contentStyleType="text/css" height="528.5px" preserveAspectRatio="none" style="width:877px;height:528px;" version="1.1" viewBox="0 0 877 528" width="877.8px" zoomAndPan="magnify"><defs/><g><rect fill="#C8C8FA" height="513.5047" style="stroke: #A80036; stroke-width: 0.7;" width="730.8" x="73.5" y="2.8"/><text fill="#FFFFFF" font-family="sans-serif" font-size="10.5" font-weight="bold" lengthAdjust="spacingAndGlyphs" textLength="27.3" x="423.85" y="13.6999">Logic</text><rect fill="#F97181" height="513.5047" style="stroke: #A80036; stroke-width: 0.7;" width="64.4" x="805.7" y="2.8"/><text fill="#FFFFFF" font-family="sans-serif" font-size="10.5" font-weight="bold" lengthAdjust="spacingAndGlyphs" textLength="30.8" x="821.1" y="13.6999">Model</text><rect fill="#FFFFFF" height="443.625" style="stroke: #A80036; stroke-width: 0.7;" width="7" x="117.6" y="64.2797"/><rect fill="#FFFFFF" height="164.2375" style="stroke: #A80036; stroke-width: 0.7;" width="7" x="271.6" y="85.5258"/><rect fill="#FFFFFF" height="22.8266" style="stroke: #A80036; stroke-width: 0.7;" width="7" x="396.9" y="102.3258"/><rect fill="#FFFFFF" height="72.3188" style="stroke: #A80036; stroke-width: 0.7;" width="7" x="396.9" y="146.3984"/><rect fill="#FFFFFF" height="34.2727" style="stroke: #A80036; stroke-width: 0.7;" width="7" x="524.3" y="163.1984"/><rect fill="#FFFFFF" height="200.9492" style="stroke: #A80036; stroke-width: 0.7;" width="7" x="524.3" y="271.0094"/><rect fill="#FFFFFF" height="28.9461" style="stroke: #A80036; stroke-width: 0.7;" width="7" x="527.8" y="340.3477"/><rect fill="#FFFFFF" height="21.2461" style="stroke: #A80036; stroke-width: 0.7;" width="7" x="630.7" y="292.2555"/><rect fill="#FFFFFF" height="34.2727" style="stroke: #A80036; stroke-width: 0.7;" width="7" x="736.05" y="412.2398"/><line style="stroke: #A80036; stroke-width: 0.7; stroke-dasharray: 5.0,5.0;" x1="121.1" x2="121.1" y1="41.6336" y2="520.5047"/><line style="stroke: #A80036; stroke-width: 0.7; stroke-dasharray: 5.0,5.0;" x1="274.75" x2="274.75" y1="41.6336" y2="520.5047"/><line style="stroke: #A80036; stroke-width: 0.7; stroke-dasharray: 5.0,5.0;" x1="400.05" x2="400.05" y1="113.0391" y2="520.5047"/><line style="stroke: #A80036; stroke-width: 0.7; stroke-dasharray: 5.0,5.0;" x1="527.45" x2="527.45" y1="173.9117" y2="520.5047"/><line style="stroke: #A80036; stroke-width: 0.7; stroke-dasharray: 5.0,5.0;" x1="634.2" x2="634.2" y1="41.6336" y2="520.5047"/><line style="stroke: #A80036; stroke-width: 0.7; stroke-dasharray: 5.0,5.0;" x1="739.2" x2="739.2" y1="422.9531" y2="520.5047"/><line style="stroke: #A80036; stroke-width: 0.7; stroke-dasharray: 5.0,5.0;" x1="837.9" x2="837.9" y1="41.6336" y2="520.5047"/><rect fill="#3333C4" height="22.1266" style="stroke: #A80036; stroke-width: 1.0499999999999998;" width="75.6" x="83.3" y="18.807"/><text fill="#FFFFFF" font-family="sans-serif" font-size="9.8" lengthAdjust="spacingAndGlyphs" textLength="65.8" x="88.2" y="33.8803">:LogicManager</text><rect fill="#3333C4" height="22.1266" style="stroke: #A80036; stroke-width: 1.0499999999999998;" width="90.3" x="229.95" y="18.807"/><text fill="#FFFFFF" font-family="sans-serif" font-size="9.8" lengthAdjust="spacingAndGlyphs" textLength="80.5" x="234.85" y="33.8803">:OrderBookParser</text><rect fill="#3333C4" height="22.1266" style="stroke: #A80036; stroke-width: 1.0499999999999998;" width="58.8" x="604.8" y="18.807"/><text fill="#FFFFFF" font-family="sans-serif" font-size="9.8" lengthAdjust="spacingAndGlyphs" textLength="49" x="609.7" y="33.8803">:DistrictInfo</text><rect fill="#9D0012" height="22.1266" style="stroke: #A80036; stroke-width: 1.0499999999999998;" width="44.8" x="815.5" y="18.807"/><text fill="#FFFFFF" font-family="sans-serif" font-size="9.8" lengthAdjust="spacingAndGlyphs" textLength="29.4" x="823.2" y="33.8803">:Model</text><rect fill="#FFFFFF" height="443.625" style="stroke: #A80036; stroke-width: 0.7;" width="7" x="117.6" y="64.2797"/><rect fill="#FFFFFF" height="164.2375" style="stroke: #A80036; stroke-width: 0.7;" width="7" x="271.6" y="85.5258"/><rect fill="#FFFFFF" height="22.8266" style="stroke: #A80036; stroke-width: 0.7;" width="7" x="396.9" y="102.3258"/><rect fill="#FFFFFF" height="72.3188" style="stroke: #A80036; stroke-width: 0.7;" width="7" x="396.9" y="146.3984"/><rect fill="#FFFFFF" height="34.2727" style="stroke: #A80036; stroke-width: 0.7;" width="7" x="524.3" y="163.1984"/><rect fill="#FFFFFF" height="200.9492" style="stroke: #A80036; stroke-width: 0.7;" width="7" x="524.3" y="271.0094"/><rect fill="#FFFFFF" height="28.9461" style="stroke: #A80036; stroke-width: 0.7;" width="7" x="527.8" y="340.3477"/><rect fill="#FFFFFF" height="21.2461" style="stroke: #A80036; stroke-width: 0.7;" width="7" x="630.7" y="292.2555"/><rect fill="#FFFFFF" height="34.2727" style="stroke: #A80036; stroke-width: 0.7;" width="7" x="736.05" y="412.2398"/><polygon fill="#A80036" points="109.2,61.4797,116.2,64.2797,109.2,67.0797,112,64.2797" style="stroke: #A80036; stroke-width: 0.7;"/><line style="stroke: #A80036; stroke-width: 0.7;" x1="2.1" x2="113.4" y1="64.2797" y2="64.2797"/><text fill="#000000" font-family="sans-serif" font-size="9.1" lengthAdjust="spacingAndGlyphs" textLength="102.2" x="8.75" y="60.8802">execute("nearby central")</text><polygon fill="#A80036" points="263.2,82.7258,270.2,85.5258,263.2,88.3258,266,85.5258" style="stroke: #A80036; stroke-width: 0.7;"/><line style="stroke: #A80036; stroke-width: 0.7;" x1="124.6" x2="267.4" y1="85.5258" y2="85.5258"/><text fill="#000000" font-family="sans-serif" font-size="9.1" lengthAdjust="spacingAndGlyphs" textLength="133.7" x="131.25" y="82.1263">parseCommand("nearby central")</text><polygon fill="#A80036" points="332.85,92.5258,339.85,95.3258,332.85,98.1258,335.65,95.3258" style="stroke: #A80036; stroke-width: 0.7;"/><line style="stroke: #A80036; stroke-width: 0.7;" x1="278.6" x2="337.05" y1="95.3258" y2="95.3258"/><rect fill="#3333C4" height="22.1266" style="stroke: #A80036; stroke-width: 1.0499999999999998;" width="118.3" x="341.25" y="91.1258"/><text fill="#FFFFFF" font-family="sans-serif" font-size="9.8" lengthAdjust="spacingAndGlyphs" textLength="108.5" x="346.15" y="106.199">:NearbyCommandParser</text><polygon fill="#A80036" points="286.3,122.3523,279.3,125.1523,286.3,127.9523,283.5,125.1523" style="stroke: #A80036; stroke-width: 0.7;"/><line style="stroke: #A80036; stroke-width: 0.7; stroke-dasharray: 2.0,2.0;" x1="282.1" x2="399.7" y1="125.1523" y2="125.1523"/><polygon fill="#A80036" points="388.5,143.5984,395.5,146.3984,388.5,149.1984,391.3,146.3984" style="stroke: #A80036; stroke-width: 0.7;"/><line style="stroke: #A80036; stroke-width: 0.7;" x1="278.6" x2="392.7" y1="146.3984" y2="146.3984"/><text fill="#000000" font-family="sans-serif" font-size="9.1" lengthAdjust="spacingAndGlyphs" textLength="62.3" x="306.6" y="142.9989">parse("central")</text><polygon fill="#A80036" points="472.15,153.3984,479.15,156.1984,472.15,158.9984,474.95,156.1984" style="stroke: #A80036; stroke-width: 0.7;"/><line style="stroke: #A80036; stroke-width: 0.7;" x1="403.9" x2="476.35" y1="156.1984" y2="156.1984"/><rect fill="#3333C4" height="22.1266" style="stroke: #A80036; stroke-width: 1.0499999999999998;" width="94.5" x="480.55" y="151.9984"/><text fill="#FFFFFF" font-family="sans-serif" font-size="9.8" lengthAdjust="spacingAndGlyphs" textLength="84.7" x="485.45" y="167.0717">n:NearbyCommand</text><polygon fill="#A80036" points="411.6,194.6711,404.6,197.4711,411.6,200.2711,408.8,197.4711" style="stroke: #A80036; stroke-width: 0.7;"/><line style="stroke: #A80036; stroke-width: 0.7; stroke-dasharray: 2.0,2.0;" x1="407.4" x2="527.1" y1="197.4711" y2="197.4711"/><text fill="#000000" font-family="sans-serif" font-size="9.1" lengthAdjust="spacingAndGlyphs" textLength="4.9" x="463.4" y="194.0716">n</text><polygon fill="#A80036" points="286.3,215.9172,279.3,218.7172,286.3,221.5172,283.5,218.7172" style="stroke: #A80036; stroke-width: 0.7;"/><line style="stroke: #A80036; stroke-width: 0.7; stroke-dasharray: 2.0,2.0;" x1="282.1" x2="399.7" y1="218.7172" y2="218.7172"/><text fill="#000000" font-family="sans-serif" font-size="9.1" lengthAdjust="spacingAndGlyphs" textLength="4.9" x="337.05" y="215.3177">n</text><line style="stroke: #A80036; stroke-width: 1.4;" x1="394.1" x2="406.7" y1="222.2172" y2="234.8172"/><line style="stroke: #A80036; stroke-width: 1.4;" x1="394.1" x2="406.7" y1="234.8172" y2="222.2172"/><polygon fill="#A80036" points="132.3,246.9633,125.3,249.7633,132.3,252.5633,129.5,249.7633" style="stroke: #A80036; stroke-width: 0.7;"/><line style="stroke: #A80036; stroke-width: 0.7; stroke-dasharray: 2.0,2.0;" x1="128.1" x2="274.4" y1="249.7633" y2="249.7633"/><text fill="#000000" font-family="sans-serif" font-size="9.1" lengthAdjust="spacingAndGlyphs" textLength="4.9" x="197.4" y="246.3638">n</text><polygon fill="#A80036" points="515.9,268.2094,522.9,271.0094,515.9,273.8094,518.7,271.0094" style="stroke: #A80036; stroke-width: 0.7;"/><line style="stroke: #A80036; stroke-width: 0.7;" x1="124.6" x2="520.1" y1="271.0094" y2="271.0094"/><text fill="#000000" font-family="sans-serif" font-size="9.1" lengthAdjust="spacingAndGlyphs" textLength="37.8" x="305.55" y="267.6099">execute()</text><polygon fill="#A80036" points="622.3,289.4555,629.3,292.2555,622.3,295.0555,625.1,292.2555" style="stroke: #A80036; stroke-width: 0.7;"/><line style="stroke: #A80036; stroke-width: 0.7;" x1="531.3" x2="626.5" y1="292.2555" y2="292.2555"/><text fill="#000000" font-family="sans-serif" font-size="9.1" lengthAdjust="spacingAndGlyphs" textLength="86.1" x="537.95" y="288.856">isValidArea("central")</text><polygon fill="#A80036" points="539,310.7016,532,313.5016,539,316.3016,536.2,313.5016" style="stroke: #A80036; stroke-width: 0.7;"/><line style="stroke: #A80036; stroke-width: 0.7; stroke-dasharray: 2.0,2.0;" x1="534.8" x2="633.5" y1="313.5016" y2="313.5016"/><text fill="#000000" font-family="sans-serif" font-size="9.1" lengthAdjust="spacingAndGlyphs" textLength="15.4" x="575.05" y="310.1021">true</text><line style="stroke: #A80036; stroke-width: 0.7;" x1="531.3" x2="564.2" y1="331.2477" y2="331.2477"/><line style="stroke: #A80036; stroke-width: 0.7;" x1="564.2" x2="564.2" y1="331.2477" y2="340.3477"/><line style="stroke: #A80036; stroke-width: 0.7;" x1="535.5" x2="564.2" y1="340.3477" y2="340.3477"/><polygon fill="#A80036" points="542.5,337.5477,535.5,340.3477,542.5,343.1477,539.7,340.3477" style="stroke: #A80036; stroke-width: 0.7;"/><text fill="#000000" font-family="sans-serif" font-size="9.1" lengthAdjust="spacingAndGlyphs" textLength="75.6" x="539.7" y="327.8481">getAreaPredicate()</text><line style="stroke: #A80036; stroke-width: 0.7; stroke-dasharray: 2.0,2.0;" x1="534.8" x2="564.2" y1="368.5938" y2="368.5938"/><line style="stroke: #A80036; stroke-width: 0.7; stroke-dasharray: 2.0,2.0;" x1="564.2" x2="564.2" y1="368.5938" y2="377.6937"/><line style="stroke: #A80036; stroke-width: 0.7; stroke-dasharray: 2.0,2.0;" x1="531.3" x2="564.2" y1="377.6937" y2="377.6937"/><polygon fill="#A80036" points="538.3,374.8937,531.3,377.6937,538.3,380.4938,535.5,377.6937" style="stroke: #A80036; stroke-width: 0.7;"/><text fill="#000000" font-family="sans-serif" font-size="9.1" lengthAdjust="spacingAndGlyphs" textLength="58.8" x="539.7" y="365.1942">orderPredicate</text><polygon fill="#A80036" points="829.5,392.6398,836.5,395.4398,829.5,398.2398,832.3,395.4398" style="stroke: #A80036; stroke-width: 0.7;"/><line style="stroke: #A80036; stroke-width: 0.7;" x1="531.3" x2="833.7" y1="395.4398" y2="395.4398"/><text fill="#000000" font-family="sans-serif" font-size="9.1" lengthAdjust="spacingAndGlyphs" textLength="158.9" x="605.15" y="392.0403">updateFilteredOrderList(orderPredicate)</text><polygon fill="#A80036" points="676.2,402.4398,683.2,405.2398,676.2,408.0398,679,405.2398" style="stroke: #A80036; stroke-width: 0.7;"/><line style="stroke: #A80036; stroke-width: 0.7;" x1="531.3" x2="680.4" y1="405.2398" y2="405.2398"/><rect fill="#3333C4" height="22.1266" style="stroke: #A80036; stroke-width: 1.0499999999999998;" width="109.9" x="684.6" y="401.0398"/><text fill="#FFFFFF" font-family="sans-serif" font-size="9.8" lengthAdjust="spacingAndGlyphs" textLength="100.1" x="689.5" y="416.1131">result:CommandResult</text><polygon fill="#A80036" points="539,443.7125,532,446.5125,539,449.3125,536.2,446.5125" style="stroke: #A80036; stroke-width: 0.7;"/><line style="stroke: #A80036; stroke-width: 0.7; stroke-dasharray: 2.0,2.0;" x1="534.8" x2="738.85" y1="446.5125" y2="446.5125"/><text fill="#000000" font-family="sans-serif" font-size="9.1" lengthAdjust="spacingAndGlyphs" textLength="22.4" x="624.225" y="443.113">result</text><line style="stroke: #A80036; stroke-width: 0.7; stroke-dasharray: 2.0,2.0;" x1="531.3" x2="560.7" y1="471.2586" y2="471.2586"/><line style="stroke: #A80036; stroke-width: 0.7; stroke-dasharray: 2.0,2.0;" x1="560.7" x2="560.7" y1="471.2586" y2="480.3586"/><line style="stroke: #A80036; stroke-width: 0.7; stroke-dasharray: 2.0,2.0;" x1="527.8" x2="560.7" y1="480.3586" y2="480.3586"/><polygon fill="#A80036" points="534.8,477.5586,527.8,480.3586,534.8,483.1586,532,480.3586" style="stroke: #A80036; stroke-width: 0.7;"/><text fill="#000000" font-family="sans-serif" font-size="9.1" lengthAdjust="spacingAndGlyphs" textLength="22.4" x="536.2" y="467.8591">result</text><polygon fill="#A80036" points="132.3,495.3047,125.3,498.1047,132.3,500.9047,129.5,498.1047" style="stroke: #A80036; stroke-width: 0.7;"/><line style="stroke: #A80036; stroke-width: 0.7; stroke-dasharray: 2.0,2.0;" x1="128.1" x2="527.1" y1="498.1047" y2="498.1047"/><text fill="#000000" font-family="sans-serif" font-size="9.1" lengthAdjust="spacingAndGlyphs" textLength="22.4" x="315" y="494.7052">result</text><polygon fill="#A80036" points="9.8,505.1047,2.8,507.9047,9.8,510.7047,7,507.9047" style="stroke: #A80036; stroke-width: 0.7;"/><line style="stroke: #A80036; stroke-width: 0.7; stroke-dasharray: 2.0,2.0;" x1="5.6" x2="120.4" y1="507.9047" y2="507.9047"/><!--MD5=[0f5095c7012a401573b6bf9fd489e31d]
@startuml








skinparam BackgroundColor #FFFFFFF

skinparam Shadowing false

skinparam Class {
    FontColor #FFFFFF
    BorderThickness 1
    BorderColor #FFFFFF
    StereotypeFontColor #FFFFFF
    FontName Arial
}

skinparam Actor {
    BorderColor #000000
    Color #000000
    FontName Arial
}

skinparam Sequence {
    MessageAlign center
    BoxFontSize 15
    BoxPadding 0
    BoxFontColor #FFFFFF
    FontName Arial
}

skinparam Participant {
    FontColor #FFFFFFF
    Padding 20
}

skinparam MinClassWidth 50
skinparam ParticipantPadding 10
skinparam Shadowing false
skinparam DefaultTextAlignment center
skinparam packageStyle Rectangle

hide footbox
hide members
hide circle
box Logic #C8C8FA
participant ":LogicManager" as LogicManager #3333C4
participant ":OrderBookParser" as OrderBookParser #3333C4
participant ":NearbyCommandParser" as NearbyCommandParser #3333C4
participant "n:NearbyCommand" as NearbyCommand #3333C4
participant ":DistrictInfo" as DistrictInfo #3333C4
participant "result:CommandResult" as CommandResult #3333C4
end box

box Model #F97181
participant ":Model" as Model #9D0012
end box

[-> LogicManager : execute("nearby central")
activate LogicManager

LogicManager -> OrderBookParser : parseCommand("nearby central")
activate OrderBookParser

create NearbyCommandParser
OrderBookParser -> NearbyCommandParser
activate NearbyCommandParser

NearbyCommandParser - -> OrderBookParser
deactivate NearbyCommandParser

OrderBookParser -> NearbyCommandParser : parse("central")
activate NearbyCommandParser

create NearbyCommand
NearbyCommandParser -> NearbyCommand
activate NearbyCommand

NearbyCommand - -> NearbyCommandParser : n
deactivate NearbyCommand

NearbyCommandParser - -> OrderBookParser : n
deactivate NearbyCommandParser
NearbyCommandParser -[hidden]-> OrderBookParser
destroy NearbyCommandParser

OrderBookParser - -> LogicManager : n
deactivate OrderBookParser

LogicManager -> NearbyCommand : execute()
activate NearbyCommand

NearbyCommand -> DistrictInfo: isValidArea("central")
activate DistrictInfo
DistrictInfo - -> NearbyCommand: true
deactivate DistrictInfo

NearbyCommand -> NearbyCommand: getAreaPredicate()
activate NearbyCommand
NearbyCommand - -> NearbyCommand: orderPredicate
deactivate NearbyCommand

NearbyCommand -> Model: updateFilteredOrderList(orderPredicate)

create CommandResult
NearbyCommand -> CommandResult
activate CommandResult

CommandResult - -> NearbyCommand: result
deactivate CommandResult
NearbyCommand - -> NearbyCommand: result
deactivate NearbyCommand

NearbyCommand - -> LogicManager : result
deactivate NearbyCommand

[<- -LogicManager
deactivate LogicManager
@enduml

PlantUML version 1.2020.03beta6(Unknown compile time)
(GPL source distribution)
Java Runtime: OpenJDK Runtime Environment
JVM: OpenJDK 64-Bit Server VM
Java Version: 11.0.5+10-b520.38
Operating System: Windows 10
Default Encoding: Cp1252
Language: en
Country: SG
--></g></svg>
