<?xml version="1.0" encoding="UTF-8" standalone="no"?><svg xmlns="http://www.w3.org/2000/svg" xmlns:xlink="http://www.w3.org/1999/xlink" contentScriptType="application/ecmascript" contentStyleType="text/css" height="712px" preserveAspectRatio="none" style="width:1284px;height:712px;" version="1.1" viewBox="0 0 1284 712" width="1284px" zoomAndPan="magnify"><defs/><g><rect fill="#C8C8FA" height="690.2266" style="stroke: #A80036; stroke-width: 1.0;" width="1059" x="120" y="4"/><text fill="#FFFFFF" font-family="sans-serif" font-size="15" font-weight="bold" lengthAdjust="spacingAndGlyphs" textLength="39" x="628" y="19.5713">Logic</text><rect fill="#F97181" height="690.2266" style="stroke: #A80036; stroke-width: 1.0;" width="92" x="1181" y="4"/><text fill="#FFFFFF" font-family="sans-serif" font-size="15" font-weight="bold" lengthAdjust="spacingAndGlyphs" textLength="44" x="1203" y="19.5713">Model</text><rect fill="#FFFFFF" height="590.3984" style="stroke: #A80036; stroke-width: 1.0;" width="10" x="183" y="91.8281"/><rect fill="#FFFFFF" height="234.625" style="stroke: #A80036; stroke-width: 1.0;" width="10" x="418" y="122.1797"/><rect fill="#FFFFFF" height="32.6094" style="stroke: #A80036; stroke-width: 1.0;" width="10" x="597" y="146.1797"/><rect fill="#FFFFFF" height="103.3125" style="stroke: #A80036; stroke-width: 1.0;" width="10" x="597" y="209.1406"/><rect fill="#FFFFFF" height="48.9609" style="stroke: #A80036; stroke-width: 1.0;" width="10" x="779" y="233.1406"/><rect fill="#FFFFFF" height="281.0703" style="stroke: #A80036; stroke-width: 1.0;" width="10" x="779" y="387.1563"/><rect fill="#FFFFFF" height="41.3516" style="stroke: #A80036; stroke-width: 1.0;" width="10" x="784" y="486.2109"/><rect fill="#FFFFFF" height="30.3516" style="stroke: #A80036; stroke-width: 1.0;" width="10" x="931" y="417.5078"/><rect fill="#FFFFFF" height="48.9609" style="stroke: #A80036; stroke-width: 1.0;" width="10" x="1081.5" y="588.9141"/><line style="stroke: #A80036; stroke-width: 1.0; stroke-dasharray: 5.0,5.0;" x1="188" x2="188" y1="59.4766" y2="700.2266"/><line style="stroke: #A80036; stroke-width: 1.0; stroke-dasharray: 5.0,5.0;" x1="422.5" x2="422.5" y1="59.4766" y2="700.2266"/><line style="stroke: #A80036; stroke-width: 1.0; stroke-dasharray: 5.0,5.0;" x1="601.5" x2="601.5" y1="161.4844" y2="700.2266"/><line style="stroke: #A80036; stroke-width: 1.0; stroke-dasharray: 5.0,5.0;" x1="783.5" x2="783.5" y1="248.4453" y2="700.2266"/><line style="stroke: #A80036; stroke-width: 1.0; stroke-dasharray: 5.0,5.0;" x1="936" x2="936" y1="59.4766" y2="700.2266"/><line style="stroke: #A80036; stroke-width: 1.0; stroke-dasharray: 5.0,5.0;" x1="1086" x2="1086" y1="604.2188" y2="700.2266"/><line style="stroke: #A80036; stroke-width: 1.0; stroke-dasharray: 5.0,5.0;" x1="1227" x2="1227" y1="59.4766" y2="700.2266"/><rect fill="#3333C4" height="31.6094" style="stroke: #A80036; stroke-width: 1.5;" width="108" x="134" y="26.8672"/><text fill="#FFFFFF" font-family="sans-serif" font-size="14" lengthAdjust="spacingAndGlyphs" textLength="94" x="141" y="48.4004">:LogicManager</text><rect fill="#3333C4" height="31.6094" style="stroke: #A80036; stroke-width: 1.5;" width="129" x="358.5" y="26.8672"/><text fill="#FFFFFF" font-family="sans-serif" font-size="14" lengthAdjust="spacingAndGlyphs" textLength="115" x="365.5" y="48.4004">:OrderBookParser</text><rect fill="#3333C4" height="31.6094" style="stroke: #A80036; stroke-width: 1.5;" width="84" x="894" y="26.8672"/><text fill="#FFFFFF" font-family="sans-serif" font-size="14" lengthAdjust="spacingAndGlyphs" textLength="70" x="901" y="48.4004">:DistrictInfo</text><rect fill="#9D0012" height="31.6094" style="stroke: #A80036; stroke-width: 1.5;" width="64" x="1195" y="26.8672"/><text fill="#FFFFFF" font-family="sans-serif" font-size="14" lengthAdjust="spacingAndGlyphs" textLength="42" x="1206" y="48.4004">:Model</text><rect fill="#FFFFFF" height="590.3984" style="stroke: #A80036; stroke-width: 1.0;" width="10" x="183" y="91.8281"/><rect fill="#FFFFFF" height="234.625" style="stroke: #A80036; stroke-width: 1.0;" width="10" x="418" y="122.1797"/><rect fill="#FFFFFF" height="32.6094" style="stroke: #A80036; stroke-width: 1.0;" width="10" x="597" y="146.1797"/><rect fill="#FFFFFF" height="103.3125" style="stroke: #A80036; stroke-width: 1.0;" width="10" x="597" y="209.1406"/><rect fill="#FFFFFF" height="48.9609" style="stroke: #A80036; stroke-width: 1.0;" width="10" x="779" y="233.1406"/><rect fill="#FFFFFF" height="281.0703" style="stroke: #A80036; stroke-width: 1.0;" width="10" x="779" y="387.1563"/><rect fill="#FFFFFF" height="41.3516" style="stroke: #A80036; stroke-width: 1.0;" width="10" x="784" y="486.2109"/><rect fill="#FFFFFF" height="30.3516" style="stroke: #A80036; stroke-width: 1.0;" width="10" x="931" y="417.5078"/><rect fill="#FFFFFF" height="48.9609" style="stroke: #A80036; stroke-width: 1.0;" width="10" x="1081.5" y="588.9141"/><polygon fill="#A80036" points="171,87.8281,181,91.8281,171,95.8281,175,91.8281" style="stroke: #A80036; stroke-width: 1.0;"/><line style="stroke: #A80036; stroke-width: 1.0;" x1="3" x2="177" y1="91.8281" y2="91.8281"/><text fill="#000000" font-family="sans-serif" font-size="13" lengthAdjust="spacingAndGlyphs" textLength="161" x="12.5" y="86.9717">execute("nearby -o central")</text><polygon fill="#A80036" points="406,118.1797,416,122.1797,406,126.1797,410,122.1797" style="stroke: #A80036; stroke-width: 1.0;"/><line style="stroke: #A80036; stroke-width: 1.0;" x1="193" x2="412" y1="122.1797" y2="122.1797"/><text fill="#000000" font-family="sans-serif" font-size="13" lengthAdjust="spacingAndGlyphs" textLength="206" x="202.5" y="117.3232">parseCommand("nearby -o central")</text><polygon fill="#A80036" points="505.5,132.1797,515.5,136.1797,505.5,140.1797,509.5,136.1797" style="stroke: #A80036; stroke-width: 1.0;"/><line style="stroke: #A80036; stroke-width: 1.0;" x1="428" x2="511.5" y1="136.1797" y2="136.1797"/><rect fill="#3333C4" height="31.6094" style="stroke: #A80036; stroke-width: 1.5;" width="169" x="517.5" y="130.1797"/><text fill="#FFFFFF" font-family="sans-serif" font-size="14" lengthAdjust="spacingAndGlyphs" textLength="155" x="524.5" y="151.7129">:NearbyCommandParser</text><polygon fill="#A80036" points="439,174.7891,429,178.7891,439,182.7891,435,178.7891" style="stroke: #A80036; stroke-width: 1.0;"/><line style="stroke: #A80036; stroke-width: 1.0; stroke-dasharray: 2.0,2.0;" x1="433" x2="601" y1="178.7891" y2="178.7891"/><polygon fill="#A80036" points="585,205.1406,595,209.1406,585,213.1406,589,209.1406" style="stroke: #A80036; stroke-width: 1.0;"/><line style="stroke: #A80036; stroke-width: 1.0;" x1="428" x2="591" y1="209.1406" y2="209.1406"/><text fill="#000000" font-family="sans-serif" font-size="13" lengthAdjust="spacingAndGlyphs" textLength="108" x="458.5" y="204.2842">parse(" -o central")</text><polygon fill="#A80036" points="704.5,219.1406,714.5,223.1406,704.5,227.1406,708.5,223.1406" style="stroke: #A80036; stroke-width: 1.0;"/><line style="stroke: #A80036; stroke-width: 1.0;" x1="607" x2="710.5" y1="223.1406" y2="223.1406"/><rect fill="#3333C4" height="31.6094" style="stroke: #A80036; stroke-width: 1.5;" width="135" x="716.5" y="217.1406"/><text fill="#FFFFFF" font-family="sans-serif" font-size="14" lengthAdjust="spacingAndGlyphs" textLength="121" x="723.5" y="238.6738">n:NearbyCommand</text><polygon fill="#A80036" points="618,278.1016,608,282.1016,618,286.1016,614,282.1016" style="stroke: #A80036; stroke-width: 1.0;"/><line style="stroke: #A80036; stroke-width: 1.0; stroke-dasharray: 2.0,2.0;" x1="612" x2="783" y1="282.1016" y2="282.1016"/><text fill="#000000" font-family="sans-serif" font-size="13" lengthAdjust="spacingAndGlyphs" textLength="7" x="692" y="277.2451">n</text><polygon fill="#A80036" points="439,308.4531,429,312.4531,439,316.4531,435,312.4531" style="stroke: #A80036; stroke-width: 1.0;"/><line style="stroke: #A80036; stroke-width: 1.0; stroke-dasharray: 2.0,2.0;" x1="433" x2="601" y1="312.4531" y2="312.4531"/><text fill="#000000" font-family="sans-serif" font-size="13" lengthAdjust="spacingAndGlyphs" textLength="7" x="511.5" y="307.5967">n</text><line style="stroke: #A80036; stroke-width: 2.0;" x1="593" x2="611" y1="317.4531" y2="335.4531"/><line style="stroke: #A80036; stroke-width: 2.0;" x1="593" x2="611" y1="335.4531" y2="317.4531"/><polygon fill="#A80036" points="204,352.8047,194,356.8047,204,360.8047,200,356.8047" style="stroke: #A80036; stroke-width: 1.0;"/><line style="stroke: #A80036; stroke-width: 1.0; stroke-dasharray: 2.0,2.0;" x1="198" x2="422" y1="356.8047" y2="356.8047"/><text fill="#000000" font-family="sans-serif" font-size="13" lengthAdjust="spacingAndGlyphs" textLength="7" x="304.5" y="351.9482">n</text><polygon fill="#A80036" points="767,383.1563,777,387.1563,767,391.1563,771,387.1563" style="stroke: #A80036; stroke-width: 1.0;"/><line style="stroke: #A80036; stroke-width: 1.0;" x1="193" x2="773" y1="387.1563" y2="387.1563"/><text fill="#000000" font-family="sans-serif" font-size="13" lengthAdjust="spacingAndGlyphs" textLength="89" x="441.5" y="382.2998">execute(model)</text><polygon fill="#A80036" points="919,413.5078,929,417.5078,919,421.5078,923,417.5078" style="stroke: #A80036; stroke-width: 1.0;"/><line style="stroke: #A80036; stroke-width: 1.0;" x1="789" x2="925" y1="417.5078" y2="417.5078"/><text fill="#000000" font-family="sans-serif" font-size="13" lengthAdjust="spacingAndGlyphs" textLength="123" x="798.5" y="412.6514">isValidArea("central")</text><polygon fill="#A80036" points="800,443.8594,790,447.8594,800,451.8594,796,447.8594" style="stroke: #A80036; stroke-width: 1.0;"/><line style="stroke: #A80036; stroke-width: 1.0; stroke-dasharray: 2.0,2.0;" x1="794" x2="935" y1="447.8594" y2="447.8594"/><text fill="#000000" font-family="sans-serif" font-size="13" lengthAdjust="spacingAndGlyphs" textLength="22" x="851.5" y="443.0029">true</text><line style="stroke: #A80036; stroke-width: 1.0;" x1="789" x2="836" y1="473.2109" y2="473.2109"/><line style="stroke: #A80036; stroke-width: 1.0;" x1="836" x2="836" y1="473.2109" y2="486.2109"/><line style="stroke: #A80036; stroke-width: 1.0;" x1="795" x2="836" y1="486.2109" y2="486.2109"/><polygon fill="#A80036" points="805,482.2109,795,486.2109,805,490.2109,801,486.2109" style="stroke: #A80036; stroke-width: 1.0;"/><text fill="#000000" font-family="sans-serif" font-size="13" lengthAdjust="spacingAndGlyphs" textLength="108" x="801" y="468.3545">getAreaPredicate()</text><line style="stroke: #A80036; stroke-width: 1.0; stroke-dasharray: 2.0,2.0;" x1="794" x2="836" y1="526.5625" y2="526.5625"/><line style="stroke: #A80036; stroke-width: 1.0; stroke-dasharray: 2.0,2.0;" x1="836" x2="836" y1="526.5625" y2="539.5625"/><line style="stroke: #A80036; stroke-width: 1.0; stroke-dasharray: 2.0,2.0;" x1="789" x2="836" y1="539.5625" y2="539.5625"/><polygon fill="#A80036" points="799,535.5625,789,539.5625,799,543.5625,795,539.5625" style="stroke: #A80036; stroke-width: 1.0;"/><text fill="#000000" font-family="sans-serif" font-size="13" lengthAdjust="spacingAndGlyphs" textLength="84" x="801" y="521.7061">orderPredicate</text><polygon fill="#A80036" points="1215,560.9141,1225,564.9141,1215,568.9141,1219,564.9141" style="stroke: #A80036; stroke-width: 1.0;"/><line style="stroke: #A80036; stroke-width: 1.0;" x1="789" x2="1221" y1="564.9141" y2="564.9141"/><text fill="#000000" font-family="sans-serif" font-size="13" lengthAdjust="spacingAndGlyphs" textLength="227" x="894.5" y="560.0576">updateFilteredOrderList(orderPredicate)</text><polygon fill="#A80036" points="996,574.9141,1006,578.9141,996,582.9141,1000,578.9141" style="stroke: #A80036; stroke-width: 1.0;"/><line style="stroke: #A80036; stroke-width: 1.0;" x1="789" x2="1002" y1="578.9141" y2="578.9141"/><rect fill="#3333C4" height="31.6094" style="stroke: #A80036; stroke-width: 1.5;" width="157" x="1008" y="572.9141"/><text fill="#FFFFFF" font-family="sans-serif" font-size="14" lengthAdjust="spacingAndGlyphs" textLength="143" x="1015" y="594.4473">result:CommandResult</text><polygon fill="#A80036" points="800,633.875,790,637.875,800,641.875,796,637.875" style="stroke: #A80036; stroke-width: 1.0;"/><line style="stroke: #A80036; stroke-width: 1.0; stroke-dasharray: 2.0,2.0;" x1="794" x2="1085.5" y1="637.875" y2="637.875"/><text fill="#000000" font-family="sans-serif" font-size="13" lengthAdjust="spacingAndGlyphs" textLength="32" x="921.75" y="633.0186">result</text><polygon fill="#A80036" points="204,664.2266,194,668.2266,204,672.2266,200,668.2266" style="stroke: #A80036; stroke-width: 1.0;"/><line style="stroke: #A80036; stroke-width: 1.0; stroke-dasharray: 2.0,2.0;" x1="198" x2="783" y1="668.2266" y2="668.2266"/><text fill="#000000" font-family="sans-serif" font-size="13" lengthAdjust="spacingAndGlyphs" textLength="32" x="472.5" y="663.3701">result</text><polygon fill="#A80036" points="14,678.2266,4,682.2266,14,686.2266,10,682.2266" style="stroke: #A80036; stroke-width: 1.0;"/><line style="stroke: #A80036; stroke-width: 1.0; stroke-dasharray: 2.0,2.0;" x1="8" x2="187" y1="682.2266" y2="682.2266"/><!--MD5=[1ada1d4a4404ecba47584daac7e2ff0b]
@startuml








skinparam BackgroundColor #FFFFFFF

skinparam Shadowing false

skinparam Class {
    FontColor #FFFFFF
    BorderThickness 1
    BorderColor #FFFFFF
    StereotypeFontColor #FFFFFF
    FontName Arial
}

skinparam Actor {
    BorderColor #000000
    Color #000000
    FontName Arial
}

skinparam Sequence {
    MessageAlign center
    BoxFontSize 15
    BoxPadding 0
    BoxFontColor #FFFFFF
    FontName Arial
}

skinparam Participant {
    FontColor #FFFFFFF
    Padding 20
}

skinparam MinClassWidth 50
skinparam ParticipantPadding 10
skinparam Shadowing false
skinparam DefaultTextAlignment center
skinparam packageStyle Rectangle

hide footbox
hide members
hide circle
box Logic #C8C8FA
participant ":LogicManager" as LogicManager #3333C4
participant ":OrderBookParser" as OrderBookParser #3333C4
participant ":NearbyCommandParser" as NearbyCommandParser #3333C4
participant "n:NearbyCommand" as NearbyCommand #3333C4
participant ":DistrictInfo" as DistrictInfo #3333C4
participant "result:CommandResult" as CommandResult #3333C4
end box

box Model #F97181
participant ":Model" as Model #9D0012
end box

[-> LogicManager : execute("nearby -o central")
activate LogicManager

LogicManager -> OrderBookParser : parseCommand("nearby -o central")
activate OrderBookParser

create NearbyCommandParser
OrderBookParser -> NearbyCommandParser
activate NearbyCommandParser

NearbyCommandParser - -> OrderBookParser
deactivate NearbyCommandParser

OrderBookParser -> NearbyCommandParser : parse(" -o central")
activate NearbyCommandParser

create NearbyCommand
NearbyCommandParser -> NearbyCommand
activate NearbyCommand

NearbyCommand - -> NearbyCommandParser : n
deactivate NearbyCommand

NearbyCommandParser - -> OrderBookParser : n
deactivate NearbyCommandParser
NearbyCommandParser -[hidden]-> OrderBookParser
destroy NearbyCommandParser

OrderBookParser - -> LogicManager : n
deactivate OrderBookParser

LogicManager -> NearbyCommand : execute(model)
activate NearbyCommand

NearbyCommand -> DistrictInfo: isValidArea("central")
activate DistrictInfo
DistrictInfo - -> NearbyCommand: true
deactivate DistrictInfo

NearbyCommand -> NearbyCommand: getAreaPredicate()
activate NearbyCommand
NearbyCommand - -> NearbyCommand: orderPredicate
deactivate NearbyCommand

NearbyCommand -> Model: updateFilteredOrderList(orderPredicate)

create CommandResult
NearbyCommand -> CommandResult
activate CommandResult

CommandResult - -> NearbyCommand: result
deactivate CommandResult

NearbyCommand - -> LogicManager : result
deactivate NearbyCommand

[<- -LogicManager
deactivate LogicManager
@enduml

PlantUML version 1.2020.03beta6(Unknown compile time)
(GPL source distribution)
Java Runtime: OpenJDK Runtime Environment
JVM: OpenJDK 64-Bit Server VM
Java Version: 11.0.6+8-b520.43
Operating System: Windows 10
Default Encoding: Cp1252
Language: en
Country: SG
--></g></svg>
