<?xml version="1.0" encoding="UTF-8" standalone="no"?><svg xmlns="http://www.w3.org/2000/svg" xmlns:xlink="http://www.w3.org/1999/xlink" contentScriptType="application/ecmascript" contentStyleType="text/css" height="974.4px" preserveAspectRatio="none" style="width:1608px;height:974px;" version="1.1" viewBox="0 0 1608 974" width="1608px" zoomAndPan="magnify"><defs/><g><rect fill="#C8C8FA" height="949.1156" style="stroke: #A80036; stroke-width: 1.2;" width="1338" x="144" y="4.8"/><text fill="#FFFFFF" font-family="sans-serif" font-size="18" font-weight="bold" lengthAdjust="spacingAndGlyphs" textLength="46.8" x="787.2" y="23.4855">Logic</text><rect fill="#F97181" height="949.1156" style="stroke: #A80036; stroke-width: 1.2;" width="110.4" x="1484.4" y="4.8"/><text fill="#FFFFFF" font-family="sans-serif" font-size="18" font-weight="bold" lengthAdjust="spacingAndGlyphs" textLength="52.8" x="1510.8" y="23.4855">Model</text><rect fill="#FFFFFF" height="829.3219" style="stroke: #A80036; stroke-width: 1.2;" width="12" x="219.6" y="110.1938"/><rect fill="#FFFFFF" height="281.55" style="stroke: #A80036; stroke-width: 1.2;" width="12" x="501.6" y="146.6156"/><rect fill="#FFFFFF" height="39.1313" style="stroke: #A80036; stroke-width: 1.2;" width="12" x="716.4" y="175.4156"/><rect fill="#FFFFFF" height="123.975" style="stroke: #A80036; stroke-width: 1.2;" width="12" x="716.4" y="250.9688"/><rect fill="#FFFFFF" height="58.7531" style="stroke: #A80036; stroke-width: 1.2;" width="12" x="934.8" y="279.7688"/><rect fill="#FFFFFF" height="438.5062" style="stroke: #A80036; stroke-width: 1.2;" width="12" x="934.8" y="464.5875"/><rect fill="#FFFFFF" height="274.8187" style="stroke: #A80036; stroke-width: 1.2;" width="12" x="940.8" y="583.4531"/><rect fill="#FFFFFF" height="83.2219" style="stroke: #A80036; stroke-width: 1.2;" width="12" x="946.8" y="635.475"/><rect fill="#FFFFFF" height="36.4219" style="stroke: #A80036; stroke-width: 1.2;" width="12" x="1184.4" y="501.0094"/><rect fill="#FFFFFF" height="58.7531" style="stroke: #A80036; stroke-width: 1.2;" width="12" x="1365" y="755.8969"/><rect fill="#FFFFFF" height="16.8" style="stroke: #A80036; stroke-width: 1.2;" width="12" x="1533.6" y="677.8969"/><line style="stroke: #A80036; stroke-width: 1.2; stroke-dasharray: 5.0,5.0;" x1="225.6" x2="225.6" y1="71.3719" y2="961.1156"/><line style="stroke: #A80036; stroke-width: 1.2; stroke-dasharray: 5.0,5.0;" x1="507" x2="507" y1="71.3719" y2="961.1156"/><line style="stroke: #A80036; stroke-width: 1.2; stroke-dasharray: 5.0,5.0;" x1="721.8" x2="721.8" y1="193.7813" y2="961.1156"/><line style="stroke: #A80036; stroke-width: 1.2; stroke-dasharray: 5.0,5.0;" x1="940.2" x2="940.2" y1="298.1344" y2="961.1156"/><line style="stroke: #A80036; stroke-width: 1.2; stroke-dasharray: 5.0,5.0;" x1="1190.4" x2="1190.4" y1="71.3719" y2="961.1156"/><line style="stroke: #A80036; stroke-width: 1.2; stroke-dasharray: 5.0,5.0;" x1="1370.4" x2="1370.4" y1="774.2625" y2="961.1156"/><line style="stroke: #A80036; stroke-width: 1.2; stroke-dasharray: 5.0,5.0;" x1="1539.6" x2="1539.6" y1="71.3719" y2="961.1156"/><rect fill="#3333C4" height="37.9313" style="stroke: #A80036; stroke-width: 1.7999999999999998;" width="129.6" x="160.8" y="32.2406"/><text fill="#FFFFFF" font-family="sans-serif" font-size="16.8" lengthAdjust="spacingAndGlyphs" textLength="112.8" x="169.2" y="58.0805">:LogicManager</text><rect fill="#3333C4" height="37.9313" style="stroke: #A80036; stroke-width: 1.7999999999999998;" width="154.8" x="430.2" y="32.2406"/><text fill="#FFFFFF" font-family="sans-serif" font-size="16.8" lengthAdjust="spacingAndGlyphs" textLength="138" x="438.6" y="58.0805">:OrderBookParser</text><rect fill="#3333C4" height="37.9313" style="stroke: #A80036; stroke-width: 1.7999999999999998;" width="100.8" x="1140" y="32.2406"/><text fill="#FFFFFF" font-family="sans-serif" font-size="16.8" lengthAdjust="spacingAndGlyphs" textLength="84" x="1148.4" y="58.0805">:DistrictInfo</text><rect fill="#9D0012" height="37.9313" style="stroke: #A80036; stroke-width: 1.7999999999999998;" width="76.8" x="1501.2" y="32.2406"/><text fill="#FFFFFF" font-family="sans-serif" font-size="16.8" lengthAdjust="spacingAndGlyphs" textLength="50.4" x="1514.4" y="58.0805">:Model</text><rect fill="#FFFFFF" height="829.3219" style="stroke: #A80036; stroke-width: 1.2;" width="12" x="219.6" y="110.1938"/><rect fill="#FFFFFF" height="281.55" style="stroke: #A80036; stroke-width: 1.2;" width="12" x="501.6" y="146.6156"/><rect fill="#FFFFFF" height="39.1313" style="stroke: #A80036; stroke-width: 1.2;" width="12" x="716.4" y="175.4156"/><rect fill="#FFFFFF" height="123.975" style="stroke: #A80036; stroke-width: 1.2;" width="12" x="716.4" y="250.9688"/><rect fill="#FFFFFF" height="58.7531" style="stroke: #A80036; stroke-width: 1.2;" width="12" x="934.8" y="279.7688"/><rect fill="#FFFFFF" height="438.5062" style="stroke: #A80036; stroke-width: 1.2;" width="12" x="934.8" y="464.5875"/><rect fill="#FFFFFF" height="274.8187" style="stroke: #A80036; stroke-width: 1.2;" width="12" x="940.8" y="583.4531"/><rect fill="#FFFFFF" height="83.2219" style="stroke: #A80036; stroke-width: 1.2;" width="12" x="946.8" y="635.475"/><rect fill="#FFFFFF" height="36.4219" style="stroke: #A80036; stroke-width: 1.2;" width="12" x="1184.4" y="501.0094"/><rect fill="#FFFFFF" height="58.7531" style="stroke: #A80036; stroke-width: 1.2;" width="12" x="1365" y="755.8969"/><rect fill="#FFFFFF" height="16.8" style="stroke: #A80036; stroke-width: 1.2;" width="12" x="1533.6" y="677.8969"/><polygon fill="#A80036" points="205.2,105.3938,217.2,110.1938,205.2,114.9937,210,110.1938" style="stroke: #A80036; stroke-width: 1.2;"/><line style="stroke: #A80036; stroke-width: 1.2;" x1="3.6" x2="212.4" y1="110.1938" y2="110.1938"/><text fill="#000000" font-family="sans-serif" font-size="15.6" lengthAdjust="spacingAndGlyphs" textLength="193.2" x="15" y="104.366">execute("nearby -o central")</text><polygon fill="#A80036" points="487.2,141.8156,499.2,146.6156,487.2,151.4156,492,146.6156" style="stroke: #A80036; stroke-width: 1.2;"/><line style="stroke: #A80036; stroke-width: 1.2;" x1="231.6" x2="494.4" y1="146.6156" y2="146.6156"/><text fill="#000000" font-family="sans-serif" font-size="15.6" lengthAdjust="spacingAndGlyphs" textLength="247.2" x="243" y="140.7879">parseCommand("nearby -o central")</text><polygon fill="#A80036" points="606.6,158.6156,618.6,163.4156,606.6,168.2156,611.4,163.4156" style="stroke: #A80036; stroke-width: 1.2;"/><line style="stroke: #A80036; stroke-width: 1.2;" x1="513.6" x2="613.8" y1="163.4156" y2="163.4156"/><rect fill="#3333C4" height="37.9313" style="stroke: #A80036; stroke-width: 1.7999999999999998;" width="202.8" x="621" y="156.2156"/><text fill="#FFFFFF" font-family="sans-serif" font-size="16.8" lengthAdjust="spacingAndGlyphs" textLength="186" x="629.4" y="182.0555">:NearbyCommandParser</text><polygon fill="#A80036" points="526.8,209.7469,514.8,214.5469,526.8,219.3469,522,214.5469" style="stroke: #A80036; stroke-width: 1.2;"/><line style="stroke: #A80036; stroke-width: 1.2; stroke-dasharray: 2.0,2.0;" x1="519.6" x2="721.2" y1="214.5469" y2="214.5469"/><polygon fill="#A80036" points="702,246.1688,714,250.9688,702,255.7687,706.8,250.9688" style="stroke: #A80036; stroke-width: 1.2;"/><line style="stroke: #A80036; stroke-width: 1.2;" x1="513.6" x2="709.2" y1="250.9688" y2="250.9688"/><text fill="#000000" font-family="sans-serif" font-size="15.6" lengthAdjust="spacingAndGlyphs" textLength="129.6" x="550.2" y="245.141">parse(" -o central")</text><polygon fill="#A80036" points="845.4,262.9688,857.4,267.7688,845.4,272.5687,850.2,267.7688" style="stroke: #A80036; stroke-width: 1.2;"/><line style="stroke: #A80036; stroke-width: 1.2;" x1="728.4" x2="852.6" y1="267.7688" y2="267.7688"/><rect fill="#3333C4" height="37.9313" style="stroke: #A80036; stroke-width: 1.7999999999999998;" width="162" x="859.8" y="260.5687"/><text fill="#FFFFFF" font-family="sans-serif" font-size="16.8" lengthAdjust="spacingAndGlyphs" textLength="145.2" x="868.2" y="286.4086">n:NearbyCommand</text><polygon fill="#A80036" points="741.6,333.7219,729.6,338.5219,741.6,343.3219,736.8,338.5219" style="stroke: #A80036; stroke-width: 1.2;"/><line style="stroke: #A80036; stroke-width: 1.2; stroke-dasharray: 2.0,2.0;" x1="734.4" x2="939.6" y1="338.5219" y2="338.5219"/><text fill="#000000" font-family="sans-serif" font-size="15.6" lengthAdjust="spacingAndGlyphs" textLength="8.4" x="830.4" y="332.6941">n</text><polygon fill="#A80036" points="526.8,370.1438,514.8,374.9437,526.8,379.7438,522,374.9437" style="stroke: #A80036; stroke-width: 1.2;"/><line style="stroke: #A80036; stroke-width: 1.2; stroke-dasharray: 2.0,2.0;" x1="519.6" x2="721.2" y1="374.9437" y2="374.9437"/><text fill="#000000" font-family="sans-serif" font-size="15.6" lengthAdjust="spacingAndGlyphs" textLength="8.4" x="613.8" y="369.116">n</text><line style="stroke: #A80036; stroke-width: 2.4;" x1="711.6" x2="733.2" y1="380.9437" y2="402.5438"/><line style="stroke: #A80036; stroke-width: 2.4;" x1="711.6" x2="733.2" y1="402.5438" y2="380.9437"/><polygon fill="#A80036" points="244.8,423.3656,232.8,428.1656,244.8,432.9656,240,428.1656" style="stroke: #A80036; stroke-width: 1.2;"/><line style="stroke: #A80036; stroke-width: 1.2; stroke-dasharray: 2.0,2.0;" x1="237.6" x2="506.4" y1="428.1656" y2="428.1656"/><text fill="#000000" font-family="sans-serif" font-size="15.6" lengthAdjust="spacingAndGlyphs" textLength="8.4" x="365.4" y="422.3379">n</text><polygon fill="#A80036" points="920.4,459.7875,932.4,464.5875,920.4,469.3875,925.2,464.5875" style="stroke: #A80036; stroke-width: 1.2;"/><line style="stroke: #A80036; stroke-width: 1.2;" x1="231.6" x2="927.6" y1="464.5875" y2="464.5875"/><text fill="#000000" font-family="sans-serif" font-size="15.6" lengthAdjust="spacingAndGlyphs" textLength="106.8" x="529.8" y="458.7598">execute(model)</text><polygon fill="#A80036" points="1170,496.2094,1182,501.0094,1170,505.8094,1174.8,501.0094" style="stroke: #A80036; stroke-width: 1.2;"/><line style="stroke: #A80036; stroke-width: 1.2;" x1="946.8" x2="1177.2" y1="501.0094" y2="501.0094"/><text fill="#000000" font-family="sans-serif" font-size="15.6" lengthAdjust="spacingAndGlyphs" textLength="147.6" x="991.8" y="495.1816">isValidArea("central")</text><polygon fill="#A80036" points="960,532.6313,948,537.4313,960,542.2312,955.2,537.4313" style="stroke: #A80036; stroke-width: 1.2;"/><line style="stroke: #A80036; stroke-width: 1.2; stroke-dasharray: 2.0,2.0;" x1="952.8" x2="1189.2" y1="537.4313" y2="537.4313"/><text fill="#000000" font-family="sans-serif" font-size="15.6" lengthAdjust="spacingAndGlyphs" textLength="26.4" x="1055.4" y="531.6035">true</text><line style="stroke: #A80036; stroke-width: 1.2;" x1="946.8" x2="1003.2" y1="567.8531" y2="567.8531"/><line style="stroke: #A80036; stroke-width: 1.2;" x1="1003.2" x2="1003.2" y1="567.8531" y2="583.4531"/><line style="stroke: #A80036; stroke-width: 1.2;" x1="954" x2="1003.2" y1="583.4531" y2="583.4531"/><polygon fill="#A80036" points="966,578.6531,954,583.4531,966,588.2531,961.2,583.4531" style="stroke: #A80036; stroke-width: 1.2;"/><text fill="#000000" font-family="sans-serif" font-size="15.6" lengthAdjust="spacingAndGlyphs" textLength="220.8" x="961.2" y="562.0254">getAreaCommandResult(model)</text><line style="stroke: #A80036; stroke-width: 1.2;" x1="952.8" x2="1009.2" y1="619.875" y2="619.875"/><line style="stroke: #A80036; stroke-width: 1.2;" x1="1009.2" x2="1009.2" y1="619.875" y2="635.475"/><line style="stroke: #A80036; stroke-width: 1.2;" x1="960" x2="1009.2" y1="635.475" y2="635.475"/><polygon fill="#A80036" points="972,630.675,960,635.475,972,640.275,967.2,635.475" style="stroke: #A80036; stroke-width: 1.2;"/><text fill="#000000" font-family="sans-serif" font-size="15.6" lengthAdjust="spacingAndGlyphs" textLength="120" x="967.2" y="614.0473">showArea(model)</text><polygon fill="#A80036" points="1519.2,673.0969,1531.2,677.8969,1519.2,682.6969,1524,677.8969" style="stroke: #A80036; stroke-width: 1.2;"/><line style="stroke: #A80036; stroke-width: 1.2;" x1="958.8" x2="1526.4" y1="677.8969" y2="677.8969"/><text fill="#000000" font-family="sans-serif" font-size="15.6" lengthAdjust="spacingAndGlyphs" textLength="272.4" x="1110" y="672.0691">updateFilteredOrderList(orderPredicate)</text><polygon fill="#A80036" points="972,689.8969,960,694.6969,972,699.4969,967.2,694.6969" style="stroke: #A80036; stroke-width: 1.2;"/><line style="stroke: #A80036; stroke-width: 1.2; stroke-dasharray: 2.0,2.0;" x1="964.8" x2="1538.4" y1="694.6969" y2="694.6969"/><line style="stroke: #A80036; stroke-width: 1.2; stroke-dasharray: 2.0,2.0;" x1="958.8" x2="1009.2" y1="717.4969" y2="717.4969"/><line style="stroke: #A80036; stroke-width: 1.2; stroke-dasharray: 2.0,2.0;" x1="1009.2" x2="1009.2" y1="717.4969" y2="733.0969"/><line style="stroke: #A80036; stroke-width: 1.2; stroke-dasharray: 2.0,2.0;" x1="952.8" x2="1009.2" y1="733.0969" y2="733.0969"/><polygon fill="#A80036" points="964.8,728.2969,952.8,733.0969,964.8,737.8969,960,733.0969" style="stroke: #A80036; stroke-width: 1.2;"/><polygon fill="#A80036" points="1262.4,739.0969,1274.4,743.8969,1262.4,748.6969,1267.2,743.8969" style="stroke: #A80036; stroke-width: 1.2;"/><line style="stroke: #A80036; stroke-width: 1.2;" x1="952.8" x2="1269.6" y1="743.8969" y2="743.8969"/><rect fill="#3333C4" height="37.9313" style="stroke: #A80036; stroke-width: 1.7999999999999998;" width="188.4" x="1276.8" y="736.6969"/><text fill="#FFFFFF" font-family="sans-serif" font-size="16.8" lengthAdjust="spacingAndGlyphs" textLength="171.6" x="1285.2" y="762.5367">result:CommandResult</text><polygon fill="#A80036" points="966,809.85,954,814.65,966,819.45,961.2,814.65" style="stroke: #A80036; stroke-width: 1.2;"/><line style="stroke: #A80036; stroke-width: 1.2; stroke-dasharray: 2.0,2.0;" x1="958.8" x2="1369.8" y1="814.65" y2="814.65"/><text fill="#000000" font-family="sans-serif" font-size="15.6" lengthAdjust="spacingAndGlyphs" textLength="38.4" x="1142.7" y="808.8223">result</text><line style="stroke: #A80036; stroke-width: 1.2; stroke-dasharray: 2.0,2.0;" x1="952.8" x2="1003.2" y1="857.0719" y2="857.0719"/><line style="stroke: #A80036; stroke-width: 1.2; stroke-dasharray: 2.0,2.0;" x1="1003.2" x2="1003.2" y1="857.0719" y2="872.6719"/><line style="stroke: #A80036; stroke-width: 1.2; stroke-dasharray: 2.0,2.0;" x1="946.8" x2="1003.2" y1="872.6719" y2="872.6719"/><polygon fill="#A80036" points="958.8,867.8719,946.8,872.6719,958.8,877.4719,954,872.6719" style="stroke: #A80036; stroke-width: 1.2;"/><text fill="#000000" font-family="sans-serif" font-size="15.6" lengthAdjust="spacingAndGlyphs" textLength="38.4" x="961.2" y="851.2441">result</text><polygon fill="#A80036" points="244.8,898.2937,232.8,903.0938,244.8,907.8938,240,903.0938" style="stroke: #A80036; stroke-width: 1.2;"/><line style="stroke: #A80036; stroke-width: 1.2; stroke-dasharray: 2.0,2.0;" x1="237.6" x2="939.6" y1="903.0938" y2="903.0938"/><text fill="#000000" font-family="sans-serif" font-size="15.6" lengthAdjust="spacingAndGlyphs" textLength="38.4" x="567" y="897.266">result</text><polygon fill="#A80036" points="16.8,934.7156,4.8,939.5156,16.8,944.3156,12,939.5156" style="stroke: #A80036; stroke-width: 1.2;"/><line style="stroke: #A80036; stroke-width: 1.2; stroke-dasharray: 2.0,2.0;" x1="9.6" x2="224.4" y1="939.5156" y2="939.5156"/><text fill="#000000" font-family="sans-serif" font-size="15.6" lengthAdjust="spacingAndGlyphs" textLength="38.4" x="95.4" y="933.6879">result</text><!--MD5=[451a88acd0bf38b69c7614f335adc5a2]
@startuml








skinparam BackgroundColor #FFFFFFF

skinparam Shadowing false

skinparam Class {
    FontColor #FFFFFF
    BorderThickness 1
    BorderColor #FFFFFF
    StereotypeFontColor #FFFFFF
    FontName Arial
}

skinparam Actor {
    BorderColor #000000
    Color #000000
    FontName Arial
}

skinparam Sequence {
    MessageAlign center
    BoxFontSize 15
    BoxPadding 0
    BoxFontColor #FFFFFF
    FontName Arial
}

skinparam Participant {
    FontColor #FFFFFFF
    Padding 20
}

skinparam MinClassWidth 50
skinparam ParticipantPadding 10
skinparam Shadowing false
skinparam DefaultTextAlignment center
skinparam packageStyle Rectangle

hide footbox
hide members
hide circle
box Logic #C8C8FA
participant ":LogicManager" as LogicManager #3333C4
participant ":OrderBookParser" as OrderBookParser #3333C4
participant ":NearbyCommandParser" as NearbyCommandParser #3333C4
participant "n:NearbyCommand" as NearbyCommand #3333C4
participant ":DistrictInfo" as DistrictInfo #3333C4
participant "result:CommandResult" as CommandResult #3333C4
end box

box Model #F97181
participant ":Model" as Model #9D0012
end box

[-> LogicManager : execute("nearby -o central")
activate LogicManager

LogicManager -> OrderBookParser : parseCommand("nearby -o central")
activate OrderBookParser

create NearbyCommandParser
OrderBookParser -> NearbyCommandParser
activate NearbyCommandParser

NearbyCommandParser - -> OrderBookParser
deactivate NearbyCommandParser

OrderBookParser -> NearbyCommandParser : parse(" -o central")
activate NearbyCommandParser

create NearbyCommand
NearbyCommandParser -> NearbyCommand
activate NearbyCommand

NearbyCommand - -> NearbyCommandParser : n
deactivate NearbyCommand

NearbyCommandParser - -> OrderBookParser : n
deactivate NearbyCommandParser
NearbyCommandParser -[hidden]-> OrderBookParser
destroy NearbyCommandParser

OrderBookParser - -> LogicManager : n
deactivate OrderBookParser

LogicManager -> NearbyCommand : execute(model)
activate NearbyCommand

NearbyCommand -> DistrictInfo: isValidArea("central")
activate DistrictInfo
DistrictInfo - -> NearbyCommand: true
deactivate DistrictInfo

NearbyCommand -> NearbyCommand : getAreaCommandResult(model)
activate NearbyCommand
NearbyCommand -> NearbyCommand : showArea(model)
activate NearbyCommand
NearbyCommand -> Model++ : updateFilteredOrderList(orderPredicate)
Model - -> NearbyCommand
deactivate Model
NearbyCommand - -> NearbyCommand
deactivate NearbyCommand

create CommandResult
NearbyCommand -> CommandResult
activate CommandResult

CommandResult - -> NearbyCommand: result
deactivate CommandResult
NearbyCommand - -> NearbyCommand: result
deactivate NearbyCommand

NearbyCommand - -> LogicManager : result
deactivate NearbyCommand

[<- -LogicManager: result
deactivate LogicManager
@enduml

PlantUML version 1.2020.03beta6(Unknown compile time)
(GPL source distribution)
Java Runtime: OpenJDK Runtime Environment
JVM: OpenJDK 64-Bit Server VM
Java Version: 11.0.6+8-b520.43
Operating System: Windows 10
Default Encoding: Cp1252
Language: en
Country: SG
--></g></svg>
