<?xml version="1.0" encoding="UTF-8" standalone="no"?><svg xmlns="http://www.w3.org/2000/svg" xmlns:xlink="http://www.w3.org/1999/xlink" contentScriptType="application/ecmascript" contentStyleType="text/css" height="757.4px" preserveAspectRatio="none" style="width:1086px;height:757px;" version="1.1" viewBox="0 0 1086 757" width="1086.4px" zoomAndPan="magnify"><defs><filter height="300%" id="fml8tbd1hbzec" width="300%" x="-1" y="-1"><feGaussianBlur result="blurOut" stdDeviation="2.8"/><feColorMatrix in="blurOut" result="blurOut2" type="matrix" values="0 0 0 0 0 0 0 0 0 0 0 0 0 0 0 0 0 0 .4 0"/><feOffset dx="5.6" dy="5.6" in="blurOut2" result="blurOut3"/><feBlend in="SourceGraphic" in2="blurOut3" mode="normal"/></filter></defs><g><ellipse cx="705.6" cy="28" fill="#000000" filter="url(#fml8tbd1hbzec)" rx="14" ry="14" style="stroke: none; stroke-width: 1.4;"/><rect fill="#FEFECE" filter="url(#fml8tbd1hbzec)" height="49.1312" rx="17.5" ry="17.5" style="stroke: #A80036; stroke-width: 2.0999999999999996;" width="200.2" x="605.5" y="70"/><text fill="#000000" font-family="sans-serif" font-size="16.8" lengthAdjust="spacingAndGlyphs" textLength="172.2" x="619.5" y="101.4398">User inputs command</text><rect fill="#FEFECE" filter="url(#fml8tbd1hbzec)" height="49.1312" rx="17.5" ry="17.5" style="stroke: #A80036; stroke-width: 2.0999999999999996;" width="156.8" x="627.2" y="147.1313"/><text fill="#000000" font-family="sans-serif" font-size="16.8" lengthAdjust="spacingAndGlyphs" textLength="128.8" x="641.2" y="178.5711">Parse command</text><polygon fill="#FEFECE" filter="url(#fml8tbd1hbzec)" points="705.6,224.2625,705.6,224.2625,722.4,241.0625,705.6,257.8625,705.6,257.8625,688.8,241.0625,705.6,224.2625" style="stroke: #A80036; stroke-width: 2.0999999999999996;"/><text fill="#000000" font-family="sans-serif" font-size="15.4" lengthAdjust="spacingAndGlyphs" textLength="198.8" x="490" y="237.6787">[command arguments is valid]</text><text fill="#000000" font-family="sans-serif" font-size="15.4" lengthAdjust="spacingAndGlyphs" textLength="36.4" x="722.4" y="237.6787">[else]</text><rect fill="#FEFECE" filter="url(#fml8tbd1hbzec)" height="49.1312" rx="17.5" ry="17.5" style="stroke: #A80036; stroke-width: 2.0999999999999996;" width="274.4" x="291.9" y="271.8625"/><text fill="#000000" font-family="sans-serif" font-size="16.8" lengthAdjust="spacingAndGlyphs" textLength="246.4" x="305.9" y="303.3023">Generate new nearby command</text><rect fill="#FEFECE" filter="url(#fml8tbd1hbzec)" height="49.1312" rx="17.5" ry="17.5" style="stroke: #A80036; stroke-width: 2.0999999999999996;" width="226.8" x="315.7" y="348.9938"/><text fill="#000000" font-family="sans-serif" font-size="16.8" lengthAdjust="spacingAndGlyphs" textLength="198.8" x="329.7" y="380.4336">Execute nearby command</text><polygon fill="#FEFECE" filter="url(#fml8tbd1hbzec)" points="429.1,426.125,429.1,426.125,445.9,442.925,429.1,459.725,429.1,459.725,412.3,442.925,429.1,426.125" style="stroke: #A80036; stroke-width: 2.0999999999999996;"/><text fill="#000000" font-family="sans-serif" font-size="15.4" lengthAdjust="spacingAndGlyphs" textLength="77" x="335.3" y="439.5412">[Flag given]</text><text fill="#000000" font-family="sans-serif" font-size="15.4" lengthAdjust="spacingAndGlyphs" textLength="105" x="445.9" y="439.5412">[No flags given]</text><rect fill="#FEFECE" filter="url(#fml8tbd1hbzec)" height="49.1312" rx="17.5" ry="17.5" style="stroke: #A80036; stroke-width: 2.0999999999999996;" width="411.6" x="14" y="473.725"/><text fill="#000000" font-family="sans-serif" font-size="16.8" lengthAdjust="spacingAndGlyphs" textLength="383.6" x="28" y="505.1648">Obtain all matching nearby orders for specified list</text><rect fill="#FEFECE" filter="url(#fml8tbd1hbzec)" height="49.1312" rx="17.5" ry="17.5" style="stroke: #A80036; stroke-width: 2.0999999999999996;" width="329" x="55.3" y="550.8562"/><text fill="#000000" font-family="sans-serif" font-size="16.8" lengthAdjust="spacingAndGlyphs" textLength="301" x="69.3" y="582.2961">Show all nearby orders for specified list</text><rect fill="#FEFECE" filter="url(#fml8tbd1hbzec)" height="49.1312" rx="17.5" ry="17.5" style="stroke: #A80036; stroke-width: 2.0999999999999996;" width="369.6" x="453.6" y="473.725"/><text fill="#000000" font-family="sans-serif" font-size="16.8" lengthAdjust="spacingAndGlyphs" textLength="341.6" x="467.6" y="505.1648">Obtain all matching nearby orders for all lists</text><rect fill="#FEFECE" filter="url(#fml8tbd1hbzec)" height="49.1312" rx="17.5" ry="17.5" style="stroke: #A80036; stroke-width: 2.0999999999999996;" width="287" x="494.9" y="550.8562"/><text fill="#000000" font-family="sans-serif" font-size="16.8" lengthAdjust="spacingAndGlyphs" textLength="259" x="508.9" y="582.2961">Show all nearby orders for all lists</text><polygon fill="#FEFECE" filter="url(#fml8tbd1hbzec)" points="429.1,608.3875,445.9,625.1875,429.1,641.9875,412.3,625.1875,429.1,608.3875" style="stroke: #A80036; stroke-width: 2.0999999999999996;"/><rect fill="#FEFECE" filter="url(#fml8tbd1hbzec)" height="49.1312" rx="17.5" ry="17.5" style="stroke: #A80036; stroke-width: 2.0999999999999996;" width="233.8" x="837.2" y="271.8625"/><text fill="#000000" font-family="sans-serif" font-size="16.8" lengthAdjust="spacingAndGlyphs" textLength="205.8" x="851.2" y="303.3023">Parse exception generated</text><polygon fill="#FEFECE" filter="url(#fml8tbd1hbzec)" points="705.6,650.3875,722.4,667.1875,705.6,683.9875,688.8,667.1875,705.6,650.3875" style="stroke: #A80036; stroke-width: 2.0999999999999996;"/><ellipse cx="705.6" cy="727.3875" fill="#FFFFFF" filter="url(#fml8tbd1hbzec)" rx="15.4" ry="15.4" style="stroke: #000000; stroke-width: 1.4;"/><ellipse cx="705.6" cy="727.3875" fill="#000000" rx="8.4" ry="8.4" style="stroke: #7F7F7F; stroke-width: 1.4;"/><line style="stroke: #A80036; stroke-width: 2.0999999999999996;" x1="705.6" x2="705.6" y1="42" y2="70"/><polygon fill="#A80036" points="700,56,705.6,70,711.2,56,705.6,61.6" style="stroke: #A80036; stroke-width: 1.4;"/><line style="stroke: #A80036; stroke-width: 2.0999999999999996;" x1="705.6" x2="705.6" y1="119.1313" y2="147.1313"/><polygon fill="#A80036" points="700,133.1313,705.6,147.1313,711.2,133.1313,705.6,138.7313" style="stroke: #A80036; stroke-width: 1.4;"/><line style="stroke: #A80036; stroke-width: 2.0999999999999996;" x1="429.1" x2="429.1" y1="320.9938" y2="348.9938"/><polygon fill="#A80036" points="423.5,334.9938,429.1,348.9938,434.7,334.9938,429.1,340.5938" style="stroke: #A80036; stroke-width: 1.4;"/><line style="stroke: #A80036; stroke-width: 2.0999999999999996;" x1="219.8" x2="219.8" y1="522.8562" y2="550.8562"/><polygon fill="#A80036" points="214.2,536.8562,219.8,550.8562,225.4,536.8562,219.8,542.4563" style="stroke: #A80036; stroke-width: 1.4;"/><line style="stroke: #A80036; stroke-width: 2.0999999999999996;" x1="638.4" x2="638.4" y1="522.8562" y2="550.8562"/><polygon fill="#A80036" points="632.8,536.8562,638.4,550.8562,644,536.8562,638.4,542.4563" style="stroke: #A80036; stroke-width: 1.4;"/><line style="stroke: #A80036; stroke-width: 2.0999999999999996;" x1="412.3" x2="219.8" y1="442.925" y2="442.925"/><line style="stroke: #A80036; stroke-width: 2.0999999999999996;" x1="219.8" x2="219.8" y1="442.925" y2="473.725"/><polygon fill="#A80036" points="214.2,459.725,219.8,473.725,225.4,459.725,219.8,465.325" style="stroke: #A80036; stroke-width: 1.4;"/><line style="stroke: #A80036; stroke-width: 2.0999999999999996;" x1="445.9" x2="638.4" y1="442.925" y2="442.925"/><line style="stroke: #A80036; stroke-width: 2.0999999999999996;" x1="638.4" x2="638.4" y1="442.925" y2="473.725"/><polygon fill="#A80036" points="632.8,459.725,638.4,473.725,644,459.725,638.4,465.325" style="stroke: #A80036; stroke-width: 1.4;"/><line style="stroke: #A80036; stroke-width: 2.0999999999999996;" x1="219.8" x2="219.8" y1="599.9875" y2="625.1875"/><line style="stroke: #A80036; stroke-width: 2.0999999999999996;" x1="219.8" x2="412.3" y1="625.1875" y2="625.1875"/><polygon fill="#A80036" points="398.3,619.5875,412.3,625.1875,398.3,630.7875,403.9,625.1875" style="stroke: #A80036; stroke-width: 1.4;"/><line style="stroke: #A80036; stroke-width: 2.0999999999999996;" x1="638.4" x2="638.4" y1="599.9875" y2="625.1875"/><line style="stroke: #A80036; stroke-width: 2.0999999999999996;" x1="638.4" x2="445.9" y1="625.1875" y2="625.1875"/><polygon fill="#A80036" points="459.9,619.5875,445.9,625.1875,459.9,630.7875,454.3,625.1875" style="stroke: #A80036; stroke-width: 1.4;"/><line style="stroke: #A80036; stroke-width: 2.0999999999999996;" x1="429.1" x2="429.1" y1="398.125" y2="426.125"/><polygon fill="#A80036" points="423.5,412.125,429.1,426.125,434.7,412.125,429.1,417.725" style="stroke: #A80036; stroke-width: 1.4;"/><line style="stroke: #A80036; stroke-width: 2.0999999999999996;" x1="688.8" x2="429.1" y1="241.0625" y2="241.0625"/><line style="stroke: #A80036; stroke-width: 2.0999999999999996;" x1="429.1" x2="429.1" y1="241.0625" y2="271.8625"/><polygon fill="#A80036" points="423.5,257.8625,429.1,271.8625,434.7,257.8625,429.1,263.4625" style="stroke: #A80036; stroke-width: 1.4;"/><line style="stroke: #A80036; stroke-width: 2.0999999999999996;" x1="722.4" x2="954.1" y1="241.0625" y2="241.0625"/><line style="stroke: #A80036; stroke-width: 2.0999999999999996;" x1="954.1" x2="954.1" y1="241.0625" y2="271.8625"/><polygon fill="#A80036" points="948.5,257.8625,954.1,271.8625,959.7,257.8625,954.1,263.4625" style="stroke: #A80036; stroke-width: 1.4;"/><line style="stroke: #A80036; stroke-width: 2.0999999999999996;" x1="429.1" x2="429.1" y1="641.9875" y2="667.1875"/><line style="stroke: #A80036; stroke-width: 2.0999999999999996;" x1="429.1" x2="688.8" y1="667.1875" y2="667.1875"/><polygon fill="#A80036" points="674.8,661.5875,688.8,667.1875,674.8,672.7875,680.4,667.1875" style="stroke: #A80036; stroke-width: 1.4;"/><line style="stroke: #A80036; stroke-width: 2.0999999999999996;" x1="954.1" x2="954.1" y1="320.9938" y2="667.1875"/><line style="stroke: #A80036; stroke-width: 2.0999999999999996;" x1="954.1" x2="722.4" y1="667.1875" y2="667.1875"/><polygon fill="#A80036" points="736.4,661.5875,722.4,667.1875,736.4,672.7875,730.8,667.1875" style="stroke: #A80036; stroke-width: 1.4;"/><line style="stroke: #A80036; stroke-width: 2.0999999999999996;" x1="705.6" x2="705.6" y1="196.2625" y2="224.2625"/><polygon fill="#A80036" points="700,210.2625,705.6,224.2625,711.2,210.2625,705.6,215.8625" style="stroke: #A80036; stroke-width: 1.4;"/><line style="stroke: #A80036; stroke-width: 2.0999999999999996;" x1="705.6" x2="705.6" y1="683.9875" y2="711.9875"/><polygon fill="#A80036" points="700,697.9875,705.6,711.9875,711.2,697.9875,705.6,703.5875" style="stroke: #A80036; stroke-width: 1.4;"/><!--MD5=[fa6cdaf36f95ba3b5b7f1b2954696127]
@startuml
start
:User inputs command;
:Parse command;

if () then ([command arguments is valid])
    :Generate new nearby command;
    :Execute nearby command;
    if () then ([Flag given])
        :Obtain all matching nearby orders for specified list;
        :Show all nearby orders for specified list;
    else ([No flags given])
        :Obtain all matching nearby orders for all lists;
        :Show all nearby orders for all lists;
    endif
else ([else])
    :Parse exception generated;
endif

stop
@enduml

PlantUML version 1.2020.03beta6(Unknown compile time)
(GPL source distribution)
Java Runtime: OpenJDK Runtime Environment
JVM: OpenJDK 64-Bit Server VM
Java Version: 11.0.6+8-b520.43
Operating System: Windows 10
Default Encoding: Cp1252
Language: en
Country: SG
--></g></svg>
