<?xml version="1.0" encoding="UTF-8" standalone="no"?><svg xmlns="http://www.w3.org/2000/svg" xmlns:xlink="http://www.w3.org/1999/xlink" contentScriptType="application/ecmascript" contentStyleType="text/css" height="650px" preserveAspectRatio="none" style="width:863px;height:650px;" version="1.1" viewBox="0 0 863 650" width="863px" zoomAndPan="magnify"><defs><filter height="300%" id="f9b2due4jxz1j" width="300%" x="-1" y="-1"><feGaussianBlur result="blurOut" stdDeviation="2.0"/><feColorMatrix in="blurOut" result="blurOut2" type="matrix" values="0 0 0 0 0 0 0 0 0 0 0 0 0 0 0 0 0 0 .4 0"/><feOffset dx="4.0" dy="4.0" in="blurOut2" result="blurOut3"/><feBlend in="SourceGraphic" in2="blurOut3" mode="normal"/></filter></defs><g><ellipse cx="593.625" cy="20" fill="#000000" filter="url(#f9b2due4jxz1j)" rx="10" ry="10" style="stroke: none; stroke-width: 1.0;"/><rect fill="#FEFECE" filter="url(#f9b2due4jxz1j)" height="35.0938" rx="12.5" ry="12.5" style="stroke: #A80036; stroke-width: 1.5;" width="143" x="522.125" y="50"/><text fill="#000000" font-family="sans-serif" font-size="12" lengthAdjust="spacingAndGlyphs" textLength="123" x="532.125" y="72.457">User inputs command</text><rect fill="#FEFECE" filter="url(#f9b2due4jxz1j)" height="35.0938" rx="12.5" ry="12.5" style="stroke: #A80036; stroke-width: 1.5;" width="112" x="537.625" y="105.0938"/><text fill="#000000" font-family="sans-serif" font-size="12" lengthAdjust="spacingAndGlyphs" textLength="92" x="547.625" y="127.5508">Parse command</text><polygon fill="#FEFECE" filter="url(#f9b2due4jxz1j)" points="593.625,160.1875,593.625,160.1875,605.625,172.1875,593.625,184.1875,593.625,184.1875,581.625,172.1875,593.625,160.1875" style="stroke: #A80036; stroke-width: 1.5;"/><text fill="#000000" font-family="sans-serif" font-size="11" lengthAdjust="spacingAndGlyphs" textLength="142" x="439.625" y="169.7705">[command arguments is valid]</text><text fill="#000000" font-family="sans-serif" font-size="11" lengthAdjust="spacingAndGlyphs" textLength="26" x="605.625" y="169.7705">[else]</text><rect fill="#FEFECE" filter="url(#f9b2due4jxz1j)" height="35.0938" rx="12.5" ry="12.5" style="stroke: #A80036; stroke-width: 1.5;" width="196" x="300.75" y="194.1875"/><text fill="#000000" font-family="sans-serif" font-size="12" lengthAdjust="spacingAndGlyphs" textLength="176" x="310.75" y="216.6445">Generate new nearby command</text><rect fill="#FEFECE" filter="url(#f9b2due4jxz1j)" height="35.0938" rx="12.5" ry="12.5" style="stroke: #A80036; stroke-width: 1.5;" width="162" x="317.75" y="249.2813"/><text fill="#000000" font-family="sans-serif" font-size="12" lengthAdjust="spacingAndGlyphs" textLength="142" x="327.75" y="271.7383">Execute nearby command</text><polygon fill="#FEFECE" filter="url(#f9b2due4jxz1j)" points="398.75,304.375,398.75,304.375,410.75,316.375,398.75,328.375,398.75,328.375,386.75,316.375,398.75,304.375" style="stroke: #A80036; stroke-width: 1.5;"/><text fill="#000000" font-family="sans-serif" font-size="11" lengthAdjust="spacingAndGlyphs" textLength="55" x="331.75" y="313.958">[Flag given]</text><text fill="#000000" font-family="sans-serif" font-size="11" lengthAdjust="spacingAndGlyphs" textLength="75" x="410.75" y="313.958">[No flags given]</text><polygon fill="#FEFECE" filter="url(#f9b2due4jxz1j)" points="225,338.375,225,338.375,237,350.375,225,362.375,225,362.375,213,350.375,225,338.375" style="stroke: #A80036; stroke-width: 1.5;"/><text fill="#000000" font-family="sans-serif" font-size="11" lengthAdjust="spacingAndGlyphs" textLength="126" x="87" y="347.958">[Flag is Return Order Flag]</text><text fill="#000000" font-family="sans-serif" font-size="11" lengthAdjust="spacingAndGlyphs" textLength="91" x="237" y="347.958">[Flag is Order Flag]</text><rect fill="#FEFECE" filter="url(#f9b2due4jxz1j)" height="50.1875" rx="12.5" ry="12.5" style="stroke: #A80036; stroke-width: 1.5;" width="205" x="10" y="372.375"/><text fill="#000000" font-family="sans-serif" font-size="12" lengthAdjust="spacingAndGlyphs" textLength="185" x="20" y="394.832">Obtain all matching nearby orders</text><text fill="#000000" font-family="sans-serif" font-size="12" lengthAdjust="spacingAndGlyphs" textLength="96" x="20" y="409.9258">in return order list</text><rect fill="#FEFECE" filter="url(#f9b2due4jxz1j)" height="50.1875" rx="12.5" ry="12.5" style="stroke: #A80036; stroke-width: 1.5;" width="146" x="39.5" y="457.5625"/><text fill="#000000" font-family="sans-serif" font-size="12" lengthAdjust="spacingAndGlyphs" textLength="126" x="49.5" y="480.0195">Show all nearby orders</text><text fill="#000000" font-family="sans-serif" font-size="12" lengthAdjust="spacingAndGlyphs" textLength="100" x="49.5" y="495.1133">for return order list</text><rect fill="#FEFECE" filter="url(#f9b2due4jxz1j)" height="50.1875" rx="12.5" ry="12.5" style="stroke: #A80036; stroke-width: 1.5;" width="205" x="235" y="372.375"/><text fill="#000000" font-family="sans-serif" font-size="12" lengthAdjust="spacingAndGlyphs" textLength="185" x="245" y="394.832">Obtain all matching nearby orders</text><text fill="#000000" font-family="sans-serif" font-size="12" lengthAdjust="spacingAndGlyphs" textLength="61" x="245" y="409.9258">in order list</text><rect fill="#FEFECE" filter="url(#f9b2due4jxz1j)" height="50.1875" rx="12.5" ry="12.5" style="stroke: #A80036; stroke-width: 1.5;" width="163" x="256" y="457.5625"/><text fill="#000000" font-family="sans-serif" font-size="12" lengthAdjust="spacingAndGlyphs" textLength="143" x="266" y="480.0195">Show all nearby orders for</text><text fill="#000000" font-family="sans-serif" font-size="12" lengthAdjust="spacingAndGlyphs" textLength="48" x="266" y="495.1133">order list</text><polygon fill="#FEFECE" filter="url(#f9b2due4jxz1j)" points="225,513.75,237,525.75,225,537.75,213,525.75,225,513.75" style="stroke: #A80036; stroke-width: 1.5;"/><rect fill="#FEFECE" filter="url(#f9b2due4jxz1j)" height="50.1875" rx="12.5" ry="12.5" style="stroke: #A80036; stroke-width: 1.5;" width="205" x="470" y="338.375"/><text fill="#000000" font-family="sans-serif" font-size="12" lengthAdjust="spacingAndGlyphs" textLength="185" x="480" y="360.832">Obtain all matching nearby orders</text><text fill="#000000" font-family="sans-serif" font-size="12" lengthAdjust="spacingAndGlyphs" textLength="56" x="480" y="375.9258">for all lists</text><rect fill="#FEFECE" filter="url(#f9b2due4jxz1j)" height="35.0938" rx="12.5" ry="12.5" style="stroke: #A80036; stroke-width: 1.5;" width="205" x="470" y="423.5625"/><text fill="#000000" font-family="sans-serif" font-size="12" lengthAdjust="spacingAndGlyphs" textLength="185" x="480" y="446.0195">Show all nearby orders for all lists</text><polygon fill="#FEFECE" filter="url(#f9b2due4jxz1j)" points="398.75,543.75,410.75,555.75,398.75,567.75,386.75,555.75,398.75,543.75" style="stroke: #A80036; stroke-width: 1.5;"/><rect fill="#FEFECE" filter="url(#f9b2due4jxz1j)" height="35.0938" rx="12.5" ry="12.5" style="stroke: #A80036; stroke-width: 1.5;" width="167" x="685" y="194.1875"/><text fill="#000000" font-family="sans-serif" font-size="12" lengthAdjust="spacingAndGlyphs" textLength="147" x="695" y="216.6445">Parse exception generated</text><polygon fill="#FEFECE" filter="url(#f9b2due4jxz1j)" points="593.625,573.75,605.625,585.75,593.625,597.75,581.625,585.75,593.625,573.75" style="stroke: #A80036; stroke-width: 1.5;"/><ellipse cx="593.625" cy="628.75" fill="#FFFFFF" filter="url(#f9b2due4jxz1j)" rx="11" ry="11" style="stroke: #000000; stroke-width: 1.0;"/><ellipse cx="593.625" cy="628.75" fill="#000000" rx="6" ry="6" style="stroke: #7F7F7F; stroke-width: 1.0;"/><line style="stroke: #A80036; stroke-width: 1.5;" x1="593.625" x2="593.625" y1="30" y2="50"/><polygon fill="#A80036" points="589.625,40,593.625,50,597.625,40,593.625,44" style="stroke: #A80036; stroke-width: 1.0;"/><line style="stroke: #A80036; stroke-width: 1.5;" x1="593.625" x2="593.625" y1="85.0938" y2="105.0938"/><polygon fill="#A80036" points="589.625,95.0938,593.625,105.0938,597.625,95.0938,593.625,99.0938" style="stroke: #A80036; stroke-width: 1.0;"/><line style="stroke: #A80036; stroke-width: 1.5;" x1="398.75" x2="398.75" y1="229.2813" y2="249.2813"/><polygon fill="#A80036" points="394.75,239.2813,398.75,249.2813,402.75,239.2813,398.75,243.2813" style="stroke: #A80036; stroke-width: 1.0;"/><line style="stroke: #A80036; stroke-width: 1.5;" x1="112.5" x2="112.5" y1="422.5625" y2="457.5625"/><polygon fill="#A80036" points="108.5,447.5625,112.5,457.5625,116.5,447.5625,112.5,451.5625" style="stroke: #A80036; stroke-width: 1.0;"/><line style="stroke: #A80036; stroke-width: 1.5;" x1="337.5" x2="337.5" y1="422.5625" y2="457.5625"/><polygon fill="#A80036" points="333.5,447.5625,337.5,457.5625,341.5,447.5625,337.5,451.5625" style="stroke: #A80036; stroke-width: 1.0;"/><line style="stroke: #A80036; stroke-width: 1.5;" x1="213" x2="112.5" y1="350.375" y2="350.375"/><line style="stroke: #A80036; stroke-width: 1.5;" x1="112.5" x2="112.5" y1="350.375" y2="372.375"/><polygon fill="#A80036" points="108.5,362.375,112.5,372.375,116.5,362.375,112.5,366.375" style="stroke: #A80036; stroke-width: 1.0;"/><line style="stroke: #A80036; stroke-width: 1.5;" x1="237" x2="337.5" y1="350.375" y2="350.375"/><line style="stroke: #A80036; stroke-width: 1.5;" x1="337.5" x2="337.5" y1="350.375" y2="372.375"/><polygon fill="#A80036" points="333.5,362.375,337.5,372.375,341.5,362.375,337.5,366.375" style="stroke: #A80036; stroke-width: 1.0;"/><line style="stroke: #A80036; stroke-width: 1.5;" x1="112.5" x2="112.5" y1="507.75" y2="525.75"/><line style="stroke: #A80036; stroke-width: 1.5;" x1="112.5" x2="213" y1="525.75" y2="525.75"/><polygon fill="#A80036" points="203,521.75,213,525.75,203,529.75,207,525.75" style="stroke: #A80036; stroke-width: 1.0;"/><line style="stroke: #A80036; stroke-width: 1.5;" x1="337.5" x2="337.5" y1="507.75" y2="525.75"/><line style="stroke: #A80036; stroke-width: 1.5;" x1="337.5" x2="237" y1="525.75" y2="525.75"/><polygon fill="#A80036" points="247,521.75,237,525.75,247,529.75,243,525.75" style="stroke: #A80036; stroke-width: 1.0;"/><line style="stroke: #A80036; stroke-width: 1.5;" x1="572.5" x2="572.5" y1="388.5625" y2="423.5625"/><polygon fill="#A80036" points="568.5,413.5625,572.5,423.5625,576.5,413.5625,572.5,417.5625" style="stroke: #A80036; stroke-width: 1.0;"/><line style="stroke: #A80036; stroke-width: 1.5;" x1="386.75" x2="225" y1="316.375" y2="316.375"/><line style="stroke: #A80036; stroke-width: 1.5;" x1="225" x2="225" y1="316.375" y2="338.375"/><polygon fill="#A80036" points="221,328.375,225,338.375,229,328.375,225,332.375" style="stroke: #A80036; stroke-width: 1.0;"/><line style="stroke: #A80036; stroke-width: 1.5;" x1="410.75" x2="572.5" y1="316.375" y2="316.375"/><line style="stroke: #A80036; stroke-width: 1.5;" x1="572.5" x2="572.5" y1="316.375" y2="338.375"/><polygon fill="#A80036" points="568.5,328.375,572.5,338.375,576.5,328.375,572.5,332.375" style="stroke: #A80036; stroke-width: 1.0;"/><line style="stroke: #A80036; stroke-width: 1.5;" x1="225" x2="225" y1="537.75" y2="555.75"/><line style="stroke: #A80036; stroke-width: 1.5;" x1="225" x2="386.75" y1="555.75" y2="555.75"/><polygon fill="#A80036" points="376.75,551.75,386.75,555.75,376.75,559.75,380.75,555.75" style="stroke: #A80036; stroke-width: 1.0;"/><line style="stroke: #A80036; stroke-width: 1.5;" x1="572.5" x2="572.5" y1="458.6563" y2="555.75"/><line style="stroke: #A80036; stroke-width: 1.5;" x1="572.5" x2="410.75" y1="555.75" y2="555.75"/><polygon fill="#A80036" points="420.75,551.75,410.75,555.75,420.75,559.75,416.75,555.75" style="stroke: #A80036; stroke-width: 1.0;"/><line style="stroke: #A80036; stroke-width: 1.5;" x1="398.75" x2="398.75" y1="284.375" y2="304.375"/><polygon fill="#A80036" points="394.75,294.375,398.75,304.375,402.75,294.375,398.75,298.375" style="stroke: #A80036; stroke-width: 1.0;"/><line style="stroke: #A80036; stroke-width: 1.5;" x1="581.625" x2="398.75" y1="172.1875" y2="172.1875"/><line style="stroke: #A80036; stroke-width: 1.5;" x1="398.75" x2="398.75" y1="172.1875" y2="194.1875"/><polygon fill="#A80036" points="394.75,184.1875,398.75,194.1875,402.75,184.1875,398.75,188.1875" style="stroke: #A80036; stroke-width: 1.0;"/><line style="stroke: #A80036; stroke-width: 1.5;" x1="605.625" x2="768.5" y1="172.1875" y2="172.1875"/><line style="stroke: #A80036; stroke-width: 1.5;" x1="768.5" x2="768.5" y1="172.1875" y2="194.1875"/><polygon fill="#A80036" points="764.5,184.1875,768.5,194.1875,772.5,184.1875,768.5,188.1875" style="stroke: #A80036; stroke-width: 1.0;"/><line style="stroke: #A80036; stroke-width: 1.5;" x1="398.75" x2="398.75" y1="567.75" y2="585.75"/><line style="stroke: #A80036; stroke-width: 1.5;" x1="398.75" x2="581.625" y1="585.75" y2="585.75"/><polygon fill="#A80036" points="571.625,581.75,581.625,585.75,571.625,589.75,575.625,585.75" style="stroke: #A80036; stroke-width: 1.0;"/><line style="stroke: #A80036; stroke-width: 1.5;" x1="768.5" x2="768.5" y1="229.2813" y2="585.75"/><line style="stroke: #A80036; stroke-width: 1.5;" x1="768.5" x2="605.625" y1="585.75" y2="585.75"/><polygon fill="#A80036" points="615.625,581.75,605.625,585.75,615.625,589.75,611.625,585.75" style="stroke: #A80036; stroke-width: 1.0;"/><line style="stroke: #A80036; stroke-width: 1.5;" x1="593.625" x2="593.625" y1="140.1875" y2="160.1875"/><polygon fill="#A80036" points="589.625,150.1875,593.625,160.1875,597.625,150.1875,593.625,154.1875" style="stroke: #A80036; stroke-width: 1.0;"/><line style="stroke: #A80036; stroke-width: 1.5;" x1="593.625" x2="593.625" y1="597.75" y2="617.75"/><polygon fill="#A80036" points="589.625,607.75,593.625,617.75,597.625,607.75,593.625,611.75" style="stroke: #A80036; stroke-width: 1.0;"/><!--MD5=[22efb3208669a32f09540d45f738a2b3]
@startuml
start
:User inputs command;
:Parse command;

if () then ([command arguments is valid])
    :Generate new nearby command;
    :Execute nearby command;
    if () then ([Flag given])
        if () then ([Flag is Return Order Flag])
        :Obtain all matching nearby orders
        in return order list;
        :Show all nearby orders
        for return order list;
        else ([Flag is Order Flag])
        :Obtain all matching nearby orders
        in order list;
        :Show all nearby orders for
        order list;
        endif
    else ([No flags given])
        :Obtain all matching nearby orders
        for all lists;
        :Show all nearby orders for all lists;
    endif
else ([else])
    :Parse exception generated;
endif

stop
@enduml

PlantUML version 1.2020.03beta6(Unknown compile time)
(GPL source distribution)
Java Runtime: OpenJDK Runtime Environment
JVM: OpenJDK 64-Bit Server VM
Java Version: 11.0.6+8-b520.43
Operating System: Windows 10
Default Encoding: Cp1252
Language: en
Country: SG
--></g></svg>
