<?xml version="1.0" encoding="UTF-8" standalone="no"?><svg xmlns="http://www.w3.org/2000/svg" xmlns:xlink="http://www.w3.org/1999/xlink" contentScriptType="application/ecmascript" contentStyleType="text/css" height="712px" preserveAspectRatio="none" style="width:1254px;height:712px;" version="1.1" viewBox="0 0 1254 712" width="1254px" zoomAndPan="magnify"><defs/><g><rect fill="#C8C8FA" height="690.2266" style="stroke: #A80036; stroke-width: 1.0;" width="1044" x="105" y="4"/><text fill="#FFFFFF" font-family="sans-serif" font-size="15" font-weight="bold" lengthAdjust="spacingAndGlyphs" textLength="39" x="605.5" y="19.5713">Logic</text><rect fill="#F97181" height="690.2266" style="stroke: #A80036; stroke-width: 1.0;" width="92" x="1151" y="4"/><text fill="#FFFFFF" font-family="sans-serif" font-size="15" font-weight="bold" lengthAdjust="spacingAndGlyphs" textLength="44" x="1173" y="19.5713">Model</text><rect fill="#FFFFFF" height="590.3984" style="stroke: #A80036; stroke-width: 1.0;" width="10" x="168" y="91.8281"/><rect fill="#FFFFFF" height="234.625" style="stroke: #A80036; stroke-width: 1.0;" width="10" x="388" y="122.1797"/><rect fill="#FFFFFF" height="32.6094" style="stroke: #A80036; stroke-width: 1.0;" width="10" x="567" y="146.1797"/><rect fill="#FFFFFF" height="103.3125" style="stroke: #A80036; stroke-width: 1.0;" width="10" x="567" y="209.1406"/><rect fill="#FFFFFF" height="48.9609" style="stroke: #A80036; stroke-width: 1.0;" width="10" x="749" y="233.1406"/><rect fill="#FFFFFF" height="281.0703" style="stroke: #A80036; stroke-width: 1.0;" width="10" x="749" y="387.1563"/><rect fill="#FFFFFF" height="41.3516" style="stroke: #A80036; stroke-width: 1.0;" width="10" x="754" y="486.2109"/><rect fill="#FFFFFF" height="30.3516" style="stroke: #A80036; stroke-width: 1.0;" width="10" x="901" y="417.5078"/><rect fill="#FFFFFF" height="48.9609" style="stroke: #A80036; stroke-width: 1.0;" width="10" x="1051.5" y="588.9141"/><line style="stroke: #A80036; stroke-width: 1.0; stroke-dasharray: 5.0,5.0;" x1="173" x2="173" y1="59.4766" y2="700.2266"/><line style="stroke: #A80036; stroke-width: 1.0; stroke-dasharray: 5.0,5.0;" x1="392.5" x2="392.5" y1="59.4766" y2="700.2266"/><line style="stroke: #A80036; stroke-width: 1.0; stroke-dasharray: 5.0,5.0;" x1="571.5" x2="571.5" y1="161.4844" y2="700.2266"/><line style="stroke: #A80036; stroke-width: 1.0; stroke-dasharray: 5.0,5.0;" x1="753.5" x2="753.5" y1="248.4453" y2="700.2266"/><line style="stroke: #A80036; stroke-width: 1.0; stroke-dasharray: 5.0,5.0;" x1="906" x2="906" y1="59.4766" y2="700.2266"/><line style="stroke: #A80036; stroke-width: 1.0; stroke-dasharray: 5.0,5.0;" x1="1056" x2="1056" y1="604.2188" y2="700.2266"/><line style="stroke: #A80036; stroke-width: 1.0; stroke-dasharray: 5.0,5.0;" x1="1197" x2="1197" y1="59.4766" y2="700.2266"/><rect fill="#3333C4" height="31.6094" style="stroke: #A80036; stroke-width: 1.5;" width="108" x="119" y="26.8672"/><text fill="#FFFFFF" font-family="sans-serif" font-size="14" lengthAdjust="spacingAndGlyphs" textLength="94" x="126" y="48.4004">:LogicManager</text><rect fill="#3333C4" height="31.6094" style="stroke: #A80036; stroke-width: 1.5;" width="129" x="328.5" y="26.8672"/><text fill="#FFFFFF" font-family="sans-serif" font-size="14" lengthAdjust="spacingAndGlyphs" textLength="115" x="335.5" y="48.4004">:OrderBookParser</text><rect fill="#3333C4" height="31.6094" style="stroke: #A80036; stroke-width: 1.5;" width="84" x="864" y="26.8672"/><text fill="#FFFFFF" font-family="sans-serif" font-size="14" lengthAdjust="spacingAndGlyphs" textLength="70" x="871" y="48.4004">:DistrictInfo</text><rect fill="#9D0012" height="31.6094" style="stroke: #A80036; stroke-width: 1.5;" width="64" x="1165" y="26.8672"/><text fill="#FFFFFF" font-family="sans-serif" font-size="14" lengthAdjust="spacingAndGlyphs" textLength="42" x="1176" y="48.4004">:Model</text><rect fill="#FFFFFF" height="590.3984" style="stroke: #A80036; stroke-width: 1.0;" width="10" x="168" y="91.8281"/><rect fill="#FFFFFF" height="234.625" style="stroke: #A80036; stroke-width: 1.0;" width="10" x="388" y="122.1797"/><rect fill="#FFFFFF" height="32.6094" style="stroke: #A80036; stroke-width: 1.0;" width="10" x="567" y="146.1797"/><rect fill="#FFFFFF" height="103.3125" style="stroke: #A80036; stroke-width: 1.0;" width="10" x="567" y="209.1406"/><rect fill="#FFFFFF" height="48.9609" style="stroke: #A80036; stroke-width: 1.0;" width="10" x="749" y="233.1406"/><rect fill="#FFFFFF" height="281.0703" style="stroke: #A80036; stroke-width: 1.0;" width="10" x="749" y="387.1563"/><rect fill="#FFFFFF" height="41.3516" style="stroke: #A80036; stroke-width: 1.0;" width="10" x="754" y="486.2109"/><rect fill="#FFFFFF" height="30.3516" style="stroke: #A80036; stroke-width: 1.0;" width="10" x="901" y="417.5078"/><rect fill="#FFFFFF" height="48.9609" style="stroke: #A80036; stroke-width: 1.0;" width="10" x="1051.5" y="588.9141"/><polygon fill="#A80036" points="156,87.8281,166,91.8281,156,95.8281,160,91.8281" style="stroke: #A80036; stroke-width: 1.0;"/><line style="stroke: #A80036; stroke-width: 1.0;" x1="3" x2="162" y1="91.8281" y2="91.8281"/><text fill="#000000" font-family="sans-serif" font-size="13" lengthAdjust="spacingAndGlyphs" textLength="146" x="12.5" y="86.9717">execute("nearby central")</text><polygon fill="#A80036" points="376,118.1797,386,122.1797,376,126.1797,380,122.1797" style="stroke: #A80036; stroke-width: 1.0;"/><line style="stroke: #A80036; stroke-width: 1.0;" x1="178" x2="382" y1="122.1797" y2="122.1797"/><text fill="#000000" font-family="sans-serif" font-size="13" lengthAdjust="spacingAndGlyphs" textLength="191" x="187.5" y="117.3232">parseCommand("nearby central")</text><polygon fill="#A80036" points="475.5,132.1797,485.5,136.1797,475.5,140.1797,479.5,136.1797" style="stroke: #A80036; stroke-width: 1.0;"/><line style="stroke: #A80036; stroke-width: 1.0;" x1="398" x2="481.5" y1="136.1797" y2="136.1797"/><rect fill="#3333C4" height="31.6094" style="stroke: #A80036; stroke-width: 1.5;" width="169" x="487.5" y="130.1797"/><text fill="#FFFFFF" font-family="sans-serif" font-size="14" lengthAdjust="spacingAndGlyphs" textLength="155" x="494.5" y="151.7129">:NearbyCommandParser</text><polygon fill="#A80036" points="409,174.7891,399,178.7891,409,182.7891,405,178.7891" style="stroke: #A80036; stroke-width: 1.0;"/><line style="stroke: #A80036; stroke-width: 1.0; stroke-dasharray: 2.0,2.0;" x1="403" x2="571" y1="178.7891" y2="178.7891"/><polygon fill="#A80036" points="555,205.1406,565,209.1406,555,213.1406,559,209.1406" style="stroke: #A80036; stroke-width: 1.0;"/><line style="stroke: #A80036; stroke-width: 1.0;" x1="398" x2="561" y1="209.1406" y2="209.1406"/><text fill="#000000" font-family="sans-serif" font-size="13" lengthAdjust="spacingAndGlyphs" textLength="89" x="438" y="204.2842">parse("central")</text><polygon fill="#A80036" points="674.5,219.1406,684.5,223.1406,674.5,227.1406,678.5,223.1406" style="stroke: #A80036; stroke-width: 1.0;"/><line style="stroke: #A80036; stroke-width: 1.0;" x1="577" x2="680.5" y1="223.1406" y2="223.1406"/><rect fill="#3333C4" height="31.6094" style="stroke: #A80036; stroke-width: 1.5;" width="135" x="686.5" y="217.1406"/><text fill="#FFFFFF" font-family="sans-serif" font-size="14" lengthAdjust="spacingAndGlyphs" textLength="121" x="693.5" y="238.6738">n:NearbyCommand</text><polygon fill="#A80036" points="588,278.1016,578,282.1016,588,286.1016,584,282.1016" style="stroke: #A80036; stroke-width: 1.0;"/><line style="stroke: #A80036; stroke-width: 1.0; stroke-dasharray: 2.0,2.0;" x1="582" x2="753" y1="282.1016" y2="282.1016"/><text fill="#000000" font-family="sans-serif" font-size="13" lengthAdjust="spacingAndGlyphs" textLength="7" x="662" y="277.2451">n</text><polygon fill="#A80036" points="409,308.4531,399,312.4531,409,316.4531,405,312.4531" style="stroke: #A80036; stroke-width: 1.0;"/><line style="stroke: #A80036; stroke-width: 1.0; stroke-dasharray: 2.0,2.0;" x1="403" x2="571" y1="312.4531" y2="312.4531"/><text fill="#000000" font-family="sans-serif" font-size="13" lengthAdjust="spacingAndGlyphs" textLength="7" x="481.5" y="307.5967">n</text><line style="stroke: #A80036; stroke-width: 2.0;" x1="563" x2="581" y1="317.4531" y2="335.4531"/><line style="stroke: #A80036; stroke-width: 2.0;" x1="563" x2="581" y1="335.4531" y2="317.4531"/><polygon fill="#A80036" points="189,352.8047,179,356.8047,189,360.8047,185,356.8047" style="stroke: #A80036; stroke-width: 1.0;"/><line style="stroke: #A80036; stroke-width: 1.0; stroke-dasharray: 2.0,2.0;" x1="183" x2="392" y1="356.8047" y2="356.8047"/><text fill="#000000" font-family="sans-serif" font-size="13" lengthAdjust="spacingAndGlyphs" textLength="7" x="282" y="351.9482">n</text><polygon fill="#A80036" points="737,383.1563,747,387.1563,737,391.1563,741,387.1563" style="stroke: #A80036; stroke-width: 1.0;"/><line style="stroke: #A80036; stroke-width: 1.0;" x1="178" x2="743" y1="387.1563" y2="387.1563"/><text fill="#000000" font-family="sans-serif" font-size="13" lengthAdjust="spacingAndGlyphs" textLength="54" x="436.5" y="382.2998">execute()</text><polygon fill="#A80036" points="889,413.5078,899,417.5078,889,421.5078,893,417.5078" style="stroke: #A80036; stroke-width: 1.0;"/><line style="stroke: #A80036; stroke-width: 1.0;" x1="759" x2="895" y1="417.5078" y2="417.5078"/><text fill="#000000" font-family="sans-serif" font-size="13" lengthAdjust="spacingAndGlyphs" textLength="123" x="768.5" y="412.6514">isValidArea("central")</text><polygon fill="#A80036" points="770,443.8594,760,447.8594,770,451.8594,766,447.8594" style="stroke: #A80036; stroke-width: 1.0;"/><line style="stroke: #A80036; stroke-width: 1.0; stroke-dasharray: 2.0,2.0;" x1="764" x2="905" y1="447.8594" y2="447.8594"/><text fill="#000000" font-family="sans-serif" font-size="13" lengthAdjust="spacingAndGlyphs" textLength="22" x="821.5" y="443.0029">true</text><line style="stroke: #A80036; stroke-width: 1.0;" x1="759" x2="806" y1="473.2109" y2="473.2109"/><line style="stroke: #A80036; stroke-width: 1.0;" x1="806" x2="806" y1="473.2109" y2="486.2109"/><line style="stroke: #A80036; stroke-width: 1.0;" x1="765" x2="806" y1="486.2109" y2="486.2109"/><polygon fill="#A80036" points="775,482.2109,765,486.2109,775,490.2109,771,486.2109" style="stroke: #A80036; stroke-width: 1.0;"/><text fill="#000000" font-family="sans-serif" font-size="13" lengthAdjust="spacingAndGlyphs" textLength="108" x="771" y="468.3545">getAreaPredicate()</text><line style="stroke: #A80036; stroke-width: 1.0; stroke-dasharray: 2.0,2.0;" x1="764" x2="806" y1="526.5625" y2="526.5625"/><line style="stroke: #A80036; stroke-width: 1.0; stroke-dasharray: 2.0,2.0;" x1="806" x2="806" y1="526.5625" y2="539.5625"/><line style="stroke: #A80036; stroke-width: 1.0; stroke-dasharray: 2.0,2.0;" x1="759" x2="806" y1="539.5625" y2="539.5625"/><polygon fill="#A80036" points="769,535.5625,759,539.5625,769,543.5625,765,539.5625" style="stroke: #A80036; stroke-width: 1.0;"/><text fill="#000000" font-family="sans-serif" font-size="13" lengthAdjust="spacingAndGlyphs" textLength="84" x="771" y="521.7061">orderPredicate</text><polygon fill="#A80036" points="1185,560.9141,1195,564.9141,1185,568.9141,1189,564.9141" style="stroke: #A80036; stroke-width: 1.0;"/><line style="stroke: #A80036; stroke-width: 1.0;" x1="759" x2="1191" y1="564.9141" y2="564.9141"/><text fill="#000000" font-family="sans-serif" font-size="13" lengthAdjust="spacingAndGlyphs" textLength="227" x="864.5" y="560.0576">updateFilteredOrderList(orderPredicate)</text><polygon fill="#A80036" points="966,574.9141,976,578.9141,966,582.9141,970,578.9141" style="stroke: #A80036; stroke-width: 1.0;"/><line style="stroke: #A80036; stroke-width: 1.0;" x1="759" x2="972" y1="578.9141" y2="578.9141"/><rect fill="#3333C4" height="31.6094" style="stroke: #A80036; stroke-width: 1.5;" width="157" x="978" y="572.9141"/><text fill="#FFFFFF" font-family="sans-serif" font-size="14" lengthAdjust="spacingAndGlyphs" textLength="143" x="985" y="594.4473">result:CommandResult</text><polygon fill="#A80036" points="770,633.875,760,637.875,770,641.875,766,637.875" style="stroke: #A80036; stroke-width: 1.0;"/><line style="stroke: #A80036; stroke-width: 1.0; stroke-dasharray: 2.0,2.0;" x1="764" x2="1055.5" y1="637.875" y2="637.875"/><text fill="#000000" font-family="sans-serif" font-size="13" lengthAdjust="spacingAndGlyphs" textLength="32" x="891.75" y="633.0186">result</text><polygon fill="#A80036" points="189,664.2266,179,668.2266,189,672.2266,185,668.2266" style="stroke: #A80036; stroke-width: 1.0;"/><line style="stroke: #A80036; stroke-width: 1.0; stroke-dasharray: 2.0,2.0;" x1="183" x2="753" y1="668.2266" y2="668.2266"/><text fill="#000000" font-family="sans-serif" font-size="13" lengthAdjust="spacingAndGlyphs" textLength="32" x="450" y="663.3701">result</text><polygon fill="#A80036" points="14,678.2266,4,682.2266,14,686.2266,10,682.2266" style="stroke: #A80036; stroke-width: 1.0;"/><line style="stroke: #A80036; stroke-width: 1.0; stroke-dasharray: 2.0,2.0;" x1="8" x2="172" y1="682.2266" y2="682.2266"/><!--MD5=[d7e35ac11055d544af56926b96ecc00c]
@startuml

skinparam BackgroundColor #FFFFFFF

skinparam Shadowing false

skinparam Class {
    FontColor #FFFFFF
    BorderThickness 1
    BorderColor #FFFFFF
    StereotypeFontColor #FFFFFF
    FontName Arial
}

skinparam Actor {
    BorderColor #000000
    Color #000000
    FontName Arial
}

skinparam Sequence {
    MessageAlign center
    BoxFontSize 15
    BoxPadding 0
    BoxFontColor #FFFFFF
    FontName Arial
}

skinparam Participant {
    FontColor #FFFFFFF
    Padding 20
}

skinparam MinClassWidth 50
skinparam ParticipantPadding 10
skinparam Shadowing false
skinparam DefaultTextAlignment center
skinparam packageStyle Rectangle

hide footbox
hide members
hide circle
box Logic #C8C8FA
participant ":LogicManager" as LogicManager #3333C4
participant ":OrderBookParser" as OrderBookParser #3333C4
participant ":NearbyCommandParser" as NearbyCommandParser #3333C4
participant "n:NearbyCommand" as NearbyCommand #3333C4
participant ":DistrictInfo" as DistrictInfo #3333C4
participant "result:CommandResult" as CommandResult #3333C4
end box

box Model #F97181
participant ":Model" as Model #9D0012
end box

[-> LogicManager : execute("nearby central")
activate LogicManager

LogicManager -> OrderBookParser : parseCommand("nearby central")
activate OrderBookParser

create NearbyCommandParser
OrderBookParser -> NearbyCommandParser
activate NearbyCommandParser

NearbyCommandParser - -> OrderBookParser
deactivate NearbyCommandParser

OrderBookParser -> NearbyCommandParser : parse("central")
activate NearbyCommandParser

create NearbyCommand
NearbyCommandParser -> NearbyCommand
activate NearbyCommand

NearbyCommand - -> NearbyCommandParser : n
deactivate NearbyCommand

NearbyCommandParser - -> OrderBookParser : n
deactivate NearbyCommandParser
NearbyCommandParser -[hidden]-> OrderBookParser
destroy NearbyCommandParser

OrderBookParser - -> LogicManager : n
deactivate OrderBookParser

LogicManager -> NearbyCommand : execute()
activate NearbyCommand

NearbyCommand -> DistrictInfo: isValidArea("central")
activate DistrictInfo
DistrictInfo - -> NearbyCommand: true
deactivate DistrictInfo

NearbyCommand -> NearbyCommand: getAreaPredicate()
activate NearbyCommand
NearbyCommand - -> NearbyCommand: orderPredicate
deactivate NearbyCommand

NearbyCommand -> Model: updateFilteredOrderList(orderPredicate)

create CommandResult
NearbyCommand -> CommandResult
activate CommandResult

CommandResult - -> NearbyCommand: result
deactivate CommandResult

NearbyCommand - -> LogicManager : result
deactivate NearbyCommand

[<- -LogicManager
deactivate LogicManager
@enduml

PlantUML version 1.2020.03beta6(Unknown compile time)
(GPL source distribution)
Java Runtime: OpenJDK Runtime Environment
JVM: OpenJDK 64-Bit Server VM
Java Version: 11.0.5+10-b520.38
Operating System: Windows 10
Default Encoding: Cp1252
Language: en
Country: SG
--></g></svg>
