<?xml version="1.0" encoding="UTF-8" standalone="no"?><svg xmlns="http://www.w3.org/2000/svg" xmlns:xlink="http://www.w3.org/1999/xlink" contentScriptType="application/ecmascript" contentStyleType="text/css" height="620px" preserveAspectRatio="none" style="width:1085px;height:620px;" version="1.1" viewBox="0 0 1085 620" width="1085px" zoomAndPan="magnify"><defs><filter height="300%" id="f1trpyq288wki2" width="300%" x="-1" y="-1"><feGaussianBlur result="blurOut" stdDeviation="2.0"/><feColorMatrix in="blurOut" result="blurOut2" type="matrix" values="0 0 0 0 0 0 0 0 0 0 0 0 0 0 0 0 0 0 .4 0"/><feOffset dx="4.0" dy="4.0" in="blurOut2" result="blurOut3"/><feBlend in="SourceGraphic" in2="blurOut3" mode="normal"/></filter></defs><g><ellipse cx="775.3125" cy="20" fill="#000000" filter="url(#f1trpyq288wki2)" rx="10" ry="10" style="stroke: none; stroke-width: 1.0;"/><rect fill="#FEFECE" filter="url(#f1trpyq288wki2)" height="35.0938" rx="12.5" ry="12.5" style="stroke: #A80036; stroke-width: 1.5;" width="143" x="703.8125" y="50"/><text fill="#000000" font-family="sans-serif" font-size="12" lengthAdjust="spacingAndGlyphs" textLength="123" x="713.8125" y="72.457">User inputs command</text><rect fill="#FEFECE" filter="url(#f1trpyq288wki2)" height="35.0938" rx="12.5" ry="12.5" style="stroke: #A80036; stroke-width: 1.5;" width="112" x="719.3125" y="105.0938"/><text fill="#000000" font-family="sans-serif" font-size="12" lengthAdjust="spacingAndGlyphs" textLength="92" x="729.3125" y="127.5508">Parse command</text><polygon fill="#FEFECE" filter="url(#f1trpyq288wki2)" points="775.3125,160.1875,775.3125,160.1875,787.3125,172.1875,775.3125,184.1875,775.3125,184.1875,763.3125,172.1875,775.3125,160.1875" style="stroke: #A80036; stroke-width: 1.5;"/><text fill="#000000" font-family="sans-serif" font-size="11" lengthAdjust="spacingAndGlyphs" textLength="142" x="621.3125" y="169.7705">[command arguments is valid]</text><text fill="#000000" font-family="sans-serif" font-size="11" lengthAdjust="spacingAndGlyphs" textLength="26" x="787.3125" y="169.7705">[else]</text><rect fill="#FEFECE" filter="url(#f1trpyq288wki2)" height="35.0938" rx="12.5" ry="12.5" style="stroke: #A80036; stroke-width: 1.5;" width="196" x="442.125" y="194.1875"/><text fill="#000000" font-family="sans-serif" font-size="12" lengthAdjust="spacingAndGlyphs" textLength="176" x="452.125" y="216.6445">Generate new nearby command</text><rect fill="#FEFECE" filter="url(#f1trpyq288wki2)" height="35.0938" rx="12.5" ry="12.5" style="stroke: #A80036; stroke-width: 1.5;" width="162" x="459.125" y="249.2813"/><text fill="#000000" font-family="sans-serif" font-size="12" lengthAdjust="spacingAndGlyphs" textLength="142" x="469.125" y="271.7383">Execute nearby command</text><polygon fill="#FEFECE" filter="url(#f1trpyq288wki2)" points="540.125,304.375,540.125,304.375,552.125,316.375,540.125,328.375,540.125,328.375,528.125,316.375,540.125,304.375" style="stroke: #A80036; stroke-width: 1.5;"/><text fill="#000000" font-family="sans-serif" font-size="11" lengthAdjust="spacingAndGlyphs" textLength="55" x="473.125" y="313.958">[Flag given]</text><text fill="#000000" font-family="sans-serif" font-size="11" lengthAdjust="spacingAndGlyphs" textLength="75" x="552.125" y="313.958">[No flags given]</text><polygon fill="#FEFECE" filter="url(#f1trpyq288wki2)" points="315.25,338.375,315.25,338.375,327.25,350.375,315.25,362.375,315.25,362.375,303.25,350.375,315.25,338.375" style="stroke: #A80036; stroke-width: 1.5;"/><text fill="#000000" font-family="sans-serif" font-size="11" lengthAdjust="spacingAndGlyphs" textLength="126" x="177.25" y="347.958">[Flag is Return Order Flag]</text><text fill="#000000" font-family="sans-serif" font-size="11" lengthAdjust="spacingAndGlyphs" textLength="91" x="327.25" y="347.958">[Flag is Order Flag]</text><rect fill="#FEFECE" filter="url(#f1trpyq288wki2)" height="35.0938" rx="12.5" ry="12.5" style="stroke: #A80036; stroke-width: 1.5;" width="304" x="10" y="372.375"/><text fill="#000000" font-family="sans-serif" font-size="12" lengthAdjust="spacingAndGlyphs" textLength="284" x="20" y="394.832">Obtain all matching nearby orders in return order list</text><rect fill="#FEFECE" filter="url(#f1trpyq288wki2)" height="35.0938" rx="12.5" ry="12.5" style="stroke: #A80036; stroke-width: 1.5;" width="249" x="37.5" y="442.4688"/><text fill="#000000" font-family="sans-serif" font-size="12" lengthAdjust="spacingAndGlyphs" textLength="229" x="47.5" y="464.9258">Show all nearby orders for return order list</text><rect fill="#FEFECE" filter="url(#f1trpyq288wki2)" height="35.0938" rx="12.5" ry="12.5" style="stroke: #A80036; stroke-width: 1.5;" width="269" x="334" y="372.375"/><text fill="#000000" font-family="sans-serif" font-size="12" lengthAdjust="spacingAndGlyphs" textLength="249" x="344" y="394.832">Obtain all matching nearby orders in order list</text><rect fill="#FEFECE" filter="url(#f1trpyq288wki2)" height="35.0938" rx="12.5" ry="12.5" style="stroke: #A80036; stroke-width: 1.5;" width="214" x="361.5" y="442.4688"/><text fill="#000000" font-family="sans-serif" font-size="12" lengthAdjust="spacingAndGlyphs" textLength="194" x="371.5" y="464.9258">Show all nearby orders for order list</text><polygon fill="#FEFECE" filter="url(#f1trpyq288wki2)" points="315.25,483.5625,327.25,495.5625,315.25,507.5625,303.25,495.5625,315.25,483.5625" style="stroke: #A80036; stroke-width: 1.5;"/><rect fill="#FEFECE" filter="url(#f1trpyq288wki2)" height="35.0938" rx="12.5" ry="12.5" style="stroke: #A80036; stroke-width: 1.5;" width="264" x="633" y="338.375"/><text fill="#000000" font-family="sans-serif" font-size="12" lengthAdjust="spacingAndGlyphs" textLength="244" x="643" y="360.832">Obtain all matching nearby orders for all lists</text><rect fill="#FEFECE" filter="url(#f1trpyq288wki2)" height="35.0938" rx="12.5" ry="12.5" style="stroke: #A80036; stroke-width: 1.5;" width="205" x="662.5" y="408.4688"/><text fill="#000000" font-family="sans-serif" font-size="12" lengthAdjust="spacingAndGlyphs" textLength="185" x="672.5" y="430.9258">Show all nearby orders for all lists</text><polygon fill="#FEFECE" filter="url(#f1trpyq288wki2)" points="540.125,513.5625,552.125,525.5625,540.125,537.5625,528.125,525.5625,540.125,513.5625" style="stroke: #A80036; stroke-width: 1.5;"/><rect fill="#FEFECE" filter="url(#f1trpyq288wki2)" height="35.0938" rx="12.5" ry="12.5" style="stroke: #A80036; stroke-width: 1.5;" width="167" x="907" y="194.1875"/><text fill="#000000" font-family="sans-serif" font-size="12" lengthAdjust="spacingAndGlyphs" textLength="147" x="917" y="216.6445">Parse exception generated</text><polygon fill="#FEFECE" filter="url(#f1trpyq288wki2)" points="775.3125,543.5625,787.3125,555.5625,775.3125,567.5625,763.3125,555.5625,775.3125,543.5625" style="stroke: #A80036; stroke-width: 1.5;"/><ellipse cx="775.3125" cy="598.5625" fill="#FFFFFF" filter="url(#f1trpyq288wki2)" rx="11" ry="11" style="stroke: #000000; stroke-width: 1.0;"/><ellipse cx="775.3125" cy="598.5625" fill="#000000" rx="6" ry="6" style="stroke: #7F7F7F; stroke-width: 1.0;"/><line style="stroke: #A80036; stroke-width: 1.5;" x1="775.3125" x2="775.3125" y1="30" y2="50"/><polygon fill="#A80036" points="771.3125,40,775.3125,50,779.3125,40,775.3125,44" style="stroke: #A80036; stroke-width: 1.0;"/><line style="stroke: #A80036; stroke-width: 1.5;" x1="775.3125" x2="775.3125" y1="85.0938" y2="105.0938"/><polygon fill="#A80036" points="771.3125,95.0938,775.3125,105.0938,779.3125,95.0938,775.3125,99.0938" style="stroke: #A80036; stroke-width: 1.0;"/><line style="stroke: #A80036; stroke-width: 1.5;" x1="540.125" x2="540.125" y1="229.2813" y2="249.2813"/><polygon fill="#A80036" points="536.125,239.2813,540.125,249.2813,544.125,239.2813,540.125,243.2813" style="stroke: #A80036; stroke-width: 1.0;"/><line style="stroke: #A80036; stroke-width: 1.5;" x1="162" x2="162" y1="407.4688" y2="442.4688"/><polygon fill="#A80036" points="158,432.4688,162,442.4688,166,432.4688,162,436.4688" style="stroke: #A80036; stroke-width: 1.0;"/><line style="stroke: #A80036; stroke-width: 1.5;" x1="468.5" x2="468.5" y1="407.4688" y2="442.4688"/><polygon fill="#A80036" points="464.5,432.4688,468.5,442.4688,472.5,432.4688,468.5,436.4688" style="stroke: #A80036; stroke-width: 1.0;"/><line style="stroke: #A80036; stroke-width: 1.5;" x1="303.25" x2="162" y1="350.375" y2="350.375"/><line style="stroke: #A80036; stroke-width: 1.5;" x1="162" x2="162" y1="350.375" y2="372.375"/><polygon fill="#A80036" points="158,362.375,162,372.375,166,362.375,162,366.375" style="stroke: #A80036; stroke-width: 1.0;"/><line style="stroke: #A80036; stroke-width: 1.5;" x1="327.25" x2="468.5" y1="350.375" y2="350.375"/><line style="stroke: #A80036; stroke-width: 1.5;" x1="468.5" x2="468.5" y1="350.375" y2="372.375"/><polygon fill="#A80036" points="464.5,362.375,468.5,372.375,472.5,362.375,468.5,366.375" style="stroke: #A80036; stroke-width: 1.0;"/><line style="stroke: #A80036; stroke-width: 1.5;" x1="162" x2="162" y1="477.5625" y2="495.5625"/><line style="stroke: #A80036; stroke-width: 1.5;" x1="162" x2="303.25" y1="495.5625" y2="495.5625"/><polygon fill="#A80036" points="293.25,491.5625,303.25,495.5625,293.25,499.5625,297.25,495.5625" style="stroke: #A80036; stroke-width: 1.0;"/><line style="stroke: #A80036; stroke-width: 1.5;" x1="468.5" x2="468.5" y1="477.5625" y2="495.5625"/><line style="stroke: #A80036; stroke-width: 1.5;" x1="468.5" x2="327.25" y1="495.5625" y2="495.5625"/><polygon fill="#A80036" points="337.25,491.5625,327.25,495.5625,337.25,499.5625,333.25,495.5625" style="stroke: #A80036; stroke-width: 1.0;"/><line style="stroke: #A80036; stroke-width: 1.5;" x1="765" x2="765" y1="373.4688" y2="408.4688"/><polygon fill="#A80036" points="761,398.4688,765,408.4688,769,398.4688,765,402.4688" style="stroke: #A80036; stroke-width: 1.0;"/><line style="stroke: #A80036; stroke-width: 1.5;" x1="528.125" x2="315.25" y1="316.375" y2="316.375"/><line style="stroke: #A80036; stroke-width: 1.5;" x1="315.25" x2="315.25" y1="316.375" y2="338.375"/><polygon fill="#A80036" points="311.25,328.375,315.25,338.375,319.25,328.375,315.25,332.375" style="stroke: #A80036; stroke-width: 1.0;"/><line style="stroke: #A80036; stroke-width: 1.5;" x1="552.125" x2="765" y1="316.375" y2="316.375"/><line style="stroke: #A80036; stroke-width: 1.5;" x1="765" x2="765" y1="316.375" y2="338.375"/><polygon fill="#A80036" points="761,328.375,765,338.375,769,328.375,765,332.375" style="stroke: #A80036; stroke-width: 1.0;"/><line style="stroke: #A80036; stroke-width: 1.5;" x1="315.25" x2="315.25" y1="507.5625" y2="525.5625"/><line style="stroke: #A80036; stroke-width: 1.5;" x1="315.25" x2="528.125" y1="525.5625" y2="525.5625"/><polygon fill="#A80036" points="518.125,521.5625,528.125,525.5625,518.125,529.5625,522.125,525.5625" style="stroke: #A80036; stroke-width: 1.0;"/><line style="stroke: #A80036; stroke-width: 1.5;" x1="765" x2="765" y1="443.5625" y2="525.5625"/><line style="stroke: #A80036; stroke-width: 1.5;" x1="765" x2="552.125" y1="525.5625" y2="525.5625"/><polygon fill="#A80036" points="562.125,521.5625,552.125,525.5625,562.125,529.5625,558.125,525.5625" style="stroke: #A80036; stroke-width: 1.0;"/><line style="stroke: #A80036; stroke-width: 1.5;" x1="540.125" x2="540.125" y1="284.375" y2="304.375"/><polygon fill="#A80036" points="536.125,294.375,540.125,304.375,544.125,294.375,540.125,298.375" style="stroke: #A80036; stroke-width: 1.0;"/><line style="stroke: #A80036; stroke-width: 1.5;" x1="763.3125" x2="540.125" y1="172.1875" y2="172.1875"/><line style="stroke: #A80036; stroke-width: 1.5;" x1="540.125" x2="540.125" y1="172.1875" y2="194.1875"/><polygon fill="#A80036" points="536.125,184.1875,540.125,194.1875,544.125,184.1875,540.125,188.1875" style="stroke: #A80036; stroke-width: 1.0;"/><line style="stroke: #A80036; stroke-width: 1.5;" x1="787.3125" x2="990.5" y1="172.1875" y2="172.1875"/><line style="stroke: #A80036; stroke-width: 1.5;" x1="990.5" x2="990.5" y1="172.1875" y2="194.1875"/><polygon fill="#A80036" points="986.5,184.1875,990.5,194.1875,994.5,184.1875,990.5,188.1875" style="stroke: #A80036; stroke-width: 1.0;"/><line style="stroke: #A80036; stroke-width: 1.5;" x1="540.125" x2="540.125" y1="537.5625" y2="555.5625"/><line style="stroke: #A80036; stroke-width: 1.5;" x1="540.125" x2="763.3125" y1="555.5625" y2="555.5625"/><polygon fill="#A80036" points="753.3125,551.5625,763.3125,555.5625,753.3125,559.5625,757.3125,555.5625" style="stroke: #A80036; stroke-width: 1.0;"/><line style="stroke: #A80036; stroke-width: 1.5;" x1="990.5" x2="990.5" y1="229.2813" y2="555.5625"/><line style="stroke: #A80036; stroke-width: 1.5;" x1="990.5" x2="787.3125" y1="555.5625" y2="555.5625"/><polygon fill="#A80036" points="797.3125,551.5625,787.3125,555.5625,797.3125,559.5625,793.3125,555.5625" style="stroke: #A80036; stroke-width: 1.0;"/><line style="stroke: #A80036; stroke-width: 1.5;" x1="775.3125" x2="775.3125" y1="140.1875" y2="160.1875"/><polygon fill="#A80036" points="771.3125,150.1875,775.3125,160.1875,779.3125,150.1875,775.3125,154.1875" style="stroke: #A80036; stroke-width: 1.0;"/><line style="stroke: #A80036; stroke-width: 1.5;" x1="775.3125" x2="775.3125" y1="567.5625" y2="587.5625"/><polygon fill="#A80036" points="771.3125,577.5625,775.3125,587.5625,779.3125,577.5625,775.3125,581.5625" style="stroke: #A80036; stroke-width: 1.0;"/><!--MD5=[bfc9057e06996bac265286fb2a360afb]
@startuml
start
:User inputs command;
:Parse command;

if () then ([command arguments is valid])
    :Generate new nearby command;
    :Execute nearby command;
    if () then ([Flag given])
        if () then ([Flag is Return Order Flag])
        :Obtain all matching nearby orders in return order list;
        :Show all nearby orders for return order list;
        else ([Flag is Order Flag])
        :Obtain all matching nearby orders in order list;
        :Show all nearby orders for order list;
        endif
    else ([No flags given])
        :Obtain all matching nearby orders for all lists;
        :Show all nearby orders for all lists;
    endif
else ([else])
    :Parse exception generated;
endif

stop
@enduml

PlantUML version 1.2020.03beta6(Unknown compile time)
(GPL source distribution)
Java Runtime: OpenJDK Runtime Environment
JVM: OpenJDK 64-Bit Server VM
Java Version: 11.0.6+8-b520.43
Operating System: Windows 10
Default Encoding: Cp1252
Language: en
Country: SG
--></g></svg>
