<?xml version="1.0" encoding="UTF-8" standalone="no"?><svg xmlns="http://www.w3.org/2000/svg" xmlns:xlink="http://www.w3.org/1999/xlink" contentScriptType="application/ecmascript" contentStyleType="text/css" height="818.125px" preserveAspectRatio="none" style="width:1249px;height:818px;" version="1.1" viewBox="0 0 1249 818" width="1249.875px" zoomAndPan="magnify"><defs><filter height="300%" id="ffxcb474tzo9g" width="300%" x="-1" y="-1"><feGaussianBlur result="blurOut" stdDeviation="2.75"/><feColorMatrix in="blurOut" result="blurOut2" type="matrix" values="0 0 0 0 0 0 0 0 0 0 0 0 0 0 0 0 0 0 .4 0"/><feOffset dx="5.5" dy="5.5" in="blurOut2" result="blurOut3"/><feBlend in="SourceGraphic" in2="blurOut3" mode="normal"/></filter></defs><g><ellipse cx="799.3047" cy="27.5" fill="#000000" filter="url(#ffxcb474tzo9g)" rx="13.75" ry="13.75" style="stroke: none; stroke-width: 1.375;"/><rect fill="#FEFECE" filter="url(#ffxcb474tzo9g)" height="48.2539" rx="17.1875" ry="17.1875" style="stroke: #A80036; stroke-width: 2.0625;" width="298.375" x="650.1172" y="68.75"/><text fill="#000000" font-family="sans-serif" font-size="16.5" lengthAdjust="spacingAndGlyphs" textLength="270.875" x="663.8672" y="99.6284">User input keywords to be searched</text><rect fill="#FEFECE" filter="url(#ffxcb474tzo9g)" height="48.2539" rx="17.1875" ry="17.1875" style="stroke: #A80036; stroke-width: 2.0625;" width="114.125" x="742.2422" y="144.5039"/><text fill="#000000" font-family="sans-serif" font-size="16.5" lengthAdjust="spacingAndGlyphs" textLength="86.625" x="755.9922" y="175.3823">Parse input</text><polygon fill="#FEFECE" filter="url(#ffxcb474tzo9g)" points="799.3047,220.2578,799.3047,220.2578,815.8047,236.7578,799.3047,253.2578,799.3047,253.2578,782.8047,236.7578,799.3047,220.2578" style="stroke: #A80036; stroke-width: 2.0625;"/><text fill="#000000" font-family="sans-serif" font-size="15.125" lengthAdjust="spacingAndGlyphs" textLength="141.625" x="641.1797" y="233.4344">[valid command input]</text><text fill="#000000" font-family="sans-serif" font-size="15.125" lengthAdjust="spacingAndGlyphs" textLength="152.625" x="815.8047" y="233.4344">[invalid command input]</text><polygon fill="#FEFECE" filter="url(#ffxcb474tzo9g)" points="466.9844,267.0078,466.9844,267.0078,483.4844,283.5078,466.9844,300.0078,466.9844,300.0078,450.4844,283.5078,466.9844,267.0078" style="stroke: #A80036; stroke-width: 2.0625;"/><text fill="#000000" font-family="sans-serif" font-size="15.125" lengthAdjust="spacingAndGlyphs" textLength="88" x="362.4844" y="280.1844">[flag is given]</text><text fill="#000000" font-family="sans-serif" font-size="15.125" lengthAdjust="spacingAndGlyphs" textLength="112.75" x="483.4844" y="280.1844">[flag is not given]</text><polygon fill="#FEFECE" filter="url(#ffxcb474tzo9g)" points="220.6875,313.7578,220.6875,313.7578,237.1875,330.2578,220.6875,346.7578,220.6875,346.7578,204.1875,330.2578,220.6875,313.7578" style="stroke: #A80036; stroke-width: 2.0625;"/><text fill="#000000" font-family="sans-serif" font-size="15.125" lengthAdjust="spacingAndGlyphs" textLength="101.75" x="102.4375" y="326.9344">[prefix is given]</text><text fill="#000000" font-family="sans-serif" font-size="15.125" lengthAdjust="spacingAndGlyphs" textLength="126.5" x="237.1875" y="326.9344">[prefix is not given]</text><rect fill="#FEFECE" filter="url(#ffxcb474tzo9g)" height="110.5156" rx="17.1875" ry="17.1875" style="stroke: #A80036; stroke-width: 2.0625;" width="192.5" x="13.75" y="360.5078"/><text fill="#000000" font-family="sans-serif" font-size="16.5" lengthAdjust="spacingAndGlyphs" textLength="99" x="27.5" y="391.3862">Search for all</text><text fill="#000000" font-family="sans-serif" font-size="16.5" lengthAdjust="spacingAndGlyphs" textLength="165" x="27.5" y="412.1401">parcel of flag type with</text><text fill="#000000" font-family="sans-serif" font-size="16.5" lengthAdjust="spacingAndGlyphs" textLength="163.625" x="27.5" y="432.894">matching keywords in</text><text fill="#000000" font-family="sans-serif" font-size="16.5" lengthAdjust="spacingAndGlyphs" textLength="119.625" x="31.625" y="453.6479">given prefix field</text><rect fill="#FEFECE" filter="url(#ffxcb474tzo9g)" height="110.5156" rx="17.1875" ry="17.1875" style="stroke: #A80036; stroke-width: 2.0625;" width="195.25" x="233.75" y="360.5078"/><text fill="#000000" font-family="sans-serif" font-size="16.5" lengthAdjust="spacingAndGlyphs" textLength="167.75" x="247.5" y="391.3862">Search for all parcel of</text><text fill="#000000" font-family="sans-serif" font-size="16.5" lengthAdjust="spacingAndGlyphs" textLength="96.25" x="247.5" y="412.1401">flag type with</text><text fill="#000000" font-family="sans-serif" font-size="16.5" lengthAdjust="spacingAndGlyphs" textLength="163.625" x="251.625" y="432.894">matching keywords in</text><text fill="#000000" font-family="sans-serif" font-size="16.5" lengthAdjust="spacingAndGlyphs" textLength="105.875" x="251.625" y="453.6479">any prefix field</text><polygon fill="#FEFECE" filter="url(#ffxcb474tzo9g)" points="220.6875,479.2734,237.1875,495.7734,220.6875,512.2734,204.1875,495.7734,220.6875,479.2734" style="stroke: #A80036; stroke-width: 2.0625;"/><polygon fill="#FEFECE" filter="url(#ffxcb474tzo9g)" points="713.2813,313.7578,713.2813,313.7578,729.7813,330.2578,713.2813,346.7578,713.2813,346.7578,696.7813,330.2578,713.2813,313.7578" style="stroke: #A80036; stroke-width: 2.0625;"/><text fill="#000000" font-family="sans-serif" font-size="15.125" lengthAdjust="spacingAndGlyphs" textLength="101.75" x="595.0313" y="326.9344">[prefix is given]</text><text fill="#000000" font-family="sans-serif" font-size="15.125" lengthAdjust="spacingAndGlyphs" textLength="111.375" x="729.7813" y="326.9344">[prefix not given]</text><rect fill="#FEFECE" filter="url(#ffxcb474tzo9g)" height="89.7617" rx="17.1875" ry="17.1875" style="stroke: #A80036; stroke-width: 2.0625;" width="211.75" x="484" y="360.5078"/><text fill="#000000" font-family="sans-serif" font-size="16.5" lengthAdjust="spacingAndGlyphs" textLength="184.25" x="497.75" y="391.3862">Search for all parcel type</text><text fill="#000000" font-family="sans-serif" font-size="16.5" lengthAdjust="spacingAndGlyphs" textLength="180.125" x="501.875" y="412.1401">with matching keywords</text><text fill="#000000" font-family="sans-serif" font-size="16.5" lengthAdjust="spacingAndGlyphs" textLength="137.5" x="501.875" y="432.894">in given prefix field</text><rect fill="#FEFECE" filter="url(#ffxcb474tzo9g)" height="89.7617" rx="17.1875" ry="17.1875" style="stroke: #A80036; stroke-width: 2.0625;" width="226.875" x="723.25" y="360.5078"/><text fill="#000000" font-family="sans-serif" font-size="16.5" lengthAdjust="spacingAndGlyphs" textLength="149.875" x="737" y="391.3862">Search for all parcel</text><text fill="#000000" font-family="sans-serif" font-size="16.5" lengthAdjust="spacingAndGlyphs" textLength="138.875" x="737" y="412.1401">type with matching</text><text fill="#000000" font-family="sans-serif" font-size="16.5" lengthAdjust="spacingAndGlyphs" textLength="199.375" x="737" y="432.894">keywords in any prefix field</text><polygon fill="#FEFECE" filter="url(#ffxcb474tzo9g)" points="713.2813,458.5195,729.7813,475.0195,713.2813,491.5195,696.7813,475.0195,713.2813,458.5195" style="stroke: #A80036; stroke-width: 2.0625;"/><polygon fill="#FEFECE" filter="url(#ffxcb474tzo9g)" points="466.9844,520.5234,483.4844,537.0234,466.9844,553.5234,450.4844,537.0234,466.9844,520.5234" style="stroke: #A80036; stroke-width: 2.0625;"/><rect fill="#FEFECE" filter="url(#ffxcb474tzo9g)" height="48.2539" rx="17.1875" ry="17.1875" style="stroke: #A80036; stroke-width: 2.0625;" width="250.25" x="341.8594" y="581.0234"/><text fill="#000000" font-family="sans-serif" font-size="16.5" lengthAdjust="spacingAndGlyphs" textLength="222.75" x="355.6094" y="611.9019">Update list with parcels found</text><rect fill="#FEFECE" filter="url(#ffxcb474tzo9g)" height="48.2539" rx="17.1875" ry="17.1875" style="stroke: #A80036; stroke-width: 2.0625;" width="253" x="982.1797" y="267.0078"/><text fill="#000000" font-family="sans-serif" font-size="16.5" lengthAdjust="spacingAndGlyphs" textLength="225.5" x="995.9297" y="297.8862">Throw parsing error message</text><polygon fill="#FEFECE" filter="url(#ffxcb474tzo9g)" points="799.3047,637.5273,815.8047,654.0273,799.3047,670.5273,782.8047,654.0273,799.3047,637.5273" style="stroke: #A80036; stroke-width: 2.0625;"/><rect fill="#FEFECE" filter="url(#ffxcb474tzo9g)" height="48.2539" rx="17.1875" ry="17.1875" style="stroke: #A80036; stroke-width: 2.0625;" width="187" x="705.8047" y="698.0273"/><text fill="#000000" font-family="sans-serif" font-size="16.5" lengthAdjust="spacingAndGlyphs" textLength="159.5" x="719.5547" y="728.9058">Display result to user</text><ellipse cx="799.3047" cy="788.9063" fill="#FFFFFF" filter="url(#ffxcb474tzo9g)" rx="15.125" ry="15.125" style="stroke: #000000; stroke-width: 1.375;"/><ellipse cx="799.3047" cy="788.9063" fill="#000000" rx="8.25" ry="8.25" style="stroke: #7F7F7F; stroke-width: 1.375;"/><line style="stroke: #A80036; stroke-width: 2.0625;" x1="799.3047" x2="799.3047" y1="41.25" y2="68.75"/><polygon fill="#A80036" points="793.8047,55,799.3047,68.75,804.8047,55,799.3047,60.5" style="stroke: #A80036; stroke-width: 1.375;"/><line style="stroke: #A80036; stroke-width: 2.0625;" x1="799.3047" x2="799.3047" y1="117.0039" y2="144.5039"/><polygon fill="#A80036" points="793.8047,130.7539,799.3047,144.5039,804.8047,130.7539,799.3047,136.2539" style="stroke: #A80036; stroke-width: 1.375;"/><line style="stroke: #A80036; stroke-width: 2.0625;" x1="204.1875" x2="110" y1="330.2578" y2="330.2578"/><line style="stroke: #A80036; stroke-width: 2.0625;" x1="110" x2="110" y1="330.2578" y2="360.5078"/><polygon fill="#A80036" points="104.5,346.7578,110,360.5078,115.5,346.7578,110,352.2578" style="stroke: #A80036; stroke-width: 1.375;"/><line style="stroke: #A80036; stroke-width: 2.0625;" x1="237.1875" x2="331.375" y1="330.2578" y2="330.2578"/><line style="stroke: #A80036; stroke-width: 2.0625;" x1="331.375" x2="331.375" y1="330.2578" y2="360.5078"/><polygon fill="#A80036" points="325.875,346.7578,331.375,360.5078,336.875,346.7578,331.375,352.2578" style="stroke: #A80036; stroke-width: 1.375;"/><line style="stroke: #A80036; stroke-width: 2.0625;" x1="110" x2="110" y1="471.0234" y2="495.7734"/><line style="stroke: #A80036; stroke-width: 2.0625;" x1="110" x2="204.1875" y1="495.7734" y2="495.7734"/><polygon fill="#A80036" points="190.4375,490.2734,204.1875,495.7734,190.4375,501.2734,195.9375,495.7734" style="stroke: #A80036; stroke-width: 1.375;"/><line style="stroke: #A80036; stroke-width: 2.0625;" x1="331.375" x2="331.375" y1="471.0234" y2="495.7734"/><line style="stroke: #A80036; stroke-width: 2.0625;" x1="331.375" x2="237.1875" y1="495.7734" y2="495.7734"/><polygon fill="#A80036" points="250.9375,490.2734,237.1875,495.7734,250.9375,501.2734,245.4375,495.7734" style="stroke: #A80036; stroke-width: 1.375;"/><line style="stroke: #A80036; stroke-width: 2.0625;" x1="696.7813" x2="589.875" y1="330.2578" y2="330.2578"/><line style="stroke: #A80036; stroke-width: 2.0625;" x1="589.875" x2="589.875" y1="330.2578" y2="360.5078"/><polygon fill="#A80036" points="584.375,346.7578,589.875,360.5078,595.375,346.7578,589.875,352.2578" style="stroke: #A80036; stroke-width: 1.375;"/><line style="stroke: #A80036; stroke-width: 2.0625;" x1="729.7813" x2="836.6875" y1="330.2578" y2="330.2578"/><line style="stroke: #A80036; stroke-width: 2.0625;" x1="836.6875" x2="836.6875" y1="330.2578" y2="360.5078"/><polygon fill="#A80036" points="831.1875,346.7578,836.6875,360.5078,842.1875,346.7578,836.6875,352.2578" style="stroke: #A80036; stroke-width: 1.375;"/><line style="stroke: #A80036; stroke-width: 2.0625;" x1="589.875" x2="589.875" y1="450.2695" y2="475.0195"/><line style="stroke: #A80036; stroke-width: 2.0625;" x1="589.875" x2="696.7813" y1="475.0195" y2="475.0195"/><polygon fill="#A80036" points="683.0313,469.5195,696.7813,475.0195,683.0313,480.5195,688.5313,475.0195" style="stroke: #A80036; stroke-width: 1.375;"/><line style="stroke: #A80036; stroke-width: 2.0625;" x1="836.6875" x2="836.6875" y1="450.2695" y2="475.0195"/><line style="stroke: #A80036; stroke-width: 2.0625;" x1="836.6875" x2="729.7813" y1="475.0195" y2="475.0195"/><polygon fill="#A80036" points="743.5313,469.5195,729.7813,475.0195,743.5313,480.5195,738.0313,475.0195" style="stroke: #A80036; stroke-width: 1.375;"/><line style="stroke: #A80036; stroke-width: 2.0625;" x1="450.4844" x2="220.6875" y1="283.5078" y2="283.5078"/><line style="stroke: #A80036; stroke-width: 2.0625;" x1="220.6875" x2="220.6875" y1="283.5078" y2="313.7578"/><polygon fill="#A80036" points="215.1875,300.0078,220.6875,313.7578,226.1875,300.0078,220.6875,305.5078" style="stroke: #A80036; stroke-width: 1.375;"/><line style="stroke: #A80036; stroke-width: 2.0625;" x1="483.4844" x2="713.2813" y1="283.5078" y2="283.5078"/><line style="stroke: #A80036; stroke-width: 2.0625;" x1="713.2813" x2="713.2813" y1="283.5078" y2="313.7578"/><polygon fill="#A80036" points="707.7813,300.0078,713.2813,313.7578,718.7813,300.0078,713.2813,305.5078" style="stroke: #A80036; stroke-width: 1.375;"/><line style="stroke: #A80036; stroke-width: 2.0625;" x1="220.6875" x2="220.6875" y1="512.2734" y2="537.0234"/><line style="stroke: #A80036; stroke-width: 2.0625;" x1="220.6875" x2="450.4844" y1="537.0234" y2="537.0234"/><polygon fill="#A80036" points="436.7344,531.5234,450.4844,537.0234,436.7344,542.5234,442.2344,537.0234" style="stroke: #A80036; stroke-width: 1.375;"/><line style="stroke: #A80036; stroke-width: 2.0625;" x1="713.2813" x2="713.2813" y1="491.5195" y2="537.0234"/><line style="stroke: #A80036; stroke-width: 2.0625;" x1="713.2813" x2="483.4844" y1="537.0234" y2="537.0234"/><polygon fill="#A80036" points="497.2344,531.5234,483.4844,537.0234,497.2344,542.5234,491.7344,537.0234" style="stroke: #A80036; stroke-width: 1.375;"/><line style="stroke: #A80036; stroke-width: 2.0625;" x1="466.9844" x2="466.9844" y1="553.5234" y2="581.0234"/><polygon fill="#A80036" points="461.4844,567.2734,466.9844,581.0234,472.4844,567.2734,466.9844,572.7734" style="stroke: #A80036; stroke-width: 1.375;"/><line style="stroke: #A80036; stroke-width: 2.0625;" x1="782.8047" x2="466.9844" y1="236.7578" y2="236.7578"/><line style="stroke: #A80036; stroke-width: 2.0625;" x1="466.9844" x2="466.9844" y1="236.7578" y2="267.0078"/><polygon fill="#A80036" points="461.4844,253.2578,466.9844,267.0078,472.4844,253.2578,466.9844,258.7578" style="stroke: #A80036; stroke-width: 1.375;"/><line style="stroke: #A80036; stroke-width: 2.0625;" x1="815.8047" x2="1108.6797" y1="236.7578" y2="236.7578"/><line style="stroke: #A80036; stroke-width: 2.0625;" x1="1108.6797" x2="1108.6797" y1="236.7578" y2="267.0078"/><polygon fill="#A80036" points="1103.1797,253.2578,1108.6797,267.0078,1114.1797,253.2578,1108.6797,258.7578" style="stroke: #A80036; stroke-width: 1.375;"/><line style="stroke: #A80036; stroke-width: 2.0625;" x1="466.9844" x2="466.9844" y1="629.2773" y2="654.0273"/><line style="stroke: #A80036; stroke-width: 2.0625;" x1="466.9844" x2="782.8047" y1="654.0273" y2="654.0273"/><polygon fill="#A80036" points="769.0547,648.5273,782.8047,654.0273,769.0547,659.5273,774.5547,654.0273" style="stroke: #A80036; stroke-width: 1.375;"/><line style="stroke: #A80036; stroke-width: 2.0625;" x1="1108.6797" x2="1108.6797" y1="315.2617" y2="654.0273"/><line style="stroke: #A80036; stroke-width: 2.0625;" x1="1108.6797" x2="815.8047" y1="654.0273" y2="654.0273"/><polygon fill="#A80036" points="829.5547,648.5273,815.8047,654.0273,829.5547,659.5273,824.0547,654.0273" style="stroke: #A80036; stroke-width: 1.375;"/><line style="stroke: #A80036; stroke-width: 2.0625;" x1="799.3047" x2="799.3047" y1="192.7578" y2="220.2578"/><polygon fill="#A80036" points="793.8047,206.5078,799.3047,220.2578,804.8047,206.5078,799.3047,212.0078" style="stroke: #A80036; stroke-width: 1.375;"/><line style="stroke: #A80036; stroke-width: 2.0625;" x1="799.3047" x2="799.3047" y1="670.5273" y2="698.0273"/><polygon fill="#A80036" points="793.8047,684.2773,799.3047,698.0273,804.8047,684.2773,799.3047,689.7773" style="stroke: #A80036; stroke-width: 1.375;"/><line style="stroke: #A80036; stroke-width: 2.0625;" x1="799.3047" x2="799.3047" y1="746.2813" y2="773.7813"/><polygon fill="#A80036" points="793.8047,760.0313,799.3047,773.7813,804.8047,760.0313,799.3047,765.5313" style="stroke: #A80036; stroke-width: 1.375;"/><!--MD5=[ddabcbd405c8dad4c8e850aad96d871c]
@startuml
start
:User input keywords to be searched;
:Parse input;
if () then ([valid command input])
If () then ([flag is given])
    If () then ([prefix is given])
        :Search for all
        parcel of flag type with
        matching keywords in
         given prefix field;
    else ([prefix is not given])
        :Search for all parcel of
        flag type with
         matching keywords in
         any prefix field;
    endif
else ([flag is not given])
    if () then ([prefix is given])
        :Search for all parcel type
         with matching keywords
         in given prefix field;
    else ([prefix not given])
    :Search for all parcel
    type with matching
    keywords in any prefix field;
    endif
endif
    :Update list with parcels found;
else ([invalid command input])
    :Throw parsing error message;
endif
:Display result to user;
stop
@enduml

PlantUML version 1.2020.03beta6(Unknown compile time)
(GPL source distribution)
Java Runtime: OpenJDK Runtime Environment
JVM: OpenJDK 64-Bit Server VM
Java Version: 11.0.5+10-b520.30
Operating System: Windows 10
Default Encoding: UTF-8
Language: en
Country: US
--></g></svg>
