<?xml version="1.0" encoding="UTF-8" standalone="no"?><svg xmlns="http://www.w3.org/2000/svg" xmlns:xlink="http://www.w3.org/1999/xlink" contentScriptType="application/ecmascript" contentStyleType="text/css" height="955px" preserveAspectRatio="none" style="width:502px;height:955px;" version="1.1" viewBox="0 0 502 955" width="502.5px" zoomAndPan="magnify"><defs><filter height="300%" id="f1lpspk7asvllu" width="300%" x="-1" y="-1"><feGaussianBlur result="blurOut" stdDeviation="2.5"/><feColorMatrix in="blurOut" result="blurOut2" type="matrix" values="0 0 0 0 0 0 0 0 0 0 0 0 0 0 0 0 0 0 .4 0"/><feOffset dx="5.0" dy="5.0" in="blurOut2" result="blurOut3"/><feBlend in="SourceGraphic" in2="blurOut3" mode="normal"/></filter></defs><g><!--MD5=[ca918df43de0474efe04a81a6298f054]
class OrderContainsKeywordsPredicate--><rect fill="#FEFECE" filter="url(#f1lpspk7asvllu)" height="146.4746" id="OrderContainsKeywordsPredicate" style="stroke: #A80036; stroke-width: 1.875;" width="317.5" x="122.5" y="383.75"/><ellipse cx="141.25" cy="403.75" fill="#ADD1B2" rx="13.75" ry="13.75" style="stroke: #A80036; stroke-width: 1.25;"/><path d="M143.75,399.375 Q144.0039,398.75 144.2969,398.4375 Q144.5898,398.125 144.9219,398.125 Q145.5078,398.125 145.8789,398.4766 Q146.25,398.8281 146.25,399.6484 L146.25,401.6016 Q146.25,402.4219 145.8984,402.7734 Q145.5469,403.125 145,403.125 Q144.5117,403.125 144.1992,402.9102 Q143.8867,402.6953 143.75,402.1289 Q143.6914,401.7383 143.4766,401.5234 Q143.0859,401.1133 142.3828,400.8789 Q141.6797,400.625 140.9766,400.625 Q140.0977,400.625 139.3555,400.9766 Q138.6328,401.3281 138.0664,402.1094 Q137.5,402.8906 137.5,403.9648 L137.5,405.1172 Q137.5,406.4063 138.5547,407.2656 Q139.6094,408.125 141.4844,408.125 Q142.5977,408.125 143.3789,407.8711 Q143.8281,407.7344 144.3359,407.2852 Q144.668,407.0313 144.8438,406.9531 Q145.0195,406.875 145.2344,406.875 Q145.6445,406.875 145.9375,407.207 Q146.25,407.5195 146.25,407.9688 Q146.25,408.3984 145.8203,408.9063 Q145.1953,409.6484 144.1992,410.0586 Q142.8906,410.625 141.2891,410.625 Q139.4141,410.625 137.9102,409.8828 Q136.6992,409.2969 135.8398,408.0273 Q135,406.7578 135,405.2539 L135,403.8867 Q135,402.3242 135.7422,400.957 Q136.5039,399.5898 137.8125,398.8672 Q139.1406,398.125 140.625,398.125 Q141.5234,398.125 142.3047,398.4375 Q143.0859,398.75 143.75,399.375 Z "/><text fill="#000000" font-family="sans-serif" font-size="15" lengthAdjust="spacingAndGlyphs" textLength="233.75" x="158.75" y="409.8877">OrderContainsKeywordsPredicate</text><rect fill="#FFFFFF" height="21.3672" style="stroke: #000000; stroke-width: 1.25; stroke-dasharray: 2.0,2.0;" width="41.25" x="402.5" y="380"/><text fill="#000000" font-family="sans-serif" font-size="15" font-style="italic" lengthAdjust="spacingAndGlyphs" textLength="38.75" x="403.75" y="396.8213">Order</text><line style="stroke: #A80036; stroke-width: 1.875;" x1="123.75" x2="438.75" y1="423.75" y2="423.75"/><rect fill="none" height="7.5" style="stroke: #C82930; stroke-width: 1.25;" width="7.5" x="132.5" y="433.75"/><text fill="#000000" font-family="sans-serif" font-size="13.75" lengthAdjust="spacingAndGlyphs" textLength="143.75" x="147.5" y="443.0237">keywords : List&lt;String&gt;</text><rect fill="none" height="7.5" style="stroke: #C82930; stroke-width: 1.25;" width="7.5" x="132.5" y="451.0449"/><text fill="#000000" font-family="sans-serif" font-size="13.75" lengthAdjust="spacingAndGlyphs" textLength="228.75" x="147.5" y="460.3186">argumentMultimap : ArgumentMultimap</text><rect fill="none" height="7.5" style="stroke: #C82930; stroke-width: 1.25;" width="7.5" x="132.5" y="468.3398"/><text fill="#000000" font-family="sans-serif" font-size="13.75" lengthAdjust="spacingAndGlyphs" textLength="160" x="147.5" y="477.6135">isGeneralSearch : boolean</text><line style="stroke: #A80036; stroke-width: 1.875;" x1="123.75" x2="438.75" y1="485.6348" y2="485.6348"/><ellipse cx="136.25" cy="499.3848" fill="#84BE84" rx="3.75" ry="3.75" style="stroke: #038048; stroke-width: 1.25;"/><text fill="#000000" font-family="sans-serif" font-size="13.75" lengthAdjust="spacingAndGlyphs" textLength="170" x="147.5" y="504.9084">test(order : Order) : boolean</text><ellipse cx="136.25" cy="516.6797" fill="#84BE84" rx="3.75" ry="3.75" style="stroke: #038048; stroke-width: 1.25;"/><text fill="#000000" font-family="sans-serif" font-size="13.75" lengthAdjust="spacingAndGlyphs" textLength="190" x="147.5" y="522.2034">equals(other : Object) : boolean</text><!--MD5=[219f3ac85648aee436ae9305d11a5044]
class ArgumentMultimap--><rect fill="#FEFECE" filter="url(#f1lpspk7asvllu)" height="336.7188" id="ArgumentMultimap" style="stroke: #A80036; stroke-width: 1.875;" width="287.5" x="7.5" y="605"/><ellipse cx="81.5625" cy="625" fill="#ADD1B2" rx="13.75" ry="13.75" style="stroke: #A80036; stroke-width: 1.25;"/><path d="M84.0625,620.625 Q84.3164,620 84.6094,619.6875 Q84.9023,619.375 85.2344,619.375 Q85.8203,619.375 86.1914,619.7266 Q86.5625,620.0781 86.5625,620.8984 L86.5625,622.8516 Q86.5625,623.6719 86.2109,624.0234 Q85.8594,624.375 85.3125,624.375 Q84.8242,624.375 84.5117,624.1602 Q84.1992,623.9453 84.0625,623.3789 Q84.0039,622.9883 83.7891,622.7734 Q83.3984,622.3633 82.6953,622.1289 Q81.9922,621.875 81.2891,621.875 Q80.4102,621.875 79.668,622.2266 Q78.9453,622.5781 78.3789,623.3594 Q77.8125,624.1406 77.8125,625.2148 L77.8125,626.3672 Q77.8125,627.6563 78.8672,628.5156 Q79.9219,629.375 81.7969,629.375 Q82.9102,629.375 83.6914,629.1211 Q84.1406,628.9844 84.6484,628.5352 Q84.9805,628.2813 85.1563,628.2031 Q85.332,628.125 85.5469,628.125 Q85.957,628.125 86.25,628.457 Q86.5625,628.7695 86.5625,629.2188 Q86.5625,629.6484 86.1328,630.1563 Q85.5078,630.8984 84.5117,631.3086 Q83.2031,631.875 81.6016,631.875 Q79.7266,631.875 78.2227,631.1328 Q77.0117,630.5469 76.1523,629.2773 Q75.3125,628.0078 75.3125,626.5039 L75.3125,625.1367 Q75.3125,623.5742 76.0547,622.207 Q76.8164,620.8398 78.125,620.1172 Q79.4531,619.375 80.9375,619.375 Q81.8359,619.375 82.6172,619.6875 Q83.3984,620 84.0625,620.625 Z "/><text fill="#000000" font-family="sans-serif" font-size="15" lengthAdjust="spacingAndGlyphs" textLength="128.75" x="107.1875" y="631.1377">ArgumentMultimap</text><line style="stroke: #A80036; stroke-width: 1.875;" x1="8.75" x2="293.75" y1="645" y2="645"/><rect fill="none" height="7.5" style="stroke: #C82930; stroke-width: 1.25;" width="7.5" x="17.5" y="655"/><text fill="#000000" font-family="sans-serif" font-size="13.75" lengthAdjust="spacingAndGlyphs" textLength="236.25" x="32.5" y="664.2737">argMultimap : Map&lt;Prefix, List&lt;String&gt;&gt;</text><line style="stroke: #A80036; stroke-width: 1.875;" x1="8.75" x2="293.75" y1="672.2949" y2="672.2949"/><ellipse cx="21.25" cy="686.0449" fill="#84BE84" rx="3.75" ry="3.75" style="stroke: #038048; stroke-width: 1.25;"/><text fill="#000000" font-family="sans-serif" font-size="13.75" lengthAdjust="spacingAndGlyphs" textLength="255" x="32.5" y="691.5686">put(prefix : Prefix, argValue : String) : void</text><ellipse cx="21.25" cy="703.3398" fill="#84BE84" rx="3.75" ry="3.75" style="stroke: #038048; stroke-width: 1.25;"/><text fill="#000000" font-family="sans-serif" font-size="13.75" lengthAdjust="spacingAndGlyphs" textLength="255" x="32.5" y="708.8635">getValue(prefix : Prefix) : Optional&lt;String&gt;</text><ellipse cx="21.25" cy="720.6348" fill="#84BE84" rx="3.75" ry="3.75" style="stroke: #038048; stroke-width: 1.25;"/><text fill="#000000" font-family="sans-serif" font-size="13.75" lengthAdjust="spacingAndGlyphs" textLength="250" x="32.5" y="726.1584">getAllValues(prefix : Prefix) : List&lt;String&gt;</text><ellipse cx="21.25" cy="737.9297" fill="#84BE84" rx="3.75" ry="3.75" style="stroke: #038048; stroke-width: 1.25;"/><text fill="#000000" font-family="sans-serif" font-size="13.75" lengthAdjust="spacingAndGlyphs" textLength="130" x="32.5" y="743.4534">getPreamble() : String</text><ellipse cx="21.25" cy="755.2246" fill="#84BE84" rx="3.75" ry="3.75" style="stroke: #038048; stroke-width: 1.25;"/><text fill="#000000" font-family="sans-serif" font-size="13.75" lengthAdjust="spacingAndGlyphs" textLength="203.75" x="32.5" y="760.7483">getAllPrefixValues() : List&lt;String&gt;</text><ellipse cx="21.25" cy="772.5195" fill="#84BE84" rx="3.75" ry="3.75" style="stroke: #038048; stroke-width: 1.25;"/><text fill="#000000" font-family="sans-serif" font-size="13.75" lengthAdjust="spacingAndGlyphs" textLength="128.75" x="32.5" y="778.0432">getHasTid() : boolean</text><ellipse cx="21.25" cy="789.8145" fill="#84BE84" rx="3.75" ry="3.75" style="stroke: #038048; stroke-width: 1.25;"/><text fill="#000000" font-family="sans-serif" font-size="13.75" lengthAdjust="spacingAndGlyphs" textLength="145" x="32.5" y="795.3381">getHasName() : boolean</text><ellipse cx="21.25" cy="807.1094" fill="#84BE84" rx="3.75" ry="3.75" style="stroke: #038048; stroke-width: 1.25;"/><text fill="#000000" font-family="sans-serif" font-size="13.75" lengthAdjust="spacingAndGlyphs" textLength="148.75" x="32.5" y="812.6331">getHasPhone() : boolean</text><ellipse cx="21.25" cy="824.4043" fill="#84BE84" rx="3.75" ry="3.75" style="stroke: #038048; stroke-width: 1.25;"/><text fill="#000000" font-family="sans-serif" font-size="13.75" lengthAdjust="spacingAndGlyphs" textLength="163.75" x="32.5" y="829.928">getHasAddress() : boolean</text><ellipse cx="21.25" cy="841.6992" fill="#84BE84" rx="3.75" ry="3.75" style="stroke: #038048; stroke-width: 1.25;"/><text fill="#000000" font-family="sans-serif" font-size="13.75" lengthAdjust="spacingAndGlyphs" textLength="176.25" x="32.5" y="847.2229">getHasTimeStamp() : boolean</text><ellipse cx="21.25" cy="858.9941" fill="#84BE84" rx="3.75" ry="3.75" style="stroke: #038048; stroke-width: 1.25;"/><text fill="#000000" font-family="sans-serif" font-size="13.75" lengthAdjust="spacingAndGlyphs" textLength="181.25" x="32.5" y="864.5178">getHasWarehouse() : boolean</text><ellipse cx="21.25" cy="876.2891" fill="#84BE84" rx="3.75" ry="3.75" style="stroke: #038048; stroke-width: 1.25;"/><text fill="#000000" font-family="sans-serif" font-size="13.75" lengthAdjust="spacingAndGlyphs" textLength="135" x="32.5" y="881.8127">getHasCod() : boolean</text><ellipse cx="21.25" cy="893.584" fill="#84BE84" rx="3.75" ry="3.75" style="stroke: #038048; stroke-width: 1.25;"/><text fill="#000000" font-family="sans-serif" font-size="13.75" lengthAdjust="spacingAndGlyphs" textLength="166.25" x="32.5" y="899.1077">getHasComment() : boolean</text><ellipse cx="21.25" cy="910.8789" fill="#84BE84" rx="3.75" ry="3.75" style="stroke: #038048; stroke-width: 1.25;"/><text fill="#000000" font-family="sans-serif" font-size="13.75" lengthAdjust="spacingAndGlyphs" textLength="165" x="32.5" y="916.4026">getHasItemType() : boolean</text><ellipse cx="21.25" cy="928.1738" fill="#84BE84" rx="3.75" ry="3.75" style="stroke: #038048; stroke-width: 1.25;"/><text fill="#000000" font-family="sans-serif" font-size="13.75" lengthAdjust="spacingAndGlyphs" textLength="141.25" x="32.5" y="933.6975">getHasEmail() : boolean</text><!--MD5=[521817ab83e81da341a3f4b5e91bae41]
class Command--><rect fill="#FEFECE" filter="url(#f1lpspk7asvllu)" height="77.2949" id="Command" style="stroke: #A80036; stroke-width: 1.875;" width="266.25" x="148.125" y="10"/><ellipse cx="239.0625" cy="30" fill="#A9DCDF" rx="13.75" ry="13.75" style="stroke: #A80036; stroke-width: 1.25;"/><path d="M241.25,31.875 L237.1289,31.875 L236.582,33.125 L236.582,33.125 L237.168,33.125 L237.8125,33.9063 L237.8125,34.375 L237.8125,34.8438 L237.168,35.625 L236.582,35.625 L234.2188,35.625 L233.457,35.625 L232.8125,34.8438 L232.8125,34.375 L232.8125,33.9063 L233.457,33.125 L234.2188,33.125 L237.1094,25.625 L236.0156,25.625 L234.707,25.625 L234.0625,24.8438 L234.0625,24.375 L234.0625,23.9063 L234.707,23.125 L236.0156,23.125 L240.6055,23.125 L243.9648,33.125 L244.668,33.125 L244.668,33.125 L245.3125,33.9063 L245.3125,34.375 L245.3125,34.8438 L244.668,35.625 L243.9648,35.625 L241.6016,35.625 L240.957,35.625 L240.3125,34.8438 L240.3125,34.375 L240.3125,33.9063 L240.957,33.125 L241.6016,33.125 L241.6016,33.125 L241.25,31.875 Z M240.5664,29.375 L239.0625,24.9023 L237.7734,29.375 L240.5664,29.375 Z "/><text fill="#000000" font-family="sans-serif" font-size="15" font-style="italic" lengthAdjust="spacingAndGlyphs" textLength="73.75" x="264.6875" y="36.1377">Command</text><line style="stroke: #A80036; stroke-width: 1.875;" x1="149.375" x2="413.125" y1="50" y2="50"/><line style="stroke: #A80036; stroke-width: 1.875;" x1="149.375" x2="413.125" y1="60" y2="60"/><text fill="#000000" font-family="sans-serif" font-size="13.75" font-style="italic" lengthAdjust="spacingAndGlyphs" textLength="251.25" x="155.625" y="79.2737">execute(Model model) : CommandResult</text><!--MD5=[6af536f0137110c462023bd8f7f1c95d]
class SearchCommand--><rect fill="#FEFECE" filter="url(#f1lpspk7asvllu)" height="146.4746" id="SearchCommand" style="stroke: #A80036; stroke-width: 1.875;" width="307.5" x="127.5" y="162.5"/><ellipse cx="214.6875" cy="182.5" fill="#ADD1B2" rx="13.75" ry="13.75" style="stroke: #A80036; stroke-width: 1.25;"/><path d="M217.1875,178.125 Q217.4414,177.5 217.7344,177.1875 Q218.0273,176.875 218.3594,176.875 Q218.9453,176.875 219.3164,177.2266 Q219.6875,177.5781 219.6875,178.3984 L219.6875,180.3516 Q219.6875,181.1719 219.3359,181.5234 Q218.9844,181.875 218.4375,181.875 Q217.9492,181.875 217.6367,181.6602 Q217.3242,181.4453 217.1875,180.8789 Q217.1289,180.4883 216.9141,180.2734 Q216.5234,179.8633 215.8203,179.6289 Q215.1172,179.375 214.4141,179.375 Q213.5352,179.375 212.793,179.7266 Q212.0703,180.0781 211.5039,180.8594 Q210.9375,181.6406 210.9375,182.7148 L210.9375,183.8672 Q210.9375,185.1563 211.9922,186.0156 Q213.0469,186.875 214.9219,186.875 Q216.0352,186.875 216.8164,186.6211 Q217.2656,186.4844 217.7734,186.0352 Q218.1055,185.7813 218.2813,185.7031 Q218.457,185.625 218.6719,185.625 Q219.082,185.625 219.375,185.957 Q219.6875,186.2695 219.6875,186.7188 Q219.6875,187.1484 219.2578,187.6563 Q218.6328,188.3984 217.6367,188.8086 Q216.3281,189.375 214.7266,189.375 Q212.8516,189.375 211.3477,188.6328 Q210.1367,188.0469 209.2773,186.7773 Q208.4375,185.5078 208.4375,184.0039 L208.4375,182.6367 Q208.4375,181.0742 209.1797,179.707 Q209.9414,178.3398 211.25,177.6172 Q212.5781,176.875 214.0625,176.875 Q214.9609,176.875 215.7422,177.1875 Q216.5234,177.5 217.1875,178.125 Z "/><text fill="#000000" font-family="sans-serif" font-size="15" lengthAdjust="spacingAndGlyphs" textLength="122.5" x="240.3125" y="188.6377">SearchCommand</text><line style="stroke: #A80036; stroke-width: 1.875;" x1="128.75" x2="433.75" y1="202.5" y2="202.5"/><ellipse cx="141.25" cy="216.25" fill="none" rx="3.75" ry="3.75" style="stroke: #038048; stroke-width: 1.25;"/><text fill="#000000" font-family="sans-serif" font-size="13.75" lengthAdjust="spacingAndGlyphs" textLength="151.25" x="152.5" y="221.7737">COMMON_WORD : String</text><ellipse cx="141.25" cy="233.5449" fill="none" rx="3.75" ry="3.75" style="stroke: #038048; stroke-width: 1.25;"/><text fill="#000000" font-family="sans-serif" font-size="13.75" lengthAdjust="spacingAndGlyphs" textLength="161.25" x="152.5" y="239.0686">MESSAGE_USAGE : String</text><rect fill="none" height="7.5" style="stroke: #C82930; stroke-width: 1.25;" width="7.5" x="137.5" y="247.0898"/><text fill="#000000" font-family="sans-serif" font-size="13.75" lengthAdjust="spacingAndGlyphs" textLength="275" x="152.5" y="256.3635">predicate : OrderContainsKeywordsPredicate</text><line style="stroke: #A80036; stroke-width: 1.875;" x1="128.75" x2="433.75" y1="264.3848" y2="264.3848"/><ellipse cx="141.25" cy="278.1348" fill="#84BE84" rx="3.75" ry="3.75" style="stroke: #038048; stroke-width: 1.25;"/><text fill="#000000" font-family="sans-serif" font-size="13.75" lengthAdjust="spacingAndGlyphs" textLength="247.5" x="152.5" y="283.6584">execute(model : Model) : CommandResult</text><ellipse cx="141.25" cy="295.4297" fill="#84BE84" rx="3.75" ry="3.75" style="stroke: #038048; stroke-width: 1.25;"/><text fill="#000000" font-family="sans-serif" font-size="13.75" lengthAdjust="spacingAndGlyphs" textLength="190" x="152.5" y="300.9534">equals(other : Object) : boolean</text><!--MD5=[e6dc55dd324d6a8c189f3ada02b144fc]
class Predicate--><rect fill="#FEFECE" filter="url(#f1lpspk7asvllu)" height="77.2949" id="Predicate" style="stroke: #A80036; stroke-width: 1.875;" width="146.25" x="339.375" y="734.375"/><ellipse cx="370.5" cy="754.375" fill="#B4A7E5" rx="13.75" ry="13.75" style="stroke: #A80036; stroke-width: 1.25;"/><path d="M371.75,750.625 L371.75,758.125 L374.25,758.125 L374.8555,758.125 L375.5,758.9063 L375.5,759.375 L375.5,759.8438 L374.8555,760.625 L374.25,760.625 L366.75,760.625 L366.1445,760.625 L365.5,759.8438 L365.5,759.375 L365.5,758.9063 L366.1445,758.125 L366.75,758.125 L369.25,758.125 L369.25,750.625 L366.75,750.625 L366.1445,750.625 L365.5,749.8438 L365.5,749.375 L365.5,748.9063 L366.1445,748.125 L366.75,748.125 L374.25,748.125 L374.8555,748.125 L375.5,748.9063 L375.5,749.375 L375.5,749.8438 L374.8555,750.625 L374.25,750.625 L371.75,750.625 Z "/><text fill="#000000" font-family="sans-serif" font-size="15" font-style="italic" lengthAdjust="spacingAndGlyphs" textLength="65" x="390.75" y="760.5127">Predicate</text><rect fill="#FFFFFF" height="21.3672" style="stroke: #000000; stroke-width: 1.25; stroke-dasharray: 2.0,2.0;" width="11.25" x="478.125" y="730.625"/><text fill="#000000" font-family="sans-serif" font-size="15" font-style="italic" lengthAdjust="spacingAndGlyphs" textLength="8.75" x="479.375" y="747.4463">T</text><line style="stroke: #A80036; stroke-width: 1.875;" x1="340.625" x2="484.375" y1="774.375" y2="774.375"/><line style="stroke: #A80036; stroke-width: 1.875;" x1="340.625" x2="484.375" y1="784.375" y2="784.375"/><ellipse cx="353.125" cy="798.125" fill="#84BE84" rx="3.75" ry="3.75" style="stroke: #038048; stroke-width: 1.25;"/><text fill="#000000" font-family="sans-serif" font-size="13.75" lengthAdjust="spacingAndGlyphs" textLength="113.75" x="364.375" y="803.6487">test(t : T) : boolean</text><!--MD5=[361ea2e65ea5a2a327166bc713b7a3de]
link OrderContainsKeywordsPredicate to ArgumentMultimap--><path d="M251.425,530.105 C242.8213,550.87 233.0413,574.4738 223.045,598.6012 " fill="none" id="OrderContainsKeywordsPredicate-&gt;ArgumentMultimap" style="stroke: #A80036; stroke-width: 1.25;"/><polygon fill="#A80036" points="220.4988,604.745,229.4243,596.2658,222.8912,598.971,220.1859,592.4379,220.4988,604.745" style="stroke: #A80036; stroke-width: 1.25;"/><!--MD5=[0809cad925cac69a4f2940235c2d24aa]
reverse link Command to SearchCommand--><path d="M281.25,112.9238 C281.25,128.8362 281.25,146.0463 281.25,162.3687 " fill="none" id="Command&lt;-SearchCommand" style="stroke: #A80036; stroke-width: 1.25;"/><polygon fill="none" points="272.5,112.7563,281.25,87.7563,290,112.7563,272.5,112.7563" style="stroke: #A80036; stroke-width: 1.25;"/><!--MD5=[cdc56ead566f9ea3bdfb1b375987bb98]
link SearchCommand to OrderContainsKeywordsPredicate--><path d="M281.25,309.1088 C281.25,330.7625 281.25,354.62 281.25,376.6825 " fill="none" id="SearchCommand-&gt;OrderContainsKeywordsPredicate" style="stroke: #A80036; stroke-width: 1.25;"/><polygon fill="#A80036" points="281.25,383.4675,286.25,372.2175,281.25,377.2175,276.25,372.2175,281.25,383.4675" style="stroke: #A80036; stroke-width: 1.25;"/><!--MD5=[5b0657bf37ecc6c179177f29fa721834]
link OrderContainsKeywordsPredicate to Predicate--><path d="M311.3613,530.105 C334.2425,584.8013 365.365,659.2013 387.0188,710.9637 " fill="none" id="OrderContainsKeywordsPredicate-&gt;Predicate" style="stroke: #A80036; stroke-width: 1.25; stroke-dasharray: 7.0,7.0;"/><polygon fill="none" points="395.0912,707.5875,396.6675,734.0288,378.9475,714.3413,395.0912,707.5875" style="stroke: #A80036; stroke-width: 1.25;"/><!--MD5=[1c49bfb87f282bca3103813bd644a0e5]
@startuml
OrderContainsKeywordsPredicate -down-> ArgumentMultimap
Command <|- - SearchCommand
OrderContainsKeywordsPredicate <-down- SearchCommand
OrderContainsKeywordsPredicate -[dashed]-|> Predicate

abstract class Command {
    {abstract} execute(Model model) : CommandResult
}

class SearchCommand {
+ COMMON_WORD : String
+ MESSAGE_USAGE : String
- predicate : OrderContainsKeywordsPredicate

+ execute(model : Model) : CommandResult
+ equals(other : Object) : boolean
}

class OrderContainsKeywordsPredicate<Order> {
- keywords : List<String>
- argumentMultimap : ArgumentMultimap
- isGeneralSearch : boolean

+ test(order : Order) : boolean
+ equals(other : Object) : boolean

}

interface Predicate<T> {
+ test(t : T) : boolean
}

class ArgumentMultimap {
- argMultimap : Map<Prefix, List<String>>

+ put(prefix : Prefix, argValue : String) : void
+ getValue(prefix : Prefix) : Optional<String>
+ getAllValues(prefix : Prefix) : List<String>
+ getPreamble() : String
+ getAllPrefixValues() : List<String>
+ getHasTid() : boolean
+ getHasName() : boolean
+ getHasPhone() : boolean
+ getHasAddress() : boolean
+ getHasTimeStamp() : boolean
+ getHasWarehouse() : boolean
+ getHasCod() : boolean
+ getHasComment() : boolean
+ getHasItemType() : boolean
+ getHasEmail() : boolean
}


@enduml

PlantUML version 1.2020.03beta6(Unknown compile time)
(GPL source distribution)
Java Runtime: OpenJDK Runtime Environment
JVM: OpenJDK 64-Bit Server VM
Java Version: 11.0.5+10-b520.30
Operating System: Windows 10
Default Encoding: UTF-8
Language: en
Country: US
--></g></svg>
