<?xml version="1.0" encoding="UTF-8" standalone="no"?><svg xmlns="http://www.w3.org/2000/svg" xmlns:xlink="http://www.w3.org/1999/xlink" contentScriptType="application/ecmascript" contentStyleType="text/css" height="801.75px" preserveAspectRatio="none" style="width:1517px;height:801px;" version="1.1" viewBox="0 0 1517 801" width="1517.25px" zoomAndPan="magnify"><defs/><g><rect fill="#C8C8FA" height="785.5137" style="stroke: #A80036; stroke-width: 0.75;" width="1367.25" x="71.25" y="3"/><text fill="#FFFFFF" font-family="sans-serif" font-size="11.25" font-weight="bold" lengthAdjust="spacingAndGlyphs" textLength="29.25" x="738.75" y="14.6785">Logic</text><rect fill="#F97181" height="785.5137" style="stroke: #A80036; stroke-width: 0.75;" width="69" x="1440" y="3"/><text fill="#FFFFFF" font-family="sans-serif" font-size="11.25" font-weight="bold" lengthAdjust="spacingAndGlyphs" textLength="33" x="1456.5" y="14.6785">Model</text><rect fill="#FFFFFF" height="710.6426" style="stroke: #A80036; stroke-width: 0.75;" width="7.5" x="118.5" y="68.8711"/><rect fill="#FFFFFF" height="641.6016" style="stroke: #A80036; stroke-width: 0.75;" width="7.5" x="276" y="91.6348"/><rect fill="#FFFFFF" height="24.457" style="stroke: #A80036; stroke-width: 0.75;" width="7.5" x="410.25" y="109.6348"/><rect fill="#FFFFFF" height="553.6172" style="stroke: #A80036; stroke-width: 0.75;" width="7.5" x="410.25" y="156.8555"/><rect fill="#FFFFFF" height="76.541" style="stroke: #A80036; stroke-width: 0.75;" width="7.5" x="414" y="350.8945"/><rect fill="#FFFFFF" height="142.5117" style="stroke: #A80036; stroke-width: 0.75;" width="7.5" x="644.25" y="179.6191"/><rect fill="#FFFFFF" height="85.7344" style="stroke: #A80036; stroke-width: 0.75;" width="7.5" x="648" y="208.3828"/><rect fill="#FFFFFF" height="36.7207" style="stroke: #A80036; stroke-width: 0.75;" width="7.5" x="859.5" y="230.1328"/><rect fill="#FFFFFF" height="22.7637" style="stroke: #A80036; stroke-width: 0.75;" width="7.5" x="859.5" y="377.4082"/><rect fill="#FFFFFF" height="24.457" style="stroke: #A80036; stroke-width: 0.75;" width="7.5" x="1011.75" y="536.6836"/><rect fill="#FFFFFF" height="24.457" style="stroke: #A80036; stroke-width: 0.75;" width="7.5" x="1011.75" y="658.002"/><rect fill="#FFFFFF" height="24.457" style="stroke: #A80036; stroke-width: 0.75;" width="7.5" x="1184.25" y="481.9629"/><rect fill="#FFFFFF" height="24.457" style="stroke: #A80036; stroke-width: 0.75;" width="7.5" x="1184.25" y="603.2813"/><rect fill="#FFFFFF" height="244.5234" style="stroke: #000000; stroke-width: 1.5;" width="967.125" x="335.625" y="443.9355"/><rect fill="#FFFFFF" height="121.3184" style="stroke: none; stroke-width: 0.75;" width="967.125" x="335.625" y="567.1406"/><line style="stroke: #A80036; stroke-width: 0.75; stroke-dasharray: 5.0,5.0;" x1="122.25" x2="122.25" y1="44.6074" y2="793.0137"/><line style="stroke: #A80036; stroke-width: 0.75; stroke-dasharray: 5.0,5.0;" x1="279.375" x2="279.375" y1="44.6074" y2="793.0137"/><line style="stroke: #A80036; stroke-width: 0.75; stroke-dasharray: 5.0,5.0;" x1="413.625" x2="413.625" y1="121.1133" y2="793.0137"/><line style="stroke: #A80036; stroke-width: 0.75; stroke-dasharray: 5.0,5.0;" x1="647.625" x2="647.625" y1="44.6074" y2="793.0137"/><line style="stroke: #A80036; stroke-width: 0.75; stroke-dasharray: 5.0,5.0;" x1="863.25" x2="863.25" y1="241.6113" y2="793.0137"/><line style="stroke: #A80036; stroke-width: 0.75; stroke-dasharray: 5.0,5.0;" x1="1015.5" x2="1015.5" y1="657.2168" y2="793.0137"/><line style="stroke: #A80036; stroke-width: 0.75; stroke-dasharray: 5.0,5.0;" x1="1188" x2="1188" y1="602.4961" y2="793.0137"/><line style="stroke: #A80036; stroke-width: 0.75; stroke-dasharray: 5.0,5.0;" x1="1368.75" x2="1368.75" y1="44.6074" y2="793.0137"/><line style="stroke: #A80036; stroke-width: 0.75; stroke-dasharray: 5.0,5.0;" x1="1474.5" x2="1474.5" y1="44.6074" y2="793.0137"/><rect fill="#3333C4" height="23.707" style="stroke: #A80036; stroke-width: 1.125;" width="81" x="81.75" y="20.1504"/><text fill="#FFFFFF" font-family="sans-serif" font-size="10.5" lengthAdjust="spacingAndGlyphs" textLength="70.5" x="87" y="36.3003">:LogicManager</text><rect fill="#3333C4" height="23.707" style="stroke: #A80036; stroke-width: 1.125;" width="96.75" x="231.375" y="20.1504"/><text fill="#FFFFFF" font-family="sans-serif" font-size="10.5" lengthAdjust="spacingAndGlyphs" textLength="86.25" x="236.625" y="36.3003">:OrderBookParser</text><rect fill="#3333C4" height="23.707" style="stroke: #A80036; stroke-width: 1.125;" width="105.75" x="595.125" y="20.1504"/><text fill="#FFFFFF" font-family="sans-serif" font-size="10.5" lengthAdjust="spacingAndGlyphs" textLength="95.25" x="600.375" y="36.3003">:ArgumentTokenizer</text><rect fill="#3333C4" height="23.707" style="stroke: #A80036; stroke-width: 1.125;" width="117.75" x="1310.25" y="20.1504"/><text fill="#FFFFFF" font-family="sans-serif" font-size="10.5" lengthAdjust="spacingAndGlyphs" textLength="107.25" x="1315.5" y="36.3003">result:CommandResult</text><rect fill="#9D0012" height="23.707" style="stroke: #A80036; stroke-width: 1.125;" width="48" x="1450.5" y="20.1504"/><text fill="#FFFFFF" font-family="sans-serif" font-size="10.5" lengthAdjust="spacingAndGlyphs" textLength="31.5" x="1458.75" y="36.3003">:Model</text><rect fill="#FFFFFF" height="710.6426" style="stroke: #A80036; stroke-width: 0.75;" width="7.5" x="118.5" y="68.8711"/><rect fill="#FFFFFF" height="641.6016" style="stroke: #A80036; stroke-width: 0.75;" width="7.5" x="276" y="91.6348"/><rect fill="#FFFFFF" height="24.457" style="stroke: #A80036; stroke-width: 0.75;" width="7.5" x="410.25" y="109.6348"/><rect fill="#FFFFFF" height="553.6172" style="stroke: #A80036; stroke-width: 0.75;" width="7.5" x="410.25" y="156.8555"/><rect fill="#FFFFFF" height="76.541" style="stroke: #A80036; stroke-width: 0.75;" width="7.5" x="414" y="350.8945"/><rect fill="#FFFFFF" height="142.5117" style="stroke: #A80036; stroke-width: 0.75;" width="7.5" x="644.25" y="179.6191"/><rect fill="#FFFFFF" height="85.7344" style="stroke: #A80036; stroke-width: 0.75;" width="7.5" x="648" y="208.3828"/><rect fill="#FFFFFF" height="36.7207" style="stroke: #A80036; stroke-width: 0.75;" width="7.5" x="859.5" y="230.1328"/><rect fill="#FFFFFF" height="22.7637" style="stroke: #A80036; stroke-width: 0.75;" width="7.5" x="859.5" y="377.4082"/><rect fill="#FFFFFF" height="24.457" style="stroke: #A80036; stroke-width: 0.75;" width="7.5" x="1011.75" y="536.6836"/><rect fill="#FFFFFF" height="24.457" style="stroke: #A80036; stroke-width: 0.75;" width="7.5" x="1011.75" y="658.002"/><rect fill="#FFFFFF" height="24.457" style="stroke: #A80036; stroke-width: 0.75;" width="7.5" x="1184.25" y="481.9629"/><rect fill="#FFFFFF" height="24.457" style="stroke: #A80036; stroke-width: 0.75;" width="7.5" x="1184.25" y="603.2813"/><polygon fill="#A80036" points="109.5,65.8711,117,68.8711,109.5,71.8711,112.5,68.8711" style="stroke: #A80036; stroke-width: 0.75;"/><line style="stroke: #A80036; stroke-width: 0.75;" x1="2.25" x2="114" y1="68.8711" y2="68.8711"/><text fill="#000000" font-family="sans-serif" font-size="9.75" lengthAdjust="spacingAndGlyphs" textLength="102" x="9.375" y="65.2288">execute("search Alice")</text><polygon fill="#A80036" points="267,88.6348,274.5,91.6348,267,94.6348,270,91.6348" style="stroke: #A80036; stroke-width: 0.75;"/><line style="stroke: #A80036; stroke-width: 0.75;" x1="126" x2="271.5" y1="91.6348" y2="91.6348"/><text fill="#000000" font-family="sans-serif" font-size="9.75" lengthAdjust="spacingAndGlyphs" textLength="135.75" x="133.125" y="87.9924">parseCommand("search Alice")</text><polygon fill="#A80036" points="341.625,99.1348,349.125,102.1348,341.625,105.1348,344.625,102.1348" style="stroke: #A80036; stroke-width: 0.75;"/><line style="stroke: #A80036; stroke-width: 0.75;" x1="283.5" x2="346.125" y1="102.1348" y2="102.1348"/><rect fill="#3333C4" height="23.707" style="stroke: #A80036; stroke-width: 1.125;" width="126.75" x="350.625" y="97.6348"/><text fill="#FFFFFF" font-family="sans-serif" font-size="10.5" lengthAdjust="spacingAndGlyphs" textLength="116.25" x="355.875" y="113.7847">:SearchCommandParser</text><polygon fill="#A80036" points="291.75,131.0918,284.25,134.0918,291.75,137.0918,288.75,134.0918" style="stroke: #A80036; stroke-width: 0.75;"/><line style="stroke: #A80036; stroke-width: 0.75; stroke-dasharray: 2.0,2.0;" x1="287.25" x2="413.25" y1="134.0918" y2="134.0918"/><polygon fill="#A80036" points="401.25,153.8555,408.75,156.8555,401.25,159.8555,404.25,156.8555" style="stroke: #A80036; stroke-width: 0.75;"/><line style="stroke: #A80036; stroke-width: 0.75;" x1="283.5" x2="405.75" y1="156.8555" y2="156.8555"/><text fill="#000000" font-family="sans-serif" font-size="9.75" lengthAdjust="spacingAndGlyphs" textLength="59.25" x="317.25" y="153.2131">parse("Alice")</text><polygon fill="#A80036" points="635.25,176.6191,642.75,179.6191,635.25,182.6191,638.25,179.6191" style="stroke: #A80036; stroke-width: 0.75;"/><line style="stroke: #A80036; stroke-width: 0.75;" x1="417.75" x2="639.75" y1="179.6191" y2="179.6191"/><text fill="#000000" font-family="sans-serif" font-size="9.75" lengthAdjust="spacingAndGlyphs" textLength="135.75" x="463.125" y="175.9768">tokenize(args, PREFIX_TID, ...)</text><line style="stroke: #A80036; stroke-width: 0.75;" x1="651.75" x2="687" y1="198.6328" y2="198.6328"/><line style="stroke: #A80036; stroke-width: 0.75;" x1="687" x2="687" y1="198.6328" y2="208.3828"/><line style="stroke: #A80036; stroke-width: 0.75;" x1="656.25" x2="687" y1="208.3828" y2="208.3828"/><polygon fill="#A80036" points="663.75,205.3828,656.25,208.3828,663.75,211.3828,660.75,208.3828" style="stroke: #A80036; stroke-width: 0.75;"/><text fill="#000000" font-family="sans-serif" font-size="9.75" lengthAdjust="spacingAndGlyphs" textLength="197.25" x="660.75" y="194.9905">extractArguments(argsString, prefixPositions)</text><polygon fill="#A80036" points="774.75,219.6328,782.25,222.6328,774.75,225.6328,777.75,222.6328" style="stroke: #A80036; stroke-width: 0.75;"/><line style="stroke: #A80036; stroke-width: 0.75;" x1="655.5" x2="779.25" y1="222.6328" y2="222.6328"/><rect fill="#3333C4" height="23.707" style="stroke: #A80036; stroke-width: 1.125;" width="159" x="783.75" y="218.1328"/><text fill="#FFFFFF" font-family="sans-serif" font-size="10.5" lengthAdjust="spacingAndGlyphs" textLength="148.5" x="789" y="234.2827">argMultimap:ArgumentMultimap</text><polygon fill="#A80036" points="663.75,263.8535,656.25,266.8535,663.75,269.8535,660.75,266.8535" style="stroke: #A80036; stroke-width: 0.75;"/><line style="stroke: #A80036; stroke-width: 0.75; stroke-dasharray: 2.0,2.0;" x1="659.25" x2="862.5" y1="266.8535" y2="266.8535"/><text fill="#000000" font-family="sans-serif" font-size="9.75" lengthAdjust="spacingAndGlyphs" textLength="53.25" x="732.75" y="263.2112">argMultimap</text><line style="stroke: #A80036; stroke-width: 0.75; stroke-dasharray: 2.0,2.0;" x1="655.5" x2="687" y1="293.3672" y2="293.3672"/><line style="stroke: #A80036; stroke-width: 0.75; stroke-dasharray: 2.0,2.0;" x1="687" x2="687" y1="293.3672" y2="303.1172"/><line style="stroke: #A80036; stroke-width: 0.75; stroke-dasharray: 2.0,2.0;" x1="651.75" x2="687" y1="303.1172" y2="303.1172"/><polygon fill="#A80036" points="659.25,300.1172,651.75,303.1172,659.25,306.1172,656.25,303.1172" style="stroke: #A80036; stroke-width: 0.75;"/><text fill="#000000" font-family="sans-serif" font-size="9.75" lengthAdjust="spacingAndGlyphs" textLength="53.25" x="660.75" y="289.7249">argMultimap</text><polygon fill="#A80036" points="426,319.1309,418.5,322.1309,426,325.1309,423,322.1309" style="stroke: #A80036; stroke-width: 0.75;"/><line style="stroke: #A80036; stroke-width: 0.75; stroke-dasharray: 2.0,2.0;" x1="421.5" x2="647.25" y1="322.1309" y2="322.1309"/><text fill="#000000" font-family="sans-serif" font-size="9.75" lengthAdjust="spacingAndGlyphs" textLength="53.25" x="506.25" y="318.4885">argMultimap</text><line style="stroke: #A80036; stroke-width: 0.75;" x1="417.75" x2="453" y1="341.1445" y2="341.1445"/><line style="stroke: #A80036; stroke-width: 0.75;" x1="453" x2="453" y1="341.1445" y2="350.8945"/><line style="stroke: #A80036; stroke-width: 0.75;" x1="422.25" x2="453" y1="350.8945" y2="350.8945"/><polygon fill="#A80036" points="429.75,347.8945,422.25,350.8945,429.75,353.8945,426.75,350.8945" style="stroke: #A80036; stroke-width: 0.75;"/><text fill="#000000" font-family="sans-serif" font-size="9.75" lengthAdjust="spacingAndGlyphs" textLength="216" x="426.75" y="337.5022">arePrefixesPresent(argMultimap, PREFIX_TID, ...)</text><polygon fill="#A80036" points="850.5,374.4082,858,377.4082,850.5,380.4082,853.5,377.4082" style="stroke: #A80036; stroke-width: 0.75;"/><line style="stroke: #A80036; stroke-width: 0.75;" x1="421.5" x2="855" y1="377.4082" y2="377.4082"/><text fill="#000000" font-family="sans-serif" font-size="9.75" lengthAdjust="spacingAndGlyphs" textLength="67.5" x="606.75" y="373.7659">getValue(prefix)</text><polygon fill="#A80036" points="429.75,397.1719,422.25,400.1719,429.75,403.1719,426.75,400.1719" style="stroke: #A80036; stroke-width: 0.75;"/><line style="stroke: #A80036; stroke-width: 0.75; stroke-dasharray: 2.0,2.0;" x1="425.25" x2="862.5" y1="400.1719" y2="400.1719"/><text fill="#000000" font-family="sans-serif" font-size="9.75" lengthAdjust="spacingAndGlyphs" textLength="73.5" x="605.625" y="396.5295">Optional&lt;String&gt;</text><line style="stroke: #A80036; stroke-width: 0.75; stroke-dasharray: 2.0,2.0;" x1="421.5" x2="453" y1="426.6855" y2="426.6855"/><line style="stroke: #A80036; stroke-width: 0.75; stroke-dasharray: 2.0,2.0;" x1="453" x2="453" y1="426.6855" y2="436.4355"/><line style="stroke: #A80036; stroke-width: 0.75; stroke-dasharray: 2.0,2.0;" x1="417.75" x2="453" y1="436.4355" y2="436.4355"/><polygon fill="#A80036" points="425.25,433.4355,417.75,436.4355,425.25,439.4355,422.25,436.4355" style="stroke: #A80036; stroke-width: 0.75;"/><text fill="#000000" font-family="sans-serif" font-size="9.75" lengthAdjust="spacingAndGlyphs" textLength="16.5" x="426.75" y="423.0432">true</text><path d="M335.625,443.9355 L381.375,443.9355 L381.375,449.9355 L373.875,457.4355 L335.625,457.4355 L335.625,443.9355 " fill="#EEEEEE" style="stroke: #000000; stroke-width: 0.75;"/><rect fill="none" height="244.5234" style="stroke: #000000; stroke-width: 1.5;" width="967.125" x="335.625" y="443.9355"/><text fill="#000000" font-family="sans-serif" font-size="9.75" font-weight="bold" lengthAdjust="spacingAndGlyphs" textLength="12" x="346.875" y="454.8069">alt</text><text fill="#000000" font-family="sans-serif" font-size="8.25" font-weight="bold" lengthAdjust="spacingAndGlyphs" textLength="99.75" x="392.625" y="453.9998">[preamble is not empty]</text><polygon fill="#A80036" points="1079.25,471.4629,1086.75,474.4629,1079.25,477.4629,1082.25,474.4629" style="stroke: #A80036; stroke-width: 0.75;"/><line style="stroke: #A80036; stroke-width: 0.75;" x1="417.75" x2="1083.75" y1="474.4629" y2="474.4629"/><text fill="#000000" font-family="sans-serif" font-size="9.75" lengthAdjust="spacingAndGlyphs" textLength="41.25" x="732.375" y="470.8206">keywords</text><rect fill="#3333C4" height="23.707" style="stroke: #A80036; stroke-width: 1.125;" width="199.5" x="1088.25" y="457.6992"/><text fill="#FFFFFF" font-family="sans-serif" font-size="10.5" lengthAdjust="spacingAndGlyphs" textLength="189" x="1093.5" y="473.8491">order:OrderContainsKeywordsPredicate</text><polygon fill="#A80036" points="426,503.4199,418.5,506.4199,426,509.4199,423,506.4199" style="stroke: #A80036; stroke-width: 0.75;"/><line style="stroke: #A80036; stroke-width: 0.75; stroke-dasharray: 2.0,2.0;" x1="421.5" x2="1187.25" y1="506.4199" y2="506.4199"/><text fill="#000000" font-family="sans-serif" font-size="9.75" lengthAdjust="spacingAndGlyphs" textLength="21.75" x="792" y="502.7776">order</text><polygon fill="#A80036" points="956.25,526.1836,963.75,529.1836,956.25,532.1836,959.25,529.1836" style="stroke: #A80036; stroke-width: 0.75;"/><line style="stroke: #A80036; stroke-width: 0.75;" x1="417.75" x2="960.75" y1="529.1836" y2="529.1836"/><text fill="#000000" font-family="sans-serif" font-size="9.75" lengthAdjust="spacingAndGlyphs" textLength="21.75" x="680.625" y="525.5413">order</text><rect fill="#3333C4" height="23.707" style="stroke: #A80036; stroke-width: 1.125;" width="100.5" x="965.25" y="512.4199"/><text fill="#FFFFFF" font-family="sans-serif" font-size="10.5" lengthAdjust="spacingAndGlyphs" textLength="90" x="970.5" y="528.5698">s:SearchCommand</text><polygon fill="#A80036" points="426,558.1406,418.5,561.1406,426,564.1406,423,561.1406" style="stroke: #A80036; stroke-width: 0.75;"/><line style="stroke: #A80036; stroke-width: 0.75; stroke-dasharray: 2.0,2.0;" x1="421.5" x2="1014.75" y1="561.1406" y2="561.1406"/><text fill="#000000" font-family="sans-serif" font-size="9.75" lengthAdjust="spacingAndGlyphs" textLength="5.25" x="714" y="557.4983">s</text><line style="stroke: #000000; stroke-width: 0.75; stroke-dasharray: 2.0,2.0;" x1="335.625" x2="1302.75" y1="567.8906" y2="567.8906"/><text fill="#000000" font-family="sans-serif" font-size="8.25" font-weight="bold" lengthAdjust="spacingAndGlyphs" textLength="84" x="339.375" y="576.4548">[preamble is empty]</text><polygon fill="#A80036" points="1079.25,592.7813,1086.75,595.7813,1079.25,598.7813,1082.25,595.7813" style="stroke: #A80036; stroke-width: 0.75;"/><line style="stroke: #A80036; stroke-width: 0.75;" x1="417.75" x2="1083.75" y1="595.7813" y2="595.7813"/><text fill="#000000" font-family="sans-serif" font-size="9.75" lengthAdjust="spacingAndGlyphs" textLength="106.5" x="699.75" y="592.1389">(keywords, argMultimap)</text><rect fill="#3333C4" height="23.707" style="stroke: #A80036; stroke-width: 1.125;" width="199.5" x="1088.25" y="579.0176"/><text fill="#FFFFFF" font-family="sans-serif" font-size="10.5" lengthAdjust="spacingAndGlyphs" textLength="189" x="1093.5" y="595.1675">order:OrderContainsKeywordsPredicate</text><polygon fill="#A80036" points="426,624.7383,418.5,627.7383,426,630.7383,423,627.7383" style="stroke: #A80036; stroke-width: 0.75;"/><line style="stroke: #A80036; stroke-width: 0.75; stroke-dasharray: 2.0,2.0;" x1="421.5" x2="1187.25" y1="627.7383" y2="627.7383"/><text fill="#000000" font-family="sans-serif" font-size="9.75" lengthAdjust="spacingAndGlyphs" textLength="21.75" x="792" y="624.0959">order</text><polygon fill="#A80036" points="956.25,647.502,963.75,650.502,956.25,653.502,959.25,650.502" style="stroke: #A80036; stroke-width: 0.75;"/><line style="stroke: #A80036; stroke-width: 0.75;" x1="417.75" x2="960.75" y1="650.502" y2="650.502"/><text fill="#000000" font-family="sans-serif" font-size="9.75" lengthAdjust="spacingAndGlyphs" textLength="21.75" x="680.625" y="646.8596">order</text><rect fill="#3333C4" height="23.707" style="stroke: #A80036; stroke-width: 1.125;" width="100.5" x="965.25" y="633.7383"/><text fill="#FFFFFF" font-family="sans-serif" font-size="10.5" lengthAdjust="spacingAndGlyphs" textLength="90" x="970.5" y="649.8882">s:SearchCommand</text><polygon fill="#A80036" points="426,679.459,418.5,682.459,426,685.459,423,682.459" style="stroke: #A80036; stroke-width: 0.75;"/><line style="stroke: #A80036; stroke-width: 0.75; stroke-dasharray: 2.0,2.0;" x1="421.5" x2="1014.75" y1="682.459" y2="682.459"/><text fill="#000000" font-family="sans-serif" font-size="9.75" lengthAdjust="spacingAndGlyphs" textLength="5.25" x="714" y="678.8167">s</text><polygon fill="#A80036" points="291.75,707.4727,284.25,710.4727,291.75,713.4727,288.75,710.4727" style="stroke: #A80036; stroke-width: 0.75;"/><line style="stroke: #A80036; stroke-width: 0.75; stroke-dasharray: 2.0,2.0;" x1="287.25" x2="413.25" y1="710.4727" y2="710.4727"/><text fill="#000000" font-family="sans-serif" font-size="9.75" lengthAdjust="spacingAndGlyphs" textLength="5.25" x="346.125" y="706.8303">s</text><polygon fill="#A80036" points="134.25,730.2363,126.75,733.2363,134.25,736.2363,131.25,733.2363" style="stroke: #A80036; stroke-width: 0.75;"/><line style="stroke: #A80036; stroke-width: 0.75; stroke-dasharray: 2.0,2.0;" x1="129.75" x2="279" y1="733.2363" y2="733.2363"/><text fill="#000000" font-family="sans-serif" font-size="9.75" lengthAdjust="spacingAndGlyphs" textLength="5.25" x="200.25" y="729.594">s</text><rect fill="#FFFFFF" height="32.0273" style="stroke: #000000; stroke-width: 1.5;" width="1436.25" x="72" y="739.2363"/><polygon fill="#EEEEEE" points="72,739.2363,118.5,739.2363,118.5,745.2363,111,752.7363,72,752.7363,72,739.2363" style="stroke: #000000; stroke-width: 1.5;"/><text fill="#000000" font-family="sans-serif" font-size="9.75" font-weight="bold" lengthAdjust="spacingAndGlyphs" textLength="12.75" x="81.75" y="750.8577">ref</text><text fill="#000000" font-family="sans-serif" font-size="9.75" lengthAdjust="spacingAndGlyphs" textLength="237" x="671.625" y="765.8577">Execution of the Search Command Sequence Diagram</text><polygon fill="#A80036" points="10.5,776.5137,3,779.5137,10.5,782.5137,7.5,779.5137" style="stroke: #A80036; stroke-width: 0.75;"/><line style="stroke: #A80036; stroke-width: 0.75; stroke-dasharray: 2.0,2.0;" x1="6" x2="121.5" y1="779.5137" y2="779.5137"/><!--MD5=[14422ba3ca44a1e3273b057733c2f2d1]
@startuml








skinparam BackgroundColor #FFFFFFF

skinparam Shadowing false

skinparam Class {
    FontColor #FFFFFF
    BorderThickness 1
    BorderColor #FFFFFF
    StereotypeFontColor #FFFFFF
    FontName Arial
}

skinparam Actor {
    BorderColor #000000
    Color #000000
    FontName Arial
}

skinparam Sequence {
    MessageAlign center
    BoxFontSize 15
    BoxPadding 0
    BoxFontColor #FFFFFF
    FontName Arial
}

skinparam Participant {
    FontColor #FFFFFFF
    Padding 20
}

skinparam MinClassWidth 50
skinparam ParticipantPadding 10
skinparam Shadowing false
skinparam DefaultTextAlignment center
skinparam packageStyle Rectangle

hide footbox
hide members
hide circle
box Logic #C8C8FA
participant ":LogicManager" as LogicManager #3333C4
participant ":OrderBookParser" as OrderBookParser #3333C4
participant ":SearchCommandParser" as SearchCommandParser #3333C4
participant ":ArgumentTokenizer" as ArgumentTokenizer #3333C4
participant "argMultimap:ArgumentMultimap" as ArgumentMultimap #3333C4
participant "s:SearchCommand" as SearchCommand #3333C4
participant "order:OrderContainsKeywordsPredicate" as OrderContainsKeywordsPredicate #3333C4
participant "result:CommandResult" as CommandResult #3333C4
end box

box Model #F97181
participant ":Model" as Model #9D0012
end box

[-> LogicManager : execute("search Alice")
activate LogicManager

LogicManager -> OrderBookParser : parseCommand("search Alice")
activate OrderBookParser

create SearchCommandParser
OrderBookParser -> SearchCommandParser
activate SearchCommandParser

SearchCommandParser - -> OrderBookParser
deactivate SearchCommandParser

OrderBookParser -> SearchCommandParser : parse("Alice")
activate SearchCommandParser


SearchCommandParser -> ArgumentTokenizer++ : tokenize(args, PREFIX_TID, ...)

ArgumentTokenizer -> ArgumentTokenizer++ : extractArguments(argsString, prefixPositions)
create ArgumentMultimap
ArgumentTokenizer -> ArgumentMultimap++
ArgumentMultimap - -> ArgumentTokenizer- - : argMultimap

ArgumentTokenizer - -> ArgumentTokenizer- - : argMultimap

ArgumentTokenizer - -> SearchCommandParser- - : argMultimap

SearchCommandParser -> SearchCommandParser++ : arePrefixesPresent(argMultimap, PREFIX_TID, ...)

SearchCommandParser -> ArgumentMultimap++ : getValue(prefix)

ArgumentMultimap - -> SearchCommandParser- - : Optional<String>

SearchCommandParser - -> SearchCommandParser- - : true

alt preamble is not empty
    create OrderContainsKeywordsPredicate
    SearchCommandParser -> OrderContainsKeywordsPredicate++ : keywords

    OrderContainsKeywordsPredicate - -> SearchCommandParser- - : order

    create SearchCommand
    SearchCommandParser -> SearchCommand++ : order
    SearchCommand - -> SearchCommandParser- - : s
else preamble is empty
    create OrderContainsKeywordsPredicate
    SearchCommandParser -> OrderContainsKeywordsPredicate++ : (keywords, argMultimap)

    OrderContainsKeywordsPredicate - -> SearchCommandParser- - : order

    create SearchCommand
    SearchCommandParser -> SearchCommand++ : order
    SearchCommand - -> SearchCommandParser- - : s
end

    SearchCommandParser - -> OrderBookParser- - : s

OrderBookParser - -> LogicManager- - : s

ref over LogicManager,  Model : Execution of the Search Command Sequence Diagram

[<- -LogicManager
deactivate LogicManager
@enduml

PlantUML version 1.2020.03beta6(Unknown compile time)
(GPL source distribution)
Java Runtime: OpenJDK Runtime Environment
JVM: OpenJDK 64-Bit Server VM
Java Version: 11.0.5+10-b520.30
Operating System: Windows 10
Default Encoding: UTF-8
Language: en
Country: US
--></g></svg>
