<?xml version="1.0" encoding="UTF-8" standalone="no"?><svg xmlns="http://www.w3.org/2000/svg" xmlns:xlink="http://www.w3.org/1999/xlink" contentScriptType="application/ecmascript" contentStyleType="text/css" height="1034px" preserveAspectRatio="none" style="width:2481px;height:1034px;" version="1.1" viewBox="0 0 2481 1034" width="2481.875px" zoomAndPan="magnify"><defs/><g><rect fill="#C8C8FA" height="1004.7705" style="stroke: #A80036; stroke-width: 1.375;" width="2207.5625" x="130.625" y="5.5"/><text fill="#FFFFFF" font-family="sans-serif" font-size="20.625" font-weight="bold" lengthAdjust="spacingAndGlyphs" textLength="53.625" x="1204.8438" y="26.9105">Logic</text><rect fill="#F97181" height="1004.7705" style="stroke: #A80036; stroke-width: 1.375;" width="126.5" x="2340.9375" y="5.5"/><text fill="#FFFFFF" font-family="sans-serif" font-size="20.625" font-weight="bold" lengthAdjust="spacingAndGlyphs" textLength="60.5" x="2371.1875" y="26.9105">Model</text><rect fill="#FFFFFF" height="867.5068" style="stroke: #A80036; stroke-width: 1.375;" width="13.75" x="217.25" y="126.2637"/><rect fill="#FFFFFF" height="523.252" style="stroke: #A80036; stroke-width: 1.375;" width="13.75" x="506" y="167.9971"/><rect fill="#FFFFFF" height="44.8379" style="stroke: #A80036; stroke-width: 1.375;" width="13.75" x="752.125" y="200.9971"/><rect fill="#FFFFFF" height="342.6973" style="stroke: #A80036; stroke-width: 1.375;" width="13.75" x="752.125" y="287.5684"/><rect fill="#FFFFFF" height="67.3213" style="stroke: #A80036; stroke-width: 1.375;" width="13.75" x="1113.0625" y="320.5684"/><rect fill="#FFFFFF" height="67.3213" style="stroke: #A80036; stroke-width: 1.375;" width="13.75" x="1593.625" y="420.8896"/><rect fill="#FFFFFF" height="67.3213" style="stroke: #A80036; stroke-width: 1.375;" width="13.75" x="1962.8125" y="521.2109"/><rect fill="#FFFFFF" height="241.5381" style="stroke: #A80036; stroke-width: 1.375;" width="13.75" x="1962.8125" y="732.9824"/><rect fill="#FFFFFF" height="44.8379" style="stroke: #A80036; stroke-width: 1.375;" width="13.75" x="2204.125" y="887.9492"/><rect fill="#FFFFFF" height="19.25" style="stroke: #A80036; stroke-width: 1.375;" width="13.75" x="2397.3125" y="774.7158"/><rect fill="#FFFFFF" height="19.25" style="stroke: #A80036; stroke-width: 1.375;" width="13.75" x="2397.3125" y="835.6992"/><line style="stroke: #A80036; stroke-width: 1.375; stroke-dasharray: 5.0,5.0;" x1="224.125" x2="224.125" y1="81.7803" y2="1018.5205"/><line style="stroke: #A80036; stroke-width: 1.375; stroke-dasharray: 5.0,5.0;" x1="512.1875" x2="512.1875" y1="81.7803" y2="1018.5205"/><line style="stroke: #A80036; stroke-width: 1.375; stroke-dasharray: 5.0,5.0;" x1="758.3125" x2="758.3125" y1="222.041" y2="1018.5205"/><line style="stroke: #A80036; stroke-width: 1.375; stroke-dasharray: 5.0,5.0;" x1="1119.9375" x2="1119.9375" y1="341.6123" y2="1018.5205"/><line style="stroke: #A80036; stroke-width: 1.375; stroke-dasharray: 5.0,5.0;" x1="1599.8125" x2="1599.8125" y1="441.9336" y2="1018.5205"/><line style="stroke: #A80036; stroke-width: 1.375; stroke-dasharray: 5.0,5.0;" x1="1969.6875" x2="1969.6875" y1="542.2549" y2="1018.5205"/><line style="stroke: #A80036; stroke-width: 1.375; stroke-dasharray: 5.0,5.0;" x1="2210.3125" x2="2210.3125" y1="908.9932" y2="1018.5205"/><line style="stroke: #A80036; stroke-width: 1.375; stroke-dasharray: 5.0,5.0;" x1="2404.1875" x2="2404.1875" y1="81.7803" y2="1018.5205"/><rect fill="#3333C4" height="43.4629" style="stroke: #A80036; stroke-width: 2.0625;" width="148.5" x="149.875" y="36.9424"/><text fill="#FFFFFF" font-family="sans-serif" font-size="19.25" lengthAdjust="spacingAndGlyphs" textLength="129.25" x="159.5" y="66.5505">:LogicManager</text><rect fill="#3333C4" height="43.4629" style="stroke: #A80036; stroke-width: 2.0625;" width="177.375" x="424.1875" y="36.9424"/><text fill="#FFFFFF" font-family="sans-serif" font-size="19.25" lengthAdjust="spacingAndGlyphs" textLength="158.125" x="433.8125" y="66.5505">:OrderBookParser</text><rect fill="#9D0012" height="43.4629" style="stroke: #A80036; stroke-width: 2.0625;" width="88" x="2360.1875" y="36.9424"/><text fill="#FFFFFF" font-family="sans-serif" font-size="19.25" lengthAdjust="spacingAndGlyphs" textLength="57.75" x="2375.3125" y="66.5505">:Model</text><rect fill="#FFFFFF" height="867.5068" style="stroke: #A80036; stroke-width: 1.375;" width="13.75" x="217.25" y="126.2637"/><rect fill="#FFFFFF" height="523.252" style="stroke: #A80036; stroke-width: 1.375;" width="13.75" x="506" y="167.9971"/><rect fill="#FFFFFF" height="44.8379" style="stroke: #A80036; stroke-width: 1.375;" width="13.75" x="752.125" y="200.9971"/><rect fill="#FFFFFF" height="342.6973" style="stroke: #A80036; stroke-width: 1.375;" width="13.75" x="752.125" y="287.5684"/><rect fill="#FFFFFF" height="67.3213" style="stroke: #A80036; stroke-width: 1.375;" width="13.75" x="1113.0625" y="320.5684"/><rect fill="#FFFFFF" height="67.3213" style="stroke: #A80036; stroke-width: 1.375;" width="13.75" x="1593.625" y="420.8896"/><rect fill="#FFFFFF" height="67.3213" style="stroke: #A80036; stroke-width: 1.375;" width="13.75" x="1962.8125" y="521.2109"/><rect fill="#FFFFFF" height="241.5381" style="stroke: #A80036; stroke-width: 1.375;" width="13.75" x="1962.8125" y="732.9824"/><rect fill="#FFFFFF" height="44.8379" style="stroke: #A80036; stroke-width: 1.375;" width="13.75" x="2204.125" y="887.9492"/><rect fill="#FFFFFF" height="19.25" style="stroke: #A80036; stroke-width: 1.375;" width="13.75" x="2397.3125" y="774.7158"/><rect fill="#FFFFFF" height="19.25" style="stroke: #A80036; stroke-width: 1.375;" width="13.75" x="2397.3125" y="835.6992"/><polygon fill="#A80036" points="200.75,120.7637,214.5,126.2637,200.75,131.7637,206.25,126.2637" style="stroke: #A80036; stroke-width: 1.375;"/><line style="stroke: #A80036; stroke-width: 1.375;" x1="4.125" x2="209" y1="126.2637" y2="126.2637"/><text fill="#000000" font-family="sans-serif" font-size="17.875" lengthAdjust="spacingAndGlyphs" textLength="187" x="17.1875" y="119.5861">execute("search Alice")</text><polygon fill="#A80036" points="489.5,162.4971,503.25,167.9971,489.5,173.4971,495,167.9971" style="stroke: #A80036; stroke-width: 1.375;"/><line style="stroke: #A80036; stroke-width: 1.375;" x1="231" x2="497.75" y1="167.9971" y2="167.9971"/><text fill="#000000" font-family="sans-serif" font-size="17.875" lengthAdjust="spacingAndGlyphs" textLength="248.875" x="244.0625" y="161.3195">parseCommand("search Alice")</text><polygon fill="#A80036" points="626.3125,181.7471,640.0625,187.2471,626.3125,192.7471,631.8125,187.2471" style="stroke: #A80036; stroke-width: 1.375;"/><line style="stroke: #A80036; stroke-width: 1.375;" x1="519.75" x2="634.5625" y1="187.2471" y2="187.2471"/><rect fill="#3333C4" height="43.4629" style="stroke: #A80036; stroke-width: 2.0625;" width="232.375" x="642.8125" y="178.9971"/><text fill="#FFFFFF" font-family="sans-serif" font-size="19.25" lengthAdjust="spacingAndGlyphs" textLength="213.125" x="652.4375" y="208.6052">:SearchCommandParser</text><polygon fill="#A80036" points="534.875,240.335,521.125,245.835,534.875,251.335,529.375,245.835" style="stroke: #A80036; stroke-width: 1.375;"/><line style="stroke: #A80036; stroke-width: 1.375; stroke-dasharray: 2.0,2.0;" x1="526.625" x2="757.625" y1="245.835" y2="245.835"/><polygon fill="#A80036" points="735.625,282.0684,749.375,287.5684,735.625,293.0684,741.125,287.5684" style="stroke: #A80036; stroke-width: 1.375;"/><line style="stroke: #A80036; stroke-width: 1.375;" x1="519.75" x2="743.875" y1="287.5684" y2="287.5684"/><text fill="#000000" font-family="sans-serif" font-size="17.875" lengthAdjust="spacingAndGlyphs" textLength="108.625" x="581.625" y="280.8907">parse("Alice")</text><polygon fill="#A80036" points="899.9375,301.3184,913.6875,306.8184,899.9375,312.3184,905.4375,306.8184" style="stroke: #A80036; stroke-width: 1.375;"/><line style="stroke: #A80036; stroke-width: 1.375;" x1="765.875" x2="908.1875" y1="306.8184" y2="306.8184"/><rect fill="#3333C4" height="43.4629" style="stroke: #A80036; stroke-width: 2.0625;" width="407" x="916.4375" y="298.5684"/><text fill="#FFFFFF" font-family="sans-serif" font-size="19.25" lengthAdjust="spacingAndGlyphs" textLength="387.75" x="926.0625" y="328.1765">orderPred:OrderContainsKeywordsPredicate</text><polygon fill="#A80036" points="781,382.3896,767.25,387.8896,781,393.3896,775.5,387.8896" style="stroke: #A80036; stroke-width: 1.375;"/><line style="stroke: #A80036; stroke-width: 1.375; stroke-dasharray: 2.0,2.0;" x1="772.75" x2="1118.5625" y1="387.8896" y2="387.8896"/><text fill="#000000" font-family="sans-serif" font-size="17.875" lengthAdjust="spacingAndGlyphs" textLength="77" x="904.4063" y="381.212">orderPred</text><polygon fill="#A80036" points="1348.1875,401.6396,1361.9375,407.1396,1348.1875,412.6396,1353.6875,407.1396" style="stroke: #A80036; stroke-width: 1.375;"/><line style="stroke: #A80036; stroke-width: 1.375;" x1="765.875" x2="1356.4375" y1="407.1396" y2="407.1396"/><rect fill="#3333C4" height="43.4629" style="stroke: #A80036; stroke-width: 2.0625;" width="471.625" x="1364.6875" y="398.8896"/><text fill="#FFFFFF" font-family="sans-serif" font-size="19.25" lengthAdjust="spacingAndGlyphs" textLength="452.375" x="1374.3125" y="428.4978">returnPred:ReturnOrderContiansKeywordsPredicate</text><polygon fill="#A80036" points="781,482.7109,767.25,488.2109,781,493.7109,775.5,488.2109" style="stroke: #A80036; stroke-width: 1.375;"/><line style="stroke: #A80036; stroke-width: 1.375; stroke-dasharray: 2.0,2.0;" x1="772.75" x2="1599.125" y1="488.2109" y2="488.2109"/><text fill="#000000" font-family="sans-serif" font-size="17.875" lengthAdjust="spacingAndGlyphs" textLength="82.5" x="1141.9375" y="481.5333">returnPred</text><polygon fill="#A80036" points="1861.0625,501.9609,1874.8125,507.4609,1861.0625,512.9609,1866.5625,507.4609" style="stroke: #A80036; stroke-width: 1.375;"/><line style="stroke: #A80036; stroke-width: 1.375;" x1="765.875" x2="1869.3125" y1="507.4609" y2="507.4609"/><rect fill="#3333C4" height="43.4629" style="stroke: #A80036; stroke-width: 2.0625;" width="184.25" x="1877.5625" y="499.2109"/><text fill="#FFFFFF" font-family="sans-serif" font-size="19.25" lengthAdjust="spacingAndGlyphs" textLength="165" x="1887.1875" y="528.8191">s:SearchCommand</text><polygon fill="#A80036" points="781,583.0322,767.25,588.5322,781,594.0322,775.5,588.5322" style="stroke: #A80036; stroke-width: 1.375;"/><line style="stroke: #A80036; stroke-width: 1.375; stroke-dasharray: 2.0,2.0;" x1="772.75" x2="1968.3125" y1="588.5322" y2="588.5322"/><text fill="#000000" font-family="sans-serif" font-size="17.875" lengthAdjust="spacingAndGlyphs" textLength="9.625" x="1362.9688" y="581.8546">s</text><polygon fill="#A80036" points="534.875,624.7656,521.125,630.2656,534.875,635.7656,529.375,630.2656" style="stroke: #A80036; stroke-width: 1.375;"/><line style="stroke: #A80036; stroke-width: 1.375; stroke-dasharray: 2.0,2.0;" x1="526.625" x2="757.625" y1="630.2656" y2="630.2656"/><text fill="#000000" font-family="sans-serif" font-size="17.875" lengthAdjust="spacingAndGlyphs" textLength="9.625" x="634.5625" y="623.588">s</text><line style="stroke: #A80036; stroke-width: 2.75;" x1="746.625" x2="771.375" y1="637.1406" y2="661.8906"/><line style="stroke: #A80036; stroke-width: 2.75;" x1="746.625" x2="771.375" y1="661.8906" y2="637.1406"/><polygon fill="#A80036" points="246.125,685.749,232.375,691.249,246.125,696.749,240.625,691.249" style="stroke: #A80036; stroke-width: 1.375;"/><line style="stroke: #A80036; stroke-width: 1.375; stroke-dasharray: 2.0,2.0;" x1="237.875" x2="511.5" y1="691.249" y2="691.249"/><text fill="#000000" font-family="sans-serif" font-size="17.875" lengthAdjust="spacingAndGlyphs" textLength="9.625" x="367.125" y="684.5714">s</text><polygon fill="#A80036" points="1946.3125,727.4824,1960.0625,732.9824,1946.3125,738.4824,1951.8125,732.9824" style="stroke: #A80036; stroke-width: 1.375;"/><line style="stroke: #A80036; stroke-width: 1.375;" x1="231" x2="1954.5625" y1="732.9824" y2="732.9824"/><text fill="#000000" font-family="sans-serif" font-size="17.875" lengthAdjust="spacingAndGlyphs" textLength="122.375" x="1035.7188" y="726.3048">execute(model)</text><polygon fill="#A80036" points="2380.8125,769.2158,2394.5625,774.7158,2380.8125,780.2158,2386.3125,774.7158" style="stroke: #A80036; stroke-width: 1.375;"/><line style="stroke: #A80036; stroke-width: 1.375;" x1="1976.5625" x2="2389.0625" y1="774.7158" y2="774.7158"/><text fill="#000000" font-family="sans-serif" font-size="17.875" lengthAdjust="spacingAndGlyphs" textLength="273.625" x="2050.125" y="768.0382">updateFilteredOrderList(orderPred)</text><polygon fill="#A80036" points="1991.6875,788.4658,1977.9375,793.9658,1991.6875,799.4658,1986.1875,793.9658" style="stroke: #A80036; stroke-width: 1.375;"/><line style="stroke: #A80036; stroke-width: 1.375; stroke-dasharray: 2.0,2.0;" x1="1983.4375" x2="2402.8125" y1="793.9658" y2="793.9658"/><polygon fill="#A80036" points="2380.8125,830.1992,2394.5625,835.6992,2380.8125,841.1992,2386.3125,835.6992" style="stroke: #A80036; stroke-width: 1.375;"/><line style="stroke: #A80036; stroke-width: 1.375;" x1="1976.5625" x2="2389.0625" y1="835.6992" y2="835.6992"/><text fill="#000000" font-family="sans-serif" font-size="17.875" lengthAdjust="spacingAndGlyphs" textLength="331.375" x="2021.25" y="829.0216">updateFilteredReturnOrderList(returnPred)</text><polygon fill="#A80036" points="1991.6875,849.4492,1977.9375,854.9492,1991.6875,860.4492,1986.1875,854.9492" style="stroke: #A80036; stroke-width: 1.375;"/><line style="stroke: #A80036; stroke-width: 1.375; stroke-dasharray: 2.0,2.0;" x1="1983.4375" x2="2402.8125" y1="854.9492" y2="854.9492"/><polygon fill="#A80036" points="2086.5625,868.6992,2100.3125,874.1992,2086.5625,879.6992,2092.0625,874.1992" style="stroke: #A80036; stroke-width: 1.375;"/><line style="stroke: #A80036; stroke-width: 1.375;" x1="1976.5625" x2="2094.8125" y1="874.1992" y2="874.1992"/><rect fill="#3333C4" height="43.4629" style="stroke: #A80036; stroke-width: 2.0625;" width="215.875" x="2103.0625" y="865.9492"/><text fill="#FFFFFF" font-family="sans-serif" font-size="19.25" lengthAdjust="spacingAndGlyphs" textLength="196.625" x="2112.6875" y="895.5574">result:CommandResult</text><polygon fill="#A80036" points="1991.6875,927.2871,1977.9375,932.7871,1991.6875,938.2871,1986.1875,932.7871" style="stroke: #A80036; stroke-width: 1.375;"/><line style="stroke: #A80036; stroke-width: 1.375; stroke-dasharray: 2.0,2.0;" x1="1983.4375" x2="2209.625" y1="932.7871" y2="932.7871"/><polygon fill="#A80036" points="246.125,969.0205,232.375,974.5205,246.125,980.0205,240.625,974.5205" style="stroke: #A80036; stroke-width: 1.375;"/><line style="stroke: #A80036; stroke-width: 1.375; stroke-dasharray: 2.0,2.0;" x1="237.875" x2="1968.3125" y1="974.5205" y2="974.5205"/><text fill="#000000" font-family="sans-serif" font-size="17.875" lengthAdjust="spacingAndGlyphs" textLength="44" x="1078.3438" y="967.8429">result</text><polygon fill="#A80036" points="19.25,988.2705,5.5,993.7705,19.25,999.2705,13.75,993.7705" style="stroke: #A80036; stroke-width: 1.375;"/><line style="stroke: #A80036; stroke-width: 1.375; stroke-dasharray: 2.0,2.0;" x1="11" x2="222.75" y1="993.7705" y2="993.7705"/><!--MD5=[9f80a51d0ff9d47f0bf8e4c9c8481e49]
@startuml








skinparam BackgroundColor #FFFFFFF

skinparam Shadowing false

skinparam Class {
    FontColor #FFFFFF
    BorderThickness 1
    BorderColor #FFFFFF
    StereotypeFontColor #FFFFFF
    FontName Arial
}

skinparam Actor {
    BorderColor #000000
    Color #000000
    FontName Arial
}

skinparam Sequence {
    MessageAlign center
    BoxFontSize 15
    BoxPadding 0
    BoxFontColor #FFFFFF
    FontName Arial
}

skinparam Participant {
    FontColor #FFFFFFF
    Padding 20
}

skinparam MinClassWidth 50
skinparam ParticipantPadding 10
skinparam Shadowing false
skinparam DefaultTextAlignment center
skinparam packageStyle Rectangle

hide footbox
hide members
hide circle
box Logic #C8C8FA
participant ":LogicManager" as LogicManager #3333C4
participant ":OrderBookParser" as OrderBookParser #3333C4
participant ":SearchCommandParser" as SearchCommandParser #3333C4
participant "orderPred:OrderContainsKeywordsPredicate" as OrderContainsKeywordsPredicate #3333C4
participant "returnPred:ReturnOrderContiansKeywordsPredicate" as ReturnOrderContiansKeywordsPredicate #3333C4
participant "s:SearchCommand" as SearchCommand #3333C4
participant "result:CommandResult" as CommandResult #3333C4
end box

box Model #F97181
participant ":Model" as Model #9D0012
end box

[-> LogicManager : execute("search Alice")
activate LogicManager

LogicManager -> OrderBookParser : parseCommand("search Alice")
activate OrderBookParser

create SearchCommandParser
OrderBookParser -> SearchCommandParser
activate SearchCommandParser

SearchCommandParser - -> OrderBookParser
deactivate SearchCommandParser

OrderBookParser -> SearchCommandParser : parse("Alice")
activate SearchCommandParser

create OrderContainsKeywordsPredicate
SearchCommandParser -> OrderContainsKeywordsPredicate
activate OrderContainsKeywordsPredicate

OrderContainsKeywordsPredicate - -> SearchCommandParser : orderPred
deactivate OrderContainsKeywordsPredicate

create ReturnOrderContiansKeywordsPredicate
SearchCommandParser -> ReturnOrderContiansKeywordsPredicate
activate ReturnOrderContiansKeywordsPredicate

ReturnOrderContiansKeywordsPredicate - -> SearchCommandParser : returnPred
deactivate ReturnOrderContiansKeywordsPredicate

create SearchCommand
SearchCommandParser -> SearchCommand
activate SearchCommand

SearchCommand - -> SearchCommandParser : s
deactivate SearchCommand

SearchCommandParser - -> OrderBookParser : s
deactivate SearchCommandParser
SearchCommandParser -[hidden]-> OrderBookParser
destroy SearchCommandParser

OrderBookParser - -> LogicManager : s
deactivate OrderBookParser

LogicManager -> SearchCommand : execute(model)
activate SearchCommand


SearchCommand -> Model : updateFilteredOrderList(orderPred)
activate Model

Model - -> SearchCommand
deactivate Model
SearchCommand -> Model : updateFilteredReturnOrderList(returnPred)
activate Model

Model - -> SearchCommand
deactivate Model


create CommandResult
SearchCommand -> CommandResult
activate CommandResult

CommandResult - -> SearchCommand
deactivate CommandResult

SearchCommand - -> LogicManager : result
deactivate SearchCommand

[<- -LogicManager
deactivate LogicManager
@enduml

PlantUML version 1.2020.03beta6(Unknown compile time)
(GPL source distribution)
Java Runtime: OpenJDK Runtime Environment
JVM: OpenJDK 64-Bit Server VM
Java Version: 11.0.5+10-b520.30
Operating System: Windows 10
Default Encoding: UTF-8
Language: en
Country: US
--></g></svg>
