<?xml version="1.0" encoding="UTF-8" standalone="no"?><svg xmlns="http://www.w3.org/2000/svg" xmlns:xlink="http://www.w3.org/1999/xlink" contentScriptType="application/ecmascript" contentStyleType="text/css" height="940px" preserveAspectRatio="none" style="width:2238px;height:940px;" version="1.1" viewBox="0 0 2238 940" width="2238.75px" zoomAndPan="magnify"><defs/><g><rect fill="#C8C8FA" height="913.4277" style="stroke: #A80036; stroke-width: 1.25;" width="1988.75" x="118.75" y="5"/><text fill="#FFFFFF" font-family="sans-serif" font-size="18.75" font-weight="bold" lengthAdjust="spacingAndGlyphs" textLength="48.75" x="1086.25" y="24.4641">Logic</text><rect fill="#F97181" height="913.4277" style="stroke: #A80036; stroke-width: 1.25;" width="115" x="2110" y="5"/><text fill="#FFFFFF" font-family="sans-serif" font-size="18.75" font-weight="bold" lengthAdjust="spacingAndGlyphs" textLength="55" x="2137.5" y="24.4641">Model</text><rect fill="#FFFFFF" height="788.6426" style="stroke: #A80036; stroke-width: 1.25;" width="12.5" x="197.5" y="114.7852"/><rect fill="#FFFFFF" height="475.6836" style="stroke: #A80036; stroke-width: 1.25;" width="12.5" x="460" y="152.7246"/><rect fill="#FFFFFF" height="40.7617" style="stroke: #A80036; stroke-width: 1.25;" width="12.5" x="665.625" y="182.7246"/><rect fill="#FFFFFF" height="311.543" style="stroke: #A80036; stroke-width: 1.25;" width="12.5" x="665.625" y="261.4258"/><rect fill="#FFFFFF" height="61.2012" style="stroke: #A80036; stroke-width: 1.25;" width="12.5" x="993.75" y="291.4258"/><rect fill="#FFFFFF" height="61.2012" style="stroke: #A80036; stroke-width: 1.25;" width="12.5" x="1430.625" y="382.627"/><rect fill="#FFFFFF" height="61.2012" style="stroke: #A80036; stroke-width: 1.25;" width="12.5" x="1766.25" y="473.8281"/><rect fill="#FFFFFF" height="219.5801" style="stroke: #A80036; stroke-width: 1.25;" width="12.5" x="1766.25" y="666.3477"/><rect fill="#FFFFFF" height="40.7617" style="stroke: #A80036; stroke-width: 1.25;" width="12.5" x="1985.625" y="807.2266"/><rect fill="#FFFFFF" height="17.5" style="stroke: #A80036; stroke-width: 1.25;" width="12.5" x="2161.25" y="704.2871"/><rect fill="#FFFFFF" height="17.5" style="stroke: #A80036; stroke-width: 1.25;" width="12.5" x="2161.25" y="759.7266"/><line style="stroke: #A80036; stroke-width: 1.25; stroke-dasharray: 5.0,5.0;" x1="203.75" x2="203.75" y1="74.3457" y2="925.9277"/><line style="stroke: #A80036; stroke-width: 1.25; stroke-dasharray: 5.0,5.0;" x1="466.25" x2="466.25" y1="74.3457" y2="925.9277"/><line style="stroke: #A80036; stroke-width: 1.25; stroke-dasharray: 5.0,5.0;" x1="671.25" x2="671.25" y1="201.8555" y2="925.9277"/><line style="stroke: #A80036; stroke-width: 1.25; stroke-dasharray: 5.0,5.0;" x1="1000" x2="1000" y1="310.5566" y2="925.9277"/><line style="stroke: #A80036; stroke-width: 1.25; stroke-dasharray: 5.0,5.0;" x1="1436.25" x2="1436.25" y1="401.7578" y2="925.9277"/><line style="stroke: #A80036; stroke-width: 1.25; stroke-dasharray: 5.0,5.0;" x1="1772.5" x2="1772.5" y1="492.959" y2="925.9277"/><line style="stroke: #A80036; stroke-width: 1.25; stroke-dasharray: 5.0,5.0;" x1="1991.25" x2="1991.25" y1="826.3574" y2="925.9277"/><line style="stroke: #A80036; stroke-width: 1.25; stroke-dasharray: 5.0,5.0;" x1="2167.5" x2="2167.5" y1="74.3457" y2="925.9277"/><rect fill="#3333C4" height="39.5117" style="stroke: #A80036; stroke-width: 1.875;" width="135" x="136.25" y="33.584"/><text fill="#FFFFFF" font-family="sans-serif" font-size="17.5" lengthAdjust="spacingAndGlyphs" textLength="117.5" x="145" y="60.5005">:LogicManager</text><rect fill="#3333C4" height="39.5117" style="stroke: #A80036; stroke-width: 1.875;" width="125" x="403.75" y="33.584"/><text fill="#FFFFFF" font-family="sans-serif" font-size="17.5" lengthAdjust="spacingAndGlyphs" textLength="107.5" x="412.5" y="60.5005">:DelinoParser</text><rect fill="#9D0012" height="39.5117" style="stroke: #A80036; stroke-width: 1.875;" width="80" x="2127.5" y="33.584"/><text fill="#FFFFFF" font-family="sans-serif" font-size="17.5" lengthAdjust="spacingAndGlyphs" textLength="52.5" x="2141.25" y="60.5005">:Model</text><rect fill="#FFFFFF" height="788.6426" style="stroke: #A80036; stroke-width: 1.25;" width="12.5" x="197.5" y="114.7852"/><rect fill="#FFFFFF" height="475.6836" style="stroke: #A80036; stroke-width: 1.25;" width="12.5" x="460" y="152.7246"/><rect fill="#FFFFFF" height="40.7617" style="stroke: #A80036; stroke-width: 1.25;" width="12.5" x="665.625" y="182.7246"/><rect fill="#FFFFFF" height="311.543" style="stroke: #A80036; stroke-width: 1.25;" width="12.5" x="665.625" y="261.4258"/><rect fill="#FFFFFF" height="61.2012" style="stroke: #A80036; stroke-width: 1.25;" width="12.5" x="993.75" y="291.4258"/><rect fill="#FFFFFF" height="61.2012" style="stroke: #A80036; stroke-width: 1.25;" width="12.5" x="1430.625" y="382.627"/><rect fill="#FFFFFF" height="61.2012" style="stroke: #A80036; stroke-width: 1.25;" width="12.5" x="1766.25" y="473.8281"/><rect fill="#FFFFFF" height="219.5801" style="stroke: #A80036; stroke-width: 1.25;" width="12.5" x="1766.25" y="666.3477"/><rect fill="#FFFFFF" height="40.7617" style="stroke: #A80036; stroke-width: 1.25;" width="12.5" x="1985.625" y="807.2266"/><rect fill="#FFFFFF" height="17.5" style="stroke: #A80036; stroke-width: 1.25;" width="12.5" x="2161.25" y="704.2871"/><rect fill="#FFFFFF" height="17.5" style="stroke: #A80036; stroke-width: 1.25;" width="12.5" x="2161.25" y="759.7266"/><polygon fill="#A80036" points="182.5,109.7852,195,114.7852,182.5,119.7852,187.5,114.7852" style="stroke: #A80036; stroke-width: 1.25;"/><line style="stroke: #A80036; stroke-width: 1.25;" x1="3.75" x2="190" y1="114.7852" y2="114.7852"/><text fill="#000000" font-family="sans-serif" font-size="16.25" lengthAdjust="spacingAndGlyphs" textLength="170" x="15.625" y="108.7146">execute("search Alice")</text><polygon fill="#A80036" points="445,147.7246,457.5,152.7246,445,157.7246,450,152.7246" style="stroke: #A80036; stroke-width: 1.25;"/><line style="stroke: #A80036; stroke-width: 1.25;" x1="210" x2="452.5" y1="152.7246" y2="152.7246"/><text fill="#000000" font-family="sans-serif" font-size="16.25" lengthAdjust="spacingAndGlyphs" textLength="226.25" x="221.875" y="146.6541">parseCommand("search Alice")</text><polygon fill="#A80036" points="551.25,165.2246,563.75,170.2246,551.25,175.2246,556.25,170.2246" style="stroke: #A80036; stroke-width: 1.25;"/><line style="stroke: #A80036; stroke-width: 1.25;" x1="472.5" x2="558.75" y1="170.2246" y2="170.2246"/><rect fill="#3333C4" height="39.5117" style="stroke: #A80036; stroke-width: 1.875;" width="211.25" x="566.25" y="162.7246"/><text fill="#FFFFFF" font-family="sans-serif" font-size="17.5" lengthAdjust="spacingAndGlyphs" textLength="193.75" x="575" y="189.6411">:SearchCommandParser</text><polygon fill="#A80036" points="486.25,218.4863,473.75,223.4863,486.25,228.4863,481.25,223.4863" style="stroke: #A80036; stroke-width: 1.25;"/><line style="stroke: #A80036; stroke-width: 1.25; stroke-dasharray: 2.0,2.0;" x1="478.75" x2="670.625" y1="223.4863" y2="223.4863"/><polygon fill="#A80036" points="650.625,256.4258,663.125,261.4258,650.625,266.4258,655.625,261.4258" style="stroke: #A80036; stroke-width: 1.25;"/><line style="stroke: #A80036; stroke-width: 1.25;" x1="472.5" x2="658.125" y1="261.4258" y2="261.4258"/><text fill="#000000" font-family="sans-serif" font-size="16.25" lengthAdjust="spacingAndGlyphs" textLength="98.75" x="519.6875" y="255.3552">parse("Alice")</text><polygon fill="#A80036" points="800,273.9258,812.5,278.9258,800,283.9258,805,278.9258" style="stroke: #A80036; stroke-width: 1.25;"/><line style="stroke: #A80036; stroke-width: 1.25;" x1="678.125" x2="807.5" y1="278.9258" y2="278.9258"/><rect fill="#3333C4" height="39.5117" style="stroke: #A80036; stroke-width: 1.875;" width="370" x="815" y="271.4258"/><text fill="#FFFFFF" font-family="sans-serif" font-size="17.5" lengthAdjust="spacingAndGlyphs" textLength="352.5" x="823.75" y="298.3423">orderPred:OrderContainsKeywordsPredicate</text><polygon fill="#A80036" points="691.875,347.627,679.375,352.627,691.875,357.627,686.875,352.627" style="stroke: #A80036; stroke-width: 1.25;"/><line style="stroke: #A80036; stroke-width: 1.25; stroke-dasharray: 2.0,2.0;" x1="684.375" x2="998.75" y1="352.627" y2="352.627"/><text fill="#000000" font-family="sans-serif" font-size="16.25" lengthAdjust="spacingAndGlyphs" textLength="70" x="804.0625" y="346.5564">orderPred</text><polygon fill="#A80036" points="1207.5,365.127,1220,370.127,1207.5,375.127,1212.5,370.127" style="stroke: #A80036; stroke-width: 1.25;"/><line style="stroke: #A80036; stroke-width: 1.25;" x1="678.125" x2="1215" y1="370.127" y2="370.127"/><rect fill="#3333C4" height="39.5117" style="stroke: #A80036; stroke-width: 1.875;" width="428.75" x="1222.5" y="362.627"/><text fill="#FFFFFF" font-family="sans-serif" font-size="17.5" lengthAdjust="spacingAndGlyphs" textLength="411.25" x="1231.25" y="389.5435">returnPred:ReturnOrderContiansKeywordsPredicate</text><polygon fill="#A80036" points="691.875,438.8281,679.375,443.8281,691.875,448.8281,686.875,443.8281" style="stroke: #A80036; stroke-width: 1.25;"/><line style="stroke: #A80036; stroke-width: 1.25; stroke-dasharray: 2.0,2.0;" x1="684.375" x2="1435.625" y1="443.8281" y2="443.8281"/><text fill="#000000" font-family="sans-serif" font-size="16.25" lengthAdjust="spacingAndGlyphs" textLength="75" x="1020" y="437.7576">returnPred</text><polygon fill="#A80036" points="1673.75,456.3281,1686.25,461.3281,1673.75,466.3281,1678.75,461.3281" style="stroke: #A80036; stroke-width: 1.25;"/><line style="stroke: #A80036; stroke-width: 1.25;" x1="678.125" x2="1681.25" y1="461.3281" y2="461.3281"/><rect fill="#3333C4" height="39.5117" style="stroke: #A80036; stroke-width: 1.875;" width="167.5" x="1688.75" y="453.8281"/><text fill="#FFFFFF" font-family="sans-serif" font-size="17.5" lengthAdjust="spacingAndGlyphs" textLength="150" x="1697.5" y="480.7446">s:SearchCommand</text><polygon fill="#A80036" points="691.875,530.0293,679.375,535.0293,691.875,540.0293,686.875,535.0293" style="stroke: #A80036; stroke-width: 1.25;"/><line style="stroke: #A80036; stroke-width: 1.25; stroke-dasharray: 2.0,2.0;" x1="684.375" x2="1771.25" y1="535.0293" y2="535.0293"/><text fill="#000000" font-family="sans-serif" font-size="16.25" lengthAdjust="spacingAndGlyphs" textLength="8.75" x="1220.9375" y="528.9587">s</text><polygon fill="#A80036" points="486.25,567.9688,473.75,572.9688,486.25,577.9688,481.25,572.9688" style="stroke: #A80036; stroke-width: 1.25;"/><line style="stroke: #A80036; stroke-width: 1.25; stroke-dasharray: 2.0,2.0;" x1="478.75" x2="670.625" y1="572.9688" y2="572.9688"/><text fill="#000000" font-family="sans-serif" font-size="16.25" lengthAdjust="spacingAndGlyphs" textLength="8.75" x="567.8125" y="566.8982">s</text><line style="stroke: #A80036; stroke-width: 2.5;" x1="660.625" x2="683.125" y1="579.2188" y2="601.7188"/><line style="stroke: #A80036; stroke-width: 2.5;" x1="660.625" x2="683.125" y1="601.7188" y2="579.2188"/><polygon fill="#A80036" points="223.75,623.4082,211.25,628.4082,223.75,633.4082,218.75,628.4082" style="stroke: #A80036; stroke-width: 1.25;"/><line style="stroke: #A80036; stroke-width: 1.25; stroke-dasharray: 2.0,2.0;" x1="216.25" x2="465" y1="628.4082" y2="628.4082"/><text fill="#000000" font-family="sans-serif" font-size="16.25" lengthAdjust="spacingAndGlyphs" textLength="8.75" x="333.75" y="622.3376">s</text><polygon fill="#A80036" points="1751.25,661.3477,1763.75,666.3477,1751.25,671.3477,1756.25,666.3477" style="stroke: #A80036; stroke-width: 1.25;"/><line style="stroke: #A80036; stroke-width: 1.25;" x1="210" x2="1758.75" y1="666.3477" y2="666.3477"/><text fill="#000000" font-family="sans-serif" font-size="16.25" lengthAdjust="spacingAndGlyphs" textLength="111.25" x="932.5" y="660.2771">execute(model)</text><polygon fill="#A80036" points="2146.25,699.2871,2158.75,704.2871,2146.25,709.2871,2151.25,704.2871" style="stroke: #A80036; stroke-width: 1.25;"/><line style="stroke: #A80036; stroke-width: 1.25;" x1="1778.75" x2="2153.75" y1="704.2871" y2="704.2871"/><text fill="#000000" font-family="sans-serif" font-size="16.25" lengthAdjust="spacingAndGlyphs" textLength="248.75" x="1845.625" y="698.2166">updateFilteredOrderList(orderPred)</text><polygon fill="#A80036" points="1792.5,716.7871,1780,721.7871,1792.5,726.7871,1787.5,721.7871" style="stroke: #A80036; stroke-width: 1.25;"/><line style="stroke: #A80036; stroke-width: 1.25; stroke-dasharray: 2.0,2.0;" x1="1785" x2="2166.25" y1="721.7871" y2="721.7871"/><polygon fill="#A80036" points="2146.25,754.7266,2158.75,759.7266,2146.25,764.7266,2151.25,759.7266" style="stroke: #A80036; stroke-width: 1.25;"/><line style="stroke: #A80036; stroke-width: 1.25;" x1="1778.75" x2="2153.75" y1="759.7266" y2="759.7266"/><text fill="#000000" font-family="sans-serif" font-size="16.25" lengthAdjust="spacingAndGlyphs" textLength="301.25" x="1819.375" y="753.656">updateFilteredReturnOrderList(returnPred)</text><polygon fill="#A80036" points="1792.5,772.2266,1780,777.2266,1792.5,782.2266,1787.5,777.2266" style="stroke: #A80036; stroke-width: 1.25;"/><line style="stroke: #A80036; stroke-width: 1.25; stroke-dasharray: 2.0,2.0;" x1="1785" x2="2166.25" y1="777.2266" y2="777.2266"/><polygon fill="#A80036" points="1878.75,789.7266,1891.25,794.7266,1878.75,799.7266,1883.75,794.7266" style="stroke: #A80036; stroke-width: 1.25;"/><line style="stroke: #A80036; stroke-width: 1.25;" x1="1778.75" x2="1886.25" y1="794.7266" y2="794.7266"/><rect fill="#3333C4" height="39.5117" style="stroke: #A80036; stroke-width: 1.875;" width="196.25" x="1893.75" y="787.2266"/><text fill="#FFFFFF" font-family="sans-serif" font-size="17.5" lengthAdjust="spacingAndGlyphs" textLength="178.75" x="1902.5" y="814.1431">result:CommandResult</text><polygon fill="#A80036" points="1792.5,842.9883,1780,847.9883,1792.5,852.9883,1787.5,847.9883" style="stroke: #A80036; stroke-width: 1.25;"/><line style="stroke: #A80036; stroke-width: 1.25; stroke-dasharray: 2.0,2.0;" x1="1785" x2="1990.625" y1="847.9883" y2="847.9883"/><polygon fill="#A80036" points="223.75,880.9277,211.25,885.9277,223.75,890.9277,218.75,885.9277" style="stroke: #A80036; stroke-width: 1.25;"/><line style="stroke: #A80036; stroke-width: 1.25; stroke-dasharray: 2.0,2.0;" x1="216.25" x2="1771.25" y1="885.9277" y2="885.9277"/><text fill="#000000" font-family="sans-serif" font-size="16.25" lengthAdjust="spacingAndGlyphs" textLength="40" x="971.25" y="879.8572">result</text><polygon fill="#A80036" points="17.5,898.4277,5,903.4277,17.5,908.4277,12.5,903.4277" style="stroke: #A80036; stroke-width: 1.25;"/><line style="stroke: #A80036; stroke-width: 1.25; stroke-dasharray: 2.0,2.0;" x1="10" x2="202.5" y1="903.4277" y2="903.4277"/><!--MD5=[9f023cc3551c1e6982f4fcafe4840092]
@startuml








skinparam BackgroundColor #FFFFFFF

skinparam Shadowing false

skinparam Class {
    FontColor #FFFFFF
    BorderThickness 1
    BorderColor #FFFFFF
    StereotypeFontColor #FFFFFF
    FontName Arial
}

skinparam Actor {
    BorderColor #000000
    Color #000000
    FontName Arial
}

skinparam Sequence {
    MessageAlign center
    BoxFontSize 15
    BoxPadding 0
    BoxFontColor #FFFFFF
    FontName Arial
}

skinparam Participant {
    FontColor #FFFFFFF
    Padding 20
}

skinparam MinClassWidth 50
skinparam ParticipantPadding 10
skinparam Shadowing false
skinparam DefaultTextAlignment center
skinparam packageStyle Rectangle

hide footbox
hide members
hide circle
box Logic #C8C8FA
participant ":LogicManager" as LogicManager #3333C4
participant ":DelinoParser" as DelinoParser #3333C4
participant ":SearchCommandParser" as SearchCommandParser #3333C4
participant "orderPred:OrderContainsKeywordsPredicate" as OrderContainsKeywordsPredicate #3333C4
participant "returnPred:ReturnOrderContiansKeywordsPredicate" as ReturnOrderContiansKeywordsPredicate #3333C4
participant "s:SearchCommand" as SearchCommand #3333C4
participant "result:CommandResult" as CommandResult #3333C4
end box

box Model #F97181
participant ":Model" as Model #9D0012
end box

[-> LogicManager : execute("search Alice")
activate LogicManager

LogicManager -> DelinoParser : parseCommand("search Alice")
activate DelinoParser

create SearchCommandParser
DelinoParser -> SearchCommandParser
activate SearchCommandParser

SearchCommandParser - -> DelinoParser
deactivate SearchCommandParser

DelinoParser -> SearchCommandParser : parse("Alice")
activate SearchCommandParser

create OrderContainsKeywordsPredicate
SearchCommandParser -> OrderContainsKeywordsPredicate
activate OrderContainsKeywordsPredicate

OrderContainsKeywordsPredicate - -> SearchCommandParser : orderPred
deactivate OrderContainsKeywordsPredicate

create ReturnOrderContiansKeywordsPredicate
SearchCommandParser -> ReturnOrderContiansKeywordsPredicate
activate ReturnOrderContiansKeywordsPredicate

ReturnOrderContiansKeywordsPredicate - -> SearchCommandParser : returnPred
deactivate ReturnOrderContiansKeywordsPredicate

create SearchCommand
SearchCommandParser -> SearchCommand
activate SearchCommand

SearchCommand - -> SearchCommandParser : s
deactivate SearchCommand

SearchCommandParser - -> DelinoParser : s
deactivate SearchCommandParser
SearchCommandParser -[hidden]-> DelinoParser
destroy SearchCommandParser

DelinoParser - -> LogicManager : s
deactivate DelinoParser

LogicManager -> SearchCommand : execute(model)
activate SearchCommand


SearchCommand -> Model : updateFilteredOrderList(orderPred)
activate Model

Model - -> SearchCommand
deactivate Model
SearchCommand -> Model : updateFilteredReturnOrderList(returnPred)
activate Model

Model - -> SearchCommand
deactivate Model


create CommandResult
SearchCommand -> CommandResult
activate CommandResult

CommandResult - -> SearchCommand
deactivate CommandResult

SearchCommand - -> LogicManager : result
deactivate SearchCommand

[<- -LogicManager
deactivate LogicManager
@enduml

PlantUML version 1.2020.03beta6(Unknown compile time)
(GPL source distribution)
Java Runtime: OpenJDK Runtime Environment
JVM: OpenJDK 64-Bit Server VM
Java Version: 11.0.5+10-b520.30
Operating System: Windows 10
Default Encoding: UTF-8
Language: en
Country: US
--></g></svg>
