<?xml version="1.0" encoding="UTF-8" standalone="no"?><svg xmlns="http://www.w3.org/2000/svg" xmlns:xlink="http://www.w3.org/1999/xlink" contentScriptType="application/ecmascript" contentStyleType="text/css" height="946.5px" preserveAspectRatio="none" style="width:2682px;height:946px;" version="1.1" viewBox="0 0 2682 946" width="2682px" zoomAndPan="magnify"><defs><filter height="300%" id="f1hir1s9hspj0k" width="300%" x="-1" y="-1"><feGaussianBlur result="blurOut" stdDeviation="3.0"/><feColorMatrix in="blurOut" result="blurOut2" type="matrix" values="0 0 0 0 0 0 0 0 0 0 0 0 0 0 0 0 0 0 .4 0"/><feOffset dx="6.0" dy="6.0" in="blurOut2" result="blurOut3"/><feBlend in="SourceGraphic" in2="blurOut3" mode="normal"/></filter></defs><g><ellipse cx="798.1406" cy="30" fill="#000000" filter="url(#f1hir1s9hspj0k)" rx="15" ry="15" style="stroke: none; stroke-width: 1.5;"/><rect fill="#FEFECE" filter="url(#f1hir1s9hspj0k)" height="52.6406" rx="18.75" ry="18.75" style="stroke: #A80036; stroke-width: 2.25;" width="270" x="663.1406" y="75"/><text fill="#000000" font-family="sans-serif" font-size="18" lengthAdjust="spacingAndGlyphs" textLength="240" x="678.1406" y="108.6855">User inputs Show Command</text><polygon fill="#FEFECE" filter="url(#f1hir1s9hspj0k)" points="798.1406,167.5239,798.1406,167.5239,816.1406,185.5239,798.1406,203.5239,798.1406,203.5239,780.1406,185.5239,798.1406,167.5239" style="stroke: #A80036; stroke-width: 2.25;"/><text fill="#000000" font-family="sans-serif" font-size="16.5" lengthAdjust="spacingAndGlyphs" textLength="226.5" x="553.6406" y="161.1445">[Input has less than 1 argument</text><text fill="#000000" font-family="sans-serif" font-size="16.5" lengthAdjust="spacingAndGlyphs" textLength="217.5" x="553.6406" y="181.8984">OR more than two arguments]</text><text fill="#000000" font-family="sans-serif" font-size="16.5" lengthAdjust="spacingAndGlyphs" textLength="232.5" x="816.1406" y="181.8984">[Input is either 1 or 2 arguments]</text><rect fill="#FEFECE" filter="url(#f1hir1s9hspj0k)" height="52.6406" rx="18.75" ry="18.75" style="stroke: #A80036; stroke-width: 2.25;" width="240" x="15" y="218.5239"/><text fill="#000000" font-family="sans-serif" font-size="18" lengthAdjust="spacingAndGlyphs" textLength="210" x="30" y="252.2095">Throws a ParseException</text><rect fill="#FEFECE" filter="url(#f1hir1s9hspj0k)" height="75.2813" rx="18.75" ry="18.75" style="stroke: #A80036; stroke-width: 2.25;" width="235.5" x="17.25" y="323.6646"/><text fill="#000000" font-family="sans-serif" font-size="18" lengthAdjust="spacingAndGlyphs" textLength="205.5" x="32.25" y="357.3501">Returns failure message</text><text fill="#000000" font-family="sans-serif" font-size="18" lengthAdjust="spacingAndGlyphs" textLength="159" x="32.25" y="379.9907">(Invalid arguments)</text><polygon fill="#FEFECE" filter="url(#f1hir1s9hspj0k)" points="1491.2813,218.5239,1491.2813,218.5239,1509.2813,236.5239,1491.2813,254.5239,1491.2813,254.5239,1473.2813,236.5239,1491.2813,218.5239" style="stroke: #A80036; stroke-width: 2.25;"/><text fill="#000000" font-family="sans-serif" font-size="16.5" lengthAdjust="spacingAndGlyphs" textLength="160.5" x="1312.7813" y="232.8984">[Input has 1 argument]</text><text fill="#000000" font-family="sans-serif" font-size="16.5" lengthAdjust="spacingAndGlyphs" textLength="198" x="1509.2813" y="232.8984">[Input have two arguments]</text><polygon fill="#FEFECE" filter="url(#f1hir1s9hspj0k)" points="426.75,307.0239,426.75,307.0239,444.75,325.0239,426.75,343.0239,426.75,343.0239,408.75,325.0239,426.75,307.0239" style="stroke: #A80036; stroke-width: 2.25;"/><text fill="#000000" font-family="sans-serif" font-size="16.5" lengthAdjust="spacingAndGlyphs" textLength="132" x="432.75" y="360.1523">[Input is 'show all']</text><rect fill="#FEFECE" filter="url(#f1hir1s9hspj0k)" height="75.2813" rx="18.75" ry="18.75" style="stroke: #A80036; stroke-width: 2.25;" width="313.5" x="270" y="393.7778"/><text fill="#000000" font-family="sans-serif" font-size="18" lengthAdjust="spacingAndGlyphs" textLength="283.5" x="285" y="427.4634">Return success message to show</text><text fill="#000000" font-family="sans-serif" font-size="18" lengthAdjust="spacingAndGlyphs" textLength="97.5" x="285" y="450.104">all statistics</text><polygon fill="#FEFECE" filter="url(#f1hir1s9hspj0k)" points="770.25,307.0239,770.25,307.0239,788.25,325.0239,770.25,343.0239,770.25,343.0239,752.25,325.0239,770.25,307.0239" style="stroke: #A80036; stroke-width: 2.25;"/><text fill="#000000" font-family="sans-serif" font-size="16.5" lengthAdjust="spacingAndGlyphs" textLength="163.5" x="776.25" y="360.1523">[Input is show `today`]</text><text fill="#000000" font-family="sans-serif" font-size="16.5" lengthAdjust="spacingAndGlyphs" textLength="157.5" x="788.25" y="321.3984">[Input is show 'DATE']</text><rect fill="#FEFECE" filter="url(#f1hir1s9hspj0k)" height="75.2813" rx="18.75" ry="18.75" style="stroke: #A80036; stroke-width: 2.25;" width="313.5" x="613.5" y="393.7778"/><text fill="#000000" font-family="sans-serif" font-size="18" lengthAdjust="spacingAndGlyphs" textLength="283.5" x="628.5" y="427.4634">Return success message to show</text><text fill="#000000" font-family="sans-serif" font-size="18" lengthAdjust="spacingAndGlyphs" textLength="193.5" x="628.5" y="450.104">today's orders statistics</text><polygon fill="#FEFECE" filter="url(#f1hir1s9hspj0k)" points="1265.625,366.2124,1265.625,366.2124,1283.625,384.2124,1265.625,402.2124,1265.625,402.2124,1247.625,384.2124,1265.625,366.2124" style="stroke: #A80036; stroke-width: 2.25;"/><text fill="#000000" font-family="sans-serif" font-size="16.5" lengthAdjust="spacingAndGlyphs" textLength="121.5" x="1126.125" y="380.5869">['DATE' is invalid]</text><text fill="#000000" font-family="sans-serif" font-size="16.5" lengthAdjust="spacingAndGlyphs" textLength="109.5" x="1283.625" y="380.5869">['DATE' is valid]</text><rect fill="#FEFECE" filter="url(#f1hir1s9hspj0k)" height="52.6406" rx="18.75" ry="18.75" style="stroke: #A80036; stroke-width: 2.25;" width="256.5" x="978.75" y="417.2124"/><text fill="#000000" font-family="sans-serif" font-size="18" lengthAdjust="spacingAndGlyphs" textLength="226.5" x="993.75" y="450.8979">Throws DateTimeException</text><rect fill="#FEFECE" filter="url(#f1hir1s9hspj0k)" height="52.6406" rx="18.75" ry="18.75" style="stroke: #A80036; stroke-width: 2.25;" width="225" x="994.5" y="522.353"/><text fill="#000000" font-family="sans-serif" font-size="18" lengthAdjust="spacingAndGlyphs" textLength="195" x="1009.5" y="556.0386">Return failure message</text><rect fill="#FEFECE" filter="url(#f1hir1s9hspj0k)" height="75.2813" rx="18.75" ry="18.75" style="stroke: #A80036; stroke-width: 2.25;" width="318" x="1265.25" y="417.2124"/><text fill="#000000" font-family="sans-serif" font-size="18" lengthAdjust="spacingAndGlyphs" textLength="283.5" x="1284.75" y="450.8979">Return success message to show</text><text fill="#000000" font-family="sans-serif" font-size="18" lengthAdjust="spacingAndGlyphs" textLength="190.5" x="1280.25" y="473.5386">statistics for this 'DATE'</text><polygon fill="#FEFECE" filter="url(#f1hir1s9hspj0k)" points="1265.625,583.9937,1283.625,601.9937,1265.625,619.9937,1247.625,601.9937,1265.625,583.9937" style="stroke: #A80036; stroke-width: 2.25;"/><polygon fill="#FEFECE" filter="url(#f1hir1s9hspj0k)" points="2048.4375,269.5239,2048.4375,269.5239,2066.4375,287.5239,2048.4375,305.5239,2048.4375,305.5239,2030.4375,287.5239,2048.4375,269.5239" style="stroke: #A80036; stroke-width: 2.25;"/><text fill="#000000" font-family="sans-serif" font-size="16.5" lengthAdjust="spacingAndGlyphs" textLength="171" x="1859.4375" y="283.8984">[The date(s) are invalid]</text><text fill="#000000" font-family="sans-serif" font-size="16.5" lengthAdjust="spacingAndGlyphs" textLength="117" x="2066.4375" y="283.8984">[Dates are valid]</text><rect fill="#FEFECE" filter="url(#f1hir1s9hspj0k)" height="52.6406" rx="18.75" ry="18.75" style="stroke: #A80036; stroke-width: 2.25;" width="271.5" x="1643.25" y="320.5239"/><text fill="#000000" font-family="sans-serif" font-size="18" lengthAdjust="spacingAndGlyphs" textLength="241.5" x="1658.25" y="354.2095">Throws a DateTimeException</text><rect fill="#FEFECE" filter="url(#f1hir1s9hspj0k)" height="75.2813" rx="18.75" ry="18.75" style="stroke: #A80036; stroke-width: 2.25;" width="250.5" x="1653.75" y="425.6646"/><text fill="#000000" font-family="sans-serif" font-size="18" lengthAdjust="spacingAndGlyphs" textLength="220.5" x="1668.75" y="459.3501">Returns a failure message</text><text fill="#000000" font-family="sans-serif" font-size="18" lengthAdjust="spacingAndGlyphs" textLength="115.5" x="1668.75" y="481.9907">(Invalid dates)</text><polygon fill="#FEFECE" filter="url(#f1hir1s9hspj0k)" points="2317.875,320.5239,2317.875,320.5239,2335.875,338.5239,2317.875,356.5239,2317.875,356.5239,2299.875,338.5239,2317.875,320.5239" style="stroke: #A80036; stroke-width: 2.25;"/><text fill="#000000" font-family="sans-serif" font-size="16.5" lengthAdjust="spacingAndGlyphs" textLength="232.5" x="2067.375" y="334.8984">[Start Date is after the End Date]</text><text fill="#000000" font-family="sans-serif" font-size="16.5" lengthAdjust="spacingAndGlyphs" textLength="193.5" x="2335.875" y="334.8984">Start Date before End Date</text><rect fill="#FEFECE" filter="url(#f1hir1s9hspj0k)" height="52.6406" rx="18.75" ry="18.75" style="stroke: #A80036; stroke-width: 2.25;" width="240" x="2013.75" y="371.5239"/><text fill="#000000" font-family="sans-serif" font-size="18" lengthAdjust="spacingAndGlyphs" textLength="210" x="2028.75" y="405.2095">Throws a ParseException</text><rect fill="#FEFECE" filter="url(#f1hir1s9hspj0k)" height="75.2813" rx="18.75" ry="18.75" style="stroke: #A80036; stroke-width: 2.25;" width="348" x="1959.75" y="476.6646"/><text fill="#000000" font-family="sans-serif" font-size="18" lengthAdjust="spacingAndGlyphs" textLength="217.5" x="1974.75" y="510.3501">Returns a failure Message</text><text fill="#000000" font-family="sans-serif" font-size="18" lengthAdjust="spacingAndGlyphs" textLength="318" x="1974.75" y="532.9907">(Start Date should be before End Date)</text><rect fill="#FEFECE" filter="url(#f1hir1s9hspj0k)" height="75.2813" rx="18.75" ry="18.75" style="stroke: #A80036; stroke-width: 2.25;" width="328.5" x="2337.75" y="371.5239"/><text fill="#000000" font-family="sans-serif" font-size="18" lengthAdjust="spacingAndGlyphs" textLength="294" x="2357.25" y="405.2095">Returns success message to show</text><text fill="#000000" font-family="sans-serif" font-size="18" lengthAdjust="spacingAndGlyphs" textLength="223.5" x="2352.75" y="427.8501">from Start Date to End Date</text><polygon fill="#FEFECE" filter="url(#f1hir1s9hspj0k)" points="2317.875,560.9458,2335.875,578.9458,2317.875,596.9458,2299.875,578.9458,2317.875,560.9458" style="stroke: #A80036; stroke-width: 2.25;"/><polygon fill="#FEFECE" filter="url(#f1hir1s9hspj0k)" points="2048.4375,605.9458,2066.4375,623.9458,2048.4375,641.9458,2030.4375,623.9458,2048.4375,605.9458" style="stroke: #A80036; stroke-width: 2.25;"/><polygon fill="#FEFECE" filter="url(#f1hir1s9hspj0k)" points="1491.2813,680.9458,1509.2813,698.9458,1491.2813,716.9458,1473.2813,698.9458,1491.2813,680.9458" style="stroke: #A80036; stroke-width: 2.25;"/><polygon fill="#FEFECE" filter="url(#f1hir1s9hspj0k)" points="798.1406,725.9458,816.1406,743.9458,798.1406,761.9458,780.1406,743.9458,798.1406,725.9458" style="stroke: #A80036; stroke-width: 2.25;"/><rect fill="#FEFECE" filter="url(#f1hir1s9hspj0k)" height="75.2813" rx="18.75" ry="18.75" style="stroke: #A80036; stroke-width: 2.25;" width="301.5" x="647.3906" y="791.9458"/><text fill="#000000" font-family="sans-serif" font-size="18" lengthAdjust="spacingAndGlyphs" textLength="271.5" x="662.3906" y="825.6313">LogicManager prints message to</text><text fill="#000000" font-family="sans-serif" font-size="18" lengthAdjust="spacingAndGlyphs" textLength="270" x="662.3906" y="848.272">user and executes the command</text><ellipse cx="798.1406" cy="913.7271" fill="#FFFFFF" filter="url(#f1hir1s9hspj0k)" rx="16.5" ry="16.5" style="stroke: #000000; stroke-width: 1.5;"/><ellipse cx="798.1406" cy="913.7271" fill="#000000" rx="9" ry="9" style="stroke: #7F7F7F; stroke-width: 1.5;"/><line style="stroke: #A80036; stroke-width: 2.25;" x1="798.1406" x2="798.1406" y1="45" y2="75"/><polygon fill="#A80036" points="792.1406,60,798.1406,75,804.1406,60,798.1406,66" style="stroke: #A80036; stroke-width: 1.5;"/><line style="stroke: #A80036; stroke-width: 2.25;" x1="135" x2="135" y1="271.1646" y2="323.6646"/><polygon fill="#A80036" points="129,308.6646,135,323.6646,141,308.6646,135,314.6646" style="stroke: #A80036; stroke-width: 1.5;"/><line style="stroke: #A80036; stroke-width: 2.25;" x1="1107" x2="1107" y1="469.853" y2="522.353"/><polygon fill="#A80036" points="1101,507.353,1107,522.353,1113,507.353,1107,513.353" style="stroke: #A80036; stroke-width: 1.5;"/><line style="stroke: #A80036; stroke-width: 2.25;" x1="1247.625" x2="1107" y1="384.2124" y2="384.2124"/><line style="stroke: #A80036; stroke-width: 2.25;" x1="1107" x2="1107" y1="384.2124" y2="417.2124"/><polygon fill="#A80036" points="1101,402.2124,1107,417.2124,1113,402.2124,1107,408.2124" style="stroke: #A80036; stroke-width: 1.5;"/><line style="stroke: #A80036; stroke-width: 2.25;" x1="1283.625" x2="1424.25" y1="384.2124" y2="384.2124"/><line style="stroke: #A80036; stroke-width: 2.25;" x1="1424.25" x2="1424.25" y1="384.2124" y2="417.2124"/><polygon fill="#A80036" points="1418.25,402.2124,1424.25,417.2124,1430.25,402.2124,1424.25,408.2124" style="stroke: #A80036; stroke-width: 1.5;"/><line style="stroke: #A80036; stroke-width: 2.25;" x1="1107" x2="1107" y1="574.9937" y2="601.9937"/><line style="stroke: #A80036; stroke-width: 2.25;" x1="1107" x2="1247.625" y1="601.9937" y2="601.9937"/><polygon fill="#A80036" points="1232.625,595.9937,1247.625,601.9937,1232.625,607.9937,1238.625,601.9937" style="stroke: #A80036; stroke-width: 1.5;"/><line style="stroke: #A80036; stroke-width: 2.25;" x1="1424.25" x2="1424.25" y1="492.4937" y2="601.9937"/><line style="stroke: #A80036; stroke-width: 2.25;" x1="1424.25" x2="1283.625" y1="601.9937" y2="601.9937"/><polygon fill="#A80036" points="1298.625,595.9937,1283.625,601.9937,1298.625,607.9937,1292.625,601.9937" style="stroke: #A80036; stroke-width: 1.5;"/><line style="stroke: #A80036; stroke-width: 2.25;" x1="426.75" x2="426.75" y1="343.0239" y2="393.7778"/><polygon fill="#A80036" points="420.75,378.7778,426.75,393.7778,432.75,378.7778,426.75,384.7778" style="stroke: #A80036; stroke-width: 1.5;"/><line style="stroke: #A80036; stroke-width: 2.25;" x1="426.75" x2="426.75" y1="469.0591" y2="671.9458"/><polygon fill="#A80036" points="420.75,656.9458,426.75,671.9458,432.75,656.9458,426.75,662.9458" style="stroke: #A80036; stroke-width: 1.5;"/><line style="stroke: #A80036; stroke-width: 2.25;" x1="770.25" x2="770.25" y1="343.0239" y2="393.7778"/><polygon fill="#A80036" points="764.25,378.7778,770.25,393.7778,776.25,378.7778,770.25,384.7778" style="stroke: #A80036; stroke-width: 1.5;"/><line style="stroke: #A80036; stroke-width: 2.25;" x1="770.25" x2="770.25" y1="469.0591" y2="671.9458"/><polygon fill="#A80036" points="764.25,656.9458,770.25,671.9458,776.25,656.9458,770.25,662.9458" style="stroke: #A80036; stroke-width: 1.5;"/><line style="stroke: #A80036; stroke-width: 2.25;" x1="444.75" x2="752.25" y1="325.0239" y2="325.0239"/><polygon fill="#A80036" points="737.25,319.0239,752.25,325.0239,737.25,331.0239,743.25,325.0239" style="stroke: #A80036; stroke-width: 1.5;"/><line style="stroke: #A80036; stroke-width: 2.25;" x1="1473.2813" x2="426.75" y1="236.5239" y2="236.5239"/><line style="stroke: #A80036; stroke-width: 2.25;" x1="426.75" x2="426.75" y1="236.5239" y2="307.0239"/><polygon fill="#A80036" points="420.75,292.0239,426.75,307.0239,432.75,292.0239,426.75,298.0239" style="stroke: #A80036; stroke-width: 1.5;"/><line style="stroke: #A80036; stroke-width: 2.25;" x1="788.25" x2="1265.625" y1="325.0239" y2="325.0239"/><line style="stroke: #A80036; stroke-width: 2.25;" x1="1265.625" x2="1265.625" y1="325.0239" y2="366.2124"/><polygon fill="#A80036" points="1259.625,351.2124,1265.625,366.2124,1271.625,351.2124,1265.625,357.2124" style="stroke: #A80036; stroke-width: 1.5;"/><line style="stroke: #A80036; stroke-width: 2.25;" x1="1265.625" x2="1265.625" y1="619.9937" y2="671.9458"/><polygon fill="#A80036" points="1259.625,656.9458,1265.625,671.9458,1271.625,656.9458,1265.625,662.9458" style="stroke: #A80036; stroke-width: 1.5;"/><line style="stroke: #A80036; stroke-width: 2.25;" x1="426.75" x2="1265.625" y1="671.9458" y2="671.9458"/><line style="stroke: #A80036; stroke-width: 2.25;" x1="1779" x2="1779" y1="373.1646" y2="425.6646"/><polygon fill="#A80036" points="1773,410.6646,1779,425.6646,1785,410.6646,1779,416.6646" style="stroke: #A80036; stroke-width: 1.5;"/><line style="stroke: #A80036; stroke-width: 2.25;" x1="2133.75" x2="2133.75" y1="424.1646" y2="476.6646"/><polygon fill="#A80036" points="2127.75,461.6646,2133.75,476.6646,2139.75,461.6646,2133.75,467.6646" style="stroke: #A80036; stroke-width: 1.5;"/><line style="stroke: #A80036; stroke-width: 2.25;" x1="2299.875" x2="2133.75" y1="338.5239" y2="338.5239"/><line style="stroke: #A80036; stroke-width: 2.25;" x1="2133.75" x2="2133.75" y1="338.5239" y2="371.5239"/><polygon fill="#A80036" points="2127.75,356.5239,2133.75,371.5239,2139.75,356.5239,2133.75,362.5239" style="stroke: #A80036; stroke-width: 1.5;"/><line style="stroke: #A80036; stroke-width: 2.25;" x1="2335.875" x2="2502" y1="338.5239" y2="338.5239"/><line style="stroke: #A80036; stroke-width: 2.25;" x1="2502" x2="2502" y1="338.5239" y2="371.5239"/><polygon fill="#A80036" points="2496,356.5239,2502,371.5239,2508,356.5239,2502,362.5239" style="stroke: #A80036; stroke-width: 1.5;"/><line style="stroke: #A80036; stroke-width: 2.25;" x1="2133.75" x2="2133.75" y1="551.9458" y2="578.9458"/><line style="stroke: #A80036; stroke-width: 2.25;" x1="2133.75" x2="2299.875" y1="578.9458" y2="578.9458"/><polygon fill="#A80036" points="2284.875,572.9458,2299.875,578.9458,2284.875,584.9458,2290.875,578.9458" style="stroke: #A80036; stroke-width: 1.5;"/><line style="stroke: #A80036; stroke-width: 2.25;" x1="2502" x2="2502" y1="446.8052" y2="578.9458"/><line style="stroke: #A80036; stroke-width: 2.25;" x1="2502" x2="2335.875" y1="578.9458" y2="578.9458"/><polygon fill="#A80036" points="2350.875,572.9458,2335.875,578.9458,2350.875,584.9458,2344.875,578.9458" style="stroke: #A80036; stroke-width: 1.5;"/><line style="stroke: #A80036; stroke-width: 2.25;" x1="2030.4375" x2="1779" y1="287.5239" y2="287.5239"/><line style="stroke: #A80036; stroke-width: 2.25;" x1="1779" x2="1779" y1="287.5239" y2="320.5239"/><polygon fill="#A80036" points="1773,305.5239,1779,320.5239,1785,305.5239,1779,311.5239" style="stroke: #A80036; stroke-width: 1.5;"/><line style="stroke: #A80036; stroke-width: 2.25;" x1="2066.4375" x2="2317.875" y1="287.5239" y2="287.5239"/><line style="stroke: #A80036; stroke-width: 2.25;" x1="2317.875" x2="2317.875" y1="287.5239" y2="320.5239"/><polygon fill="#A80036" points="2311.875,305.5239,2317.875,320.5239,2323.875,305.5239,2317.875,311.5239" style="stroke: #A80036; stroke-width: 1.5;"/><line style="stroke: #A80036; stroke-width: 2.25;" x1="1779" x2="1779" y1="500.9458" y2="623.9458"/><line style="stroke: #A80036; stroke-width: 2.25;" x1="1779" x2="2030.4375" y1="623.9458" y2="623.9458"/><polygon fill="#A80036" points="2015.4375,617.9458,2030.4375,623.9458,2015.4375,629.9458,2021.4375,623.9458" style="stroke: #A80036; stroke-width: 1.5;"/><line style="stroke: #A80036; stroke-width: 2.25;" x1="2317.875" x2="2317.875" y1="596.9458" y2="623.9458"/><line style="stroke: #A80036; stroke-width: 2.25;" x1="2317.875" x2="2066.4375" y1="623.9458" y2="623.9458"/><polygon fill="#A80036" points="2081.4375,617.9458,2066.4375,623.9458,2081.4375,629.9458,2075.4375,623.9458" style="stroke: #A80036; stroke-width: 1.5;"/><line style="stroke: #A80036; stroke-width: 2.25;" x1="1509.2813" x2="2048.4375" y1="236.5239" y2="236.5239"/><line style="stroke: #A80036; stroke-width: 2.25;" x1="2048.4375" x2="2048.4375" y1="236.5239" y2="269.5239"/><polygon fill="#A80036" points="2042.4375,254.5239,2048.4375,269.5239,2054.4375,254.5239,2048.4375,260.5239" style="stroke: #A80036; stroke-width: 1.5;"/><line style="stroke: #A80036; stroke-width: 2.25;" x1="934.125" x2="934.125" y1="671.9458" y2="698.9458"/><line style="stroke: #A80036; stroke-width: 2.25;" x1="934.125" x2="1473.2813" y1="698.9458" y2="698.9458"/><polygon fill="#A80036" points="1458.2813,692.9458,1473.2813,698.9458,1458.2813,704.9458,1464.2813,698.9458" style="stroke: #A80036; stroke-width: 1.5;"/><line style="stroke: #A80036; stroke-width: 2.25;" x1="2048.4375" x2="2048.4375" y1="641.9458" y2="698.9458"/><line style="stroke: #A80036; stroke-width: 2.25;" x1="2048.4375" x2="1509.2813" y1="698.9458" y2="698.9458"/><polygon fill="#A80036" points="1524.2813,692.9458,1509.2813,698.9458,1524.2813,704.9458,1518.2813,698.9458" style="stroke: #A80036; stroke-width: 1.5;"/><line style="stroke: #A80036; stroke-width: 2.25;" x1="780.1406" x2="135" y1="185.5239" y2="185.5239"/><line style="stroke: #A80036; stroke-width: 2.25;" x1="135" x2="135" y1="185.5239" y2="218.5239"/><polygon fill="#A80036" points="129,203.5239,135,218.5239,141,203.5239,135,209.5239" style="stroke: #A80036; stroke-width: 1.5;"/><line style="stroke: #A80036; stroke-width: 2.25;" x1="816.1406" x2="1491.2813" y1="185.5239" y2="185.5239"/><line style="stroke: #A80036; stroke-width: 2.25;" x1="1491.2813" x2="1491.2813" y1="185.5239" y2="218.5239"/><polygon fill="#A80036" points="1485.2813,203.5239,1491.2813,218.5239,1497.2813,203.5239,1491.2813,209.5239" style="stroke: #A80036; stroke-width: 1.5;"/><line style="stroke: #A80036; stroke-width: 2.25;" x1="135" x2="135" y1="398.9458" y2="743.9458"/><line style="stroke: #A80036; stroke-width: 2.25;" x1="135" x2="780.1406" y1="743.9458" y2="743.9458"/><polygon fill="#A80036" points="765.1406,737.9458,780.1406,743.9458,765.1406,749.9458,771.1406,743.9458" style="stroke: #A80036; stroke-width: 1.5;"/><line style="stroke: #A80036; stroke-width: 2.25;" x1="1491.2813" x2="1491.2813" y1="716.9458" y2="743.9458"/><line style="stroke: #A80036; stroke-width: 2.25;" x1="1491.2813" x2="816.1406" y1="743.9458" y2="743.9458"/><polygon fill="#A80036" points="831.1406,737.9458,816.1406,743.9458,831.1406,749.9458,825.1406,743.9458" style="stroke: #A80036; stroke-width: 1.5;"/><line style="stroke: #A80036; stroke-width: 2.25;" x1="798.1406" x2="798.1406" y1="127.6406" y2="167.5239"/><polygon fill="#A80036" points="792.1406,152.5239,798.1406,167.5239,804.1406,152.5239,798.1406,158.5239" style="stroke: #A80036; stroke-width: 1.5;"/><line style="stroke: #A80036; stroke-width: 2.25;" x1="798.1406" x2="798.1406" y1="761.9458" y2="791.9458"/><polygon fill="#A80036" points="792.1406,776.9458,798.1406,791.9458,804.1406,776.9458,798.1406,782.9458" style="stroke: #A80036; stroke-width: 1.5;"/><line style="stroke: #A80036; stroke-width: 2.25;" x1="798.1406" x2="798.1406" y1="867.2271" y2="897.2271"/><polygon fill="#A80036" points="792.1406,882.2271,798.1406,897.2271,804.1406,882.2271,798.1406,888.2271" style="stroke: #A80036; stroke-width: 1.5;"/><!--MD5=[a7492af1e8b5a53cd55146ceefebe94e]
@startuml
start
:User inputs Show Command;

If () then ([Input has less than 1 argument
OR more than two arguments])
    :Throws a ParseException;
    :Returns failure message
    (Invalid arguments);
else ([Input is either 1 or 2 arguments])
    If () then ([Input has 1 argument])
        If () then ([Input is 'show all'])
            :Return success message to show
            all statistics;
        else If() then ([Input is show `today`])
            :Return success message to show
            today's orders statistics;
        else ([Input is show 'DATE'])
            If() then (['DATE' is invalid])
                :Throws DateTimeException;
                :Return failure message;
            else (['DATE' is valid])
                : Return success message to show
                statistics for this 'DATE';
            endif
        endif
    else ([Input have two arguments])
        If () then ([The date(s) are invalid])
            :Throws a DateTimeException;
            :Returns a failure message
            (Invalid dates);
        else ([Dates are valid])
            If () then ([Start Date is after the End Date])
                :Throws a ParseException;
                :Returns a failure Message
                (Start Date should be before End Date);
            else (Start Date before End Date)
                : Returns success message to show
                from Start Date to End Date;
            endif
        endif
    endif
endif
:LogicManager prints message to
user and executes the command;
stop
@enduml

PlantUML version 1.2019.11(Sun Sep 22 18:02:15 SGT 2019)
(GPL source distribution)
Java Runtime: OpenJDK Runtime Environment
JVM: OpenJDK 64-Bit Server VM
Java Version: 11.0.5+10-b520.17
Operating System: Windows 10
Default Encoding: UTF-8
Language: en
Country: SG
--></g></svg>
