<?xml version="1.0" encoding="UTF-8" standalone="no"?><svg xmlns="http://www.w3.org/2000/svg" xmlns:xlink="http://www.w3.org/1999/xlink" contentScriptType="application/ecmascript" contentStyleType="text/css" height="781.5px" preserveAspectRatio="none" style="width:1318px;height:781px;" version="1.1" viewBox="0 0 1318 781" width="1318.5px" zoomAndPan="magnify"><defs/><g><rect fill="#C8C8FA" height="748.8164" style="stroke: #A80036; stroke-width: 1.5;" width="1197" x="105" y="6"/><text fill="#FFFFFF" font-family="sans-serif" font-size="22.5" font-weight="bold" lengthAdjust="spacingAndGlyphs" textLength="58.5" x="671.25" y="29.3569">Logic</text><rect fill="#FFFFFF" height="584.0742" style="stroke: #A80036; stroke-width: 1.5;" width="15" x="199.5" y="152.7422"/><rect fill="#FFFFFF" height="260.4961" style="stroke: #A80036; stroke-width: 1.5;" width="15" x="422.25" y="183.2695"/><rect fill="#FFFFFF" height="154.4414" style="stroke: #A80036; stroke-width: 1.5;" width="15" x="705" y="243.7969"/><rect fill="#FFFFFF" height="37.5" style="stroke: #A80036; stroke-width: 1.5;" width="15" x="712.5" y="304.7109"/><rect fill="#FFFFFF" height="154.9688" style="stroke: #A80036; stroke-width: 1.5;" width="15" x="705" y="489.293"/><rect fill="#FFFFFF" height="48.9141" style="stroke: #A80036; stroke-width: 1.5;" width="15" x="1113.75" y="549.8203"/><rect fill="#FFFFFF" height="48.9141" style="stroke: #A80036; stroke-width: 1.5;" width="15" x="1113.75" y="549.8203"/><rect fill="#3333C4" height="47.4141" style="stroke: #A80036; stroke-width: 2.25;" width="265.5" x="579.75" y="195.2695"/><text fill="#FFFFFF" font-family="sans-serif" font-size="21" lengthAdjust="spacingAndGlyphs" textLength="244.5" x="590.25" y="227.5693">command:ShowCommand</text><rect fill="#3333C4" height="47.4141" style="stroke: #A80036; stroke-width: 2.25;" width="334.5" x="946.5" y="501.293"/><text fill="#FFFFFF" font-family="sans-serif" font-size="21" lengthAdjust="spacingAndGlyphs" textLength="313.5" x="957" y="533.5928">commandResult:CommandResult</text><line style="stroke: #A80036; stroke-width: 1.5; stroke-dasharray: 5.0,5.0;" x1="207" x2="207" y1="89.2148" y2="763.8164"/><line style="stroke: #A80036; stroke-width: 1.5; stroke-dasharray: 5.0,5.0;" x1="429" x2="429" y1="89.2148" y2="763.8164"/><line style="stroke: #A80036; stroke-width: 1.5; stroke-dasharray: 5.0,5.0;" x1="711.75" x2="711.75" y1="242.2266" y2="763.8164"/><line style="stroke: #A80036; stroke-width: 1.5; stroke-dasharray: 5.0,5.0;" x1="1113" x2="1113" y1="548.25" y2="763.8164"/><rect fill="#3333C4" height="47.4141" style="stroke: #A80036; stroke-width: 2.25;" width="162" x="126" y="40.3008"/><text fill="#FFFFFF" font-family="sans-serif" font-size="21" lengthAdjust="spacingAndGlyphs" textLength="141" x="136.5" y="72.6006">:LogicManager</text><rect fill="#3333C4" height="47.4141" style="stroke: #A80036; stroke-width: 2.25;" width="193.5" x="333" y="40.3008"/><text fill="#FFFFFF" font-family="sans-serif" font-size="21" lengthAdjust="spacingAndGlyphs" textLength="172.5" x="343.5" y="72.6006">:OrderBookParser</text><rect fill="#FFFFFF" height="584.0742" style="stroke: #A80036; stroke-width: 1.5;" width="15" x="199.5" y="152.7422"/><rect fill="#FFFFFF" height="260.4961" style="stroke: #A80036; stroke-width: 1.5;" width="15" x="422.25" y="183.2695"/><rect fill="#FFFFFF" height="154.4414" style="stroke: #A80036; stroke-width: 1.5;" width="15" x="705" y="243.7969"/><rect fill="#FFFFFF" height="37.5" style="stroke: #A80036; stroke-width: 1.5;" width="15" x="712.5" y="304.7109"/><rect fill="#FFFFFF" height="154.9688" style="stroke: #A80036; stroke-width: 1.5;" width="15" x="705" y="489.293"/><rect fill="#FFFFFF" height="48.9141" style="stroke: #A80036; stroke-width: 1.5;" width="15" x="1113.75" y="549.8203"/><rect fill="#FFFFFF" height="48.9141" style="stroke: #A80036; stroke-width: 1.5;" width="15" x="1113.75" y="549.8203"/><polygon fill="#A80036" points="189,131.7422,204,137.7422,189,143.7422,195,137.7422" style="stroke: #A80036; stroke-width: 1.5;"/><line style="stroke: #A80036; stroke-width: 1.5;" x1="4.5" x2="198" y1="137.7422" y2="137.7422"/><text fill="#000000" font-family="sans-serif" font-size="19.5" lengthAdjust="spacingAndGlyphs" textLength="166.5" x="22.5" y="130.4575">execute("show all")</text><polygon fill="#A80036" points="404.25,177.2695,419.25,183.2695,404.25,189.2695,410.25,183.2695" style="stroke: #A80036; stroke-width: 1.5;"/><line style="stroke: #A80036; stroke-width: 1.5;" x1="214.5" x2="413.25" y1="183.2695" y2="183.2695"/><text fill="#000000" font-family="sans-serif" font-size="19.5" lengthAdjust="spacingAndGlyphs" textLength="148.5" x="244.125" y="175.9849">parseCommand()</text><polygon fill="#A80036" points="561.75,222.7969,576.75,228.7969,561.75,234.7969,567.75,228.7969" style="stroke: #A80036; stroke-width: 1.5;"/><line style="stroke: #A80036; stroke-width: 1.5;" x1="437.25" x2="570.75" y1="228.7969" y2="228.7969"/><text fill="#000000" font-family="sans-serif" font-size="19.5" lengthAdjust="spacingAndGlyphs" textLength="91.5" x="462.75" y="221.5122">arguments</text><rect fill="#3333C4" height="47.4141" style="stroke: #A80036; stroke-width: 2.25;" width="265.5" x="579.75" y="195.2695"/><text fill="#FFFFFF" font-family="sans-serif" font-size="21" lengthAdjust="spacingAndGlyphs" textLength="244.5" x="590.25" y="227.5693">command:ShowCommand</text><line style="stroke: #A80036; stroke-width: 1.5;" x1="720" x2="790.5" y1="285.2109" y2="285.2109"/><line style="stroke: #A80036; stroke-width: 1.5;" x1="790.5" x2="790.5" y1="285.2109" y2="304.7109"/><line style="stroke: #A80036; stroke-width: 1.5;" x1="729" x2="790.5" y1="304.7109" y2="304.7109"/><polygon fill="#A80036" points="744,298.7109,729,304.7109,744,310.7109,738,304.7109" style="stroke: #A80036; stroke-width: 1.5;"/><text fill="#000000" font-family="sans-serif" font-size="19.5" lengthAdjust="spacingAndGlyphs" textLength="100.5" x="738" y="277.9263">parseData()</text><line style="stroke: #A80036; stroke-width: 1.5;" x1="727.5" x2="790.5" y1="340.7109" y2="340.7109"/><line style="stroke: #A80036; stroke-width: 1.5;" x1="790.5" x2="790.5" y1="340.7109" y2="360.2109"/><line style="stroke: #A80036; stroke-width: 1.5;" x1="720" x2="790.5" y1="360.2109" y2="360.2109"/><polygon fill="#A80036" points="735,354.2109,720,360.2109,735,366.2109,729,360.2109" style="stroke: #A80036; stroke-width: 1.5;"/><polygon fill="#A80036" points="453.75,392.2383,438.75,398.2383,453.75,404.2383,447.75,398.2383" style="stroke: #A80036; stroke-width: 1.5;"/><line style="stroke: #A80036; stroke-width: 1.5; stroke-dasharray: 2.0,2.0;" x1="444.75" x2="711" y1="398.2383" y2="398.2383"/><text fill="#000000" font-family="sans-serif" font-size="19.5" lengthAdjust="spacingAndGlyphs" textLength="133.5" x="508.125" y="390.9536">showCommand</text><polygon fill="#A80036" points="231,437.7656,216,443.7656,231,449.7656,225,443.7656" style="stroke: #A80036; stroke-width: 1.5;"/><line style="stroke: #A80036; stroke-width: 1.5; stroke-dasharray: 2.0,2.0;" x1="222" x2="428.25" y1="443.7656" y2="443.7656"/><text fill="#000000" font-family="sans-serif" font-size="19.5" lengthAdjust="spacingAndGlyphs" textLength="133.5" x="255.375" y="436.481">showCommand</text><polygon fill="#A80036" points="687,483.293,702,489.293,687,495.293,693,489.293" style="stroke: #A80036; stroke-width: 1.5;"/><line style="stroke: #A80036; stroke-width: 1.5;" x1="214.5" x2="696" y1="489.293" y2="489.293"/><text fill="#000000" font-family="sans-serif" font-size="19.5" lengthAdjust="spacingAndGlyphs" textLength="133.5" x="393" y="482.0083">execute(model)</text><polygon fill="#A80036" points="928.5,528.8203,943.5,534.8203,928.5,540.8203,934.5,534.8203" style="stroke: #A80036; stroke-width: 1.5;"/><line style="stroke: #A80036; stroke-width: 1.5;" x1="720" x2="937.5" y1="534.8203" y2="534.8203"/><text fill="#000000" font-family="sans-serif" font-size="19.5" lengthAdjust="spacingAndGlyphs" textLength="175.5" x="745.5" y="527.5356">MESSAGE_TODAY</text><rect fill="#3333C4" height="47.4141" style="stroke: #A80036; stroke-width: 2.25;" width="334.5" x="946.5" y="501.293"/><text fill="#FFFFFF" font-family="sans-serif" font-size="21" lengthAdjust="spacingAndGlyphs" textLength="313.5" x="957" y="533.5928">commandResult:CommandResult</text><polygon fill="#A80036" points="736.5,592.7344,721.5,598.7344,736.5,604.7344,730.5,598.7344" style="stroke: #A80036; stroke-width: 1.5;"/><line style="stroke: #A80036; stroke-width: 1.5; stroke-dasharray: 2.0,2.0;" x1="727.5" x2="1112.25" y1="598.7344" y2="598.7344"/><text fill="#000000" font-family="sans-serif" font-size="19.5" lengthAdjust="spacingAndGlyphs" textLength="141" x="846.375" y="591.4497">commandResult</text><polygon fill="#A80036" points="231,638.2617,216,644.2617,231,650.2617,225,644.2617" style="stroke: #A80036; stroke-width: 1.5;"/><line style="stroke: #A80036; stroke-width: 1.5; stroke-dasharray: 2.0,2.0;" x1="222" x2="711" y1="644.2617" y2="644.2617"/><text fill="#000000" font-family="sans-serif" font-size="19.5" lengthAdjust="spacingAndGlyphs" textLength="141" x="393" y="636.9771">commandResult</text><rect fill="#FFFFFF" height="64.0547" style="stroke: #000000; stroke-width: 3.0;" width="1194" x="106.5" y="656.2617"/><polygon fill="#EEEEEE" points="106.5,656.2617,199.5,656.2617,199.5,668.2617,184.5,683.2617,106.5,683.2617,106.5,656.2617" style="stroke: #000000; stroke-width: 3.0;"/><text fill="#000000" font-family="sans-serif" font-size="19.5" font-weight="bold" lengthAdjust="spacingAndGlyphs" textLength="25.5" x="126" y="679.5044">ref</text><text fill="#000000" font-family="sans-serif" font-size="19.5" lengthAdjust="spacingAndGlyphs" textLength="460.5" x="473.25" y="709.5044">Execution of the Show Command Sequence Diagram</text><polygon fill="#A80036" points="21,730.8164,6,736.8164,21,742.8164,15,736.8164" style="stroke: #A80036; stroke-width: 1.5;"/><line style="stroke: #A80036; stroke-width: 1.5; stroke-dasharray: 2.0,2.0;" x1="12" x2="205.5" y1="736.8164" y2="736.8164"/><!--MD5=[563bb21d820f7fbffdbbb4443d23bfbc]
@startuml








skinparam BackgroundColor #FFFFFFF

skinparam Shadowing false

skinparam Class {
    FontColor #FFFFFF
    BorderThickness 1
    BorderColor #FFFFFF
    StereotypeFontColor #FFFFFF
    FontName Arial
}

skinparam Actor {
    BorderColor #000000
    Color #000000
    FontName Arial
}

skinparam Sequence {
    MessageAlign center
    BoxFontSize 15
    BoxPadding 0
    BoxFontColor #FFFFFF
    FontName Arial
}

skinparam Participant {
    FontColor #FFFFFFF
    Padding 20
}

skinparam MinClassWidth 50
skinparam ParticipantPadding 10
skinparam Shadowing false
skinparam DefaultTextAlignment center
skinparam packageStyle Rectangle

hide footbox
hide members
hide circle
box Logic #C8C8FA
participant ":LogicManager" as LogicManager #3333C4
participant ":OrderBookParser" as OrderBookParser #3333C4
participant "command:ShowCommand" as ShowCommand #3333C4
participant "commandResult:CommandResult" as CommandResult #3333C4
end box

create LogicManager
[-> LogicManager : execute("show all")
activate LogicManager

LogicManager -> OrderBookParser : parseCommand()
activate OrderBookParser

create ShowCommand

OrderBookParser -> ShowCommand ++ : arguments

ShowCommand -> ShowCommand ++ : parseData()
ShowCommand -> ShowCommand - - :

ShowCommand - -> OrderBookParser - - : showCommand

OrderBookParser - -> LogicManager : showCommand

deactivate OrderBookParser

LogicManager -> ShowCommand ++ : execute(model)

create CommandResult
ShowCommand -> CommandResult ++ : MESSAGE_TODAY
activate CommandResult
CommandResult - -> ShowCommand - - : commandResult
deactivate CommandResult

ShowCommand - -> LogicManager - - : commandResult


deactivate ShowCommand

ref over LogicManager, CommandResult : Execution of the Show Command Sequence Diagram
[<- -LogicManager
deactivate LogicManager
@enduml

PlantUML version 1.2019.11(Sun Sep 22 18:02:15 SGT 2019)
(GPL source distribution)
Java Runtime: OpenJDK Runtime Environment
JVM: OpenJDK 64-Bit Server VM
Java Version: 11.0.5+10-b520.17
Operating System: Windows 10
Default Encoding: UTF-8
Language: en
Country: SG
--></g></svg>
