<?xml version="1.0" encoding="UTF-8" standalone="no"?><svg xmlns="http://www.w3.org/2000/svg" xmlns:xlink="http://www.w3.org/1999/xlink" contentScriptType="application/ecmascript" contentStyleType="text/css" height="781.5px" preserveAspectRatio="none" style="width:1296px;height:781px;" version="1.1" viewBox="0 0 1296 781" width="1296px" zoomAndPan="magnify"><defs/><g><rect fill="#C8C8FA" height="748.8164" style="stroke: #A80036; stroke-width: 1.5;" width="1175.25" x="105" y="6"/><text fill="#FFFFFF" font-family="sans-serif" font-size="22.5" font-weight="bold" lengthAdjust="spacingAndGlyphs" textLength="58.5" x="660.375" y="29.3569">Logic</text><rect fill="#FFFFFF" height="584.0742" style="stroke: #A80036; stroke-width: 1.5;" width="15" x="199.5" y="152.7422"/><rect fill="#FFFFFF" height="260.4961" style="stroke: #A80036; stroke-width: 1.5;" width="15" x="400.5" y="183.2695"/><rect fill="#FFFFFF" height="154.4414" style="stroke: #A80036; stroke-width: 1.5;" width="15" x="683.25" y="243.7969"/><rect fill="#FFFFFF" height="37.5" style="stroke: #A80036; stroke-width: 1.5;" width="15" x="690.75" y="304.7109"/><rect fill="#FFFFFF" height="154.9688" style="stroke: #A80036; stroke-width: 1.5;" width="15" x="683.25" y="489.293"/><rect fill="#FFFFFF" height="48.9141" style="stroke: #A80036; stroke-width: 1.5;" width="15" x="1092" y="549.8203"/><rect fill="#FFFFFF" height="48.9141" style="stroke: #A80036; stroke-width: 1.5;" width="15" x="1092" y="549.8203"/><rect fill="#3333C4" height="47.4141" style="stroke: #A80036; stroke-width: 2.25;" width="265.5" x="558" y="195.2695"/><text fill="#FFFFFF" font-family="sans-serif" font-size="21" lengthAdjust="spacingAndGlyphs" textLength="244.5" x="568.5" y="227.5693">command:ShowCommand</text><rect fill="#3333C4" height="47.4141" style="stroke: #A80036; stroke-width: 2.25;" width="334.5" x="924.75" y="501.293"/><text fill="#FFFFFF" font-family="sans-serif" font-size="21" lengthAdjust="spacingAndGlyphs" textLength="313.5" x="935.25" y="533.5928">commandResult:CommandResult</text><line style="stroke: #A80036; stroke-width: 1.5; stroke-dasharray: 5.0,5.0;" x1="207" x2="207" y1="89.2148" y2="763.8164"/><line style="stroke: #A80036; stroke-width: 1.5; stroke-dasharray: 5.0,5.0;" x1="408" x2="408" y1="89.2148" y2="763.8164"/><line style="stroke: #A80036; stroke-width: 1.5; stroke-dasharray: 5.0,5.0;" x1="690" x2="690" y1="242.2266" y2="763.8164"/><line style="stroke: #A80036; stroke-width: 1.5; stroke-dasharray: 5.0,5.0;" x1="1091.25" x2="1091.25" y1="548.25" y2="763.8164"/><rect fill="#3333C4" height="47.4141" style="stroke: #A80036; stroke-width: 2.25;" width="162" x="126" y="40.3008"/><text fill="#FFFFFF" font-family="sans-serif" font-size="21" lengthAdjust="spacingAndGlyphs" textLength="141" x="136.5" y="72.6006">:LogicManager</text><rect fill="#3333C4" height="47.4141" style="stroke: #A80036; stroke-width: 2.25;" width="150" x="333" y="40.3008"/><text fill="#FFFFFF" font-family="sans-serif" font-size="21" lengthAdjust="spacingAndGlyphs" textLength="129" x="343.5" y="72.6006">:DelinoParser</text><rect fill="#FFFFFF" height="584.0742" style="stroke: #A80036; stroke-width: 1.5;" width="15" x="199.5" y="152.7422"/><rect fill="#FFFFFF" height="260.4961" style="stroke: #A80036; stroke-width: 1.5;" width="15" x="400.5" y="183.2695"/><rect fill="#FFFFFF" height="154.4414" style="stroke: #A80036; stroke-width: 1.5;" width="15" x="683.25" y="243.7969"/><rect fill="#FFFFFF" height="37.5" style="stroke: #A80036; stroke-width: 1.5;" width="15" x="690.75" y="304.7109"/><rect fill="#FFFFFF" height="154.9688" style="stroke: #A80036; stroke-width: 1.5;" width="15" x="683.25" y="489.293"/><rect fill="#FFFFFF" height="48.9141" style="stroke: #A80036; stroke-width: 1.5;" width="15" x="1092" y="549.8203"/><rect fill="#FFFFFF" height="48.9141" style="stroke: #A80036; stroke-width: 1.5;" width="15" x="1092" y="549.8203"/><polygon fill="#A80036" points="189,131.7422,204,137.7422,189,143.7422,195,137.7422" style="stroke: #A80036; stroke-width: 1.5;"/><line style="stroke: #A80036; stroke-width: 1.5;" x1="4.5" x2="198" y1="137.7422" y2="137.7422"/><text fill="#000000" font-family="sans-serif" font-size="19.5" lengthAdjust="spacingAndGlyphs" textLength="166.5" x="22.5" y="130.4575">execute("show all")</text><polygon fill="#A80036" points="382.5,177.2695,397.5,183.2695,382.5,189.2695,388.5,183.2695" style="stroke: #A80036; stroke-width: 1.5;"/><line style="stroke: #A80036; stroke-width: 1.5;" x1="214.5" x2="391.5" y1="183.2695" y2="183.2695"/><text fill="#000000" font-family="sans-serif" font-size="19.5" lengthAdjust="spacingAndGlyphs" textLength="148.5" x="233.25" y="175.9849">parseCommand()</text><polygon fill="#A80036" points="540,222.7969,555,228.7969,540,234.7969,546,228.7969" style="stroke: #A80036; stroke-width: 1.5;"/><line style="stroke: #A80036; stroke-width: 1.5;" x1="415.5" x2="549" y1="228.7969" y2="228.7969"/><text fill="#000000" font-family="sans-serif" font-size="19.5" lengthAdjust="spacingAndGlyphs" textLength="91.5" x="441" y="221.5122">arguments</text><rect fill="#3333C4" height="47.4141" style="stroke: #A80036; stroke-width: 2.25;" width="265.5" x="558" y="195.2695"/><text fill="#FFFFFF" font-family="sans-serif" font-size="21" lengthAdjust="spacingAndGlyphs" textLength="244.5" x="568.5" y="227.5693">command:ShowCommand</text><line style="stroke: #A80036; stroke-width: 1.5;" x1="698.25" x2="768.75" y1="285.2109" y2="285.2109"/><line style="stroke: #A80036; stroke-width: 1.5;" x1="768.75" x2="768.75" y1="285.2109" y2="304.7109"/><line style="stroke: #A80036; stroke-width: 1.5;" x1="707.25" x2="768.75" y1="304.7109" y2="304.7109"/><polygon fill="#A80036" points="722.25,298.7109,707.25,304.7109,722.25,310.7109,716.25,304.7109" style="stroke: #A80036; stroke-width: 1.5;"/><text fill="#000000" font-family="sans-serif" font-size="19.5" lengthAdjust="spacingAndGlyphs" textLength="100.5" x="716.25" y="277.9263">parseData()</text><line style="stroke: #A80036; stroke-width: 1.5;" x1="705.75" x2="768.75" y1="340.7109" y2="340.7109"/><line style="stroke: #A80036; stroke-width: 1.5;" x1="768.75" x2="768.75" y1="340.7109" y2="360.2109"/><line style="stroke: #A80036; stroke-width: 1.5;" x1="698.25" x2="768.75" y1="360.2109" y2="360.2109"/><polygon fill="#A80036" points="713.25,354.2109,698.25,360.2109,713.25,366.2109,707.25,360.2109" style="stroke: #A80036; stroke-width: 1.5;"/><polygon fill="#A80036" points="432,392.2383,417,398.2383,432,404.2383,426,398.2383" style="stroke: #A80036; stroke-width: 1.5;"/><line style="stroke: #A80036; stroke-width: 1.5; stroke-dasharray: 2.0,2.0;" x1="423" x2="689.25" y1="398.2383" y2="398.2383"/><text fill="#000000" font-family="sans-serif" font-size="19.5" lengthAdjust="spacingAndGlyphs" textLength="133.5" x="486.375" y="390.9536">showCommand</text><polygon fill="#A80036" points="231,437.7656,216,443.7656,231,449.7656,225,443.7656" style="stroke: #A80036; stroke-width: 1.5;"/><line style="stroke: #A80036; stroke-width: 1.5; stroke-dasharray: 2.0,2.0;" x1="222" x2="406.5" y1="443.7656" y2="443.7656"/><text fill="#000000" font-family="sans-serif" font-size="19.5" lengthAdjust="spacingAndGlyphs" textLength="133.5" x="244.5" y="436.481">showCommand</text><polygon fill="#A80036" points="665.25,483.293,680.25,489.293,665.25,495.293,671.25,489.293" style="stroke: #A80036; stroke-width: 1.5;"/><line style="stroke: #A80036; stroke-width: 1.5;" x1="214.5" x2="674.25" y1="489.293" y2="489.293"/><text fill="#000000" font-family="sans-serif" font-size="19.5" lengthAdjust="spacingAndGlyphs" textLength="133.5" x="382.125" y="482.0083">execute(model)</text><polygon fill="#A80036" points="906.75,528.8203,921.75,534.8203,906.75,540.8203,912.75,534.8203" style="stroke: #A80036; stroke-width: 1.5;"/><line style="stroke: #A80036; stroke-width: 1.5;" x1="698.25" x2="915.75" y1="534.8203" y2="534.8203"/><text fill="#000000" font-family="sans-serif" font-size="19.5" lengthAdjust="spacingAndGlyphs" textLength="175.5" x="723.75" y="527.5356">MESSAGE_TODAY</text><rect fill="#3333C4" height="47.4141" style="stroke: #A80036; stroke-width: 2.25;" width="334.5" x="924.75" y="501.293"/><text fill="#FFFFFF" font-family="sans-serif" font-size="21" lengthAdjust="spacingAndGlyphs" textLength="313.5" x="935.25" y="533.5928">commandResult:CommandResult</text><polygon fill="#A80036" points="714.75,592.7344,699.75,598.7344,714.75,604.7344,708.75,598.7344" style="stroke: #A80036; stroke-width: 1.5;"/><line style="stroke: #A80036; stroke-width: 1.5; stroke-dasharray: 2.0,2.0;" x1="705.75" x2="1090.5" y1="598.7344" y2="598.7344"/><text fill="#000000" font-family="sans-serif" font-size="19.5" lengthAdjust="spacingAndGlyphs" textLength="141" x="824.625" y="591.4497">commandResult</text><polygon fill="#A80036" points="231,638.2617,216,644.2617,231,650.2617,225,644.2617" style="stroke: #A80036; stroke-width: 1.5;"/><line style="stroke: #A80036; stroke-width: 1.5; stroke-dasharray: 2.0,2.0;" x1="222" x2="689.25" y1="644.2617" y2="644.2617"/><text fill="#000000" font-family="sans-serif" font-size="19.5" lengthAdjust="spacingAndGlyphs" textLength="141" x="382.125" y="636.9771">commandResult</text><rect fill="#FFFFFF" height="64.0547" style="stroke: #000000; stroke-width: 3.0;" width="1172.25" x="106.5" y="656.2617"/><polygon fill="#EEEEEE" points="106.5,656.2617,199.5,656.2617,199.5,668.2617,184.5,683.2617,106.5,683.2617,106.5,656.2617" style="stroke: #000000; stroke-width: 3.0;"/><text fill="#000000" font-family="sans-serif" font-size="19.5" font-weight="bold" lengthAdjust="spacingAndGlyphs" textLength="25.5" x="126" y="679.5044">ref</text><text fill="#000000" font-family="sans-serif" font-size="19.5" lengthAdjust="spacingAndGlyphs" textLength="460.5" x="462.375" y="709.5044">Execution of the Show Command Sequence Diagram</text><polygon fill="#A80036" points="21,730.8164,6,736.8164,21,742.8164,15,736.8164" style="stroke: #A80036; stroke-width: 1.5;"/><line style="stroke: #A80036; stroke-width: 1.5; stroke-dasharray: 2.0,2.0;" x1="12" x2="205.5" y1="736.8164" y2="736.8164"/><!--MD5=[42db443e10bae5d6c314d8e3fcda5320]
@startuml








skinparam BackgroundColor #FFFFFFF

skinparam Shadowing false

skinparam Class {
    FontColor #FFFFFF
    BorderThickness 1
    BorderColor #FFFFFF
    StereotypeFontColor #FFFFFF
    FontName Arial
}

skinparam Actor {
    BorderColor #000000
    Color #000000
    FontName Arial
}

skinparam Sequence {
    MessageAlign center
    BoxFontSize 15
    BoxPadding 0
    BoxFontColor #FFFFFF
    FontName Arial
}

skinparam Participant {
    FontColor #FFFFFFF
    Padding 20
}

skinparam MinClassWidth 50
skinparam ParticipantPadding 10
skinparam Shadowing false
skinparam DefaultTextAlignment center
skinparam packageStyle Rectangle

hide footbox
hide members
hide circle
box Logic #C8C8FA
participant ":LogicManager" as LogicManager #3333C4
participant ":DelinoParser" as DelinoParser #3333C4
participant "command:ShowCommand" as ShowCommand #3333C4
participant "commandResult:CommandResult" as CommandResult #3333C4
end box

create LogicManager
[-> LogicManager : execute("show all")
activate LogicManager

LogicManager ->DelinoParser : parseCommand()
activate DelinoParser

create ShowCommand

DelinoParser -> ShowCommand ++ : arguments

ShowCommand -> ShowCommand ++ : parseData()
ShowCommand -> ShowCommand - - :

ShowCommand - -> DelinoParser - - : showCommand

DelinoParser - -> LogicManager : showCommand

deactivate DelinoParser

LogicManager -> ShowCommand ++ : execute(model)

create CommandResult
ShowCommand -> CommandResult ++ : MESSAGE_TODAY
activate CommandResult
CommandResult - -> ShowCommand - - : commandResult
deactivate CommandResult

ShowCommand - -> LogicManager - - : commandResult


deactivate ShowCommand

ref over LogicManager, CommandResult : Execution of the Show Command Sequence Diagram
[<- -LogicManager
deactivate LogicManager
@enduml

PlantUML version 1.2019.11(Sun Sep 22 18:02:15 SGT 2019)
(GPL source distribution)
Java Runtime: OpenJDK Runtime Environment
JVM: OpenJDK 64-Bit Server VM
Java Version: 11.0.5+10-b520.17
Operating System: Windows 10
Default Encoding: UTF-8
Language: en
Country: SG
--></g></svg>
