<?xml version="1.0" encoding="UTF-8" standalone="no"?><svg xmlns="http://www.w3.org/2000/svg" xmlns:xlink="http://www.w3.org/1999/xlink" contentScriptType="application/ecmascript" contentStyleType="text/css" height="916.5px" preserveAspectRatio="none" style="width:2341px;height:916px;" version="1.1" viewBox="0 0 2341 916" width="2341.5px" zoomAndPan="magnify"><defs><filter height="300%" id="f1m0ynulbs70c4" width="300%" x="-1" y="-1"><feGaussianBlur result="blurOut" stdDeviation="3.0"/><feColorMatrix in="blurOut" result="blurOut2" type="matrix" values="0 0 0 0 0 0 0 0 0 0 0 0 0 0 0 0 0 0 .4 0"/><feOffset dx="6.0" dy="6.0" in="blurOut2" result="blurOut3"/><feBlend in="SourceGraphic" in2="blurOut3" mode="normal"/></filter></defs><g><ellipse cx="675.5156" cy="30" fill="#000000" filter="url(#f1m0ynulbs70c4)" rx="15" ry="15" style="stroke: none; stroke-width: 1.5;"/><rect fill="#FEFECE" filter="url(#f1m0ynulbs70c4)" height="52.6406" rx="18.75" ry="18.75" style="stroke: #A80036; stroke-width: 2.25;" width="270" x="540.5156" y="75"/><text fill="#000000" font-family="sans-serif" font-size="18" lengthAdjust="spacingAndGlyphs" textLength="240" x="555.5156" y="108.6855">User inputs Show Command</text><polygon fill="#FEFECE" filter="url(#f1m0ynulbs70c4)" points="675.5156,167.5239,675.5156,167.5239,693.5156,185.5239,675.5156,203.5239,675.5156,203.5239,657.5156,185.5239,675.5156,167.5239" style="stroke: #A80036; stroke-width: 2.25;"/><text fill="#000000" font-family="sans-serif" font-size="16.5" lengthAdjust="spacingAndGlyphs" textLength="226.5" x="431.0156" y="161.1445">[Input has less than 1 argument</text><text fill="#000000" font-family="sans-serif" font-size="16.5" lengthAdjust="spacingAndGlyphs" textLength="217.5" x="431.0156" y="181.8984">OR more than two arguments]</text><text fill="#000000" font-family="sans-serif" font-size="16.5" lengthAdjust="spacingAndGlyphs" textLength="232.5" x="693.5156" y="181.8984">[Input is either 1 or 2 arguments]</text><rect fill="#FEFECE" filter="url(#f1m0ynulbs70c4)" height="52.6406" rx="18.75" ry="18.75" style="stroke: #A80036; stroke-width: 2.25;" width="240" x="15" y="218.5239"/><text fill="#000000" font-family="sans-serif" font-size="18" lengthAdjust="spacingAndGlyphs" textLength="210" x="30" y="252.2095">Throws a ParseException</text><rect fill="#FEFECE" filter="url(#f1m0ynulbs70c4)" height="75.2813" rx="18.75" ry="18.75" style="stroke: #A80036; stroke-width: 2.25;" width="235.5" x="17.25" y="323.6646"/><text fill="#000000" font-family="sans-serif" font-size="18" lengthAdjust="spacingAndGlyphs" textLength="205.5" x="32.25" y="357.3501">Returns failure message</text><text fill="#000000" font-family="sans-serif" font-size="18" lengthAdjust="spacingAndGlyphs" textLength="159" x="32.25" y="379.9907">(Invalid arguments)</text><polygon fill="#FEFECE" filter="url(#f1m0ynulbs70c4)" points="1243.0313,218.5239,1243.0313,218.5239,1261.0313,236.5239,1243.0313,254.5239,1243.0313,254.5239,1225.0313,236.5239,1243.0313,218.5239" style="stroke: #A80036; stroke-width: 2.25;"/><text fill="#000000" font-family="sans-serif" font-size="16.5" lengthAdjust="spacingAndGlyphs" textLength="160.5" x="1064.5313" y="232.8984">[Input has 1 argument]</text><text fill="#000000" font-family="sans-serif" font-size="16.5" lengthAdjust="spacingAndGlyphs" textLength="198" x="1261.0313" y="232.8984">[Input have two arguments]</text><polygon fill="#FEFECE" filter="url(#f1m0ynulbs70c4)" points="426.75,307.0239,426.75,307.0239,444.75,325.0239,426.75,343.0239,426.75,343.0239,408.75,325.0239,426.75,307.0239" style="stroke: #A80036; stroke-width: 2.25;"/><text fill="#000000" font-family="sans-serif" font-size="16.5" lengthAdjust="spacingAndGlyphs" textLength="132" x="432.75" y="360.1523">[Input is 'show all']</text><rect fill="#FEFECE" filter="url(#f1m0ynulbs70c4)" height="75.2813" rx="18.75" ry="18.75" style="stroke: #A80036; stroke-width: 2.25;" width="313.5" x="270" y="393.7778"/><text fill="#000000" font-family="sans-serif" font-size="18" lengthAdjust="spacingAndGlyphs" textLength="283.5" x="285" y="427.4634">Return success message to show</text><text fill="#000000" font-family="sans-serif" font-size="18" lengthAdjust="spacingAndGlyphs" textLength="97.5" x="285" y="450.104">all statistics</text><polygon fill="#FEFECE" filter="url(#f1m0ynulbs70c4)" points="770.25,307.0239,770.25,307.0239,788.25,325.0239,770.25,343.0239,770.25,343.0239,752.25,325.0239,770.25,307.0239" style="stroke: #A80036; stroke-width: 2.25;"/><text fill="#000000" font-family="sans-serif" font-size="16.5" lengthAdjust="spacingAndGlyphs" textLength="163.5" x="776.25" y="360.1523">[Input is show `today`]</text><text fill="#000000" font-family="sans-serif" font-size="16.5" lengthAdjust="spacingAndGlyphs" textLength="157.5" x="788.25" y="321.3984">[Input is show 'DATE']</text><rect fill="#FEFECE" filter="url(#f1m0ynulbs70c4)" height="75.2813" rx="18.75" ry="18.75" style="stroke: #A80036; stroke-width: 2.25;" width="313.5" x="613.5" y="393.7778"/><text fill="#000000" font-family="sans-serif" font-size="18" lengthAdjust="spacingAndGlyphs" textLength="283.5" x="628.5" y="427.4634">Return success message to show</text><text fill="#000000" font-family="sans-serif" font-size="18" lengthAdjust="spacingAndGlyphs" textLength="193.5" x="628.5" y="450.104">today's orders statistics</text><rect fill="#FEFECE" filter="url(#f1m0ynulbs70c4)" height="75.2813" rx="18.75" ry="18.75" style="stroke: #A80036; stroke-width: 2.25;" width="318" x="960.75" y="387.9009"/><text fill="#000000" font-family="sans-serif" font-size="18" lengthAdjust="spacingAndGlyphs" textLength="283.5" x="980.25" y="421.5864">Return success message to show</text><text fill="#000000" font-family="sans-serif" font-size="18" lengthAdjust="spacingAndGlyphs" textLength="190.5" x="975.75" y="444.2271">statistics for this 'DATE'</text><polygon fill="#FEFECE" filter="url(#f1m0ynulbs70c4)" points="1713.1875,269.5239,1713.1875,269.5239,1731.1875,287.5239,1713.1875,305.5239,1713.1875,305.5239,1695.1875,287.5239,1713.1875,269.5239" style="stroke: #A80036; stroke-width: 2.25;"/><text fill="#000000" font-family="sans-serif" font-size="16.5" lengthAdjust="spacingAndGlyphs" textLength="171" x="1524.1875" y="283.8984">[The date(s) are invalid]</text><text fill="#000000" font-family="sans-serif" font-size="16.5" lengthAdjust="spacingAndGlyphs" textLength="117" x="1731.1875" y="283.8984">[Dates are valid]</text><rect fill="#FEFECE" filter="url(#f1m0ynulbs70c4)" height="52.6406" rx="18.75" ry="18.75" style="stroke: #A80036; stroke-width: 2.25;" width="240" x="1329" y="320.5239"/><text fill="#000000" font-family="sans-serif" font-size="18" lengthAdjust="spacingAndGlyphs" textLength="210" x="1344" y="354.2095">Throws a ParseException</text><rect fill="#FEFECE" filter="url(#f1m0ynulbs70c4)" height="75.2813" rx="18.75" ry="18.75" style="stroke: #A80036; stroke-width: 2.25;" width="250.5" x="1323.75" y="425.6646"/><text fill="#000000" font-family="sans-serif" font-size="18" lengthAdjust="spacingAndGlyphs" textLength="220.5" x="1338.75" y="459.3501">Returns a failure message</text><text fill="#000000" font-family="sans-serif" font-size="18" lengthAdjust="spacingAndGlyphs" textLength="115.5" x="1338.75" y="481.9907">(Invalid dates)</text><polygon fill="#FEFECE" filter="url(#f1m0ynulbs70c4)" points="1977.375,320.5239,1977.375,320.5239,1995.375,338.5239,1977.375,356.5239,1977.375,356.5239,1959.375,338.5239,1977.375,320.5239" style="stroke: #A80036; stroke-width: 2.25;"/><text fill="#000000" font-family="sans-serif" font-size="16.5" lengthAdjust="spacingAndGlyphs" textLength="232.5" x="1726.875" y="334.8984">[Start Date is after the End Date]</text><text fill="#000000" font-family="sans-serif" font-size="16.5" lengthAdjust="spacingAndGlyphs" textLength="193.5" x="1995.375" y="334.8984">Start Date before End Date</text><rect fill="#FEFECE" filter="url(#f1m0ynulbs70c4)" height="52.6406" rx="18.75" ry="18.75" style="stroke: #A80036; stroke-width: 2.25;" width="240" x="1673.25" y="371.5239"/><text fill="#000000" font-family="sans-serif" font-size="18" lengthAdjust="spacingAndGlyphs" textLength="210" x="1688.25" y="405.2095">Throws a ParseException</text><rect fill="#FEFECE" filter="url(#f1m0ynulbs70c4)" height="75.2813" rx="18.75" ry="18.75" style="stroke: #A80036; stroke-width: 2.25;" width="348" x="1619.25" y="476.6646"/><text fill="#000000" font-family="sans-serif" font-size="18" lengthAdjust="spacingAndGlyphs" textLength="217.5" x="1634.25" y="510.3501">Returns a failure Message</text><text fill="#000000" font-family="sans-serif" font-size="18" lengthAdjust="spacingAndGlyphs" textLength="318" x="1634.25" y="532.9907">(Start Date should be before End Date)</text><rect fill="#FEFECE" filter="url(#f1m0ynulbs70c4)" height="75.2813" rx="18.75" ry="18.75" style="stroke: #A80036; stroke-width: 2.25;" width="328.5" x="1997.25" y="371.5239"/><text fill="#000000" font-family="sans-serif" font-size="18" lengthAdjust="spacingAndGlyphs" textLength="294" x="2016.75" y="405.2095">Returns success message to show</text><text fill="#000000" font-family="sans-serif" font-size="18" lengthAdjust="spacingAndGlyphs" textLength="223.5" x="2012.25" y="427.8501">from Start Date to End Date</text><polygon fill="#FEFECE" filter="url(#f1m0ynulbs70c4)" points="1977.375,560.9458,1995.375,578.9458,1977.375,596.9458,1959.375,578.9458,1977.375,560.9458" style="stroke: #A80036; stroke-width: 2.25;"/><polygon fill="#FEFECE" filter="url(#f1m0ynulbs70c4)" points="1713.1875,605.9458,1731.1875,623.9458,1713.1875,641.9458,1695.1875,623.9458,1713.1875,605.9458" style="stroke: #A80036; stroke-width: 2.25;"/><polygon fill="#FEFECE" filter="url(#f1m0ynulbs70c4)" points="1243.0313,650.9458,1261.0313,668.9458,1243.0313,686.9458,1225.0313,668.9458,1243.0313,650.9458" style="stroke: #A80036; stroke-width: 2.25;"/><polygon fill="#FEFECE" filter="url(#f1m0ynulbs70c4)" points="675.5156,695.9458,693.5156,713.9458,675.5156,731.9458,657.5156,713.9458,675.5156,695.9458" style="stroke: #A80036; stroke-width: 2.25;"/><rect fill="#FEFECE" filter="url(#f1m0ynulbs70c4)" height="75.2813" rx="18.75" ry="18.75" style="stroke: #A80036; stroke-width: 2.25;" width="301.5" x="524.7656" y="761.9458"/><text fill="#000000" font-family="sans-serif" font-size="18" lengthAdjust="spacingAndGlyphs" textLength="271.5" x="539.7656" y="795.6313">LogicManager prints message to</text><text fill="#000000" font-family="sans-serif" font-size="18" lengthAdjust="spacingAndGlyphs" textLength="270" x="539.7656" y="818.272">user and executes the command</text><ellipse cx="675.5156" cy="883.7271" fill="#FFFFFF" filter="url(#f1m0ynulbs70c4)" rx="16.5" ry="16.5" style="stroke: #000000; stroke-width: 1.5;"/><ellipse cx="675.5156" cy="883.7271" fill="#000000" rx="9" ry="9" style="stroke: #7F7F7F; stroke-width: 1.5;"/><line style="stroke: #A80036; stroke-width: 2.25;" x1="675.5156" x2="675.5156" y1="45" y2="75"/><polygon fill="#A80036" points="669.5156,60,675.5156,75,681.5156,60,675.5156,66" style="stroke: #A80036; stroke-width: 1.5;"/><line style="stroke: #A80036; stroke-width: 2.25;" x1="135" x2="135" y1="271.1646" y2="323.6646"/><polygon fill="#A80036" points="129,308.6646,135,323.6646,141,308.6646,135,314.6646" style="stroke: #A80036; stroke-width: 1.5;"/><line style="stroke: #A80036; stroke-width: 2.25;" x1="426.75" x2="426.75" y1="343.0239" y2="393.7778"/><polygon fill="#A80036" points="420.75,378.7778,426.75,393.7778,432.75,378.7778,426.75,384.7778" style="stroke: #A80036; stroke-width: 1.5;"/><line style="stroke: #A80036; stroke-width: 2.25;" x1="426.75" x2="426.75" y1="469.0591" y2="581.5591"/><polygon fill="#A80036" points="420.75,566.5591,426.75,581.5591,432.75,566.5591,426.75,572.5591" style="stroke: #A80036; stroke-width: 1.5;"/><line style="stroke: #A80036; stroke-width: 2.25;" x1="770.25" x2="770.25" y1="343.0239" y2="393.7778"/><polygon fill="#A80036" points="764.25,378.7778,770.25,393.7778,776.25,378.7778,770.25,384.7778" style="stroke: #A80036; stroke-width: 1.5;"/><line style="stroke: #A80036; stroke-width: 2.25;" x1="770.25" x2="770.25" y1="469.0591" y2="581.5591"/><polygon fill="#A80036" points="764.25,566.5591,770.25,581.5591,776.25,566.5591,770.25,572.5591" style="stroke: #A80036; stroke-width: 1.5;"/><line style="stroke: #A80036; stroke-width: 2.25;" x1="444.75" x2="752.25" y1="325.0239" y2="325.0239"/><polygon fill="#A80036" points="737.25,319.0239,752.25,325.0239,737.25,331.0239,743.25,325.0239" style="stroke: #A80036; stroke-width: 1.5;"/><line style="stroke: #A80036; stroke-width: 2.25;" x1="1225.0313" x2="426.75" y1="236.5239" y2="236.5239"/><line style="stroke: #A80036; stroke-width: 2.25;" x1="426.75" x2="426.75" y1="236.5239" y2="307.0239"/><polygon fill="#A80036" points="420.75,292.0239,426.75,307.0239,432.75,292.0239,426.75,298.0239" style="stroke: #A80036; stroke-width: 1.5;"/><line style="stroke: #A80036; stroke-width: 2.25;" x1="788.25" x2="1119.75" y1="325.0239" y2="325.0239"/><line style="stroke: #A80036; stroke-width: 2.25;" x1="1119.75" x2="1119.75" y1="325.0239" y2="387.9009"/><polygon fill="#A80036" points="1113.75,372.9009,1119.75,387.9009,1125.75,372.9009,1119.75,378.9009" style="stroke: #A80036; stroke-width: 1.5;"/><line style="stroke: #A80036; stroke-width: 2.25;" x1="1119.75" x2="1119.75" y1="463.1821" y2="581.5591"/><polygon fill="#A80036" points="1113.75,566.5591,1119.75,581.5591,1125.75,566.5591,1119.75,572.5591" style="stroke: #A80036; stroke-width: 1.5;"/><line style="stroke: #A80036; stroke-width: 2.25;" x1="426.75" x2="1119.75" y1="581.5591" y2="581.5591"/><line style="stroke: #A80036; stroke-width: 2.25;" x1="1449" x2="1449" y1="373.1646" y2="425.6646"/><polygon fill="#A80036" points="1443,410.6646,1449,425.6646,1455,410.6646,1449,416.6646" style="stroke: #A80036; stroke-width: 1.5;"/><line style="stroke: #A80036; stroke-width: 2.25;" x1="1793.25" x2="1793.25" y1="424.1646" y2="476.6646"/><polygon fill="#A80036" points="1787.25,461.6646,1793.25,476.6646,1799.25,461.6646,1793.25,467.6646" style="stroke: #A80036; stroke-width: 1.5;"/><line style="stroke: #A80036; stroke-width: 2.25;" x1="1959.375" x2="1793.25" y1="338.5239" y2="338.5239"/><line style="stroke: #A80036; stroke-width: 2.25;" x1="1793.25" x2="1793.25" y1="338.5239" y2="371.5239"/><polygon fill="#A80036" points="1787.25,356.5239,1793.25,371.5239,1799.25,356.5239,1793.25,362.5239" style="stroke: #A80036; stroke-width: 1.5;"/><line style="stroke: #A80036; stroke-width: 2.25;" x1="1995.375" x2="2161.5" y1="338.5239" y2="338.5239"/><line style="stroke: #A80036; stroke-width: 2.25;" x1="2161.5" x2="2161.5" y1="338.5239" y2="371.5239"/><polygon fill="#A80036" points="2155.5,356.5239,2161.5,371.5239,2167.5,356.5239,2161.5,362.5239" style="stroke: #A80036; stroke-width: 1.5;"/><line style="stroke: #A80036; stroke-width: 2.25;" x1="1793.25" x2="1793.25" y1="551.9458" y2="578.9458"/><line style="stroke: #A80036; stroke-width: 2.25;" x1="1793.25" x2="1959.375" y1="578.9458" y2="578.9458"/><polygon fill="#A80036" points="1944.375,572.9458,1959.375,578.9458,1944.375,584.9458,1950.375,578.9458" style="stroke: #A80036; stroke-width: 1.5;"/><line style="stroke: #A80036; stroke-width: 2.25;" x1="2161.5" x2="2161.5" y1="446.8052" y2="578.9458"/><line style="stroke: #A80036; stroke-width: 2.25;" x1="2161.5" x2="1995.375" y1="578.9458" y2="578.9458"/><polygon fill="#A80036" points="2010.375,572.9458,1995.375,578.9458,2010.375,584.9458,2004.375,578.9458" style="stroke: #A80036; stroke-width: 1.5;"/><line style="stroke: #A80036; stroke-width: 2.25;" x1="1695.1875" x2="1449" y1="287.5239" y2="287.5239"/><line style="stroke: #A80036; stroke-width: 2.25;" x1="1449" x2="1449" y1="287.5239" y2="320.5239"/><polygon fill="#A80036" points="1443,305.5239,1449,320.5239,1455,305.5239,1449,311.5239" style="stroke: #A80036; stroke-width: 1.5;"/><line style="stroke: #A80036; stroke-width: 2.25;" x1="1731.1875" x2="1977.375" y1="287.5239" y2="287.5239"/><line style="stroke: #A80036; stroke-width: 2.25;" x1="1977.375" x2="1977.375" y1="287.5239" y2="320.5239"/><polygon fill="#A80036" points="1971.375,305.5239,1977.375,320.5239,1983.375,305.5239,1977.375,311.5239" style="stroke: #A80036; stroke-width: 1.5;"/><line style="stroke: #A80036; stroke-width: 2.25;" x1="1449" x2="1449" y1="500.9458" y2="623.9458"/><line style="stroke: #A80036; stroke-width: 2.25;" x1="1449" x2="1695.1875" y1="623.9458" y2="623.9458"/><polygon fill="#A80036" points="1680.1875,617.9458,1695.1875,623.9458,1680.1875,629.9458,1686.1875,623.9458" style="stroke: #A80036; stroke-width: 1.5;"/><line style="stroke: #A80036; stroke-width: 2.25;" x1="1977.375" x2="1977.375" y1="596.9458" y2="623.9458"/><line style="stroke: #A80036; stroke-width: 2.25;" x1="1977.375" x2="1731.1875" y1="623.9458" y2="623.9458"/><polygon fill="#A80036" points="1746.1875,617.9458,1731.1875,623.9458,1746.1875,629.9458,1740.1875,623.9458" style="stroke: #A80036; stroke-width: 1.5;"/><line style="stroke: #A80036; stroke-width: 2.25;" x1="1261.0313" x2="1713.1875" y1="236.5239" y2="236.5239"/><line style="stroke: #A80036; stroke-width: 2.25;" x1="1713.1875" x2="1713.1875" y1="236.5239" y2="269.5239"/><polygon fill="#A80036" points="1707.1875,254.5239,1713.1875,269.5239,1719.1875,254.5239,1713.1875,260.5239" style="stroke: #A80036; stroke-width: 1.5;"/><line style="stroke: #A80036; stroke-width: 2.25;" x1="775.875" x2="775.875" y1="581.5591" y2="668.9458"/><line style="stroke: #A80036; stroke-width: 2.25;" x1="775.875" x2="1225.0313" y1="668.9458" y2="668.9458"/><polygon fill="#A80036" points="1210.0313,662.9458,1225.0313,668.9458,1210.0313,674.9458,1216.0313,668.9458" style="stroke: #A80036; stroke-width: 1.5;"/><line style="stroke: #A80036; stroke-width: 2.25;" x1="1713.1875" x2="1713.1875" y1="641.9458" y2="668.9458"/><line style="stroke: #A80036; stroke-width: 2.25;" x1="1713.1875" x2="1261.0313" y1="668.9458" y2="668.9458"/><polygon fill="#A80036" points="1276.0313,662.9458,1261.0313,668.9458,1276.0313,674.9458,1270.0313,668.9458" style="stroke: #A80036; stroke-width: 1.5;"/><line style="stroke: #A80036; stroke-width: 2.25;" x1="657.5156" x2="135" y1="185.5239" y2="185.5239"/><line style="stroke: #A80036; stroke-width: 2.25;" x1="135" x2="135" y1="185.5239" y2="218.5239"/><polygon fill="#A80036" points="129,203.5239,135,218.5239,141,203.5239,135,209.5239" style="stroke: #A80036; stroke-width: 1.5;"/><line style="stroke: #A80036; stroke-width: 2.25;" x1="693.5156" x2="1243.0313" y1="185.5239" y2="185.5239"/><line style="stroke: #A80036; stroke-width: 2.25;" x1="1243.0313" x2="1243.0313" y1="185.5239" y2="218.5239"/><polygon fill="#A80036" points="1237.0313,203.5239,1243.0313,218.5239,1249.0313,203.5239,1243.0313,209.5239" style="stroke: #A80036; stroke-width: 1.5;"/><line style="stroke: #A80036; stroke-width: 2.25;" x1="135" x2="135" y1="398.9458" y2="713.9458"/><line style="stroke: #A80036; stroke-width: 2.25;" x1="135" x2="657.5156" y1="713.9458" y2="713.9458"/><polygon fill="#A80036" points="642.5156,707.9458,657.5156,713.9458,642.5156,719.9458,648.5156,713.9458" style="stroke: #A80036; stroke-width: 1.5;"/><line style="stroke: #A80036; stroke-width: 2.25;" x1="1243.0313" x2="1243.0313" y1="686.9458" y2="713.9458"/><line style="stroke: #A80036; stroke-width: 2.25;" x1="1243.0313" x2="693.5156" y1="713.9458" y2="713.9458"/><polygon fill="#A80036" points="708.5156,707.9458,693.5156,713.9458,708.5156,719.9458,702.5156,713.9458" style="stroke: #A80036; stroke-width: 1.5;"/><line style="stroke: #A80036; stroke-width: 2.25;" x1="675.5156" x2="675.5156" y1="127.6406" y2="167.5239"/><polygon fill="#A80036" points="669.5156,152.5239,675.5156,167.5239,681.5156,152.5239,675.5156,158.5239" style="stroke: #A80036; stroke-width: 1.5;"/><line style="stroke: #A80036; stroke-width: 2.25;" x1="675.5156" x2="675.5156" y1="731.9458" y2="761.9458"/><polygon fill="#A80036" points="669.5156,746.9458,675.5156,761.9458,681.5156,746.9458,675.5156,752.9458" style="stroke: #A80036; stroke-width: 1.5;"/><line style="stroke: #A80036; stroke-width: 2.25;" x1="675.5156" x2="675.5156" y1="837.2271" y2="867.2271"/><polygon fill="#A80036" points="669.5156,852.2271,675.5156,867.2271,681.5156,852.2271,675.5156,858.2271" style="stroke: #A80036; stroke-width: 1.5;"/><!--MD5=[e5c0cb91f26ba4098c1701fb6656d266]
@startuml
start
:User inputs Show Command;

If () then ([Input has less than 1 argument
OR more than two arguments])
    :Throws a ParseException;
    :Returns failure message
    (Invalid arguments);
else ([Input is either 1 or 2 arguments])
    If () then ([Input has 1 argument])
        If () then ([Input is 'show all'])
            :Return success message to show
            all statistics;
        else If() then ([Input is show `today`])
            :Return success message to show
            today's orders statistics;
        else ([Input is show 'DATE'])
            : Return success message to show
            statistics for this 'DATE';
        endif
    else ([Input have two arguments])
        If () then ([The date(s) are invalid])
            :Throws a ParseException;
            :Returns a failure message
            (Invalid dates);
        else ([Dates are valid])
            If () then ([Start Date is after the End Date])
                :Throws a ParseException;
                :Returns a failure Message
                (Start Date should be before End Date);
            else (Start Date before End Date)
                : Returns success message to show
                from Start Date to End Date;
            endif
        endif
    endif
endif
:LogicManager prints message to
user and executes the command;
stop
@enduml

PlantUML version 1.2019.11(Sun Sep 22 18:02:15 SGT 2019)
(GPL source distribution)
Java Runtime: OpenJDK Runtime Environment
JVM: OpenJDK 64-Bit Server VM
Java Version: 11.0.5+10-b520.17
Operating System: Windows 10
Default Encoding: UTF-8
Language: en
Country: SG
--></g></svg>
