<?xml version="1.0" encoding="UTF-8" standalone="no"?><svg xmlns="http://www.w3.org/2000/svg" xmlns:xlink="http://www.w3.org/1999/xlink" contentScriptType="application/ecmascript" contentStyleType="text/css" height="433.6px" preserveAspectRatio="none" style="width:867px;height:433px;" version="1.1" viewBox="0 0 867 433" width="867.2px" zoomAndPan="magnify"><defs/><g><rect fill="#C8C8FA" height="416.1453" style="stroke: #A80036; stroke-width: 0.8;" width="692.8" x="90.4" y="3.2"/><text fill="#FFFFFF" font-family="Arial" font-size="12" font-weight="bold" lengthAdjust="spacingAndGlyphs" textLength="31.2" x="419.6" y="14.4559">Logic</text><rect fill="#F97181" height="416.1453" style="stroke: #A80036; stroke-width: 0.8;" width="73.6" x="784.8" y="3.2"/><text fill="#FFFFFF" font-family="Arial" font-size="12" font-weight="bold" lengthAdjust="spacingAndGlyphs" textLength="35.2" x="802.4" y="14.4559">Model</text><rect fill="#FFFFFF" height="339.9086" style="stroke: #A80036; stroke-width: 0.8;" width="8" x="140.8" y="69.8367"/><rect fill="#FFFFFF" height="180.7938" style="stroke: #A80036; stroke-width: 0.8;" width="8" x="323.2" y="92.9957"/><rect fill="#FFFFFF" height="24.8789" style="stroke: #A80036; stroke-width: 0.8;" width="8" x="463.6" y="112.1957"/><rect fill="#FFFFFF" height="79.1969" style="stroke: #A80036; stroke-width: 0.8;" width="8" x="463.6" y="160.2336"/><rect fill="#FFFFFF" height="36.8379" style="stroke: #A80036; stroke-width: 0.8;" width="8" x="598" y="179.4336"/><rect fill="#FFFFFF" height="101.5969" style="stroke: #A80036; stroke-width: 0.8;" width="8" x="598" y="296.9484"/><rect fill="#FFFFFF" height="24.8789" style="stroke: #A80036; stroke-width: 0.8;" width="8" x="719.2" y="350.5074"/><rect fill="#FFFFFF" height="11.2" style="stroke: #A80036; stroke-width: 0.8;" width="8" x="817.6" y="320.1074"/><line style="stroke: #A80036; stroke-width: 0.8; stroke-dasharray: 5.0,5.0;" x1="144.8" x2="144.8" y1="45.0777" y2="424.1453"/><line style="stroke: #A80036; stroke-width: 0.8; stroke-dasharray: 5.0,5.0;" x1="327.2" x2="327.2" y1="45.0777" y2="424.1453"/><line style="stroke: #A80036; stroke-width: 0.8; stroke-dasharray: 5.0,5.0;" x1="467.2" x2="467.2" y1="123.8352" y2="424.1453"/><line style="stroke: #A80036; stroke-width: 0.8; stroke-dasharray: 5.0,5.0;" x1="601.6" x2="601.6" y1="191.073" y2="424.1453"/><line style="stroke: #A80036; stroke-width: 0.8; stroke-dasharray: 5.0,5.0;" x1="723.2" x2="723.2" y1="362.1469" y2="424.1453"/><line style="stroke: #A80036; stroke-width: 0.8; stroke-dasharray: 5.0,5.0;" x1="821.6" x2="821.6" y1="45.0777" y2="424.1453"/><rect fill="#3333C4" height="24.0789" style="stroke: #A80036; stroke-width: 1.2000000000000002;" width="86.4" x="101.6" y="20.1988"/><text fill="#FFFFFF" font-family="Arial" font-size="11.2" lengthAdjust="spacingAndGlyphs" textLength="75.2" x="107.2" y="36.3043">:LogicManager</text><rect fill="#3333C4" height="24.0789" style="stroke: #A80036; stroke-width: 1.2000000000000002;" width="108.8" x="272.8" y="20.1988"/><text fill="#FFFFFF" font-family="Arial" font-size="11.2" lengthAdjust="spacingAndGlyphs" textLength="97.6" x="278.4" y="36.3043">:RecipeBookParser</text><rect fill="#9D0012" height="24.0789" style="stroke: #A80036; stroke-width: 1.2000000000000002;" width="51.2" x="796" y="20.1988"/><text fill="#FFFFFF" font-family="Arial" font-size="11.2" lengthAdjust="spacingAndGlyphs" textLength="33.6" x="804.8" y="36.3043">:Model</text><rect fill="#FFFFFF" height="339.9086" style="stroke: #A80036; stroke-width: 0.8;" width="8" x="140.8" y="69.8367"/><rect fill="#FFFFFF" height="180.7938" style="stroke: #A80036; stroke-width: 0.8;" width="8" x="323.2" y="92.9957"/><rect fill="#FFFFFF" height="24.8789" style="stroke: #A80036; stroke-width: 0.8;" width="8" x="463.6" y="112.1957"/><rect fill="#FFFFFF" height="79.1969" style="stroke: #A80036; stroke-width: 0.8;" width="8" x="463.6" y="160.2336"/><rect fill="#FFFFFF" height="36.8379" style="stroke: #A80036; stroke-width: 0.8;" width="8" x="598" y="179.4336"/><rect fill="#FFFFFF" height="101.5969" style="stroke: #A80036; stroke-width: 0.8;" width="8" x="598" y="296.9484"/><rect fill="#FFFFFF" height="24.8789" style="stroke: #A80036; stroke-width: 0.8;" width="8" x="719.2" y="350.5074"/><rect fill="#FFFFFF" height="11.2" style="stroke: #A80036; stroke-width: 0.8;" width="8" x="817.6" y="320.1074"/><polygon fill="#A80036" points="131.2,66.6367,139.2,69.8367,131.2,73.0367,134.4,69.8367" style="stroke: #A80036; stroke-width: 0.8;"/><line style="stroke: #A80036; stroke-width: 0.8;" x1="2.4" x2="136" y1="69.8367" y2="69.8367"/><text fill="#000000" font-family="Arial" font-size="10.4" lengthAdjust="spacingAndGlyphs" textLength="123.2" x="10" y="66.0328">execute("time 1 01:00:00")</text><polygon fill="#A80036" points="313.6,89.7957,321.6,92.9957,313.6,96.1957,316.8,92.9957" style="stroke: #A80036; stroke-width: 0.8;"/><line style="stroke: #A80036; stroke-width: 0.8;" x1="148.8" x2="318.4" y1="92.9957" y2="92.9957"/><text fill="#000000" font-family="Arial" font-size="10.4" lengthAdjust="spacingAndGlyphs" textLength="159.2" x="156.4" y="89.1918">parseCommand("time 1 01:00:00")</text><polygon fill="#A80036" points="396,100.9957,404,104.1957,396,107.3957,399.2,104.1957" style="stroke: #A80036; stroke-width: 0.8;"/><line style="stroke: #A80036; stroke-width: 0.8;" x1="331.2" x2="400.8" y1="104.1957" y2="104.1957"/><rect fill="#3333C4" height="24.0789" style="stroke: #A80036; stroke-width: 1.2000000000000002;" width="124" x="405.6" y="99.3957"/><text fill="#FFFFFF" font-family="Arial" font-size="11.2" lengthAdjust="spacingAndGlyphs" textLength="112.8" x="411.2" y="115.5012">:TimeCommandParser</text><polygon fill="#A80036" points="340,133.8746,332,137.0746,340,140.2746,336.8,137.0746" style="stroke: #A80036; stroke-width: 0.8;"/><line style="stroke: #A80036; stroke-width: 0.8; stroke-dasharray: 2.0,2.0;" x1="335.2" x2="466.8" y1="137.0746" y2="137.0746"/><polygon fill="#A80036" points="454,157.0336,462,160.2336,454,163.4336,457.2,160.2336" style="stroke: #A80036; stroke-width: 0.8;"/><line style="stroke: #A80036; stroke-width: 0.8;" x1="331.2" x2="458.8" y1="160.2336" y2="160.2336"/><text fill="#000000" font-family="Arial" font-size="10.4" lengthAdjust="spacingAndGlyphs" textLength="88.8" x="353" y="156.4297">parse("1 01:00:00")</text><polygon fill="#A80036" points="544,168.2336,552,171.4336,544,174.6336,547.2,171.4336" style="stroke: #A80036; stroke-width: 0.8;"/><line style="stroke: #A80036; stroke-width: 0.8;" x1="471.6" x2="548.8" y1="171.4336" y2="171.4336"/><rect fill="#3333C4" height="24.0789" style="stroke: #A80036; stroke-width: 1.2000000000000002;" width="96.8" x="553.6" y="166.6336"/><text fill="#FFFFFF" font-family="Arial" font-size="11.2" lengthAdjust="spacingAndGlyphs" textLength="85.6" x="559.2" y="182.7391">d:TimeCommand</text><polygon fill="#A80036" points="480.4,213.0715,472.4,216.2715,480.4,219.4715,477.2,216.2715" style="stroke: #A80036; stroke-width: 0.8;"/><line style="stroke: #A80036; stroke-width: 0.8; stroke-dasharray: 2.0,2.0;" x1="475.6" x2="601.2" y1="216.2715" y2="216.2715"/><text fill="#000000" font-family="Arial" font-size="10.4" lengthAdjust="spacingAndGlyphs" textLength="5.6" x="534" y="212.4676">d</text><polygon fill="#A80036" points="340,236.2305,332,239.4305,340,242.6305,336.8,239.4305" style="stroke: #A80036; stroke-width: 0.8;"/><line style="stroke: #A80036; stroke-width: 0.8; stroke-dasharray: 2.0,2.0;" x1="335.2" x2="466.8" y1="239.4305" y2="239.4305"/><text fill="#000000" font-family="Arial" font-size="10.4" lengthAdjust="spacingAndGlyphs" textLength="5.6" x="396.6" y="235.6266">d</text><line style="stroke: #A80036; stroke-width: 1.6;" x1="460.4" x2="474.8" y1="243.4305" y2="257.8305"/><line style="stroke: #A80036; stroke-width: 1.6;" x1="460.4" x2="474.8" y1="257.8305" y2="243.4305"/><polygon fill="#A80036" points="157.6,270.5895,149.6,273.7895,157.6,276.9895,154.4,273.7895" style="stroke: #A80036; stroke-width: 0.8;"/><line style="stroke: #A80036; stroke-width: 0.8; stroke-dasharray: 2.0,2.0;" x1="152.8" x2="326.4" y1="273.7895" y2="273.7895"/><text fill="#000000" font-family="Arial" font-size="10.4" lengthAdjust="spacingAndGlyphs" textLength="5.6" x="235.2" y="269.9855">d</text><polygon fill="#A80036" points="588.4,293.7484,596.4,296.9484,588.4,300.1484,591.6,296.9484" style="stroke: #A80036; stroke-width: 0.8;"/><line style="stroke: #A80036; stroke-width: 0.8;" x1="148.8" x2="593.2" y1="296.9484" y2="296.9484"/><text fill="#000000" font-family="Arial" font-size="10.4" lengthAdjust="spacingAndGlyphs" textLength="43.2" x="351.8" y="293.1445">execute()</text><polygon fill="#A80036" points="808,316.9074,816,320.1074,808,323.3074,811.2,320.1074" style="stroke: #A80036; stroke-width: 0.8;"/><line style="stroke: #A80036; stroke-width: 0.8;" x1="606" x2="812.8" y1="320.1074" y2="320.1074"/><text fill="#000000" font-family="Arial" font-size="10.4" lengthAdjust="spacingAndGlyphs" textLength="92.8" x="665.4" y="316.3035">setTime(r, 01:00:00)</text><polygon fill="#A80036" points="614.8,328.1074,606.8,331.3074,614.8,334.5074,611.6,331.3074" style="stroke: #A80036; stroke-width: 0.8;"/><line style="stroke: #A80036; stroke-width: 0.8; stroke-dasharray: 2.0,2.0;" x1="610" x2="820.8" y1="331.3074" y2="331.3074"/><polygon fill="#A80036" points="664.8,339.3074,672.8,342.5074,664.8,345.7074,668,342.5074" style="stroke: #A80036; stroke-width: 0.8;"/><line style="stroke: #A80036; stroke-width: 0.8;" x1="606" x2="669.6" y1="342.5074" y2="342.5074"/><rect fill="#3333C4" height="24.0789" style="stroke: #A80036; stroke-width: 1.2000000000000002;" width="97.6" x="674.4" y="337.7074"/><text fill="#FFFFFF" font-family="Arial" font-size="11.2" lengthAdjust="spacingAndGlyphs" textLength="86.4" x="680" y="353.8129">:CommandResult</text><polygon fill="#A80036" points="614.8,372.1863,606.8,375.3863,614.8,378.5863,611.6,375.3863" style="stroke: #A80036; stroke-width: 0.8;"/><line style="stroke: #A80036; stroke-width: 0.8; stroke-dasharray: 2.0,2.0;" x1="610" x2="722.4" y1="375.3863" y2="375.3863"/><polygon fill="#A80036" points="157.6,395.3453,149.6,398.5453,157.6,401.7453,154.4,398.5453" style="stroke: #A80036; stroke-width: 0.8;"/><line style="stroke: #A80036; stroke-width: 0.8; stroke-dasharray: 2.0,2.0;" x1="152.8" x2="601.2" y1="398.5453" y2="398.5453"/><text fill="#000000" font-family="Arial" font-size="10.4" lengthAdjust="spacingAndGlyphs" textLength="25.6" x="362.6" y="394.7414">result</text><polygon fill="#A80036" points="11.2,406.5453,3.2,409.7453,11.2,412.9453,8,409.7453" style="stroke: #A80036; stroke-width: 0.8;"/><line style="stroke: #A80036; stroke-width: 0.8; stroke-dasharray: 2.0,2.0;" x1="6.4" x2="144" y1="409.7453" y2="409.7453"/><!--MD5=[2fad4a01e3e6ce86a5842fa115953c88]
@startuml TimeSequenceDiagram








skinparam BackgroundColor #FFFFFFF

skinparam Shadowing false

skinparam Class {
    FontColor #FFFFFF
    BorderThickness 1
    BorderColor #FFFFFF
    StereotypeFontColor #FFFFFF
}

skinparam Actor {
    BorderColor #000000
    Color #000000
}

skinparam Sequence {
    MessageAlign center
    BoxFontSize 15
    BoxPadding 0
    BoxFontColor #FFFFFF
    SequenceBoxFontName Segoe UI
}

skinparam Participant {
    FontColor #FFFFFFF
    Padding 20
}

skinparam MinClassWidth 50
skinparam ParticipantPadding 10
skinparam Shadowing false
skinparam DefaultTextAlignment center
skinparam packageStyle Folder

skinparam DefaultFontName Arial
skinparam defaultMonospacedFontName Consolas

hide footbox
hide members
hide circle

box Logic #C8C8FA
participant ":LogicManager" as LogicManager #3333C4
participant ":RecipeBookParser" as RecipeBookParser #3333C4
participant ":TimeCommandParser" as TimeCommandParser #3333C4
participant "d:TimeCommand" as TimeCommand #3333C4
participant ":CommandResult" as CommandResult #3333C4
end box

box Model #F97181
participant ":Model" as Model #9D0012
end box


[-> LogicManager : execute("time 1 01:00:00")
activate LogicManager

LogicManager -> RecipeBookParser : parseCommand("time 1 01:00:00")
activate RecipeBookParser

create TimeCommandParser
RecipeBookParser -> TimeCommandParser
activate TimeCommandParser

TimeCommandParser - -> RecipeBookParser
deactivate TimeCommandParser

RecipeBookParser -> TimeCommandParser : parse("1 01:00:00")
activate TimeCommandParser

create TimeCommand
TimeCommandParser -> TimeCommand
activate TimeCommand

TimeCommand - -> TimeCommandParser : d

deactivate TimeCommand

TimeCommandParser - -> RecipeBookParser : d
deactivate TimeCommandParser
TimeCommandParser -[hidden]-> RecipeBookParser
destroy TimeCommandParser

RecipeBookParser - -> LogicManager : d
deactivate RecipeBookParser

LogicManager -> TimeCommand : execute()
activate TimeCommand

TimeCommand -> Model : setTime(r, 01:00:00)
activate Model

Model - -> TimeCommand
deactivate Model

create CommandResult
TimeCommand -> CommandResult
activate CommandResult

CommandResult - -> TimeCommand
deactivate CommandResult

TimeCommand - -> LogicManager : result
deactivate TimeCommand

[<- -LogicManager
deactivate LogicManager
@enduml

PlantUML version 1.2020.03beta6(Unknown compile time)
(GPL source distribution)
Java Runtime: OpenJDK Runtime Environment
JVM: OpenJDK 64-Bit Server VM
Java Version: 11.0.5+10-b520.17
Operating System: Windows 10
Default Encoding: Cp1252
Language: en
Country: SG
--></g></svg>
