<?xml version="1.0" encoding="UTF-8" standalone="no"?><svg xmlns="http://www.w3.org/2000/svg" xmlns:xlink="http://www.w3.org/1999/xlink" contentScriptType="application/ecmascript" contentStyleType="text/css" height="647.5px" preserveAspectRatio="none" style="width:1208px;height:647px;" version="1.1" viewBox="0 0 1208 647" width="1208.75px" zoomAndPan="magnify"><defs/><g><!--MD5=[9681dc6e01e10c6b4fe06895ae94f592]
cluster UI--><rect fill="#FFFFFF" height="562.5" style="stroke: #000000; stroke-width: 1.875;" width="943.75" x="27.5" y="70"/><text fill="#000000" font-family="sans-serif" font-size="17.5" font-weight="bold" lengthAdjust="spacingAndGlyphs" textLength="17.5" x="490.625" y="90.6665">UI</text><!--MD5=[15636c1ca4a123c16a2a1a8e90aca7a9]
cluster Model--><rect fill="#FFFFFF" height="115" style="stroke: #000000; stroke-width: 1.875;" width="183.75" x="1011.25" y="518.75"/><text fill="#000000" font-family="sans-serif" font-size="17.5" font-weight="bold" lengthAdjust="spacingAndGlyphs" textLength="55" x="1075.625" y="539.4165">Model</text><!--MD5=[8237f0313b7e89f796726a268ea6fa70]
cluster Logic--><rect fill="#FFFFFF" height="115" style="stroke: #000000; stroke-width: 1.875;" width="178.75" x="1011.25" y="193.75"/><text fill="#000000" font-family="sans-serif" font-size="17.5" font-weight="bold" lengthAdjust="spacingAndGlyphs" textLength="47.5" x="1076.875" y="214.4165">Logic</text><!--MD5=[56c17820b5ec61b985b118caeb6340b1]
class Ui--><rect fill="#1D8900" height="48.6157" id="Ui" style="stroke: #FFFFFF; stroke-width: 1.25;" width="80" x="553.75" y="115"/><text fill="#FFFFFF" font-family="sans-serif" font-size="15" font-style="italic" lengthAdjust="spacingAndGlyphs" textLength="77.5" x="555" y="136.8213">«Interface»</text><text fill="#FFFFFF" font-family="Arial" font-size="15" font-style="italic" lengthAdjust="spacingAndGlyphs" textLength="15" x="586.25" y="154.187">Ui</text><!--MD5=[2194e160f11909a32d987932bec8f8fd]
class UiPart--><rect fill="#1D8900" height="46.9971" id="UiPart" style="stroke: #FFFFFF; stroke-width: 1.25;" width="72.5" x="417.5" y="565"/><text fill="#FFFFFF" font-family="Arial" font-size="15" lengthAdjust="spacingAndGlyphs" textLength="65" x="421.25" y="585.3198">{abstract}</text><text fill="#FFFFFF" font-family="Arial" font-size="15" lengthAdjust="spacingAndGlyphs" textLength="42.5" x="432.5" y="602.5684">UiPart</text><!--MD5=[bb31649cd695b383b0a893153f017b1a]
class UiManager--><rect fill="#1D8900" height="29.7485" id="UiManager" style="stroke: #FFFFFF; stroke-width: 1.25;" width="82.5" x="677.5" y="124.375"/><text fill="#FFFFFF" font-family="Arial" font-size="15" lengthAdjust="spacingAndGlyphs" textLength="75" x="681.25" y="144.6948">UiManager</text><!--MD5=[e6c809820d88acc3564faeb20394ab9d]
class MainWindow--><rect fill="#1D8900" height="29.7485" id="MainWindow" style="stroke: #FFFFFF; stroke-width: 1.25;" width="95" x="480" y="248.75"/><text fill="#FFFFFF" font-family="Arial" font-size="15" lengthAdjust="spacingAndGlyphs" textLength="87.5" x="483.75" y="269.0698">MainWindow</text><!--MD5=[6a99d1f66704ead86da80187de9dded6]
class HelpWindow--><rect fill="#1D8900" height="29.7485" id="HelpWindow" style="stroke: #FFFFFF; stroke-width: 1.25;" width="95" x="700" y="353.75"/><text fill="#FFFFFF" font-family="Arial" font-size="15" lengthAdjust="spacingAndGlyphs" textLength="87.5" x="703.75" y="374.0698">HelpWindow</text><!--MD5=[605c15d2e9c2c04b14e617ebe6243d49]
class ShowWindow--><rect fill="#1D8900" height="29.7485" id="ShowWindow" style="stroke: #FFFFFF; stroke-width: 1.25;" width="101.25" x="94.375" y="353.75"/><text fill="#FFFFFF" font-family="Arial" font-size="15" lengthAdjust="spacingAndGlyphs" textLength="93.75" x="98.125" y="374.0698">ShowWindow</text><!--MD5=[ea641667e014ba942dc8bca88e7c22f4]
class ResultDisplay--><rect fill="#1D8900" height="29.7485" id="ResultDisplay" style="stroke: #FFFFFF; stroke-width: 1.25;" width="103.75" x="401.875" y="353.75"/><text fill="#FFFFFF" font-family="Arial" font-size="15" lengthAdjust="spacingAndGlyphs" textLength="96.25" x="405.625" y="374.0698">ResultDisplay</text><!--MD5=[43f0bb7a1ffd24054ecf2badf8d10c93]
class OrderListPanel--><rect fill="#1D8900" height="29.7485" id="OrderListPanel" style="stroke: #FFFFFF; stroke-width: 1.25;" width="111.25" x="839.375" y="353.75"/><text fill="#FFFFFF" font-family="Arial" font-size="15" lengthAdjust="spacingAndGlyphs" textLength="103.75" x="843.125" y="374.0698">OrderListPanel</text><!--MD5=[fd49482a18632f593397daa2a936cb8e]
class OrderCard--><rect fill="#1D8900" height="29.7485" id="OrderCard" style="stroke: #FFFFFF; stroke-width: 1.25;" width="80" x="855" y="458.75"/><text fill="#FFFFFF" font-family="Arial" font-size="15" lengthAdjust="spacingAndGlyphs" textLength="72.5" x="858.75" y="479.0698">OrderCard</text><!--MD5=[2b60db2fc160c90f3a0ded0376aa3223]
class StatusBarFooter--><rect fill="#1D8900" height="29.7485" id="StatusBarFooter" style="stroke: #FFFFFF; stroke-width: 1.25;" width="118.75" x="239.375" y="353.75"/><text fill="#FFFFFF" font-family="Arial" font-size="15" lengthAdjust="spacingAndGlyphs" textLength="111.25" x="243.125" y="374.0698">StatusBarFooter</text><!--MD5=[bfe415b5c3f0a3f3f66149424b76647d]
class CommandBox--><rect fill="#1D8900" height="29.7485" id="CommandBox" style="stroke: #FFFFFF; stroke-width: 1.25;" width="106.25" x="549.375" y="353.75"/><text fill="#FFFFFF" font-family="Arial" font-size="15" lengthAdjust="spacingAndGlyphs" textLength="98.75" x="553.125" y="374.0698">CommandBox</text><!--MD5=[eef5f0b07d2fd263bed9c722d8c1c089]
class HiddenModel--><rect fill="#FFFFFF" height="29.7485" id="HiddenModel" style="stroke: #FFFFFF; stroke-width: 1.25;" width="98.75" x="1065.625" y="573.75"/><rect fill="#FFFFFF" height="29.7485" style="stroke: #FFFFFF; stroke-width: 1.25;" width="98.75" x="1065.625" y="573.75"/><text fill="#FFFFFF" font-family="Arial" font-size="15" lengthAdjust="spacingAndGlyphs" textLength="91.25" x="1069.375" y="594.0698">HiddenModel</text><!--MD5=[68aa0c86fa78b4986a45cc6cf99a7822]
class HiddenLogic--><rect fill="#FFFFFF" height="29.7485" id="HiddenLogic" style="stroke: #FFFFFF; stroke-width: 1.25;" width="95" x="1065" y="248.75"/><rect fill="#FFFFFF" height="29.7485" style="stroke: #FFFFFF; stroke-width: 1.25;" width="95" x="1065" y="248.75"/><text fill="#FFFFFF" font-family="Arial" font-size="15" lengthAdjust="spacingAndGlyphs" textLength="87.5" x="1068.75" y="269.0698">HiddenLogic</text><!--MD5=[f8dc820cca8808bdb695301f77a92b66]
class HiddenOutside--><rect fill="#FFFFFF" height="29.7485" id="HiddenOutside" style="stroke: #FFFFFF; stroke-width: 1.25;" width="111.25" x="538.125" y="10"/><rect fill="#FFFFFF" height="29.7485" style="stroke: #FFFFFF; stroke-width: 1.25;" width="111.25" x="538.125" y="10"/><text fill="#FFFFFF" font-family="Arial" font-size="15" lengthAdjust="spacingAndGlyphs" textLength="103.75" x="541.875" y="30.3198">HiddenOutside</text><!--MD5=[a2825086c9e6423d98970e86c37e1f32]
link HiddenOutside to Ui--><path d="M593.75,40.4187 C593.75,57.3638 593.75,86.1888 593.75,108.1513 " fill="none" id="HiddenOutside-&gt;Ui" style="stroke: #0E4100; stroke-width: 1.375; stroke-dasharray: 7.0,7.0;"/><polygon fill="#0E4100" points="593.75,114.725,598.75,103.475,593.75,108.475,588.75,103.475,593.75,114.725" style="stroke: #0E4100; stroke-width: 1.375;"/><!--MD5=[d23f9412713304e09763acc39549c87b]
reverse link Ui to UiManager--><path d="M658.9238,139.375 C665.0375,139.375 671.1513,139.375 677.265,139.375 " fill="none" id="Ui&lt;-UiManager" style="stroke: #0E4100; stroke-width: 1.375; stroke-dasharray: 7.0,7.0;"/><polygon fill="none" points="658.7887,148.125,633.7888,139.375,658.7887,130.625,658.7887,148.125" style="stroke: #0E4100; stroke-width: 1.375;"/><!--MD5=[f4359266757daa3e145c93b9f63f2a7f]
link UiManager to MainWindow--><path d="M696.8113,154.605 C661.6488,177.0125 592.76,220.9125 554.585,245.24 " fill="none" id="UiManager-&gt;MainWindow" style="stroke: #0E4100; stroke-width: 1.375;"/><polygon fill="#0E4100" points="549.1825,248.6825,561.357,246.8538,554.4534,245.3239,555.9832,238.4203,549.1825,248.6825" style="stroke: #0E4100; stroke-width: 1.375;"/><!--MD5=[86d09801fc7f798f389a693fae28d604]
link MainWindow to HelpWindow--><path d="M557.17,278.8238 C597.3025,297.5213 668.8,330.8337 711.8163,350.875 " fill="none" id="MainWindow-&gt;HelpWindow" style="stroke: #0E4100; stroke-width: 1.375;"/><polygon fill="#0E4100" points="717.95,353.7325,709.8644,344.4489,712.2848,351.0928,705.6409,353.5132,717.95,353.7325" style="stroke: #0E4100; stroke-width: 1.375;"/><!--MD5=[92dc039ae140ba7abbe540b6db158255]
link MainWindow to CommandBox--><path d="M546.473,290.9289 C546.473,290.9289 571.7175,325.4313 582.5213,340.1962 " fill="none" id="MainWindow-CommandBox" style="stroke: #0E4100; stroke-width: 1.375;"/><polygon fill="#0E4100" points="592.3063,353.5675,589.6978,341.5359,588.6154,348.5237,581.6277,347.4413,592.3063,353.5675" style="stroke: #0E4100; stroke-width: 1.375;"/><line style="stroke: #0E4100; stroke-width: 1.375;" x1="588.6154" x2="582.71" y1="348.5237" y2="340.4538"/><polygon fill="#0E4100" points="537.615,278.8238,538.0089,287.829,546.473,290.9289,546.0791,281.9237,537.615,278.8238" style="stroke: #0E4100; stroke-width: 1.375;"/><!--MD5=[751f32356d036c385cef4d287122ae87]
link MainWindow to ResultDisplay--><path d="M508.7931,290.9996 C508.7931,290.9996 484.0187,325.4313 473.3963,340.1962 " fill="none" id="MainWindow-ResultDisplay" style="stroke: #0E4100; stroke-width: 1.375;"/><polygon fill="#0E4100" points="463.7738,353.5675,474.4027,347.3555,467.4239,348.4941,466.2853,341.5153,463.7738,353.5675" style="stroke: #0E4100; stroke-width: 1.375;"/><line style="stroke: #0E4100; stroke-width: 1.375;" x1="467.4239" x2="473.265" y1="348.4941" y2="340.3775"/><polygon fill="#0E4100" points="517.5538,278.8238,509.1148,281.9915,508.7931,290.9996,517.2321,287.8319,517.5538,278.8238" style="stroke: #0E4100; stroke-width: 1.375;"/><!--MD5=[c6d25c3a1415b45fbbcafa25efe65a1b]
link MainWindow to OrderListPanel--><path d="M589.6163,282.3239 C589.6163,282.3239 762.445,330.5288 829.7963,349.3138 " fill="none" id="MainWindow-OrderListPanel" style="stroke: #0E4100; stroke-width: 1.375;"/><polygon fill="#0E4100" points="845.6575,353.7375,836.1647,345.8986,839.6373,352.0582,833.4777,355.5308,845.6575,353.7375" style="stroke: #0E4100; stroke-width: 1.375;"/><line style="stroke: #0E4100; stroke-width: 1.375;" x1="839.6373" x2="830.0056" y1="352.0582" y2="349.3719"/><polygon fill="#0E4100" points="575.1675,278.295,581.049,285.1257,589.6163,282.3239,583.7349,275.4932,575.1675,278.295" style="stroke: #0E4100; stroke-width: 1.375;"/><!--MD5=[be77818ef8144b1b88291425d82e9084]
link MainWindow to StatusBarFooter--><path d="M482.9614,284.9576 C482.9614,284.9576 384.1775,329.2213 344.3263,347.0775 " fill="none" id="MainWindow-StatusBarFooter" style="stroke: #0E4100; stroke-width: 1.375;"/><polygon fill="#0E4100" points="329.4763,353.7325,341.7873,353.695,335.1798,351.1767,337.6981,344.5693,329.4763,353.7325" style="stroke: #0E4100; stroke-width: 1.375;"/><line style="stroke: #0E4100; stroke-width: 1.375;" x1="335.1798" x2="344.3056" y1="351.1767" y2="347.0875"/><polygon fill="#0E4100" points="496.65,278.8238,487.7611,277.3278,482.9614,284.9576,491.8503,286.4535,496.65,278.8238" style="stroke: #0E4100; stroke-width: 1.375;"/><!--MD5=[47b45bf3ce2e1d5cc27147e255377e19]
link MainWindow to ShowWindow--><path d="M479.83,277.775 C409.3162,296.67 277.4363,332.0112 201.94,352.2413 " fill="none" id="MainWindow-&gt;ShowWindow" style="stroke: #0E4100; stroke-width: 1.375;"/><polygon fill="#0E4100" points="195.71,353.9113,207.8708,355.829,201.747,352.2935,205.2824,346.1697,195.71,353.9113" style="stroke: #0E4100; stroke-width: 1.375;"/><!--MD5=[acecb6492c5cebd296f510b090283c86]
link OrderListPanel to OrderCard--><path d="M895,383.8237 C895,401.4 895,431.8887 895,452.13 " fill="none" id="OrderListPanel-&gt;OrderCard" style="stroke: #0E4100; stroke-width: 1.375;"/><polygon fill="#0E4100" points="895,458.5675,900,447.3175,895,452.3175,890,447.3175,895,458.5675" style="stroke: #0E4100; stroke-width: 1.375;"/><!--MD5=[57cdbd9c2a08b96199a6234d10bf0163]
reverse link UiPart to MainWindow--><path d="M392.8075,573.3396 C266.785,544.0843 -0.6308,469.8363 95,353.75 C144.3175,293.8838 377.3113,273.855 479.8275,267.6125 " fill="none" id="UiPart&lt;-MainWindow" style="stroke: #0E4100; stroke-width: 1.375;"/><polygon fill="none" points="394.9188,564.8463,417.3713,578.8984,391.0563,581.9146,394.9188,564.8463" style="stroke: #0E4100; stroke-width: 1.375;"/><!--MD5=[c2b0433d56a858074b2759587ea31389]
link MainWindow to UiPart--><!--MD5=[6a054d1cbcb280d35d5ed6cf4ddd3c4a]
link ResultDisplay to UiPart--><path d="M453.75,383.9363 C453.75,414.725 453.75,489.7563 453.75,539.6131 " fill="none" id="ResultDisplay-&gt;UiPart" style="stroke: #0E4100; stroke-width: 1.375;"/><polygon fill="none" points="462.5,539.9085,453.75,564.9085,445,539.9085,462.5,539.9085" style="stroke: #0E4100; stroke-width: 1.375;"/><!--MD5=[bbb9937c6b10c921f0d97eaed5a79881]
link CommandBox to UiPart--><path d="M592.9688,383.9363 C571.2763,415.6563 517.4675,494.3325 483.4562,544.0641 " fill="none" id="CommandBox-&gt;UiPart" style="stroke: #0E4100; stroke-width: 1.375;"/><polygon fill="none" points="490.5363,549.2124,469.2,564.9085,476.0913,539.3334,490.5363,549.2124" style="stroke: #0E4100; stroke-width: 1.375;"/><!--MD5=[50d4b696570e49bd2049f89626b64929]
link OrderListPanel to UiPart--><path d="M867.0625,383.77 C796.4825,418.5613 609.7688,510.5962 513.3088,558.1426 " fill="none" id="OrderListPanel-&gt;UiPart" style="stroke: #0E4100; stroke-width: 1.375;"/><polygon fill="none" points="516.5988,566.276,490.3063,569.4809,508.8613,550.5794,516.5988,566.276" style="stroke: #0E4100; stroke-width: 1.375;"/><!--MD5=[be4ebb5fb6ba0376ab94858dc43aacae]
link OrderCard to UiPart--><path d="M854.6725,485.2813 C777.025,505.0788 606.3538,548.5925 514.7362,571.9511 " fill="none" id="OrderCard-&gt;UiPart" style="stroke: #0E4100; stroke-width: 1.375;"/><polygon fill="none" points="516.4675,580.5394,490.0813,578.237,512.145,563.5819,516.4675,580.5394" style="stroke: #0E4100; stroke-width: 1.375;"/><!--MD5=[333db60c48b4ce035180c8fd8b7021d9]
link StatusBarFooter to UiPart--><path d="M308.6813,383.9363 C331.3375,415.7275 387.6088,494.6887 423.035,544.4005 " fill="none" id="StatusBarFooter-&gt;UiPart" style="stroke: #0E4100; stroke-width: 1.375;"/><polygon fill="none" points="430.2675,539.4713,437.65,564.9085,416.0163,549.6275,430.2675,539.4713" style="stroke: #0E4100; stroke-width: 1.375;"/><!--MD5=[f6ded6870070611f25c393be6d476ca5]
link HelpWindow to UiPart--><path d="M728.6775,383.9363 C684.0975,416.945 570.8388,500.8038 504.4263,549.9778 " fill="none" id="HelpWindow-&gt;UiPart" style="stroke: #0E4100; stroke-width: 1.375;"/><polygon fill="none" points="509.56,557.064,484.2613,564.9085,499.1463,542.9996,509.56,557.064" style="stroke: #0E4100; stroke-width: 1.375;"/><!--MD5=[27ddd9d45c6f81e0e480046f3b6cfee7]
link OrderCard to Model--><path d="M935.3875,481.54 C947.865,485.0637 961.0062,490.4688 971.25,498.75 C988.3038,512.5363 1000.5675,533.7895 1008.6805,552.0416 C1009.1875,553.1824 1009.6784,554.3114 1010.1532,555.4262 C1010.3906,555.9835 1010.6239,556.5374 1010.8533,557.0873 C1010.968,557.3622 1011.0817,557.6362 1011.1944,557.9092 " fill="none" id="OrderCard-&gt;Model" style="stroke: #0E4100; stroke-width: 1.375; stroke-dasharray: 7.0,7.0;"/><polygon fill="#0E4100" points="1011.1944,557.9092,1011.5229,545.6025,1008.8094,552.1322,1002.2797,549.4186,1011.1944,557.9092" style="stroke: #0E4100; stroke-width: 1.375;"/><!--MD5=[90aba6ec762193f41687f31212656d8f]
link UiManager to Logic--><path d="M760.4588,141.645 C823.1038,143.9088 937.7275,151.105 971.25,173.75 C989.4219,186.025 1001.7206,207.2309 1009.5723,225.8361 C1010.0631,226.9989 1010.5364,228.1516 1010.9928,229.2913 C1011.0498,229.4337 1011.1066,229.576 1011.1631,229.718 " fill="none" id="UiManager-&gt;Logic" style="stroke: #0E4100; stroke-width: 1.375;"/><polygon fill="#0E4100" points="1011.1631,229.718,1011.6504,217.4166,1008.8528,223.9107,1002.3587,221.1131,1011.1631,229.718" style="stroke: #0E4100; stroke-width: 1.375;"/><!--MD5=[07bc7cbf7874720da1634fdfdaf490e2]
reverse link Logic to MainWindow--><path d="M1009.9457,263.75 C1008.7865,263.75 1007.6272,263.75 1006.468,263.75 C1001.8311,263.75 997.1942,263.75 992.5573,263.75 C983.2834,263.75 974.0096,263.75 964.7358,263.75 C946.1881,263.75 927.6405,263.75 909.0928,263.75 C871.9975,263.75 834.9022,263.75 797.8069,263.75 C723.6163,263.75 649.4256,263.75 575.235,263.75 " fill="none" id="Logic&lt;-MainWindow" style="stroke: #0E4100; stroke-width: 1.375;"/><polygon fill="#0E4100" points="1009.9457,263.75,998.6957,258.75,1003.6957,263.75,998.6957,268.75,1009.9457,263.75" style="stroke: #0E4100; stroke-width: 1.375;"/><!--MD5=[036a1e45589705f2562560351ef50066]
link ShowWindow to UiPart--><path d="M164.7838,383.9363 C211.7413,417.0163 331.1988,501.1688 400.9387,550.2973 " fill="none" id="ShowWindow-&gt;UiPart" style="stroke: #0E4100; stroke-width: 1.375;"/><polygon fill="none" points="406.2813,543.3576,421.68,564.9085,396.2038,557.6641,406.2813,543.3576" style="stroke: #0E4100; stroke-width: 1.375;"/><!--MD5=[2fa11238e6d9d0e3ff7c1d58b390b338]
link HelpWindow to OrderListPanel--><!--MD5=[8655318e6662184a4a769bb45b69b25c]
link CommandBox to HelpWindow--><!--MD5=[b8f93d5457cb1cca443f250cedc61ee2]
link ResultDisplay to CommandBox--><!--MD5=[be41e9187af53a708441cf1977ae807e]
link StatusBarFooter to ResultDisplay--><!--MD5=[089ddaaafc847821ca0144198f79a4c0]
link ShowWindow to StatusBarFooter--><!--MD5=[797840ae5398a2139560c61dad96f262]
@startuml








skinparam BackgroundColor #FFFFFFF

skinparam Shadowing false

skinparam Class {
    FontColor #FFFFFF
    BorderThickness 1
    BorderColor #FFFFFF
    StereotypeFontColor #FFFFFF
    FontName Arial
}

skinparam Actor {
    BorderColor #000000
    Color #000000
    FontName Arial
}

skinparam Sequence {
    MessageAlign center
    BoxFontSize 15
    BoxPadding 0
    BoxFontColor #FFFFFF
    FontName Arial
}

skinparam Participant {
    FontColor #FFFFFFF
    Padding 20
}

skinparam MinClassWidth 50
skinparam ParticipantPadding 10
skinparam Shadowing false
skinparam DefaultTextAlignment center
skinparam packageStyle Rectangle

hide footbox
hide members
hide circle
skinparam arrowThickness 1.1
skinparam arrowColor #0E4100
skinparam classBackgroundColor #1D8900

package UI <<Rectangle>>{
Interface Ui <<Interface>>
Class "{abstract}\nUiPart" as UiPart
Class UiManager
Class MainWindow
Class HelpWindow
Class ShowWindow
Class ResultDisplay
Class OrderListPanel
Class OrderCard
Class StatusBarFooter
Class CommandBox
}

package Model <<Rectangle>> {
Class HiddenModel #FFFFFF
}

package Logic <<Rectangle>> {
Class HiddenLogic #FFFFFF
}

Class HiddenOutside #FFFFFF
HiddenOutside ..> Ui

UiManager .left.|> Ui
UiManager -down-> MainWindow
MainWindow - -> HelpWindow
MainWindow *-down-> CommandBox
MainWindow *-down-> ResultDisplay
MainWindow *-down-> OrderListPanel
MainWindow *-down-> StatusBarFooter
MainWindow - -> ShowWindow

OrderListPanel -down-> OrderCard

MainWindow -left-|> UiPart

ResultDisplay - -|> UiPart
CommandBox - -|> UiPart
OrderListPanel - -|> UiPart
OrderCard - -|> UiPart
StatusBarFooter - -|> UiPart
HelpWindow -down-|> UiPart

OrderCard ..> Model
UiManager -right-> Logic
MainWindow -left-> Logic
ShowWindow - -|> UiPart

OrderListPanel -[hidden]left- HelpWindow
HelpWindow -[hidden]left- CommandBox
CommandBox -[hidden]left- ResultDisplay
ResultDisplay -[hidden]left- StatusBarFooter
StatusBarFooter -[hidden]left- ShowWindow

MainWindow -[hidden]-|> UiPart
@enduml

PlantUML version 1.2020.03beta6(Unknown compile time)
(GPL source distribution)
Java Runtime: OpenJDK Runtime Environment
JVM: OpenJDK 64-Bit Server VM
Java Version: 11.0.5+10-b520.30
Operating System: Windows 10
Default Encoding: UTF-8
Language: en
Country: US
--></g></svg>
