<?xml version="1.0" encoding="UTF-8" standalone="no"?><svg xmlns="http://www.w3.org/2000/svg" xmlns:xlink="http://www.w3.org/1999/xlink" contentScriptType="application/ecmascript" contentStyleType="text/css" height="777px" preserveAspectRatio="none" style="width:1276px;height:777px;" version="1.1" viewBox="0 0 1276 777" width="1276.5px" zoomAndPan="magnify"><defs/><g><!--MD5=[9681dc6e01e10c6b4fe06895ae94f592]
cluster UI--><rect fill="#FFFFFF" height="675" style="stroke: #000000; stroke-width: 2.25;" width="958.5" x="33" y="84"/><text fill="#000000" font-family="sans-serif" font-size="21" font-weight="bold" lengthAdjust="spacingAndGlyphs" textLength="21" x="501.75" y="108.7998">UI</text><!--MD5=[15636c1ca4a123c16a2a1a8e90aca7a9]
cluster Model--><rect fill="#FFFFFF" height="138" style="stroke: #000000; stroke-width: 2.25;" width="220.5" x="1039.5" y="622.5"/><text fill="#000000" font-family="sans-serif" font-size="21" font-weight="bold" lengthAdjust="spacingAndGlyphs" textLength="66" x="1116.75" y="647.2998">Model</text><!--MD5=[8237f0313b7e89f796726a268ea6fa70]
cluster Logic--><rect fill="#FFFFFF" height="138" style="stroke: #000000; stroke-width: 2.25;" width="214.5" x="1039.5" y="232.5"/><text fill="#000000" font-family="sans-serif" font-size="21" font-weight="bold" lengthAdjust="spacingAndGlyphs" textLength="57" x="1118.25" y="257.2998">Logic</text><!--MD5=[56c17820b5ec61b985b118caeb6340b1]
class Ui--><rect fill="#1D8900" height="58.3389" id="Ui" style="stroke: #FFFFFF; stroke-width: 1.5;" width="96" x="535.5" y="138"/><text fill="#FFFFFF" font-family="sans-serif" font-size="18" font-style="italic" lengthAdjust="spacingAndGlyphs" textLength="93" x="537" y="164.1855">«Interface»</text><text fill="#FFFFFF" font-family="Arial" font-size="18" font-style="italic" lengthAdjust="spacingAndGlyphs" textLength="18" x="574.5" y="185.0244">Ui</text><!--MD5=[2194e160f11909a32d987932bec8f8fd]
class UiPart--><rect fill="#1D8900" height="56.3965" id="UiPart" style="stroke: #FFFFFF; stroke-width: 1.5;" width="87" x="400.5" y="678"/><text fill="#FFFFFF" font-family="Arial" font-size="18" lengthAdjust="spacingAndGlyphs" textLength="78" x="405" y="702.3838">{abstract}</text><text fill="#FFFFFF" font-family="Arial" font-size="18" lengthAdjust="spacingAndGlyphs" textLength="51" x="418.5" y="723.082">UiPart</text><!--MD5=[bb31649cd695b383b0a893153f017b1a]
class UiManager--><rect fill="#1D8900" height="35.6982" id="UiManager" style="stroke: #FFFFFF; stroke-width: 1.5;" width="99" x="684" y="149.25"/><text fill="#FFFFFF" font-family="Arial" font-size="18" lengthAdjust="spacingAndGlyphs" textLength="90" x="688.5" y="173.6338">UiManager</text><!--MD5=[e6c809820d88acc3564faeb20394ab9d]
class MainWindow--><rect fill="#1D8900" height="35.6982" id="MainWindow" style="stroke: #FFFFFF; stroke-width: 1.5;" width="114" x="492" y="298.5"/><text fill="#FFFFFF" font-family="Arial" font-size="18" lengthAdjust="spacingAndGlyphs" textLength="105" x="496.5" y="322.8838">MainWindow</text><!--MD5=[6a99d1f66704ead86da80187de9dded6]
class HelpWindow--><rect fill="#1D8900" height="35.6982" id="HelpWindow" style="stroke: #FFFFFF; stroke-width: 1.5;" width="114" x="666" y="424.5"/><text fill="#FFFFFF" font-family="Arial" font-size="18" lengthAdjust="spacingAndGlyphs" textLength="105" x="670.5" y="448.8838">HelpWindow</text><!--MD5=[ea641667e014ba942dc8bca88e7c22f4]
class ResultDisplay--><rect fill="#1D8900" height="35.6982" id="ResultDisplay" style="stroke: #FFFFFF; stroke-width: 1.5;" width="124.5" x="308.25" y="424.5"/><text fill="#FFFFFF" font-family="Arial" font-size="18" lengthAdjust="spacingAndGlyphs" textLength="115.5" x="312.75" y="448.8838">ResultDisplay</text><!--MD5=[43f0bb7a1ffd24054ecf2badf8d10c93]
class OrderListPanel--><rect fill="#1D8900" height="35.6982" id="OrderListPanel" style="stroke: #FFFFFF; stroke-width: 1.5;" width="133.5" x="833.25" y="424.5"/><text fill="#FFFFFF" font-family="Arial" font-size="18" lengthAdjust="spacingAndGlyphs" textLength="124.5" x="837.75" y="448.8838">OrderListPanel</text><!--MD5=[fd49482a18632f593397daa2a936cb8e]
class OrderCard--><rect fill="#1D8900" height="35.6982" id="OrderCard" style="stroke: #FFFFFF; stroke-width: 1.5;" width="96" x="852" y="550.5"/><text fill="#FFFFFF" font-family="Arial" font-size="18" lengthAdjust="spacingAndGlyphs" textLength="87" x="856.5" y="574.8838">OrderCard</text><!--MD5=[2b60db2fc160c90f3a0ded0376aa3223]
class StatusBarFooter--><rect fill="#1D8900" height="35.6982" id="StatusBarFooter" style="stroke: #FFFFFF; stroke-width: 1.5;" width="142.5" x="113.25" y="424.5"/><text fill="#FFFFFF" font-family="Arial" font-size="18" lengthAdjust="spacingAndGlyphs" textLength="133.5" x="117.75" y="448.8838">StatusBarFooter</text><!--MD5=[bfe415b5c3f0a3f3f66149424b76647d]
class CommandBox--><rect fill="#1D8900" height="35.6982" id="CommandBox" style="stroke: #FFFFFF; stroke-width: 1.5;" width="127.5" x="485.25" y="424.5"/><text fill="#FFFFFF" font-family="Arial" font-size="18" lengthAdjust="spacingAndGlyphs" textLength="118.5" x="489.75" y="448.8838">CommandBox</text><!--MD5=[eef5f0b07d2fd263bed9c722d8c1c089]
class HiddenModel--><rect fill="#FFFFFF" height="35.6982" id="HiddenModel" style="stroke: #FFFFFF; stroke-width: 1.5;" width="118.5" x="1104.75" y="688.5"/><rect fill="#FFFFFF" height="35.6982" style="stroke: #FFFFFF; stroke-width: 1.5;" width="118.5" x="1104.75" y="688.5"/><text fill="#FFFFFF" font-family="Arial" font-size="18" lengthAdjust="spacingAndGlyphs" textLength="109.5" x="1109.25" y="712.8838">HiddenModel</text><!--MD5=[68aa0c86fa78b4986a45cc6cf99a7822]
class HiddenLogic--><rect fill="#FFFFFF" height="35.6982" id="HiddenLogic" style="stroke: #FFFFFF; stroke-width: 1.5;" width="114" x="1104" y="298.5"/><rect fill="#FFFFFF" height="35.6982" style="stroke: #FFFFFF; stroke-width: 1.5;" width="114" x="1104" y="298.5"/><text fill="#FFFFFF" font-family="Arial" font-size="18" lengthAdjust="spacingAndGlyphs" textLength="105" x="1108.5" y="322.8838">HiddenLogic</text><!--MD5=[f8dc820cca8808bdb695301f77a92b66]
class HiddenOutside--><rect fill="#FFFFFF" height="35.6982" id="HiddenOutside" style="stroke: #FFFFFF; stroke-width: 1.5;" width="133.5" x="516.75" y="12"/><rect fill="#FFFFFF" height="35.6982" style="stroke: #FFFFFF; stroke-width: 1.5;" width="133.5" x="516.75" y="12"/><text fill="#FFFFFF" font-family="Arial" font-size="18" lengthAdjust="spacingAndGlyphs" textLength="124.5" x="521.25" y="36.3838">HiddenOutside</text><!--MD5=[a2825086c9e6423d98970e86c37e1f32]
link HiddenOutside to Ui--><path d="M583.5,48.5025 C583.5,68.8365 583.5,103.4265 583.5,129.7815 " fill="none" id="HiddenOutside-&gt;Ui" style="stroke: #0E4100; stroke-width: 1.6500000000000001; stroke-dasharray: 7.0,7.0;"/><polygon fill="#0E4100" points="583.5,137.67,589.5,124.17,583.5,130.17,577.5,124.17,583.5,137.67" style="stroke: #0E4100; stroke-width: 1.6500000000000001;"/><!--MD5=[d23f9412713304e09763acc39549c87b]
reverse link Ui to UiManager--><path d="M661.7085,167.25 C669.045,167.25 676.3815,167.25 683.718,167.25 " fill="none" id="Ui&lt;-UiManager" style="stroke: #0E4100; stroke-width: 1.6500000000000001; stroke-dasharray: 7.0,7.0;"/><polygon fill="none" points="661.5465,177.75,631.5465,167.25,661.5465,156.75,661.5465,177.75" style="stroke: #0E4100; stroke-width: 1.6500000000000001;"/><!--MD5=[f4359266757daa3e145c93b9f63f2a7f]
link UiManager to MainWindow--><path d="M712.335,185.526 C678.693,212.1945 613.044,264.234 576.0405,293.565 " fill="none" id="UiManager-&gt;MainWindow" style="stroke: #0E4100; stroke-width: 1.6500000000000001;"/><polygon fill="#0E4100" points="569.9175,298.419,584.2228,294.7302,575.7934,293.7581,576.7654,285.3287,569.9175,298.419" style="stroke: #0E4100; stroke-width: 1.6500000000000001;"/><!--MD5=[86d09801fc7f798f389a693fae28d604]
link MainWindow to HelpWindow--><path d="M572.466,334.5885 C603.6,356.5965 658.6005,395.4765 692.8005,419.652 " fill="none" id="MainWindow-&gt;HelpWindow" style="stroke: #0E4100; stroke-width: 1.6500000000000001;"/><polygon fill="#0E4100" points="699.3495,424.281,691.7882,411.5894,693.2249,419.9522,684.8621,421.3888,699.3495,424.281" style="stroke: #0E4100; stroke-width: 1.6500000000000001;"/><!--MD5=[92dc039ae140ba7abbe540b6db158255]
link MainWindow to CommandBox--><path d="M549,352.5885 C549,352.5885 549,388.5555 549,404.3025 " fill="none" id="MainWindow-CommandBox" style="stroke: #0E4100; stroke-width: 1.6500000000000001;"/><polygon fill="#0E4100" points="549,424.281,555,410.781,549,416.781,543,410.781,549,424.281" style="stroke: #0E4100; stroke-width: 1.6500000000000001;"/><line style="stroke: #0E4100; stroke-width: 1.6500000000000001;" x1="549" x2="549" y1="416.781" y2="404.781"/><polygon fill="#0E4100" points="549,334.5885,543,343.5885,549,352.5885,555,343.5885,549,334.5885" style="stroke: #0E4100; stroke-width: 1.6500000000000001;"/><!--MD5=[751f32356d036c385cef4d287122ae87]
link MainWindow to ResultDisplay--><path d="M510.1044,344.8015 C510.1044,344.8015 440.229,392.952 411.0465,413.061 " fill="none" id="MainWindow-ResultDisplay" style="stroke: #0E4100; stroke-width: 1.6500000000000001;"/><polygon fill="#0E4100" points="394.7625,424.281,409.2836,421.5628,400.9386,420.0259,402.4755,411.681,394.7625,424.281" style="stroke: #0E4100; stroke-width: 1.6500000000000001;"/><line style="stroke: #0E4100; stroke-width: 1.6500000000000001;" x1="400.9386" x2="410.8193" y1="420.0259" y2="413.217"/><polygon fill="#0E4100" points="524.9265,334.5885,514.1111,334.7543,510.1044,344.8015,520.9198,344.6357,524.9265,334.5885" style="stroke: #0E4100; stroke-width: 1.6500000000000001;"/><!--MD5=[c6d25c3a1415b45fbbcafa25efe65a1b]
link MainWindow to OrderListPanel--><path d="M613.3239,340.5422 C613.3239,340.5422 771.3315,395.9115 834.057,417.8925 " fill="none" id="MainWindow-OrderListPanel" style="stroke: #0E4100; stroke-width: 1.6500000000000001;"/><polygon fill="#0E4100" points="852.8535,424.479,842.0969,414.3525,845.7754,421.999,838.1289,425.6775,852.8535,424.479" style="stroke: #0E4100; stroke-width: 1.6500000000000001;"/><line style="stroke: #0E4100; stroke-width: 1.6500000000000001;" x1="845.7754" x2="834.4508" y1="421.999" y2="418.029"/><polygon fill="#0E4100" points="596.337,334.5885,602.8459,343.2276,613.3239,340.5422,606.815,331.9031,596.337,334.5885" style="stroke: #0E4100; stroke-width: 1.6500000000000001;"/><!--MD5=[be77818ef8144b1b88291425d82e9084]
link MainWindow to StatusBarFooter--><path d="M482.7864,340.3423 C482.7864,340.3423 317.4705,396.129 252.1785,418.1625 " fill="none" id="MainWindow-StatusBarFooter" style="stroke: #0E4100; stroke-width: 1.6500000000000001;"/><polygon fill="#0E4100" points="233.46,424.479,248.1697,425.8484,240.5664,422.0813,244.3334,414.4781,233.46,424.479" style="stroke: #0E4100; stroke-width: 1.6500000000000001;"/><line style="stroke: #0E4100; stroke-width: 1.6500000000000001;" x1="240.5664" x2="251.9362" y1="422.0813" y2="418.2435"/><polygon fill="#0E4100" points="499.842,334.5885,489.3963,331.7802,482.7864,340.3423,493.2321,343.1506,499.842,334.5885" style="stroke: #0E4100; stroke-width: 1.6500000000000001;"/><!--MD5=[acecb6492c5cebd296f510b090283c86]
link OrderListPanel to OrderCard--><path d="M900,460.5885 C900,481.68 900,518.2665 900,542.556 " fill="none" id="OrderListPanel-&gt;OrderCard" style="stroke: #0E4100; stroke-width: 1.6500000000000001;"/><polygon fill="#0E4100" points="900,550.281,906,536.781,900,542.781,894,536.781,900,550.281" style="stroke: #0E4100; stroke-width: 1.6500000000000001;"/><!--MD5=[57cdbd9c2a08b96199a6234d10bf0163]
reverse link UiPart to MainWindow--><path d="M371.853,678.2615 C249.0225,633.834 23.4165,538.341 114,424.5 C161.664,364.599 383.952,335.5215 491.598,324.0975 " fill="none" id="UiPart&lt;-MainWindow" style="stroke: #0E4100; stroke-width: 1.6500000000000001;"/><polygon fill="none" points="375.4815,668.4069,400.26,688.3137,368.475,688.2039,375.4815,668.4069" style="stroke: #0E4100; stroke-width: 1.6500000000000001;"/><!--MD5=[c2b0433d56a858074b2759587ea31389]
link MainWindow to UiPart--><!--MD5=[6a054d1cbcb280d35d5ed6cf4ddd3c4a]
link ResultDisplay to UiPart--><path d="M375.21,460.7235 C385.686,497.928 411.324,588.966 428.169,648.7836 " fill="none" id="ResultDisplay-&gt;UiPart" style="stroke: #0E4100; stroke-width: 1.6500000000000001;"/><polygon fill="none" points="438.3405,646.167,436.365,677.8902,418.1265,651.8597,438.3405,646.167" style="stroke: #0E4100; stroke-width: 1.6500000000000001;"/><!--MD5=[bbb9937c6b10c921f0d97eaed5a79881]
link CommandBox to UiPart--><path d="M542.2725,460.7235 C527.202,498.186 490.1715,590.2305 466.1175,650.0224 " fill="none" id="CommandBox-&gt;UiPart" style="stroke: #0E4100; stroke-width: 1.6500000000000001;"/><polygon fill="none" points="475.845,653.9769,454.9065,677.8902,456.3615,646.1385,475.845,653.9769" style="stroke: #0E4100; stroke-width: 1.6500000000000001;"/><!--MD5=[50d4b696570e49bd2049f89626b64929]
link OrderListPanel to UiPart--><path d="M870.7815,460.7235 C799.629,501.4485 615.774,606.6825 514.1325,664.8581 " fill="none" id="OrderListPanel-&gt;UiPart" style="stroke: #0E4100; stroke-width: 1.6500000000000001;"/><polygon fill="none" points="519.06,674.1363,487.8075,679.9262,508.6275,655.9106,519.06,674.1363" style="stroke: #0E4100; stroke-width: 1.6500000000000001;"/><!--MD5=[be4ebb5fb6ba0376ab94858dc43aacae]
link OrderCard to UiPart--><path d="M851.631,584.319 C771.5235,608.0355 610.845,655.605 516.918,683.4126 " fill="none" id="OrderCard-&gt;UiPart" style="stroke: #0E4100; stroke-width: 1.6500000000000001;"/><polygon fill="none" points="519.582,693.574,487.836,692.0224,513.621,673.4381,519.582,693.574" style="stroke: #0E4100; stroke-width: 1.6500000000000001;"/><!--MD5=[333db60c48b4ce035180c8fd8b7021d9]
link StatusBarFooter to UiPart--><path d="M201.1275,460.7235 C239.7405,499.56 336.6795,597.0585 395.7495,656.4705 " fill="none" id="StatusBarFooter-&gt;UiPart" style="stroke: #0E4100; stroke-width: 1.6500000000000001;"/><polygon fill="none" points="403.3395,649.2127,417.0465,677.8902,388.4475,664.0191,403.3395,649.2127" style="stroke: #0E4100; stroke-width: 1.6500000000000001;"/><!--MD5=[f6ded6870070611f25c393be6d476ca5]
link HelpWindow to UiPart--><path d="M705.123,460.7235 C663.4245,499.7325 558.462,597.9225 495.036,657.2568 " fill="none" id="HelpWindow-&gt;UiPart" style="stroke: #0E4100; stroke-width: 1.6500000000000001;"/><polygon fill="none" points="502.0605,665.0632,472.98,677.8902,487.7145,649.7276,502.0605,665.0632" style="stroke: #0E4100; stroke-width: 1.6500000000000001;"/><!--MD5=[27ddd9d45c6f81e0e480046f3b6cfee7]
link OrderCard to Model--><path d="M948.465,577.848 C963.438,582.0765 979.2075,588.5625 991.5,598.5 C1011.9645,615.0435 1026.681,640.5474 1036.4166,662.45 C1037.025,663.8189 1037.6141,665.1737 1038.1838,666.5114 C1038.4687,667.1803 1038.7487,667.8448 1039.024,668.5047 C1039.1616,668.8347 1039.2981,669.1635 1039.4333,669.491 " fill="none" id="OrderCard-&gt;Model" style="stroke: #0E4100; stroke-width: 1.6500000000000001; stroke-dasharray: 7.0,7.0;"/><polygon fill="#0E4100" points="1039.4333,669.491,1039.8275,654.723,1036.5712,662.5586,1028.7356,659.3023,1039.4333,669.491" style="stroke: #0E4100; stroke-width: 1.6500000000000001;"/><!--MD5=[90aba6ec762193f41687f31212656d8f]
link UiManager to Logic--><path d="M783.1755,171.285 C848.433,175.47 958.611,185.742 991.5,208.5 C1013.1398,223.4738 1027.893,248.9287 1037.3541,271.1981 C1037.9454,272.59 1038.516,273.9694 1039.0664,275.333 C1039.204,275.6739 1039.3403,276.0138 1039.4754,276.3527 " fill="none" id="UiManager-&gt;Logic" style="stroke: #0E4100; stroke-width: 1.6500000000000001;"/><polygon fill="#0E4100" points="1039.4754,276.3527,1040.0509,261.5906,1036.6986,269.3856,1028.9036,266.0334,1039.4754,276.3527" style="stroke: #0E4100; stroke-width: 1.6500000000000001;"/><!--MD5=[07bc7cbf7874720da1634fdfdaf490e2]
reverse link Logic to MainWindow--><path d="M1038.4835,316.5 C1037.9051,316.5 1037.3267,316.5 1036.7483,316.5 C1032.1211,316.5 1027.4939,316.5 1022.8667,316.5 C1013.6122,316.5 1004.3578,316.5 995.1033,316.5 C976.5944,316.5 958.0854,316.5 939.5765,316.5 C902.5586,316.5 865.5406,316.5 828.5226,316.5 C754.4865,316.5 680.4503,316.5 606.414,316.5 " fill="none" id="Logic&lt;-MainWindow" style="stroke: #0E4100; stroke-width: 1.6500000000000001;"/><polygon fill="#0E4100" points="1038.4835,316.5,1024.9835,310.5,1030.9835,316.5,1024.9835,322.5,1038.4835,316.5" style="stroke: #0E4100; stroke-width: 1.6500000000000001;"/><!--MD5=[2fa11238e6d9d0e3ff7c1d58b390b338]
link HelpWindow to OrderListPanel--><!--MD5=[8655318e6662184a4a769bb45b69b25c]
link CommandBox to HelpWindow--><!--MD5=[b8f93d5457cb1cca443f250cedc61ee2]
link ResultDisplay to CommandBox--><!--MD5=[be41e9187af53a708441cf1977ae807e]
link StatusBarFooter to ResultDisplay--><!--MD5=[6de2ce6e5e6706f83790d02a2df78d04]
@startuml








skinparam BackgroundColor #FFFFFFF

skinparam Shadowing false

skinparam Class {
    FontColor #FFFFFF
    BorderThickness 1
    BorderColor #FFFFFF
    StereotypeFontColor #FFFFFF
    FontName Arial
}

skinparam Actor {
    BorderColor #000000
    Color #000000
    FontName Arial
}

skinparam Sequence {
    MessageAlign center
    BoxFontSize 15
    BoxPadding 0
    BoxFontColor #FFFFFF
    FontName Arial
}

skinparam Participant {
    FontColor #FFFFFFF
    Padding 20
}

skinparam MinClassWidth 50
skinparam ParticipantPadding 10
skinparam Shadowing false
skinparam DefaultTextAlignment center
skinparam packageStyle Rectangle

hide footbox
hide members
hide circle
skinparam arrowThickness 1.1
skinparam arrowColor #0E4100
skinparam classBackgroundColor #1D8900

package UI <<Rectangle>>{
Interface Ui <<Interface>>
Class "{abstract}\nUiPart" as UiPart
Class UiManager
Class MainWindow
Class HelpWindow
Class ResultDisplay
Class OrderListPanel
Class OrderCard
Class StatusBarFooter
Class CommandBox
}

package Model <<Rectangle>> {
Class HiddenModel #FFFFFF
}

package Logic <<Rectangle>> {
Class HiddenLogic #FFFFFF
}

Class HiddenOutside #FFFFFF
HiddenOutside ..> Ui

UiManager .left.|> Ui
UiManager -down-> MainWindow
MainWindow - -> HelpWindow
MainWindow *-down-> CommandBox
MainWindow *-down-> ResultDisplay
MainWindow *-down-> OrderListPanel
MainWindow *-down-> StatusBarFooter

OrderListPanel -down-> OrderCard

MainWindow -left-|> UiPart

ResultDisplay - -|> UiPart
CommandBox - -|> UiPart
OrderListPanel - -|> UiPart
OrderCard - -|> UiPart
StatusBarFooter - -|> UiPart
HelpWindow -down-|> UiPart

OrderCard ..> Model
UiManager -right-> Logic
MainWindow -left-> Logic

OrderListPanel -[hidden]left- HelpWindow
HelpWindow -[hidden]left- CommandBox
CommandBox -[hidden]left- ResultDisplay
ResultDisplay -[hidden]left- StatusBarFooter

MainWindow -[hidden]-|> UiPart
@enduml

PlantUML version 1.2019.11(Sun Sep 22 18:02:15 SGT 2019)
(GPL source distribution)
Java Runtime: OpenJDK Runtime Environment
JVM: OpenJDK 64-Bit Server VM
Java Version: 11.0.5+10-b520.17
Operating System: Windows 10
Default Encoding: UTF-8
Language: en
Country: SG
--></g></svg>
