<?xml version="1.0" encoding="UTF-8" standalone="no"?><svg xmlns="http://www.w3.org/2000/svg" xmlns:xlink="http://www.w3.org/1999/xlink" contentScriptType="application/ecmascript" contentStyleType="text/css" height="556px" preserveAspectRatio="none" style="width:993px;height:556px;" version="1.1" viewBox="0 0 993 556" width="993px" zoomAndPan="magnify"><defs/><g><!--MD5=[9681dc6e01e10c6b4fe06895ae94f592]
cluster UI--><rect fill="#FFFFFF" height="365" style="stroke: #000000; stroke-width: 1.5;" width="785" x="22" y="56"/><text fill="#000000" font-family="sans-serif" font-size="14" font-weight="bold" lengthAdjust="spacingAndGlyphs" textLength="14" x="407.5" y="72.5332">UI</text><!--MD5=[15636c1ca4a123c16a2a1a8e90aca7a9]
cluster Model--><rect fill="#FFFFFF" height="92" style="stroke: #000000; stroke-width: 1.5;" width="147" x="420" y="453"/><text fill="#000000" font-family="sans-serif" font-size="14" font-weight="bold" lengthAdjust="spacingAndGlyphs" textLength="44" x="471.5" y="469.5332">Model</text><!--MD5=[8237f0313b7e89f796726a268ea6fa70]
cluster Logic--><rect fill="#FFFFFF" height="92" style="stroke: #000000; stroke-width: 1.5;" width="143" x="839" y="155"/><text fill="#000000" font-family="sans-serif" font-size="14" font-weight="bold" lengthAdjust="spacingAndGlyphs" textLength="38" x="891.5" y="171.5332">Logic</text><!--MD5=[56c17820b5ec61b985b118caeb6340b1]
class Ui--><rect fill="#1D8900" height="38.8926" id="Ui" style="stroke: #FFFFFF; stroke-width: 1.0;" width="64" x="502" y="92"/><text fill="#FFFFFF" font-family="sans-serif" font-size="12" font-style="italic" lengthAdjust="spacingAndGlyphs" textLength="62" x="503" y="109.457">«Interface»</text><text fill="#FFFFFF" font-family="Arial" font-size="12" font-style="italic" lengthAdjust="spacingAndGlyphs" textLength="12" x="528" y="123.3496">Ui</text><!--MD5=[2194e160f11909a32d987932bec8f8fd]
class UiPart--><rect fill="#1D8900" height="37.5977" id="UiPart" style="stroke: #FFFFFF; stroke-width: 1.0;" width="58" x="403" y="367"/><text fill="#FFFFFF" font-family="Arial" font-size="12" lengthAdjust="spacingAndGlyphs" textLength="52" x="406" y="383.2559">{abstract}</text><text fill="#FFFFFF" font-family="Arial" font-size="12" lengthAdjust="spacingAndGlyphs" textLength="34" x="415" y="397.0547">UiPart</text><!--MD5=[bb31649cd695b383b0a893153f017b1a]
class UiManager--><rect fill="#1D8900" height="23.7988" id="UiManager" style="stroke: #FFFFFF; stroke-width: 1.0;" width="66" x="601" y="99.5"/><text fill="#FFFFFF" font-family="Arial" font-size="12" lengthAdjust="spacingAndGlyphs" textLength="60" x="604" y="115.7559">UiManager</text><!--MD5=[e6c809820d88acc3564faeb20394ab9d]
class MainWindow--><rect fill="#1D8900" height="23.7988" id="MainWindow" style="stroke: #FFFFFF; stroke-width: 1.0;" width="76" x="472" y="199"/><text fill="#FFFFFF" font-family="Arial" font-size="12" lengthAdjust="spacingAndGlyphs" textLength="70" x="475" y="215.2559">MainWindow</text><!--MD5=[6a99d1f66704ead86da80187de9dded6]
class HelpWindow--><rect fill="#1D8900" height="23.7988" id="HelpWindow" style="stroke: #FFFFFF; stroke-width: 1.0;" width="76" x="199" y="283"/><text fill="#FFFFFF" font-family="Arial" font-size="12" lengthAdjust="spacingAndGlyphs" textLength="70" x="202" y="299.2559">HelpWindow</text><!--MD5=[8bec317ab1541c7ed84b1597b2ab0f0e]
class ClearWindow--><rect fill="#1D8900" height="23.7988" id="ClearWindow" style="stroke: #FFFFFF; stroke-width: 1.0;" width="80" x="711" y="283"/><text fill="#FFFFFF" font-family="Arial" font-size="12" lengthAdjust="spacingAndGlyphs" textLength="74" x="714" y="299.2559">ClearWindow</text><!--MD5=[ea641667e014ba942dc8bca88e7c22f4]
class ResultDisplay--><rect fill="#1D8900" height="23.7988" id="ResultDisplay" style="stroke: #FFFFFF; stroke-width: 1.0;" width="83" x="468.5" y="283"/><text fill="#FFFFFF" font-family="Arial" font-size="12" lengthAdjust="spacingAndGlyphs" textLength="77" x="471.5" y="299.2559">ResultDisplay</text><!--MD5=[43f0bb7a1ffd24054ecf2badf8d10c93]
class OrderListPanel--><rect fill="#1D8900" height="23.7988" id="OrderListPanel" style="stroke: #FFFFFF; stroke-width: 1.0;" width="89" x="586.5" y="283"/><text fill="#FFFFFF" font-family="Arial" font-size="12" lengthAdjust="spacingAndGlyphs" textLength="83" x="589.5" y="299.2559">OrderListPanel</text><!--MD5=[fd49482a18632f593397daa2a936cb8e]
class OrderCard--><rect fill="#1D8900" height="23.7988" id="OrderCard" style="stroke: #FFFFFF; stroke-width: 1.0;" width="64" x="547" y="374"/><text fill="#FFFFFF" font-family="Arial" font-size="12" lengthAdjust="spacingAndGlyphs" textLength="58" x="550" y="390.2559">OrderCard</text><!--MD5=[ce12dcc2fcbc40b97792326e97b82276]
class ReturnOrderListPanel--><rect fill="#1D8900" height="23.7988" id="ReturnOrderListPanel" style="stroke: #FFFFFF; stroke-width: 1.0;" width="126" x="38" y="283"/><text fill="#FFFFFF" font-family="Arial" font-size="12" lengthAdjust="spacingAndGlyphs" textLength="120" x="41" y="299.2559">ReturnOrderListPanel</text><!--MD5=[56680ca3b328d0372af1ccbc84996d1f]
class ReturnOrderCard--><rect fill="#1D8900" height="23.7988" id="ReturnOrderCard" style="stroke: #FFFFFF; stroke-width: 1.0;" width="101" x="226.5" y="374"/><text fill="#FFFFFF" font-family="Arial" font-size="12" lengthAdjust="spacingAndGlyphs" textLength="95" x="229.5" y="390.2559">ReturnOrderCard</text><!--MD5=[bfe415b5c3f0a3f3f66149424b76647d]
class CommandBox--><rect fill="#1D8900" height="23.7988" id="CommandBox" style="stroke: #FFFFFF; stroke-width: 1.0;" width="85" x="310.5" y="283"/><text fill="#FFFFFF" font-family="Arial" font-size="12" lengthAdjust="spacingAndGlyphs" textLength="79" x="313.5" y="299.2559">CommandBox</text><!--MD5=[eef5f0b07d2fd263bed9c722d8c1c089]
class HiddenModel--><rect fill="#FFFFFF" height="23.7988" id="HiddenModel" style="stroke: #FFFFFF; stroke-width: 1.0;" width="79" x="463.5" y="497"/><rect fill="#FFFFFF" height="23.7988" style="stroke: #FFFFFF; stroke-width: 1.0;" width="79" x="463.5" y="497"/><text fill="#FFFFFF" font-family="Arial" font-size="12" lengthAdjust="spacingAndGlyphs" textLength="73" x="466.5" y="513.2559">HiddenModel</text><!--MD5=[68aa0c86fa78b4986a45cc6cf99a7822]
class HiddenLogic--><rect fill="#FFFFFF" height="23.7988" id="HiddenLogic" style="stroke: #FFFFFF; stroke-width: 1.0;" width="76" x="882" y="199"/><rect fill="#FFFFFF" height="23.7988" style="stroke: #FFFFFF; stroke-width: 1.0;" width="76" x="882" y="199"/><text fill="#FFFFFF" font-family="Arial" font-size="12" lengthAdjust="spacingAndGlyphs" textLength="70" x="885" y="215.2559">HiddenLogic</text><!--MD5=[f8dc820cca8808bdb695301f77a92b66]
class HiddenOutside--><rect fill="#FFFFFF" height="23.7988" id="HiddenOutside" style="stroke: #FFFFFF; stroke-width: 1.0;" width="89" x="489.5" y="8"/><rect fill="#FFFFFF" height="23.7988" style="stroke: #FFFFFF; stroke-width: 1.0;" width="89" x="489.5" y="8"/><text fill="#FFFFFF" font-family="Arial" font-size="12" lengthAdjust="spacingAndGlyphs" textLength="83" x="492.5" y="24.2559">HiddenOutside</text><!--MD5=[a2825086c9e6423d98970e86c37e1f32]
link HiddenOutside to Ui--><path d="M534,32.335 C534,45.891 534,68.951 534,86.521 " fill="none" id="HiddenOutside-&gt;Ui" style="stroke: #0E4100; stroke-width: 1.1; stroke-dasharray: 7.0,7.0;"/><polygon fill="#0E4100" points="534,91.78,538,82.78,534,86.78,530,82.78,534,91.78" style="stroke: #0E4100; stroke-width: 1.1;"/><!--MD5=[d23f9412713304e09763acc39549c87b]
reverse link Ui to UiManager--><path d="M586.139,111.5 C591.03,111.5 595.921,111.5 600.812,111.5 " fill="none" id="Ui&lt;-UiManager" style="stroke: #0E4100; stroke-width: 1.1; stroke-dasharray: 7.0,7.0;"/><polygon fill="none" points="586.031,118.5,566.031,111.5,586.031,104.5,586.031,118.5" style="stroke: #0E4100; stroke-width: 1.1;"/><!--MD5=[f4359266757daa3e145c93b9f63f2a7f]
link UiManager to MainWindow--><path d="M619.776,123.684 C597.165,141.463 553.043,176.156 528.173,195.71 " fill="none" id="UiManager-&gt;MainWindow" style="stroke: #0E4100; stroke-width: 1.1;"/><polygon fill="#0E4100" points="524.058,198.946,533.6048,196.5255,527.9879,195.8547,528.6587,190.2377,524.058,198.946" style="stroke: #0E4100; stroke-width: 1.1;"/><!--MD5=[86d09801fc7f798f389a693fae28d604]
link MainWindow to HelpWindow--><path d="M461.689,226.5102 C461.689,226.5102 335.573,264.392 286.232,279.212 " fill="none" id="MainWindow-HelpWindow" style="stroke: #0E4100; stroke-width: 1.1;"/><polygon fill="#0E4100" points="273.67,282.986,283.4402,284.2279,278.4586,281.5476,281.1389,276.566,273.67,282.986" style="stroke: #0E4100; stroke-width: 1.1;"/><line style="stroke: #0E4100; stroke-width: 1.1;" x1="278.4586" x2="286.12" y1="281.5476" y2="279.246"/><polygon fill="#0E4100" points="473.182,223.059,466.2851,220.9536,461.689,226.5102,468.5859,228.6156,473.182,223.059" style="stroke: #0E4100; stroke-width: 1.1;"/><!--MD5=[45db21511cc0a81f047fb2593c9ca0a3]
link MainWindow to ClearWindow--><path d="M553.8625,226.9241 C553.8625,226.9241 663.083,264.086 706.252,278.775 " fill="none" id="MainWindow-ClearWindow" style="stroke: #0E4100; stroke-width: 1.1;"/><polygon fill="#0E4100" points="718.629,282.986,711.397,276.3004,713.8955,281.3756,708.8203,283.874,718.629,282.986" style="stroke: #0E4100; stroke-width: 1.1;"/><line style="stroke: #0E4100; stroke-width: 1.1;" x1="713.8955" x2="706.3215" y1="281.3756" y2="278.7985"/><polygon fill="#0E4100" points="542.502,223.059,546.8939,228.7784,553.8625,226.9241,549.4706,221.2047,542.502,223.059" style="stroke: #0E4100; stroke-width: 1.1;"/><!--MD5=[92dc039ae140ba7abbe540b6db158255]
link MainWindow to CommandBox--><path d="M478.1895,228.6146 C478.1895,228.6146 412.612,262.865 385.887,276.823 " fill="none" id="MainWindow-CommandBox" style="stroke: #0E4100; stroke-width: 1.1;"/><polygon fill="#0E4100" points="374.088,282.986,383.9172,282.3648,378.5199,280.6712,380.2135,275.2738,374.088,282.986" style="stroke: #0E4100; stroke-width: 1.1;"/><line style="stroke: #0E4100; stroke-width: 1.1;" x1="378.5199" x2="385.6115" y1="280.6712" y2="276.967"/><polygon fill="#0E4100" points="488.826,223.059,481.6559,222.2913,478.1895,228.6146,485.3596,229.3823,488.826,223.059" style="stroke: #0E4100; stroke-width: 1.1;"/><!--MD5=[751f32356d036c385cef4d287122ae87]
link MainWindow to ResultDisplay--><path d="M510,235.059 C510,235.059 510,259.037 510,269.535 " fill="none" id="MainWindow-ResultDisplay" style="stroke: #0E4100; stroke-width: 1.1;"/><polygon fill="#0E4100" points="510,282.854,514,273.854,510,277.854,506,273.854,510,282.854" style="stroke: #0E4100; stroke-width: 1.1;"/><line style="stroke: #0E4100; stroke-width: 1.1;" x1="510" x2="510" y1="277.854" y2="269.854"/><polygon fill="#0E4100" points="510,223.059,506,229.059,510,235.059,514,229.059,510,223.059" style="stroke: #0E4100; stroke-width: 1.1;"/><!--MD5=[c6d25c3a1415b45fbbcafa25efe65a1b]
link MainWindow to OrderListPanel--><path d="M536.2528,229.791 C536.2528,229.791 583.733,261.968 603.515,275.374 " fill="none" id="MainWindow-OrderListPanel" style="stroke: #0E4100; stroke-width: 1.1;"/><polygon fill="#0E4100" points="614.554,282.854,609.3476,274.4937,610.4149,280.049,604.8597,281.1163,614.554,282.854" style="stroke: #0E4100; stroke-width: 1.1;"/><line style="stroke: #0E4100; stroke-width: 1.1;" x1="610.4149" x2="603.7915" y1="280.049" y2="275.5615"/><polygon fill="#0E4100" points="526.319,223.059,529.0419,229.7363,536.2528,229.791,533.5299,223.1137,526.319,223.059" style="stroke: #0E4100; stroke-width: 1.1;"/><!--MD5=[0de84a6c0dea591654534426dad7d637]
link MainWindow to ReturnOrderListPanel--><path d="M460.1241,222 C460.1241,222 250.264,264.074 168.733,280.42 " fill="none" id="MainWindow-ReturnOrderListPanel" style="stroke: #0E4100; stroke-width: 1.1;"/><polygon fill="#0E4100" points="155.88,282.997,165.4907,285.1497,160.7824,282.0141,163.9181,277.3058,155.88,282.997" style="stroke: #0E4100; stroke-width: 1.1;"/><line style="stroke: #0E4100; stroke-width: 1.1;" x1="160.7824" x2="168.6265" y1="282.0141" y2="280.4415"/><polygon fill="#0E4100" points="471.89,219.641,465.2208,216.8985,460.1241,222,466.7934,224.7424,471.89,219.641" style="stroke: #0E4100; stroke-width: 1.1;"/><!--MD5=[acecb6492c5cebd296f510b090283c86]
link OrderListPanel to OrderCard--><path d="M624.414,307.272 C615.271,322.92 598.687,351.305 588.29,369.1 " fill="none" id="OrderListPanel-&gt;OrderCard" style="stroke: #0E4100; stroke-width: 1.1;"/><polygon fill="#0E4100" points="585.532,373.82,593.525,368.0657,588.0537,369.5025,586.617,364.0311,585.532,373.82" style="stroke: #0E4100; stroke-width: 1.1;"/><!--MD5=[20b6f7fed1b395295a0cc7be5862bedd]
link ReturnOrderListPanel to ReturnOrderCard--><path d="M122.935,307.092 C155.3,323.458 215.762,354.033 250.542,371.62 " fill="none" id="ReturnOrderListPanel-&gt;ReturnOrderCard" style="stroke: #0E4100; stroke-width: 1.1;"/><polygon fill="#0E4100" points="255.066,373.908,248.84,366.2767,250.6042,371.6514,245.2295,373.4155,255.066,373.908" style="stroke: #0E4100; stroke-width: 1.1;"/><!--MD5=[c2b0433d56a858074b2759587ea31389]
link MainWindow to UiPart--><path d="M497.441,223.226 C483.755,236.212 462.302,258.915 451,283 C441.66,302.904 436.907,327.017 434.49,346.799 " fill="none" id="MainWindow-&gt;UiPart" style="stroke: #0E4100; stroke-width: 1.1;"/><polygon fill="none" points="441.449,347.57,432.635,366.839,427.509,346.279,441.449,347.57" style="stroke: #0E4100; stroke-width: 1.1;"/><!--MD5=[6a054d1cbcb280d35d5ed6cf4ddd3c4a]
link ResultDisplay to UiPart--><path d="M500.121,307.272 C490.385,318.381 475.024,335.909 461.351,351.51 " fill="none" id="ResultDisplay-&gt;UiPart" style="stroke: #0E4100; stroke-width: 1.1;"/><polygon fill="none" points="466.466,356.294,448.02,366.721,455.938,347.066,466.466,356.294" style="stroke: #0E4100; stroke-width: 1.1;"/><!--MD5=[bbb9937c6b10c921f0d97eaed5a79881]
link CommandBox to UiPart--><path d="M363.005,307.272 C372.866,318.381 388.425,335.909 402.273,351.51 " fill="none" id="CommandBox-&gt;UiPart" style="stroke: #0E4100; stroke-width: 1.1;"/><polygon fill="none" points="407.733,347.117,415.775,366.721,397.263,356.41,407.733,347.117" style="stroke: #0E4100; stroke-width: 1.1;"/><!--MD5=[50d4b696570e49bd2049f89626b64929]
link OrderListPanel to UiPart--><path d="M606.199,307.092 C574.664,321.196 519.537,345.85 479.731,363.653 " fill="none" id="OrderListPanel-&gt;UiPart" style="stroke: #0E4100; stroke-width: 1.1;"/><polygon fill="none" points="482.439,370.11,461.324,371.885,476.723,357.33,482.439,370.11" style="stroke: #0E4100; stroke-width: 1.1;"/><!--MD5=[be4ebb5fb6ba0376ab94858dc43aacae]
link OrderCard to UiPart--><path d="M546.812,386 C524.985,386 503.158,386 481.331,386 " fill="none" id="OrderCard-&gt;UiPart" style="stroke: #0E4100; stroke-width: 1.1;"/><polygon fill="none" points="481.285,393,461.285,386,481.285,379,481.285,393" style="stroke: #0E4100; stroke-width: 1.1;"/><!--MD5=[b91a04b2fd69e7ddd93f5defb8032a01]
link ReturnOrderListPanel to UiPart--><path d="M141.919,307.002 C203.101,323.453 318.198,354.401 383.513,371.963 " fill="none" id="ReturnOrderListPanel-&gt;UiPart" style="stroke: #0E4100; stroke-width: 1.1;"/><polygon fill="none" points="385.343,365.206,402.839,377.159,381.707,378.726,385.343,365.206" style="stroke: #0E4100; stroke-width: 1.1;"/><!--MD5=[5fa6b3d81ffc4cdc7bd3ae11cc2147de]
reverse link UiPart to ReturnOrderCard--><path d="M382.392,386 C364.114,386 345.835,386 327.557,386 " fill="none" id="UiPart&lt;-ReturnOrderCard" style="stroke: #0E4100; stroke-width: 1.1;"/><polygon fill="none" points="382.625,379,402.625,386,382.625,393,382.625,379" style="stroke: #0E4100; stroke-width: 1.1;"/><!--MD5=[f6ded6870070611f25c393be6d476ca5]
link HelpWindow to UiPart--><path d="M261.303,307.092 C292.046,321.124 345.672,345.599 384.63,363.38 " fill="none" id="HelpWindow-&gt;UiPart" style="stroke: #0E4100; stroke-width: 1.1;"/><polygon fill="none" points="387.65,357.064,402.938,371.736,381.837,369.8,387.65,357.064" style="stroke: #0E4100; stroke-width: 1.1;"/><!--MD5=[019689cb577d65b666c1dc11727ee29d]
link ClearWindow to UiPart--><path d="M711.564,307.002 C653.305,323.257 544.32,353.663 481.006,371.328 " fill="none" id="ClearWindow-&gt;UiPart" style="stroke: #0E4100; stroke-width: 1.1;"/><polygon fill="none" points="482.569,378.159,461.424,376.791,478.807,364.674,482.569,378.159" style="stroke: #0E4100; stroke-width: 1.1;"/><!--MD5=[27ddd9d45c6f81e0e480046f3b6cfee7]
link OrderCard to Model--><path d="M554.877,398.167 C534.643,407.257 504.83,420.01 478,429 C464.508,433.521 457.106,426.983 447,437 C444.1905,439.7845 441.7828,442.9358 439.7208,446.3241 C438.6898,448.0183 437.7453,449.7717 436.8801,451.5682 C436.6638,452.0174 436.4525,452.4692 436.246,452.9235 " fill="none" id="OrderCard-&gt;Model" style="stroke: #0E4100; stroke-width: 1.1; stroke-dasharray: 7.0,7.0;"/><polygon fill="#0E4100" points="436.246,452.9235,443.6116,446.3853,438.315,448.3716,436.3286,443.0749,436.246,452.9235" style="stroke: #0E4100; stroke-width: 1.1;"/><!--MD5=[970c1b0b487b998c3cb0cd503283c892]
link ReturnOrderCard to Model--><path d="M290.935,398.167 C309.3335,412.91 342.8248,439.7473 372.0949,463.202 C386.7299,474.9294 400.3097,485.8111 410.42,493.9127 C412.9476,495.938 415.2583,497.7897 417.3144,499.4373 C417.8285,499.8492 418.3266,500.2483 418.8082,500.6343 C419.049,500.8273 419.2857,501.0169 419.5182,501.2032 C419.6345,501.2964 419.7497,501.3887 419.8638,501.4801 " fill="none" id="ReturnOrderCard-&gt;Model" style="stroke: #0E4100; stroke-width: 1.1; stroke-dasharray: 7.0,7.0;"/><polygon fill="#0E4100" points="419.8638,501.4801,415.3418,492.7308,415.962,498.3535,410.3392,498.9737,419.8638,501.4801" style="stroke: #0E4100; stroke-width: 1.1;"/><!--MD5=[90aba6ec762193f41687f31212656d8f]
link UiManager to Logic--><path d="M667.308,114.168 C711.066,116.933 784.943,123.752 807,139 C821.431,148.976 831.2668,165.9458 837.5731,180.7935 C837.9673,181.7215 838.3476,182.6412 838.7145,183.5504 C838.8062,183.7777 838.897,184.0043 838.9871,184.2302 " fill="none" id="UiManager-&gt;Logic" style="stroke: #0E4100; stroke-width: 1.1;"/><polygon fill="#0E4100" points="838.9871,184.2302,839.3718,174.3889,837.1364,179.5853,831.94,177.3499,838.9871,184.2302" style="stroke: #0E4100; stroke-width: 1.1;"/><!--MD5=[07bc7cbf7874720da1634fdfdaf490e2]
reverse link Logic to MainWindow--><path d="M838.261,211 C837.8727,211 837.4844,211 837.096,211 C833.9894,211 830.8827,211 827.7761,211 C821.5627,211 815.3494,211 809.1361,211 C796.7094,211 784.2828,211 771.8561,211 C747.0028,211 722.1494,211 697.296,211 C647.5893,211 597.8825,211 548.176,211 " fill="none" id="Logic&lt;-MainWindow" style="stroke: #0E4100; stroke-width: 1.1;"/><polygon fill="#0E4100" points="838.261,211,829.261,207,833.261,211,829.261,215,838.261,211" style="stroke: #0E4100; stroke-width: 1.1;"/><!--MD5=[007651c82d0d330da0a6bd2daf18b00e]
reverse link Logic to ClearWindow--><path d="M838.8782,225.1123 C838.6902,225.3963 838.4994,225.6835 838.3058,225.9736 C837.9187,226.5538 837.5205,227.1457 837.1116,227.7481 C836.294,228.9528 835.4338,230.1993 834.5342,231.4775 C827.3377,241.7027 817.621,253.951 807,263 C797.695,270.927 786.048,277.766 775.788,282.987 " fill="none" id="Logic&lt;-ClearWindow" style="stroke: #0E4100; stroke-width: 1.1;"/><polygon fill="#0E4100" points="838.8782,225.1123,830.5753,230.4096,836.1186,229.2817,837.2465,234.825,838.8782,225.1123" style="stroke: #0E4100; stroke-width: 1.1;"/><!--MD5=[36ffdf2fe38439bc239f3dd19622340b]
link ClearWindow to OrderCard--><!--MD5=[0ca3e255498788a8a589043c80787582]
link HelpWindow to ResultDisplay--><!--MD5=[ba1a683dc4b1eea0787bd610e3977186]
link ReturnOrderListPanel to HelpWindow--><!--MD5=[078bfb2032d83af64e867cca85d0249b]
link HelpWindow to ReturnOrderCard--><!--MD5=[b8f93d5457cb1cca443f250cedc61ee2]
link ResultDisplay to CommandBox--><!--MD5=[fa6e6d556499ffaddf8925c3eb549007]
@startuml








skinparam BackgroundColor #FFFFFFF

skinparam Shadowing false

skinparam Class {
    FontColor #FFFFFF
    BorderThickness 1
    BorderColor #FFFFFF
    StereotypeFontColor #FFFFFF
    FontName Arial
}

skinparam Actor {
    BorderColor #000000
    Color #000000
    FontName Arial
}

skinparam Sequence {
    MessageAlign center
    BoxFontSize 15
    BoxPadding 0
    BoxFontColor #FFFFFF
    FontName Arial
}

skinparam Participant {
    FontColor #FFFFFFF
    Padding 20
}

skinparam MinClassWidth 50
skinparam ParticipantPadding 10
skinparam Shadowing false
skinparam DefaultTextAlignment center
skinparam packageStyle Rectangle

hide footbox
hide members
hide circle
skinparam arrowThickness 1.1
skinparam arrowColor #0E4100
skinparam classBackgroundColor #1D8900

package UI <<Rectangle>>{
Interface Ui <<Interface>>
Class "{abstract}\nUiPart" as UiPart
Class UiManager
Class MainWindow
Class HelpWindow
Class ClearWindow
Class ResultDisplay
Class OrderListPanel
Class OrderCard
Class ReturnOrderListPanel
Class ReturnOrderCard
Class CommandBox
}

package Model <<Rectangle>> {
Class HiddenModel #FFFFFF
}

package Logic <<Rectangle>> {
Class HiddenLogic #FFFFFF
}

Class HiddenOutside #FFFFFF
HiddenOutside ..> Ui

UiManager .left.|> Ui
UiManager -down-> MainWindow
MainWindow *- -> HelpWindow
MainWindow *- -> ClearWindow
MainWindow *-down-> CommandBox
MainWindow *-down-> ResultDisplay
MainWindow *-down-> OrderListPanel
MainWindow *-down-> ReturnOrderListPanel

OrderListPanel -down-> OrderCard
ReturnOrderListPanel -down-> ReturnOrderCard

MainWindow - -|> UiPart

ResultDisplay - -|> UiPart
CommandBox - -|> UiPart
OrderListPanel - -|> UiPart
OrderCard -right-|> UiPart
ReturnOrderListPanel - -|> UiPart
ReturnOrderCard -left-|> UiPart
HelpWindow - -|> UiPart
ClearWindow - -|> UiPart

OrderCard ..> Model
ReturnOrderCard ..> Model
UiManager -right-> Logic
MainWindow -left-> Logic
ClearWindow -left-> Logic

ClearWindow -[hidden]down- OrderCard
HelpWindow -[hidden]right- ResultDisplay
HelpWindow -[hidden]left- ReturnOrderListPanel
HelpWindow -[hidden]down- ReturnOrderCard
CommandBox -[hidden]left- ResultDisplay

@enduml

PlantUML version 1.2019.11(Sun Sep 22 18:02:15 SGT 2019)
(GPL source distribution)
Java Runtime: OpenJDK Runtime Environment
JVM: OpenJDK 64-Bit Server VM
Java Version: 11.0.5+10-b520.30
Operating System: Windows 10
Default Encoding: UTF-8
Language: en
Country: US
--></g></svg>
