<?xml version="1.0" encoding="UTF-8" standalone="no"?><svg xmlns="http://www.w3.org/2000/svg" xmlns:xlink="http://www.w3.org/1999/xlink" contentScriptType="application/ecmascript" contentStyleType="text/css" height="433.6px" preserveAspectRatio="none" style="width:788px;height:433px;" version="1.1" viewBox="0 0 788 433" width="788.8px" zoomAndPan="magnify"><defs/><g><rect fill="#C8C8FA" height="416.1453" style="stroke: #A80036; stroke-width: 0.8;" width="655.2" x="49.6" y="3.2"/><text fill="#FFFFFF" font-family="Arial" font-size="12" font-weight="bold" lengthAdjust="spacingAndGlyphs" textLength="31.2" x="360" y="14.4559">Logic</text><rect fill="#F97181" height="416.1453" style="stroke: #A80036; stroke-width: 0.8;" width="73.6" x="706.4" y="3.2"/><text fill="#FFFFFF" font-family="Arial" font-size="12" font-weight="bold" lengthAdjust="spacingAndGlyphs" textLength="35.2" x="724" y="14.4559">Model</text><rect fill="#FFFFFF" height="339.9086" style="stroke: #A80036; stroke-width: 0.8;" width="8" x="100" y="69.8367"/><rect fill="#FFFFFF" height="180.7938" style="stroke: #A80036; stroke-width: 0.8;" width="8" x="241.6" y="92.9957"/><rect fill="#FFFFFF" height="24.8789" style="stroke: #A80036; stroke-width: 0.8;" width="8" x="382.8" y="112.1957"/><rect fill="#FFFFFF" height="79.1969" style="stroke: #A80036; stroke-width: 0.8;" width="8" x="382.8" y="160.2336"/><rect fill="#FFFFFF" height="36.8379" style="stroke: #A80036; stroke-width: 0.8;" width="8" x="518.8" y="179.4336"/><rect fill="#FFFFFF" height="101.5969" style="stroke: #A80036; stroke-width: 0.8;" width="8" x="518.8" y="296.9484"/><rect fill="#FFFFFF" height="24.8789" style="stroke: #A80036; stroke-width: 0.8;" width="8" x="640.8" y="350.5074"/><rect fill="#FFFFFF" height="11.2" style="stroke: #A80036; stroke-width: 0.8;" width="8" x="739.2" y="320.1074"/><line style="stroke: #A80036; stroke-width: 0.8; stroke-dasharray: 5.0,5.0;" x1="104" x2="104" y1="45.0777" y2="424.1453"/><line style="stroke: #A80036; stroke-width: 0.8; stroke-dasharray: 5.0,5.0;" x1="245.6" x2="245.6" y1="45.0777" y2="424.1453"/><line style="stroke: #A80036; stroke-width: 0.8; stroke-dasharray: 5.0,5.0;" x1="386.4" x2="386.4" y1="123.8352" y2="424.1453"/><line style="stroke: #A80036; stroke-width: 0.8; stroke-dasharray: 5.0,5.0;" x1="522.4" x2="522.4" y1="191.073" y2="424.1453"/><line style="stroke: #A80036; stroke-width: 0.8; stroke-dasharray: 5.0,5.0;" x1="644.8" x2="644.8" y1="362.1469" y2="424.1453"/><line style="stroke: #A80036; stroke-width: 0.8; stroke-dasharray: 5.0,5.0;" x1="743.2" x2="743.2" y1="45.0777" y2="424.1453"/><rect fill="#3333C4" height="24.0789" style="stroke: #A80036; stroke-width: 1.2000000000000002;" width="86.4" x="60.8" y="20.1988"/><text fill="#FFFFFF" font-family="Arial" font-size="11.2" lengthAdjust="spacingAndGlyphs" textLength="75.2" x="66.4" y="36.3043">:LogicManager</text><rect fill="#3333C4" height="24.0789" style="stroke: #A80036; stroke-width: 1.2000000000000002;" width="108.8" x="191.2" y="20.1988"/><text fill="#FFFFFF" font-family="Arial" font-size="11.2" lengthAdjust="spacingAndGlyphs" textLength="97.6" x="196.8" y="36.3043">:RecipeBookParser</text><rect fill="#9D0012" height="24.0789" style="stroke: #A80036; stroke-width: 1.2000000000000002;" width="51.2" x="717.6" y="20.1988"/><text fill="#FFFFFF" font-family="Arial" font-size="11.2" lengthAdjust="spacingAndGlyphs" textLength="33.6" x="726.4" y="36.3043">:Model</text><rect fill="#FFFFFF" height="339.9086" style="stroke: #A80036; stroke-width: 0.8;" width="8" x="100" y="69.8367"/><rect fill="#FFFFFF" height="180.7938" style="stroke: #A80036; stroke-width: 0.8;" width="8" x="241.6" y="92.9957"/><rect fill="#FFFFFF" height="24.8789" style="stroke: #A80036; stroke-width: 0.8;" width="8" x="382.8" y="112.1957"/><rect fill="#FFFFFF" height="79.1969" style="stroke: #A80036; stroke-width: 0.8;" width="8" x="382.8" y="160.2336"/><rect fill="#FFFFFF" height="36.8379" style="stroke: #A80036; stroke-width: 0.8;" width="8" x="518.8" y="179.4336"/><rect fill="#FFFFFF" height="101.5969" style="stroke: #A80036; stroke-width: 0.8;" width="8" x="518.8" y="296.9484"/><rect fill="#FFFFFF" height="24.8789" style="stroke: #A80036; stroke-width: 0.8;" width="8" x="640.8" y="350.5074"/><rect fill="#FFFFFF" height="11.2" style="stroke: #A80036; stroke-width: 0.8;" width="8" x="739.2" y="320.1074"/><polygon fill="#A80036" points="90.4,66.6367,98.4,69.8367,90.4,73.0367,93.6,69.8367" style="stroke: #A80036; stroke-width: 0.8;"/><line style="stroke: #A80036; stroke-width: 0.8;" x1="2.4" x2="95.2" y1="69.8367" y2="69.8367"/><text fill="#000000" font-family="Arial" font-size="10.4" lengthAdjust="spacingAndGlyphs" textLength="82.4" x="10" y="66.0328">execute("undo 1")</text><polygon fill="#A80036" points="232,89.7957,240,92.9957,232,96.1957,235.2,92.9957" style="stroke: #A80036; stroke-width: 0.8;"/><line style="stroke: #A80036; stroke-width: 0.8;" x1="108" x2="236.8" y1="92.9957" y2="92.9957"/><text fill="#000000" font-family="Arial" font-size="10.4" lengthAdjust="spacingAndGlyphs" textLength="118.4" x="115.6" y="89.1918">parseCommand("undo 1")</text><polygon fill="#A80036" points="314.4,100.9957,322.4,104.1957,314.4,107.3957,317.6,104.1957" style="stroke: #A80036; stroke-width: 0.8;"/><line style="stroke: #A80036; stroke-width: 0.8;" x1="249.6" x2="319.2" y1="104.1957" y2="104.1957"/><rect fill="#3333C4" height="24.0789" style="stroke: #A80036; stroke-width: 1.2000000000000002;" width="125.6" x="324" y="99.3957"/><text fill="#FFFFFF" font-family="Arial" font-size="11.2" lengthAdjust="spacingAndGlyphs" textLength="114.4" x="329.6" y="115.5012">:UndoCommandParser</text><polygon fill="#A80036" points="258.4,133.8746,250.4,137.0746,258.4,140.2746,255.2,137.0746" style="stroke: #A80036; stroke-width: 0.8;"/><line style="stroke: #A80036; stroke-width: 0.8; stroke-dasharray: 2.0,2.0;" x1="253.6" x2="386" y1="137.0746" y2="137.0746"/><polygon fill="#A80036" points="373.2,157.0336,381.2,160.2336,373.2,163.4336,376.4,160.2336" style="stroke: #A80036; stroke-width: 0.8;"/><line style="stroke: #A80036; stroke-width: 0.8;" x1="249.6" x2="378" y1="160.2336" y2="160.2336"/><text fill="#000000" font-family="Arial" font-size="10.4" lengthAdjust="spacingAndGlyphs" textLength="45.6" x="293.4" y="156.4297">parse("1")</text><polygon fill="#A80036" points="464,168.2336,472,171.4336,464,174.6336,467.2,171.4336" style="stroke: #A80036; stroke-width: 0.8;"/><line style="stroke: #A80036; stroke-width: 0.8;" x1="390.8" x2="468.8" y1="171.4336" y2="171.4336"/><rect fill="#3333C4" height="24.0789" style="stroke: #A80036; stroke-width: 1.2000000000000002;" width="98.4" x="473.6" y="166.6336"/><text fill="#FFFFFF" font-family="Arial" font-size="11.2" lengthAdjust="spacingAndGlyphs" textLength="87.2" x="479.2" y="182.7391">d:UndoCommand</text><polygon fill="#A80036" points="399.6,213.0715,391.6,216.2715,399.6,219.4715,396.4,216.2715" style="stroke: #A80036; stroke-width: 0.8;"/><line style="stroke: #A80036; stroke-width: 0.8; stroke-dasharray: 2.0,2.0;" x1="394.8" x2="522" y1="216.2715" y2="216.2715"/><text fill="#000000" font-family="Arial" font-size="10.4" lengthAdjust="spacingAndGlyphs" textLength="5.6" x="454" y="212.4676">d</text><polygon fill="#A80036" points="258.4,236.2305,250.4,239.4305,258.4,242.6305,255.2,239.4305" style="stroke: #A80036; stroke-width: 0.8;"/><line style="stroke: #A80036; stroke-width: 0.8; stroke-dasharray: 2.0,2.0;" x1="253.6" x2="386" y1="239.4305" y2="239.4305"/><text fill="#000000" font-family="Arial" font-size="10.4" lengthAdjust="spacingAndGlyphs" textLength="5.6" x="315.4" y="235.6266">d</text><line style="stroke: #A80036; stroke-width: 1.6;" x1="379.6" x2="394" y1="243.4305" y2="257.8305"/><line style="stroke: #A80036; stroke-width: 1.6;" x1="379.6" x2="394" y1="257.8305" y2="243.4305"/><polygon fill="#A80036" points="116.8,270.5895,108.8,273.7895,116.8,276.9895,113.6,273.7895" style="stroke: #A80036; stroke-width: 0.8;"/><line style="stroke: #A80036; stroke-width: 0.8; stroke-dasharray: 2.0,2.0;" x1="112" x2="244.8" y1="273.7895" y2="273.7895"/><text fill="#000000" font-family="Arial" font-size="10.4" lengthAdjust="spacingAndGlyphs" textLength="5.6" x="174" y="269.9855">d</text><polygon fill="#A80036" points="509.2,293.7484,517.2,296.9484,509.2,300.1484,512.4,296.9484" style="stroke: #A80036; stroke-width: 0.8;"/><line style="stroke: #A80036; stroke-width: 0.8;" x1="108" x2="514" y1="296.9484" y2="296.9484"/><text fill="#000000" font-family="Arial" font-size="10.4" lengthAdjust="spacingAndGlyphs" textLength="43.2" x="291.8" y="293.1445">execute()</text><polygon fill="#A80036" points="729.6,316.9074,737.6,320.1074,729.6,323.3074,732.8,320.1074" style="stroke: #A80036; stroke-width: 0.8;"/><line style="stroke: #A80036; stroke-width: 0.8;" x1="526.8" x2="734.4" y1="320.1074" y2="320.1074"/><text fill="#000000" font-family="Arial" font-size="10.4" lengthAdjust="spacingAndGlyphs" textLength="89.6" x="588.2" y="316.3035">unAttemptRecipe(r)</text><polygon fill="#A80036" points="535.6,328.1074,527.6,331.3074,535.6,334.5074,532.4,331.3074" style="stroke: #A80036; stroke-width: 0.8;"/><line style="stroke: #A80036; stroke-width: 0.8; stroke-dasharray: 2.0,2.0;" x1="530.8" x2="742.4" y1="331.3074" y2="331.3074"/><polygon fill="#A80036" points="586.4,339.3074,594.4,342.5074,586.4,345.7074,589.6,342.5074" style="stroke: #A80036; stroke-width: 0.8;"/><line style="stroke: #A80036; stroke-width: 0.8;" x1="526.8" x2="591.2" y1="342.5074" y2="342.5074"/><rect fill="#3333C4" height="24.0789" style="stroke: #A80036; stroke-width: 1.2000000000000002;" width="97.6" x="596" y="337.7074"/><text fill="#FFFFFF" font-family="Arial" font-size="11.2" lengthAdjust="spacingAndGlyphs" textLength="86.4" x="601.6" y="353.8129">:CommandResult</text><polygon fill="#A80036" points="535.6,372.1863,527.6,375.3863,535.6,378.5863,532.4,375.3863" style="stroke: #A80036; stroke-width: 0.8;"/><line style="stroke: #A80036; stroke-width: 0.8; stroke-dasharray: 2.0,2.0;" x1="530.8" x2="644" y1="375.3863" y2="375.3863"/><polygon fill="#A80036" points="116.8,395.3453,108.8,398.5453,116.8,401.7453,113.6,398.5453" style="stroke: #A80036; stroke-width: 0.8;"/><line style="stroke: #A80036; stroke-width: 0.8; stroke-dasharray: 2.0,2.0;" x1="112" x2="522" y1="398.5453" y2="398.5453"/><text fill="#000000" font-family="Arial" font-size="10.4" lengthAdjust="spacingAndGlyphs" textLength="25.6" x="302.6" y="394.7414">result</text><polygon fill="#A80036" points="11.2,406.5453,3.2,409.7453,11.2,412.9453,8,409.7453" style="stroke: #A80036; stroke-width: 0.8;"/><line style="stroke: #A80036; stroke-width: 0.8; stroke-dasharray: 2.0,2.0;" x1="6.4" x2="103.2" y1="409.7453" y2="409.7453"/><!--MD5=[f9c315498b8c84dcdb3349b430a50901]
@startuml UndoSequenceDiagram








skinparam BackgroundColor #FFFFFFF

skinparam Shadowing false

skinparam Class {
    FontColor #FFFFFF
    BorderThickness 1
    BorderColor #FFFFFF
    StereotypeFontColor #FFFFFF
}

skinparam Actor {
    BorderColor #000000
    Color #000000
}

skinparam Sequence {
    MessageAlign center
    BoxFontSize 15
    BoxPadding 0
    BoxFontColor #FFFFFF
    SequenceBoxFontName Segoe UI
}

skinparam Participant {
    FontColor #FFFFFFF
    Padding 20
}

skinparam MinClassWidth 50
skinparam ParticipantPadding 10
skinparam Shadowing false
skinparam DefaultTextAlignment center
skinparam packageStyle Folder

skinparam DefaultFontName Arial
skinparam defaultMonospacedFontName Consolas

hide footbox
hide members
hide circle

box Logic #C8C8FA
participant ":LogicManager" as LogicManager #3333C4
participant ":RecipeBookParser" as RecipeBookParser #3333C4
participant ":UndoCommandParser" as UndoCommandParser #3333C4
participant "d:UndoCommand" as UndoCommand #3333C4
participant ":CommandResult" as CommandResult #3333C4
end box

box Model #F97181
participant ":Model" as Model #9D0012
end box


[-> LogicManager : execute("undo 1")
activate LogicManager

LogicManager -> RecipeBookParser : parseCommand("undo 1")
activate RecipeBookParser

create UndoCommandParser
RecipeBookParser -> UndoCommandParser
activate UndoCommandParser

UndoCommandParser - -> RecipeBookParser
deactivate UndoCommandParser

RecipeBookParser -> UndoCommandParser : parse("1")
activate UndoCommandParser

create UndoCommand
UndoCommandParser -> UndoCommand
activate UndoCommand

UndoCommand - -> UndoCommandParser : d

deactivate UndoCommand

UndoCommandParser - -> RecipeBookParser : d
deactivate UndoCommandParser
UndoCommandParser -[hidden]-> RecipeBookParser
destroy UndoCommandParser

RecipeBookParser - -> LogicManager : d
deactivate RecipeBookParser

LogicManager -> UndoCommand : execute()
activate UndoCommand

UndoCommand -> Model : unAttemptRecipe(r)
activate Model

Model - -> UndoCommand
deactivate Model

create CommandResult
UndoCommand -> CommandResult
activate CommandResult

CommandResult - -> UndoCommand
deactivate CommandResult

UndoCommand - -> LogicManager : result
deactivate UndoCommand

[<- -LogicManager
deactivate LogicManager
@enduml

PlantUML version 1.2020.03beta6(Unknown compile time)
(GPL source distribution)
Java Runtime: OpenJDK Runtime Environment
JVM: OpenJDK 64-Bit Server VM
Java Version: 11.0.5+10-b520.17
Operating System: Windows 10
Default Encoding: Cp1252
Language: en
Country: SG
--></g></svg>
