<?xml version="1.0" encoding="UTF-8" standalone="no"?><svg xmlns="http://www.w3.org/2000/svg" xmlns:xlink="http://www.w3.org/1999/xlink" contentScriptType="application/ecmascript" contentStyleType="text/css" height="461px" preserveAspectRatio="none" style="width:991px;height:461px;" version="1.1" viewBox="0 0 991 461" width="991px" zoomAndPan="magnify"><defs/><g><rect fill="#C8C8FA" height="439.25" style="stroke: #A80036; stroke-width: 1.0;" width="499" x="48.5" y="4"/><text fill="#FFFFFF" font-family="sans-serif" font-size="15" font-weight="bold" lengthAdjust="spacingAndGlyphs" textLength="43" x="274" y="17.9233">Logic</text><rect fill="#F97181" height="439.25" style="stroke: #A80036; stroke-width: 1.0;" width="295" x="564.5" y="4"/><text fill="#FFFFFF" font-family="sans-serif" font-size="15" font-weight="bold" lengthAdjust="spacingAndGlyphs" textLength="48" x="685.5" y="17.9233">Model</text><rect fill="#FFFFFF" height="343.3594" style="stroke: #A80036; stroke-width: 1.0;" width="10" x="115" y="87.8906"/><rect fill="#FFFFFF" height="84.4297" style="stroke: #A80036; stroke-width: 1.0;" width="10" x="289" y="117.0234"/><rect fill="#FFFFFF" height="31.2969" style="stroke: #A80036; stroke-width: 1.0;" width="10" x="460.5" y="141.0234"/><rect fill="#FFFFFF" height="157.5313" style="stroke: #A80036; stroke-width: 1.0;" width="10" x="460.5" y="230.5859"/><rect fill="#FFFFFF" height="99.2656" style="stroke: #A80036; stroke-width: 1.0;" width="10" x="605.5" y="259.7188"/><rect fill="#FFFFFF" height="56.1328" style="stroke: #A80036; stroke-width: 1.0;" width="10" x="754" y="288.8516"/><line style="stroke: #A80036; stroke-width: 1.0; stroke-dasharray: 5.0,5.0;" x1="119.5" x2="119.5" y1="56.7578" y2="449.25"/><line style="stroke: #A80036; stroke-width: 1.0; stroke-dasharray: 5.0,5.0;" x1="293.5" x2="293.5" y1="56.7578" y2="449.25"/><line style="stroke: #A80036; stroke-width: 1.0; stroke-dasharray: 5.0,5.0;" x1="465.5" x2="465.5" y1="155.6719" y2="449.25"/><line style="stroke: #A80036; stroke-width: 1.0; stroke-dasharray: 5.0,5.0;" x1="610.5" x2="610.5" y1="56.7578" y2="449.25"/><line style="stroke: #A80036; stroke-width: 1.0; stroke-dasharray: 5.0,5.0;" x1="758.5" x2="758.5" y1="56.7578" y2="449.25"/><rect fill="#3333C4" height="30.2969" style="stroke: #A80036; stroke-width: 1.5;" width="115" x="62.5" y="25.4609"/><text fill="#FFFFFF" font-family="sans-serif" font-size="14" lengthAdjust="spacingAndGlyphs" textLength="101" x="69.5" y="45.4561">:LogicManager</text><rect fill="#3333C4" height="30.2969" style="stroke: #A80036; stroke-width: 1.5;" width="147" x="220.5" y="25.4609"/><text fill="#FFFFFF" font-family="sans-serif" font-size="14" lengthAdjust="spacingAndGlyphs" textLength="133" x="227.5" y="45.4561">:RecipeBookParser</text><rect fill="#9D0012" height="30.2969" style="stroke: #A80036; stroke-width: 1.5;" width="64" x="578.5" y="25.4609"/><text fill="#FFFFFF" font-family="sans-serif" font-size="14" lengthAdjust="spacingAndGlyphs" textLength="47" x="587" y="45.4561">:Model</text><rect fill="#9D0012" height="30.2969" style="stroke: #A80036; stroke-width: 1.5;" width="173" x="672.5" y="25.4609"/><text fill="#FFFFFF" font-family="sans-serif" font-size="14" lengthAdjust="spacingAndGlyphs" textLength="159" x="679.5" y="45.4561">:VersionedRecipeBook</text><rect fill="#FFFFFF" height="343.3594" style="stroke: #A80036; stroke-width: 1.0;" width="10" x="115" y="87.8906"/><rect fill="#FFFFFF" height="84.4297" style="stroke: #A80036; stroke-width: 1.0;" width="10" x="289" y="117.0234"/><rect fill="#FFFFFF" height="31.2969" style="stroke: #A80036; stroke-width: 1.0;" width="10" x="460.5" y="141.0234"/><rect fill="#FFFFFF" height="157.5313" style="stroke: #A80036; stroke-width: 1.0;" width="10" x="460.5" y="230.5859"/><rect fill="#FFFFFF" height="99.2656" style="stroke: #A80036; stroke-width: 1.0;" width="10" x="605.5" y="259.7188"/><rect fill="#FFFFFF" height="56.1328" style="stroke: #A80036; stroke-width: 1.0;" width="10" x="754" y="288.8516"/><polygon fill="#A80036" points="103,83.8906,113,87.8906,103,91.8906,107,87.8906" style="stroke: #A80036; stroke-width: 1.0;"/><line style="stroke: #A80036; stroke-width: 1.0;" x1="3" x2="109" y1="87.8906" y2="87.8906"/><text fill="#000000" font-family="sans-serif" font-size="13" lengthAdjust="spacingAndGlyphs" textLength="93" x="12.5" y="82.8247">execute(undo)</text><polygon fill="#A80036" points="277,113.0234,287,117.0234,277,121.0234,281,117.0234" style="stroke: #A80036; stroke-width: 1.0;"/><line style="stroke: #A80036; stroke-width: 1.0;" x1="125" x2="283" y1="117.0234" y2="117.0234"/><text fill="#000000" font-family="sans-serif" font-size="13" lengthAdjust="spacingAndGlyphs" textLength="145" x="134.5" y="111.9575">parseCommand(undo)</text><polygon fill="#A80036" points="385.5,127.0234,395.5,131.0234,385.5,135.0234,389.5,131.0234" style="stroke: #A80036; stroke-width: 1.0;"/><line style="stroke: #A80036; stroke-width: 1.0;" x1="299" x2="391.5" y1="131.0234" y2="131.0234"/><rect fill="#3333C4" height="30.2969" style="stroke: #A80036; stroke-width: 1.5;" width="136" x="397.5" y="125.0234"/><text fill="#FFFFFF" font-family="sans-serif" font-size="14" lengthAdjust="spacingAndGlyphs" textLength="122" x="404.5" y="145.0186">u:UndoCommand</text><polygon fill="#A80036" points="310,168.3203,300,172.3203,310,176.3203,306,172.3203" style="stroke: #A80036; stroke-width: 1.0;"/><line style="stroke: #A80036; stroke-width: 1.0; stroke-dasharray: 2.0,2.0;" x1="304" x2="464.5" y1="172.3203" y2="172.3203"/><polygon fill="#A80036" points="136,197.4531,126,201.4531,136,205.4531,132,201.4531" style="stroke: #A80036; stroke-width: 1.0;"/><line style="stroke: #A80036; stroke-width: 1.0; stroke-dasharray: 2.0,2.0;" x1="130" x2="293" y1="201.4531" y2="201.4531"/><text fill="#000000" font-family="sans-serif" font-size="13" lengthAdjust="spacingAndGlyphs" textLength="8" x="205.5" y="196.3872">u</text><polygon fill="#A80036" points="448.5,226.5859,458.5,230.5859,448.5,234.5859,452.5,230.5859" style="stroke: #A80036; stroke-width: 1.0;"/><line style="stroke: #A80036; stroke-width: 1.0;" x1="125" x2="454.5" y1="230.5859" y2="230.5859"/><text fill="#000000" font-family="sans-serif" font-size="13" lengthAdjust="spacingAndGlyphs" textLength="61" x="262.25" y="225.52">execute()</text><polygon fill="#A80036" points="593.5,255.7188,603.5,259.7188,593.5,263.7188,597.5,259.7188" style="stroke: #A80036; stroke-width: 1.0;"/><line style="stroke: #A80036; stroke-width: 1.0;" x1="470.5" x2="599.5" y1="259.7188" y2="259.7188"/><text fill="#000000" font-family="sans-serif" font-size="13" lengthAdjust="spacingAndGlyphs" textLength="116" x="480" y="254.6528">undoRecipeBook()</text><polygon fill="#A80036" points="742,284.8516,752,288.8516,742,292.8516,746,288.8516" style="stroke: #A80036; stroke-width: 1.0;"/><line style="stroke: #A80036; stroke-width: 1.0;" x1="615.5" x2="748" y1="288.8516" y2="288.8516"/><text fill="#000000" font-family="sans-serif" font-size="13" lengthAdjust="spacingAndGlyphs" textLength="42" x="663.75" y="283.7856">undo()</text><line style="stroke: #A80036; stroke-width: 1.0;" x1="764" x2="806" y1="317.9844" y2="317.9844"/><line style="stroke: #A80036; stroke-width: 1.0;" x1="806" x2="806" y1="317.9844" y2="330.9844"/><line style="stroke: #A80036; stroke-width: 1.0;" x1="765" x2="806" y1="330.9844" y2="330.9844"/><polygon fill="#A80036" points="775,326.9844,765,330.9844,775,334.9844,771,330.9844" style="stroke: #A80036; stroke-width: 1.0;"/><text fill="#000000" font-family="sans-serif" font-size="13" lengthAdjust="spacingAndGlyphs" textLength="208" x="771" y="312.9185">resetData(ReadOnlyRecipeBook)</text><polygon fill="#A80036" points="626.5,340.9844,616.5,344.9844,626.5,348.9844,622.5,344.9844" style="stroke: #A80036; stroke-width: 1.0;"/><line style="stroke: #A80036; stroke-width: 1.0; stroke-dasharray: 2.0,2.0;" x1="620.5" x2="758" y1="344.9844" y2="344.9844"/><polygon fill="#A80036" points="481.5,354.9844,471.5,358.9844,481.5,362.9844,477.5,358.9844" style="stroke: #A80036; stroke-width: 1.0;"/><line style="stroke: #A80036; stroke-width: 1.0; stroke-dasharray: 2.0,2.0;" x1="475.5" x2="609.5" y1="358.9844" y2="358.9844"/><polygon fill="#A80036" points="136,384.1172,126,388.1172,136,392.1172,132,388.1172" style="stroke: #A80036; stroke-width: 1.0;"/><line style="stroke: #A80036; stroke-width: 1.0; stroke-dasharray: 2.0,2.0;" x1="130" x2="464.5" y1="388.1172" y2="388.1172"/><text fill="#000000" font-family="sans-serif" font-size="13" lengthAdjust="spacingAndGlyphs" textLength="36" x="277.25" y="383.0513">result</text><line style="stroke: #A80036; stroke-width: 2.0;" x1="456.5" x2="474.5" y1="408.25" y2="426.25"/><line style="stroke: #A80036; stroke-width: 2.0;" x1="456.5" x2="474.5" y1="426.25" y2="408.25"/><polygon fill="#A80036" points="14,427.25,4,431.25,14,435.25,10,431.25" style="stroke: #A80036; stroke-width: 1.0;"/><line style="stroke: #A80036; stroke-width: 1.0; stroke-dasharray: 2.0,2.0;" x1="8" x2="119" y1="431.25" y2="431.25"/><!--MD5=[e5fbba1cc9f5280b263382ea6d458516]
@startuml








skinparam BackgroundColor #FFFFFFF

skinparam Shadowing false

skinparam Class {
    FontColor #FFFFFF
    BorderThickness 1
    BorderColor #FFFFFF
    StereotypeFontColor #FFFFFF
    FontName Arial
}

skinparam Actor {
    BorderColor #000000
    Color #000000
    FontName Arial
}

skinparam Sequence {
    MessageAlign center
    BoxFontSize 15
    BoxPadding 0
    BoxFontColor #FFFFFF
    FontName Arial
}

skinparam Participant {
    FontColor #FFFFFFF
    Padding 20
}

skinparam MinClassWidth 50
skinparam ParticipantPadding 10
skinparam Shadowing false
skinparam DefaultTextAlignment center
skinparam packageStyle Rectangle

hide footbox
hide members
hide circle


box Logic #C8C8FA
participant ":LogicManager" as LogicManager #3333C4
participant ":RecipeBookParser" as RecipeBookParser #3333C4
participant "u:UndoCommand" as UndoCommand #3333C4
end box

box Model #F97181
participant ":Model" as Model #9D0012
participant ":VersionedRecipeBook" as VersionedRecipeBook #9D0012
end box
[-> LogicManager : execute(undo)
activate LogicManager

LogicManager -> RecipeBookParser : parseCommand(undo)
activate RecipeBookParser

create UndoCommand
RecipeBookParser -> UndoCommand
activate UndoCommand

UndoCommand - -> RecipeBookParser
deactivate UndoCommand

RecipeBookParser - -> LogicManager : u
deactivate RecipeBookParser

LogicManager -> UndoCommand : execute()
activate UndoCommand

UndoCommand -> Model : undoRecipeBook()
activate Model

Model -> VersionedRecipeBook : undo()
activate VersionedRecipeBook

VersionedRecipeBook -> VersionedRecipeBook :resetData(ReadOnlyRecipeBook)
VersionedRecipeBook - -> Model :
deactivate VersionedRecipeBook

Model - -> UndoCommand
deactivate Model

UndoCommand - -> LogicManager : result
deactivate UndoCommand
UndoCommand -[hidden]-> LogicManager : result
destroy UndoCommand

[<- -LogicManager
deactivate LogicManager
@enduml

PlantUML version 1.2020.03beta11(Unknown compile time)
(GPL source distribution)
Java Runtime: Java(TM) SE Runtime Environment
JVM: Java HotSpot(TM) 64-Bit Server VM
Java Version: 1.7.0_25-b15
Operating System: Linux
Default Encoding: UTF-8
Language: en
Country: US
--></g></svg>
