<?xml version="1.0" encoding="UTF-8" standalone="no"?><svg xmlns="http://www.w3.org/2000/svg" xmlns:xlink="http://www.w3.org/1999/xlink" contentScriptType="application/ecmascript" contentStyleType="text/css" height="433.6px" preserveAspectRatio="none" style="width:795px;height:433px;" version="1.1" viewBox="0 0 795 433" width="795.2px" zoomAndPan="magnify"><defs/><g><rect fill="#C8C8FA" height="416.1453" style="stroke: #A80036; stroke-width: 0.8;" width="660.8" x="50.4" y="3.2"/><text fill="#FFFFFF" font-family="Arial" font-size="12" font-weight="bold" lengthAdjust="spacingAndGlyphs" textLength="31.2" x="363.6" y="14.4559">Logic</text><rect fill="#F97181" height="416.1453" style="stroke: #A80036; stroke-width: 0.8;" width="73.6" x="712.8" y="3.2"/><text fill="#FFFFFF" font-family="Arial" font-size="12" font-weight="bold" lengthAdjust="spacingAndGlyphs" textLength="35.2" x="730.4" y="14.4559">Model</text><rect fill="#FFFFFF" height="339.9086" style="stroke: #A80036; stroke-width: 0.8;" width="8" x="100.8" y="69.8367"/><rect fill="#FFFFFF" height="180.7938" style="stroke: #A80036; stroke-width: 0.8;" width="8" x="243.2" y="92.9957"/><rect fill="#FFFFFF" height="24.8789" style="stroke: #A80036; stroke-width: 0.8;" width="8" x="385.6" y="112.1957"/><rect fill="#FFFFFF" height="79.1969" style="stroke: #A80036; stroke-width: 0.8;" width="8" x="385.6" y="160.2336"/><rect fill="#FFFFFF" height="36.8379" style="stroke: #A80036; stroke-width: 0.8;" width="8" x="524" y="179.4336"/><rect fill="#FFFFFF" height="101.5969" style="stroke: #A80036; stroke-width: 0.8;" width="8" x="524" y="296.9484"/><rect fill="#FFFFFF" height="24.8789" style="stroke: #A80036; stroke-width: 0.8;" width="8" x="647.2" y="350.5074"/><rect fill="#FFFFFF" height="11.2" style="stroke: #A80036; stroke-width: 0.8;" width="8" x="745.6" y="320.1074"/><line style="stroke: #A80036; stroke-width: 0.8; stroke-dasharray: 5.0,5.0;" x1="104.8" x2="104.8" y1="45.0777" y2="424.1453"/><line style="stroke: #A80036; stroke-width: 0.8; stroke-dasharray: 5.0,5.0;" x1="247.2" x2="247.2" y1="45.0777" y2="424.1453"/><line style="stroke: #A80036; stroke-width: 0.8; stroke-dasharray: 5.0,5.0;" x1="389.6" x2="389.6" y1="123.8352" y2="424.1453"/><line style="stroke: #A80036; stroke-width: 0.8; stroke-dasharray: 5.0,5.0;" x1="528" x2="528" y1="191.073" y2="424.1453"/><line style="stroke: #A80036; stroke-width: 0.8; stroke-dasharray: 5.0,5.0;" x1="651.2" x2="651.2" y1="362.1469" y2="424.1453"/><line style="stroke: #A80036; stroke-width: 0.8; stroke-dasharray: 5.0,5.0;" x1="749.6" x2="749.6" y1="45.0777" y2="424.1453"/><rect fill="#3333C4" height="24.0789" style="stroke: #A80036; stroke-width: 1.2000000000000002;" width="86.4" x="61.6" y="20.1988"/><text fill="#FFFFFF" font-family="Arial" font-size="11.2" lengthAdjust="spacingAndGlyphs" textLength="75.2" x="67.2" y="36.3043">:LogicManager</text><rect fill="#3333C4" height="24.0789" style="stroke: #A80036; stroke-width: 1.2000000000000002;" width="108.8" x="192.8" y="20.1988"/><text fill="#FFFFFF" font-family="Arial" font-size="11.2" lengthAdjust="spacingAndGlyphs" textLength="97.6" x="198.4" y="36.3043">:RecipeBookParser</text><rect fill="#9D0012" height="24.0789" style="stroke: #A80036; stroke-width: 1.2000000000000002;" width="51.2" x="724" y="20.1988"/><text fill="#FFFFFF" font-family="Arial" font-size="11.2" lengthAdjust="spacingAndGlyphs" textLength="33.6" x="732.8" y="36.3043">:Model</text><rect fill="#FFFFFF" height="339.9086" style="stroke: #A80036; stroke-width: 0.8;" width="8" x="100.8" y="69.8367"/><rect fill="#FFFFFF" height="180.7938" style="stroke: #A80036; stroke-width: 0.8;" width="8" x="243.2" y="92.9957"/><rect fill="#FFFFFF" height="24.8789" style="stroke: #A80036; stroke-width: 0.8;" width="8" x="385.6" y="112.1957"/><rect fill="#FFFFFF" height="79.1969" style="stroke: #A80036; stroke-width: 0.8;" width="8" x="385.6" y="160.2336"/><rect fill="#FFFFFF" height="36.8379" style="stroke: #A80036; stroke-width: 0.8;" width="8" x="524" y="179.4336"/><rect fill="#FFFFFF" height="101.5969" style="stroke: #A80036; stroke-width: 0.8;" width="8" x="524" y="296.9484"/><rect fill="#FFFFFF" height="24.8789" style="stroke: #A80036; stroke-width: 0.8;" width="8" x="647.2" y="350.5074"/><rect fill="#FFFFFF" height="11.2" style="stroke: #A80036; stroke-width: 0.8;" width="8" x="745.6" y="320.1074"/><polygon fill="#A80036" points="91.2,66.6367,99.2,69.8367,91.2,73.0367,94.4,69.8367" style="stroke: #A80036; stroke-width: 0.8;"/><line style="stroke: #A80036; stroke-width: 0.8;" x1="2.4" x2="96" y1="69.8367" y2="69.8367"/><text fill="#000000" font-family="Arial" font-size="10.4" lengthAdjust="spacingAndGlyphs" textLength="83.2" x="10" y="66.0328">execute("unfav 1")</text><polygon fill="#A80036" points="233.6,89.7957,241.6,92.9957,233.6,96.1957,236.8,92.9957" style="stroke: #A80036; stroke-width: 0.8;"/><line style="stroke: #A80036; stroke-width: 0.8;" x1="108.8" x2="238.4" y1="92.9957" y2="92.9957"/><text fill="#000000" font-family="Arial" font-size="10.4" lengthAdjust="spacingAndGlyphs" textLength="119.2" x="116.4" y="89.1918">parseCommand("unfav 1")</text><polygon fill="#A80036" points="316,100.9957,324,104.1957,316,107.3957,319.2,104.1957" style="stroke: #A80036; stroke-width: 0.8;"/><line style="stroke: #A80036; stroke-width: 0.8;" x1="251.2" x2="320.8" y1="104.1957" y2="104.1957"/><rect fill="#3333C4" height="24.0789" style="stroke: #A80036; stroke-width: 1.2000000000000002;" width="128" x="325.6" y="99.3957"/><text fill="#FFFFFF" font-family="Arial" font-size="11.2" lengthAdjust="spacingAndGlyphs" textLength="116.8" x="331.2" y="115.5012">:UnfavCommandParser</text><polygon fill="#A80036" points="260,133.8746,252,137.0746,260,140.2746,256.8,137.0746" style="stroke: #A80036; stroke-width: 0.8;"/><line style="stroke: #A80036; stroke-width: 0.8; stroke-dasharray: 2.0,2.0;" x1="255.2" x2="388.8" y1="137.0746" y2="137.0746"/><polygon fill="#A80036" points="376,157.0336,384,160.2336,376,163.4336,379.2,160.2336" style="stroke: #A80036; stroke-width: 0.8;"/><line style="stroke: #A80036; stroke-width: 0.8;" x1="251.2" x2="380.8" y1="160.2336" y2="160.2336"/><text fill="#000000" font-family="Arial" font-size="10.4" lengthAdjust="spacingAndGlyphs" textLength="45.6" x="295.6" y="156.4297">parse("1")</text><polygon fill="#A80036" points="468,168.2336,476,171.4336,468,174.6336,471.2,171.4336" style="stroke: #A80036; stroke-width: 0.8;"/><line style="stroke: #A80036; stroke-width: 0.8;" x1="393.6" x2="472.8" y1="171.4336" y2="171.4336"/><rect fill="#3333C4" height="24.0789" style="stroke: #A80036; stroke-width: 1.2000000000000002;" width="100.8" x="477.6" y="166.6336"/><text fill="#FFFFFF" font-family="Arial" font-size="11.2" lengthAdjust="spacingAndGlyphs" textLength="89.6" x="483.2" y="182.7391">d:UnfavCommand</text><polygon fill="#A80036" points="402.4,213.0715,394.4,216.2715,402.4,219.4715,399.2,216.2715" style="stroke: #A80036; stroke-width: 0.8;"/><line style="stroke: #A80036; stroke-width: 0.8; stroke-dasharray: 2.0,2.0;" x1="397.6" x2="527.2" y1="216.2715" y2="216.2715"/><text fill="#000000" font-family="Arial" font-size="10.4" lengthAdjust="spacingAndGlyphs" textLength="5.6" x="458" y="212.4676">d</text><polygon fill="#A80036" points="260,236.2305,252,239.4305,260,242.6305,256.8,239.4305" style="stroke: #A80036; stroke-width: 0.8;"/><line style="stroke: #A80036; stroke-width: 0.8; stroke-dasharray: 2.0,2.0;" x1="255.2" x2="388.8" y1="239.4305" y2="239.4305"/><text fill="#000000" font-family="Arial" font-size="10.4" lengthAdjust="spacingAndGlyphs" textLength="5.6" x="317.6" y="235.6266">d</text><line style="stroke: #A80036; stroke-width: 1.6;" x1="382.4" x2="396.8" y1="243.4305" y2="257.8305"/><line style="stroke: #A80036; stroke-width: 1.6;" x1="382.4" x2="396.8" y1="257.8305" y2="243.4305"/><polygon fill="#A80036" points="117.6,270.5895,109.6,273.7895,117.6,276.9895,114.4,273.7895" style="stroke: #A80036; stroke-width: 0.8;"/><line style="stroke: #A80036; stroke-width: 0.8; stroke-dasharray: 2.0,2.0;" x1="112.8" x2="246.4" y1="273.7895" y2="273.7895"/><text fill="#000000" font-family="Arial" font-size="10.4" lengthAdjust="spacingAndGlyphs" textLength="5.6" x="175.2" y="269.9855">d</text><polygon fill="#A80036" points="514.4,293.7484,522.4,296.9484,514.4,300.1484,517.6,296.9484" style="stroke: #A80036; stroke-width: 0.8;"/><line style="stroke: #A80036; stroke-width: 0.8;" x1="108.8" x2="519.2" y1="296.9484" y2="296.9484"/><text fill="#000000" font-family="Arial" font-size="10.4" lengthAdjust="spacingAndGlyphs" textLength="43.2" x="294.8" y="293.1445">execute()</text><polygon fill="#A80036" points="736,316.9074,744,320.1074,736,323.3074,739.2,320.1074" style="stroke: #A80036; stroke-width: 0.8;"/><line style="stroke: #A80036; stroke-width: 0.8;" x1="532" x2="740.8" y1="320.1074" y2="320.1074"/><text fill="#000000" font-family="Arial" font-size="10.4" lengthAdjust="spacingAndGlyphs" textLength="68.8" x="604.4" y="316.3035">unFavRecipe(r)</text><polygon fill="#A80036" points="540.8,328.1074,532.8,331.3074,540.8,334.5074,537.6,331.3074" style="stroke: #A80036; stroke-width: 0.8;"/><line style="stroke: #A80036; stroke-width: 0.8; stroke-dasharray: 2.0,2.0;" x1="536" x2="748.8" y1="331.3074" y2="331.3074"/><polygon fill="#A80036" points="592.8,339.3074,600.8,342.5074,592.8,345.7074,596,342.5074" style="stroke: #A80036; stroke-width: 0.8;"/><line style="stroke: #A80036; stroke-width: 0.8;" x1="532" x2="597.6" y1="342.5074" y2="342.5074"/><rect fill="#3333C4" height="24.0789" style="stroke: #A80036; stroke-width: 1.2000000000000002;" width="97.6" x="602.4" y="337.7074"/><text fill="#FFFFFF" font-family="Arial" font-size="11.2" lengthAdjust="spacingAndGlyphs" textLength="86.4" x="608" y="353.8129">:CommandResult</text><polygon fill="#A80036" points="540.8,372.1863,532.8,375.3863,540.8,378.5863,537.6,375.3863" style="stroke: #A80036; stroke-width: 0.8;"/><line style="stroke: #A80036; stroke-width: 0.8; stroke-dasharray: 2.0,2.0;" x1="536" x2="650.4" y1="375.3863" y2="375.3863"/><polygon fill="#A80036" points="117.6,395.3453,109.6,398.5453,117.6,401.7453,114.4,398.5453" style="stroke: #A80036; stroke-width: 0.8;"/><line style="stroke: #A80036; stroke-width: 0.8; stroke-dasharray: 2.0,2.0;" x1="112.8" x2="527.2" y1="398.5453" y2="398.5453"/><text fill="#000000" font-family="Arial" font-size="10.4" lengthAdjust="spacingAndGlyphs" textLength="25.6" x="305.6" y="394.7414">result</text><polygon fill="#A80036" points="11.2,406.5453,3.2,409.7453,11.2,412.9453,8,409.7453" style="stroke: #A80036; stroke-width: 0.8;"/><line style="stroke: #A80036; stroke-width: 0.8; stroke-dasharray: 2.0,2.0;" x1="6.4" x2="104" y1="409.7453" y2="409.7453"/><!--MD5=[4771d2fe88ded45916512a2d0a880eee]
@startuml UnfavSequenceDiagram








skinparam BackgroundColor #FFFFFFF

skinparam Shadowing false

skinparam Class {
    FontColor #FFFFFF
    BorderThickness 1
    BorderColor #FFFFFF
    StereotypeFontColor #FFFFFF
}

skinparam Actor {
    BorderColor #000000
    Color #000000
}

skinparam Sequence {
    MessageAlign center
    BoxFontSize 15
    BoxPadding 0
    BoxFontColor #FFFFFF
    SequenceBoxFontName Segoe UI
}

skinparam Participant {
    FontColor #FFFFFFF
    Padding 20
}

skinparam MinClassWidth 50
skinparam ParticipantPadding 10
skinparam Shadowing false
skinparam DefaultTextAlignment center
skinparam packageStyle Folder

skinparam DefaultFontName Arial
skinparam defaultMonospacedFontName Consolas

hide footbox
hide members
hide circle

box Logic #C8C8FA
participant ":LogicManager" as LogicManager #3333C4
participant ":RecipeBookParser" as RecipeBookParser #3333C4
participant ":UnfavCommandParser" as UnfavCommandParser #3333C4
participant "d:UnfavCommand" as UnfavCommand #3333C4
participant ":CommandResult" as CommandResult #3333C4
end box

box Model #F97181
participant ":Model" as Model #9D0012
end box


[-> LogicManager : execute("unfav 1")
activate LogicManager

LogicManager -> RecipeBookParser : parseCommand("unfav 1")
activate RecipeBookParser

create UnfavCommandParser
RecipeBookParser -> UnfavCommandParser
activate UnfavCommandParser

UnfavCommandParser - -> RecipeBookParser
deactivate UnfavCommandParser

RecipeBookParser -> UnfavCommandParser : parse("1")
activate UnfavCommandParser

create UnfavCommand
UnfavCommandParser -> UnfavCommand
activate UnfavCommand

UnfavCommand - -> UnfavCommandParser : d

deactivate UnfavCommand

UnfavCommandParser - -> RecipeBookParser : d
deactivate UnfavCommandParser
UnfavCommandParser -[hidden]-> RecipeBookParser
destroy UnfavCommandParser

RecipeBookParser - -> LogicManager : d
deactivate RecipeBookParser

LogicManager -> UnfavCommand : execute()
activate UnfavCommand

UnfavCommand -> Model : unFavRecipe(r)
activate Model

Model - -> UnfavCommand
deactivate Model

create CommandResult
UnfavCommand -> CommandResult
activate CommandResult

CommandResult - -> UnfavCommand
deactivate CommandResult

UnfavCommand - -> LogicManager : result
deactivate UnfavCommand

[<- -LogicManager
deactivate LogicManager
@enduml

PlantUML version 1.2020.03beta6(Unknown compile time)
(GPL source distribution)
Java Runtime: OpenJDK Runtime Environment
JVM: OpenJDK 64-Bit Server VM
Java Version: 11.0.5+10-b520.17
Operating System: Windows 10
Default Encoding: Cp1252
Language: en
Country: SG
--></g></svg>
