<?xml version="1.0" encoding="UTF-8" standalone="no"?><svg xmlns="http://www.w3.org/2000/svg" xmlns:xlink="http://www.w3.org/1999/xlink" contentScriptType="application/ecmascript" contentStyleType="text/css" height="468px" preserveAspectRatio="none" style="width:851px;height:468px;" version="1.1" viewBox="0 0 851 468" width="851.2px" zoomAndPan="magnify"><defs/><g><rect fill="#C8C8FA" height="450.5043" style="stroke: #A80036; stroke-width: 0.8;" width="645.6" x="46.4" y="3.2"/><text fill="#FFFFFF" font-family="Arial" font-size="12" font-weight="bold" lengthAdjust="spacingAndGlyphs" textLength="31.2" x="352" y="14.4559">Logic</text><rect fill="#F97181" height="450.5043" style="stroke: #A80036; stroke-width: 0.8;" width="73.6" x="693.6" y="3.2"/><text fill="#FFFFFF" font-family="Arial" font-size="12" font-weight="bold" lengthAdjust="spacingAndGlyphs" textLength="35.2" x="711.2" y="14.4559">Model</text><rect fill="#83E769" height="450.5043" style="stroke: #A80036; stroke-width: 0.8;" width="73.6" x="768.8" y="3.2"/><text fill="#FFFFFF" font-family="Arial" font-size="12" font-weight="bold" lengthAdjust="spacingAndGlyphs" textLength="12" x="798" y="14.4559">Ui</text><rect fill="#FFFFFF" height="374.2676" style="stroke: #A80036; stroke-width: 0.8;" width="8" x="96.8" y="69.8367"/><rect fill="#FFFFFF" height="215.1527" style="stroke: #A80036; stroke-width: 0.8;" width="8" x="235.2" y="92.9957"/><rect fill="#FFFFFF" height="24.8789" style="stroke: #A80036; stroke-width: 0.8;" width="8" x="374.8" y="112.1957"/><rect fill="#FFFFFF" height="113.5559" style="stroke: #A80036; stroke-width: 0.8;" width="8" x="374.8" y="160.2336"/><rect fill="#FFFFFF" height="71.1969" style="stroke: #A80036; stroke-width: 0.8;" width="8" x="507.6" y="179.4336"/><rect fill="#FFFFFF" height="101.5969" style="stroke: #A80036; stroke-width: 0.8;" width="8" x="507.6" y="331.3074"/><rect fill="#FFFFFF" height="24.8789" style="stroke: #A80036; stroke-width: 0.8;" width="8" x="628" y="384.8664"/><rect fill="#FFFFFF" height="11.2" style="stroke: #A80036; stroke-width: 0.8;" width="8" x="726.4" y="354.4664"/><rect fill="#FFFFFF" height="11.2" style="stroke: #A80036; stroke-width: 0.8;" width="8" x="801.6" y="239.4305"/><line style="stroke: #A80036; stroke-width: 0.8; stroke-dasharray: 5.0,5.0;" x1="100.8" x2="100.8" y1="45.0777" y2="458.5043"/><line style="stroke: #A80036; stroke-width: 0.8; stroke-dasharray: 5.0,5.0;" x1="239.2" x2="239.2" y1="45.0777" y2="458.5043"/><line style="stroke: #A80036; stroke-width: 0.8; stroke-dasharray: 5.0,5.0;" x1="378.4" x2="378.4" y1="123.8352" y2="458.5043"/><line style="stroke: #A80036; stroke-width: 0.8; stroke-dasharray: 5.0,5.0;" x1="511.2" x2="511.2" y1="191.073" y2="458.5043"/><line style="stroke: #A80036; stroke-width: 0.8; stroke-dasharray: 5.0,5.0;" x1="632" x2="632" y1="396.5059" y2="458.5043"/><line style="stroke: #A80036; stroke-width: 0.8; stroke-dasharray: 5.0,5.0;" x1="730.4" x2="730.4" y1="45.0777" y2="458.5043"/><line style="stroke: #A80036; stroke-width: 0.8; stroke-dasharray: 5.0,5.0;" x1="805.6" x2="805.6" y1="45.0777" y2="458.5043"/><rect fill="#3333C4" height="24.0789" style="stroke: #A80036; stroke-width: 1.2000000000000002;" width="86.4" x="57.6" y="20.1988"/><text fill="#FFFFFF" font-family="Arial" font-size="11.2" lengthAdjust="spacingAndGlyphs" textLength="75.2" x="63.2" y="36.3043">:LogicManager</text><rect fill="#3333C4" height="24.0789" style="stroke: #A80036; stroke-width: 1.2000000000000002;" width="108.8" x="184.8" y="20.1988"/><text fill="#FFFFFF" font-family="Arial" font-size="11.2" lengthAdjust="spacingAndGlyphs" textLength="97.6" x="190.4" y="36.3043">:RecipeBookParser</text><rect fill="#9D0012" height="24.0789" style="stroke: #A80036; stroke-width: 1.2000000000000002;" width="51.2" x="704.8" y="20.1988"/><text fill="#FFFFFF" font-family="Arial" font-size="11.2" lengthAdjust="spacingAndGlyphs" textLength="33.6" x="713.6" y="36.3043">:Model</text><rect fill="#1D8900" height="24.0789" style="stroke: #A80036; stroke-width: 1.2000000000000002;" width="51.2" x="780" y="20.1988"/><text fill="#FFFFFF" font-family="Arial" font-size="11.2" lengthAdjust="spacingAndGlyphs" textLength="12.8" x="799.2" y="36.3043">:Ui</text><rect fill="#FFFFFF" height="374.2676" style="stroke: #A80036; stroke-width: 0.8;" width="8" x="96.8" y="69.8367"/><rect fill="#FFFFFF" height="215.1527" style="stroke: #A80036; stroke-width: 0.8;" width="8" x="235.2" y="92.9957"/><rect fill="#FFFFFF" height="24.8789" style="stroke: #A80036; stroke-width: 0.8;" width="8" x="374.8" y="112.1957"/><rect fill="#FFFFFF" height="113.5559" style="stroke: #A80036; stroke-width: 0.8;" width="8" x="374.8" y="160.2336"/><rect fill="#FFFFFF" height="71.1969" style="stroke: #A80036; stroke-width: 0.8;" width="8" x="507.6" y="179.4336"/><rect fill="#FFFFFF" height="101.5969" style="stroke: #A80036; stroke-width: 0.8;" width="8" x="507.6" y="331.3074"/><rect fill="#FFFFFF" height="24.8789" style="stroke: #A80036; stroke-width: 0.8;" width="8" x="628" y="384.8664"/><rect fill="#FFFFFF" height="11.2" style="stroke: #A80036; stroke-width: 0.8;" width="8" x="726.4" y="354.4664"/><rect fill="#FFFFFF" height="11.2" style="stroke: #A80036; stroke-width: 0.8;" width="8" x="801.6" y="239.4305"/><polygon fill="#A80036" points="87.2,66.6367,95.2,69.8367,87.2,73.0367,90.4,69.8367" style="stroke: #A80036; stroke-width: 0.8;"/><line style="stroke: #A80036; stroke-width: 0.8;" x1="2.4" x2="92" y1="69.8367" y2="69.8367"/><text fill="#000000" font-family="Arial" font-size="10.4" lengthAdjust="spacingAndGlyphs" textLength="79.2" x="10" y="66.0328">execute("view 1")</text><polygon fill="#A80036" points="225.6,89.7957,233.6,92.9957,225.6,96.1957,228.8,92.9957" style="stroke: #A80036; stroke-width: 0.8;"/><line style="stroke: #A80036; stroke-width: 0.8;" x1="104.8" x2="230.4" y1="92.9957" y2="92.9957"/><text fill="#000000" font-family="Arial" font-size="10.4" lengthAdjust="spacingAndGlyphs" textLength="115.2" x="112.4" y="89.1918">parseCommand("view 1")</text><polygon fill="#A80036" points="308,100.9957,316,104.1957,308,107.3957,311.2,104.1957" style="stroke: #A80036; stroke-width: 0.8;"/><line style="stroke: #A80036; stroke-width: 0.8;" x1="243.2" x2="312.8" y1="104.1957" y2="104.1957"/><rect fill="#3333C4" height="24.0789" style="stroke: #A80036; stroke-width: 1.2000000000000002;" width="122.4" x="317.6" y="99.3957"/><text fill="#FFFFFF" font-family="Arial" font-size="11.2" lengthAdjust="spacingAndGlyphs" textLength="111.2" x="323.2" y="115.5012">:ViewCommandParser</text><polygon fill="#A80036" points="252,133.8746,244,137.0746,252,140.2746,248.8,137.0746" style="stroke: #A80036; stroke-width: 0.8;"/><line style="stroke: #A80036; stroke-width: 0.8; stroke-dasharray: 2.0,2.0;" x1="247.2" x2="378" y1="137.0746" y2="137.0746"/><polygon fill="#A80036" points="365.2,157.0336,373.2,160.2336,365.2,163.4336,368.4,160.2336" style="stroke: #A80036; stroke-width: 0.8;"/><line style="stroke: #A80036; stroke-width: 0.8;" x1="243.2" x2="370" y1="160.2336" y2="160.2336"/><text fill="#000000" font-family="Arial" font-size="10.4" lengthAdjust="spacingAndGlyphs" textLength="45.6" x="286.2" y="156.4297">parse("1")</text><polygon fill="#A80036" points="454.4,168.2336,462.4,171.4336,454.4,174.6336,457.6,171.4336" style="stroke: #A80036; stroke-width: 0.8;"/><line style="stroke: #A80036; stroke-width: 0.8;" x1="382.8" x2="459.2" y1="171.4336" y2="171.4336"/><rect fill="#3333C4" height="24.0789" style="stroke: #A80036; stroke-width: 1.2000000000000002;" width="95.2" x="464" y="166.6336"/><text fill="#FFFFFF" font-family="Arial" font-size="11.2" lengthAdjust="spacingAndGlyphs" textLength="84" x="469.6" y="182.7391">d:ViewCommand</text><polygon fill="#A80036" points="391.6,213.0715,383.6,216.2715,391.6,219.4715,388.4,216.2715" style="stroke: #A80036; stroke-width: 0.8;"/><line style="stroke: #A80036; stroke-width: 0.8; stroke-dasharray: 2.0,2.0;" x1="386.8" x2="506.8" y1="216.2715" y2="216.2715"/><text fill="#000000" font-family="Arial" font-size="10.4" lengthAdjust="spacingAndGlyphs" textLength="5.6" x="442.4" y="212.4676">d</text><polygon fill="#A80036" points="792,236.2305,800,239.4305,792,242.6305,795.2,239.4305" style="stroke: #A80036; stroke-width: 0.8;"/><line style="stroke: #A80036; stroke-width: 0.8;" x1="515.6" x2="796.8" y1="239.4305" y2="239.4305"/><text fill="#000000" font-family="Arial" font-size="10.4" lengthAdjust="spacingAndGlyphs" textLength="75.2" x="621" y="235.6266">changeRecipe(r)</text><polygon fill="#A80036" points="520.4,247.4305,512.4,250.6305,520.4,253.8305,517.2,250.6305" style="stroke: #A80036; stroke-width: 0.8;"/><line style="stroke: #A80036; stroke-width: 0.8; stroke-dasharray: 2.0,2.0;" x1="515.6" x2="804.8" y1="250.6305" y2="250.6305"/><polygon fill="#A80036" points="252,270.5895,244,273.7895,252,276.9895,248.8,273.7895" style="stroke: #A80036; stroke-width: 0.8;"/><line style="stroke: #A80036; stroke-width: 0.8; stroke-dasharray: 2.0,2.0;" x1="247.2" x2="378" y1="273.7895" y2="273.7895"/><text fill="#000000" font-family="Arial" font-size="10.4" lengthAdjust="spacingAndGlyphs" textLength="5.6" x="308.2" y="269.9855">d</text><line style="stroke: #A80036; stroke-width: 1.6;" x1="371.6" x2="386" y1="277.7895" y2="292.1895"/><line style="stroke: #A80036; stroke-width: 1.6;" x1="371.6" x2="386" y1="292.1895" y2="277.7895"/><polygon fill="#A80036" points="113.6,304.9484,105.6,308.1484,113.6,311.3484,110.4,308.1484" style="stroke: #A80036; stroke-width: 0.8;"/><line style="stroke: #A80036; stroke-width: 0.8; stroke-dasharray: 2.0,2.0;" x1="108.8" x2="238.4" y1="308.1484" y2="308.1484"/><text fill="#000000" font-family="Arial" font-size="10.4" lengthAdjust="spacingAndGlyphs" textLength="5.6" x="169.2" y="304.3445">d</text><polygon fill="#A80036" points="498,328.1074,506,331.3074,498,334.5074,501.2,331.3074" style="stroke: #A80036; stroke-width: 0.8;"/><line style="stroke: #A80036; stroke-width: 0.8;" x1="104.8" x2="502.8" y1="331.3074" y2="331.3074"/><text fill="#000000" font-family="Arial" font-size="10.4" lengthAdjust="spacingAndGlyphs" textLength="43.2" x="284.6" y="327.5035">execute()</text><polygon fill="#A80036" points="716.8,351.2664,724.8,354.4664,716.8,357.6664,720,354.4664" style="stroke: #A80036; stroke-width: 0.8;"/><line style="stroke: #A80036; stroke-width: 0.8;" x1="515.6" x2="721.6" y1="354.4664" y2="354.4664"/><text fill="#000000" font-family="Arial" font-size="10.4" lengthAdjust="spacingAndGlyphs" textLength="60.8" x="590.6" y="350.6625">viewRecipe(r)</text><polygon fill="#A80036" points="524.4,362.4664,516.4,365.6664,524.4,368.8664,521.2,365.6664" style="stroke: #A80036; stroke-width: 0.8;"/><line style="stroke: #A80036; stroke-width: 0.8; stroke-dasharray: 2.0,2.0;" x1="519.6" x2="729.6" y1="365.6664" y2="365.6664"/><polygon fill="#A80036" points="573.6,373.6664,581.6,376.8664,573.6,380.0664,576.8,376.8664" style="stroke: #A80036; stroke-width: 0.8;"/><line style="stroke: #A80036; stroke-width: 0.8;" x1="515.6" x2="578.4" y1="376.8664" y2="376.8664"/><rect fill="#3333C4" height="24.0789" style="stroke: #A80036; stroke-width: 1.2000000000000002;" width="97.6" x="583.2" y="372.0664"/><text fill="#FFFFFF" font-family="Arial" font-size="11.2" lengthAdjust="spacingAndGlyphs" textLength="86.4" x="588.8" y="388.1719">:CommandResult</text><polygon fill="#A80036" points="524.4,406.5453,516.4,409.7453,524.4,412.9453,521.2,409.7453" style="stroke: #A80036; stroke-width: 0.8;"/><line style="stroke: #A80036; stroke-width: 0.8; stroke-dasharray: 2.0,2.0;" x1="519.6" x2="631.2" y1="409.7453" y2="409.7453"/><polygon fill="#A80036" points="113.6,429.7043,105.6,432.9043,113.6,436.1043,110.4,432.9043" style="stroke: #A80036; stroke-width: 0.8;"/><line style="stroke: #A80036; stroke-width: 0.8; stroke-dasharray: 2.0,2.0;" x1="108.8" x2="510.8" y1="432.9043" y2="432.9043"/><text fill="#000000" font-family="Arial" font-size="10.4" lengthAdjust="spacingAndGlyphs" textLength="25.6" x="295.4" y="429.1004">result</text><polygon fill="#A80036" points="11.2,440.9043,3.2,444.1043,11.2,447.3043,8,444.1043" style="stroke: #A80036; stroke-width: 0.8;"/><line style="stroke: #A80036; stroke-width: 0.8; stroke-dasharray: 2.0,2.0;" x1="6.4" x2="100" y1="444.1043" y2="444.1043"/><!--MD5=[fcf67a4ca4e21f27706fddadcf3d9608]
@startuml ViewSequenceDiagram








skinparam BackgroundColor #FFFFFFF

skinparam Shadowing false

skinparam Class {
    FontColor #FFFFFF
    BorderThickness 1
    BorderColor #FFFFFF
    StereotypeFontColor #FFFFFF
}

skinparam Actor {
    BorderColor #000000
    Color #000000
}

skinparam Sequence {
    MessageAlign center
    BoxFontSize 15
    BoxPadding 0
    BoxFontColor #FFFFFF
    SequenceBoxFontName Segoe UI
}

skinparam Participant {
    FontColor #FFFFFFF
    Padding 20
}

skinparam MinClassWidth 50
skinparam ParticipantPadding 10
skinparam Shadowing false
skinparam DefaultTextAlignment center
skinparam packageStyle Folder

skinparam DefaultFontName Arial
skinparam defaultMonospacedFontName Consolas

hide footbox
hide members
hide circle

box Logic #C8C8FA
participant ":LogicManager" as LogicManager #3333C4
participant ":RecipeBookParser" as RecipeBookParser #3333C4
participant ":ViewCommandParser" as ViewCommandParser #3333C4
participant "d:ViewCommand" as ViewCommand #3333C4
participant ":CommandResult" as CommandResult #3333C4
end box

box Model #F97181
participant ":Model" as Model #9D0012
end box

box Ui #83E769
participant ":Ui" as Ui #1D8900
end box

[-> LogicManager : execute("view 1")
activate LogicManager

LogicManager -> RecipeBookParser : parseCommand("view 1")
activate RecipeBookParser

create ViewCommandParser
RecipeBookParser -> ViewCommandParser
activate ViewCommandParser

ViewCommandParser - -> RecipeBookParser
deactivate ViewCommandParser

RecipeBookParser -> ViewCommandParser : parse("1")
activate ViewCommandParser

create ViewCommand
ViewCommandParser -> ViewCommand
activate ViewCommand

ViewCommand - -> ViewCommandParser : d
ViewCommand -> Ui: changeRecipe(r)
activate Ui


Ui - -> ViewCommand
deactivate ViewCommand
deactivate Ui

ViewCommandParser - -> RecipeBookParser : d
deactivate ViewCommandParser
ViewCommandParser -[hidden]-> RecipeBookParser
destroy ViewCommandParser

RecipeBookParser - -> LogicManager : d
deactivate RecipeBookParser

LogicManager -> ViewCommand : execute()
activate ViewCommand

ViewCommand -> Model : viewRecipe(r)
activate Model

Model - -> ViewCommand
deactivate Model

create CommandResult
ViewCommand -> CommandResult
activate CommandResult

CommandResult - -> ViewCommand
deactivate CommandResult

ViewCommand - -> LogicManager : result
deactivate ViewCommand

[<- -LogicManager
deactivate LogicManager
@enduml

PlantUML version 1.2020.03beta6(Unknown compile time)
(GPL source distribution)
Java Runtime: OpenJDK Runtime Environment
JVM: OpenJDK 64-Bit Server VM
Java Version: 11.0.5+10-b520.17
Operating System: Windows 10
Default Encoding: Cp1252
Language: en
Country: SG
--></g></svg>
